ISO-10303-21;
HEADER;
/* Generated by software containing ST-Developer
 * from STEP Tools, Inc. (www.steptools.com) 
 */

FILE_DESCRIPTION(
/* description */ (''),
/* implementation_level */ '2;1');

FILE_NAME(
/* name */ 
'I:\\ASU_FOE\\graduation project\\quadcopter\\matlab xml\\231123\\\\20
20RightAngle_ipt_a59fb1f2.STEP',
/* time_stamp */ '2023-11-23T19:53:35+02:00',
/* author */ ('M'),
/* organization */ (''),
/* preprocessor_version */ 'ST-DEVELOPER v18.1',
/* originating_system */ 'Autodesk Inventor 2021',
/* authorisation */ '');

FILE_SCHEMA (('AUTOMOTIVE_DESIGN { 1 0 10303 214 3 1 1 }'));
ENDSEC;

DATA;
#10=MECHANICAL_DESIGN_GEOMETRIC_PRESENTATION_REPRESENTATION('',(#13),#535);
#11=SHAPE_REPRESENTATION_RELATIONSHIP('SRR','None',#542,#12);
#12=ADVANCED_BREP_SHAPE_REPRESENTATION('',(#14),#534);
#13=STYLED_ITEM('',(#551),#14);
#14=MANIFOLD_SOLID_BREP('Solid1',#317);
#15=FACE_BOUND('',#56,.T.);
#16=FACE_BOUND('',#60,.T.);
#17=FACE_BOUND('',#62,.T.);
#18=FACE_BOUND('',#66,.T.);
#19=CIRCLE('',#339,3.5);
#20=CIRCLE('',#340,3.5);
#21=CIRCLE('',#343,3.5);
#22=CIRCLE('',#344,3.5);
#23=CIRCLE('',#347,3.5);
#24=CIRCLE('',#348,3.5);
#25=CIRCLE('',#351,3.5);
#26=CIRCLE('',#352,3.5);
#27=CYLINDRICAL_SURFACE('',#338,3.5);
#28=CYLINDRICAL_SURFACE('',#342,3.5);
#29=CYLINDRICAL_SURFACE('',#346,3.5);
#30=CYLINDRICAL_SURFACE('',#350,3.5);
#31=FACE_OUTER_BOUND('',#47,.T.);
#32=FACE_OUTER_BOUND('',#48,.T.);
#33=FACE_OUTER_BOUND('',#49,.T.);
#34=FACE_OUTER_BOUND('',#50,.T.);
#35=FACE_OUTER_BOUND('',#51,.T.);
#36=FACE_OUTER_BOUND('',#52,.T.);
#37=FACE_OUTER_BOUND('',#53,.T.);
#38=FACE_OUTER_BOUND('',#54,.T.);
#39=FACE_OUTER_BOUND('',#55,.T.);
#40=FACE_OUTER_BOUND('',#57,.T.);
#41=FACE_OUTER_BOUND('',#58,.T.);
#42=FACE_OUTER_BOUND('',#59,.T.);
#43=FACE_OUTER_BOUND('',#61,.T.);
#44=FACE_OUTER_BOUND('',#63,.T.);
#45=FACE_OUTER_BOUND('',#64,.T.);
#46=FACE_OUTER_BOUND('',#65,.T.);
#47=EDGE_LOOP('',(#205,#206,#207,#208));
#48=EDGE_LOOP('',(#209,#210,#211,#212));
#49=EDGE_LOOP('',(#213,#214,#215,#216));
#50=EDGE_LOOP('',(#217,#218,#219,#220));
#51=EDGE_LOOP('',(#221,#222,#223,#224));
#52=EDGE_LOOP('',(#225,#226,#227,#228));
#53=EDGE_LOOP('',(#229,#230,#231,#232));
#54=EDGE_LOOP('',(#233,#234,#235,#236));
#55=EDGE_LOOP('',(#237,#238,#239,#240));
#56=EDGE_LOOP('',(#241,#242,#243,#244));
#57=EDGE_LOOP('',(#245,#246,#247,#248));
#58=EDGE_LOOP('',(#249,#250,#251,#252,#253,#254));
#59=EDGE_LOOP('',(#255,#256,#257,#258));
#60=EDGE_LOOP('',(#259,#260,#261,#262));
#61=EDGE_LOOP('',(#263,#264,#265,#266));
#62=EDGE_LOOP('',(#267,#268,#269,#270));
#63=EDGE_LOOP('',(#271,#272,#273,#274));
#64=EDGE_LOOP('',(#275,#276,#277,#278,#279,#280));
#65=EDGE_LOOP('',(#281,#282,#283,#284));
#66=EDGE_LOOP('',(#285,#286,#287,#288));
#67=LINE('',#449,#101);
#68=LINE('',#451,#102);
#69=LINE('',#453,#103);
#70=LINE('',#454,#104);
#71=LINE('',#459,#105);
#72=LINE('',#463,#106);
#73=LINE('',#465,#107);
#74=LINE('',#466,#108);
#75=LINE('',#473,#109);
#76=LINE('',#475,#110);
#77=LINE('',#477,#111);
#78=LINE('',#478,#112);
#79=LINE('',#483,#113);
#80=LINE('',#487,#114);
#81=LINE('',#489,#115);
#82=LINE('',#490,#116);
#83=LINE('',#497,#117);
#84=LINE('',#499,#118);
#85=LINE('',#501,#119);
#86=LINE('',#502,#120);
#87=LINE('',#506,#121);
#88=LINE('',#507,#122);
#89=LINE('',#508,#123);
#90=LINE('',#512,#124);
#91=LINE('',#514,#125);
#92=LINE('',#515,#126);
#93=LINE('',#516,#127);
#94=LINE('',#520,#128);
#95=LINE('',#521,#129);
#96=LINE('',#522,#130);
#97=LINE('',#524,#131);
#98=LINE('',#527,#132);
#99=LINE('',#528,#133);
#100=LINE('',#530,#134);
#101=VECTOR('',#365,10.);
#102=VECTOR('',#366,10.);
#103=VECTOR('',#367,10.);
#104=VECTOR('',#368,10.);
#105=VECTOR('',#373,10.);
#106=VECTOR('',#378,10.);
#107=VECTOR('',#379,10.);
#108=VECTOR('',#380,10.);
#109=VECTOR('',#389,10.);
#110=VECTOR('',#390,10.);
#111=VECTOR('',#391,10.);
#112=VECTOR('',#392,10.);
#113=VECTOR('',#397,10.);
#114=VECTOR('',#402,10.);
#115=VECTOR('',#403,10.);
#116=VECTOR('',#404,10.);
#117=VECTOR('',#413,10.);
#118=VECTOR('',#414,10.);
#119=VECTOR('',#415,10.);
#120=VECTOR('',#416,10.);
#121=VECTOR('',#419,10.);
#122=VECTOR('',#420,10.);
#123=VECTOR('',#421,10.);
#124=VECTOR('',#424,10.);
#125=VECTOR('',#425,10.);
#126=VECTOR('',#426,10.);
#127=VECTOR('',#427,10.);
#128=VECTOR('',#430,10.);
#129=VECTOR('',#431,10.);
#130=VECTOR('',#432,10.);
#131=VECTOR('',#435,10.);
#132=VECTOR('',#438,10.);
#133=VECTOR('',#439,10.);
#134=VECTOR('',#442,10.);
#135=VERTEX_POINT('',#447);
#136=VERTEX_POINT('',#448);
#137=VERTEX_POINT('',#450);
#138=VERTEX_POINT('',#452);
#139=VERTEX_POINT('',#456);
#140=VERTEX_POINT('',#458);
#141=VERTEX_POINT('',#462);
#142=VERTEX_POINT('',#464);
#143=VERTEX_POINT('',#471);
#144=VERTEX_POINT('',#472);
#145=VERTEX_POINT('',#474);
#146=VERTEX_POINT('',#476);
#147=VERTEX_POINT('',#480);
#148=VERTEX_POINT('',#482);
#149=VERTEX_POINT('',#486);
#150=VERTEX_POINT('',#488);
#151=VERTEX_POINT('',#495);
#152=VERTEX_POINT('',#496);
#153=VERTEX_POINT('',#498);
#154=VERTEX_POINT('',#500);
#155=VERTEX_POINT('',#504);
#156=VERTEX_POINT('',#505);
#157=VERTEX_POINT('',#510);
#158=VERTEX_POINT('',#511);
#159=VERTEX_POINT('',#513);
#160=VERTEX_POINT('',#518);
#161=VERTEX_POINT('',#519);
#162=VERTEX_POINT('',#526);
#163=EDGE_CURVE('',#135,#136,#67,.T.);
#164=EDGE_CURVE('',#135,#137,#68,.T.);
#165=EDGE_CURVE('',#138,#137,#69,.T.);
#166=EDGE_CURVE('',#136,#138,#70,.T.);
#167=EDGE_CURVE('',#139,#135,#19,.T.);
#168=EDGE_CURVE('',#139,#140,#71,.T.);
#169=EDGE_CURVE('',#137,#140,#20,.T.);
#170=EDGE_CURVE('',#141,#139,#72,.T.);
#171=EDGE_CURVE('',#141,#142,#73,.T.);
#172=EDGE_CURVE('',#140,#142,#74,.T.);
#173=EDGE_CURVE('',#136,#141,#21,.T.);
#174=EDGE_CURVE('',#142,#138,#22,.T.);
#175=EDGE_CURVE('',#143,#144,#75,.T.);
#176=EDGE_CURVE('',#143,#145,#76,.T.);
#177=EDGE_CURVE('',#146,#145,#77,.T.);
#178=EDGE_CURVE('',#144,#146,#78,.T.);
#179=EDGE_CURVE('',#147,#143,#23,.T.);
#180=EDGE_CURVE('',#147,#148,#79,.T.);
#181=EDGE_CURVE('',#145,#148,#24,.T.);
#182=EDGE_CURVE('',#149,#147,#80,.T.);
#183=EDGE_CURVE('',#149,#150,#81,.T.);
#184=EDGE_CURVE('',#148,#150,#82,.T.);
#185=EDGE_CURVE('',#144,#149,#25,.T.);
#186=EDGE_CURVE('',#150,#146,#26,.T.);
#187=EDGE_CURVE('',#151,#152,#83,.T.);
#188=EDGE_CURVE('',#151,#153,#84,.T.);
#189=EDGE_CURVE('',#153,#154,#85,.T.);
#190=EDGE_CURVE('',#154,#152,#86,.T.);
#191=EDGE_CURVE('',#155,#156,#87,.T.);
#192=EDGE_CURVE('',#155,#154,#88,.T.);
#193=EDGE_CURVE('',#156,#153,#89,.T.);
#194=EDGE_CURVE('',#157,#158,#90,.T.);
#195=EDGE_CURVE('',#159,#157,#91,.T.);
#196=EDGE_CURVE('',#159,#152,#92,.T.);
#197=EDGE_CURVE('',#155,#158,#93,.T.);
#198=EDGE_CURVE('',#160,#161,#94,.T.);
#199=EDGE_CURVE('',#161,#157,#95,.T.);
#200=EDGE_CURVE('',#158,#160,#96,.T.);
#201=EDGE_CURVE('',#156,#160,#97,.T.);
#202=EDGE_CURVE('',#162,#159,#98,.T.);
#203=EDGE_CURVE('',#162,#161,#99,.T.);
#204=EDGE_CURVE('',#151,#162,#100,.T.);
#205=ORIENTED_EDGE('',*,*,#163,.F.);
#206=ORIENTED_EDGE('',*,*,#164,.T.);
#207=ORIENTED_EDGE('',*,*,#165,.F.);
#208=ORIENTED_EDGE('',*,*,#166,.F.);
#209=ORIENTED_EDGE('',*,*,#167,.F.);
#210=ORIENTED_EDGE('',*,*,#168,.T.);
#211=ORIENTED_EDGE('',*,*,#169,.F.);
#212=ORIENTED_EDGE('',*,*,#164,.F.);
#213=ORIENTED_EDGE('',*,*,#170,.F.);
#214=ORIENTED_EDGE('',*,*,#171,.T.);
#215=ORIENTED_EDGE('',*,*,#172,.F.);
#216=ORIENTED_EDGE('',*,*,#168,.F.);
#217=ORIENTED_EDGE('',*,*,#173,.F.);
#218=ORIENTED_EDGE('',*,*,#166,.T.);
#219=ORIENTED_EDGE('',*,*,#174,.F.);
#220=ORIENTED_EDGE('',*,*,#171,.F.);
#221=ORIENTED_EDGE('',*,*,#175,.F.);
#222=ORIENTED_EDGE('',*,*,#176,.T.);
#223=ORIENTED_EDGE('',*,*,#177,.F.);
#224=ORIENTED_EDGE('',*,*,#178,.F.);
#225=ORIENTED_EDGE('',*,*,#179,.F.);
#226=ORIENTED_EDGE('',*,*,#180,.T.);
#227=ORIENTED_EDGE('',*,*,#181,.F.);
#228=ORIENTED_EDGE('',*,*,#176,.F.);
#229=ORIENTED_EDGE('',*,*,#182,.F.);
#230=ORIENTED_EDGE('',*,*,#183,.T.);
#231=ORIENTED_EDGE('',*,*,#184,.F.);
#232=ORIENTED_EDGE('',*,*,#180,.F.);
#233=ORIENTED_EDGE('',*,*,#185,.F.);
#234=ORIENTED_EDGE('',*,*,#178,.T.);
#235=ORIENTED_EDGE('',*,*,#186,.F.);
#236=ORIENTED_EDGE('',*,*,#183,.F.);
#237=ORIENTED_EDGE('',*,*,#187,.F.);
#238=ORIENTED_EDGE('',*,*,#188,.T.);
#239=ORIENTED_EDGE('',*,*,#189,.T.);
#240=ORIENTED_EDGE('',*,*,#190,.T.);
#241=ORIENTED_EDGE('',*,*,#165,.T.);
#242=ORIENTED_EDGE('',*,*,#169,.T.);
#243=ORIENTED_EDGE('',*,*,#172,.T.);
#244=ORIENTED_EDGE('',*,*,#174,.T.);
#245=ORIENTED_EDGE('',*,*,#191,.F.);
#246=ORIENTED_EDGE('',*,*,#192,.T.);
#247=ORIENTED_EDGE('',*,*,#189,.F.);
#248=ORIENTED_EDGE('',*,*,#193,.F.);
#249=ORIENTED_EDGE('',*,*,#194,.F.);
#250=ORIENTED_EDGE('',*,*,#195,.F.);
#251=ORIENTED_EDGE('',*,*,#196,.T.);
#252=ORIENTED_EDGE('',*,*,#190,.F.);
#253=ORIENTED_EDGE('',*,*,#192,.F.);
#254=ORIENTED_EDGE('',*,*,#197,.T.);
#255=ORIENTED_EDGE('',*,*,#198,.T.);
#256=ORIENTED_EDGE('',*,*,#199,.T.);
#257=ORIENTED_EDGE('',*,*,#194,.T.);
#258=ORIENTED_EDGE('',*,*,#200,.T.);
#259=ORIENTED_EDGE('',*,*,#177,.T.);
#260=ORIENTED_EDGE('',*,*,#181,.T.);
#261=ORIENTED_EDGE('',*,*,#184,.T.);
#262=ORIENTED_EDGE('',*,*,#186,.T.);
#263=ORIENTED_EDGE('',*,*,#201,.T.);
#264=ORIENTED_EDGE('',*,*,#200,.F.);
#265=ORIENTED_EDGE('',*,*,#197,.F.);
#266=ORIENTED_EDGE('',*,*,#191,.T.);
#267=ORIENTED_EDGE('',*,*,#163,.T.);
#268=ORIENTED_EDGE('',*,*,#173,.T.);
#269=ORIENTED_EDGE('',*,*,#170,.T.);
#270=ORIENTED_EDGE('',*,*,#167,.T.);
#271=ORIENTED_EDGE('',*,*,#202,.T.);
#272=ORIENTED_EDGE('',*,*,#195,.T.);
#273=ORIENTED_EDGE('',*,*,#199,.F.);
#274=ORIENTED_EDGE('',*,*,#203,.F.);
#275=ORIENTED_EDGE('',*,*,#204,.T.);
#276=ORIENTED_EDGE('',*,*,#203,.T.);
#277=ORIENTED_EDGE('',*,*,#198,.F.);
#278=ORIENTED_EDGE('',*,*,#201,.F.);
#279=ORIENTED_EDGE('',*,*,#193,.T.);
#280=ORIENTED_EDGE('',*,*,#188,.F.);
#281=ORIENTED_EDGE('',*,*,#187,.T.);
#282=ORIENTED_EDGE('',*,*,#196,.F.);
#283=ORIENTED_EDGE('',*,*,#202,.F.);
#284=ORIENTED_EDGE('',*,*,#204,.F.);
#285=ORIENTED_EDGE('',*,*,#175,.T.);
#286=ORIENTED_EDGE('',*,*,#185,.T.);
#287=ORIENTED_EDGE('',*,*,#182,.T.);
#288=ORIENTED_EDGE('',*,*,#179,.T.);
#289=PLANE('',#337);
#290=PLANE('',#341);
#291=PLANE('',#345);
#292=PLANE('',#349);
#293=PLANE('',#353);
#294=PLANE('',#354);
#295=PLANE('',#355);
#296=PLANE('',#356);
#297=PLANE('',#357);
#298=PLANE('',#358);
#299=PLANE('',#359);
#300=PLANE('',#360);
#301=ADVANCED_FACE('',(#31),#289,.F.);
#302=ADVANCED_FACE('',(#32),#27,.F.);
#303=ADVANCED_FACE('',(#33),#290,.F.);
#304=ADVANCED_FACE('',(#34),#28,.F.);
#305=ADVANCED_FACE('',(#35),#291,.F.);
#306=ADVANCED_FACE('',(#36),#29,.F.);
#307=ADVANCED_FACE('',(#37),#292,.F.);
#308=ADVANCED_FACE('',(#38),#30,.F.);
#309=ADVANCED_FACE('',(#39,#15),#293,.T.);
#310=ADVANCED_FACE('',(#40),#294,.T.);
#311=ADVANCED_FACE('',(#41),#295,.T.);
#312=ADVANCED_FACE('',(#42,#16),#296,.T.);
#313=ADVANCED_FACE('',(#43,#17),#297,.T.);
#314=ADVANCED_FACE('',(#44),#298,.T.);
#315=ADVANCED_FACE('',(#45),#299,.T.);
#316=ADVANCED_FACE('',(#46,#18),#300,.F.);
#317=CLOSED_SHELL('',(#301,#302,#303,#304,#305,#306,#307,#308,#309,#310,
#311,#312,#313,#314,#315,#316));
#318=DERIVED_UNIT_ELEMENT(#320,1.);
#319=DERIVED_UNIT_ELEMENT(#537,3.);
#320=(
MASS_UNIT()
NAMED_UNIT(*)
SI_UNIT($,.GRAM.)
);
#321=DERIVED_UNIT((#318,#319));
#322=MEASURE_REPRESENTATION_ITEM('density measure',
POSITIVE_RATIO_MEASURE(2.7),#321);
#323=PROPERTY_DEFINITION_REPRESENTATION(#328,#325);
#324=PROPERTY_DEFINITION_REPRESENTATION(#329,#326);
#325=REPRESENTATION('material name',(#327),#534);
#326=REPRESENTATION('density',(#322),#534);
#327=DESCRIPTIVE_REPRESENTATION_ITEM('Aluminum 6061','Aluminum 6061');
#328=PROPERTY_DEFINITION('material property','material name',#544);
#329=PROPERTY_DEFINITION('material property','density of part',#544);
#330=DATE_TIME_ROLE('creation_date');
#331=APPLIED_DATE_AND_TIME_ASSIGNMENT(#332,#330,(#544));
#332=DATE_AND_TIME(#333,#334);
#333=CALENDAR_DATE(2023,30,10);
#334=LOCAL_TIME(0,0,0.,#335);
#335=COORDINATED_UNIVERSAL_TIME_OFFSET(0,0,.BEHIND.);
#336=AXIS2_PLACEMENT_3D('placement',#445,#361,#362);
#337=AXIS2_PLACEMENT_3D('',#446,#363,#364);
#338=AXIS2_PLACEMENT_3D('',#455,#369,#370);
#339=AXIS2_PLACEMENT_3D('',#457,#371,#372);
#340=AXIS2_PLACEMENT_3D('',#460,#374,#375);
#341=AXIS2_PLACEMENT_3D('',#461,#376,#377);
#342=AXIS2_PLACEMENT_3D('',#467,#381,#382);
#343=AXIS2_PLACEMENT_3D('',#468,#383,#384);
#344=AXIS2_PLACEMENT_3D('',#469,#385,#386);
#345=AXIS2_PLACEMENT_3D('',#470,#387,#388);
#346=AXIS2_PLACEMENT_3D('',#479,#393,#394);
#347=AXIS2_PLACEMENT_3D('',#481,#395,#396);
#348=AXIS2_PLACEMENT_3D('',#484,#398,#399);
#349=AXIS2_PLACEMENT_3D('',#485,#400,#401);
#350=AXIS2_PLACEMENT_3D('',#491,#405,#406);
#351=AXIS2_PLACEMENT_3D('',#492,#407,#408);
#352=AXIS2_PLACEMENT_3D('',#493,#409,#410);
#353=AXIS2_PLACEMENT_3D('',#494,#411,#412);
#354=AXIS2_PLACEMENT_3D('',#503,#417,#418);
#355=AXIS2_PLACEMENT_3D('',#509,#422,#423);
#356=AXIS2_PLACEMENT_3D('',#517,#428,#429);
#357=AXIS2_PLACEMENT_3D('',#523,#433,#434);
#358=AXIS2_PLACEMENT_3D('',#525,#436,#437);
#359=AXIS2_PLACEMENT_3D('',#529,#440,#441);
#360=AXIS2_PLACEMENT_3D('',#531,#443,#444);
#361=DIRECTION('axis',(0.,0.,1.));
#362=DIRECTION('refdir',(1.,0.,0.));
#363=DIRECTION('center_axis',(0.,0.,1.));
#364=DIRECTION('ref_axis',(1.,0.,0.));
#365=DIRECTION('',(1.,0.,0.));
#366=DIRECTION('',(0.,1.,0.));
#367=DIRECTION('',(-1.,0.,0.));
#368=DIRECTION('',(0.,1.,0.));
#369=DIRECTION('center_axis',(0.,1.,0.));
#370=DIRECTION('ref_axis',(-6.34413156928654E-16,0.,1.));
#371=DIRECTION('center_axis',(0.,1.,0.));
#372=DIRECTION('ref_axis',(-6.34413156928654E-16,0.,1.));
#373=DIRECTION('',(0.,1.,0.));
#374=DIRECTION('center_axis',(0.,-1.,0.));
#375=DIRECTION('ref_axis',(-6.34413156928654E-16,0.,1.));
#376=DIRECTION('center_axis',(0.,0.,-1.));
#377=DIRECTION('ref_axis',(-1.,0.,0.));
#378=DIRECTION('',(-1.,0.,0.));
#379=DIRECTION('',(0.,1.,0.));
#380=DIRECTION('',(1.,0.,0.));
#381=DIRECTION('center_axis',(0.,1.,0.));
#382=DIRECTION('ref_axis',(0.,0.,-1.));
#383=DIRECTION('center_axis',(0.,1.,0.));
#384=DIRECTION('ref_axis',(0.,0.,-1.));
#385=DIRECTION('center_axis',(0.,-1.,0.));
#386=DIRECTION('ref_axis',(0.,0.,-1.));
#387=DIRECTION('center_axis',(0.,0.,-1.));
#388=DIRECTION('ref_axis',(0.,1.,0.));
#389=DIRECTION('',(0.,1.,0.));
#390=DIRECTION('',(1.,0.,0.));
#391=DIRECTION('',(0.,-1.,0.));
#392=DIRECTION('',(1.,0.,0.));
#393=DIRECTION('center_axis',(1.,0.,0.));
#394=DIRECTION('ref_axis',(0.,0.,-1.));
#395=DIRECTION('center_axis',(1.,0.,0.));
#396=DIRECTION('ref_axis',(0.,0.,-1.));
#397=DIRECTION('',(1.,0.,0.));
#398=DIRECTION('center_axis',(-1.,0.,0.));
#399=DIRECTION('ref_axis',(0.,0.,-1.));
#400=DIRECTION('center_axis',(0.,1.8503717077086E-16,1.));
#401=DIRECTION('ref_axis',(0.,-1.,1.8503717077086E-16));
#402=DIRECTION('',(0.,-1.,1.8503717077086E-16));
#403=DIRECTION('',(1.,0.,0.));
#404=DIRECTION('',(0.,1.,-1.8503717077086E-16));
#405=DIRECTION('center_axis',(1.,0.,0.));
#406=DIRECTION('ref_axis',(0.,-6.34413156928661E-16,1.));
#407=DIRECTION('center_axis',(1.,0.,0.));
#408=DIRECTION('ref_axis',(0.,-6.34413156928661E-16,1.));
#409=DIRECTION('center_axis',(-1.,0.,0.));
#410=DIRECTION('ref_axis',(0.,-6.34413156928661E-16,1.));
#411=DIRECTION('center_axis',(0.,1.,0.));
#412=DIRECTION('ref_axis',(0.,0.,1.));
#413=DIRECTION('',(0.,0.,1.));
#414=DIRECTION('',(-1.,0.,0.));
#415=DIRECTION('',(0.,0.,1.));
#416=DIRECTION('',(1.,0.,0.));
#417=DIRECTION('center_axis',(-1.,0.,0.));
#418=DIRECTION('ref_axis',(0.,0.,1.));
#419=DIRECTION('',(0.,0.,-1.));
#420=DIRECTION('',(0.,1.,0.));
#421=DIRECTION('',(0.,1.,0.));
#422=DIRECTION('center_axis',(0.,0.,1.));
#423=DIRECTION('ref_axis',(0.,-1.,0.));
#424=DIRECTION('',(0.,-1.,0.));
#425=DIRECTION('',(1.,0.,0.));
#426=DIRECTION('',(0.,-1.,0.));
#427=DIRECTION('',(1.,0.,0.));
#428=DIRECTION('center_axis',(1.,0.,0.));
#429=DIRECTION('ref_axis',(0.,0.,-1.));
#430=DIRECTION('',(0.,1.,0.));
#431=DIRECTION('',(0.,0.,1.));
#432=DIRECTION('',(0.,0.,-1.));
#433=DIRECTION('center_axis',(0.,-1.,0.));
#434=DIRECTION('ref_axis',(0.,0.,-1.));
#435=DIRECTION('',(1.,0.,0.));
#436=DIRECTION('center_axis',(0.,1.,0.));
#437=DIRECTION('ref_axis',(0.,0.,1.));
#438=DIRECTION('',(0.,0.,1.));
#439=DIRECTION('',(1.,0.,0.));
#440=DIRECTION('center_axis',(0.,0.,-1.));
#441=DIRECTION('ref_axis',(0.,1.,0.));
#442=DIRECTION('',(0.,1.,0.));
#443=DIRECTION('center_axis',(1.,0.,0.));
#444=DIRECTION('ref_axis',(0.,0.,-1.));
#445=CARTESIAN_POINT('',(0.,0.,0.));
#446=CARTESIAN_POINT('Origin',(-10.0000000000001,0.,-4.99999999999997));
#447=CARTESIAN_POINT('',(-10.0000000000001,0.,-4.99999999999997));
#448=CARTESIAN_POINT('',(-6.99999999999999,0.,-4.99999999999997));
#449=CARTESIAN_POINT('',(-5.00000000000003,0.,-4.99999999999997));
#450=CARTESIAN_POINT('',(-10.0000000000001,3.,-4.99999999999997));
#451=CARTESIAN_POINT('',(-10.0000000000001,0.,-4.99999999999997));
#452=CARTESIAN_POINT('',(-6.99999999999999,3.,-4.99999999999997));
#453=CARTESIAN_POINT('',(-8.50000000000003,3.,-4.99999999999997));
#454=CARTESIAN_POINT('',(-6.99999999999999,0.,-4.99999999999997));
#455=CARTESIAN_POINT('Origin',(-10.0000000000001,0.,-8.50000000000001));
#456=CARTESIAN_POINT('',(-10.0000000000001,0.,-12.));
#457=CARTESIAN_POINT('Origin',(-10.0000000000001,0.,-8.50000000000001));
#458=CARTESIAN_POINT('',(-10.0000000000001,3.,-12.));
#459=CARTESIAN_POINT('',(-10.0000000000001,0.,-12.));
#460=CARTESIAN_POINT('Origin',(-10.0000000000001,3.,-8.50000000000001));
#461=CARTESIAN_POINT('Origin',(-7.,0.,-12.));
#462=CARTESIAN_POINT('',(-7.,0.,-12.));
#463=CARTESIAN_POINT('',(-3.5,0.,-12.));
#464=CARTESIAN_POINT('',(-7.,3.,-12.));
#465=CARTESIAN_POINT('',(-7.,0.,-12.));
#466=CARTESIAN_POINT('',(-7.,3.,-12.));
#467=CARTESIAN_POINT('Origin',(-7.,0.,-8.50000000000001));
#468=CARTESIAN_POINT('Origin',(-7.,0.,-8.50000000000001));
#469=CARTESIAN_POINT('Origin',(-7.,3.,-8.50000000000001));
#470=CARTESIAN_POINT('Origin',(0.,10.,-12.));
#471=CARTESIAN_POINT('',(0.,10.,-12.));
#472=CARTESIAN_POINT('',(0.,13.,-12.));
#473=CARTESIAN_POINT('',(0.,10.,-12.));
#474=CARTESIAN_POINT('',(3.,10.,-12.));
#475=CARTESIAN_POINT('',(0.,10.,-12.));
#476=CARTESIAN_POINT('',(3.,13.,-12.));
#477=CARTESIAN_POINT('',(3.,10.,-12.));
#478=CARTESIAN_POINT('',(0.,13.,-12.));
#479=CARTESIAN_POINT('Origin',(0.,10.,-8.5));
#480=CARTESIAN_POINT('',(0.,10.,-5.));
#481=CARTESIAN_POINT('Origin',(0.,10.,-8.5));
#482=CARTESIAN_POINT('',(3.,10.,-5.));
#483=CARTESIAN_POINT('',(0.,10.,-5.));
#484=CARTESIAN_POINT('Origin',(3.,10.,-8.5));
#485=CARTESIAN_POINT('Origin',(0.,13.,-5.));
#486=CARTESIAN_POINT('',(0.,13.,-5.));
#487=CARTESIAN_POINT('',(0.,11.5,-5.));
#488=CARTESIAN_POINT('',(3.,13.,-5.));
#489=CARTESIAN_POINT('',(0.,13.,-5.));
#490=CARTESIAN_POINT('',(3.,11.5,-5.));
#491=CARTESIAN_POINT('Origin',(0.,13.,-8.5));
#492=CARTESIAN_POINT('Origin',(0.,13.,-8.5));
#493=CARTESIAN_POINT('Origin',(3.,13.,-8.5));
#494=CARTESIAN_POINT('Origin',(-7.,3.,-8.5));
#495=CARTESIAN_POINT('',(0.,3.,-17.));
#496=CARTESIAN_POINT('',(0.,3.,0.));
#497=CARTESIAN_POINT('',(0.,3.,-8.5));
#498=CARTESIAN_POINT('',(-17.,3.,-17.));
#499=CARTESIAN_POINT('',(-17.,3.,-17.));
#500=CARTESIAN_POINT('',(-17.,3.,0.));
#501=CARTESIAN_POINT('',(-17.,3.,0.));
#502=CARTESIAN_POINT('',(3.,3.,0.));
#503=CARTESIAN_POINT('Origin',(-17.,0.,-17.));
#504=CARTESIAN_POINT('',(-17.,0.,0.));
#505=CARTESIAN_POINT('',(-17.,0.,-17.));
#506=CARTESIAN_POINT('',(-17.,0.,0.));
#507=CARTESIAN_POINT('',(-17.,0.,0.));
#508=CARTESIAN_POINT('',(-17.,0.,-17.));
#509=CARTESIAN_POINT('Origin',(0.,20.,0.));
#510=CARTESIAN_POINT('',(3.,20.,0.));
#511=CARTESIAN_POINT('',(3.,0.,0.));
#512=CARTESIAN_POINT('',(3.,20.,0.));
#513=CARTESIAN_POINT('',(0.,20.,0.));
#514=CARTESIAN_POINT('',(0.,20.,0.));
#515=CARTESIAN_POINT('',(0.,20.,0.));
#516=CARTESIAN_POINT('',(0.,0.,0.));
#517=CARTESIAN_POINT('Origin',(3.,10.,-8.5));
#518=CARTESIAN_POINT('',(3.,0.,-17.));
#519=CARTESIAN_POINT('',(3.,20.,-17.));
#520=CARTESIAN_POINT('',(3.,0.,-17.));
#521=CARTESIAN_POINT('',(3.,20.,-17.));
#522=CARTESIAN_POINT('',(3.,0.,0.));
#523=CARTESIAN_POINT('Origin',(0.,0.,0.));
#524=CARTESIAN_POINT('',(-17.,0.,-17.));
#525=CARTESIAN_POINT('Origin',(0.,20.,-17.));
#526=CARTESIAN_POINT('',(0.,20.,-17.));
#527=CARTESIAN_POINT('',(0.,20.,-17.));
#528=CARTESIAN_POINT('',(0.,20.,-17.));
#529=CARTESIAN_POINT('Origin',(0.,0.,-17.));
#530=CARTESIAN_POINT('',(0.,0.,-17.));
#531=CARTESIAN_POINT('Origin',(0.,10.,-8.5));
#532=UNCERTAINTY_MEASURE_WITH_UNIT(LENGTH_MEASURE(0.01),#536,
'DISTANCE_ACCURACY_VALUE',
'Maximum model space distance between geometric entities at asserted c
onnectivities');
#533=UNCERTAINTY_MEASURE_WITH_UNIT(LENGTH_MEASURE(0.01),#536,
'DISTANCE_ACCURACY_VALUE',
'Maximum model space distance between geometric entities at asserted c
onnectivities');
#534=(
GEOMETRIC_REPRESENTATION_CONTEXT(3)
GLOBAL_UNCERTAINTY_ASSIGNED_CONTEXT((#532))
GLOBAL_UNIT_ASSIGNED_CONTEXT((#536,#538,#539))
REPRESENTATION_CONTEXT('','3D')
);
#535=(
GEOMETRIC_REPRESENTATION_CONTEXT(3)
GLOBAL_UNCERTAINTY_ASSIGNED_CONTEXT((#533))
GLOBAL_UNIT_ASSIGNED_CONTEXT((#536,#538,#539))
REPRESENTATION_CONTEXT('','3D')
);
#536=(
LENGTH_UNIT()
NAMED_UNIT(*)
SI_UNIT(.MILLI.,.METRE.)
);
#537=(
LENGTH_UNIT()
NAMED_UNIT(*)
SI_UNIT(.CENTI.,.METRE.)
);
#538=(
NAMED_UNIT(*)
PLANE_ANGLE_UNIT()
SI_UNIT($,.RADIAN.)
);
#539=(
NAMED_UNIT(*)
SI_UNIT($,.STERADIAN.)
SOLID_ANGLE_UNIT()
);
#540=SHAPE_DEFINITION_REPRESENTATION(#541,#542);
#541=PRODUCT_DEFINITION_SHAPE('',$,#544);
#542=SHAPE_REPRESENTATION('',(#336),#534);
#543=PRODUCT_DEFINITION_CONTEXT('part definition',#548,'design');
#544=PRODUCT_DEFINITION('2020RightAngle','2020RightAngle',#545,#543);
#545=PRODUCT_DEFINITION_FORMATION('',$,#550);
#546=PRODUCT_RELATED_PRODUCT_CATEGORY('2020RightAngle','2020RightAngle',
(#550));
#547=APPLICATION_PROTOCOL_DEFINITION('international standard',
'automotive_design',2009,#548);
#548=APPLICATION_CONTEXT(
'Core Data for Automotive Mechanical Design Process');
#549=PRODUCT_CONTEXT('part definition',#548,'mechanical');
#550=PRODUCT('2020RightAngle','2020RightAngle',$,(#549));
#551=PRESENTATION_STYLE_ASSIGNMENT((#552));
#552=SURFACE_STYLE_USAGE(.BOTH.,#555);
#553=SURFACE_STYLE_RENDERING_WITH_PROPERTIES($,#559,(#554));
#554=SURFACE_STYLE_TRANSPARENT(0.);
#555=SURFACE_SIDE_STYLE('',(#556,#553));
#556=SURFACE_STYLE_FILL_AREA(#557);
#557=FILL_AREA_STYLE('',(#558));
#558=FILL_AREA_STYLE_COLOUR('',#559);
#559=COLOUR_RGB('',0.996078431372549,0.996078431372549,1.);
ENDSEC;
END-ISO-10303-21;
