ISO-10303-21;
HEADER;
/* Generated by software containing ST-Developer
 * from STEP Tools, Inc. (www.steptools.com) 
 */

FILE_DESCRIPTION(
/* description */ (''),
/* implementation_level */ '2;1');

FILE_NAME(
/* name */ 
'I:\\ASU_FOE\\graduation project\\quadcopter\\matlab xml\\231123\\\\20
x20mm V-Slot_ipt_b09f816c.STEP',
/* time_stamp */ '2023-11-23T19:53:35+02:00',
/* author */ ('M'),
/* organization */ (''),
/* preprocessor_version */ 'ST-DEVELOPER v18.1',
/* originating_system */ 'Autodesk Inventor 2021',
/* authorisation */ '');

FILE_SCHEMA (('AUTOMOTIVE_DESIGN { 1 0 10303 214 3 1 1 }'));
ENDSEC;

DATA;
#10=MECHANICAL_DESIGN_GEOMETRIC_PRESENTATION_REPRESENTATION('',(#19,#20),
#1689);
#11=SHAPE_REPRESENTATION_RELATIONSHIP('SRR','None',#1696,#12);
#12=ADVANCED_BREP_SHAPE_REPRESENTATION('',(#13),#1688);
#13=MANIFOLD_SOLID_BREP('Solid1',#1047);
#14=CYLINDRICAL_SURFACE('',#1079,1.5);
#15=CYLINDRICAL_SURFACE('',#1091,1.5);
#16=CYLINDRICAL_SURFACE('',#1103,1.5);
#17=CYLINDRICAL_SURFACE('',#1115,1.5);
#18=CYLINDRICAL_SURFACE('',#1127,2.125);
#19=STYLED_ITEM('',(#1706),#997);
#20=STYLED_ITEM('',(#1705),#13);
#21=FACE_BOUND('',#75,.T.);
#22=FACE_BOUND('',#77,.T.);
#23=FACE_OUTER_BOUND('',#74,.T.);
#24=FACE_OUTER_BOUND('',#76,.T.);
#25=FACE_OUTER_BOUND('',#78,.T.);
#26=FACE_OUTER_BOUND('',#79,.T.);
#27=FACE_OUTER_BOUND('',#80,.T.);
#28=FACE_OUTER_BOUND('',#81,.T.);
#29=FACE_OUTER_BOUND('',#82,.T.);
#30=FACE_OUTER_BOUND('',#83,.T.);
#31=FACE_OUTER_BOUND('',#84,.T.);
#32=FACE_OUTER_BOUND('',#85,.T.);
#33=FACE_OUTER_BOUND('',#86,.T.);
#34=FACE_OUTER_BOUND('',#87,.T.);
#35=FACE_OUTER_BOUND('',#88,.T.);
#36=FACE_OUTER_BOUND('',#89,.T.);
#37=FACE_OUTER_BOUND('',#90,.T.);
#38=FACE_OUTER_BOUND('',#91,.T.);
#39=FACE_OUTER_BOUND('',#92,.T.);
#40=FACE_OUTER_BOUND('',#93,.T.);
#41=FACE_OUTER_BOUND('',#94,.T.);
#42=FACE_OUTER_BOUND('',#95,.T.);
#43=FACE_OUTER_BOUND('',#96,.T.);
#44=FACE_OUTER_BOUND('',#97,.T.);
#45=FACE_OUTER_BOUND('',#98,.T.);
#46=FACE_OUTER_BOUND('',#99,.T.);
#47=FACE_OUTER_BOUND('',#100,.T.);
#48=FACE_OUTER_BOUND('',#101,.T.);
#49=FACE_OUTER_BOUND('',#102,.T.);
#50=FACE_OUTER_BOUND('',#103,.T.);
#51=FACE_OUTER_BOUND('',#104,.T.);
#52=FACE_OUTER_BOUND('',#105,.T.);
#53=FACE_OUTER_BOUND('',#106,.T.);
#54=FACE_OUTER_BOUND('',#107,.T.);
#55=FACE_OUTER_BOUND('',#108,.T.);
#56=FACE_OUTER_BOUND('',#109,.T.);
#57=FACE_OUTER_BOUND('',#110,.T.);
#58=FACE_OUTER_BOUND('',#111,.T.);
#59=FACE_OUTER_BOUND('',#112,.T.);
#60=FACE_OUTER_BOUND('',#113,.T.);
#61=FACE_OUTER_BOUND('',#114,.T.);
#62=FACE_OUTER_BOUND('',#115,.T.);
#63=FACE_OUTER_BOUND('',#116,.T.);
#64=FACE_OUTER_BOUND('',#117,.T.);
#65=FACE_OUTER_BOUND('',#118,.T.);
#66=FACE_OUTER_BOUND('',#119,.T.);
#67=FACE_OUTER_BOUND('',#120,.T.);
#68=FACE_OUTER_BOUND('',#121,.T.);
#69=FACE_OUTER_BOUND('',#122,.T.);
#70=FACE_OUTER_BOUND('',#123,.T.);
#71=FACE_OUTER_BOUND('',#124,.T.);
#72=FACE_OUTER_BOUND('',#125,.T.);
#73=FACE_OUTER_BOUND('',#126,.T.);
#74=EDGE_LOOP('',(#656,#657,#658,#659,#660,#661,#662,#663,#664,#665,#666,
#667,#668,#669,#670,#671,#672,#673,#674,#675,#676,#677,#678,#679,#680,#681,
#682,#683,#684,#685,#686,#687,#688,#689,#690,#691,#692,#693,#694,#695,#696,
#697,#698,#699,#700,#701,#702,#703));
#75=EDGE_LOOP('',(#704));
#76=EDGE_LOOP('',(#705,#706,#707,#708,#709,#710,#711,#712,#713,#714,#715,
#716,#717,#718,#719,#720,#721,#722,#723,#724,#725,#726,#727,#728,#729,#730,
#731,#732,#733,#734,#735,#736,#737,#738,#739,#740,#741,#742,#743,#744,#745,
#746,#747,#748,#749,#750,#751,#752));
#77=EDGE_LOOP('',(#753));
#78=EDGE_LOOP('',(#754,#755,#756,#757));
#79=EDGE_LOOP('',(#758,#759,#760,#761));
#80=EDGE_LOOP('',(#762,#763,#764,#765));
#81=EDGE_LOOP('',(#766,#767,#768,#769));
#82=EDGE_LOOP('',(#770,#771,#772,#773));
#83=EDGE_LOOP('',(#774,#775,#776,#777));
#84=EDGE_LOOP('',(#778,#779,#780,#781));
#85=EDGE_LOOP('',(#782,#783,#784,#785));
#86=EDGE_LOOP('',(#786,#787,#788,#789));
#87=EDGE_LOOP('',(#790,#791,#792,#793));
#88=EDGE_LOOP('',(#794,#795,#796,#797));
#89=EDGE_LOOP('',(#798,#799,#800,#801));
#90=EDGE_LOOP('',(#802,#803,#804,#805));
#91=EDGE_LOOP('',(#806,#807,#808,#809));
#92=EDGE_LOOP('',(#810,#811,#812,#813));
#93=EDGE_LOOP('',(#814,#815,#816,#817));
#94=EDGE_LOOP('',(#818,#819,#820,#821));
#95=EDGE_LOOP('',(#822,#823,#824,#825));
#96=EDGE_LOOP('',(#826,#827,#828,#829));
#97=EDGE_LOOP('',(#830,#831,#832,#833));
#98=EDGE_LOOP('',(#834,#835,#836,#837));
#99=EDGE_LOOP('',(#838,#839,#840,#841));
#100=EDGE_LOOP('',(#842,#843,#844,#845));
#101=EDGE_LOOP('',(#846,#847,#848,#849));
#102=EDGE_LOOP('',(#850,#851,#852,#853));
#103=EDGE_LOOP('',(#854,#855,#856,#857));
#104=EDGE_LOOP('',(#858,#859,#860,#861));
#105=EDGE_LOOP('',(#862,#863,#864,#865));
#106=EDGE_LOOP('',(#866,#867,#868,#869));
#107=EDGE_LOOP('',(#870,#871,#872,#873));
#108=EDGE_LOOP('',(#874,#875,#876,#877));
#109=EDGE_LOOP('',(#878,#879,#880,#881));
#110=EDGE_LOOP('',(#882,#883,#884,#885));
#111=EDGE_LOOP('',(#886,#887,#888,#889));
#112=EDGE_LOOP('',(#890,#891,#892,#893));
#113=EDGE_LOOP('',(#894,#895,#896,#897));
#114=EDGE_LOOP('',(#898,#899,#900,#901));
#115=EDGE_LOOP('',(#902,#903,#904,#905));
#116=EDGE_LOOP('',(#906,#907,#908,#909));
#117=EDGE_LOOP('',(#910,#911,#912,#913));
#118=EDGE_LOOP('',(#914,#915,#916,#917));
#119=EDGE_LOOP('',(#918,#919,#920,#921));
#120=EDGE_LOOP('',(#922,#923,#924,#925));
#121=EDGE_LOOP('',(#926,#927,#928,#929));
#122=EDGE_LOOP('',(#930,#931,#932,#933));
#123=EDGE_LOOP('',(#934,#935,#936,#937));
#124=EDGE_LOOP('',(#938,#939,#940,#941));
#125=EDGE_LOOP('',(#942,#943,#944,#945));
#126=EDGE_LOOP('',(#946,#947,#948,#949));
#127=LINE('',#1395,#264);
#128=LINE('',#1397,#265);
#129=LINE('',#1399,#266);
#130=LINE('',#1401,#267);
#131=LINE('',#1403,#268);
#132=LINE('',#1405,#269);
#133=LINE('',#1407,#270);
#134=LINE('',#1409,#271);
#135=LINE('',#1411,#272);
#136=LINE('',#1413,#273);
#137=LINE('',#1415,#274);
#138=LINE('',#1419,#275);
#139=LINE('',#1421,#276);
#140=LINE('',#1423,#277);
#141=LINE('',#1425,#278);
#142=LINE('',#1427,#279);
#143=LINE('',#1429,#280);
#144=LINE('',#1431,#281);
#145=LINE('',#1433,#282);
#146=LINE('',#1435,#283);
#147=LINE('',#1437,#284);
#148=LINE('',#1439,#285);
#149=LINE('',#1443,#286);
#150=LINE('',#1445,#287);
#151=LINE('',#1447,#288);
#152=LINE('',#1449,#289);
#153=LINE('',#1451,#290);
#154=LINE('',#1453,#291);
#155=LINE('',#1455,#292);
#156=LINE('',#1457,#293);
#157=LINE('',#1459,#294);
#158=LINE('',#1461,#295);
#159=LINE('',#1463,#296);
#160=LINE('',#1467,#297);
#161=LINE('',#1469,#298);
#162=LINE('',#1471,#299);
#163=LINE('',#1473,#300);
#164=LINE('',#1475,#301);
#165=LINE('',#1477,#302);
#166=LINE('',#1479,#303);
#167=LINE('',#1481,#304);
#168=LINE('',#1483,#305);
#169=LINE('',#1485,#306);
#170=LINE('',#1486,#307);
#171=LINE('',#1494,#308);
#172=LINE('',#1496,#309);
#173=LINE('',#1498,#310);
#174=LINE('',#1500,#311);
#175=LINE('',#1502,#312);
#176=LINE('',#1504,#313);
#177=LINE('',#1506,#314);
#178=LINE('',#1508,#315);
#179=LINE('',#1510,#316);
#180=LINE('',#1512,#317);
#181=LINE('',#1514,#318);
#182=LINE('',#1518,#319);
#183=LINE('',#1520,#320);
#184=LINE('',#1522,#321);
#185=LINE('',#1524,#322);
#186=LINE('',#1526,#323);
#187=LINE('',#1528,#324);
#188=LINE('',#1530,#325);
#189=LINE('',#1532,#326);
#190=LINE('',#1534,#327);
#191=LINE('',#1536,#328);
#192=LINE('',#1538,#329);
#193=LINE('',#1542,#330);
#194=LINE('',#1544,#331);
#195=LINE('',#1546,#332);
#196=LINE('',#1548,#333);
#197=LINE('',#1550,#334);
#198=LINE('',#1552,#335);
#199=LINE('',#1554,#336);
#200=LINE('',#1556,#337);
#201=LINE('',#1558,#338);
#202=LINE('',#1560,#339);
#203=LINE('',#1562,#340);
#204=LINE('',#1566,#341);
#205=LINE('',#1568,#342);
#206=LINE('',#1570,#343);
#207=LINE('',#1572,#344);
#208=LINE('',#1574,#345);
#209=LINE('',#1576,#346);
#210=LINE('',#1578,#347);
#211=LINE('',#1580,#348);
#212=LINE('',#1582,#349);
#213=LINE('',#1584,#350);
#214=LINE('',#1585,#351);
#215=LINE('',#1589,#352);
#216=LINE('',#1590,#353);
#217=LINE('',#1592,#354);
#218=LINE('',#1594,#355);
#219=LINE('',#1596,#356);
#220=LINE('',#1598,#357);
#221=LINE('',#1600,#358);
#222=LINE('',#1602,#359);
#223=LINE('',#1604,#360);
#224=LINE('',#1606,#361);
#225=LINE('',#1608,#362);
#226=LINE('',#1610,#363);
#227=LINE('',#1612,#364);
#228=LINE('',#1614,#365);
#229=LINE('',#1616,#366);
#230=LINE('',#1618,#367);
#231=LINE('',#1620,#368);
#232=LINE('',#1622,#369);
#233=LINE('',#1624,#370);
#234=LINE('',#1626,#371);
#235=LINE('',#1628,#372);
#236=LINE('',#1630,#373);
#237=LINE('',#1632,#374);
#238=LINE('',#1634,#375);
#239=LINE('',#1636,#376);
#240=LINE('',#1638,#377);
#241=LINE('',#1640,#378);
#242=LINE('',#1642,#379);
#243=LINE('',#1644,#380);
#244=LINE('',#1646,#381);
#245=LINE('',#1648,#382);
#246=LINE('',#1650,#383);
#247=LINE('',#1652,#384);
#248=LINE('',#1654,#385);
#249=LINE('',#1656,#386);
#250=LINE('',#1658,#387);
#251=LINE('',#1660,#388);
#252=LINE('',#1662,#389);
#253=LINE('',#1664,#390);
#254=LINE('',#1666,#391);
#255=LINE('',#1668,#392);
#256=LINE('',#1670,#393);
#257=LINE('',#1672,#394);
#258=LINE('',#1674,#395);
#259=LINE('',#1676,#396);
#260=LINE('',#1678,#397);
#261=LINE('',#1680,#398);
#262=LINE('',#1682,#399);
#263=LINE('',#1685,#400);
#264=VECTOR('',#1134,3.74999999999999);
#265=VECTOR('',#1135,2.68700576850888);
#266=VECTOR('',#1136,2.375);
#267=VECTOR('',#1137,1.775);
#268=VECTOR('',#1138,3.28804653251745);
#269=VECTOR('',#1139,5.8);
#270=VECTOR('',#1140,3.28804653251745);
#271=VECTOR('',#1141,1.775);
#272=VECTOR('',#1142,2.37500000000001);
#273=VECTOR('',#1143,2.68700576850889);
#274=VECTOR('',#1144,3.74999999999999);
#275=VECTOR('',#1147,3.74999999999999);
#276=VECTOR('',#1148,2.68700576850887);
#277=VECTOR('',#1149,2.37499999999999);
#278=VECTOR('',#1150,1.775);
#279=VECTOR('',#1151,3.28804653251745);
#280=VECTOR('',#1152,5.8);
#281=VECTOR('',#1153,3.28804653251743);
#282=VECTOR('',#1154,1.77499999999999);
#283=VECTOR('',#1155,2.37500000000002);
#284=VECTOR('',#1156,2.6870057685089);
#285=VECTOR('',#1157,3.74999999999999);
#286=VECTOR('',#1160,3.74999999999999);
#287=VECTOR('',#1161,2.6870057685089);
#288=VECTOR('',#1162,2.37500000000001);
#289=VECTOR('',#1163,1.775);
#290=VECTOR('',#1164,3.28804653251743);
#291=VECTOR('',#1165,5.8);
#292=VECTOR('',#1166,3.28804653251745);
#293=VECTOR('',#1167,1.775);
#294=VECTOR('',#1168,2.375);
#295=VECTOR('',#1169,2.68700576850888);
#296=VECTOR('',#1170,3.74999999999999);
#297=VECTOR('',#1173,3.74999999999999);
#298=VECTOR('',#1174,2.68700576850888);
#299=VECTOR('',#1175,2.37499999999999);
#300=VECTOR('',#1176,1.775);
#301=VECTOR('',#1177,3.28804653251745);
#302=VECTOR('',#1178,5.79999999999999);
#303=VECTOR('',#1179,3.28804653251745);
#304=VECTOR('',#1180,1.77499999999998);
#305=VECTOR('',#1181,2.37500000000003);
#306=VECTOR('',#1182,2.6870057685089);
#307=VECTOR('',#1183,3.74999999999999);
#308=VECTOR('',#1190,3.74999999999999);
#309=VECTOR('',#1191,2.6870057685089);
#310=VECTOR('',#1192,2.37500000000003);
#311=VECTOR('',#1193,1.77499999999998);
#312=VECTOR('',#1194,3.28804653251745);
#313=VECTOR('',#1195,5.79999999999999);
#314=VECTOR('',#1196,3.28804653251745);
#315=VECTOR('',#1197,1.775);
#316=VECTOR('',#1198,2.37499999999999);
#317=VECTOR('',#1199,2.68700576850888);
#318=VECTOR('',#1200,3.74999999999999);
#319=VECTOR('',#1203,3.74999999999999);
#320=VECTOR('',#1204,2.68700576850888);
#321=VECTOR('',#1205,2.375);
#322=VECTOR('',#1206,1.775);
#323=VECTOR('',#1207,3.28804653251745);
#324=VECTOR('',#1208,5.8);
#325=VECTOR('',#1209,3.28804653251743);
#326=VECTOR('',#1210,1.775);
#327=VECTOR('',#1211,2.37500000000001);
#328=VECTOR('',#1212,2.6870057685089);
#329=VECTOR('',#1213,3.74999999999999);
#330=VECTOR('',#1216,3.74999999999999);
#331=VECTOR('',#1217,2.6870057685089);
#332=VECTOR('',#1218,2.37500000000002);
#333=VECTOR('',#1219,1.77499999999999);
#334=VECTOR('',#1220,3.28804653251743);
#335=VECTOR('',#1221,5.8);
#336=VECTOR('',#1222,3.28804653251745);
#337=VECTOR('',#1223,1.775);
#338=VECTOR('',#1224,2.37499999999999);
#339=VECTOR('',#1225,2.68700576850887);
#340=VECTOR('',#1226,3.74999999999999);
#341=VECTOR('',#1229,3.74999999999999);
#342=VECTOR('',#1230,2.68700576850889);
#343=VECTOR('',#1231,2.37500000000001);
#344=VECTOR('',#1232,1.775);
#345=VECTOR('',#1233,3.28804653251745);
#346=VECTOR('',#1234,5.8);
#347=VECTOR('',#1235,3.28804653251745);
#348=VECTOR('',#1236,1.775);
#349=VECTOR('',#1237,2.375);
#350=VECTOR('',#1238,2.68700576850888);
#351=VECTOR('',#1239,3.74999999999999);
#352=VECTOR('',#1244,50.);
#353=VECTOR('',#1245,50.);
#354=VECTOR('',#1248,50.);
#355=VECTOR('',#1251,50.);
#356=VECTOR('',#1254,50.);
#357=VECTOR('',#1257,50.);
#358=VECTOR('',#1260,50.);
#359=VECTOR('',#1263,50.);
#360=VECTOR('',#1266,50.);
#361=VECTOR('',#1269,50.);
#362=VECTOR('',#1272,50.);
#363=VECTOR('',#1275,50.);
#364=VECTOR('',#1278,50.);
#365=VECTOR('',#1281,50.);
#366=VECTOR('',#1284,50.);
#367=VECTOR('',#1287,50.);
#368=VECTOR('',#1290,50.);
#369=VECTOR('',#1293,50.);
#370=VECTOR('',#1296,50.);
#371=VECTOR('',#1299,50.);
#372=VECTOR('',#1302,50.);
#373=VECTOR('',#1305,50.);
#374=VECTOR('',#1308,50.);
#375=VECTOR('',#1311,50.);
#376=VECTOR('',#1314,50.);
#377=VECTOR('',#1317,50.);
#378=VECTOR('',#1320,50.);
#379=VECTOR('',#1323,50.);
#380=VECTOR('',#1326,50.);
#381=VECTOR('',#1329,50.);
#382=VECTOR('',#1332,50.);
#383=VECTOR('',#1335,50.);
#384=VECTOR('',#1338,50.);
#385=VECTOR('',#1341,50.);
#386=VECTOR('',#1344,50.);
#387=VECTOR('',#1347,50.);
#388=VECTOR('',#1350,50.);
#389=VECTOR('',#1353,50.);
#390=VECTOR('',#1356,50.);
#391=VECTOR('',#1359,50.);
#392=VECTOR('',#1362,50.);
#393=VECTOR('',#1365,50.);
#394=VECTOR('',#1368,50.);
#395=VECTOR('',#1371,50.);
#396=VECTOR('',#1374,50.);
#397=VECTOR('',#1377,50.);
#398=VECTOR('',#1380,50.);
#399=VECTOR('',#1383,50.);
#400=VECTOR('',#1388,2.125);
#401=CIRCLE('',#1068,1.5);
#402=CIRCLE('',#1069,1.5);
#403=CIRCLE('',#1070,1.5);
#404=CIRCLE('',#1071,1.5);
#405=CIRCLE('',#1072,2.125);
#406=CIRCLE('',#1074,1.5);
#407=CIRCLE('',#1075,1.5);
#408=CIRCLE('',#1076,1.5);
#409=CIRCLE('',#1077,1.5);
#410=CIRCLE('',#1078,2.125);
#411=VERTEX_POINT('',#1391);
#412=VERTEX_POINT('',#1392);
#413=VERTEX_POINT('',#1394);
#414=VERTEX_POINT('',#1396);
#415=VERTEX_POINT('',#1398);
#416=VERTEX_POINT('',#1400);
#417=VERTEX_POINT('',#1402);
#418=VERTEX_POINT('',#1404);
#419=VERTEX_POINT('',#1406);
#420=VERTEX_POINT('',#1408);
#421=VERTEX_POINT('',#1410);
#422=VERTEX_POINT('',#1412);
#423=VERTEX_POINT('',#1414);
#424=VERTEX_POINT('',#1416);
#425=VERTEX_POINT('',#1418);
#426=VERTEX_POINT('',#1420);
#427=VERTEX_POINT('',#1422);
#428=VERTEX_POINT('',#1424);
#429=VERTEX_POINT('',#1426);
#430=VERTEX_POINT('',#1428);
#431=VERTEX_POINT('',#1430);
#432=VERTEX_POINT('',#1432);
#433=VERTEX_POINT('',#1434);
#434=VERTEX_POINT('',#1436);
#435=VERTEX_POINT('',#1438);
#436=VERTEX_POINT('',#1440);
#437=VERTEX_POINT('',#1442);
#438=VERTEX_POINT('',#1444);
#439=VERTEX_POINT('',#1446);
#440=VERTEX_POINT('',#1448);
#441=VERTEX_POINT('',#1450);
#442=VERTEX_POINT('',#1452);
#443=VERTEX_POINT('',#1454);
#444=VERTEX_POINT('',#1456);
#445=VERTEX_POINT('',#1458);
#446=VERTEX_POINT('',#1460);
#447=VERTEX_POINT('',#1462);
#448=VERTEX_POINT('',#1464);
#449=VERTEX_POINT('',#1466);
#450=VERTEX_POINT('',#1468);
#451=VERTEX_POINT('',#1470);
#452=VERTEX_POINT('',#1472);
#453=VERTEX_POINT('',#1474);
#454=VERTEX_POINT('',#1476);
#455=VERTEX_POINT('',#1478);
#456=VERTEX_POINT('',#1480);
#457=VERTEX_POINT('',#1482);
#458=VERTEX_POINT('',#1484);
#459=VERTEX_POINT('',#1487);
#460=VERTEX_POINT('',#1490);
#461=VERTEX_POINT('',#1491);
#462=VERTEX_POINT('',#1493);
#463=VERTEX_POINT('',#1495);
#464=VERTEX_POINT('',#1497);
#465=VERTEX_POINT('',#1499);
#466=VERTEX_POINT('',#1501);
#467=VERTEX_POINT('',#1503);
#468=VERTEX_POINT('',#1505);
#469=VERTEX_POINT('',#1507);
#470=VERTEX_POINT('',#1509);
#471=VERTEX_POINT('',#1511);
#472=VERTEX_POINT('',#1513);
#473=VERTEX_POINT('',#1515);
#474=VERTEX_POINT('',#1517);
#475=VERTEX_POINT('',#1519);
#476=VERTEX_POINT('',#1521);
#477=VERTEX_POINT('',#1523);
#478=VERTEX_POINT('',#1525);
#479=VERTEX_POINT('',#1527);
#480=VERTEX_POINT('',#1529);
#481=VERTEX_POINT('',#1531);
#482=VERTEX_POINT('',#1533);
#483=VERTEX_POINT('',#1535);
#484=VERTEX_POINT('',#1537);
#485=VERTEX_POINT('',#1539);
#486=VERTEX_POINT('',#1541);
#487=VERTEX_POINT('',#1543);
#488=VERTEX_POINT('',#1545);
#489=VERTEX_POINT('',#1547);
#490=VERTEX_POINT('',#1549);
#491=VERTEX_POINT('',#1551);
#492=VERTEX_POINT('',#1553);
#493=VERTEX_POINT('',#1555);
#494=VERTEX_POINT('',#1557);
#495=VERTEX_POINT('',#1559);
#496=VERTEX_POINT('',#1561);
#497=VERTEX_POINT('',#1563);
#498=VERTEX_POINT('',#1565);
#499=VERTEX_POINT('',#1567);
#500=VERTEX_POINT('',#1569);
#501=VERTEX_POINT('',#1571);
#502=VERTEX_POINT('',#1573);
#503=VERTEX_POINT('',#1575);
#504=VERTEX_POINT('',#1577);
#505=VERTEX_POINT('',#1579);
#506=VERTEX_POINT('',#1581);
#507=VERTEX_POINT('',#1583);
#508=VERTEX_POINT('',#1586);
#509=EDGE_CURVE('',#411,#412,#401,.T.);
#510=EDGE_CURVE('',#412,#413,#127,.T.);
#511=EDGE_CURVE('',#413,#414,#128,.T.);
#512=EDGE_CURVE('',#414,#415,#129,.T.);
#513=EDGE_CURVE('',#415,#416,#130,.T.);
#514=EDGE_CURVE('',#416,#417,#131,.T.);
#515=EDGE_CURVE('',#417,#418,#132,.T.);
#516=EDGE_CURVE('',#418,#419,#133,.T.);
#517=EDGE_CURVE('',#419,#420,#134,.T.);
#518=EDGE_CURVE('',#420,#421,#135,.T.);
#519=EDGE_CURVE('',#421,#422,#136,.T.);
#520=EDGE_CURVE('',#422,#423,#137,.T.);
#521=EDGE_CURVE('',#423,#424,#402,.T.);
#522=EDGE_CURVE('',#424,#425,#138,.T.);
#523=EDGE_CURVE('',#425,#426,#139,.T.);
#524=EDGE_CURVE('',#426,#427,#140,.T.);
#525=EDGE_CURVE('',#427,#428,#141,.T.);
#526=EDGE_CURVE('',#428,#429,#142,.T.);
#527=EDGE_CURVE('',#429,#430,#143,.T.);
#528=EDGE_CURVE('',#430,#431,#144,.T.);
#529=EDGE_CURVE('',#431,#432,#145,.T.);
#530=EDGE_CURVE('',#432,#433,#146,.T.);
#531=EDGE_CURVE('',#433,#434,#147,.T.);
#532=EDGE_CURVE('',#434,#435,#148,.T.);
#533=EDGE_CURVE('',#435,#436,#403,.T.);
#534=EDGE_CURVE('',#436,#437,#149,.T.);
#535=EDGE_CURVE('',#437,#438,#150,.T.);
#536=EDGE_CURVE('',#438,#439,#151,.T.);
#537=EDGE_CURVE('',#439,#440,#152,.T.);
#538=EDGE_CURVE('',#440,#441,#153,.T.);
#539=EDGE_CURVE('',#441,#442,#154,.T.);
#540=EDGE_CURVE('',#442,#443,#155,.T.);
#541=EDGE_CURVE('',#443,#444,#156,.T.);
#542=EDGE_CURVE('',#444,#445,#157,.T.);
#543=EDGE_CURVE('',#445,#446,#158,.T.);
#544=EDGE_CURVE('',#446,#447,#159,.T.);
#545=EDGE_CURVE('',#447,#448,#404,.T.);
#546=EDGE_CURVE('',#448,#449,#160,.T.);
#547=EDGE_CURVE('',#449,#450,#161,.T.);
#548=EDGE_CURVE('',#450,#451,#162,.T.);
#549=EDGE_CURVE('',#451,#452,#163,.T.);
#550=EDGE_CURVE('',#452,#453,#164,.T.);
#551=EDGE_CURVE('',#453,#454,#165,.T.);
#552=EDGE_CURVE('',#454,#455,#166,.T.);
#553=EDGE_CURVE('',#455,#456,#167,.T.);
#554=EDGE_CURVE('',#456,#457,#168,.T.);
#555=EDGE_CURVE('',#457,#458,#169,.T.);
#556=EDGE_CURVE('',#458,#411,#170,.T.);
#557=EDGE_CURVE('',#459,#459,#405,.T.);
#558=EDGE_CURVE('',#460,#461,#406,.T.);
#559=EDGE_CURVE('',#462,#460,#171,.T.);
#560=EDGE_CURVE('',#463,#462,#172,.T.);
#561=EDGE_CURVE('',#464,#463,#173,.T.);
#562=EDGE_CURVE('',#465,#464,#174,.T.);
#563=EDGE_CURVE('',#466,#465,#175,.T.);
#564=EDGE_CURVE('',#467,#466,#176,.T.);
#565=EDGE_CURVE('',#468,#467,#177,.T.);
#566=EDGE_CURVE('',#469,#468,#178,.T.);
#567=EDGE_CURVE('',#470,#469,#179,.T.);
#568=EDGE_CURVE('',#471,#470,#180,.T.);
#569=EDGE_CURVE('',#472,#471,#181,.T.);
#570=EDGE_CURVE('',#473,#472,#407,.T.);
#571=EDGE_CURVE('',#474,#473,#182,.T.);
#572=EDGE_CURVE('',#475,#474,#183,.T.);
#573=EDGE_CURVE('',#476,#475,#184,.T.);
#574=EDGE_CURVE('',#477,#476,#185,.T.);
#575=EDGE_CURVE('',#478,#477,#186,.T.);
#576=EDGE_CURVE('',#479,#478,#187,.T.);
#577=EDGE_CURVE('',#480,#479,#188,.T.);
#578=EDGE_CURVE('',#481,#480,#189,.T.);
#579=EDGE_CURVE('',#482,#481,#190,.T.);
#580=EDGE_CURVE('',#483,#482,#191,.T.);
#581=EDGE_CURVE('',#484,#483,#192,.T.);
#582=EDGE_CURVE('',#485,#484,#408,.T.);
#583=EDGE_CURVE('',#486,#485,#193,.T.);
#584=EDGE_CURVE('',#487,#486,#194,.T.);
#585=EDGE_CURVE('',#488,#487,#195,.T.);
#586=EDGE_CURVE('',#489,#488,#196,.T.);
#587=EDGE_CURVE('',#490,#489,#197,.T.);
#588=EDGE_CURVE('',#491,#490,#198,.T.);
#589=EDGE_CURVE('',#492,#491,#199,.T.);
#590=EDGE_CURVE('',#493,#492,#200,.T.);
#591=EDGE_CURVE('',#494,#493,#201,.T.);
#592=EDGE_CURVE('',#495,#494,#202,.T.);
#593=EDGE_CURVE('',#496,#495,#203,.T.);
#594=EDGE_CURVE('',#497,#496,#409,.T.);
#595=EDGE_CURVE('',#498,#497,#204,.T.);
#596=EDGE_CURVE('',#499,#498,#205,.T.);
#597=EDGE_CURVE('',#500,#499,#206,.T.);
#598=EDGE_CURVE('',#501,#500,#207,.T.);
#599=EDGE_CURVE('',#502,#501,#208,.T.);
#600=EDGE_CURVE('',#503,#502,#209,.T.);
#601=EDGE_CURVE('',#504,#503,#210,.T.);
#602=EDGE_CURVE('',#505,#504,#211,.T.);
#603=EDGE_CURVE('',#506,#505,#212,.T.);
#604=EDGE_CURVE('',#507,#506,#213,.T.);
#605=EDGE_CURVE('',#461,#507,#214,.T.);
#606=EDGE_CURVE('',#508,#508,#410,.T.);
#607=EDGE_CURVE('',#412,#461,#215,.T.);
#608=EDGE_CURVE('',#411,#460,#216,.T.);
#609=EDGE_CURVE('',#413,#507,#217,.T.);
#610=EDGE_CURVE('',#414,#506,#218,.T.);
#611=EDGE_CURVE('',#415,#505,#219,.T.);
#612=EDGE_CURVE('',#416,#504,#220,.T.);
#613=EDGE_CURVE('',#417,#503,#221,.T.);
#614=EDGE_CURVE('',#418,#502,#222,.T.);
#615=EDGE_CURVE('',#419,#501,#223,.T.);
#616=EDGE_CURVE('',#420,#500,#224,.T.);
#617=EDGE_CURVE('',#421,#499,#225,.T.);
#618=EDGE_CURVE('',#422,#498,#226,.T.);
#619=EDGE_CURVE('',#423,#497,#227,.T.);
#620=EDGE_CURVE('',#424,#496,#228,.T.);
#621=EDGE_CURVE('',#425,#495,#229,.T.);
#622=EDGE_CURVE('',#426,#494,#230,.T.);
#623=EDGE_CURVE('',#427,#493,#231,.T.);
#624=EDGE_CURVE('',#428,#492,#232,.T.);
#625=EDGE_CURVE('',#429,#491,#233,.T.);
#626=EDGE_CURVE('',#430,#490,#234,.T.);
#627=EDGE_CURVE('',#431,#489,#235,.T.);
#628=EDGE_CURVE('',#432,#488,#236,.T.);
#629=EDGE_CURVE('',#433,#487,#237,.T.);
#630=EDGE_CURVE('',#434,#486,#238,.T.);
#631=EDGE_CURVE('',#435,#485,#239,.T.);
#632=EDGE_CURVE('',#436,#484,#240,.T.);
#633=EDGE_CURVE('',#437,#483,#241,.T.);
#634=EDGE_CURVE('',#438,#482,#242,.T.);
#635=EDGE_CURVE('',#439,#481,#243,.T.);
#636=EDGE_CURVE('',#440,#480,#244,.T.);
#637=EDGE_CURVE('',#441,#479,#245,.T.);
#638=EDGE_CURVE('',#442,#478,#246,.T.);
#639=EDGE_CURVE('',#443,#477,#247,.T.);
#640=EDGE_CURVE('',#444,#476,#248,.T.);
#641=EDGE_CURVE('',#445,#475,#249,.T.);
#642=EDGE_CURVE('',#446,#474,#250,.T.);
#643=EDGE_CURVE('',#447,#473,#251,.T.);
#644=EDGE_CURVE('',#448,#472,#252,.T.);
#645=EDGE_CURVE('',#449,#471,#253,.T.);
#646=EDGE_CURVE('',#450,#470,#254,.T.);
#647=EDGE_CURVE('',#451,#469,#255,.T.);
#648=EDGE_CURVE('',#452,#468,#256,.T.);
#649=EDGE_CURVE('',#453,#467,#257,.T.);
#650=EDGE_CURVE('',#454,#466,#258,.T.);
#651=EDGE_CURVE('',#455,#465,#259,.T.);
#652=EDGE_CURVE('',#456,#464,#260,.T.);
#653=EDGE_CURVE('',#457,#463,#261,.T.);
#654=EDGE_CURVE('',#458,#462,#262,.T.);
#655=EDGE_CURVE('',#459,#508,#263,.T.);
#656=ORIENTED_EDGE('',*,*,#509,.T.);
#657=ORIENTED_EDGE('',*,*,#510,.T.);
#658=ORIENTED_EDGE('',*,*,#511,.T.);
#659=ORIENTED_EDGE('',*,*,#512,.T.);
#660=ORIENTED_EDGE('',*,*,#513,.T.);
#661=ORIENTED_EDGE('',*,*,#514,.T.);
#662=ORIENTED_EDGE('',*,*,#515,.T.);
#663=ORIENTED_EDGE('',*,*,#516,.T.);
#664=ORIENTED_EDGE('',*,*,#517,.T.);
#665=ORIENTED_EDGE('',*,*,#518,.T.);
#666=ORIENTED_EDGE('',*,*,#519,.T.);
#667=ORIENTED_EDGE('',*,*,#520,.T.);
#668=ORIENTED_EDGE('',*,*,#521,.T.);
#669=ORIENTED_EDGE('',*,*,#522,.T.);
#670=ORIENTED_EDGE('',*,*,#523,.T.);
#671=ORIENTED_EDGE('',*,*,#524,.T.);
#672=ORIENTED_EDGE('',*,*,#525,.T.);
#673=ORIENTED_EDGE('',*,*,#526,.T.);
#674=ORIENTED_EDGE('',*,*,#527,.T.);
#675=ORIENTED_EDGE('',*,*,#528,.T.);
#676=ORIENTED_EDGE('',*,*,#529,.T.);
#677=ORIENTED_EDGE('',*,*,#530,.T.);
#678=ORIENTED_EDGE('',*,*,#531,.T.);
#679=ORIENTED_EDGE('',*,*,#532,.T.);
#680=ORIENTED_EDGE('',*,*,#533,.T.);
#681=ORIENTED_EDGE('',*,*,#534,.T.);
#682=ORIENTED_EDGE('',*,*,#535,.T.);
#683=ORIENTED_EDGE('',*,*,#536,.T.);
#684=ORIENTED_EDGE('',*,*,#537,.T.);
#685=ORIENTED_EDGE('',*,*,#538,.T.);
#686=ORIENTED_EDGE('',*,*,#539,.T.);
#687=ORIENTED_EDGE('',*,*,#540,.T.);
#688=ORIENTED_EDGE('',*,*,#541,.T.);
#689=ORIENTED_EDGE('',*,*,#542,.T.);
#690=ORIENTED_EDGE('',*,*,#543,.T.);
#691=ORIENTED_EDGE('',*,*,#544,.T.);
#692=ORIENTED_EDGE('',*,*,#545,.T.);
#693=ORIENTED_EDGE('',*,*,#546,.T.);
#694=ORIENTED_EDGE('',*,*,#547,.T.);
#695=ORIENTED_EDGE('',*,*,#548,.T.);
#696=ORIENTED_EDGE('',*,*,#549,.T.);
#697=ORIENTED_EDGE('',*,*,#550,.T.);
#698=ORIENTED_EDGE('',*,*,#551,.T.);
#699=ORIENTED_EDGE('',*,*,#552,.T.);
#700=ORIENTED_EDGE('',*,*,#553,.T.);
#701=ORIENTED_EDGE('',*,*,#554,.T.);
#702=ORIENTED_EDGE('',*,*,#555,.T.);
#703=ORIENTED_EDGE('',*,*,#556,.T.);
#704=ORIENTED_EDGE('',*,*,#557,.F.);
#705=ORIENTED_EDGE('',*,*,#558,.F.);
#706=ORIENTED_EDGE('',*,*,#559,.F.);
#707=ORIENTED_EDGE('',*,*,#560,.F.);
#708=ORIENTED_EDGE('',*,*,#561,.F.);
#709=ORIENTED_EDGE('',*,*,#562,.F.);
#710=ORIENTED_EDGE('',*,*,#563,.F.);
#711=ORIENTED_EDGE('',*,*,#564,.F.);
#712=ORIENTED_EDGE('',*,*,#565,.F.);
#713=ORIENTED_EDGE('',*,*,#566,.F.);
#714=ORIENTED_EDGE('',*,*,#567,.F.);
#715=ORIENTED_EDGE('',*,*,#568,.F.);
#716=ORIENTED_EDGE('',*,*,#569,.F.);
#717=ORIENTED_EDGE('',*,*,#570,.F.);
#718=ORIENTED_EDGE('',*,*,#571,.F.);
#719=ORIENTED_EDGE('',*,*,#572,.F.);
#720=ORIENTED_EDGE('',*,*,#573,.F.);
#721=ORIENTED_EDGE('',*,*,#574,.F.);
#722=ORIENTED_EDGE('',*,*,#575,.F.);
#723=ORIENTED_EDGE('',*,*,#576,.F.);
#724=ORIENTED_EDGE('',*,*,#577,.F.);
#725=ORIENTED_EDGE('',*,*,#578,.F.);
#726=ORIENTED_EDGE('',*,*,#579,.F.);
#727=ORIENTED_EDGE('',*,*,#580,.F.);
#728=ORIENTED_EDGE('',*,*,#581,.F.);
#729=ORIENTED_EDGE('',*,*,#582,.F.);
#730=ORIENTED_EDGE('',*,*,#583,.F.);
#731=ORIENTED_EDGE('',*,*,#584,.F.);
#732=ORIENTED_EDGE('',*,*,#585,.F.);
#733=ORIENTED_EDGE('',*,*,#586,.F.);
#734=ORIENTED_EDGE('',*,*,#587,.F.);
#735=ORIENTED_EDGE('',*,*,#588,.F.);
#736=ORIENTED_EDGE('',*,*,#589,.F.);
#737=ORIENTED_EDGE('',*,*,#590,.F.);
#738=ORIENTED_EDGE('',*,*,#591,.F.);
#739=ORIENTED_EDGE('',*,*,#592,.F.);
#740=ORIENTED_EDGE('',*,*,#593,.F.);
#741=ORIENTED_EDGE('',*,*,#594,.F.);
#742=ORIENTED_EDGE('',*,*,#595,.F.);
#743=ORIENTED_EDGE('',*,*,#596,.F.);
#744=ORIENTED_EDGE('',*,*,#597,.F.);
#745=ORIENTED_EDGE('',*,*,#598,.F.);
#746=ORIENTED_EDGE('',*,*,#599,.F.);
#747=ORIENTED_EDGE('',*,*,#600,.F.);
#748=ORIENTED_EDGE('',*,*,#601,.F.);
#749=ORIENTED_EDGE('',*,*,#602,.F.);
#750=ORIENTED_EDGE('',*,*,#603,.F.);
#751=ORIENTED_EDGE('',*,*,#604,.F.);
#752=ORIENTED_EDGE('',*,*,#605,.F.);
#753=ORIENTED_EDGE('',*,*,#606,.T.);
#754=ORIENTED_EDGE('',*,*,#558,.T.);
#755=ORIENTED_EDGE('',*,*,#607,.F.);
#756=ORIENTED_EDGE('',*,*,#509,.F.);
#757=ORIENTED_EDGE('',*,*,#608,.T.);
#758=ORIENTED_EDGE('',*,*,#605,.T.);
#759=ORIENTED_EDGE('',*,*,#609,.F.);
#760=ORIENTED_EDGE('',*,*,#510,.F.);
#761=ORIENTED_EDGE('',*,*,#607,.T.);
#762=ORIENTED_EDGE('',*,*,#604,.T.);
#763=ORIENTED_EDGE('',*,*,#610,.F.);
#764=ORIENTED_EDGE('',*,*,#511,.F.);
#765=ORIENTED_EDGE('',*,*,#609,.T.);
#766=ORIENTED_EDGE('',*,*,#603,.T.);
#767=ORIENTED_EDGE('',*,*,#611,.F.);
#768=ORIENTED_EDGE('',*,*,#512,.F.);
#769=ORIENTED_EDGE('',*,*,#610,.T.);
#770=ORIENTED_EDGE('',*,*,#602,.T.);
#771=ORIENTED_EDGE('',*,*,#612,.F.);
#772=ORIENTED_EDGE('',*,*,#513,.F.);
#773=ORIENTED_EDGE('',*,*,#611,.T.);
#774=ORIENTED_EDGE('',*,*,#601,.T.);
#775=ORIENTED_EDGE('',*,*,#613,.F.);
#776=ORIENTED_EDGE('',*,*,#514,.F.);
#777=ORIENTED_EDGE('',*,*,#612,.T.);
#778=ORIENTED_EDGE('',*,*,#600,.T.);
#779=ORIENTED_EDGE('',*,*,#614,.F.);
#780=ORIENTED_EDGE('',*,*,#515,.F.);
#781=ORIENTED_EDGE('',*,*,#613,.T.);
#782=ORIENTED_EDGE('',*,*,#599,.T.);
#783=ORIENTED_EDGE('',*,*,#615,.F.);
#784=ORIENTED_EDGE('',*,*,#516,.F.);
#785=ORIENTED_EDGE('',*,*,#614,.T.);
#786=ORIENTED_EDGE('',*,*,#598,.T.);
#787=ORIENTED_EDGE('',*,*,#616,.F.);
#788=ORIENTED_EDGE('',*,*,#517,.F.);
#789=ORIENTED_EDGE('',*,*,#615,.T.);
#790=ORIENTED_EDGE('',*,*,#597,.T.);
#791=ORIENTED_EDGE('',*,*,#617,.F.);
#792=ORIENTED_EDGE('',*,*,#518,.F.);
#793=ORIENTED_EDGE('',*,*,#616,.T.);
#794=ORIENTED_EDGE('',*,*,#596,.T.);
#795=ORIENTED_EDGE('',*,*,#618,.F.);
#796=ORIENTED_EDGE('',*,*,#519,.F.);
#797=ORIENTED_EDGE('',*,*,#617,.T.);
#798=ORIENTED_EDGE('',*,*,#595,.T.);
#799=ORIENTED_EDGE('',*,*,#619,.F.);
#800=ORIENTED_EDGE('',*,*,#520,.F.);
#801=ORIENTED_EDGE('',*,*,#618,.T.);
#802=ORIENTED_EDGE('',*,*,#594,.T.);
#803=ORIENTED_EDGE('',*,*,#620,.F.);
#804=ORIENTED_EDGE('',*,*,#521,.F.);
#805=ORIENTED_EDGE('',*,*,#619,.T.);
#806=ORIENTED_EDGE('',*,*,#593,.T.);
#807=ORIENTED_EDGE('',*,*,#621,.F.);
#808=ORIENTED_EDGE('',*,*,#522,.F.);
#809=ORIENTED_EDGE('',*,*,#620,.T.);
#810=ORIENTED_EDGE('',*,*,#592,.T.);
#811=ORIENTED_EDGE('',*,*,#622,.F.);
#812=ORIENTED_EDGE('',*,*,#523,.F.);
#813=ORIENTED_EDGE('',*,*,#621,.T.);
#814=ORIENTED_EDGE('',*,*,#591,.T.);
#815=ORIENTED_EDGE('',*,*,#623,.F.);
#816=ORIENTED_EDGE('',*,*,#524,.F.);
#817=ORIENTED_EDGE('',*,*,#622,.T.);
#818=ORIENTED_EDGE('',*,*,#590,.T.);
#819=ORIENTED_EDGE('',*,*,#624,.F.);
#820=ORIENTED_EDGE('',*,*,#525,.F.);
#821=ORIENTED_EDGE('',*,*,#623,.T.);
#822=ORIENTED_EDGE('',*,*,#589,.T.);
#823=ORIENTED_EDGE('',*,*,#625,.F.);
#824=ORIENTED_EDGE('',*,*,#526,.F.);
#825=ORIENTED_EDGE('',*,*,#624,.T.);
#826=ORIENTED_EDGE('',*,*,#588,.T.);
#827=ORIENTED_EDGE('',*,*,#626,.F.);
#828=ORIENTED_EDGE('',*,*,#527,.F.);
#829=ORIENTED_EDGE('',*,*,#625,.T.);
#830=ORIENTED_EDGE('',*,*,#587,.T.);
#831=ORIENTED_EDGE('',*,*,#627,.F.);
#832=ORIENTED_EDGE('',*,*,#528,.F.);
#833=ORIENTED_EDGE('',*,*,#626,.T.);
#834=ORIENTED_EDGE('',*,*,#586,.T.);
#835=ORIENTED_EDGE('',*,*,#628,.F.);
#836=ORIENTED_EDGE('',*,*,#529,.F.);
#837=ORIENTED_EDGE('',*,*,#627,.T.);
#838=ORIENTED_EDGE('',*,*,#585,.T.);
#839=ORIENTED_EDGE('',*,*,#629,.F.);
#840=ORIENTED_EDGE('',*,*,#530,.F.);
#841=ORIENTED_EDGE('',*,*,#628,.T.);
#842=ORIENTED_EDGE('',*,*,#584,.T.);
#843=ORIENTED_EDGE('',*,*,#630,.F.);
#844=ORIENTED_EDGE('',*,*,#531,.F.);
#845=ORIENTED_EDGE('',*,*,#629,.T.);
#846=ORIENTED_EDGE('',*,*,#583,.T.);
#847=ORIENTED_EDGE('',*,*,#631,.F.);
#848=ORIENTED_EDGE('',*,*,#532,.F.);
#849=ORIENTED_EDGE('',*,*,#630,.T.);
#850=ORIENTED_EDGE('',*,*,#582,.T.);
#851=ORIENTED_EDGE('',*,*,#632,.F.);
#852=ORIENTED_EDGE('',*,*,#533,.F.);
#853=ORIENTED_EDGE('',*,*,#631,.T.);
#854=ORIENTED_EDGE('',*,*,#581,.T.);
#855=ORIENTED_EDGE('',*,*,#633,.F.);
#856=ORIENTED_EDGE('',*,*,#534,.F.);
#857=ORIENTED_EDGE('',*,*,#632,.T.);
#858=ORIENTED_EDGE('',*,*,#580,.T.);
#859=ORIENTED_EDGE('',*,*,#634,.F.);
#860=ORIENTED_EDGE('',*,*,#535,.F.);
#861=ORIENTED_EDGE('',*,*,#633,.T.);
#862=ORIENTED_EDGE('',*,*,#579,.T.);
#863=ORIENTED_EDGE('',*,*,#635,.F.);
#864=ORIENTED_EDGE('',*,*,#536,.F.);
#865=ORIENTED_EDGE('',*,*,#634,.T.);
#866=ORIENTED_EDGE('',*,*,#578,.T.);
#867=ORIENTED_EDGE('',*,*,#636,.F.);
#868=ORIENTED_EDGE('',*,*,#537,.F.);
#869=ORIENTED_EDGE('',*,*,#635,.T.);
#870=ORIENTED_EDGE('',*,*,#577,.T.);
#871=ORIENTED_EDGE('',*,*,#637,.F.);
#872=ORIENTED_EDGE('',*,*,#538,.F.);
#873=ORIENTED_EDGE('',*,*,#636,.T.);
#874=ORIENTED_EDGE('',*,*,#576,.T.);
#875=ORIENTED_EDGE('',*,*,#638,.F.);
#876=ORIENTED_EDGE('',*,*,#539,.F.);
#877=ORIENTED_EDGE('',*,*,#637,.T.);
#878=ORIENTED_EDGE('',*,*,#575,.T.);
#879=ORIENTED_EDGE('',*,*,#639,.F.);
#880=ORIENTED_EDGE('',*,*,#540,.F.);
#881=ORIENTED_EDGE('',*,*,#638,.T.);
#882=ORIENTED_EDGE('',*,*,#574,.T.);
#883=ORIENTED_EDGE('',*,*,#640,.F.);
#884=ORIENTED_EDGE('',*,*,#541,.F.);
#885=ORIENTED_EDGE('',*,*,#639,.T.);
#886=ORIENTED_EDGE('',*,*,#573,.T.);
#887=ORIENTED_EDGE('',*,*,#641,.F.);
#888=ORIENTED_EDGE('',*,*,#542,.F.);
#889=ORIENTED_EDGE('',*,*,#640,.T.);
#890=ORIENTED_EDGE('',*,*,#572,.T.);
#891=ORIENTED_EDGE('',*,*,#642,.F.);
#892=ORIENTED_EDGE('',*,*,#543,.F.);
#893=ORIENTED_EDGE('',*,*,#641,.T.);
#894=ORIENTED_EDGE('',*,*,#571,.T.);
#895=ORIENTED_EDGE('',*,*,#643,.F.);
#896=ORIENTED_EDGE('',*,*,#544,.F.);
#897=ORIENTED_EDGE('',*,*,#642,.T.);
#898=ORIENTED_EDGE('',*,*,#570,.T.);
#899=ORIENTED_EDGE('',*,*,#644,.F.);
#900=ORIENTED_EDGE('',*,*,#545,.F.);
#901=ORIENTED_EDGE('',*,*,#643,.T.);
#902=ORIENTED_EDGE('',*,*,#569,.T.);
#903=ORIENTED_EDGE('',*,*,#645,.F.);
#904=ORIENTED_EDGE('',*,*,#546,.F.);
#905=ORIENTED_EDGE('',*,*,#644,.T.);
#906=ORIENTED_EDGE('',*,*,#568,.T.);
#907=ORIENTED_EDGE('',*,*,#646,.F.);
#908=ORIENTED_EDGE('',*,*,#547,.F.);
#909=ORIENTED_EDGE('',*,*,#645,.T.);
#910=ORIENTED_EDGE('',*,*,#567,.T.);
#911=ORIENTED_EDGE('',*,*,#647,.F.);
#912=ORIENTED_EDGE('',*,*,#548,.F.);
#913=ORIENTED_EDGE('',*,*,#646,.T.);
#914=ORIENTED_EDGE('',*,*,#566,.T.);
#915=ORIENTED_EDGE('',*,*,#648,.F.);
#916=ORIENTED_EDGE('',*,*,#549,.F.);
#917=ORIENTED_EDGE('',*,*,#647,.T.);
#918=ORIENTED_EDGE('',*,*,#565,.T.);
#919=ORIENTED_EDGE('',*,*,#649,.F.);
#920=ORIENTED_EDGE('',*,*,#550,.F.);
#921=ORIENTED_EDGE('',*,*,#648,.T.);
#922=ORIENTED_EDGE('',*,*,#564,.T.);
#923=ORIENTED_EDGE('',*,*,#650,.F.);
#924=ORIENTED_EDGE('',*,*,#551,.F.);
#925=ORIENTED_EDGE('',*,*,#649,.T.);
#926=ORIENTED_EDGE('',*,*,#563,.T.);
#927=ORIENTED_EDGE('',*,*,#651,.F.);
#928=ORIENTED_EDGE('',*,*,#552,.F.);
#929=ORIENTED_EDGE('',*,*,#650,.T.);
#930=ORIENTED_EDGE('',*,*,#562,.T.);
#931=ORIENTED_EDGE('',*,*,#652,.F.);
#932=ORIENTED_EDGE('',*,*,#553,.F.);
#933=ORIENTED_EDGE('',*,*,#651,.T.);
#934=ORIENTED_EDGE('',*,*,#561,.T.);
#935=ORIENTED_EDGE('',*,*,#653,.F.);
#936=ORIENTED_EDGE('',*,*,#554,.F.);
#937=ORIENTED_EDGE('',*,*,#652,.T.);
#938=ORIENTED_EDGE('',*,*,#560,.T.);
#939=ORIENTED_EDGE('',*,*,#654,.F.);
#940=ORIENTED_EDGE('',*,*,#555,.F.);
#941=ORIENTED_EDGE('',*,*,#653,.T.);
#942=ORIENTED_EDGE('',*,*,#559,.T.);
#943=ORIENTED_EDGE('',*,*,#608,.F.);
#944=ORIENTED_EDGE('',*,*,#556,.F.);
#945=ORIENTED_EDGE('',*,*,#654,.T.);
#946=ORIENTED_EDGE('',*,*,#557,.T.);
#947=ORIENTED_EDGE('',*,*,#655,.T.);
#948=ORIENTED_EDGE('',*,*,#606,.F.);
#949=ORIENTED_EDGE('',*,*,#655,.F.);
#950=PLANE('',#1067);
#951=PLANE('',#1073);
#952=PLANE('',#1080);
#953=PLANE('',#1081);
#954=PLANE('',#1082);
#955=PLANE('',#1083);
#956=PLANE('',#1084);
#957=PLANE('',#1085);
#958=PLANE('',#1086);
#959=PLANE('',#1087);
#960=PLANE('',#1088);
#961=PLANE('',#1089);
#962=PLANE('',#1090);
#963=PLANE('',#1092);
#964=PLANE('',#1093);
#965=PLANE('',#1094);
#966=PLANE('',#1095);
#967=PLANE('',#1096);
#968=PLANE('',#1097);
#969=PLANE('',#1098);
#970=PLANE('',#1099);
#971=PLANE('',#1100);
#972=PLANE('',#1101);
#973=PLANE('',#1102);
#974=PLANE('',#1104);
#975=PLANE('',#1105);
#976=PLANE('',#1106);
#977=PLANE('',#1107);
#978=PLANE('',#1108);
#979=PLANE('',#1109);
#980=PLANE('',#1110);
#981=PLANE('',#1111);
#982=PLANE('',#1112);
#983=PLANE('',#1113);
#984=PLANE('',#1114);
#985=PLANE('',#1116);
#986=PLANE('',#1117);
#987=PLANE('',#1118);
#988=PLANE('',#1119);
#989=PLANE('',#1120);
#990=PLANE('',#1121);
#991=PLANE('',#1122);
#992=PLANE('',#1123);
#993=PLANE('',#1124);
#994=PLANE('',#1125);
#995=PLANE('',#1126);
#996=ADVANCED_FACE('',(#23,#21),#950,.F.);
#997=ADVANCED_FACE('',(#24,#22),#951,.T.);
#998=ADVANCED_FACE('',(#25),#14,.T.);
#999=ADVANCED_FACE('',(#26),#952,.F.);
#1000=ADVANCED_FACE('',(#27),#953,.F.);
#1001=ADVANCED_FACE('',(#28),#954,.F.);
#1002=ADVANCED_FACE('',(#29),#955,.F.);
#1003=ADVANCED_FACE('',(#30),#956,.F.);
#1004=ADVANCED_FACE('',(#31),#957,.F.);
#1005=ADVANCED_FACE('',(#32),#958,.F.);
#1006=ADVANCED_FACE('',(#33),#959,.F.);
#1007=ADVANCED_FACE('',(#34),#960,.F.);
#1008=ADVANCED_FACE('',(#35),#961,.F.);
#1009=ADVANCED_FACE('',(#36),#962,.F.);
#1010=ADVANCED_FACE('',(#37),#15,.T.);
#1011=ADVANCED_FACE('',(#38),#963,.F.);
#1012=ADVANCED_FACE('',(#39),#964,.F.);
#1013=ADVANCED_FACE('',(#40),#965,.F.);
#1014=ADVANCED_FACE('',(#41),#966,.F.);
#1015=ADVANCED_FACE('',(#42),#967,.F.);
#1016=ADVANCED_FACE('',(#43),#968,.F.);
#1017=ADVANCED_FACE('',(#44),#969,.F.);
#1018=ADVANCED_FACE('',(#45),#970,.F.);
#1019=ADVANCED_FACE('',(#46),#971,.F.);
#1020=ADVANCED_FACE('',(#47),#972,.F.);
#1021=ADVANCED_FACE('',(#48),#973,.F.);
#1022=ADVANCED_FACE('',(#49),#16,.T.);
#1023=ADVANCED_FACE('',(#50),#974,.F.);
#1024=ADVANCED_FACE('',(#51),#975,.F.);
#1025=ADVANCED_FACE('',(#52),#976,.F.);
#1026=ADVANCED_FACE('',(#53),#977,.F.);
#1027=ADVANCED_FACE('',(#54),#978,.F.);
#1028=ADVANCED_FACE('',(#55),#979,.F.);
#1029=ADVANCED_FACE('',(#56),#980,.F.);
#1030=ADVANCED_FACE('',(#57),#981,.F.);
#1031=ADVANCED_FACE('',(#58),#982,.F.);
#1032=ADVANCED_FACE('',(#59),#983,.F.);
#1033=ADVANCED_FACE('',(#60),#984,.F.);
#1034=ADVANCED_FACE('',(#61),#17,.T.);
#1035=ADVANCED_FACE('',(#62),#985,.F.);
#1036=ADVANCED_FACE('',(#63),#986,.F.);
#1037=ADVANCED_FACE('',(#64),#987,.F.);
#1038=ADVANCED_FACE('',(#65),#988,.F.);
#1039=ADVANCED_FACE('',(#66),#989,.F.);
#1040=ADVANCED_FACE('',(#67),#990,.F.);
#1041=ADVANCED_FACE('',(#68),#991,.F.);
#1042=ADVANCED_FACE('',(#69),#992,.F.);
#1043=ADVANCED_FACE('',(#70),#993,.F.);
#1044=ADVANCED_FACE('',(#71),#994,.F.);
#1045=ADVANCED_FACE('',(#72),#995,.F.);
#1046=ADVANCED_FACE('',(#73),#18,.F.);
#1047=CLOSED_SHELL('',(#996,#997,#998,#999,#1000,#1001,#1002,#1003,#1004,
#1005,#1006,#1007,#1008,#1009,#1010,#1011,#1012,#1013,#1014,#1015,#1016,
#1017,#1018,#1019,#1020,#1021,#1022,#1023,#1024,#1025,#1026,#1027,#1028,
#1029,#1030,#1031,#1032,#1033,#1034,#1035,#1036,#1037,#1038,#1039,#1040,
#1041,#1042,#1043,#1044,#1045,#1046));
#1048=DERIVED_UNIT_ELEMENT(#1050,1.);
#1049=DERIVED_UNIT_ELEMENT(#1691,3.);
#1050=(
MASS_UNIT()
NAMED_UNIT(*)
SI_UNIT($,.GRAM.)
);
#1051=DERIVED_UNIT((#1048,#1049));
#1052=MEASURE_REPRESENTATION_ITEM('density measure',
POSITIVE_RATIO_MEASURE(2.7),#1051);
#1053=PROPERTY_DEFINITION_REPRESENTATION(#1058,#1055);
#1054=PROPERTY_DEFINITION_REPRESENTATION(#1059,#1056);
#1055=REPRESENTATION('material name',(#1057),#1688);
#1056=REPRESENTATION('density',(#1052),#1688);
#1057=DESCRIPTIVE_REPRESENTATION_ITEM('Aluminum 6061','Aluminum 6061');
#1058=PROPERTY_DEFINITION('material property','material name',#1698);
#1059=PROPERTY_DEFINITION('material property','density of part',#1698);
#1060=DATE_TIME_ROLE('creation_date');
#1061=APPLIED_DATE_AND_TIME_ASSIGNMENT(#1062,#1060,(#1698));
#1062=DATE_AND_TIME(#1063,#1064);
#1063=CALENDAR_DATE(2018,25,2);
#1064=LOCAL_TIME(20,57,38.,#1065);
#1065=COORDINATED_UNIVERSAL_TIME_OFFSET(0,0,.BEHIND.);
#1066=AXIS2_PLACEMENT_3D('placement',#1389,#1128,#1129);
#1067=AXIS2_PLACEMENT_3D('',#1390,#1130,#1131);
#1068=AXIS2_PLACEMENT_3D('',#1393,#1132,#1133);
#1069=AXIS2_PLACEMENT_3D('',#1417,#1145,#1146);
#1070=AXIS2_PLACEMENT_3D('',#1441,#1158,#1159);
#1071=AXIS2_PLACEMENT_3D('',#1465,#1171,#1172);
#1072=AXIS2_PLACEMENT_3D('',#1488,#1184,#1185);
#1073=AXIS2_PLACEMENT_3D('',#1489,#1186,#1187);
#1074=AXIS2_PLACEMENT_3D('',#1492,#1188,#1189);
#1075=AXIS2_PLACEMENT_3D('',#1516,#1201,#1202);
#1076=AXIS2_PLACEMENT_3D('',#1540,#1214,#1215);
#1077=AXIS2_PLACEMENT_3D('',#1564,#1227,#1228);
#1078=AXIS2_PLACEMENT_3D('',#1587,#1240,#1241);
#1079=AXIS2_PLACEMENT_3D('',#1588,#1242,#1243);
#1080=AXIS2_PLACEMENT_3D('',#1591,#1246,#1247);
#1081=AXIS2_PLACEMENT_3D('',#1593,#1249,#1250);
#1082=AXIS2_PLACEMENT_3D('',#1595,#1252,#1253);
#1083=AXIS2_PLACEMENT_3D('',#1597,#1255,#1256);
#1084=AXIS2_PLACEMENT_3D('',#1599,#1258,#1259);
#1085=AXIS2_PLACEMENT_3D('',#1601,#1261,#1262);
#1086=AXIS2_PLACEMENT_3D('',#1603,#1264,#1265);
#1087=AXIS2_PLACEMENT_3D('',#1605,#1267,#1268);
#1088=AXIS2_PLACEMENT_3D('',#1607,#1270,#1271);
#1089=AXIS2_PLACEMENT_3D('',#1609,#1273,#1274);
#1090=AXIS2_PLACEMENT_3D('',#1611,#1276,#1277);
#1091=AXIS2_PLACEMENT_3D('',#1613,#1279,#1280);
#1092=AXIS2_PLACEMENT_3D('',#1615,#1282,#1283);
#1093=AXIS2_PLACEMENT_3D('',#1617,#1285,#1286);
#1094=AXIS2_PLACEMENT_3D('',#1619,#1288,#1289);
#1095=AXIS2_PLACEMENT_3D('',#1621,#1291,#1292);
#1096=AXIS2_PLACEMENT_3D('',#1623,#1294,#1295);
#1097=AXIS2_PLACEMENT_3D('',#1625,#1297,#1298);
#1098=AXIS2_PLACEMENT_3D('',#1627,#1300,#1301);
#1099=AXIS2_PLACEMENT_3D('',#1629,#1303,#1304);
#1100=AXIS2_PLACEMENT_3D('',#1631,#1306,#1307);
#1101=AXIS2_PLACEMENT_3D('',#1633,#1309,#1310);
#1102=AXIS2_PLACEMENT_3D('',#1635,#1312,#1313);
#1103=AXIS2_PLACEMENT_3D('',#1637,#1315,#1316);
#1104=AXIS2_PLACEMENT_3D('',#1639,#1318,#1319);
#1105=AXIS2_PLACEMENT_3D('',#1641,#1321,#1322);
#1106=AXIS2_PLACEMENT_3D('',#1643,#1324,#1325);
#1107=AXIS2_PLACEMENT_3D('',#1645,#1327,#1328);
#1108=AXIS2_PLACEMENT_3D('',#1647,#1330,#1331);
#1109=AXIS2_PLACEMENT_3D('',#1649,#1333,#1334);
#1110=AXIS2_PLACEMENT_3D('',#1651,#1336,#1337);
#1111=AXIS2_PLACEMENT_3D('',#1653,#1339,#1340);
#1112=AXIS2_PLACEMENT_3D('',#1655,#1342,#1343);
#1113=AXIS2_PLACEMENT_3D('',#1657,#1345,#1346);
#1114=AXIS2_PLACEMENT_3D('',#1659,#1348,#1349);
#1115=AXIS2_PLACEMENT_3D('',#1661,#1351,#1352);
#1116=AXIS2_PLACEMENT_3D('',#1663,#1354,#1355);
#1117=AXIS2_PLACEMENT_3D('',#1665,#1357,#1358);
#1118=AXIS2_PLACEMENT_3D('',#1667,#1360,#1361);
#1119=AXIS2_PLACEMENT_3D('',#1669,#1363,#1364);
#1120=AXIS2_PLACEMENT_3D('',#1671,#1366,#1367);
#1121=AXIS2_PLACEMENT_3D('',#1673,#1369,#1370);
#1122=AXIS2_PLACEMENT_3D('',#1675,#1372,#1373);
#1123=AXIS2_PLACEMENT_3D('',#1677,#1375,#1376);
#1124=AXIS2_PLACEMENT_3D('',#1679,#1378,#1379);
#1125=AXIS2_PLACEMENT_3D('',#1681,#1381,#1382);
#1126=AXIS2_PLACEMENT_3D('',#1683,#1384,#1385);
#1127=AXIS2_PLACEMENT_3D('',#1684,#1386,#1387);
#1128=DIRECTION('axis',(0.,0.,1.));
#1129=DIRECTION('refdir',(1.,0.,0.));
#1130=DIRECTION('center_axis',(0.,0.,-1.));
#1131=DIRECTION('ref_axis',(-1.,0.,0.));
#1132=DIRECTION('center_axis',(0.,0.,1.));
#1133=DIRECTION('ref_axis',(-1.,0.,0.));
#1134=DIRECTION('',(1.,0.,0.));
#1135=DIRECTION('',(0.707106781186548,0.707106781186547,0.));
#1136=DIRECTION('',(-1.,0.,0.));
#1137=DIRECTION('',(0.,1.,0.));
#1138=DIRECTION('',(0.707106781186547,0.707106781186548,0.));
#1139=DIRECTION('',(1.,-9.57088814332031E-17,0.));
#1140=DIRECTION('',(0.707106781186547,-0.707106781186548,0.));
#1141=DIRECTION('',(6.254777603522E-16,-1.,0.));
#1142=DIRECTION('',(-1.,1.40238697847388E-15,0.));
#1143=DIRECTION('',(0.707106781186548,-0.707106781186547,0.));
#1144=DIRECTION('',(1.,0.,0.));
#1145=DIRECTION('center_axis',(0.,0.,1.));
#1146=DIRECTION('ref_axis',(1.,0.,0.));
#1147=DIRECTION('',(-5.92118946466752E-16,1.,0.));
#1148=DIRECTION('',(-0.707106781186551,0.707106781186544,0.));
#1149=DIRECTION('',(4.67462326157963E-16,-1.,0.));
#1150=DIRECTION('',(-1.,0.,0.));
#1151=DIRECTION('',(-0.707106781186547,0.707106781186548,0.));
#1152=DIRECTION('',(-2.87126644299609E-16,1.,0.));
#1153=DIRECTION('',(0.707106781186547,0.707106781186548,0.));
#1154=DIRECTION('',(1.,-6.25477760352204E-16,0.));
#1155=DIRECTION('',(9.34924652315913E-15,-1.,0.));
#1156=DIRECTION('',(0.707106781186541,0.707106781186554,0.));
#1157=DIRECTION('',(-5.92118946466752E-16,1.,0.));
#1158=DIRECTION('center_axis',(0.,0.,1.));
#1159=DIRECTION('ref_axis',(1.,0.,0.));
#1160=DIRECTION('',(-1.,0.,0.));
#1161=DIRECTION('',(-0.707106781186552,-0.707106781186543,0.));
#1162=DIRECTION('',(1.,-6.07701024005346E-15,0.));
#1163=DIRECTION('',(0.,-1.,0.));
#1164=DIRECTION('',(-0.707106781186547,-0.707106781186548,0.));
#1165=DIRECTION('',(-1.,1.91417762866406E-16,0.));
#1166=DIRECTION('',(-0.707106781186548,0.707106781186547,0.));
#1167=DIRECTION('',(0.,1.,0.));
#1168=DIRECTION('',(1.,0.,0.));
#1169=DIRECTION('',(-0.707106781186547,0.707106781186549,0.));
#1170=DIRECTION('',(-1.,0.,0.));
#1171=DIRECTION('center_axis',(0.,0.,1.));
#1172=DIRECTION('ref_axis',(1.,0.,0.));
#1173=DIRECTION('',(0.,-1.,0.));
#1174=DIRECTION('',(0.707106781186548,-0.707106781186547,0.));
#1175=DIRECTION('',(0.,1.,0.));
#1176=DIRECTION('',(1.,0.,0.));
#1177=DIRECTION('',(0.707106781186548,-0.707106781186547,0.));
#1178=DIRECTION('',(9.57088814332032E-17,-1.,0.));
#1179=DIRECTION('',(-0.707106781186547,-0.707106781186548,0.));
#1180=DIRECTION('',(-1.,-4.37834432246545E-15,0.));
#1181=DIRECTION('',(-3.73969860926364E-15,1.,0.));
#1182=DIRECTION('',(-0.707106781186545,-0.70710678118655,0.));
#1183=DIRECTION('',(0.,-1.,0.));
#1184=DIRECTION('center_axis',(0.,0.,1.));
#1185=DIRECTION('ref_axis',(1.,0.,0.));
#1186=DIRECTION('center_axis',(0.,0.,-1.));
#1187=DIRECTION('ref_axis',(-1.,0.,0.));
#1188=DIRECTION('center_axis',(0.,0.,1.));
#1189=DIRECTION('ref_axis',(-1.,0.,0.));
#1190=DIRECTION('',(0.,-1.,0.));
#1191=DIRECTION('',(-0.707106781186545,-0.70710678118655,0.));
#1192=DIRECTION('',(-3.73969860926364E-15,1.,0.));
#1193=DIRECTION('',(-1.,-4.37834432246545E-15,0.));
#1194=DIRECTION('',(-0.707106781186547,-0.707106781186548,0.));
#1195=DIRECTION('',(9.57088814332032E-17,-1.,0.));
#1196=DIRECTION('',(0.707106781186548,-0.707106781186547,0.));
#1197=DIRECTION('',(1.,0.,0.));
#1198=DIRECTION('',(0.,1.,0.));
#1199=DIRECTION('',(0.707106781186548,-0.707106781186547,0.));
#1200=DIRECTION('',(0.,-1.,0.));
#1201=DIRECTION('center_axis',(0.,0.,1.));
#1202=DIRECTION('ref_axis',(1.,0.,0.));
#1203=DIRECTION('',(-1.,0.,0.));
#1204=DIRECTION('',(-0.707106781186547,0.707106781186549,0.));
#1205=DIRECTION('',(1.,0.,0.));
#1206=DIRECTION('',(0.,1.,0.));
#1207=DIRECTION('',(-0.707106781186548,0.707106781186547,0.));
#1208=DIRECTION('',(-1.,1.91417762866406E-16,0.));
#1209=DIRECTION('',(-0.707106781186547,-0.707106781186548,0.));
#1210=DIRECTION('',(0.,-1.,0.));
#1211=DIRECTION('',(1.,-6.07701024005346E-15,0.));
#1212=DIRECTION('',(-0.707106781186552,-0.707106781186543,0.));
#1213=DIRECTION('',(-1.,0.,0.));
#1214=DIRECTION('center_axis',(0.,0.,1.));
#1215=DIRECTION('ref_axis',(1.,0.,0.));
#1216=DIRECTION('',(-5.92118946466752E-16,1.,0.));
#1217=DIRECTION('',(0.707106781186541,0.707106781186554,0.));
#1218=DIRECTION('',(9.34924652315913E-15,-1.,0.));
#1219=DIRECTION('',(1.,-6.25477760352204E-16,0.));
#1220=DIRECTION('',(0.707106781186547,0.707106781186548,0.));
#1221=DIRECTION('',(-2.87126644299609E-16,1.,0.));
#1222=DIRECTION('',(-0.707106781186547,0.707106781186548,0.));
#1223=DIRECTION('',(-1.,0.,0.));
#1224=DIRECTION('',(4.67462326157963E-16,-1.,0.));
#1225=DIRECTION('',(-0.707106781186551,0.707106781186544,0.));
#1226=DIRECTION('',(-5.92118946466752E-16,1.,0.));
#1227=DIRECTION('center_axis',(0.,0.,1.));
#1228=DIRECTION('ref_axis',(1.,0.,0.));
#1229=DIRECTION('',(1.,0.,0.));
#1230=DIRECTION('',(0.707106781186548,-0.707106781186547,0.));
#1231=DIRECTION('',(-1.,1.40238697847388E-15,0.));
#1232=DIRECTION('',(6.254777603522E-16,-1.,0.));
#1233=DIRECTION('',(0.707106781186547,-0.707106781186548,0.));
#1234=DIRECTION('',(1.,-9.57088814332031E-17,0.));
#1235=DIRECTION('',(0.707106781186547,0.707106781186548,0.));
#1236=DIRECTION('',(0.,1.,0.));
#1237=DIRECTION('',(-1.,0.,0.));
#1238=DIRECTION('',(0.707106781186548,0.707106781186547,0.));
#1239=DIRECTION('',(1.,0.,0.));
#1240=DIRECTION('center_axis',(0.,0.,1.));
#1241=DIRECTION('ref_axis',(1.,0.,0.));
#1242=DIRECTION('center_axis',(0.,0.,-1.));
#1243=DIRECTION('ref_axis',(-1.,0.,0.));
#1244=DIRECTION('',(0.,0.,-1.));
#1245=DIRECTION('',(0.,0.,-1.));
#1246=DIRECTION('center_axis',(0.,1.,0.));
#1247=DIRECTION('ref_axis',(0.,0.,1.));
#1248=DIRECTION('',(0.,0.,-1.));
#1249=DIRECTION('center_axis',(-0.707106781186547,0.707106781186548,0.));
#1250=DIRECTION('ref_axis',(0.,0.,1.));
#1251=DIRECTION('',(0.,0.,-1.));
#1252=DIRECTION('center_axis',(0.,-1.,0.));
#1253=DIRECTION('ref_axis',(0.,0.,-1.));
#1254=DIRECTION('',(0.,0.,-1.));
#1255=DIRECTION('center_axis',(-1.,0.,0.));
#1256=DIRECTION('ref_axis',(0.,0.,1.));
#1257=DIRECTION('',(0.,0.,-1.));
#1258=DIRECTION('center_axis',(-0.707106781186548,0.707106781186547,0.));
#1259=DIRECTION('ref_axis',(0.,0.,1.));
#1260=DIRECTION('',(0.,0.,-1.));
#1261=DIRECTION('center_axis',(1.4954512723938E-16,1.,0.));
#1262=DIRECTION('ref_axis',(0.,0.,1.));
#1263=DIRECTION('',(0.,0.,-1.));
#1264=DIRECTION('center_axis',(0.707106781186548,0.707106781186547,0.));
#1265=DIRECTION('ref_axis',(0.,0.,-1.));
#1266=DIRECTION('',(0.,0.,-1.));
#1267=DIRECTION('center_axis',(1.,9.77309000550312E-16,0.));
#1268=DIRECTION('ref_axis',(0.,0.,-1.));
#1269=DIRECTION('',(0.,0.,-1.));
#1270=DIRECTION('center_axis',(-1.46081976924362E-15,-1.,0.));
#1271=DIRECTION('ref_axis',(0.,0.,-1.));
#1272=DIRECTION('',(0.,0.,-1.));
#1273=DIRECTION('center_axis',(0.707106781186546,0.707106781186549,0.));
#1274=DIRECTION('ref_axis',(0.,0.,-1.));
#1275=DIRECTION('',(0.,0.,-1.));
#1276=DIRECTION('center_axis',(0.,1.,0.));
#1277=DIRECTION('ref_axis',(0.,0.,1.));
#1278=DIRECTION('',(0.,0.,-1.));
#1279=DIRECTION('center_axis',(0.,0.,-1.));
#1280=DIRECTION('ref_axis',(-1.,0.,0.));
#1281=DIRECTION('',(0.,0.,-1.));
#1282=DIRECTION('center_axis',(-1.,-4.6259292692715E-16,0.));
#1283=DIRECTION('ref_axis',(0.,0.,1.));
#1284=DIRECTION('',(0.,0.,-1.));
#1285=DIRECTION('center_axis',(-0.707106781186544,-0.707106781186551,0.));
#1286=DIRECTION('ref_axis',(0.,0.,1.));
#1287=DIRECTION('',(0.,0.,-1.));
#1288=DIRECTION('center_axis',(1.,7.30409884621818E-16,0.));
#1289=DIRECTION('ref_axis',(0.,0.,-1.));
#1290=DIRECTION('',(0.,0.,-1.));
#1291=DIRECTION('center_axis',(0.,-1.,0.));
#1292=DIRECTION('ref_axis',(0.,0.,-1.));
#1293=DIRECTION('',(0.,0.,-1.));
#1294=DIRECTION('center_axis',(-0.707106781186548,-0.707106781186547,0.));
#1295=DIRECTION('ref_axis',(0.,0.,1.));
#1296=DIRECTION('',(0.,0.,-1.));
#1297=DIRECTION('center_axis',(-1.,-2.9909025447876E-16,0.));
#1298=DIRECTION('ref_axis',(0.,0.,1.));
#1299=DIRECTION('',(0.,0.,-1.));
#1300=DIRECTION('center_axis',(-0.707106781186548,0.707106781186548,0.));
#1301=DIRECTION('ref_axis',(0.,0.,1.));
#1302=DIRECTION('',(0.,0.,-1.));
#1303=DIRECTION('center_axis',(4.88654500275159E-16,1.,0.));
#1304=DIRECTION('ref_axis',(0.,0.,1.));
#1305=DIRECTION('',(0.,0.,-1.));
#1306=DIRECTION('center_axis',(1.,9.4953285000835E-15,0.));
#1307=DIRECTION('ref_axis',(0.,0.,-1.));
#1308=DIRECTION('',(0.,0.,-1.));
#1309=DIRECTION('center_axis',(-0.707106781186554,0.707106781186541,0.));
#1310=DIRECTION('ref_axis',(0.,0.,1.));
#1311=DIRECTION('',(0.,0.,-1.));
#1312=DIRECTION('center_axis',(-1.,-4.6259292692715E-16,0.));
#1313=DIRECTION('ref_axis',(0.,0.,1.));
#1314=DIRECTION('',(0.,0.,-1.));
#1315=DIRECTION('center_axis',(0.,0.,-1.));
#1316=DIRECTION('ref_axis',(-1.,0.,0.));
#1317=DIRECTION('',(0.,0.,-1.));
#1318=DIRECTION('center_axis',(0.,-1.,0.));
#1319=DIRECTION('ref_axis',(0.,0.,-1.));
#1320=DIRECTION('',(0.,0.,-1.));
#1321=DIRECTION('center_axis',(0.707106781186543,-0.707106781186552,0.));
#1322=DIRECTION('ref_axis',(0.,0.,-1.));
#1323=DIRECTION('',(0.,0.,-1.));
#1324=DIRECTION('center_axis',(5.84327907697448E-15,1.,0.));
#1325=DIRECTION('ref_axis',(0.,0.,1.));
#1326=DIRECTION('',(0.,0.,-1.));
#1327=DIRECTION('center_axis',(1.,0.,0.));
#1328=DIRECTION('ref_axis',(0.,0.,-1.));
#1329=DIRECTION('',(0.,0.,-1.));
#1330=DIRECTION('center_axis',(0.707106781186548,-0.707106781186547,0.));
#1331=DIRECTION('ref_axis',(0.,0.,-1.));
#1332=DIRECTION('',(0.,0.,-1.));
#1333=DIRECTION('center_axis',(-1.4954512723938E-16,-1.,0.));
#1334=DIRECTION('ref_axis',(0.,0.,-1.));
#1335=DIRECTION('',(0.,0.,-1.));
#1336=DIRECTION('center_axis',(-0.707106781186547,-0.707106781186548,0.));
#1337=DIRECTION('ref_axis',(0.,0.,1.));
#1338=DIRECTION('',(0.,0.,-1.));
#1339=DIRECTION('center_axis',(-1.,0.,0.));
#1340=DIRECTION('ref_axis',(0.,0.,1.));
#1341=DIRECTION('',(0.,0.,-1.));
#1342=DIRECTION('center_axis',(0.,1.,0.));
#1343=DIRECTION('ref_axis',(0.,0.,1.));
#1344=DIRECTION('',(0.,0.,-1.));
#1345=DIRECTION('center_axis',(-0.707106781186549,-0.707106781186547,0.));
#1346=DIRECTION('ref_axis',(0.,0.,1.));
#1347=DIRECTION('',(0.,0.,-1.));
#1348=DIRECTION('center_axis',(0.,-1.,0.));
#1349=DIRECTION('ref_axis',(0.,0.,-1.));
#1350=DIRECTION('',(0.,0.,-1.));
#1351=DIRECTION('center_axis',(0.,0.,-1.));
#1352=DIRECTION('ref_axis',(-1.,0.,0.));
#1353=DIRECTION('',(0.,0.,-1.));
#1354=DIRECTION('center_axis',(1.,0.,0.));
#1355=DIRECTION('ref_axis',(0.,0.,-1.));
#1356=DIRECTION('',(0.,0.,-1.));
#1357=DIRECTION('center_axis',(0.707106781186547,0.707106781186548,0.));
#1358=DIRECTION('ref_axis',(0.,0.,-1.));
#1359=DIRECTION('',(0.,0.,-1.));
#1360=DIRECTION('center_axis',(-1.,0.,0.));
#1361=DIRECTION('ref_axis',(0.,0.,1.));
#1362=DIRECTION('',(0.,0.,-1.));
#1363=DIRECTION('center_axis',(0.,1.,0.));
#1364=DIRECTION('ref_axis',(0.,0.,1.));
#1365=DIRECTION('',(0.,0.,-1.));
#1366=DIRECTION('center_axis',(0.707106781186548,0.707106781186548,0.));
#1367=DIRECTION('ref_axis',(0.,0.,-1.));
#1368=DIRECTION('',(0.,0.,-1.));
#1369=DIRECTION('center_axis',(1.,1.4954512723938E-16,0.));
#1370=DIRECTION('ref_axis',(0.,0.,-1.));
#1371=DIRECTION('',(0.,0.,-1.));
#1372=DIRECTION('center_axis',(0.707106781186548,-0.707106781186547,0.));
#1373=DIRECTION('ref_axis',(0.,0.,-1.));
#1374=DIRECTION('',(0.,0.,-1.));
#1375=DIRECTION('center_axis',(4.39789050247645E-15,-1.,0.));
#1376=DIRECTION('ref_axis',(0.,0.,-1.));
#1377=DIRECTION('',(0.,0.,-1.));
#1378=DIRECTION('center_axis',(-1.,-3.65204942310902E-15,0.));
#1379=DIRECTION('ref_axis',(0.,0.,1.));
#1380=DIRECTION('',(0.,0.,-1.));
#1381=DIRECTION('center_axis',(0.70710678118655,-0.707106781186545,0.));
#1382=DIRECTION('ref_axis',(0.,0.,-1.));
#1383=DIRECTION('',(0.,0.,-1.));
#1384=DIRECTION('center_axis',(1.,0.,0.));
#1385=DIRECTION('ref_axis',(0.,0.,-1.));
#1386=DIRECTION('center_axis',(0.,0.,-1.));
#1387=DIRECTION('ref_axis',(-1.,0.,0.));
#1388=DIRECTION('',(0.,0.,-1.));
#1389=CARTESIAN_POINT('',(0.,0.,0.));
#1390=CARTESIAN_POINT('Origin',(-8.5,-8.5,50.));
#1391=CARTESIAN_POINT('',(-10.,-8.49999999999999,50.));
#1392=CARTESIAN_POINT('',(-8.49999999999999,-10.,50.));
#1393=CARTESIAN_POINT('Origin',(-8.5,-8.5,50.));
#1394=CARTESIAN_POINT('',(-4.75,-10.,50.));
#1395=CARTESIAN_POINT('',(-8.49999999999999,-10.,50.));
#1396=CARTESIAN_POINT('',(-2.85,-8.10000000000001,50.));
#1397=CARTESIAN_POINT('',(-4.75,-10.,50.));
#1398=CARTESIAN_POINT('',(-5.225,-8.10000000000001,50.));
#1399=CARTESIAN_POINT('',(-2.85,-8.10000000000001,50.));
#1400=CARTESIAN_POINT('',(-5.225,-6.32500000000001,50.));
#1401=CARTESIAN_POINT('',(-5.225,-8.10000000000001,50.));
#1402=CARTESIAN_POINT('',(-2.9,-4.,50.));
#1403=CARTESIAN_POINT('',(-5.225,-6.32500000000001,50.));
#1404=CARTESIAN_POINT('',(2.9,-4.,50.));
#1405=CARTESIAN_POINT('',(-2.9,-4.,50.));
#1406=CARTESIAN_POINT('',(5.225,-6.325,50.));
#1407=CARTESIAN_POINT('',(2.9,-4.,50.));
#1408=CARTESIAN_POINT('',(5.225,-8.10000000000001,50.));
#1409=CARTESIAN_POINT('',(5.225,-6.325,50.));
#1410=CARTESIAN_POINT('',(2.84999999999999,-8.1,50.));
#1411=CARTESIAN_POINT('',(5.225,-8.10000000000001,50.));
#1412=CARTESIAN_POINT('',(4.75,-10.,50.));
#1413=CARTESIAN_POINT('',(2.84999999999999,-8.1,50.));
#1414=CARTESIAN_POINT('',(8.49999999999999,-10.,50.));
#1415=CARTESIAN_POINT('',(4.75,-10.,50.));
#1416=CARTESIAN_POINT('',(10.,-8.49999999999999,50.));
#1417=CARTESIAN_POINT('Origin',(8.5,-8.5,50.));
#1418=CARTESIAN_POINT('',(10.,-4.75,50.));
#1419=CARTESIAN_POINT('',(10.,-8.49999999999999,50.));
#1420=CARTESIAN_POINT('',(8.1,-2.85000000000002,50.));
#1421=CARTESIAN_POINT('',(10.,-4.75,50.));
#1422=CARTESIAN_POINT('',(8.1,-5.22500000000001,50.));
#1423=CARTESIAN_POINT('',(8.1,-2.85000000000002,50.));
#1424=CARTESIAN_POINT('',(6.325,-5.22500000000001,50.));
#1425=CARTESIAN_POINT('',(8.1,-5.22500000000001,50.));
#1426=CARTESIAN_POINT('',(4.,-2.9,50.));
#1427=CARTESIAN_POINT('',(6.325,-5.22500000000001,50.));
#1428=CARTESIAN_POINT('',(4.,2.9,50.));
#1429=CARTESIAN_POINT('',(4.,-2.9,50.));
#1430=CARTESIAN_POINT('',(6.32499999999999,5.22499999999999,50.));
#1431=CARTESIAN_POINT('',(4.,2.9,50.));
#1432=CARTESIAN_POINT('',(8.09999999999998,5.22499999999999,50.));
#1433=CARTESIAN_POINT('',(6.32499999999999,5.22499999999999,50.));
#1434=CARTESIAN_POINT('',(8.10000000000001,2.84999999999997,50.));
#1435=CARTESIAN_POINT('',(8.09999999999998,5.22499999999999,50.));
#1436=CARTESIAN_POINT('',(10.,4.75,50.));
#1437=CARTESIAN_POINT('',(8.10000000000001,2.84999999999997,50.));
#1438=CARTESIAN_POINT('',(10.,8.49999999999999,50.));
#1439=CARTESIAN_POINT('',(10.,4.75,50.));
#1440=CARTESIAN_POINT('',(8.49999999999999,10.,50.));
#1441=CARTESIAN_POINT('Origin',(8.5,8.5,50.));
#1442=CARTESIAN_POINT('',(4.75,10.,50.));
#1443=CARTESIAN_POINT('',(8.49999999999999,10.,50.));
#1444=CARTESIAN_POINT('',(2.84999999999998,8.1,50.));
#1445=CARTESIAN_POINT('',(4.75,10.,50.));
#1446=CARTESIAN_POINT('',(5.22499999999999,8.09999999999998,50.));
#1447=CARTESIAN_POINT('',(2.84999999999998,8.1,50.));
#1448=CARTESIAN_POINT('',(5.22499999999999,6.32499999999999,50.));
#1449=CARTESIAN_POINT('',(5.22499999999999,8.09999999999998,50.));
#1450=CARTESIAN_POINT('',(2.9,4.,50.));
#1451=CARTESIAN_POINT('',(5.22499999999999,6.32499999999999,50.));
#1452=CARTESIAN_POINT('',(-2.9,4.,50.));
#1453=CARTESIAN_POINT('',(2.9,4.,50.));
#1454=CARTESIAN_POINT('',(-5.225,6.325,50.));
#1455=CARTESIAN_POINT('',(-2.9,4.,50.));
#1456=CARTESIAN_POINT('',(-5.225,8.09999999999999,50.));
#1457=CARTESIAN_POINT('',(-5.225,6.325,50.));
#1458=CARTESIAN_POINT('',(-2.85,8.09999999999999,50.));
#1459=CARTESIAN_POINT('',(-5.225,8.09999999999999,50.));
#1460=CARTESIAN_POINT('',(-4.75,10.,50.));
#1461=CARTESIAN_POINT('',(-2.85,8.09999999999999,50.));
#1462=CARTESIAN_POINT('',(-8.49999999999999,10.,50.));
#1463=CARTESIAN_POINT('',(-4.75,10.,50.));
#1464=CARTESIAN_POINT('',(-10.,8.49999999999999,50.));
#1465=CARTESIAN_POINT('Origin',(-8.5,8.5,50.));
#1466=CARTESIAN_POINT('',(-10.,4.75,50.));
#1467=CARTESIAN_POINT('',(-10.,8.49999999999999,50.));
#1468=CARTESIAN_POINT('',(-8.1,2.85,50.));
#1469=CARTESIAN_POINT('',(-10.,4.75,50.));
#1470=CARTESIAN_POINT('',(-8.1,5.22499999999999,50.));
#1471=CARTESIAN_POINT('',(-8.1,2.85,50.));
#1472=CARTESIAN_POINT('',(-6.325,5.22499999999999,50.));
#1473=CARTESIAN_POINT('',(-8.1,5.22499999999999,50.));
#1474=CARTESIAN_POINT('',(-4.,2.89999999999999,50.));
#1475=CARTESIAN_POINT('',(-6.325,5.22499999999999,50.));
#1476=CARTESIAN_POINT('',(-4.,-2.9,50.));
#1477=CARTESIAN_POINT('',(-4.,2.89999999999999,50.));
#1478=CARTESIAN_POINT('',(-6.325,-5.225,50.));
#1479=CARTESIAN_POINT('',(-4.,-2.9,50.));
#1480=CARTESIAN_POINT('',(-8.09999999999998,-5.22500000000001,50.));
#1481=CARTESIAN_POINT('',(-6.325,-5.225,50.));
#1482=CARTESIAN_POINT('',(-8.09999999999999,-2.84999999999998,50.));
#1483=CARTESIAN_POINT('',(-8.09999999999998,-5.22500000000001,50.));
#1484=CARTESIAN_POINT('',(-10.,-4.75,50.));
#1485=CARTESIAN_POINT('',(-8.09999999999999,-2.84999999999998,50.));
#1486=CARTESIAN_POINT('',(-10.,-4.75,50.));
#1487=CARTESIAN_POINT('',(2.125,0.,50.));
#1488=CARTESIAN_POINT('Origin',(0.,0.,50.));
#1489=CARTESIAN_POINT('Origin',(-8.5,-8.5,-127.));
#1490=CARTESIAN_POINT('',(-10.,-8.49999999999999,-127.));
#1491=CARTESIAN_POINT('',(-8.49999999999999,-10.,-127.));
#1492=CARTESIAN_POINT('Origin',(-8.5,-8.5,-127.));
#1493=CARTESIAN_POINT('',(-10.,-4.75,-127.));
#1494=CARTESIAN_POINT('',(-10.,-4.75,-127.));
#1495=CARTESIAN_POINT('',(-8.09999999999999,-2.84999999999998,-127.));
#1496=CARTESIAN_POINT('',(-8.09999999999999,-2.84999999999998,-127.));
#1497=CARTESIAN_POINT('',(-8.09999999999998,-5.22500000000001,-127.));
#1498=CARTESIAN_POINT('',(-8.09999999999998,-5.22500000000001,-127.));
#1499=CARTESIAN_POINT('',(-6.325,-5.225,-127.));
#1500=CARTESIAN_POINT('',(-6.325,-5.225,-127.));
#1501=CARTESIAN_POINT('',(-4.,-2.9,-127.));
#1502=CARTESIAN_POINT('',(-4.,-2.9,-127.));
#1503=CARTESIAN_POINT('',(-4.,2.89999999999999,-127.));
#1504=CARTESIAN_POINT('',(-4.,2.89999999999999,-127.));
#1505=CARTESIAN_POINT('',(-6.325,5.22499999999999,-127.));
#1506=CARTESIAN_POINT('',(-6.325,5.22499999999999,-127.));
#1507=CARTESIAN_POINT('',(-8.1,5.22499999999999,-127.));
#1508=CARTESIAN_POINT('',(-8.1,5.22499999999999,-127.));
#1509=CARTESIAN_POINT('',(-8.1,2.85,-127.));
#1510=CARTESIAN_POINT('',(-8.1,2.85,-127.));
#1511=CARTESIAN_POINT('',(-10.,4.75,-127.));
#1512=CARTESIAN_POINT('',(-10.,4.75,-127.));
#1513=CARTESIAN_POINT('',(-10.,8.49999999999999,-127.));
#1514=CARTESIAN_POINT('',(-10.,8.49999999999999,-127.));
#1515=CARTESIAN_POINT('',(-8.49999999999999,10.,-127.));
#1516=CARTESIAN_POINT('Origin',(-8.5,8.5,-127.));
#1517=CARTESIAN_POINT('',(-4.75,10.,-127.));
#1518=CARTESIAN_POINT('',(-4.75,10.,-127.));
#1519=CARTESIAN_POINT('',(-2.85,8.09999999999999,-127.));
#1520=CARTESIAN_POINT('',(-2.85,8.09999999999999,-127.));
#1521=CARTESIAN_POINT('',(-5.225,8.09999999999999,-127.));
#1522=CARTESIAN_POINT('',(-5.225,8.09999999999999,-127.));
#1523=CARTESIAN_POINT('',(-5.225,6.325,-127.));
#1524=CARTESIAN_POINT('',(-5.225,6.325,-127.));
#1525=CARTESIAN_POINT('',(-2.9,4.,-127.));
#1526=CARTESIAN_POINT('',(-2.9,4.,-127.));
#1527=CARTESIAN_POINT('',(2.9,4.,-127.));
#1528=CARTESIAN_POINT('',(2.9,4.,-127.));
#1529=CARTESIAN_POINT('',(5.22499999999999,6.32499999999999,-127.));
#1530=CARTESIAN_POINT('',(5.22499999999999,6.32499999999999,-127.));
#1531=CARTESIAN_POINT('',(5.22499999999999,8.09999999999998,-127.));
#1532=CARTESIAN_POINT('',(5.22499999999999,8.09999999999998,-127.));
#1533=CARTESIAN_POINT('',(2.84999999999998,8.1,-127.));
#1534=CARTESIAN_POINT('',(2.84999999999998,8.1,-127.));
#1535=CARTESIAN_POINT('',(4.75,10.,-127.));
#1536=CARTESIAN_POINT('',(4.75,10.,-127.));
#1537=CARTESIAN_POINT('',(8.49999999999999,10.,-127.));
#1538=CARTESIAN_POINT('',(8.49999999999999,10.,-127.));
#1539=CARTESIAN_POINT('',(10.,8.49999999999999,-127.));
#1540=CARTESIAN_POINT('Origin',(8.5,8.5,-127.));
#1541=CARTESIAN_POINT('',(10.,4.75,-127.));
#1542=CARTESIAN_POINT('',(10.,4.75,-127.));
#1543=CARTESIAN_POINT('',(8.10000000000001,2.84999999999997,-127.));
#1544=CARTESIAN_POINT('',(8.10000000000001,2.84999999999997,-127.));
#1545=CARTESIAN_POINT('',(8.09999999999998,5.22499999999999,-127.));
#1546=CARTESIAN_POINT('',(8.09999999999998,5.22499999999999,-127.));
#1547=CARTESIAN_POINT('',(6.32499999999999,5.22499999999999,-127.));
#1548=CARTESIAN_POINT('',(6.32499999999999,5.22499999999999,-127.));
#1549=CARTESIAN_POINT('',(4.,2.9,-127.));
#1550=CARTESIAN_POINT('',(4.,2.9,-127.));
#1551=CARTESIAN_POINT('',(4.,-2.9,-127.));
#1552=CARTESIAN_POINT('',(4.,-2.9,-127.));
#1553=CARTESIAN_POINT('',(6.325,-5.22500000000001,-127.));
#1554=CARTESIAN_POINT('',(6.325,-5.22500000000001,-127.));
#1555=CARTESIAN_POINT('',(8.1,-5.22500000000001,-127.));
#1556=CARTESIAN_POINT('',(8.1,-5.22500000000001,-127.));
#1557=CARTESIAN_POINT('',(8.1,-2.85000000000002,-127.));
#1558=CARTESIAN_POINT('',(8.1,-2.85000000000002,-127.));
#1559=CARTESIAN_POINT('',(10.,-4.75,-127.));
#1560=CARTESIAN_POINT('',(10.,-4.75,-127.));
#1561=CARTESIAN_POINT('',(10.,-8.49999999999999,-127.));
#1562=CARTESIAN_POINT('',(10.,-8.49999999999999,-127.));
#1563=CARTESIAN_POINT('',(8.49999999999999,-10.,-127.));
#1564=CARTESIAN_POINT('Origin',(8.5,-8.5,-127.));
#1565=CARTESIAN_POINT('',(4.75,-10.,-127.));
#1566=CARTESIAN_POINT('',(4.75,-10.,-127.));
#1567=CARTESIAN_POINT('',(2.84999999999999,-8.1,-127.));
#1568=CARTESIAN_POINT('',(2.84999999999999,-8.1,-127.));
#1569=CARTESIAN_POINT('',(5.225,-8.10000000000001,-127.));
#1570=CARTESIAN_POINT('',(5.225,-8.10000000000001,-127.));
#1571=CARTESIAN_POINT('',(5.225,-6.325,-127.));
#1572=CARTESIAN_POINT('',(5.225,-6.325,-127.));
#1573=CARTESIAN_POINT('',(2.9,-4.,-127.));
#1574=CARTESIAN_POINT('',(2.9,-4.,-127.));
#1575=CARTESIAN_POINT('',(-2.9,-4.,-127.));
#1576=CARTESIAN_POINT('',(-2.9,-4.,-127.));
#1577=CARTESIAN_POINT('',(-5.225,-6.32500000000001,-127.));
#1578=CARTESIAN_POINT('',(-5.225,-6.32500000000001,-127.));
#1579=CARTESIAN_POINT('',(-5.225,-8.10000000000001,-127.));
#1580=CARTESIAN_POINT('',(-5.225,-8.10000000000001,-127.));
#1581=CARTESIAN_POINT('',(-2.85,-8.10000000000001,-127.));
#1582=CARTESIAN_POINT('',(-2.85,-8.10000000000001,-127.));
#1583=CARTESIAN_POINT('',(-4.75,-10.,-127.));
#1584=CARTESIAN_POINT('',(-4.75,-10.,-127.));
#1585=CARTESIAN_POINT('',(-8.49999999999999,-10.,-127.));
#1586=CARTESIAN_POINT('',(2.125,0.,-127.));
#1587=CARTESIAN_POINT('Origin',(0.,0.,-127.));
#1588=CARTESIAN_POINT('Origin',(-8.5,-8.5,50.));
#1589=CARTESIAN_POINT('',(-8.49999999999999,-10.,50.));
#1590=CARTESIAN_POINT('',(-10.,-8.49999999999999,50.));
#1591=CARTESIAN_POINT('Origin',(-8.49999999999999,-10.,50.));
#1592=CARTESIAN_POINT('',(-4.75,-10.,50.));
#1593=CARTESIAN_POINT('Origin',(-4.75,-10.,50.));
#1594=CARTESIAN_POINT('',(-2.85,-8.10000000000001,50.));
#1595=CARTESIAN_POINT('Origin',(-5.225,-8.10000000000001,50.));
#1596=CARTESIAN_POINT('',(-5.225,-8.10000000000001,50.));
#1597=CARTESIAN_POINT('Origin',(-5.225,-6.32500000000001,50.));
#1598=CARTESIAN_POINT('',(-5.225,-6.32500000000001,50.));
#1599=CARTESIAN_POINT('Origin',(-2.9,-4.,50.));
#1600=CARTESIAN_POINT('',(-2.9,-4.,50.));
#1601=CARTESIAN_POINT('Origin',(-2.9,-4.,50.));
#1602=CARTESIAN_POINT('',(2.9,-4.,50.));
#1603=CARTESIAN_POINT('Origin',(2.9,-4.,50.));
#1604=CARTESIAN_POINT('',(5.225,-6.325,50.));
#1605=CARTESIAN_POINT('Origin',(5.225,-6.325,50.));
#1606=CARTESIAN_POINT('',(5.225,-8.10000000000001,50.));
#1607=CARTESIAN_POINT('Origin',(2.84999999999999,-8.1,50.));
#1608=CARTESIAN_POINT('',(2.84999999999999,-8.1,50.));
#1609=CARTESIAN_POINT('Origin',(4.75,-10.,50.));
#1610=CARTESIAN_POINT('',(4.75,-10.,50.));
#1611=CARTESIAN_POINT('Origin',(4.75,-10.,50.));
#1612=CARTESIAN_POINT('',(8.49999999999999,-10.,50.));
#1613=CARTESIAN_POINT('Origin',(8.5,-8.5,50.));
#1614=CARTESIAN_POINT('',(10.,-8.49999999999999,50.));
#1615=CARTESIAN_POINT('Origin',(10.,-4.75,50.));
#1616=CARTESIAN_POINT('',(10.,-4.75,50.));
#1617=CARTESIAN_POINT('Origin',(10.,-4.75,50.));
#1618=CARTESIAN_POINT('',(8.1,-2.85000000000002,50.));
#1619=CARTESIAN_POINT('Origin',(8.1,-2.85000000000002,50.));
#1620=CARTESIAN_POINT('',(8.1,-5.22500000000001,50.));
#1621=CARTESIAN_POINT('Origin',(6.325,-5.22500000000001,50.));
#1622=CARTESIAN_POINT('',(6.325,-5.22500000000001,50.));
#1623=CARTESIAN_POINT('Origin',(4.,-2.9,50.));
#1624=CARTESIAN_POINT('',(4.,-2.9,50.));
#1625=CARTESIAN_POINT('Origin',(4.,2.9,50.));
#1626=CARTESIAN_POINT('',(4.,2.9,50.));
#1627=CARTESIAN_POINT('Origin',(6.32499999999999,5.22499999999999,50.));
#1628=CARTESIAN_POINT('',(6.32499999999999,5.22499999999999,50.));
#1629=CARTESIAN_POINT('Origin',(8.09999999999998,5.22499999999999,50.));
#1630=CARTESIAN_POINT('',(8.09999999999998,5.22499999999999,50.));
#1631=CARTESIAN_POINT('Origin',(8.09999999999998,5.22499999999999,50.));
#1632=CARTESIAN_POINT('',(8.10000000000001,2.84999999999997,50.));
#1633=CARTESIAN_POINT('Origin',(10.,4.75,50.));
#1634=CARTESIAN_POINT('',(10.,4.75,50.));
#1635=CARTESIAN_POINT('Origin',(10.,8.49999999999999,50.));
#1636=CARTESIAN_POINT('',(10.,8.49999999999999,50.));
#1637=CARTESIAN_POINT('Origin',(8.5,8.5,50.));
#1638=CARTESIAN_POINT('',(8.49999999999999,10.,50.));
#1639=CARTESIAN_POINT('Origin',(4.75,10.,50.));
#1640=CARTESIAN_POINT('',(4.75,10.,50.));
#1641=CARTESIAN_POINT('Origin',(4.75,10.,50.));
#1642=CARTESIAN_POINT('',(2.84999999999998,8.1,50.));
#1643=CARTESIAN_POINT('Origin',(2.84999999999998,8.1,50.));
#1644=CARTESIAN_POINT('',(5.22499999999999,8.09999999999998,50.));
#1645=CARTESIAN_POINT('Origin',(5.22499999999999,8.09999999999998,50.));
#1646=CARTESIAN_POINT('',(5.22499999999999,6.32499999999999,50.));
#1647=CARTESIAN_POINT('Origin',(5.22499999999999,6.32499999999999,50.));
#1648=CARTESIAN_POINT('',(2.9,4.,50.));
#1649=CARTESIAN_POINT('Origin',(-2.9,4.,50.));
#1650=CARTESIAN_POINT('',(-2.9,4.,50.));
#1651=CARTESIAN_POINT('Origin',(-5.225,6.325,50.));
#1652=CARTESIAN_POINT('',(-5.225,6.325,50.));
#1653=CARTESIAN_POINT('Origin',(-5.225,8.09999999999999,50.));
#1654=CARTESIAN_POINT('',(-5.225,8.09999999999999,50.));
#1655=CARTESIAN_POINT('Origin',(-5.225,8.09999999999999,50.));
#1656=CARTESIAN_POINT('',(-2.85,8.09999999999999,50.));
#1657=CARTESIAN_POINT('Origin',(-4.75,10.,50.));
#1658=CARTESIAN_POINT('',(-4.75,10.,50.));
#1659=CARTESIAN_POINT('Origin',(-8.49999999999999,10.,50.));
#1660=CARTESIAN_POINT('',(-8.49999999999999,10.,50.));
#1661=CARTESIAN_POINT('Origin',(-8.5,8.5,50.));
#1662=CARTESIAN_POINT('',(-10.,8.49999999999999,50.));
#1663=CARTESIAN_POINT('Origin',(-10.,8.49999999999999,50.));
#1664=CARTESIAN_POINT('',(-10.,4.75,50.));
#1665=CARTESIAN_POINT('Origin',(-10.,4.75,50.));
#1666=CARTESIAN_POINT('',(-8.1,2.85,50.));
#1667=CARTESIAN_POINT('Origin',(-8.1,5.22499999999999,50.));
#1668=CARTESIAN_POINT('',(-8.1,5.22499999999999,50.));
#1669=CARTESIAN_POINT('Origin',(-8.1,5.22499999999999,50.));
#1670=CARTESIAN_POINT('',(-6.325,5.22499999999999,50.));
#1671=CARTESIAN_POINT('Origin',(-6.325,5.22499999999999,50.));
#1672=CARTESIAN_POINT('',(-4.,2.89999999999999,50.));
#1673=CARTESIAN_POINT('Origin',(-4.,2.89999999999999,50.));
#1674=CARTESIAN_POINT('',(-4.,-2.9,50.));
#1675=CARTESIAN_POINT('Origin',(-4.,-2.9,50.));
#1676=CARTESIAN_POINT('',(-6.325,-5.225,50.));
#1677=CARTESIAN_POINT('Origin',(-8.09999999999998,-5.22500000000001,50.));
#1678=CARTESIAN_POINT('',(-8.09999999999998,-5.22500000000001,50.));
#1679=CARTESIAN_POINT('Origin',(-8.09999999999999,-2.84999999999998,50.));
#1680=CARTESIAN_POINT('',(-8.09999999999999,-2.84999999999998,50.));
#1681=CARTESIAN_POINT('Origin',(-10.,-4.75,50.));
#1682=CARTESIAN_POINT('',(-10.,-4.75,50.));
#1683=CARTESIAN_POINT('Origin',(-10.,-4.75,50.));
#1684=CARTESIAN_POINT('Origin',(0.,0.,50.));
#1685=CARTESIAN_POINT('',(2.125,-2.60237444818813E-16,50.));
#1686=UNCERTAINTY_MEASURE_WITH_UNIT(LENGTH_MEASURE(0.01),#1690,
'DISTANCE_ACCURACY_VALUE',
'Maximum model space distance between geometric entities at asserted c
onnectivities');
#1687=UNCERTAINTY_MEASURE_WITH_UNIT(LENGTH_MEASURE(0.01),#1690,
'DISTANCE_ACCURACY_VALUE',
'Maximum model space distance between geometric entities at asserted c
onnectivities');
#1688=(
GEOMETRIC_REPRESENTATION_CONTEXT(3)
GLOBAL_UNCERTAINTY_ASSIGNED_CONTEXT((#1686))
GLOBAL_UNIT_ASSIGNED_CONTEXT((#1690,#1692,#1693))
REPRESENTATION_CONTEXT('','3D')
);
#1689=(
GEOMETRIC_REPRESENTATION_CONTEXT(3)
GLOBAL_UNCERTAINTY_ASSIGNED_CONTEXT((#1687))
GLOBAL_UNIT_ASSIGNED_CONTEXT((#1690,#1692,#1693))
REPRESENTATION_CONTEXT('','3D')
);
#1690=(
LENGTH_UNIT()
NAMED_UNIT(*)
SI_UNIT(.MILLI.,.METRE.)
);
#1691=(
LENGTH_UNIT()
NAMED_UNIT(*)
SI_UNIT(.CENTI.,.METRE.)
);
#1692=(
NAMED_UNIT(*)
PLANE_ANGLE_UNIT()
SI_UNIT($,.RADIAN.)
);
#1693=(
NAMED_UNIT(*)
SI_UNIT($,.STERADIAN.)
SOLID_ANGLE_UNIT()
);
#1694=SHAPE_DEFINITION_REPRESENTATION(#1695,#1696);
#1695=PRODUCT_DEFINITION_SHAPE('',$,#1698);
#1696=SHAPE_REPRESENTATION('',(#1066),#1688);
#1697=PRODUCT_DEFINITION_CONTEXT('part definition',#1702,'design');
#1698=PRODUCT_DEFINITION('20x20mm V-Slot','20x20mm V-Slot',#1699,#1697);
#1699=PRODUCT_DEFINITION_FORMATION('',$,#1704);
#1700=PRODUCT_RELATED_PRODUCT_CATEGORY('20x20mm V-Slot',
'20x20mm V-Slot',(#1704));
#1701=APPLICATION_PROTOCOL_DEFINITION('international standard',
'automotive_design',2009,#1702);
#1702=APPLICATION_CONTEXT(
'Core Data for Automotive Mechanical Design Process');
#1703=PRODUCT_CONTEXT('part definition',#1702,'mechanical');
#1704=PRODUCT('20x20mm V-Slot','20x20mm V-Slot',$,(#1703));
#1705=PRESENTATION_STYLE_ASSIGNMENT((#1707));
#1706=PRESENTATION_STYLE_ASSIGNMENT((#1708));
#1707=SURFACE_STYLE_USAGE(.BOTH.,#1713);
#1708=SURFACE_STYLE_USAGE(.BOTH.,#1714);
#1709=SURFACE_STYLE_RENDERING_WITH_PROPERTIES($,#1721,(#1711));
#1710=SURFACE_STYLE_RENDERING_WITH_PROPERTIES($,#1722,(#1712));
#1711=SURFACE_STYLE_TRANSPARENT(0.);
#1712=SURFACE_STYLE_TRANSPARENT(0.);
#1713=SURFACE_SIDE_STYLE('',(#1715,#1709));
#1714=SURFACE_SIDE_STYLE('',(#1716,#1710));
#1715=SURFACE_STYLE_FILL_AREA(#1717);
#1716=SURFACE_STYLE_FILL_AREA(#1718);
#1717=FILL_AREA_STYLE('',(#1719));
#1718=FILL_AREA_STYLE('',(#1720));
#1719=FILL_AREA_STYLE_COLOUR('',#1721);
#1720=FILL_AREA_STYLE_COLOUR('',#1722);
#1721=COLOUR_RGB('',0.996078431372549,0.996078431372549,1.);
#1722=COLOUR_RGB('',0.866666666666667,0.909803921568627,1.);
ENDSEC;
END-ISO-10303-21;
