ISO-10303-21;
HEADER;
/* Generated by software containing ST-Developer
 * from STEP Tools, Inc. (www.steptools.com) 
 */

FILE_DESCRIPTION(
/* description */ (''),
/* implementation_level */ '2;1');

FILE_NAME(
/* name */ 
'I:\\ASU_FOE\\graduation project\\quadcopter\\matlab xml\\231123\\\\9.
 Fan_ipt_4f385e48.STEP',
/* time_stamp */ '2023-11-23T19:53:35+02:00',
/* author */ ('M'),
/* organization */ (''),
/* preprocessor_version */ 'ST-DEVELOPER v18.1',
/* originating_system */ 'Autodesk Inventor 2021',
/* authorisation */ '');

FILE_SCHEMA (('AUTOMOTIVE_DESIGN { 1 0 10303 214 3 1 1 }'));
ENDSEC;

DATA;
#10=MECHANICAL_DESIGN_GEOMETRIC_PRESENTATION_REPRESENTATION('',(#13),#726);
#11=SHAPE_REPRESENTATION_RELATIONSHIP('SRR','None',#733,#12);
#12=ADVANCED_BREP_SHAPE_REPRESENTATION('',(#14),#725);
#13=STYLED_ITEM('',(#742),#14);
#14=MANIFOLD_SOLID_BREP('Solid1',#397);
#15=CONICAL_SURFACE('',#458,3.925,0.785398163397444);
#16=CONICAL_SURFACE('',#459,5.495,0.785398163397446);
#17=B_SPLINE_SURFACE_WITH_KNOTS('',3,1,((#615,#616),(#617,#618),(#619,#620),
(#621,#622)),.UNSPECIFIED.,.F.,.F.,.F.,(4,4),(2,2),(0.0128666434548744,
1.),(0.,0.0360000000000971),.UNSPECIFIED.);
#18=B_SPLINE_SURFACE_WITH_KNOTS('',3,1,((#663,#664),(#665,#666),(#667,#668),
(#669,#670)),.UNSPECIFIED.,.F.,.F.,.F.,(4,4),(2,2),(0.0128666434548744,
1.),(0.,0.0360000000000971),.UNSPECIFIED.);
#19=PLANE('',#428);
#20=PLANE('',#430);
#21=PLANE('',#435);
#22=PLANE('',#439);
#23=PLANE('',#440);
#24=PLANE('',#441);
#25=PLANE('',#442);
#26=PLANE('',#446);
#27=PLANE('',#450);
#28=PLANE('',#451);
#29=PLANE('',#452);
#30=PLANE('',#453);
#31=FACE_BOUND('',#57,.T.);
#32=FACE_BOUND('',#59,.T.);
#33=FACE_BOUND('',#61,.T.);
#34=FACE_OUTER_BOUND('',#56,.T.);
#35=FACE_OUTER_BOUND('',#58,.T.);
#36=FACE_OUTER_BOUND('',#60,.T.);
#37=FACE_OUTER_BOUND('',#62,.T.);
#38=FACE_OUTER_BOUND('',#63,.T.);
#39=FACE_OUTER_BOUND('',#64,.T.);
#40=FACE_OUTER_BOUND('',#65,.T.);
#41=FACE_OUTER_BOUND('',#66,.T.);
#42=FACE_OUTER_BOUND('',#67,.T.);
#43=FACE_OUTER_BOUND('',#68,.T.);
#44=FACE_OUTER_BOUND('',#69,.T.);
#45=FACE_OUTER_BOUND('',#70,.T.);
#46=FACE_OUTER_BOUND('',#71,.T.);
#47=FACE_OUTER_BOUND('',#72,.T.);
#48=FACE_OUTER_BOUND('',#73,.T.);
#49=FACE_OUTER_BOUND('',#74,.T.);
#50=FACE_OUTER_BOUND('',#75,.T.);
#51=FACE_OUTER_BOUND('',#76,.T.);
#52=FACE_OUTER_BOUND('',#77,.T.);
#53=FACE_OUTER_BOUND('',#78,.T.);
#54=FACE_OUTER_BOUND('',#79,.T.);
#55=FACE_OUTER_BOUND('',#80,.T.);
#56=EDGE_LOOP('',(#257,#258,#259,#260,#261,#262,#263,#264,#265,#266,#267,
#268));
#57=EDGE_LOOP('',(#269,#270,#271,#272));
#58=EDGE_LOOP('',(#273));
#59=EDGE_LOOP('',(#274));
#60=EDGE_LOOP('',(#275));
#61=EDGE_LOOP('',(#276));
#62=EDGE_LOOP('',(#277,#278,#279,#280));
#63=EDGE_LOOP('',(#281,#282,#283,#284));
#64=EDGE_LOOP('',(#285,#286,#287,#288));
#65=EDGE_LOOP('',(#289,#290,#291,#292));
#66=EDGE_LOOP('',(#293,#294,#295,#296));
#67=EDGE_LOOP('',(#297,#298,#299,#300));
#68=EDGE_LOOP('',(#301,#302,#303,#304,#305,#306,#307,#308));
#69=EDGE_LOOP('',(#309,#310,#311,#312,#313,#314,#315,#316));
#70=EDGE_LOOP('',(#317,#318,#319,#320));
#71=EDGE_LOOP('',(#321,#322,#323,#324));
#72=EDGE_LOOP('',(#325,#326,#327,#328));
#73=EDGE_LOOP('',(#329,#330,#331,#332));
#74=EDGE_LOOP('',(#333,#334,#335,#336));
#75=EDGE_LOOP('',(#337,#338,#339,#340));
#76=EDGE_LOOP('',(#341,#342,#343,#344,#345,#346,#347));
#77=EDGE_LOOP('',(#348,#349,#350,#351,#352,#353,#354));
#78=EDGE_LOOP('',(#355,#356,#357,#358,#359));
#79=EDGE_LOOP('',(#360,#361,#362,#363));
#80=EDGE_LOOP('',(#364,#365,#366,#367,#368));
#81=B_SPLINE_CURVE_WITH_KNOTS('',3,(#593,#594,#595,#596),.UNSPECIFIED.,
 .F.,.F.,(4,4),(0.,0.00031047692236986),.UNSPECIFIED.);
#82=B_SPLINE_CURVE_WITH_KNOTS('',3,(#600,#601,#602,#603),.UNSPECIFIED.,
 .F.,.F.,(4,4),(0.,0.00031047692236986),.UNSPECIFIED.);
#83=B_SPLINE_CURVE_WITH_KNOTS('',3,(#624,#625,#626,#627),.UNSPECIFIED.,
 .F.,.F.,(4,4),(0.0201082316663079,1.),.UNSPECIFIED.);
#84=B_SPLINE_CURVE_WITH_KNOTS('',3,(#629,#630,#631,#632),.UNSPECIFIED.,
 .F.,.F.,(4,4),(0.0187541187424199,1.),.UNSPECIFIED.);
#85=B_SPLINE_CURVE_WITH_KNOTS('',3,(#672,#673,#674,#675),.UNSPECIFIED.,
 .F.,.F.,(4,4),(0.0201082316663079,1.),.UNSPECIFIED.);
#86=B_SPLINE_CURVE_WITH_KNOTS('',3,(#677,#678,#679,#680),.UNSPECIFIED.,
 .F.,.F.,(4,4),(0.0187541187424199,1.),.UNSPECIFIED.);
#87=ELLIPSE('',#419,9.26496033310484,9.0275);
#88=ELLIPSE('',#420,49.2804321913624,9.0275);
#89=ELLIPSE('',#421,9.26496033310484,9.0275);
#90=ELLIPSE('',#423,9.26496033310484,9.0275);
#91=ELLIPSE('',#424,9.26496033310484,9.0275);
#92=ELLIPSE('',#425,9.26496033310484,9.0275);
#93=ELLIPSE('',#426,49.2804321913624,9.0275);
#94=ELLIPSE('',#427,9.26496033310484,9.0275);
#95=LINE('',#580,#122);
#96=LINE('',#588,#123);
#97=LINE('',#633,#124);
#98=LINE('',#638,#125);
#99=LINE('',#642,#126);
#100=LINE('',#644,#127);
#101=LINE('',#645,#128);
#102=LINE('',#650,#129);
#103=LINE('',#654,#130);
#104=LINE('',#656,#131);
#105=LINE('',#657,#132);
#106=LINE('',#659,#133);
#107=LINE('',#660,#134);
#108=LINE('',#681,#135);
#109=LINE('',#686,#136);
#110=LINE('',#690,#137);
#111=LINE('',#692,#138);
#112=LINE('',#693,#139);
#113=LINE('',#698,#140);
#114=LINE('',#702,#141);
#115=LINE('',#704,#142);
#116=LINE('',#705,#143);
#117=LINE('',#707,#144);
#118=LINE('',#708,#145);
#119=LINE('',#717,#146);
#120=LINE('',#720,#147);
#121=LINE('',#722,#148);
#122=VECTOR('',#466,9.0275);
#123=VECTOR('',#473,9.0275);
#124=VECTOR('',#494,0.471);
#125=VECTOR('',#499,0.471);
#126=VECTOR('',#504,0.90710186925503);
#127=VECTOR('',#505,0.471);
#128=VECTOR('',#506,0.90710186925503);
#129=VECTOR('',#511,0.471);
#130=VECTOR('',#516,84.9873439368374);
#131=VECTOR('',#517,0.471);
#132=VECTOR('',#518,84.9873439368374);
#133=VECTOR('',#521,6.11229777006837);
#134=VECTOR('',#522,6.18655126008851);
#135=VECTOR('',#527,0.471);
#136=VECTOR('',#532,0.471);
#137=VECTOR('',#537,0.90710186925503);
#138=VECTOR('',#538,0.471);
#139=VECTOR('',#539,0.90710186925503);
#140=VECTOR('',#544,0.471);
#141=VECTOR('',#549,84.9873439368374);
#142=VECTOR('',#550,0.471);
#143=VECTOR('',#551,84.9873439368374);
#144=VECTOR('',#554,6.11229777006837);
#145=VECTOR('',#555,6.18655126008851);
#146=VECTOR('',#566,3.925);
#147=VECTOR('',#571,3.925);
#148=VECTOR('',#574,5.495);
#149=CIRCLE('',#418,9.0275);
#150=CIRCLE('',#422,9.0275);
#151=CIRCLE('',#429,5.495);
#152=CIRCLE('',#431,5.495);
#153=CIRCLE('',#433,7.85);
#154=CIRCLE('',#434,7.85);
#155=CIRCLE('',#437,3.14);
#156=CIRCLE('',#438,3.14);
#157=CIRCLE('',#444,7.85);
#158=CIRCLE('',#445,7.85);
#159=CIRCLE('',#448,3.14);
#160=CIRCLE('',#449,3.14);
#161=CIRCLE('',#455,3.925);
#162=CIRCLE('',#456,3.925);
#163=CIRCLE('',#457,3.925);
#164=VERTEX_POINT('',#577);
#165=VERTEX_POINT('',#579);
#166=VERTEX_POINT('',#581);
#167=VERTEX_POINT('',#583);
#168=VERTEX_POINT('',#585);
#169=VERTEX_POINT('',#587);
#170=VERTEX_POINT('',#590);
#171=VERTEX_POINT('',#592);
#172=VERTEX_POINT('',#598);
#173=VERTEX_POINT('',#599);
#174=VERTEX_POINT('',#604);
#175=VERTEX_POINT('',#606);
#176=VERTEX_POINT('',#610);
#177=VERTEX_POINT('',#613);
#178=VERTEX_POINT('',#623);
#179=VERTEX_POINT('',#628);
#180=VERTEX_POINT('',#635);
#181=VERTEX_POINT('',#637);
#182=VERTEX_POINT('',#641);
#183=VERTEX_POINT('',#643);
#184=VERTEX_POINT('',#647);
#185=VERTEX_POINT('',#649);
#186=VERTEX_POINT('',#653);
#187=VERTEX_POINT('',#655);
#188=VERTEX_POINT('',#671);
#189=VERTEX_POINT('',#676);
#190=VERTEX_POINT('',#683);
#191=VERTEX_POINT('',#685);
#192=VERTEX_POINT('',#689);
#193=VERTEX_POINT('',#691);
#194=VERTEX_POINT('',#695);
#195=VERTEX_POINT('',#697);
#196=VERTEX_POINT('',#701);
#197=VERTEX_POINT('',#703);
#198=VERTEX_POINT('',#712);
#199=VERTEX_POINT('',#713);
#200=VERTEX_POINT('',#716);
#201=EDGE_CURVE('',#164,#164,#149,.T.);
#202=EDGE_CURVE('',#164,#165,#95,.T.);
#203=EDGE_CURVE('',#165,#166,#87,.T.);
#204=EDGE_CURVE('',#167,#166,#88,.T.);
#205=EDGE_CURVE('',#168,#167,#89,.T.);
#206=EDGE_CURVE('',#168,#169,#96,.T.);
#207=EDGE_CURVE('',#169,#169,#150,.T.);
#208=EDGE_CURVE('',#170,#168,#90,.T.);
#209=EDGE_CURVE('',#171,#170,#81,.T.);
#210=EDGE_CURVE('',#171,#165,#91,.T.);
#211=EDGE_CURVE('',#172,#173,#82,.T.);
#212=EDGE_CURVE('',#172,#174,#92,.T.);
#213=EDGE_CURVE('',#175,#174,#93,.T.);
#214=EDGE_CURVE('',#173,#175,#94,.T.);
#215=EDGE_CURVE('',#176,#176,#151,.F.);
#216=EDGE_CURVE('',#177,#177,#152,.T.);
#217=EDGE_CURVE('',#171,#178,#83,.T.);
#218=EDGE_CURVE('',#170,#179,#84,.T.);
#219=EDGE_CURVE('',#178,#179,#97,.T.);
#220=EDGE_CURVE('',#179,#180,#153,.T.);
#221=EDGE_CURVE('',#181,#180,#98,.T.);
#222=EDGE_CURVE('',#178,#181,#154,.T.);
#223=EDGE_CURVE('',#180,#182,#99,.T.);
#224=EDGE_CURVE('',#183,#182,#100,.T.);
#225=EDGE_CURVE('',#181,#183,#101,.T.);
#226=EDGE_CURVE('',#182,#184,#155,.T.);
#227=EDGE_CURVE('',#185,#184,#102,.T.);
#228=EDGE_CURVE('',#183,#185,#156,.T.);
#229=EDGE_CURVE('',#184,#186,#103,.T.);
#230=EDGE_CURVE('',#187,#186,#104,.T.);
#231=EDGE_CURVE('',#185,#187,#105,.T.);
#232=EDGE_CURVE('',#186,#167,#106,.T.);
#233=EDGE_CURVE('',#187,#166,#107,.T.);
#234=EDGE_CURVE('',#172,#188,#85,.T.);
#235=EDGE_CURVE('',#173,#189,#86,.T.);
#236=EDGE_CURVE('',#188,#189,#108,.T.);
#237=EDGE_CURVE('',#189,#190,#157,.T.);
#238=EDGE_CURVE('',#191,#190,#109,.T.);
#239=EDGE_CURVE('',#188,#191,#158,.T.);
#240=EDGE_CURVE('',#190,#192,#110,.T.);
#241=EDGE_CURVE('',#193,#192,#111,.T.);
#242=EDGE_CURVE('',#191,#193,#112,.T.);
#243=EDGE_CURVE('',#192,#194,#159,.T.);
#244=EDGE_CURVE('',#195,#194,#113,.T.);
#245=EDGE_CURVE('',#193,#195,#160,.T.);
#246=EDGE_CURVE('',#194,#196,#114,.T.);
#247=EDGE_CURVE('',#197,#196,#115,.T.);
#248=EDGE_CURVE('',#195,#197,#116,.T.);
#249=EDGE_CURVE('',#196,#175,#117,.T.);
#250=EDGE_CURVE('',#197,#174,#118,.T.);
#251=EDGE_CURVE('',#198,#199,#161,.T.);
#252=EDGE_CURVE('',#199,#198,#162,.T.);
#253=EDGE_CURVE('',#198,#200,#119,.T.);
#254=EDGE_CURVE('',#200,#200,#163,.F.);
#255=EDGE_CURVE('',#200,#177,#120,.T.);
#256=EDGE_CURVE('',#199,#176,#121,.T.);
#257=ORIENTED_EDGE('',*,*,#201,.T.);
#258=ORIENTED_EDGE('',*,*,#202,.T.);
#259=ORIENTED_EDGE('',*,*,#203,.T.);
#260=ORIENTED_EDGE('',*,*,#204,.F.);
#261=ORIENTED_EDGE('',*,*,#205,.F.);
#262=ORIENTED_EDGE('',*,*,#206,.T.);
#263=ORIENTED_EDGE('',*,*,#207,.F.);
#264=ORIENTED_EDGE('',*,*,#206,.F.);
#265=ORIENTED_EDGE('',*,*,#208,.F.);
#266=ORIENTED_EDGE('',*,*,#209,.F.);
#267=ORIENTED_EDGE('',*,*,#210,.T.);
#268=ORIENTED_EDGE('',*,*,#202,.F.);
#269=ORIENTED_EDGE('',*,*,#211,.F.);
#270=ORIENTED_EDGE('',*,*,#212,.T.);
#271=ORIENTED_EDGE('',*,*,#213,.F.);
#272=ORIENTED_EDGE('',*,*,#214,.F.);
#273=ORIENTED_EDGE('',*,*,#207,.T.);
#274=ORIENTED_EDGE('',*,*,#215,.T.);
#275=ORIENTED_EDGE('',*,*,#201,.F.);
#276=ORIENTED_EDGE('',*,*,#216,.T.);
#277=ORIENTED_EDGE('',*,*,#217,.F.);
#278=ORIENTED_EDGE('',*,*,#209,.T.);
#279=ORIENTED_EDGE('',*,*,#218,.T.);
#280=ORIENTED_EDGE('',*,*,#219,.F.);
#281=ORIENTED_EDGE('',*,*,#220,.T.);
#282=ORIENTED_EDGE('',*,*,#221,.F.);
#283=ORIENTED_EDGE('',*,*,#222,.F.);
#284=ORIENTED_EDGE('',*,*,#219,.T.);
#285=ORIENTED_EDGE('',*,*,#223,.T.);
#286=ORIENTED_EDGE('',*,*,#224,.F.);
#287=ORIENTED_EDGE('',*,*,#225,.F.);
#288=ORIENTED_EDGE('',*,*,#221,.T.);
#289=ORIENTED_EDGE('',*,*,#226,.T.);
#290=ORIENTED_EDGE('',*,*,#227,.F.);
#291=ORIENTED_EDGE('',*,*,#228,.F.);
#292=ORIENTED_EDGE('',*,*,#224,.T.);
#293=ORIENTED_EDGE('',*,*,#229,.T.);
#294=ORIENTED_EDGE('',*,*,#230,.F.);
#295=ORIENTED_EDGE('',*,*,#231,.F.);
#296=ORIENTED_EDGE('',*,*,#227,.T.);
#297=ORIENTED_EDGE('',*,*,#232,.T.);
#298=ORIENTED_EDGE('',*,*,#204,.T.);
#299=ORIENTED_EDGE('',*,*,#233,.F.);
#300=ORIENTED_EDGE('',*,*,#230,.T.);
#301=ORIENTED_EDGE('',*,*,#210,.F.);
#302=ORIENTED_EDGE('',*,*,#217,.T.);
#303=ORIENTED_EDGE('',*,*,#222,.T.);
#304=ORIENTED_EDGE('',*,*,#225,.T.);
#305=ORIENTED_EDGE('',*,*,#228,.T.);
#306=ORIENTED_EDGE('',*,*,#231,.T.);
#307=ORIENTED_EDGE('',*,*,#233,.T.);
#308=ORIENTED_EDGE('',*,*,#203,.F.);
#309=ORIENTED_EDGE('',*,*,#218,.F.);
#310=ORIENTED_EDGE('',*,*,#208,.T.);
#311=ORIENTED_EDGE('',*,*,#205,.T.);
#312=ORIENTED_EDGE('',*,*,#232,.F.);
#313=ORIENTED_EDGE('',*,*,#229,.F.);
#314=ORIENTED_EDGE('',*,*,#226,.F.);
#315=ORIENTED_EDGE('',*,*,#223,.F.);
#316=ORIENTED_EDGE('',*,*,#220,.F.);
#317=ORIENTED_EDGE('',*,*,#234,.F.);
#318=ORIENTED_EDGE('',*,*,#211,.T.);
#319=ORIENTED_EDGE('',*,*,#235,.T.);
#320=ORIENTED_EDGE('',*,*,#236,.F.);
#321=ORIENTED_EDGE('',*,*,#237,.T.);
#322=ORIENTED_EDGE('',*,*,#238,.F.);
#323=ORIENTED_EDGE('',*,*,#239,.F.);
#324=ORIENTED_EDGE('',*,*,#236,.T.);
#325=ORIENTED_EDGE('',*,*,#240,.T.);
#326=ORIENTED_EDGE('',*,*,#241,.F.);
#327=ORIENTED_EDGE('',*,*,#242,.F.);
#328=ORIENTED_EDGE('',*,*,#238,.T.);
#329=ORIENTED_EDGE('',*,*,#243,.T.);
#330=ORIENTED_EDGE('',*,*,#244,.F.);
#331=ORIENTED_EDGE('',*,*,#245,.F.);
#332=ORIENTED_EDGE('',*,*,#241,.T.);
#333=ORIENTED_EDGE('',*,*,#246,.T.);
#334=ORIENTED_EDGE('',*,*,#247,.F.);
#335=ORIENTED_EDGE('',*,*,#248,.F.);
#336=ORIENTED_EDGE('',*,*,#244,.T.);
#337=ORIENTED_EDGE('',*,*,#249,.T.);
#338=ORIENTED_EDGE('',*,*,#213,.T.);
#339=ORIENTED_EDGE('',*,*,#250,.F.);
#340=ORIENTED_EDGE('',*,*,#247,.T.);
#341=ORIENTED_EDGE('',*,*,#212,.F.);
#342=ORIENTED_EDGE('',*,*,#234,.T.);
#343=ORIENTED_EDGE('',*,*,#239,.T.);
#344=ORIENTED_EDGE('',*,*,#242,.T.);
#345=ORIENTED_EDGE('',*,*,#245,.T.);
#346=ORIENTED_EDGE('',*,*,#248,.T.);
#347=ORIENTED_EDGE('',*,*,#250,.T.);
#348=ORIENTED_EDGE('',*,*,#235,.F.);
#349=ORIENTED_EDGE('',*,*,#214,.T.);
#350=ORIENTED_EDGE('',*,*,#249,.F.);
#351=ORIENTED_EDGE('',*,*,#246,.F.);
#352=ORIENTED_EDGE('',*,*,#243,.F.);
#353=ORIENTED_EDGE('',*,*,#240,.F.);
#354=ORIENTED_EDGE('',*,*,#237,.F.);
#355=ORIENTED_EDGE('',*,*,#251,.T.);
#356=ORIENTED_EDGE('',*,*,#252,.T.);
#357=ORIENTED_EDGE('',*,*,#253,.T.);
#358=ORIENTED_EDGE('',*,*,#254,.T.);
#359=ORIENTED_EDGE('',*,*,#253,.F.);
#360=ORIENTED_EDGE('',*,*,#254,.F.);
#361=ORIENTED_EDGE('',*,*,#255,.T.);
#362=ORIENTED_EDGE('',*,*,#216,.F.);
#363=ORIENTED_EDGE('',*,*,#255,.F.);
#364=ORIENTED_EDGE('',*,*,#251,.F.);
#365=ORIENTED_EDGE('',*,*,#252,.F.);
#366=ORIENTED_EDGE('',*,*,#256,.T.);
#367=ORIENTED_EDGE('',*,*,#215,.F.);
#368=ORIENTED_EDGE('',*,*,#256,.F.);
#369=CYLINDRICAL_SURFACE('',#417,9.0275);
#370=CYLINDRICAL_SURFACE('',#432,7.85);
#371=CYLINDRICAL_SURFACE('',#436,3.14);
#372=CYLINDRICAL_SURFACE('',#443,7.85);
#373=CYLINDRICAL_SURFACE('',#447,3.14);
#374=CYLINDRICAL_SURFACE('',#454,3.925);
#375=ADVANCED_FACE('',(#34,#31),#369,.T.);
#376=ADVANCED_FACE('',(#35,#32),#19,.T.);
#377=ADVANCED_FACE('',(#36,#33),#20,.F.);
#378=ADVANCED_FACE('',(#37),#17,.F.);
#379=ADVANCED_FACE('',(#38),#370,.T.);
#380=ADVANCED_FACE('',(#39),#21,.F.);
#381=ADVANCED_FACE('',(#40),#371,.T.);
#382=ADVANCED_FACE('',(#41),#22,.F.);
#383=ADVANCED_FACE('',(#42),#23,.F.);
#384=ADVANCED_FACE('',(#43),#24,.T.);
#385=ADVANCED_FACE('',(#44),#25,.F.);
#386=ADVANCED_FACE('',(#45),#18,.F.);
#387=ADVANCED_FACE('',(#46),#372,.T.);
#388=ADVANCED_FACE('',(#47),#26,.F.);
#389=ADVANCED_FACE('',(#48),#373,.T.);
#390=ADVANCED_FACE('',(#49),#27,.F.);
#391=ADVANCED_FACE('',(#50),#28,.F.);
#392=ADVANCED_FACE('',(#51),#29,.T.);
#393=ADVANCED_FACE('',(#52),#30,.F.);
#394=ADVANCED_FACE('',(#53),#374,.F.);
#395=ADVANCED_FACE('',(#54),#15,.F.);
#396=ADVANCED_FACE('',(#55),#16,.F.);
#397=CLOSED_SHELL('',(#375,#376,#377,#378,#379,#380,#381,#382,#383,#384,
#385,#386,#387,#388,#389,#390,#391,#392,#393,#394,#395,#396));
#398=DERIVED_UNIT_ELEMENT(#400,1.);
#399=DERIVED_UNIT_ELEMENT(#728,3.);
#400=(
MASS_UNIT()
NAMED_UNIT(*)
SI_UNIT($,.GRAM.)
);
#401=DERIVED_UNIT((#398,#399));
#402=MEASURE_REPRESENTATION_ITEM('density measure',
POSITIVE_RATIO_MEASURE(1.06),#401);
#403=PROPERTY_DEFINITION_REPRESENTATION(#408,#405);
#404=PROPERTY_DEFINITION_REPRESENTATION(#409,#406);
#405=REPRESENTATION('material name',(#407),#725);
#406=REPRESENTATION('density',(#402),#725);
#407=DESCRIPTIVE_REPRESENTATION_ITEM('ABS Plastic','ABS Plastic');
#408=PROPERTY_DEFINITION('material property','material name',#735);
#409=PROPERTY_DEFINITION('material property','density of part',#735);
#410=DATE_TIME_ROLE('creation_date');
#411=APPLIED_DATE_AND_TIME_ASSIGNMENT(#412,#410,(#735));
#412=DATE_AND_TIME(#413,#414);
#413=CALENDAR_DATE(2022,30,8);
#414=LOCAL_TIME(17,49,34.,#415);
#415=COORDINATED_UNIVERSAL_TIME_OFFSET(0,0,.BEHIND.);
#416=AXIS2_PLACEMENT_3D('placement',#575,#460,#461);
#417=AXIS2_PLACEMENT_3D('',#576,#462,#463);
#418=AXIS2_PLACEMENT_3D('',#578,#464,#465);
#419=AXIS2_PLACEMENT_3D('',#582,#467,#468);
#420=AXIS2_PLACEMENT_3D('',#584,#469,#470);
#421=AXIS2_PLACEMENT_3D('',#586,#471,#472);
#422=AXIS2_PLACEMENT_3D('',#589,#474,#475);
#423=AXIS2_PLACEMENT_3D('',#591,#476,#477);
#424=AXIS2_PLACEMENT_3D('',#597,#478,#479);
#425=AXIS2_PLACEMENT_3D('',#605,#480,#481);
#426=AXIS2_PLACEMENT_3D('',#607,#482,#483);
#427=AXIS2_PLACEMENT_3D('',#608,#484,#485);
#428=AXIS2_PLACEMENT_3D('',#609,#486,#487);
#429=AXIS2_PLACEMENT_3D('',#611,#488,#489);
#430=AXIS2_PLACEMENT_3D('',#612,#490,#491);
#431=AXIS2_PLACEMENT_3D('',#614,#492,#493);
#432=AXIS2_PLACEMENT_3D('',#634,#495,#496);
#433=AXIS2_PLACEMENT_3D('',#636,#497,#498);
#434=AXIS2_PLACEMENT_3D('',#639,#500,#501);
#435=AXIS2_PLACEMENT_3D('',#640,#502,#503);
#436=AXIS2_PLACEMENT_3D('',#646,#507,#508);
#437=AXIS2_PLACEMENT_3D('',#648,#509,#510);
#438=AXIS2_PLACEMENT_3D('',#651,#512,#513);
#439=AXIS2_PLACEMENT_3D('',#652,#514,#515);
#440=AXIS2_PLACEMENT_3D('',#658,#519,#520);
#441=AXIS2_PLACEMENT_3D('',#661,#523,#524);
#442=AXIS2_PLACEMENT_3D('',#662,#525,#526);
#443=AXIS2_PLACEMENT_3D('',#682,#528,#529);
#444=AXIS2_PLACEMENT_3D('',#684,#530,#531);
#445=AXIS2_PLACEMENT_3D('',#687,#533,#534);
#446=AXIS2_PLACEMENT_3D('',#688,#535,#536);
#447=AXIS2_PLACEMENT_3D('',#694,#540,#541);
#448=AXIS2_PLACEMENT_3D('',#696,#542,#543);
#449=AXIS2_PLACEMENT_3D('',#699,#545,#546);
#450=AXIS2_PLACEMENT_3D('',#700,#547,#548);
#451=AXIS2_PLACEMENT_3D('',#706,#552,#553);
#452=AXIS2_PLACEMENT_3D('',#709,#556,#557);
#453=AXIS2_PLACEMENT_3D('',#710,#558,#559);
#454=AXIS2_PLACEMENT_3D('',#711,#560,#561);
#455=AXIS2_PLACEMENT_3D('',#714,#562,#563);
#456=AXIS2_PLACEMENT_3D('',#715,#564,#565);
#457=AXIS2_PLACEMENT_3D('',#718,#567,#568);
#458=AXIS2_PLACEMENT_3D('',#719,#569,#570);
#459=AXIS2_PLACEMENT_3D('',#721,#572,#573);
#460=DIRECTION('axis',(0.,0.,1.));
#461=DIRECTION('refdir',(1.,0.,0.));
#462=DIRECTION('center_axis',(0.,-1.,0.));
#463=DIRECTION('ref_axis',(0.,0.,-1.));
#464=DIRECTION('center_axis',(0.,1.,0.));
#465=DIRECTION('ref_axis',(0.,0.,1.));
#466=DIRECTION('',(0.,1.,0.));
#467=DIRECTION('center_axis',(-0.224951054343866,-0.974370064785235,3.66216632522015E-18));
#468=DIRECTION('ref_axis',(0.974370064785235,-0.224951054343866,-1.58625850853069E-17));
#469=DIRECTION('center_axis',(0.793467035825911,-0.183186299278891,0.580390250447186));
#470=DIRECTION('ref_axis',(-0.1478542474578,-0.983078216499839,-0.108149626685362));
#471=DIRECTION('center_axis',(-0.224951054343866,-0.974370064785235,3.66216632522015E-18));
#472=DIRECTION('ref_axis',(0.974370064785235,-0.224951054343866,-1.58625850853069E-17));
#473=DIRECTION('',(0.,1.,0.));
#474=DIRECTION('center_axis',(0.,1.,0.));
#475=DIRECTION('ref_axis',(0.,0.,1.));
#476=DIRECTION('center_axis',(-0.224951054343866,-0.974370064785235,3.66216632522015E-18));
#477=DIRECTION('ref_axis',(0.974370064785235,-0.224951054343866,-1.58625850853069E-17));
#478=DIRECTION('center_axis',(-0.224951054343866,-0.974370064785235,3.66216632522015E-18));
#479=DIRECTION('ref_axis',(0.974370064785235,-0.224951054343866,-1.58625850853069E-17));
#480=DIRECTION('center_axis',(0.224951054343866,-0.974370064785235,-3.66216632522015E-18));
#481=DIRECTION('ref_axis',(-0.974370064785235,-0.224951054343866,1.58625850853069E-17));
#482=DIRECTION('center_axis',(-0.793467035825911,-0.183186299278891,-0.580390250447186));
#483=DIRECTION('ref_axis',(0.1478542474578,-0.983078216499839,0.108149626685362));
#484=DIRECTION('center_axis',(0.224951054343866,-0.974370064785235,-3.66216632522015E-18));
#485=DIRECTION('ref_axis',(-0.974370064785235,-0.224951054343866,1.58625850853069E-17));
#486=DIRECTION('center_axis',(0.,1.,0.));
#487=DIRECTION('ref_axis',(0.,0.,1.));
#488=DIRECTION('center_axis',(0.,1.,0.));
#489=DIRECTION('ref_axis',(0.,0.,1.));
#490=DIRECTION('center_axis',(0.,1.,0.));
#491=DIRECTION('ref_axis',(0.,0.,1.));
#492=DIRECTION('center_axis',(0.,1.,0.));
#493=DIRECTION('ref_axis',(0.,0.,1.));
#494=DIRECTION('',(0.224951054343865,0.974370064785235,0.));
#495=DIRECTION('center_axis',(0.224951054343866,0.974370064785235,0.));
#496=DIRECTION('ref_axis',(-0.974370064785235,0.224951054343866,0.));
#497=DIRECTION('center_axis',(-0.224951054343866,-0.974370064785235,0.));
#498=DIRECTION('ref_axis',(0.974370064785235,-0.224951054343866,0.));
#499=DIRECTION('',(0.224951054343866,0.974370064785235,0.));
#500=DIRECTION('center_axis',(-0.224951054343866,-0.974370064785235,0.));
#501=DIRECTION('ref_axis',(0.974370064785235,-0.224951054343866,0.));
#502=DIRECTION('center_axis',(0.,0.,-1.));
#503=DIRECTION('ref_axis',(-1.,0.,0.));
#504=DIRECTION('',(-0.974370064785235,0.224951054343866,0.));
#505=DIRECTION('',(0.224951054343866,0.974370064785235,0.));
#506=DIRECTION('',(-0.974370064785235,0.224951054343865,0.));
#507=DIRECTION('center_axis',(0.224951054343866,0.974370064785235,0.));
#508=DIRECTION('ref_axis',(-0.974370064785235,0.224951054343866,0.));
#509=DIRECTION('center_axis',(-0.224951054343866,-0.974370064785235,0.));
#510=DIRECTION('ref_axis',(-0.974370064785235,0.224951054343866,0.));
#511=DIRECTION('',(0.224951054343866,0.974370064785235,0.));
#512=DIRECTION('center_axis',(-0.224951054343866,-0.974370064785235,0.));
#513=DIRECTION('ref_axis',(-0.974370064785235,0.224951054343866,0.));
#514=DIRECTION('center_axis',(0.974370064785235,-0.224951054343866,0.));
#515=DIRECTION('ref_axis',(0.,0.,-1.));
#516=DIRECTION('',(0.,0.,-1.));
#517=DIRECTION('',(0.224951054343866,0.974370064785235,0.));
#518=DIRECTION('',(0.,0.,-1.));
#519=DIRECTION('center_axis',(0.793467035825911,-0.183186299278891,0.580390250447186));
#520=DIRECTION('ref_axis',(0.590380542164399,0.,-0.80712503085561));
#521=DIRECTION('',(0.565514885928943,-0.130559398768995,-0.814338478266779));
#522=DIRECTION('',(0.565514885928943,-0.130559398768994,-0.814338478266779));
#523=DIRECTION('center_axis',(-0.224951054343866,-0.974370064785235,3.66216632522015E-18));
#524=DIRECTION('ref_axis',(0.,-3.75849634299607E-18,-1.));
#525=DIRECTION('center_axis',(-0.224951054343866,-0.974370064785235,3.66216632522015E-18));
#526=DIRECTION('ref_axis',(0.,-3.75849634299607E-18,-1.));
#527=DIRECTION('',(-0.224951054343865,0.974370064785235,0.));
#528=DIRECTION('center_axis',(-0.224951054343866,0.974370064785235,0.));
#529=DIRECTION('ref_axis',(-0.974370064785235,-0.224951054343866,0.));
#530=DIRECTION('center_axis',(0.224951054343866,-0.974370064785235,0.));
#531=DIRECTION('ref_axis',(-0.974370064785235,-0.224951054343866,0.));
#532=DIRECTION('',(-0.224951054343866,0.974370064785235,0.));
#533=DIRECTION('center_axis',(0.224951054343866,-0.974370064785235,0.));
#534=DIRECTION('ref_axis',(-0.974370064785235,-0.224951054343866,0.));
#535=DIRECTION('center_axis',(0.,0.,1.));
#536=DIRECTION('ref_axis',(1.,0.,0.));
#537=DIRECTION('',(0.974370064785235,0.224951054343866,0.));
#538=DIRECTION('',(-0.224951054343866,0.974370064785235,0.));
#539=DIRECTION('',(0.974370064785235,0.224951054343865,0.));
#540=DIRECTION('center_axis',(-0.224951054343866,0.974370064785235,0.));
#541=DIRECTION('ref_axis',(-0.974370064785235,-0.224951054343866,0.));
#542=DIRECTION('center_axis',(0.224951054343866,-0.974370064785235,0.));
#543=DIRECTION('ref_axis',(0.974370064785235,0.224951054343866,0.));
#544=DIRECTION('',(-0.224951054343866,0.974370064785235,0.));
#545=DIRECTION('center_axis',(0.224951054343866,-0.974370064785235,0.));
#546=DIRECTION('ref_axis',(0.974370064785235,0.224951054343866,0.));
#547=DIRECTION('center_axis',(-0.974370064785235,-0.224951054343866,0.));
#548=DIRECTION('ref_axis',(0.,0.,1.));
#549=DIRECTION('',(0.,0.,1.));
#550=DIRECTION('',(-0.224951054343866,0.974370064785235,0.));
#551=DIRECTION('',(0.,0.,1.));
#552=DIRECTION('center_axis',(-0.793467035825911,-0.183186299278891,-0.580390250447186));
#553=DIRECTION('ref_axis',(-0.590380542164399,0.,0.80712503085561));
#554=DIRECTION('',(-0.565514885928943,-0.130559398768995,0.814338478266779));
#555=DIRECTION('',(-0.565514885928943,-0.130559398768994,0.814338478266779));
#556=DIRECTION('center_axis',(0.224951054343866,-0.974370064785235,-3.66216632522015E-18));
#557=DIRECTION('ref_axis',(0.,3.75849634299607E-18,-1.));
#558=DIRECTION('center_axis',(0.224951054343866,-0.974370064785235,-3.66216632522015E-18));
#559=DIRECTION('ref_axis',(0.,3.75849634299607E-18,-1.));
#560=DIRECTION('center_axis',(0.,-1.,0.));
#561=DIRECTION('ref_axis',(0.,0.,-1.));
#562=DIRECTION('center_axis',(0.,1.,0.));
#563=DIRECTION('ref_axis',(0.,0.,1.));
#564=DIRECTION('center_axis',(0.,1.,0.));
#565=DIRECTION('ref_axis',(0.,0.,1.));
#566=DIRECTION('',(0.,-1.,0.));
#567=DIRECTION('center_axis',(0.,1.,0.));
#568=DIRECTION('ref_axis',(0.,0.,1.));
#569=DIRECTION('center_axis',(0.,-1.,0.));
#570=DIRECTION('ref_axis',(0.,0.,-1.));
#571=DIRECTION('',(-8.6595605623549E-17,-0.70710678118655,0.707106781186545));
#572=DIRECTION('center_axis',(0.,1.,0.));
#573=DIRECTION('ref_axis',(0.,0.,1.));
#574=DIRECTION('',(-8.65956056235491E-17,0.707106781186549,-0.707106781186546));
#575=CARTESIAN_POINT('',(0.,0.,0.));
#576=CARTESIAN_POINT('Origin',(-1.99209346245865,5.16991101423089,11.1875958455164));
#577=CARTESIAN_POINT('',(-1.99209346245865,-4.25008898576911,20.2150958455164));
#578=CARTESIAN_POINT('Origin',(-1.99209346245865,-4.25008898576911,11.1875958455164));
#579=CARTESIAN_POINT('',(-1.99209346245865,-0.0234782205397992,20.2150958455164));
#580=CARTESIAN_POINT('',(-1.99209346245865,5.16991101423089,20.2150958455164));
#581=CARTESIAN_POINT('',(-8.22576432240264,1.41567809496761,17.7173051698191));
#582=CARTESIAN_POINT('Origin',(-1.99209346245865,-0.0234782205397995,11.1875958455164));
#583=CARTESIAN_POINT('',(-8.16180382974524,1.88430088649498,17.7777726438881));
#584=CARTESIAN_POINT('Origin',(-1.99209346245865,7.72855582669231,11.1875958455164));
#585=CARTESIAN_POINT('',(-1.99209346245865,0.45991101423089,20.2150958455164));
#586=CARTESIAN_POINT('Origin',(-1.99209346245865,0.459911014230889,11.1875958455164));
#587=CARTESIAN_POINT('',(-1.99209346245865,5.16991101423089,20.2150958455164));
#588=CARTESIAN_POINT('',(-1.99209346245865,5.16991101423089,20.2150958455164));
#589=CARTESIAN_POINT('Origin',(-1.99209346245865,5.16991101423089,11.1875958455164));
#590=CARTESIAN_POINT('',(5.54566453951899,-1.28031754082793,16.15528751807));
#591=CARTESIAN_POINT('Origin',(-1.99209346245865,0.459911014230889,11.1875958455164));
#592=CARTESIAN_POINT('',(5.46296156726805,-1.74461328999399,16.2785594825614));
#593=CARTESIAN_POINT('Ctrl Pts',(5.46296156726688,-1.74461328999372,16.2785594825616));
#594=CARTESIAN_POINT('Ctrl Pts',(5.49067128969992,-1.58973800136862,16.2379821930101));
#595=CARTESIAN_POINT('Ctrl Pts',(5.51824139727835,-1.4349694825004,16.1968981943198));
#596=CARTESIAN_POINT('Ctrl Pts',(5.54566453952015,-1.2803175408269,16.1552875180747));
#597=CARTESIAN_POINT('Origin',(-1.99209346245865,-0.0234782205397995,11.1875958455164));
#598=CARTESIAN_POINT('',(-9.44714849218535,-1.74461328999399,6.09663220847141));
#599=CARTESIAN_POINT('',(-9.52985146443629,-1.28031754082793,6.21990417296275));
#600=CARTESIAN_POINT('Ctrl Pts',(-9.44714849218417,-1.74461328999372,6.09663220847118));
#601=CARTESIAN_POINT('Ctrl Pts',(-9.47485821461721,-1.58973800136862,6.13720949802273));
#602=CARTESIAN_POINT('Ctrl Pts',(-9.50242832219565,-1.4349694825004,6.17829349671299));
#603=CARTESIAN_POINT('Ctrl Pts',(-9.52985146443744,-1.2803175408269,6.21990417295813));
#604=CARTESIAN_POINT('',(4.24157739748534,1.41567809496761,4.65788652121373));
#605=CARTESIAN_POINT('Origin',(-1.99209346245865,-0.0234782205397995,11.1875958455164));
#606=CARTESIAN_POINT('',(4.17761690482795,1.88430088649498,4.59741904714472));
#607=CARTESIAN_POINT('Origin',(-1.99209346245865,7.72855582669231,11.1875958455164));
#608=CARTESIAN_POINT('Origin',(-1.99209346245865,0.459911014230889,11.1875958455164));
#609=CARTESIAN_POINT('Origin',(-1.99209346245865,5.16991101423089,11.1875958455164));
#610=CARTESIAN_POINT('',(-1.99209346245865,5.16991101423089,5.69259584551639));
#611=CARTESIAN_POINT('Origin',(-1.99209346245865,5.16991101423089,11.1875958455164));
#612=CARTESIAN_POINT('Origin',(-1.99209346245865,-4.25008898576911,11.1875958455164));
#613=CARTESIAN_POINT('',(-1.99209346245865,-4.25008898576911,16.6825958455164));
#614=CARTESIAN_POINT('Origin',(-1.99209346245865,-4.25008898576911,11.1875958455164));
#615=CARTESIAN_POINT('Ctrl Pts',(5.33763287637558,-1.71567888183186,15.6192547371176));
#616=CARTESIAN_POINT('Ctrl Pts',(5.46477521229107,-1.16496492121376,15.6192547371176));
#617=CARTESIAN_POINT('Ctrl Pts',(11.0880449463357,-3.04326611465015,45.5804932890685));
#618=CARTESIAN_POINT('Ctrl Pts',(11.2151872822512,-2.49255215403205,45.5804932890685));
#619=CARTESIAN_POINT('Ctrl Pts',(9.24481121057423,-2.61772207625329,75.0451004081739));
#620=CARTESIAN_POINT('Ctrl Pts',(9.37195354648973,-2.06700811563519,75.0451004081739));
#621=CARTESIAN_POINT('Ctrl Pts',(-0.192068330908725,-0.439046766641284,
104.013076094434));
#622=CARTESIAN_POINT('Ctrl Pts',(-0.0649259949932296,0.111667193976817,
104.013076094434));
#623=CARTESIAN_POINT('',(-0.192068330908722,-0.439046766641284,104.013076094434));
#624=CARTESIAN_POINT('Ctrl Pts',(5.4629615672668,-1.74461328999405,16.2785594825616));
#625=CARTESIAN_POINT('Ctrl Pts',(11.0605924395151,-3.03692820405862,46.0127699588769));
#626=CARTESIAN_POINT('Ctrl Pts',(9.17558247345658,-2.60173936294103,75.257608829501));
#627=CARTESIAN_POINT('Ctrl Pts',(-0.192068330908723,-0.439046766641285,
104.013076094434));
#628=CARTESIAN_POINT('',(-0.0861163843127619,0.0198815338725613,104.013076094434));
#629=CARTESIAN_POINT('Ctrl Pts',(5.54566453951899,-1.28031754082793,16.15528751807));
#630=CARTESIAN_POINT('Ctrl Pts',(11.17173988932,-2.57919937997261,45.9319421094763));
#631=CARTESIAN_POINT('Ctrl Pts',(9.29447958137606,-2.14579968840578,75.2178716349309));
#632=CARTESIAN_POINT('Ctrl Pts',(-0.0861163843127652,0.0198815338725613,
104.013076094434));
#633=CARTESIAN_POINT('',(-0.192068330908722,-0.439046766641284,104.013076094434));
#634=CARTESIAN_POINT('Origin',(-7.78097624200666,1.31299067541238,103.032595845516));
#635=CARTESIAN_POINT('',(-7.6750242954107,1.77191897592622,110.882595845516));
#636=CARTESIAN_POINT('Origin',(-7.6750242954107,1.77191897592622,103.032595845516));
#637=CARTESIAN_POINT('',(-7.78097624200666,1.31299067541238,110.882595845516));
#638=CARTESIAN_POINT('',(-7.78097624200666,1.31299067541238,110.882595845516));
#639=CARTESIAN_POINT('Origin',(-7.78097624200666,1.31299067541238,103.032595845516));
#640=CARTESIAN_POINT('Origin',(-8.66482914911949,1.51704419729859,110.882595845516));
#641=CARTESIAN_POINT('',(-8.55887720252353,1.97597249781243,110.882595845516));
#642=CARTESIAN_POINT('',(-7.6750242954107,1.77191897592622,110.882595845516));
#643=CARTESIAN_POINT('',(-8.66482914911949,1.51704419729859,110.882595845516));
#644=CARTESIAN_POINT('',(-8.66482914911949,1.51704419729859,110.882595845516));
#645=CARTESIAN_POINT('',(-7.78097624200666,1.31299067541238,110.882595845516));
#646=CARTESIAN_POINT('Origin',(-8.66482914911951,1.51704419729859,107.742595845516));
#647=CARTESIAN_POINT('',(-11.6183992059492,2.68231880845217,107.742595845516));
#648=CARTESIAN_POINT('Origin',(-8.55887720252355,1.97597249781244,107.742595845516));
#649=CARTESIAN_POINT('',(-11.7243511525452,2.22339050793833,107.742595845516));
#650=CARTESIAN_POINT('',(-11.7243511525452,2.22339050793833,107.742595845516));
#651=CARTESIAN_POINT('Origin',(-8.66482914911951,1.51704419729859,107.742595845516));
#652=CARTESIAN_POINT('Origin',(-11.7243511525452,2.22339050793833,22.755251908679));
#653=CARTESIAN_POINT('',(-11.6183992059492,2.68231880845217,22.755251908679));
#654=CARTESIAN_POINT('',(-11.6183992059492,2.68231880845217,107.742595845516));
#655=CARTESIAN_POINT('',(-11.7243511525452,2.22339050793833,22.755251908679));
#656=CARTESIAN_POINT('',(-11.7243511525452,2.22339050793833,22.755251908679));
#657=CARTESIAN_POINT('',(-11.7243511525452,2.22339050793833,107.742595845516));
#658=CARTESIAN_POINT('Origin',(-7.67894955471979,1.28943595867192,16.9298947640307));
#659=CARTESIAN_POINT('',(-11.6183992059492,2.68231880845218,22.755251908679));
#660=CARTESIAN_POINT('',(-11.7243511525452,2.22339050793833,22.755251908679));
#661=CARTESIAN_POINT('Origin',(8.30308707449223,-2.40030792841676,59.6124976264597));
#662=CARTESIAN_POINT('Origin',(8.40903902108819,-1.94137962790291,59.6124976264597));
#663=CARTESIAN_POINT('Ctrl Pts',(-9.32181980129287,-1.71567888183186,6.75593695391519));
#664=CARTESIAN_POINT('Ctrl Pts',(-9.44896213720837,-1.16496492121376,6.75593695391519));
#665=CARTESIAN_POINT('Ctrl Pts',(-15.072231871253,-3.04326611465015,-23.2053015980357));
#666=CARTESIAN_POINT('Ctrl Pts',(-15.1993742071685,-2.49255215403205,-23.2053015980357));
#667=CARTESIAN_POINT('Ctrl Pts',(-13.2289981354915,-2.61772207625329,-52.6699087171411));
#668=CARTESIAN_POINT('Ctrl Pts',(-13.356140471407,-2.06700811563519,-52.6699087171411));
#669=CARTESIAN_POINT('Ctrl Pts',(-3.79211859400857,-0.439046766641284,-81.6378844034011));
#670=CARTESIAN_POINT('Ctrl Pts',(-3.91926092992407,0.111667193976817,-81.6378844034011));
#671=CARTESIAN_POINT('',(-3.79211859400857,-0.439046766641284,-81.6378844034011));
#672=CARTESIAN_POINT('Ctrl Pts',(-9.4471484921841,-1.74461328999405,6.09663220847118));
#673=CARTESIAN_POINT('Ctrl Pts',(-15.0447793644324,-3.03692820405862,-23.6375782678441));
#674=CARTESIAN_POINT('Ctrl Pts',(-13.1597693983739,-2.60173936294103,-52.8824171384682));
#675=CARTESIAN_POINT('Ctrl Pts',(-3.79211859400857,-0.439046766641285,-81.6378844034011));
#676=CARTESIAN_POINT('',(-3.89807054060453,0.0198815338725613,-81.6378844034011));
#677=CARTESIAN_POINT('Ctrl Pts',(-9.52985146443629,-1.28031754082793,6.21990417296275));
#678=CARTESIAN_POINT('Ctrl Pts',(-15.1559268142373,-2.57919937997261,-23.5567504184435));
#679=CARTESIAN_POINT('Ctrl Pts',(-13.2786665062934,-2.14579968840578,-52.8426799438981));
#680=CARTESIAN_POINT('Ctrl Pts',(-3.89807054060453,0.0198815338725613,-81.6378844034011));
#681=CARTESIAN_POINT('',(-3.79211859400857,-0.439046766641284,-81.6378844034011));
#682=CARTESIAN_POINT('Origin',(3.79678931708936,1.31299067541238,-80.6574041544836));
#683=CARTESIAN_POINT('',(3.6908373704934,1.77191897592622,-88.5074041544836));
#684=CARTESIAN_POINT('Origin',(3.6908373704934,1.77191897592622,-80.6574041544836));
#685=CARTESIAN_POINT('',(3.79678931708936,1.31299067541238,-88.5074041544836));
#686=CARTESIAN_POINT('',(3.79678931708936,1.31299067541238,-88.5074041544836));
#687=CARTESIAN_POINT('Origin',(3.79678931708936,1.31299067541238,-80.6574041544836));
#688=CARTESIAN_POINT('Origin',(4.68064222420219,1.51704419729859,-88.5074041544836));
#689=CARTESIAN_POINT('',(4.57469027760623,1.97597249781243,-88.5074041544836));
#690=CARTESIAN_POINT('',(3.6908373704934,1.77191897592622,-88.5074041544836));
#691=CARTESIAN_POINT('',(4.68064222420219,1.51704419729859,-88.5074041544836));
#692=CARTESIAN_POINT('',(4.68064222420219,1.51704419729859,-88.5074041544836));
#693=CARTESIAN_POINT('',(3.79678931708936,1.31299067541238,-88.5074041544836));
#694=CARTESIAN_POINT('Origin',(4.68064222420221,1.51704419729859,-85.3674041544836));
#695=CARTESIAN_POINT('',(7.63421228103189,2.68231880845217,-85.3674041544836));
#696=CARTESIAN_POINT('Origin',(4.57469027760625,1.97597249781244,-85.3674041544836));
#697=CARTESIAN_POINT('',(7.74016422762785,2.22339050793833,-85.3674041544836));
#698=CARTESIAN_POINT('',(7.74016422762785,2.22339050793833,-85.3674041544836));
#699=CARTESIAN_POINT('Origin',(4.68064222420221,1.51704419729859,-85.3674041544836));
#700=CARTESIAN_POINT('Origin',(7.74016422762785,2.22339050793833,-0.380060217646176));
#701=CARTESIAN_POINT('',(7.63421228103189,2.68231880845217,-0.380060217646176));
#702=CARTESIAN_POINT('',(7.63421228103189,2.68231880845217,-85.3674041544836));
#703=CARTESIAN_POINT('',(7.74016422762785,2.22339050793833,-0.380060217646176));
#704=CARTESIAN_POINT('',(7.74016422762785,2.22339050793833,-0.380060217646176));
#705=CARTESIAN_POINT('',(7.74016422762785,2.22339050793833,-85.3674041544836));
#706=CARTESIAN_POINT('Origin',(3.69476262980249,1.28943595867192,5.44529692700207));
#707=CARTESIAN_POINT('',(7.63421228103189,2.68231880845218,-0.380060217646179));
#708=CARTESIAN_POINT('',(7.74016422762785,2.22339050793833,-0.380060217646179));
#709=CARTESIAN_POINT('Origin',(-12.2872739994095,-2.40030792841676,-37.2373059354269));
#710=CARTESIAN_POINT('Origin',(-12.3932259460055,-1.94137962790291,-37.2373059354269));
#711=CARTESIAN_POINT('Origin',(-1.99209346245865,5.16991101423089,11.1875958455164));
#712=CARTESIAN_POINT('',(-1.99209346245865,3.59991101423088,15.1125958455164));
#713=CARTESIAN_POINT('',(-1.99209346245865,3.59991101423088,7.26259584551639));
#714=CARTESIAN_POINT('Origin',(-1.99209346245865,3.59991101423088,11.1875958455164));
#715=CARTESIAN_POINT('Origin',(-1.99209346245865,3.59991101423088,11.1875958455164));
#716=CARTESIAN_POINT('',(-1.99209346245865,-2.68008898576909,15.1125958455164));
#717=CARTESIAN_POINT('',(-1.99209346245865,5.16991101423089,15.1125958455164));
#718=CARTESIAN_POINT('Origin',(-1.99209346245865,-2.68008898576909,11.1875958455164));
#719=CARTESIAN_POINT('Origin',(-1.99209346245865,-2.68008898576909,11.1875958455164));
#720=CARTESIAN_POINT('',(-1.99209346245865,-2.68008898576909,15.1125958455164));
#721=CARTESIAN_POINT('Origin',(-1.99209346245865,5.16991101423089,11.1875958455164));
#722=CARTESIAN_POINT('',(-1.99209346245865,5.16991101423089,5.69259584551639));
#723=UNCERTAINTY_MEASURE_WITH_UNIT(LENGTH_MEASURE(0.01),#727,
'DISTANCE_ACCURACY_VALUE',
'Maximum model space distance between geometric entities at asserted c
onnectivities');
#724=UNCERTAINTY_MEASURE_WITH_UNIT(LENGTH_MEASURE(0.01),#727,
'DISTANCE_ACCURACY_VALUE',
'Maximum model space distance between geometric entities at asserted c
onnectivities');
#725=(
GEOMETRIC_REPRESENTATION_CONTEXT(3)
GLOBAL_UNCERTAINTY_ASSIGNED_CONTEXT((#723))
GLOBAL_UNIT_ASSIGNED_CONTEXT((#727,#729,#730))
REPRESENTATION_CONTEXT('','3D')
);
#726=(
GEOMETRIC_REPRESENTATION_CONTEXT(3)
GLOBAL_UNCERTAINTY_ASSIGNED_CONTEXT((#724))
GLOBAL_UNIT_ASSIGNED_CONTEXT((#727,#729,#730))
REPRESENTATION_CONTEXT('','3D')
);
#727=(
LENGTH_UNIT()
NAMED_UNIT(*)
SI_UNIT(.MILLI.,.METRE.)
);
#728=(
LENGTH_UNIT()
NAMED_UNIT(*)
SI_UNIT(.CENTI.,.METRE.)
);
#729=(
NAMED_UNIT(*)
PLANE_ANGLE_UNIT()
SI_UNIT($,.RADIAN.)
);
#730=(
NAMED_UNIT(*)
SI_UNIT($,.STERADIAN.)
SOLID_ANGLE_UNIT()
);
#731=SHAPE_DEFINITION_REPRESENTATION(#732,#733);
#732=PRODUCT_DEFINITION_SHAPE('',$,#735);
#733=SHAPE_REPRESENTATION('',(#416),#725);
#734=PRODUCT_DEFINITION_CONTEXT('part definition',#739,'design');
#735=PRODUCT_DEFINITION('9. Fan','9. Fan',#736,#734);
#736=PRODUCT_DEFINITION_FORMATION('',$,#741);
#737=PRODUCT_RELATED_PRODUCT_CATEGORY('9. Fan','9. Fan',(#741));
#738=APPLICATION_PROTOCOL_DEFINITION('international standard',
'automotive_design',2009,#739);
#739=APPLICATION_CONTEXT(
'Core Data for Automotive Mechanical Design Process');
#740=PRODUCT_CONTEXT('part definition',#739,'mechanical');
#741=PRODUCT('9. Fan','9. Fan',$,(#740));
#742=PRESENTATION_STYLE_ASSIGNMENT((#743));
#743=SURFACE_STYLE_USAGE(.BOTH.,#746);
#744=SURFACE_STYLE_RENDERING_WITH_PROPERTIES($,#750,(#745));
#745=SURFACE_STYLE_TRANSPARENT(0.);
#746=SURFACE_SIDE_STYLE('',(#747,#744));
#747=SURFACE_STYLE_FILL_AREA(#748);
#748=FILL_AREA_STYLE('',(#749));
#749=FILL_AREA_STYLE_COLOUR('',#750);
#750=COLOUR_RGB('',0.92156862745098,0.92156862745098,0.92156862745098);
ENDSEC;
END-ISO-10303-21;
