ISO-10303-21;
HEADER;
/* Generated by software containing ST-Developer
 * from STEP Tools, Inc. (www.steptools.com) 
 */

FILE_DESCRIPTION(
/* description */ (''),
/* implementation_level */ '2;1');

FILE_NAME(
/* name */ 
'I:\\ASU_FOE\\graduation project\\quadcopter\\matlab xml\\231123\\\\Ba
seC_8_ipt_c1370e84.STEP',
/* time_stamp */ '2023-11-23T19:53:37+02:00',
/* author */ ('M'),
/* organization */ (''),
/* preprocessor_version */ 'ST-DEVELOPER v18.1',
/* originating_system */ 'Autodesk Inventor 2021',
/* authorisation */ '');

FILE_SCHEMA (('AUTOMOTIVE_DESIGN { 1 0 10303 214 3 1 1 }'));
ENDSEC;

DATA;
#10=MECHANICAL_DESIGN_GEOMETRIC_PRESENTATION_REPRESENTATION('',(#13),#501);
#11=SHAPE_REPRESENTATION_RELATIONSHIP('SRR','None',#508,#12);
#12=ADVANCED_BREP_SHAPE_REPRESENTATION('',(#14),#500);
#13=STYLED_ITEM('',(#517),#14);
#14=MANIFOLD_SOLID_BREP('Solid1',#291);
#15=FACE_BOUND('',#64,.T.);
#16=FACE_BOUND('',#65,.T.);
#17=FACE_BOUND('',#66,.T.);
#18=FACE_BOUND('',#67,.T.);
#19=FACE_BOUND('',#68,.T.);
#20=FACE_BOUND('',#69,.T.);
#21=FACE_BOUND('',#70,.T.);
#22=FACE_BOUND('',#71,.T.);
#23=FACE_BOUND('',#73,.T.);
#24=FACE_BOUND('',#74,.T.);
#25=FACE_BOUND('',#75,.T.);
#26=FACE_BOUND('',#76,.T.);
#27=FACE_BOUND('',#77,.T.);
#28=FACE_BOUND('',#78,.T.);
#29=FACE_BOUND('',#79,.T.);
#30=FACE_BOUND('',#80,.T.);
#31=PLANE('',#335);
#32=PLANE('',#336);
#33=PLANE('',#337);
#34=PLANE('',#338);
#35=PLANE('',#339);
#36=PLANE('',#340);
#37=FACE_OUTER_BOUND('',#51,.T.);
#38=FACE_OUTER_BOUND('',#52,.T.);
#39=FACE_OUTER_BOUND('',#53,.T.);
#40=FACE_OUTER_BOUND('',#54,.T.);
#41=FACE_OUTER_BOUND('',#55,.T.);
#42=FACE_OUTER_BOUND('',#56,.T.);
#43=FACE_OUTER_BOUND('',#57,.T.);
#44=FACE_OUTER_BOUND('',#58,.T.);
#45=FACE_OUTER_BOUND('',#59,.T.);
#46=FACE_OUTER_BOUND('',#60,.T.);
#47=FACE_OUTER_BOUND('',#61,.T.);
#48=FACE_OUTER_BOUND('',#62,.T.);
#49=FACE_OUTER_BOUND('',#63,.T.);
#50=FACE_OUTER_BOUND('',#72,.T.);
#51=EDGE_LOOP('',(#197,#198,#199,#200));
#52=EDGE_LOOP('',(#201,#202,#203,#204));
#53=EDGE_LOOP('',(#205,#206,#207,#208));
#54=EDGE_LOOP('',(#209,#210,#211,#212));
#55=EDGE_LOOP('',(#213,#214,#215,#216));
#56=EDGE_LOOP('',(#217,#218,#219,#220));
#57=EDGE_LOOP('',(#221,#222,#223,#224));
#58=EDGE_LOOP('',(#225,#226,#227,#228));
#59=EDGE_LOOP('',(#229,#230,#231,#232));
#60=EDGE_LOOP('',(#233,#234,#235,#236));
#61=EDGE_LOOP('',(#237,#238,#239,#240));
#62=EDGE_LOOP('',(#241,#242,#243,#244));
#63=EDGE_LOOP('',(#245,#246,#247,#248));
#64=EDGE_LOOP('',(#249));
#65=EDGE_LOOP('',(#250));
#66=EDGE_LOOP('',(#251));
#67=EDGE_LOOP('',(#252));
#68=EDGE_LOOP('',(#253));
#69=EDGE_LOOP('',(#254));
#70=EDGE_LOOP('',(#255));
#71=EDGE_LOOP('',(#256));
#72=EDGE_LOOP('',(#257,#258,#259,#260));
#73=EDGE_LOOP('',(#261));
#74=EDGE_LOOP('',(#262));
#75=EDGE_LOOP('',(#263));
#76=EDGE_LOOP('',(#264));
#77=EDGE_LOOP('',(#265));
#78=EDGE_LOOP('',(#266));
#79=EDGE_LOOP('',(#267));
#80=EDGE_LOOP('',(#268));
#81=LINE('',#428,#101);
#82=LINE('',#434,#102);
#83=LINE('',#440,#103);
#84=LINE('',#446,#104);
#85=LINE('',#452,#105);
#86=LINE('',#458,#106);
#87=LINE('',#464,#107);
#88=LINE('',#470,#108);
#89=LINE('',#475,#109);
#90=LINE('',#477,#110);
#91=LINE('',#479,#111);
#92=LINE('',#480,#112);
#93=LINE('',#483,#113);
#94=LINE('',#485,#114);
#95=LINE('',#486,#115);
#96=LINE('',#489,#116);
#97=LINE('',#491,#117);
#98=LINE('',#492,#118);
#99=LINE('',#494,#119);
#100=LINE('',#495,#120);
#101=VECTOR('',#347,2.);
#102=VECTOR('',#354,2.);
#103=VECTOR('',#361,2.);
#104=VECTOR('',#368,2.);
#105=VECTOR('',#375,2.);
#106=VECTOR('',#382,2.);
#107=VECTOR('',#389,2.);
#108=VECTOR('',#396,2.);
#109=VECTOR('',#401,10.);
#110=VECTOR('',#402,10.);
#111=VECTOR('',#403,10.);
#112=VECTOR('',#404,10.);
#113=VECTOR('',#407,10.);
#114=VECTOR('',#408,10.);
#115=VECTOR('',#409,10.);
#116=VECTOR('',#412,10.);
#117=VECTOR('',#413,10.);
#118=VECTOR('',#414,10.);
#119=VECTOR('',#417,10.);
#120=VECTOR('',#418,10.);
#121=CIRCLE('',#312,2.);
#122=CIRCLE('',#313,2.);
#123=CIRCLE('',#315,2.);
#124=CIRCLE('',#316,2.);
#125=CIRCLE('',#318,2.);
#126=CIRCLE('',#319,2.);
#127=CIRCLE('',#321,2.);
#128=CIRCLE('',#322,2.);
#129=CIRCLE('',#324,2.);
#130=CIRCLE('',#325,2.);
#131=CIRCLE('',#327,2.);
#132=CIRCLE('',#328,2.);
#133=CIRCLE('',#330,2.);
#134=CIRCLE('',#331,2.);
#135=CIRCLE('',#333,2.);
#136=CIRCLE('',#334,2.);
#137=VERTEX_POINT('',#425);
#138=VERTEX_POINT('',#427);
#139=VERTEX_POINT('',#431);
#140=VERTEX_POINT('',#433);
#141=VERTEX_POINT('',#437);
#142=VERTEX_POINT('',#439);
#143=VERTEX_POINT('',#443);
#144=VERTEX_POINT('',#445);
#145=VERTEX_POINT('',#449);
#146=VERTEX_POINT('',#451);
#147=VERTEX_POINT('',#455);
#148=VERTEX_POINT('',#457);
#149=VERTEX_POINT('',#461);
#150=VERTEX_POINT('',#463);
#151=VERTEX_POINT('',#467);
#152=VERTEX_POINT('',#469);
#153=VERTEX_POINT('',#473);
#154=VERTEX_POINT('',#474);
#155=VERTEX_POINT('',#476);
#156=VERTEX_POINT('',#478);
#157=VERTEX_POINT('',#482);
#158=VERTEX_POINT('',#484);
#159=VERTEX_POINT('',#488);
#160=VERTEX_POINT('',#490);
#161=EDGE_CURVE('',#137,#137,#121,.T.);
#162=EDGE_CURVE('',#137,#138,#81,.T.);
#163=EDGE_CURVE('',#138,#138,#122,.T.);
#164=EDGE_CURVE('',#139,#139,#123,.T.);
#165=EDGE_CURVE('',#139,#140,#82,.T.);
#166=EDGE_CURVE('',#140,#140,#124,.T.);
#167=EDGE_CURVE('',#141,#141,#125,.T.);
#168=EDGE_CURVE('',#141,#142,#83,.T.);
#169=EDGE_CURVE('',#142,#142,#126,.T.);
#170=EDGE_CURVE('',#143,#143,#127,.T.);
#171=EDGE_CURVE('',#143,#144,#84,.T.);
#172=EDGE_CURVE('',#144,#144,#128,.T.);
#173=EDGE_CURVE('',#145,#145,#129,.T.);
#174=EDGE_CURVE('',#145,#146,#85,.T.);
#175=EDGE_CURVE('',#146,#146,#130,.T.);
#176=EDGE_CURVE('',#147,#147,#131,.T.);
#177=EDGE_CURVE('',#147,#148,#86,.T.);
#178=EDGE_CURVE('',#148,#148,#132,.T.);
#179=EDGE_CURVE('',#149,#149,#133,.T.);
#180=EDGE_CURVE('',#149,#150,#87,.T.);
#181=EDGE_CURVE('',#150,#150,#134,.T.);
#182=EDGE_CURVE('',#151,#151,#135,.T.);
#183=EDGE_CURVE('',#151,#152,#88,.T.);
#184=EDGE_CURVE('',#152,#152,#136,.T.);
#185=EDGE_CURVE('',#153,#154,#89,.T.);
#186=EDGE_CURVE('',#154,#155,#90,.T.);
#187=EDGE_CURVE('',#156,#155,#91,.T.);
#188=EDGE_CURVE('',#153,#156,#92,.T.);
#189=EDGE_CURVE('',#157,#153,#93,.T.);
#190=EDGE_CURVE('',#158,#156,#94,.T.);
#191=EDGE_CURVE('',#157,#158,#95,.T.);
#192=EDGE_CURVE('',#159,#157,#96,.T.);
#193=EDGE_CURVE('',#160,#158,#97,.T.);
#194=EDGE_CURVE('',#159,#160,#98,.T.);
#195=EDGE_CURVE('',#154,#159,#99,.T.);
#196=EDGE_CURVE('',#155,#160,#100,.T.);
#197=ORIENTED_EDGE('',*,*,#161,.F.);
#198=ORIENTED_EDGE('',*,*,#162,.T.);
#199=ORIENTED_EDGE('',*,*,#163,.T.);
#200=ORIENTED_EDGE('',*,*,#162,.F.);
#201=ORIENTED_EDGE('',*,*,#164,.F.);
#202=ORIENTED_EDGE('',*,*,#165,.T.);
#203=ORIENTED_EDGE('',*,*,#166,.T.);
#204=ORIENTED_EDGE('',*,*,#165,.F.);
#205=ORIENTED_EDGE('',*,*,#167,.F.);
#206=ORIENTED_EDGE('',*,*,#168,.T.);
#207=ORIENTED_EDGE('',*,*,#169,.T.);
#208=ORIENTED_EDGE('',*,*,#168,.F.);
#209=ORIENTED_EDGE('',*,*,#170,.F.);
#210=ORIENTED_EDGE('',*,*,#171,.T.);
#211=ORIENTED_EDGE('',*,*,#172,.T.);
#212=ORIENTED_EDGE('',*,*,#171,.F.);
#213=ORIENTED_EDGE('',*,*,#173,.F.);
#214=ORIENTED_EDGE('',*,*,#174,.T.);
#215=ORIENTED_EDGE('',*,*,#175,.T.);
#216=ORIENTED_EDGE('',*,*,#174,.F.);
#217=ORIENTED_EDGE('',*,*,#176,.F.);
#218=ORIENTED_EDGE('',*,*,#177,.T.);
#219=ORIENTED_EDGE('',*,*,#178,.T.);
#220=ORIENTED_EDGE('',*,*,#177,.F.);
#221=ORIENTED_EDGE('',*,*,#179,.F.);
#222=ORIENTED_EDGE('',*,*,#180,.T.);
#223=ORIENTED_EDGE('',*,*,#181,.T.);
#224=ORIENTED_EDGE('',*,*,#180,.F.);
#225=ORIENTED_EDGE('',*,*,#182,.F.);
#226=ORIENTED_EDGE('',*,*,#183,.T.);
#227=ORIENTED_EDGE('',*,*,#184,.T.);
#228=ORIENTED_EDGE('',*,*,#183,.F.);
#229=ORIENTED_EDGE('',*,*,#185,.T.);
#230=ORIENTED_EDGE('',*,*,#186,.T.);
#231=ORIENTED_EDGE('',*,*,#187,.F.);
#232=ORIENTED_EDGE('',*,*,#188,.F.);
#233=ORIENTED_EDGE('',*,*,#189,.T.);
#234=ORIENTED_EDGE('',*,*,#188,.T.);
#235=ORIENTED_EDGE('',*,*,#190,.F.);
#236=ORIENTED_EDGE('',*,*,#191,.F.);
#237=ORIENTED_EDGE('',*,*,#192,.T.);
#238=ORIENTED_EDGE('',*,*,#191,.T.);
#239=ORIENTED_EDGE('',*,*,#193,.F.);
#240=ORIENTED_EDGE('',*,*,#194,.F.);
#241=ORIENTED_EDGE('',*,*,#195,.T.);
#242=ORIENTED_EDGE('',*,*,#194,.T.);
#243=ORIENTED_EDGE('',*,*,#196,.F.);
#244=ORIENTED_EDGE('',*,*,#186,.F.);
#245=ORIENTED_EDGE('',*,*,#196,.T.);
#246=ORIENTED_EDGE('',*,*,#193,.T.);
#247=ORIENTED_EDGE('',*,*,#190,.T.);
#248=ORIENTED_EDGE('',*,*,#187,.T.);
#249=ORIENTED_EDGE('',*,*,#182,.T.);
#250=ORIENTED_EDGE('',*,*,#179,.T.);
#251=ORIENTED_EDGE('',*,*,#176,.T.);
#252=ORIENTED_EDGE('',*,*,#173,.T.);
#253=ORIENTED_EDGE('',*,*,#170,.T.);
#254=ORIENTED_EDGE('',*,*,#167,.T.);
#255=ORIENTED_EDGE('',*,*,#164,.T.);
#256=ORIENTED_EDGE('',*,*,#161,.T.);
#257=ORIENTED_EDGE('',*,*,#195,.F.);
#258=ORIENTED_EDGE('',*,*,#185,.F.);
#259=ORIENTED_EDGE('',*,*,#189,.F.);
#260=ORIENTED_EDGE('',*,*,#192,.F.);
#261=ORIENTED_EDGE('',*,*,#184,.F.);
#262=ORIENTED_EDGE('',*,*,#181,.F.);
#263=ORIENTED_EDGE('',*,*,#178,.F.);
#264=ORIENTED_EDGE('',*,*,#175,.F.);
#265=ORIENTED_EDGE('',*,*,#172,.F.);
#266=ORIENTED_EDGE('',*,*,#169,.F.);
#267=ORIENTED_EDGE('',*,*,#166,.F.);
#268=ORIENTED_EDGE('',*,*,#163,.F.);
#269=CYLINDRICAL_SURFACE('',#311,2.);
#270=CYLINDRICAL_SURFACE('',#314,2.);
#271=CYLINDRICAL_SURFACE('',#317,2.);
#272=CYLINDRICAL_SURFACE('',#320,2.);
#273=CYLINDRICAL_SURFACE('',#323,2.);
#274=CYLINDRICAL_SURFACE('',#326,2.);
#275=CYLINDRICAL_SURFACE('',#329,2.);
#276=CYLINDRICAL_SURFACE('',#332,2.);
#277=ADVANCED_FACE('',(#37),#269,.F.);
#278=ADVANCED_FACE('',(#38),#270,.F.);
#279=ADVANCED_FACE('',(#39),#271,.F.);
#280=ADVANCED_FACE('',(#40),#272,.F.);
#281=ADVANCED_FACE('',(#41),#273,.F.);
#282=ADVANCED_FACE('',(#42),#274,.F.);
#283=ADVANCED_FACE('',(#43),#275,.F.);
#284=ADVANCED_FACE('',(#44),#276,.F.);
#285=ADVANCED_FACE('',(#45),#31,.T.);
#286=ADVANCED_FACE('',(#46),#32,.T.);
#287=ADVANCED_FACE('',(#47),#33,.T.);
#288=ADVANCED_FACE('',(#48),#34,.T.);
#289=ADVANCED_FACE('',(#49,#15,#16,#17,#18,#19,#20,#21,#22),#35,.T.);
#290=ADVANCED_FACE('',(#50,#23,#24,#25,#26,#27,#28,#29,#30),#36,.F.);
#291=CLOSED_SHELL('',(#277,#278,#279,#280,#281,#282,#283,#284,#285,#286,
#287,#288,#289,#290));
#292=DERIVED_UNIT_ELEMENT(#294,1.);
#293=DERIVED_UNIT_ELEMENT(#503,3.);
#294=(
MASS_UNIT()
NAMED_UNIT(*)
SI_UNIT($,.GRAM.)
);
#295=DERIVED_UNIT((#292,#293));
#296=MEASURE_REPRESENTATION_ITEM('density measure',
POSITIVE_RATIO_MEASURE(1.188),#295);
#297=PROPERTY_DEFINITION_REPRESENTATION(#302,#299);
#298=PROPERTY_DEFINITION_REPRESENTATION(#303,#300);
#299=REPRESENTATION('material name',(#301),#500);
#300=REPRESENTATION('density',(#296),#500);
#301=DESCRIPTIVE_REPRESENTATION_ITEM('PMMA Plastic','PMMA Plastic');
#302=PROPERTY_DEFINITION('material property','material name',#510);
#303=PROPERTY_DEFINITION('material property','density of part',#510);
#304=DATE_TIME_ROLE('creation_date');
#305=APPLIED_DATE_AND_TIME_ASSIGNMENT(#306,#304,(#510));
#306=DATE_AND_TIME(#307,#308);
#307=CALENDAR_DATE(2023,22,10);
#308=LOCAL_TIME(0,0,0.,#309);
#309=COORDINATED_UNIVERSAL_TIME_OFFSET(0,0,.BEHIND.);
#310=AXIS2_PLACEMENT_3D('placement',#423,#341,#342);
#311=AXIS2_PLACEMENT_3D('',#424,#343,#344);
#312=AXIS2_PLACEMENT_3D('',#426,#345,#346);
#313=AXIS2_PLACEMENT_3D('',#429,#348,#349);
#314=AXIS2_PLACEMENT_3D('',#430,#350,#351);
#315=AXIS2_PLACEMENT_3D('',#432,#352,#353);
#316=AXIS2_PLACEMENT_3D('',#435,#355,#356);
#317=AXIS2_PLACEMENT_3D('',#436,#357,#358);
#318=AXIS2_PLACEMENT_3D('',#438,#359,#360);
#319=AXIS2_PLACEMENT_3D('',#441,#362,#363);
#320=AXIS2_PLACEMENT_3D('',#442,#364,#365);
#321=AXIS2_PLACEMENT_3D('',#444,#366,#367);
#322=AXIS2_PLACEMENT_3D('',#447,#369,#370);
#323=AXIS2_PLACEMENT_3D('',#448,#371,#372);
#324=AXIS2_PLACEMENT_3D('',#450,#373,#374);
#325=AXIS2_PLACEMENT_3D('',#453,#376,#377);
#326=AXIS2_PLACEMENT_3D('',#454,#378,#379);
#327=AXIS2_PLACEMENT_3D('',#456,#380,#381);
#328=AXIS2_PLACEMENT_3D('',#459,#383,#384);
#329=AXIS2_PLACEMENT_3D('',#460,#385,#386);
#330=AXIS2_PLACEMENT_3D('',#462,#387,#388);
#331=AXIS2_PLACEMENT_3D('',#465,#390,#391);
#332=AXIS2_PLACEMENT_3D('',#466,#392,#393);
#333=AXIS2_PLACEMENT_3D('',#468,#394,#395);
#334=AXIS2_PLACEMENT_3D('',#471,#397,#398);
#335=AXIS2_PLACEMENT_3D('',#472,#399,#400);
#336=AXIS2_PLACEMENT_3D('',#481,#405,#406);
#337=AXIS2_PLACEMENT_3D('',#487,#410,#411);
#338=AXIS2_PLACEMENT_3D('',#493,#415,#416);
#339=AXIS2_PLACEMENT_3D('',#496,#419,#420);
#340=AXIS2_PLACEMENT_3D('',#497,#421,#422);
#341=DIRECTION('axis',(0.,0.,1.));
#342=DIRECTION('refdir',(1.,0.,0.));
#343=DIRECTION('center_axis',(0.,0.,1.));
#344=DIRECTION('ref_axis',(-1.,0.,0.));
#345=DIRECTION('center_axis',(0.,0.,-1.));
#346=DIRECTION('ref_axis',(-1.,0.,0.));
#347=DIRECTION('',(0.,0.,-1.));
#348=DIRECTION('center_axis',(0.,0.,-1.));
#349=DIRECTION('ref_axis',(-1.,0.,0.));
#350=DIRECTION('center_axis',(0.,0.,1.));
#351=DIRECTION('ref_axis',(-1.,0.,0.));
#352=DIRECTION('center_axis',(0.,0.,-1.));
#353=DIRECTION('ref_axis',(-1.,0.,0.));
#354=DIRECTION('',(0.,0.,-1.));
#355=DIRECTION('center_axis',(0.,0.,-1.));
#356=DIRECTION('ref_axis',(-1.,0.,0.));
#357=DIRECTION('center_axis',(0.,0.,1.));
#358=DIRECTION('ref_axis',(-1.,0.,0.));
#359=DIRECTION('center_axis',(0.,0.,-1.));
#360=DIRECTION('ref_axis',(-1.,0.,0.));
#361=DIRECTION('',(0.,0.,-1.));
#362=DIRECTION('center_axis',(0.,0.,-1.));
#363=DIRECTION('ref_axis',(-1.,0.,0.));
#364=DIRECTION('center_axis',(0.,0.,1.));
#365=DIRECTION('ref_axis',(-1.,0.,0.));
#366=DIRECTION('center_axis',(0.,0.,-1.));
#367=DIRECTION('ref_axis',(-1.,0.,0.));
#368=DIRECTION('',(0.,0.,-1.));
#369=DIRECTION('center_axis',(0.,0.,-1.));
#370=DIRECTION('ref_axis',(-1.,0.,0.));
#371=DIRECTION('center_axis',(0.,0.,1.));
#372=DIRECTION('ref_axis',(-1.,0.,0.));
#373=DIRECTION('center_axis',(0.,0.,-1.));
#374=DIRECTION('ref_axis',(-1.,0.,0.));
#375=DIRECTION('',(0.,0.,-1.));
#376=DIRECTION('center_axis',(0.,0.,-1.));
#377=DIRECTION('ref_axis',(-1.,0.,0.));
#378=DIRECTION('center_axis',(0.,0.,1.));
#379=DIRECTION('ref_axis',(-1.,0.,0.));
#380=DIRECTION('center_axis',(0.,0.,-1.));
#381=DIRECTION('ref_axis',(-1.,0.,0.));
#382=DIRECTION('',(0.,0.,-1.));
#383=DIRECTION('center_axis',(0.,0.,-1.));
#384=DIRECTION('ref_axis',(-1.,0.,0.));
#385=DIRECTION('center_axis',(0.,0.,1.));
#386=DIRECTION('ref_axis',(-1.,0.,0.));
#387=DIRECTION('center_axis',(0.,0.,-1.));
#388=DIRECTION('ref_axis',(-1.,0.,0.));
#389=DIRECTION('',(0.,0.,-1.));
#390=DIRECTION('center_axis',(0.,0.,-1.));
#391=DIRECTION('ref_axis',(-1.,0.,0.));
#392=DIRECTION('center_axis',(0.,0.,1.));
#393=DIRECTION('ref_axis',(-1.,0.,0.));
#394=DIRECTION('center_axis',(0.,0.,-1.));
#395=DIRECTION('ref_axis',(-1.,0.,0.));
#396=DIRECTION('',(0.,0.,-1.));
#397=DIRECTION('center_axis',(0.,0.,-1.));
#398=DIRECTION('ref_axis',(-1.,0.,0.));
#399=DIRECTION('center_axis',(-1.,2.01311524344682E-15,0.));
#400=DIRECTION('ref_axis',(-2.01311524344682E-15,-1.,0.));
#401=DIRECTION('',(-2.01311524344682E-15,-1.,0.));
#402=DIRECTION('',(0.,0.,1.));
#403=DIRECTION('',(-2.01311524344682E-15,-1.,0.));
#404=DIRECTION('',(0.,0.,1.));
#405=DIRECTION('center_axis',(0.,1.,0.));
#406=DIRECTION('ref_axis',(-1.,0.,0.));
#407=DIRECTION('',(-1.,0.,0.));
#408=DIRECTION('',(-1.,0.,0.));
#409=DIRECTION('',(0.,0.,1.));
#410=DIRECTION('center_axis',(1.,2.99626454838595E-15,0.));
#411=DIRECTION('ref_axis',(-2.99626454838595E-15,1.,0.));
#412=DIRECTION('',(-2.99626454838595E-15,1.,0.));
#413=DIRECTION('',(-2.99626454838595E-15,1.,0.));
#414=DIRECTION('',(0.,0.,1.));
#415=DIRECTION('center_axis',(-7.4860752517582E-15,-1.,0.));
#416=DIRECTION('ref_axis',(1.,-7.4860752517582E-15,0.));
#417=DIRECTION('',(1.,-7.4860752517582E-15,0.));
#418=DIRECTION('',(1.,-7.4860752517582E-15,0.));
#419=DIRECTION('center_axis',(0.,0.,1.));
#420=DIRECTION('ref_axis',(1.,0.,0.));
#421=DIRECTION('center_axis',(0.,0.,1.));
#422=DIRECTION('ref_axis',(1.,0.,0.));
#423=CARTESIAN_POINT('',(0.,0.,0.));
#424=CARTESIAN_POINT('Origin',(48.0000000000007,-20.499999999998,0.));
#425=CARTESIAN_POINT('',(50.0000000000007,-20.499999999998,3.));
#426=CARTESIAN_POINT('Origin',(48.0000000000007,-20.499999999998,3.));
#427=CARTESIAN_POINT('',(50.0000000000007,-20.499999999998,0.));
#428=CARTESIAN_POINT('',(50.0000000000007,-20.499999999998,0.));
#429=CARTESIAN_POINT('Origin',(48.0000000000007,-20.499999999998,0.));
#430=CARTESIAN_POINT('Origin',(28.0000000000007,-46.499999999998,0.));
#431=CARTESIAN_POINT('',(30.0000000000007,-46.499999999998,3.));
#432=CARTESIAN_POINT('Origin',(28.0000000000007,-46.499999999998,3.));
#433=CARTESIAN_POINT('',(30.0000000000007,-46.499999999998,0.));
#434=CARTESIAN_POINT('',(30.0000000000007,-46.499999999998,0.));
#435=CARTESIAN_POINT('Origin',(28.0000000000007,-46.499999999998,0.));
#436=CARTESIAN_POINT('Origin',(63.0000000000004,-1.99999999999784,0.));
#437=CARTESIAN_POINT('',(65.0000000000004,-1.99999999999784,3.));
#438=CARTESIAN_POINT('Origin',(63.0000000000004,-1.99999999999784,3.));
#439=CARTESIAN_POINT('',(65.0000000000004,-1.99999999999784,0.));
#440=CARTESIAN_POINT('',(65.0000000000004,-1.99999999999784,0.));
#441=CARTESIAN_POINT('Origin',(63.0000000000004,-1.99999999999784,0.));
#442=CARTESIAN_POINT('Origin',(63.0000000000006,-64.9999999999983,0.));
#443=CARTESIAN_POINT('',(65.0000000000006,-64.9999999999983,3.));
#444=CARTESIAN_POINT('Origin',(63.0000000000006,-64.9999999999983,3.));
#445=CARTESIAN_POINT('',(65.0000000000006,-64.9999999999983,0.));
#446=CARTESIAN_POINT('',(65.0000000000006,-64.9999999999983,0.));
#447=CARTESIAN_POINT('Origin',(63.0000000000006,-64.9999999999983,0.));
#448=CARTESIAN_POINT('Origin',(13.0000000000008,-1.99999999999784,0.));
#449=CARTESIAN_POINT('',(15.0000000000008,-1.99999999999784,3.));
#450=CARTESIAN_POINT('Origin',(13.0000000000008,-1.99999999999784,3.));
#451=CARTESIAN_POINT('',(15.0000000000008,-1.99999999999784,0.));
#452=CARTESIAN_POINT('',(15.0000000000008,-1.99999999999784,0.));
#453=CARTESIAN_POINT('Origin',(13.0000000000008,-1.99999999999784,0.));
#454=CARTESIAN_POINT('Origin',(13.0000000000007,-64.9999999999979,0.));
#455=CARTESIAN_POINT('',(15.0000000000007,-64.9999999999979,3.));
#456=CARTESIAN_POINT('Origin',(13.0000000000007,-64.9999999999979,3.));
#457=CARTESIAN_POINT('',(15.0000000000007,-64.9999999999979,0.));
#458=CARTESIAN_POINT('',(15.0000000000007,-64.9999999999979,0.));
#459=CARTESIAN_POINT('Origin',(13.0000000000007,-64.9999999999979,0.));
#460=CARTESIAN_POINT('Origin',(48.0000000000007,-46.499999999998,0.));
#461=CARTESIAN_POINT('',(50.0000000000007,-46.499999999998,3.));
#462=CARTESIAN_POINT('Origin',(48.0000000000007,-46.499999999998,3.));
#463=CARTESIAN_POINT('',(50.0000000000007,-46.499999999998,0.));
#464=CARTESIAN_POINT('',(50.0000000000007,-46.499999999998,0.));
#465=CARTESIAN_POINT('Origin',(48.0000000000007,-46.499999999998,0.));
#466=CARTESIAN_POINT('Origin',(28.0000000000007,-20.499999999998,0.));
#467=CARTESIAN_POINT('',(30.0000000000007,-20.499999999998,3.));
#468=CARTESIAN_POINT('Origin',(28.0000000000007,-20.499999999998,3.));
#469=CARTESIAN_POINT('',(30.0000000000007,-20.499999999998,0.));
#470=CARTESIAN_POINT('',(30.0000000000007,-20.499999999998,0.));
#471=CARTESIAN_POINT('Origin',(28.0000000000007,-20.499999999998,0.));
#472=CARTESIAN_POINT('Origin',(3.0000000000008,8.00000000000216,0.));
#473=CARTESIAN_POINT('',(3.0000000000008,8.00000000000216,0.));
#474=CARTESIAN_POINT('',(3.00000000000064,-74.9999999999978,0.));
#475=CARTESIAN_POINT('',(3.0000000000008,8.00000000000216,0.));
#476=CARTESIAN_POINT('',(3.00000000000064,-74.9999999999978,3.));
#477=CARTESIAN_POINT('',(3.00000000000064,-74.9999999999978,0.));
#478=CARTESIAN_POINT('',(3.0000000000008,8.00000000000216,3.));
#479=CARTESIAN_POINT('',(3.0000000000008,8.00000000000216,3.));
#480=CARTESIAN_POINT('',(3.0000000000008,8.00000000000216,0.));
#481=CARTESIAN_POINT('Origin',(73.0000000000004,8.00000000000216,0.));
#482=CARTESIAN_POINT('',(73.0000000000004,8.00000000000216,0.));
#483=CARTESIAN_POINT('',(73.0000000000004,8.00000000000216,0.));
#484=CARTESIAN_POINT('',(73.0000000000004,8.00000000000216,3.));
#485=CARTESIAN_POINT('',(73.0000000000004,8.00000000000216,3.));
#486=CARTESIAN_POINT('',(73.0000000000004,8.00000000000216,0.));
#487=CARTESIAN_POINT('Origin',(73.0000000000006,-74.9999999999984,0.));
#488=CARTESIAN_POINT('',(73.0000000000006,-74.9999999999984,0.));
#489=CARTESIAN_POINT('',(73.0000000000006,-74.9999999999984,0.));
#490=CARTESIAN_POINT('',(73.0000000000006,-74.9999999999984,3.));
#491=CARTESIAN_POINT('',(73.0000000000006,-74.9999999999984,3.));
#492=CARTESIAN_POINT('',(73.0000000000006,-74.9999999999984,0.));
#493=CARTESIAN_POINT('Origin',(3.00000000000064,-74.9999999999978,0.));
#494=CARTESIAN_POINT('',(3.00000000000064,-74.9999999999978,0.));
#495=CARTESIAN_POINT('',(3.00000000000064,-74.9999999999978,3.));
#496=CARTESIAN_POINT('Origin',(38.0000000000006,-33.4999999999981,3.));
#497=CARTESIAN_POINT('Origin',(38.0000000000006,-33.4999999999981,0.));
#498=UNCERTAINTY_MEASURE_WITH_UNIT(LENGTH_MEASURE(0.01),#502,
'DISTANCE_ACCURACY_VALUE',
'Maximum model space distance between geometric entities at asserted c
onnectivities');
#499=UNCERTAINTY_MEASURE_WITH_UNIT(LENGTH_MEASURE(0.01),#502,
'DISTANCE_ACCURACY_VALUE',
'Maximum model space distance between geometric entities at asserted c
onnectivities');
#500=(
GEOMETRIC_REPRESENTATION_CONTEXT(3)
GLOBAL_UNCERTAINTY_ASSIGNED_CONTEXT((#498))
GLOBAL_UNIT_ASSIGNED_CONTEXT((#502,#504,#505))
REPRESENTATION_CONTEXT('','3D')
);
#501=(
GEOMETRIC_REPRESENTATION_CONTEXT(3)
GLOBAL_UNCERTAINTY_ASSIGNED_CONTEXT((#499))
GLOBAL_UNIT_ASSIGNED_CONTEXT((#502,#504,#505))
REPRESENTATION_CONTEXT('','3D')
);
#502=(
LENGTH_UNIT()
NAMED_UNIT(*)
SI_UNIT(.MILLI.,.METRE.)
);
#503=(
LENGTH_UNIT()
NAMED_UNIT(*)
SI_UNIT(.CENTI.,.METRE.)
);
#504=(
NAMED_UNIT(*)
PLANE_ANGLE_UNIT()
SI_UNIT($,.RADIAN.)
);
#505=(
NAMED_UNIT(*)
SI_UNIT($,.STERADIAN.)
SOLID_ANGLE_UNIT()
);
#506=SHAPE_DEFINITION_REPRESENTATION(#507,#508);
#507=PRODUCT_DEFINITION_SHAPE('',$,#510);
#508=SHAPE_REPRESENTATION('',(#310),#500);
#509=PRODUCT_DEFINITION_CONTEXT('part definition',#514,'design');
#510=PRODUCT_DEFINITION('BaseC_8','BaseC_8',#511,#509);
#511=PRODUCT_DEFINITION_FORMATION('',$,#516);
#512=PRODUCT_RELATED_PRODUCT_CATEGORY('BaseC_8','BaseC_8',(#516));
#513=APPLICATION_PROTOCOL_DEFINITION('international standard',
'automotive_design',2009,#514);
#514=APPLICATION_CONTEXT(
'Core Data for Automotive Mechanical Design Process');
#515=PRODUCT_CONTEXT('part definition',#514,'mechanical');
#516=PRODUCT('BaseC_8','BaseC_8',$,(#515));
#517=PRESENTATION_STYLE_ASSIGNMENT((#518));
#518=SURFACE_STYLE_USAGE(.BOTH.,#521);
#519=SURFACE_STYLE_RENDERING_WITH_PROPERTIES($,#525,(#520));
#520=SURFACE_STYLE_TRANSPARENT(0.53999999165535);
#521=SURFACE_SIDE_STYLE('',(#522,#519));
#522=SURFACE_STYLE_FILL_AREA(#523);
#523=FILL_AREA_STYLE('',(#524));
#524=FILL_AREA_STYLE_COLOUR('',#525);
#525=COLOUR_RGB('',0.8,0.8,0.8);
ENDSEC;
END-ISO-10303-21;
