ISO-10303-21;
HEADER;
/* Generated by software containing ST-Developer
 * from STEP Tools, Inc. (www.steptools.com) 
 */

FILE_DESCRIPTION(
/* description */ (''),
/* implementation_level */ '2;1');

FILE_NAME(
/* name */ 
'I:\\ASU_FOE\\graduation project\\quadcopter\\matlab xml\\231123\\\\Ba
seC_3_ipt_c71fdd73.STEP',
/* time_stamp */ '2023-11-23T19:53:36+02:00',
/* author */ ('user'),
/* organization */ (''),
/* preprocessor_version */ 'ST-DEVELOPER v18.1',
/* originating_system */ 'Autodesk Inventor 2021',
/* authorisation */ '');

FILE_SCHEMA (('AUTOMOTIVE_DESIGN { 1 0 10303 214 3 1 1 }'));
ENDSEC;

DATA;
#10=MECHANICAL_DESIGN_GEOMETRIC_PRESENTATION_REPRESENTATION('',(#13),#384);
#11=SHAPE_REPRESENTATION_RELATIONSHIP('SRR','None',#391,#12);
#12=ADVANCED_BREP_SHAPE_REPRESENTATION('',(#14),#383);
#13=STYLED_ITEM('',(#400),#14);
#14=MANIFOLD_SOLID_BREP('Solid1',#222);
#15=FACE_BOUND('',#52,.T.);
#16=FACE_BOUND('',#53,.T.);
#17=FACE_BOUND('',#54,.T.);
#18=FACE_BOUND('',#55,.T.);
#19=FACE_BOUND('',#56,.T.);
#20=FACE_BOUND('',#58,.T.);
#21=FACE_BOUND('',#59,.T.);
#22=FACE_BOUND('',#60,.T.);
#23=FACE_BOUND('',#61,.T.);
#24=FACE_BOUND('',#62,.T.);
#25=PLANE('',#257);
#26=PLANE('',#258);
#27=PLANE('',#259);
#28=PLANE('',#260);
#29=PLANE('',#261);
#30=PLANE('',#262);
#31=FACE_OUTER_BOUND('',#42,.T.);
#32=FACE_OUTER_BOUND('',#43,.T.);
#33=FACE_OUTER_BOUND('',#44,.T.);
#34=FACE_OUTER_BOUND('',#45,.T.);
#35=FACE_OUTER_BOUND('',#46,.T.);
#36=FACE_OUTER_BOUND('',#47,.T.);
#37=FACE_OUTER_BOUND('',#48,.T.);
#38=FACE_OUTER_BOUND('',#49,.T.);
#39=FACE_OUTER_BOUND('',#50,.T.);
#40=FACE_OUTER_BOUND('',#51,.T.);
#41=FACE_OUTER_BOUND('',#57,.T.);
#42=EDGE_LOOP('',(#152,#153,#154,#155));
#43=EDGE_LOOP('',(#156,#157,#158,#159));
#44=EDGE_LOOP('',(#160,#161,#162,#163));
#45=EDGE_LOOP('',(#164,#165,#166,#167));
#46=EDGE_LOOP('',(#168,#169,#170,#171));
#47=EDGE_LOOP('',(#172,#173,#174,#175));
#48=EDGE_LOOP('',(#176,#177,#178,#179));
#49=EDGE_LOOP('',(#180,#181,#182,#183));
#50=EDGE_LOOP('',(#184,#185,#186,#187));
#51=EDGE_LOOP('',(#188,#189,#190,#191));
#52=EDGE_LOOP('',(#192));
#53=EDGE_LOOP('',(#193));
#54=EDGE_LOOP('',(#194));
#55=EDGE_LOOP('',(#195));
#56=EDGE_LOOP('',(#196));
#57=EDGE_LOOP('',(#197,#198,#199,#200));
#58=EDGE_LOOP('',(#201));
#59=EDGE_LOOP('',(#202));
#60=EDGE_LOOP('',(#203));
#61=EDGE_LOOP('',(#204));
#62=EDGE_LOOP('',(#205));
#63=LINE('',#329,#80);
#64=LINE('',#335,#81);
#65=LINE('',#341,#82);
#66=LINE('',#347,#83);
#67=LINE('',#353,#84);
#68=LINE('',#358,#85);
#69=LINE('',#360,#86);
#70=LINE('',#362,#87);
#71=LINE('',#363,#88);
#72=LINE('',#366,#89);
#73=LINE('',#368,#90);
#74=LINE('',#369,#91);
#75=LINE('',#372,#92);
#76=LINE('',#374,#93);
#77=LINE('',#375,#94);
#78=LINE('',#377,#95);
#79=LINE('',#378,#96);
#80=VECTOR('',#269,2.);
#81=VECTOR('',#276,2.);
#82=VECTOR('',#283,15.);
#83=VECTOR('',#290,2.);
#84=VECTOR('',#297,2.);
#85=VECTOR('',#302,10.);
#86=VECTOR('',#303,10.);
#87=VECTOR('',#304,10.);
#88=VECTOR('',#305,10.);
#89=VECTOR('',#308,10.);
#90=VECTOR('',#309,10.);
#91=VECTOR('',#310,10.);
#92=VECTOR('',#313,10.);
#93=VECTOR('',#314,10.);
#94=VECTOR('',#315,10.);
#95=VECTOR('',#318,10.);
#96=VECTOR('',#319,10.);
#97=CIRCLE('',#243,2.);
#98=CIRCLE('',#244,2.);
#99=CIRCLE('',#246,2.);
#100=CIRCLE('',#247,2.);
#101=CIRCLE('',#249,15.);
#102=CIRCLE('',#250,15.);
#103=CIRCLE('',#252,2.);
#104=CIRCLE('',#253,2.);
#105=CIRCLE('',#255,2.);
#106=CIRCLE('',#256,2.);
#107=VERTEX_POINT('',#326);
#108=VERTEX_POINT('',#328);
#109=VERTEX_POINT('',#332);
#110=VERTEX_POINT('',#334);
#111=VERTEX_POINT('',#338);
#112=VERTEX_POINT('',#340);
#113=VERTEX_POINT('',#344);
#114=VERTEX_POINT('',#346);
#115=VERTEX_POINT('',#350);
#116=VERTEX_POINT('',#352);
#117=VERTEX_POINT('',#356);
#118=VERTEX_POINT('',#357);
#119=VERTEX_POINT('',#359);
#120=VERTEX_POINT('',#361);
#121=VERTEX_POINT('',#365);
#122=VERTEX_POINT('',#367);
#123=VERTEX_POINT('',#371);
#124=VERTEX_POINT('',#373);
#125=EDGE_CURVE('',#107,#107,#97,.T.);
#126=EDGE_CURVE('',#107,#108,#63,.T.);
#127=EDGE_CURVE('',#108,#108,#98,.T.);
#128=EDGE_CURVE('',#109,#109,#99,.T.);
#129=EDGE_CURVE('',#109,#110,#64,.T.);
#130=EDGE_CURVE('',#110,#110,#100,.T.);
#131=EDGE_CURVE('',#111,#111,#101,.T.);
#132=EDGE_CURVE('',#111,#112,#65,.T.);
#133=EDGE_CURVE('',#112,#112,#102,.T.);
#134=EDGE_CURVE('',#113,#113,#103,.T.);
#135=EDGE_CURVE('',#113,#114,#66,.T.);
#136=EDGE_CURVE('',#114,#114,#104,.T.);
#137=EDGE_CURVE('',#115,#115,#105,.T.);
#138=EDGE_CURVE('',#115,#116,#67,.T.);
#139=EDGE_CURVE('',#116,#116,#106,.T.);
#140=EDGE_CURVE('',#117,#118,#68,.T.);
#141=EDGE_CURVE('',#118,#119,#69,.T.);
#142=EDGE_CURVE('',#120,#119,#70,.T.);
#143=EDGE_CURVE('',#117,#120,#71,.T.);
#144=EDGE_CURVE('',#121,#117,#72,.T.);
#145=EDGE_CURVE('',#122,#120,#73,.T.);
#146=EDGE_CURVE('',#121,#122,#74,.T.);
#147=EDGE_CURVE('',#123,#121,#75,.T.);
#148=EDGE_CURVE('',#124,#122,#76,.T.);
#149=EDGE_CURVE('',#123,#124,#77,.T.);
#150=EDGE_CURVE('',#118,#123,#78,.T.);
#151=EDGE_CURVE('',#119,#124,#79,.T.);
#152=ORIENTED_EDGE('',*,*,#125,.F.);
#153=ORIENTED_EDGE('',*,*,#126,.T.);
#154=ORIENTED_EDGE('',*,*,#127,.T.);
#155=ORIENTED_EDGE('',*,*,#126,.F.);
#156=ORIENTED_EDGE('',*,*,#128,.F.);
#157=ORIENTED_EDGE('',*,*,#129,.T.);
#158=ORIENTED_EDGE('',*,*,#130,.T.);
#159=ORIENTED_EDGE('',*,*,#129,.F.);
#160=ORIENTED_EDGE('',*,*,#131,.F.);
#161=ORIENTED_EDGE('',*,*,#132,.T.);
#162=ORIENTED_EDGE('',*,*,#133,.T.);
#163=ORIENTED_EDGE('',*,*,#132,.F.);
#164=ORIENTED_EDGE('',*,*,#134,.F.);
#165=ORIENTED_EDGE('',*,*,#135,.T.);
#166=ORIENTED_EDGE('',*,*,#136,.T.);
#167=ORIENTED_EDGE('',*,*,#135,.F.);
#168=ORIENTED_EDGE('',*,*,#137,.F.);
#169=ORIENTED_EDGE('',*,*,#138,.T.);
#170=ORIENTED_EDGE('',*,*,#139,.T.);
#171=ORIENTED_EDGE('',*,*,#138,.F.);
#172=ORIENTED_EDGE('',*,*,#140,.T.);
#173=ORIENTED_EDGE('',*,*,#141,.T.);
#174=ORIENTED_EDGE('',*,*,#142,.F.);
#175=ORIENTED_EDGE('',*,*,#143,.F.);
#176=ORIENTED_EDGE('',*,*,#144,.T.);
#177=ORIENTED_EDGE('',*,*,#143,.T.);
#178=ORIENTED_EDGE('',*,*,#145,.F.);
#179=ORIENTED_EDGE('',*,*,#146,.F.);
#180=ORIENTED_EDGE('',*,*,#147,.T.);
#181=ORIENTED_EDGE('',*,*,#146,.T.);
#182=ORIENTED_EDGE('',*,*,#148,.F.);
#183=ORIENTED_EDGE('',*,*,#149,.F.);
#184=ORIENTED_EDGE('',*,*,#150,.T.);
#185=ORIENTED_EDGE('',*,*,#149,.T.);
#186=ORIENTED_EDGE('',*,*,#151,.F.);
#187=ORIENTED_EDGE('',*,*,#141,.F.);
#188=ORIENTED_EDGE('',*,*,#151,.T.);
#189=ORIENTED_EDGE('',*,*,#148,.T.);
#190=ORIENTED_EDGE('',*,*,#145,.T.);
#191=ORIENTED_EDGE('',*,*,#142,.T.);
#192=ORIENTED_EDGE('',*,*,#137,.T.);
#193=ORIENTED_EDGE('',*,*,#134,.T.);
#194=ORIENTED_EDGE('',*,*,#131,.T.);
#195=ORIENTED_EDGE('',*,*,#128,.T.);
#196=ORIENTED_EDGE('',*,*,#125,.T.);
#197=ORIENTED_EDGE('',*,*,#150,.F.);
#198=ORIENTED_EDGE('',*,*,#140,.F.);
#199=ORIENTED_EDGE('',*,*,#144,.F.);
#200=ORIENTED_EDGE('',*,*,#147,.F.);
#201=ORIENTED_EDGE('',*,*,#139,.F.);
#202=ORIENTED_EDGE('',*,*,#136,.F.);
#203=ORIENTED_EDGE('',*,*,#133,.F.);
#204=ORIENTED_EDGE('',*,*,#130,.F.);
#205=ORIENTED_EDGE('',*,*,#127,.F.);
#206=CYLINDRICAL_SURFACE('',#242,2.);
#207=CYLINDRICAL_SURFACE('',#245,2.);
#208=CYLINDRICAL_SURFACE('',#248,15.);
#209=CYLINDRICAL_SURFACE('',#251,2.);
#210=CYLINDRICAL_SURFACE('',#254,2.);
#211=ADVANCED_FACE('',(#31),#206,.F.);
#212=ADVANCED_FACE('',(#32),#207,.F.);
#213=ADVANCED_FACE('',(#33),#208,.F.);
#214=ADVANCED_FACE('',(#34),#209,.F.);
#215=ADVANCED_FACE('',(#35),#210,.F.);
#216=ADVANCED_FACE('',(#36),#25,.T.);
#217=ADVANCED_FACE('',(#37),#26,.T.);
#218=ADVANCED_FACE('',(#38),#27,.T.);
#219=ADVANCED_FACE('',(#39),#28,.T.);
#220=ADVANCED_FACE('',(#40,#15,#16,#17,#18,#19),#29,.T.);
#221=ADVANCED_FACE('',(#41,#20,#21,#22,#23,#24),#30,.F.);
#222=CLOSED_SHELL('',(#211,#212,#213,#214,#215,#216,#217,#218,#219,#220,
#221));
#223=DERIVED_UNIT_ELEMENT(#225,1.);
#224=DERIVED_UNIT_ELEMENT(#386,3.);
#225=(
MASS_UNIT()
NAMED_UNIT(*)
SI_UNIT($,.GRAM.)
);
#226=DERIVED_UNIT((#223,#224));
#227=MEASURE_REPRESENTATION_ITEM('density measure',
POSITIVE_RATIO_MEASURE(1.188),#226);
#228=PROPERTY_DEFINITION_REPRESENTATION(#233,#230);
#229=PROPERTY_DEFINITION_REPRESENTATION(#234,#231);
#230=REPRESENTATION('material name',(#232),#383);
#231=REPRESENTATION('density',(#227),#383);
#232=DESCRIPTIVE_REPRESENTATION_ITEM('PMMA Plastic','PMMA Plastic');
#233=PROPERTY_DEFINITION('material property','material name',#393);
#234=PROPERTY_DEFINITION('material property','density of part',#393);
#235=DATE_TIME_ROLE('creation_date');
#236=APPLIED_DATE_AND_TIME_ASSIGNMENT(#237,#235,(#393));
#237=DATE_AND_TIME(#238,#239);
#238=CALENDAR_DATE(2023,20,10);
#239=LOCAL_TIME(0,0,0.,#240);
#240=COORDINATED_UNIVERSAL_TIME_OFFSET(0,0,.BEHIND.);
#241=AXIS2_PLACEMENT_3D('placement',#324,#263,#264);
#242=AXIS2_PLACEMENT_3D('',#325,#265,#266);
#243=AXIS2_PLACEMENT_3D('',#327,#267,#268);
#244=AXIS2_PLACEMENT_3D('',#330,#270,#271);
#245=AXIS2_PLACEMENT_3D('',#331,#272,#273);
#246=AXIS2_PLACEMENT_3D('',#333,#274,#275);
#247=AXIS2_PLACEMENT_3D('',#336,#277,#278);
#248=AXIS2_PLACEMENT_3D('',#337,#279,#280);
#249=AXIS2_PLACEMENT_3D('',#339,#281,#282);
#250=AXIS2_PLACEMENT_3D('',#342,#284,#285);
#251=AXIS2_PLACEMENT_3D('',#343,#286,#287);
#252=AXIS2_PLACEMENT_3D('',#345,#288,#289);
#253=AXIS2_PLACEMENT_3D('',#348,#291,#292);
#254=AXIS2_PLACEMENT_3D('',#349,#293,#294);
#255=AXIS2_PLACEMENT_3D('',#351,#295,#296);
#256=AXIS2_PLACEMENT_3D('',#354,#298,#299);
#257=AXIS2_PLACEMENT_3D('',#355,#300,#301);
#258=AXIS2_PLACEMENT_3D('',#364,#306,#307);
#259=AXIS2_PLACEMENT_3D('',#370,#311,#312);
#260=AXIS2_PLACEMENT_3D('',#376,#316,#317);
#261=AXIS2_PLACEMENT_3D('',#379,#320,#321);
#262=AXIS2_PLACEMENT_3D('',#380,#322,#323);
#263=DIRECTION('axis',(0.,0.,1.));
#264=DIRECTION('refdir',(1.,0.,0.));
#265=DIRECTION('center_axis',(0.,0.,1.));
#266=DIRECTION('ref_axis',(-1.,0.,0.));
#267=DIRECTION('center_axis',(0.,0.,-1.));
#268=DIRECTION('ref_axis',(-1.,0.,0.));
#269=DIRECTION('',(0.,0.,-1.));
#270=DIRECTION('center_axis',(0.,0.,-1.));
#271=DIRECTION('ref_axis',(-1.,0.,0.));
#272=DIRECTION('center_axis',(0.,0.,1.));
#273=DIRECTION('ref_axis',(-1.,0.,0.));
#274=DIRECTION('center_axis',(0.,0.,-1.));
#275=DIRECTION('ref_axis',(-1.,0.,0.));
#276=DIRECTION('',(0.,0.,-1.));
#277=DIRECTION('center_axis',(0.,0.,-1.));
#278=DIRECTION('ref_axis',(-1.,0.,0.));
#279=DIRECTION('center_axis',(0.,0.,1.));
#280=DIRECTION('ref_axis',(-1.,0.,0.));
#281=DIRECTION('center_axis',(0.,0.,-1.));
#282=DIRECTION('ref_axis',(-1.,0.,0.));
#283=DIRECTION('',(0.,0.,-1.));
#284=DIRECTION('center_axis',(0.,0.,-1.));
#285=DIRECTION('ref_axis',(-1.,0.,0.));
#286=DIRECTION('center_axis',(0.,0.,1.));
#287=DIRECTION('ref_axis',(-1.,0.,0.));
#288=DIRECTION('center_axis',(0.,0.,-1.));
#289=DIRECTION('ref_axis',(-1.,0.,0.));
#290=DIRECTION('',(0.,0.,-1.));
#291=DIRECTION('center_axis',(0.,0.,-1.));
#292=DIRECTION('ref_axis',(-1.,0.,0.));
#293=DIRECTION('center_axis',(0.,0.,1.));
#294=DIRECTION('ref_axis',(-1.,0.,0.));
#295=DIRECTION('center_axis',(0.,0.,-1.));
#296=DIRECTION('ref_axis',(-1.,0.,0.));
#297=DIRECTION('',(0.,0.,-1.));
#298=DIRECTION('center_axis',(0.,0.,-1.));
#299=DIRECTION('ref_axis',(-1.,0.,0.));
#300=DIRECTION('center_axis',(1.,2.96059473233375E-16,0.));
#301=DIRECTION('ref_axis',(-2.96059473233375E-16,1.,0.));
#302=DIRECTION('',(-2.96059473233375E-16,1.,0.));
#303=DIRECTION('',(0.,0.,1.));
#304=DIRECTION('',(-2.96059473233375E-16,1.,0.));
#305=DIRECTION('',(0.,0.,1.));
#306=DIRECTION('center_axis',(-9.50434825567484E-32,-1.,0.));
#307=DIRECTION('ref_axis',(1.,-9.50434825567484E-32,0.));
#308=DIRECTION('',(1.,-9.50434825567484E-32,0.));
#309=DIRECTION('',(1.,-9.50434825567484E-32,0.));
#310=DIRECTION('',(0.,0.,1.));
#311=DIRECTION('center_axis',(-1.,0.,0.));
#312=DIRECTION('ref_axis',(0.,-1.,0.));
#313=DIRECTION('',(0.,-1.,0.));
#314=DIRECTION('',(0.,-1.,0.));
#315=DIRECTION('',(0.,0.,1.));
#316=DIRECTION('center_axis',(0.,1.,0.));
#317=DIRECTION('ref_axis',(-1.,0.,0.));
#318=DIRECTION('',(-1.,0.,0.));
#319=DIRECTION('',(-1.,0.,0.));
#320=DIRECTION('center_axis',(0.,0.,1.));
#321=DIRECTION('ref_axis',(1.,0.,0.));
#322=DIRECTION('center_axis',(0.,0.,1.));
#323=DIRECTION('ref_axis',(1.,0.,0.));
#324=CARTESIAN_POINT('',(0.,0.,0.));
#325=CARTESIAN_POINT('Origin',(73.,20.,0.));
#326=CARTESIAN_POINT('',(75.,20.,3.));
#327=CARTESIAN_POINT('Origin',(73.,20.,3.));
#328=CARTESIAN_POINT('',(75.,20.,0.));
#329=CARTESIAN_POINT('',(75.,20.,0.));
#330=CARTESIAN_POINT('Origin',(73.,20.,0.));
#331=CARTESIAN_POINT('Origin',(10.,20.,0.));
#332=CARTESIAN_POINT('',(12.,20.,3.));
#333=CARTESIAN_POINT('Origin',(10.,20.,3.));
#334=CARTESIAN_POINT('',(12.,20.,0.));
#335=CARTESIAN_POINT('',(12.,20.,0.));
#336=CARTESIAN_POINT('Origin',(10.,20.,0.));
#337=CARTESIAN_POINT('Origin',(41.5,45.,0.));
#338=CARTESIAN_POINT('',(56.5,45.,3.));
#339=CARTESIAN_POINT('Origin',(41.5,45.,3.));
#340=CARTESIAN_POINT('',(56.5,45.,0.));
#341=CARTESIAN_POINT('',(56.5,45.,0.));
#342=CARTESIAN_POINT('Origin',(41.5,45.,0.));
#343=CARTESIAN_POINT('Origin',(9.99999999999999,160.,0.));
#344=CARTESIAN_POINT('',(12.,160.,3.));
#345=CARTESIAN_POINT('Origin',(9.99999999999999,160.,3.));
#346=CARTESIAN_POINT('',(12.,160.,0.));
#347=CARTESIAN_POINT('',(12.,160.,0.));
#348=CARTESIAN_POINT('Origin',(9.99999999999999,160.,0.));
#349=CARTESIAN_POINT('Origin',(73.,160.,0.));
#350=CARTESIAN_POINT('',(75.,160.,3.));
#351=CARTESIAN_POINT('Origin',(73.,160.,3.));
#352=CARTESIAN_POINT('',(75.,160.,0.));
#353=CARTESIAN_POINT('',(75.,160.,0.));
#354=CARTESIAN_POINT('Origin',(73.,160.,0.));
#355=CARTESIAN_POINT('Origin',(83.,-7.88860905221012E-30,0.));
#356=CARTESIAN_POINT('',(83.,-7.88860905221012E-30,0.));
#357=CARTESIAN_POINT('',(82.9999999999999,180.,0.));
#358=CARTESIAN_POINT('',(83.,-7.88860905221012E-30,0.));
#359=CARTESIAN_POINT('',(82.9999999999999,180.,3.));
#360=CARTESIAN_POINT('',(82.9999999999999,180.,0.));
#361=CARTESIAN_POINT('',(83.,0.,3.));
#362=CARTESIAN_POINT('',(83.,-7.88860905221012E-30,3.));
#363=CARTESIAN_POINT('',(83.,-7.88860905221012E-30,0.));
#364=CARTESIAN_POINT('Origin',(0.,0.,0.));
#365=CARTESIAN_POINT('',(0.,0.,0.));
#366=CARTESIAN_POINT('',(0.,0.,0.));
#367=CARTESIAN_POINT('',(0.,0.,3.));
#368=CARTESIAN_POINT('',(0.,0.,3.));
#369=CARTESIAN_POINT('',(0.,0.,0.));
#370=CARTESIAN_POINT('Origin',(0.,180.,0.));
#371=CARTESIAN_POINT('',(0.,180.,0.));
#372=CARTESIAN_POINT('',(0.,180.,0.));
#373=CARTESIAN_POINT('',(0.,180.,3.));
#374=CARTESIAN_POINT('',(0.,180.,3.));
#375=CARTESIAN_POINT('',(0.,180.,0.));
#376=CARTESIAN_POINT('Origin',(82.9999999999999,180.,0.));
#377=CARTESIAN_POINT('',(82.9999999999999,180.,0.));
#378=CARTESIAN_POINT('',(82.9999999999999,180.,3.));
#379=CARTESIAN_POINT('Origin',(41.5,90.,3.));
#380=CARTESIAN_POINT('Origin',(41.5,90.,0.));
#381=UNCERTAINTY_MEASURE_WITH_UNIT(LENGTH_MEASURE(0.01),#385,
'DISTANCE_ACCURACY_VALUE',
'Maximum model space distance between geometric entities at asserted c
onnectivities');
#382=UNCERTAINTY_MEASURE_WITH_UNIT(LENGTH_MEASURE(0.01),#385,
'DISTANCE_ACCURACY_VALUE',
'Maximum model space distance between geometric entities at asserted c
onnectivities');
#383=(
GEOMETRIC_REPRESENTATION_CONTEXT(3)
GLOBAL_UNCERTAINTY_ASSIGNED_CONTEXT((#381))
GLOBAL_UNIT_ASSIGNED_CONTEXT((#385,#387,#388))
REPRESENTATION_CONTEXT('','3D')
);
#384=(
GEOMETRIC_REPRESENTATION_CONTEXT(3)
GLOBAL_UNCERTAINTY_ASSIGNED_CONTEXT((#382))
GLOBAL_UNIT_ASSIGNED_CONTEXT((#385,#387,#388))
REPRESENTATION_CONTEXT('','3D')
);
#385=(
LENGTH_UNIT()
NAMED_UNIT(*)
SI_UNIT(.MILLI.,.METRE.)
);
#386=(
LENGTH_UNIT()
NAMED_UNIT(*)
SI_UNIT(.CENTI.,.METRE.)
);
#387=(
NAMED_UNIT(*)
PLANE_ANGLE_UNIT()
SI_UNIT($,.RADIAN.)
);
#388=(
NAMED_UNIT(*)
SI_UNIT($,.STERADIAN.)
SOLID_ANGLE_UNIT()
);
#389=SHAPE_DEFINITION_REPRESENTATION(#390,#391);
#390=PRODUCT_DEFINITION_SHAPE('',$,#393);
#391=SHAPE_REPRESENTATION('',(#241),#383);
#392=PRODUCT_DEFINITION_CONTEXT('part definition',#397,'design');
#393=PRODUCT_DEFINITION('BaseC_3','BaseC_3',#394,#392);
#394=PRODUCT_DEFINITION_FORMATION('',$,#399);
#395=PRODUCT_RELATED_PRODUCT_CATEGORY('BaseC_3','BaseC_3',(#399));
#396=APPLICATION_PROTOCOL_DEFINITION('international standard',
'automotive_design',2009,#397);
#397=APPLICATION_CONTEXT(
'Core Data for Automotive Mechanical Design Process');
#398=PRODUCT_CONTEXT('part definition',#397,'mechanical');
#399=PRODUCT('BaseC_3','BaseC_3',$,(#398));
#400=PRESENTATION_STYLE_ASSIGNMENT((#401));
#401=SURFACE_STYLE_USAGE(.BOTH.,#404);
#402=SURFACE_STYLE_RENDERING_WITH_PROPERTIES($,#408,(#403));
#403=SURFACE_STYLE_TRANSPARENT(0.53999999165535);
#404=SURFACE_SIDE_STYLE('',(#405,#402));
#405=SURFACE_STYLE_FILL_AREA(#406);
#406=FILL_AREA_STYLE('',(#407));
#407=FILL_AREA_STYLE_COLOUR('',#408);
#408=COLOUR_RGB('',0.8,0.8,0.8);
ENDSEC;
END-ISO-10303-21;
