ISO-10303-21;
HEADER;
/* Generated by software containing ST-Developer
 * from STEP Tools, Inc. (www.steptools.com) 
 */

FILE_DESCRIPTION(
/* description */ (''),
/* implementation_level */ '2;1');

FILE_NAME(
/* name */ 
'I:\\ASU_FOE\\graduation project\\quadcopter\\matlab xml\\231123\\\\Ba
seC_7_ipt_b9e6bb9f.STEP',
/* time_stamp */ '2023-11-23T19:53:37+02:00',
/* author */ ('user'),
/* organization */ (''),
/* preprocessor_version */ 'ST-DEVELOPER v18.1',
/* originating_system */ 'Autodesk Inventor 2021',
/* authorisation */ '');

FILE_SCHEMA (('AUTOMOTIVE_DESIGN { 1 0 10303 214 3 1 1 }'));
ENDSEC;

DATA;
#10=MECHANICAL_DESIGN_GEOMETRIC_PRESENTATION_REPRESENTATION('',(#13),#808);
#11=SHAPE_REPRESENTATION_RELATIONSHIP('SRR','None',#815,#12);
#12=ADVANCED_BREP_SHAPE_REPRESENTATION('',(#14),#807);
#13=STYLED_ITEM('',(#824),#14);
#14=MANIFOLD_SOLID_BREP('Solid1',#454);
#15=FACE_BOUND('',#78,.T.);
#16=FACE_BOUND('',#79,.T.);
#17=FACE_BOUND('',#80,.T.);
#18=FACE_BOUND('',#81,.T.);
#19=FACE_BOUND('',#82,.T.);
#20=FACE_BOUND('',#83,.T.);
#21=FACE_BOUND('',#85,.T.);
#22=FACE_BOUND('',#86,.T.);
#23=FACE_BOUND('',#87,.T.);
#24=FACE_BOUND('',#88,.T.);
#25=FACE_BOUND('',#89,.T.);
#26=FACE_BOUND('',#90,.T.);
#27=PLANE('',#519);
#28=PLANE('',#520);
#29=PLANE('',#521);
#30=PLANE('',#525);
#31=PLANE('',#529);
#32=PLANE('',#530);
#33=FACE_OUTER_BOUND('',#56,.T.);
#34=FACE_OUTER_BOUND('',#57,.T.);
#35=FACE_OUTER_BOUND('',#58,.T.);
#36=FACE_OUTER_BOUND('',#59,.T.);
#37=FACE_OUTER_BOUND('',#60,.T.);
#38=FACE_OUTER_BOUND('',#61,.T.);
#39=FACE_OUTER_BOUND('',#62,.T.);
#40=FACE_OUTER_BOUND('',#63,.T.);
#41=FACE_OUTER_BOUND('',#64,.T.);
#42=FACE_OUTER_BOUND('',#65,.T.);
#43=FACE_OUTER_BOUND('',#66,.T.);
#44=FACE_OUTER_BOUND('',#67,.T.);
#45=FACE_OUTER_BOUND('',#68,.T.);
#46=FACE_OUTER_BOUND('',#69,.T.);
#47=FACE_OUTER_BOUND('',#70,.T.);
#48=FACE_OUTER_BOUND('',#71,.T.);
#49=FACE_OUTER_BOUND('',#72,.T.);
#50=FACE_OUTER_BOUND('',#73,.T.);
#51=FACE_OUTER_BOUND('',#74,.T.);
#52=FACE_OUTER_BOUND('',#75,.T.);
#53=FACE_OUTER_BOUND('',#76,.T.);
#54=FACE_OUTER_BOUND('',#77,.T.);
#55=FACE_OUTER_BOUND('',#84,.T.);
#56=EDGE_LOOP('',(#288,#289,#290,#291));
#57=EDGE_LOOP('',(#292,#293,#294,#295));
#58=EDGE_LOOP('',(#296,#297,#298,#299));
#59=EDGE_LOOP('',(#300,#301,#302,#303));
#60=EDGE_LOOP('',(#304,#305,#306,#307));
#61=EDGE_LOOP('',(#308,#309,#310,#311));
#62=EDGE_LOOP('',(#312,#313,#314,#315));
#63=EDGE_LOOP('',(#316,#317,#318,#319));
#64=EDGE_LOOP('',(#320,#321,#322,#323));
#65=EDGE_LOOP('',(#324,#325,#326,#327));
#66=EDGE_LOOP('',(#328,#329,#330,#331));
#67=EDGE_LOOP('',(#332,#333,#334,#335));
#68=EDGE_LOOP('',(#336,#337,#338,#339));
#69=EDGE_LOOP('',(#340,#341,#342,#343));
#70=EDGE_LOOP('',(#344,#345,#346,#347));
#71=EDGE_LOOP('',(#348,#349,#350,#351));
#72=EDGE_LOOP('',(#352,#353,#354,#355));
#73=EDGE_LOOP('',(#356,#357,#358,#359));
#74=EDGE_LOOP('',(#360,#361,#362,#363));
#75=EDGE_LOOP('',(#364,#365,#366,#367));
#76=EDGE_LOOP('',(#368,#369,#370,#371));
#77=EDGE_LOOP('',(#372,#373,#374,#375,#376,#377));
#78=EDGE_LOOP('',(#378));
#79=EDGE_LOOP('',(#379));
#80=EDGE_LOOP('',(#380,#381,#382,#383));
#81=EDGE_LOOP('',(#384,#385,#386,#387));
#82=EDGE_LOOP('',(#388,#389,#390,#391));
#83=EDGE_LOOP('',(#392));
#84=EDGE_LOOP('',(#393,#394,#395,#396,#397,#398));
#85=EDGE_LOOP('',(#399));
#86=EDGE_LOOP('',(#400));
#87=EDGE_LOOP('',(#401,#402,#403,#404));
#88=EDGE_LOOP('',(#405,#406,#407,#408));
#89=EDGE_LOOP('',(#409,#410,#411,#412));
#90=EDGE_LOOP('',(#413));
#91=LINE('',#681,#120);
#92=LINE('',#688,#121);
#93=LINE('',#691,#122);
#94=LINE('',#697,#123);
#95=LINE('',#703,#124);
#96=LINE('',#712,#125);
#97=LINE('',#715,#126);
#98=LINE('',#721,#127);
#99=LINE('',#727,#128);
#100=LINE('',#736,#129);
#101=LINE('',#739,#130);
#102=LINE('',#745,#131);
#103=LINE('',#751,#132);
#104=LINE('',#759,#133);
#105=LINE('',#765,#134);
#106=LINE('',#770,#135);
#107=LINE('',#772,#136);
#108=LINE('',#774,#137);
#109=LINE('',#775,#138);
#110=LINE('',#778,#139);
#111=LINE('',#780,#140);
#112=LINE('',#781,#141);
#113=LINE('',#784,#142);
#114=LINE('',#786,#143);
#115=LINE('',#787,#144);
#116=LINE('',#793,#145);
#117=LINE('',#796,#146);
#118=LINE('',#798,#147);
#119=LINE('',#799,#148);
#120=VECTOR('',#537,10.5);
#121=VECTOR('',#544,10.);
#122=VECTOR('',#547,10.);
#123=VECTOR('',#554,10.);
#124=VECTOR('',#561,10.);
#125=VECTOR('',#572,10.);
#126=VECTOR('',#575,10.);
#127=VECTOR('',#582,10.);
#128=VECTOR('',#589,10.);
#129=VECTOR('',#600,10.);
#130=VECTOR('',#603,10.);
#131=VECTOR('',#610,10.);
#132=VECTOR('',#617,10.);
#133=VECTOR('',#628,2.25);
#134=VECTOR('',#635,2.25);
#135=VECTOR('',#640,10.);
#136=VECTOR('',#641,10.);
#137=VECTOR('',#642,10.);
#138=VECTOR('',#643,10.);
#139=VECTOR('',#646,10.);
#140=VECTOR('',#647,10.);
#141=VECTOR('',#648,10.);
#142=VECTOR('',#651,10.);
#143=VECTOR('',#652,10.);
#144=VECTOR('',#653,10.);
#145=VECTOR('',#660,10.);
#146=VECTOR('',#663,10.);
#147=VECTOR('',#664,10.);
#148=VECTOR('',#665,10.);
#149=CIRCLE('',#475,10.5);
#150=CIRCLE('',#476,10.5);
#151=CIRCLE('',#478,1.2295);
#152=CIRCLE('',#479,1.2295);
#153=CIRCLE('',#481,16.2983420258498);
#154=CIRCLE('',#482,16.2983420258498);
#155=CIRCLE('',#484,1.2295);
#156=CIRCLE('',#485,1.2295);
#157=CIRCLE('',#487,13.8393420258498);
#158=CIRCLE('',#488,13.8393420258498);
#159=CIRCLE('',#490,1.2295);
#160=CIRCLE('',#491,1.2295);
#161=CIRCLE('',#493,16.2983420258478);
#162=CIRCLE('',#494,16.2983420258478);
#163=CIRCLE('',#496,1.2295);
#164=CIRCLE('',#497,1.2295);
#165=CIRCLE('',#499,13.8393420258478);
#166=CIRCLE('',#500,13.8393420258478);
#167=CIRCLE('',#502,1.2295);
#168=CIRCLE('',#503,1.2295);
#169=CIRCLE('',#505,16.2983420258501);
#170=CIRCLE('',#506,16.2983420258501);
#171=CIRCLE('',#508,1.2295);
#172=CIRCLE('',#509,1.2295);
#173=CIRCLE('',#511,13.8393420258501);
#174=CIRCLE('',#512,13.8393420258501);
#175=CIRCLE('',#514,2.25);
#176=CIRCLE('',#515,2.25);
#177=CIRCLE('',#517,2.25);
#178=CIRCLE('',#518,2.25);
#179=CIRCLE('',#523,2.00000000000001);
#180=CIRCLE('',#524,2.00000000000001);
#181=CIRCLE('',#527,2.00000000000001);
#182=CIRCLE('',#528,2.00000000000001);
#183=VERTEX_POINT('',#678);
#184=VERTEX_POINT('',#680);
#185=VERTEX_POINT('',#684);
#186=VERTEX_POINT('',#685);
#187=VERTEX_POINT('',#687);
#188=VERTEX_POINT('',#689);
#189=VERTEX_POINT('',#693);
#190=VERTEX_POINT('',#695);
#191=VERTEX_POINT('',#699);
#192=VERTEX_POINT('',#701);
#193=VERTEX_POINT('',#708);
#194=VERTEX_POINT('',#709);
#195=VERTEX_POINT('',#711);
#196=VERTEX_POINT('',#713);
#197=VERTEX_POINT('',#717);
#198=VERTEX_POINT('',#719);
#199=VERTEX_POINT('',#723);
#200=VERTEX_POINT('',#725);
#201=VERTEX_POINT('',#732);
#202=VERTEX_POINT('',#733);
#203=VERTEX_POINT('',#735);
#204=VERTEX_POINT('',#737);
#205=VERTEX_POINT('',#741);
#206=VERTEX_POINT('',#743);
#207=VERTEX_POINT('',#747);
#208=VERTEX_POINT('',#749);
#209=VERTEX_POINT('',#756);
#210=VERTEX_POINT('',#758);
#211=VERTEX_POINT('',#762);
#212=VERTEX_POINT('',#764);
#213=VERTEX_POINT('',#768);
#214=VERTEX_POINT('',#769);
#215=VERTEX_POINT('',#771);
#216=VERTEX_POINT('',#773);
#217=VERTEX_POINT('',#777);
#218=VERTEX_POINT('',#779);
#219=VERTEX_POINT('',#783);
#220=VERTEX_POINT('',#785);
#221=VERTEX_POINT('',#789);
#222=VERTEX_POINT('',#791);
#223=VERTEX_POINT('',#795);
#224=VERTEX_POINT('',#797);
#225=EDGE_CURVE('',#183,#183,#149,.T.);
#226=EDGE_CURVE('',#183,#184,#91,.T.);
#227=EDGE_CURVE('',#184,#184,#150,.T.);
#228=EDGE_CURVE('',#185,#186,#151,.T.);
#229=EDGE_CURVE('',#186,#187,#92,.T.);
#230=EDGE_CURVE('',#188,#187,#152,.T.);
#231=EDGE_CURVE('',#185,#188,#93,.T.);
#232=EDGE_CURVE('',#189,#185,#153,.T.);
#233=EDGE_CURVE('',#190,#188,#154,.T.);
#234=EDGE_CURVE('',#189,#190,#94,.T.);
#235=EDGE_CURVE('',#191,#189,#155,.T.);
#236=EDGE_CURVE('',#192,#190,#156,.T.);
#237=EDGE_CURVE('',#191,#192,#95,.T.);
#238=EDGE_CURVE('',#186,#191,#157,.T.);
#239=EDGE_CURVE('',#187,#192,#158,.T.);
#240=EDGE_CURVE('',#193,#194,#159,.T.);
#241=EDGE_CURVE('',#194,#195,#96,.T.);
#242=EDGE_CURVE('',#196,#195,#160,.T.);
#243=EDGE_CURVE('',#193,#196,#97,.T.);
#244=EDGE_CURVE('',#197,#193,#161,.T.);
#245=EDGE_CURVE('',#198,#196,#162,.T.);
#246=EDGE_CURVE('',#197,#198,#98,.T.);
#247=EDGE_CURVE('',#199,#197,#163,.T.);
#248=EDGE_CURVE('',#200,#198,#164,.T.);
#249=EDGE_CURVE('',#199,#200,#99,.T.);
#250=EDGE_CURVE('',#194,#199,#165,.T.);
#251=EDGE_CURVE('',#195,#200,#166,.T.);
#252=EDGE_CURVE('',#201,#202,#167,.T.);
#253=EDGE_CURVE('',#202,#203,#100,.T.);
#254=EDGE_CURVE('',#204,#203,#168,.T.);
#255=EDGE_CURVE('',#201,#204,#101,.T.);
#256=EDGE_CURVE('',#205,#201,#169,.T.);
#257=EDGE_CURVE('',#206,#204,#170,.T.);
#258=EDGE_CURVE('',#205,#206,#102,.T.);
#259=EDGE_CURVE('',#207,#205,#171,.T.);
#260=EDGE_CURVE('',#208,#206,#172,.T.);
#261=EDGE_CURVE('',#207,#208,#103,.T.);
#262=EDGE_CURVE('',#202,#207,#173,.T.);
#263=EDGE_CURVE('',#203,#208,#174,.T.);
#264=EDGE_CURVE('',#209,#209,#175,.T.);
#265=EDGE_CURVE('',#209,#210,#104,.T.);
#266=EDGE_CURVE('',#210,#210,#176,.T.);
#267=EDGE_CURVE('',#211,#211,#177,.T.);
#268=EDGE_CURVE('',#211,#212,#105,.T.);
#269=EDGE_CURVE('',#212,#212,#178,.T.);
#270=EDGE_CURVE('',#213,#214,#106,.T.);
#271=EDGE_CURVE('',#214,#215,#107,.T.);
#272=EDGE_CURVE('',#216,#215,#108,.T.);
#273=EDGE_CURVE('',#213,#216,#109,.T.);
#274=EDGE_CURVE('',#217,#213,#110,.T.);
#275=EDGE_CURVE('',#218,#216,#111,.T.);
#276=EDGE_CURVE('',#217,#218,#112,.T.);
#277=EDGE_CURVE('',#219,#217,#113,.T.);
#278=EDGE_CURVE('',#220,#218,#114,.T.);
#279=EDGE_CURVE('',#219,#220,#115,.T.);
#280=EDGE_CURVE('',#221,#219,#179,.T.);
#281=EDGE_CURVE('',#222,#220,#180,.T.);
#282=EDGE_CURVE('',#221,#222,#116,.T.);
#283=EDGE_CURVE('',#223,#221,#117,.T.);
#284=EDGE_CURVE('',#224,#222,#118,.T.);
#285=EDGE_CURVE('',#223,#224,#119,.T.);
#286=EDGE_CURVE('',#214,#223,#181,.T.);
#287=EDGE_CURVE('',#215,#224,#182,.T.);
#288=ORIENTED_EDGE('',*,*,#225,.F.);
#289=ORIENTED_EDGE('',*,*,#226,.T.);
#290=ORIENTED_EDGE('',*,*,#227,.T.);
#291=ORIENTED_EDGE('',*,*,#226,.F.);
#292=ORIENTED_EDGE('',*,*,#228,.T.);
#293=ORIENTED_EDGE('',*,*,#229,.T.);
#294=ORIENTED_EDGE('',*,*,#230,.F.);
#295=ORIENTED_EDGE('',*,*,#231,.F.);
#296=ORIENTED_EDGE('',*,*,#232,.T.);
#297=ORIENTED_EDGE('',*,*,#231,.T.);
#298=ORIENTED_EDGE('',*,*,#233,.F.);
#299=ORIENTED_EDGE('',*,*,#234,.F.);
#300=ORIENTED_EDGE('',*,*,#235,.T.);
#301=ORIENTED_EDGE('',*,*,#234,.T.);
#302=ORIENTED_EDGE('',*,*,#236,.F.);
#303=ORIENTED_EDGE('',*,*,#237,.F.);
#304=ORIENTED_EDGE('',*,*,#238,.T.);
#305=ORIENTED_EDGE('',*,*,#237,.T.);
#306=ORIENTED_EDGE('',*,*,#239,.F.);
#307=ORIENTED_EDGE('',*,*,#229,.F.);
#308=ORIENTED_EDGE('',*,*,#240,.T.);
#309=ORIENTED_EDGE('',*,*,#241,.T.);
#310=ORIENTED_EDGE('',*,*,#242,.F.);
#311=ORIENTED_EDGE('',*,*,#243,.F.);
#312=ORIENTED_EDGE('',*,*,#244,.T.);
#313=ORIENTED_EDGE('',*,*,#243,.T.);
#314=ORIENTED_EDGE('',*,*,#245,.F.);
#315=ORIENTED_EDGE('',*,*,#246,.F.);
#316=ORIENTED_EDGE('',*,*,#247,.T.);
#317=ORIENTED_EDGE('',*,*,#246,.T.);
#318=ORIENTED_EDGE('',*,*,#248,.F.);
#319=ORIENTED_EDGE('',*,*,#249,.F.);
#320=ORIENTED_EDGE('',*,*,#250,.T.);
#321=ORIENTED_EDGE('',*,*,#249,.T.);
#322=ORIENTED_EDGE('',*,*,#251,.F.);
#323=ORIENTED_EDGE('',*,*,#241,.F.);
#324=ORIENTED_EDGE('',*,*,#252,.T.);
#325=ORIENTED_EDGE('',*,*,#253,.T.);
#326=ORIENTED_EDGE('',*,*,#254,.F.);
#327=ORIENTED_EDGE('',*,*,#255,.F.);
#328=ORIENTED_EDGE('',*,*,#256,.T.);
#329=ORIENTED_EDGE('',*,*,#255,.T.);
#330=ORIENTED_EDGE('',*,*,#257,.F.);
#331=ORIENTED_EDGE('',*,*,#258,.F.);
#332=ORIENTED_EDGE('',*,*,#259,.T.);
#333=ORIENTED_EDGE('',*,*,#258,.T.);
#334=ORIENTED_EDGE('',*,*,#260,.F.);
#335=ORIENTED_EDGE('',*,*,#261,.F.);
#336=ORIENTED_EDGE('',*,*,#262,.T.);
#337=ORIENTED_EDGE('',*,*,#261,.T.);
#338=ORIENTED_EDGE('',*,*,#263,.F.);
#339=ORIENTED_EDGE('',*,*,#253,.F.);
#340=ORIENTED_EDGE('',*,*,#264,.F.);
#341=ORIENTED_EDGE('',*,*,#265,.T.);
#342=ORIENTED_EDGE('',*,*,#266,.T.);
#343=ORIENTED_EDGE('',*,*,#265,.F.);
#344=ORIENTED_EDGE('',*,*,#267,.F.);
#345=ORIENTED_EDGE('',*,*,#268,.T.);
#346=ORIENTED_EDGE('',*,*,#269,.T.);
#347=ORIENTED_EDGE('',*,*,#268,.F.);
#348=ORIENTED_EDGE('',*,*,#270,.T.);
#349=ORIENTED_EDGE('',*,*,#271,.T.);
#350=ORIENTED_EDGE('',*,*,#272,.F.);
#351=ORIENTED_EDGE('',*,*,#273,.F.);
#352=ORIENTED_EDGE('',*,*,#274,.T.);
#353=ORIENTED_EDGE('',*,*,#273,.T.);
#354=ORIENTED_EDGE('',*,*,#275,.F.);
#355=ORIENTED_EDGE('',*,*,#276,.F.);
#356=ORIENTED_EDGE('',*,*,#277,.T.);
#357=ORIENTED_EDGE('',*,*,#276,.T.);
#358=ORIENTED_EDGE('',*,*,#278,.F.);
#359=ORIENTED_EDGE('',*,*,#279,.F.);
#360=ORIENTED_EDGE('',*,*,#280,.T.);
#361=ORIENTED_EDGE('',*,*,#279,.T.);
#362=ORIENTED_EDGE('',*,*,#281,.F.);
#363=ORIENTED_EDGE('',*,*,#282,.F.);
#364=ORIENTED_EDGE('',*,*,#283,.T.);
#365=ORIENTED_EDGE('',*,*,#282,.T.);
#366=ORIENTED_EDGE('',*,*,#284,.F.);
#367=ORIENTED_EDGE('',*,*,#285,.F.);
#368=ORIENTED_EDGE('',*,*,#286,.T.);
#369=ORIENTED_EDGE('',*,*,#285,.T.);
#370=ORIENTED_EDGE('',*,*,#287,.F.);
#371=ORIENTED_EDGE('',*,*,#271,.F.);
#372=ORIENTED_EDGE('',*,*,#287,.T.);
#373=ORIENTED_EDGE('',*,*,#284,.T.);
#374=ORIENTED_EDGE('',*,*,#281,.T.);
#375=ORIENTED_EDGE('',*,*,#278,.T.);
#376=ORIENTED_EDGE('',*,*,#275,.T.);
#377=ORIENTED_EDGE('',*,*,#272,.T.);
#378=ORIENTED_EDGE('',*,*,#267,.T.);
#379=ORIENTED_EDGE('',*,*,#264,.T.);
#380=ORIENTED_EDGE('',*,*,#263,.T.);
#381=ORIENTED_EDGE('',*,*,#260,.T.);
#382=ORIENTED_EDGE('',*,*,#257,.T.);
#383=ORIENTED_EDGE('',*,*,#254,.T.);
#384=ORIENTED_EDGE('',*,*,#251,.T.);
#385=ORIENTED_EDGE('',*,*,#248,.T.);
#386=ORIENTED_EDGE('',*,*,#245,.T.);
#387=ORIENTED_EDGE('',*,*,#242,.T.);
#388=ORIENTED_EDGE('',*,*,#239,.T.);
#389=ORIENTED_EDGE('',*,*,#236,.T.);
#390=ORIENTED_EDGE('',*,*,#233,.T.);
#391=ORIENTED_EDGE('',*,*,#230,.T.);
#392=ORIENTED_EDGE('',*,*,#225,.T.);
#393=ORIENTED_EDGE('',*,*,#286,.F.);
#394=ORIENTED_EDGE('',*,*,#270,.F.);
#395=ORIENTED_EDGE('',*,*,#274,.F.);
#396=ORIENTED_EDGE('',*,*,#277,.F.);
#397=ORIENTED_EDGE('',*,*,#280,.F.);
#398=ORIENTED_EDGE('',*,*,#283,.F.);
#399=ORIENTED_EDGE('',*,*,#269,.F.);
#400=ORIENTED_EDGE('',*,*,#266,.F.);
#401=ORIENTED_EDGE('',*,*,#262,.F.);
#402=ORIENTED_EDGE('',*,*,#252,.F.);
#403=ORIENTED_EDGE('',*,*,#256,.F.);
#404=ORIENTED_EDGE('',*,*,#259,.F.);
#405=ORIENTED_EDGE('',*,*,#250,.F.);
#406=ORIENTED_EDGE('',*,*,#240,.F.);
#407=ORIENTED_EDGE('',*,*,#244,.F.);
#408=ORIENTED_EDGE('',*,*,#247,.F.);
#409=ORIENTED_EDGE('',*,*,#238,.F.);
#410=ORIENTED_EDGE('',*,*,#228,.F.);
#411=ORIENTED_EDGE('',*,*,#232,.F.);
#412=ORIENTED_EDGE('',*,*,#235,.F.);
#413=ORIENTED_EDGE('',*,*,#227,.F.);
#414=CYLINDRICAL_SURFACE('',#474,10.5);
#415=CYLINDRICAL_SURFACE('',#477,1.2295);
#416=CYLINDRICAL_SURFACE('',#480,16.2983420258498);
#417=CYLINDRICAL_SURFACE('',#483,1.2295);
#418=CYLINDRICAL_SURFACE('',#486,13.8393420258498);
#419=CYLINDRICAL_SURFACE('',#489,1.2295);
#420=CYLINDRICAL_SURFACE('',#492,16.2983420258478);
#421=CYLINDRICAL_SURFACE('',#495,1.2295);
#422=CYLINDRICAL_SURFACE('',#498,13.8393420258478);
#423=CYLINDRICAL_SURFACE('',#501,1.2295);
#424=CYLINDRICAL_SURFACE('',#504,16.2983420258501);
#425=CYLINDRICAL_SURFACE('',#507,1.2295);
#426=CYLINDRICAL_SURFACE('',#510,13.8393420258501);
#427=CYLINDRICAL_SURFACE('',#513,2.25);
#428=CYLINDRICAL_SURFACE('',#516,2.25);
#429=CYLINDRICAL_SURFACE('',#522,2.00000000000001);
#430=CYLINDRICAL_SURFACE('',#526,2.00000000000001);
#431=ADVANCED_FACE('',(#33),#414,.F.);
#432=ADVANCED_FACE('',(#34),#415,.F.);
#433=ADVANCED_FACE('',(#35),#416,.F.);
#434=ADVANCED_FACE('',(#36),#417,.F.);
#435=ADVANCED_FACE('',(#37),#418,.T.);
#436=ADVANCED_FACE('',(#38),#419,.F.);
#437=ADVANCED_FACE('',(#39),#420,.F.);
#438=ADVANCED_FACE('',(#40),#421,.F.);
#439=ADVANCED_FACE('',(#41),#422,.T.);
#440=ADVANCED_FACE('',(#42),#423,.F.);
#441=ADVANCED_FACE('',(#43),#424,.F.);
#442=ADVANCED_FACE('',(#44),#425,.F.);
#443=ADVANCED_FACE('',(#45),#426,.T.);
#444=ADVANCED_FACE('',(#46),#427,.F.);
#445=ADVANCED_FACE('',(#47),#428,.F.);
#446=ADVANCED_FACE('',(#48),#27,.T.);
#447=ADVANCED_FACE('',(#49),#28,.T.);
#448=ADVANCED_FACE('',(#50),#29,.T.);
#449=ADVANCED_FACE('',(#51),#429,.T.);
#450=ADVANCED_FACE('',(#52),#30,.T.);
#451=ADVANCED_FACE('',(#53),#430,.T.);
#452=ADVANCED_FACE('',(#54,#15,#16,#17,#18,#19,#20),#31,.T.);
#453=ADVANCED_FACE('',(#55,#21,#22,#23,#24,#25,#26),#32,.F.);
#454=CLOSED_SHELL('',(#431,#432,#433,#434,#435,#436,#437,#438,#439,#440,
#441,#442,#443,#444,#445,#446,#447,#448,#449,#450,#451,#452,#453));
#455=DERIVED_UNIT_ELEMENT(#457,1.);
#456=DERIVED_UNIT_ELEMENT(#810,3.);
#457=(
MASS_UNIT()
NAMED_UNIT(*)
SI_UNIT($,.GRAM.)
);
#458=DERIVED_UNIT((#455,#456));
#459=MEASURE_REPRESENTATION_ITEM('density measure',
POSITIVE_RATIO_MEASURE(1.188),#458);
#460=PROPERTY_DEFINITION_REPRESENTATION(#465,#462);
#461=PROPERTY_DEFINITION_REPRESENTATION(#466,#463);
#462=REPRESENTATION('material name',(#464),#807);
#463=REPRESENTATION('density',(#459),#807);
#464=DESCRIPTIVE_REPRESENTATION_ITEM('PMMA Plastic','PMMA Plastic');
#465=PROPERTY_DEFINITION('material property','material name',#817);
#466=PROPERTY_DEFINITION('material property','density of part',#817);
#467=DATE_TIME_ROLE('creation_date');
#468=APPLIED_DATE_AND_TIME_ASSIGNMENT(#469,#467,(#817));
#469=DATE_AND_TIME(#470,#471);
#470=CALENDAR_DATE(2023,21,10);
#471=LOCAL_TIME(0,0,0.,#472);
#472=COORDINATED_UNIVERSAL_TIME_OFFSET(0,0,.BEHIND.);
#473=AXIS2_PLACEMENT_3D('placement',#676,#531,#532);
#474=AXIS2_PLACEMENT_3D('',#677,#533,#534);
#475=AXIS2_PLACEMENT_3D('',#679,#535,#536);
#476=AXIS2_PLACEMENT_3D('',#682,#538,#539);
#477=AXIS2_PLACEMENT_3D('',#683,#540,#541);
#478=AXIS2_PLACEMENT_3D('',#686,#542,#543);
#479=AXIS2_PLACEMENT_3D('',#690,#545,#546);
#480=AXIS2_PLACEMENT_3D('',#692,#548,#549);
#481=AXIS2_PLACEMENT_3D('',#694,#550,#551);
#482=AXIS2_PLACEMENT_3D('',#696,#552,#553);
#483=AXIS2_PLACEMENT_3D('',#698,#555,#556);
#484=AXIS2_PLACEMENT_3D('',#700,#557,#558);
#485=AXIS2_PLACEMENT_3D('',#702,#559,#560);
#486=AXIS2_PLACEMENT_3D('',#704,#562,#563);
#487=AXIS2_PLACEMENT_3D('',#705,#564,#565);
#488=AXIS2_PLACEMENT_3D('',#706,#566,#567);
#489=AXIS2_PLACEMENT_3D('',#707,#568,#569);
#490=AXIS2_PLACEMENT_3D('',#710,#570,#571);
#491=AXIS2_PLACEMENT_3D('',#714,#573,#574);
#492=AXIS2_PLACEMENT_3D('',#716,#576,#577);
#493=AXIS2_PLACEMENT_3D('',#718,#578,#579);
#494=AXIS2_PLACEMENT_3D('',#720,#580,#581);
#495=AXIS2_PLACEMENT_3D('',#722,#583,#584);
#496=AXIS2_PLACEMENT_3D('',#724,#585,#586);
#497=AXIS2_PLACEMENT_3D('',#726,#587,#588);
#498=AXIS2_PLACEMENT_3D('',#728,#590,#591);
#499=AXIS2_PLACEMENT_3D('',#729,#592,#593);
#500=AXIS2_PLACEMENT_3D('',#730,#594,#595);
#501=AXIS2_PLACEMENT_3D('',#731,#596,#597);
#502=AXIS2_PLACEMENT_3D('',#734,#598,#599);
#503=AXIS2_PLACEMENT_3D('',#738,#601,#602);
#504=AXIS2_PLACEMENT_3D('',#740,#604,#605);
#505=AXIS2_PLACEMENT_3D('',#742,#606,#607);
#506=AXIS2_PLACEMENT_3D('',#744,#608,#609);
#507=AXIS2_PLACEMENT_3D('',#746,#611,#612);
#508=AXIS2_PLACEMENT_3D('',#748,#613,#614);
#509=AXIS2_PLACEMENT_3D('',#750,#615,#616);
#510=AXIS2_PLACEMENT_3D('',#752,#618,#619);
#511=AXIS2_PLACEMENT_3D('',#753,#620,#621);
#512=AXIS2_PLACEMENT_3D('',#754,#622,#623);
#513=AXIS2_PLACEMENT_3D('',#755,#624,#625);
#514=AXIS2_PLACEMENT_3D('',#757,#626,#627);
#515=AXIS2_PLACEMENT_3D('',#760,#629,#630);
#516=AXIS2_PLACEMENT_3D('',#761,#631,#632);
#517=AXIS2_PLACEMENT_3D('',#763,#633,#634);
#518=AXIS2_PLACEMENT_3D('',#766,#636,#637);
#519=AXIS2_PLACEMENT_3D('',#767,#638,#639);
#520=AXIS2_PLACEMENT_3D('',#776,#644,#645);
#521=AXIS2_PLACEMENT_3D('',#782,#649,#650);
#522=AXIS2_PLACEMENT_3D('',#788,#654,#655);
#523=AXIS2_PLACEMENT_3D('',#790,#656,#657);
#524=AXIS2_PLACEMENT_3D('',#792,#658,#659);
#525=AXIS2_PLACEMENT_3D('',#794,#661,#662);
#526=AXIS2_PLACEMENT_3D('',#800,#666,#667);
#527=AXIS2_PLACEMENT_3D('',#801,#668,#669);
#528=AXIS2_PLACEMENT_3D('',#802,#670,#671);
#529=AXIS2_PLACEMENT_3D('',#803,#672,#673);
#530=AXIS2_PLACEMENT_3D('',#804,#674,#675);
#531=DIRECTION('axis',(0.,0.,1.));
#532=DIRECTION('refdir',(1.,0.,0.));
#533=DIRECTION('center_axis',(0.,0.,1.));
#534=DIRECTION('ref_axis',(-1.,0.,0.));
#535=DIRECTION('center_axis',(0.,0.,-1.));
#536=DIRECTION('ref_axis',(-1.,0.,0.));
#537=DIRECTION('',(0.,0.,-1.));
#538=DIRECTION('center_axis',(0.,0.,-1.));
#539=DIRECTION('ref_axis',(-1.,0.,0.));
#540=DIRECTION('center_axis',(0.,0.,1.));
#541=DIRECTION('ref_axis',(0.86602540378445,-0.49999999999998,0.));
#542=DIRECTION('center_axis',(0.,0.,-1.));
#543=DIRECTION('ref_axis',(0.86602540378445,-0.49999999999998,0.));
#544=DIRECTION('',(0.,0.,1.));
#545=DIRECTION('center_axis',(0.,0.,-1.));
#546=DIRECTION('ref_axis',(0.86602540378445,-0.49999999999998,0.));
#547=DIRECTION('',(0.,0.,1.));
#548=DIRECTION('center_axis',(0.,0.,1.));
#549=DIRECTION('ref_axis',(-0.86602540378445,0.499999999999981,0.));
#550=DIRECTION('center_axis',(0.,0.,-1.));
#551=DIRECTION('ref_axis',(-0.86602540378445,0.499999999999981,0.));
#552=DIRECTION('center_axis',(0.,0.,-1.));
#553=DIRECTION('ref_axis',(-0.86602540378445,0.499999999999981,0.));
#554=DIRECTION('',(0.,0.,1.));
#555=DIRECTION('center_axis',(0.,0.,1.));
#556=DIRECTION('ref_axis',(-0.965925826289063,-0.258819045102542,0.));
#557=DIRECTION('center_axis',(0.,0.,-1.));
#558=DIRECTION('ref_axis',(-0.965925826289063,-0.258819045102542,0.));
#559=DIRECTION('center_axis',(0.,0.,-1.));
#560=DIRECTION('ref_axis',(-0.965925826289063,-0.258819045102542,0.));
#561=DIRECTION('',(0.,0.,1.));
#562=DIRECTION('center_axis',(0.,0.,1.));
#563=DIRECTION('ref_axis',(0.86602540378445,-0.499999999999981,0.));
#564=DIRECTION('center_axis',(0.,0.,1.));
#565=DIRECTION('ref_axis',(0.86602540378445,-0.499999999999981,0.));
#566=DIRECTION('center_axis',(0.,0.,1.));
#567=DIRECTION('ref_axis',(0.86602540378445,-0.499999999999981,0.));
#568=DIRECTION('center_axis',(0.,0.,1.));
#569=DIRECTION('ref_axis',(-0.866025403784423,-0.500000000000027,0.));
#570=DIRECTION('center_axis',(0.,0.,-1.));
#571=DIRECTION('ref_axis',(-0.866025403784423,-0.500000000000027,0.));
#572=DIRECTION('',(0.,0.,1.));
#573=DIRECTION('center_axis',(0.,0.,-1.));
#574=DIRECTION('ref_axis',(-0.866025403784423,-0.500000000000027,0.));
#575=DIRECTION('',(0.,0.,1.));
#576=DIRECTION('center_axis',(0.,0.,1.));
#577=DIRECTION('ref_axis',(0.866025403784423,0.500000000000027,0.));
#578=DIRECTION('center_axis',(0.,0.,-1.));
#579=DIRECTION('ref_axis',(0.866025403784423,0.500000000000027,0.));
#580=DIRECTION('center_axis',(0.,0.,-1.));
#581=DIRECTION('ref_axis',(0.866025403784423,0.500000000000027,0.));
#582=DIRECTION('',(0.,0.,1.));
#583=DIRECTION('center_axis',(0.,0.,1.));
#584=DIRECTION('ref_axis',(0.25881904510249,0.965925826289076,0.));
#585=DIRECTION('center_axis',(0.,0.,-1.));
#586=DIRECTION('ref_axis',(0.25881904510249,0.965925826289076,0.));
#587=DIRECTION('center_axis',(0.,0.,-1.));
#588=DIRECTION('ref_axis',(0.25881904510249,0.965925826289076,0.));
#589=DIRECTION('',(0.,0.,1.));
#590=DIRECTION('center_axis',(0.,0.,1.));
#591=DIRECTION('ref_axis',(-0.866025403784423,-0.500000000000027,0.));
#592=DIRECTION('center_axis',(0.,0.,1.));
#593=DIRECTION('ref_axis',(-0.866025403784423,-0.500000000000027,0.));
#594=DIRECTION('center_axis',(0.,0.,1.));
#595=DIRECTION('ref_axis',(-0.866025403784423,-0.500000000000027,0.));
#596=DIRECTION('center_axis',(0.,0.,1.));
#597=DIRECTION('ref_axis',(5.18684188204612E-14,1.,0.));
#598=DIRECTION('center_axis',(0.,0.,-1.));
#599=DIRECTION('ref_axis',(5.18684188204612E-14,1.,0.));
#600=DIRECTION('',(0.,0.,1.));
#601=DIRECTION('center_axis',(0.,0.,-1.));
#602=DIRECTION('ref_axis',(5.18684188204612E-14,1.,0.));
#603=DIRECTION('',(0.,0.,1.));
#604=DIRECTION('center_axis',(0.,0.,1.));
#605=DIRECTION('ref_axis',(0.,-1.,0.));
#606=DIRECTION('center_axis',(0.,0.,-1.));
#607=DIRECTION('ref_axis',(0.,-1.,0.));
#608=DIRECTION('center_axis',(0.,0.,-1.));
#609=DIRECTION('ref_axis',(0.,-1.,0.));
#610=DIRECTION('',(0.,0.,1.));
#611=DIRECTION('center_axis',(0.,0.,1.));
#612=DIRECTION('ref_axis',(0.707106781186548,-0.707106781186547,0.));
#613=DIRECTION('center_axis',(0.,0.,-1.));
#614=DIRECTION('ref_axis',(0.707106781186548,-0.707106781186547,0.));
#615=DIRECTION('center_axis',(0.,0.,-1.));
#616=DIRECTION('ref_axis',(0.707106781186548,-0.707106781186547,0.));
#617=DIRECTION('',(0.,0.,1.));
#618=DIRECTION('center_axis',(0.,0.,1.));
#619=DIRECTION('ref_axis',(5.18684188204613E-14,1.,0.));
#620=DIRECTION('center_axis',(0.,0.,1.));
#621=DIRECTION('ref_axis',(5.18684188204613E-14,1.,0.));
#622=DIRECTION('center_axis',(0.,0.,1.));
#623=DIRECTION('ref_axis',(5.18684188204613E-14,1.,0.));
#624=DIRECTION('center_axis',(0.,0.,1.));
#625=DIRECTION('ref_axis',(-1.,0.,0.));
#626=DIRECTION('center_axis',(0.,0.,-1.));
#627=DIRECTION('ref_axis',(-1.,0.,0.));
#628=DIRECTION('',(0.,0.,-1.));
#629=DIRECTION('center_axis',(0.,0.,-1.));
#630=DIRECTION('ref_axis',(-1.,0.,0.));
#631=DIRECTION('center_axis',(0.,0.,1.));
#632=DIRECTION('ref_axis',(-1.,0.,0.));
#633=DIRECTION('center_axis',(0.,0.,-1.));
#634=DIRECTION('ref_axis',(-1.,0.,0.));
#635=DIRECTION('',(0.,0.,-1.));
#636=DIRECTION('center_axis',(0.,0.,-1.));
#637=DIRECTION('ref_axis',(-1.,0.,0.));
#638=DIRECTION('center_axis',(-1.,0.,0.));
#639=DIRECTION('ref_axis',(0.,-1.,0.));
#640=DIRECTION('',(0.,-1.,0.));
#641=DIRECTION('',(0.,0.,1.));
#642=DIRECTION('',(0.,-1.,0.));
#643=DIRECTION('',(0.,0.,1.));
#644=DIRECTION('center_axis',(0.,1.,0.));
#645=DIRECTION('ref_axis',(-1.,0.,0.));
#646=DIRECTION('',(-1.,0.,0.));
#647=DIRECTION('',(-1.,0.,0.));
#648=DIRECTION('',(0.,0.,1.));
#649=DIRECTION('center_axis',(1.,-5.16382802151236E-17,0.));
#650=DIRECTION('ref_axis',(5.16382802151236E-17,1.,0.));
#651=DIRECTION('',(5.16382802151236E-17,1.,0.));
#652=DIRECTION('',(5.16382802151236E-17,1.,0.));
#653=DIRECTION('',(0.,0.,1.));
#654=DIRECTION('center_axis',(0.,0.,1.));
#655=DIRECTION('ref_axis',(6.6613381477509E-15,-1.,0.));
#656=DIRECTION('center_axis',(0.,0.,1.));
#657=DIRECTION('ref_axis',(6.6613381477509E-15,-1.,0.));
#658=DIRECTION('center_axis',(0.,0.,1.));
#659=DIRECTION('ref_axis',(6.6613381477509E-15,-1.,0.));
#660=DIRECTION('',(0.,0.,1.));
#661=DIRECTION('center_axis',(0.,-1.,0.));
#662=DIRECTION('ref_axis',(1.,0.,0.));
#663=DIRECTION('',(1.,0.,0.));
#664=DIRECTION('',(1.,0.,0.));
#665=DIRECTION('',(0.,0.,1.));
#666=DIRECTION('center_axis',(0.,0.,1.));
#667=DIRECTION('ref_axis',(-1.,-8.8817841970012E-15,0.));
#668=DIRECTION('center_axis',(0.,0.,1.));
#669=DIRECTION('ref_axis',(-1.,-8.8817841970012E-15,0.));
#670=DIRECTION('center_axis',(0.,0.,1.));
#671=DIRECTION('ref_axis',(-1.,-8.8817841970012E-15,0.));
#672=DIRECTION('center_axis',(0.,0.,1.));
#673=DIRECTION('ref_axis',(1.,0.,0.));
#674=DIRECTION('center_axis',(0.,0.,1.));
#675=DIRECTION('ref_axis',(1.,0.,0.));
#676=CARTESIAN_POINT('',(0.,0.,0.));
#677=CARTESIAN_POINT('Origin',(-7.8159700933611E-13,-19.2499999999999,0.));
#678=CARTESIAN_POINT('',(10.4999999999992,-19.2499999999999,6.));
#679=CARTESIAN_POINT('Origin',(-7.8159700933611E-13,-19.2499999999999,6.));
#680=CARTESIAN_POINT('',(10.4999999999992,-19.2499999999999,0.));
#681=CARTESIAN_POINT('',(10.4999999999992,-19.2499999999999,0.));
#682=CARTESIAN_POINT('Origin',(-7.8159700933611E-13,-19.2499999999999,0.));
#683=CARTESIAN_POINT('Origin',(13.05,-26.7844210129246,0.));
#684=CARTESIAN_POINT('',(14.1147782339531,-27.3991710129246,0.));
#685=CARTESIAN_POINT('',(11.9852217660469,-26.1696710129245,0.));
#686=CARTESIAN_POINT('Origin',(13.05,-26.7844210129246,0.));
#687=CARTESIAN_POINT('',(11.9852217660469,-26.1696710129245,6.));
#688=CARTESIAN_POINT('',(11.9852217660469,-26.1696710129245,0.));
#689=CARTESIAN_POINT('',(14.1147782339531,-27.3991710129246,6.));
#690=CARTESIAN_POINT('Origin',(13.05,-26.7844210129246,6.));
#691=CARTESIAN_POINT('',(14.1147782339531,-27.3991710129246,0.));
#692=CARTESIAN_POINT('Origin',(-7.8159700933611E-13,-19.2499999999999,0.));
#693=CARTESIAN_POINT('',(15.7429894884601,-15.0316786801148,0.));
#694=CARTESIAN_POINT('Origin',(-7.8159700933611E-13,-19.2499999999999,0.));
#695=CARTESIAN_POINT('',(15.7429894884601,-15.0316786801148,6.));
#696=CARTESIAN_POINT('Origin',(-7.8159700933611E-13,-19.2499999999999,6.));
#697=CARTESIAN_POINT('',(15.7429894884601,-15.0316786801148,0.));
#698=CARTESIAN_POINT('Origin',(14.5553836850377,-15.3498966960684,0.));
#699=CARTESIAN_POINT('',(13.3677778816153,-15.6681147120219,0.));
#700=CARTESIAN_POINT('Origin',(14.5553836850377,-15.3498966960684,0.));
#701=CARTESIAN_POINT('',(13.3677778816153,-15.6681147120219,6.));
#702=CARTESIAN_POINT('Origin',(14.5553836850377,-15.3498966960684,6.));
#703=CARTESIAN_POINT('',(13.3677778816153,-15.6681147120219,0.));
#704=CARTESIAN_POINT('Origin',(-7.8159700933611E-13,-19.2499999999999,0.));
#705=CARTESIAN_POINT('Origin',(-7.8159700933611E-13,-19.2499999999999,0.));
#706=CARTESIAN_POINT('Origin',(-7.8159700933611E-13,-19.2499999999999,6.));
#707=CARTESIAN_POINT('Origin',(-13.05,-26.7844210129246,0.));
#708=CARTESIAN_POINT('',(-14.1147782339529,-27.3991710129246,0.));
#709=CARTESIAN_POINT('',(-11.985221766047,-26.1696710129246,0.));
#710=CARTESIAN_POINT('Origin',(-13.05,-26.7844210129246,0.));
#711=CARTESIAN_POINT('',(-11.985221766047,-26.1696710129246,6.));
#712=CARTESIAN_POINT('',(-11.985221766047,-26.1696710129246,0.));
#713=CARTESIAN_POINT('',(-14.1147782339529,-27.3991710129246,6.));
#714=CARTESIAN_POINT('Origin',(-13.05,-26.7844210129246,6.));
#715=CARTESIAN_POINT('',(-14.1147782339529,-27.3991710129246,0.));
#716=CARTESIAN_POINT('Origin',(-7.8159700933611E-13,-19.2499999999999,0.));
#717=CARTESIAN_POINT('',(-4.21832131988471,-34.9929894884597,0.));
#718=CARTESIAN_POINT('Origin',(-7.8159700933611E-13,-19.2499999999999,0.));
#719=CARTESIAN_POINT('',(-4.21832131988471,-34.9929894884597,6.));
#720=CARTESIAN_POINT('Origin',(-7.8159700933611E-13,-19.2499999999999,6.));
#721=CARTESIAN_POINT('',(-4.21832131988471,-34.9929894884597,0.));
#722=CARTESIAN_POINT('Origin',(-3.9001033039312,-33.8053836850373,0.));
#723=CARTESIAN_POINT('',(-3.58188528797769,-32.6177778816149,0.));
#724=CARTESIAN_POINT('Origin',(-3.9001033039312,-33.8053836850373,0.));
#725=CARTESIAN_POINT('',(-3.58188528797769,-32.6177778816149,6.));
#726=CARTESIAN_POINT('Origin',(-3.9001033039312,-33.8053836850373,6.));
#727=CARTESIAN_POINT('',(-3.58188528797769,-32.6177778816149,0.));
#728=CARTESIAN_POINT('Origin',(-7.8159700933611E-13,-19.2499999999999,0.));
#729=CARTESIAN_POINT('Origin',(-7.8159700933611E-13,-19.2499999999999,0.));
#730=CARTESIAN_POINT('Origin',(-7.8159700933611E-13,-19.2499999999999,6.));
#731=CARTESIAN_POINT('Origin',(0.,-4.18115797415078,0.));
#732=CARTESIAN_POINT('',(-7.8159700933611E-13,-2.95165797415078,0.));
#733=CARTESIAN_POINT('',(-6.3772220939757E-14,-5.41065797415078,0.));
#734=CARTESIAN_POINT('Origin',(0.,-4.18115797415078,0.));
#735=CARTESIAN_POINT('',(-6.43929354282591E-14,-5.41065797415078,6.));
#736=CARTESIAN_POINT('',(-6.3772220939757E-14,-5.41065797415078,0.));
#737=CARTESIAN_POINT('',(-7.8159700933611E-13,-2.95165797415079,6.));
#738=CARTESIAN_POINT('Origin',(0.,-4.18115797415078,6.));
#739=CARTESIAN_POINT('',(-7.8159700933611E-13,-2.95165797415078,0.));
#740=CARTESIAN_POINT('Origin',(-7.8159700933611E-13,-19.2499999999999,0.));
#741=CARTESIAN_POINT('',(-11.5246681685764,-7.7253318314243,0.));
#742=CARTESIAN_POINT('Origin',(-7.8159700933611E-13,-19.2499999999999,0.));
#743=CARTESIAN_POINT('',(-11.5246681685764,-7.72533183142429,6.));
#744=CARTESIAN_POINT('Origin',(-7.8159700933611E-13,-19.2499999999999,6.));
#745=CARTESIAN_POINT('',(-11.5246681685764,-7.7253318314243,0.));
#746=CARTESIAN_POINT('Origin',(-10.6552803811075,-8.59471961889316,0.));
#747=CARTESIAN_POINT('',(-9.78589259363867,-9.46410740636202,0.));
#748=CARTESIAN_POINT('Origin',(-10.6552803811075,-8.59471961889316,0.));
#749=CARTESIAN_POINT('',(-9.78589259363867,-9.46410740636201,6.));
#750=CARTESIAN_POINT('Origin',(-10.6552803811075,-8.59471961889316,6.));
#751=CARTESIAN_POINT('',(-9.78589259363867,-9.46410740636202,0.));
#752=CARTESIAN_POINT('Origin',(-7.8159700933611E-13,-19.2499999999999,0.));
#753=CARTESIAN_POINT('Origin',(-7.8159700933611E-13,-19.2499999999999,0.));
#754=CARTESIAN_POINT('Origin',(-7.8159700933611E-13,-19.2499999999999,6.));
#755=CARTESIAN_POINT('Origin',(-9.99999999999996,23.75,0.));
#756=CARTESIAN_POINT('',(-7.74999999999996,23.75,6.));
#757=CARTESIAN_POINT('Origin',(-9.99999999999996,23.75,6.));
#758=CARTESIAN_POINT('',(-7.74999999999996,23.75,0.));
#759=CARTESIAN_POINT('',(-7.74999999999996,23.75,0.));
#760=CARTESIAN_POINT('Origin',(-9.99999999999996,23.75,0.));
#761=CARTESIAN_POINT('Origin',(10.,23.75,0.));
#762=CARTESIAN_POINT('',(12.25,23.75,6.));
#763=CARTESIAN_POINT('Origin',(10.,23.75,6.));
#764=CARTESIAN_POINT('',(12.25,23.75,0.));
#765=CARTESIAN_POINT('',(12.25,23.75,0.));
#766=CARTESIAN_POINT('Origin',(10.,23.75,0.));
#767=CARTESIAN_POINT('Origin',(-19.25,35.75,0.));
#768=CARTESIAN_POINT('',(-19.25,35.75,0.));
#769=CARTESIAN_POINT('',(-19.25,-62.2499999999999,0.));
#770=CARTESIAN_POINT('',(-19.25,35.75,0.));
#771=CARTESIAN_POINT('',(-19.25,-62.2499999999999,6.));
#772=CARTESIAN_POINT('',(-19.25,-62.2499999999999,0.));
#773=CARTESIAN_POINT('',(-19.25,35.75,6.));
#774=CARTESIAN_POINT('',(-19.25,35.75,6.));
#775=CARTESIAN_POINT('',(-19.25,35.75,0.));
#776=CARTESIAN_POINT('Origin',(19.25,35.75,0.));
#777=CARTESIAN_POINT('',(19.25,35.75,0.));
#778=CARTESIAN_POINT('',(19.25,35.75,0.));
#779=CARTESIAN_POINT('',(19.25,35.75,6.));
#780=CARTESIAN_POINT('',(19.25,35.75,6.));
#781=CARTESIAN_POINT('',(19.25,35.75,0.));
#782=CARTESIAN_POINT('Origin',(19.25,-62.2499999999999,0.));
#783=CARTESIAN_POINT('',(19.25,-62.2499999999999,0.));
#784=CARTESIAN_POINT('',(19.25,-62.2499999999999,0.));
#785=CARTESIAN_POINT('',(19.25,-62.2499999999999,6.));
#786=CARTESIAN_POINT('',(19.25,-62.2499999999999,6.));
#787=CARTESIAN_POINT('',(19.25,-62.2499999999999,0.));
#788=CARTESIAN_POINT('Origin',(17.25,-62.2499999999999,0.));
#789=CARTESIAN_POINT('',(17.25,-64.2499999999999,0.));
#790=CARTESIAN_POINT('Origin',(17.25,-62.2499999999999,0.));
#791=CARTESIAN_POINT('',(17.25,-64.2499999999999,6.));
#792=CARTESIAN_POINT('Origin',(17.25,-62.2499999999999,6.));
#793=CARTESIAN_POINT('',(17.25,-64.2499999999999,0.));
#794=CARTESIAN_POINT('Origin',(-17.25,-64.2499999999999,0.));
#795=CARTESIAN_POINT('',(-17.25,-64.2499999999999,0.));
#796=CARTESIAN_POINT('',(-17.25,-64.2499999999999,0.));
#797=CARTESIAN_POINT('',(-17.25,-64.2499999999999,6.));
#798=CARTESIAN_POINT('',(-17.25,-64.2499999999999,6.));
#799=CARTESIAN_POINT('',(-17.25,-64.2499999999999,0.));
#800=CARTESIAN_POINT('Origin',(-17.2499999999999,-62.2499999999999,0.));
#801=CARTESIAN_POINT('Origin',(-17.2499999999999,-62.2499999999999,0.));
#802=CARTESIAN_POINT('Origin',(-17.2499999999999,-62.2499999999999,6.));
#803=CARTESIAN_POINT('Origin',(3.5527136788005E-14,-14.2499999999999,6.));
#804=CARTESIAN_POINT('Origin',(3.5527136788005E-14,-14.2499999999999,0.));
#805=UNCERTAINTY_MEASURE_WITH_UNIT(LENGTH_MEASURE(0.01),#809,
'DISTANCE_ACCURACY_VALUE',
'Maximum model space distance between geometric entities at asserted c
onnectivities');
#806=UNCERTAINTY_MEASURE_WITH_UNIT(LENGTH_MEASURE(0.01),#809,
'DISTANCE_ACCURACY_VALUE',
'Maximum model space distance between geometric entities at asserted c
onnectivities');
#807=(
GEOMETRIC_REPRESENTATION_CONTEXT(3)
GLOBAL_UNCERTAINTY_ASSIGNED_CONTEXT((#805))
GLOBAL_UNIT_ASSIGNED_CONTEXT((#809,#811,#812))
REPRESENTATION_CONTEXT('','3D')
);
#808=(
GEOMETRIC_REPRESENTATION_CONTEXT(3)
GLOBAL_UNCERTAINTY_ASSIGNED_CONTEXT((#806))
GLOBAL_UNIT_ASSIGNED_CONTEXT((#809,#811,#812))
REPRESENTATION_CONTEXT('','3D')
);
#809=(
LENGTH_UNIT()
NAMED_UNIT(*)
SI_UNIT(.MILLI.,.METRE.)
);
#810=(
LENGTH_UNIT()
NAMED_UNIT(*)
SI_UNIT(.CENTI.,.METRE.)
);
#811=(
NAMED_UNIT(*)
PLANE_ANGLE_UNIT()
SI_UNIT($,.RADIAN.)
);
#812=(
NAMED_UNIT(*)
SI_UNIT($,.STERADIAN.)
SOLID_ANGLE_UNIT()
);
#813=SHAPE_DEFINITION_REPRESENTATION(#814,#815);
#814=PRODUCT_DEFINITION_SHAPE('',$,#817);
#815=SHAPE_REPRESENTATION('',(#473),#807);
#816=PRODUCT_DEFINITION_CONTEXT('part definition',#821,'design');
#817=PRODUCT_DEFINITION('BaseC_7','BaseC_7',#818,#816);
#818=PRODUCT_DEFINITION_FORMATION('',$,#823);
#819=PRODUCT_RELATED_PRODUCT_CATEGORY('BaseC_7','BaseC_7',(#823));
#820=APPLICATION_PROTOCOL_DEFINITION('international standard',
'automotive_design',2009,#821);
#821=APPLICATION_CONTEXT(
'Core Data for Automotive Mechanical Design Process');
#822=PRODUCT_CONTEXT('part definition',#821,'mechanical');
#823=PRODUCT('BaseC_7','BaseC_7',$,(#822));
#824=PRESENTATION_STYLE_ASSIGNMENT((#825));
#825=SURFACE_STYLE_USAGE(.BOTH.,#828);
#826=SURFACE_STYLE_RENDERING_WITH_PROPERTIES($,#832,(#827));
#827=SURFACE_STYLE_TRANSPARENT(0.53999999165535);
#828=SURFACE_SIDE_STYLE('',(#829,#826));
#829=SURFACE_STYLE_FILL_AREA(#830);
#830=FILL_AREA_STYLE('',(#831));
#831=FILL_AREA_STYLE_COLOUR('',#832);
#832=COLOUR_RGB('',0.8,0.8,0.8);
ENDSEC;
END-ISO-10303-21;
