ISO-10303-21;
HEADER;
/* Generated by software containing ST-Developer
 * from STEP Tools, Inc. (www.steptools.com) 
 */

FILE_DESCRIPTION(
/* description */ (''),
/* implementation_level */ '2;1');

FILE_NAME(
/* name */ 
'I:\\ASU_FOE\\graduation project\\quadcopter\\matlab xml\\231123\\\\Ba
seC_5_ipt_c71fdd73.STEP',
/* time_stamp */ '2023-11-23T19:53:36+02:00',
/* author */ ('user'),
/* organization */ (''),
/* preprocessor_version */ 'ST-DEVELOPER v18.1',
/* originating_system */ 'Autodesk Inventor 2021',
/* authorisation */ '');

FILE_SCHEMA (('AUTOMOTIVE_DESIGN { 1 0 10303 214 3 1 1 }'));
ENDSEC;

DATA;
#10=MECHANICAL_DESIGN_GEOMETRIC_PRESENTATION_REPRESENTATION('',(#13),#454);
#11=SHAPE_REPRESENTATION_RELATIONSHIP('SRR','None',#461,#12);
#12=ADVANCED_BREP_SHAPE_REPRESENTATION('',(#14),#453);
#13=STYLED_ITEM('',(#470),#14);
#14=MANIFOLD_SOLID_BREP('Solid1',#260);
#15=FACE_BOUND('',#47,.T.);
#16=FACE_BOUND('',#48,.T.);
#17=FACE_BOUND('',#49,.T.);
#18=FACE_BOUND('',#50,.T.);
#19=FACE_BOUND('',#51,.T.);
#20=FACE_BOUND('',#62,.T.);
#21=FACE_BOUND('',#63,.T.);
#22=FACE_BOUND('',#64,.T.);
#23=FACE_BOUND('',#65,.T.);
#24=FACE_BOUND('',#66,.T.);
#25=PLANE('',#283);
#26=PLANE('',#284);
#27=PLANE('',#303);
#28=PLANE('',#304);
#29=PLANE('',#305);
#30=PLANE('',#306);
#31=FACE_OUTER_BOUND('',#44,.T.);
#32=FACE_OUTER_BOUND('',#45,.T.);
#33=FACE_OUTER_BOUND('',#46,.T.);
#34=FACE_OUTER_BOUND('',#52,.T.);
#35=FACE_OUTER_BOUND('',#53,.T.);
#36=FACE_OUTER_BOUND('',#54,.T.);
#37=FACE_OUTER_BOUND('',#55,.T.);
#38=FACE_OUTER_BOUND('',#56,.T.);
#39=FACE_OUTER_BOUND('',#57,.T.);
#40=FACE_OUTER_BOUND('',#58,.T.);
#41=FACE_OUTER_BOUND('',#59,.T.);
#42=FACE_OUTER_BOUND('',#60,.T.);
#43=FACE_OUTER_BOUND('',#61,.T.);
#44=EDGE_LOOP('',(#174,#175,#176,#177));
#45=EDGE_LOOP('',(#178,#179,#180,#181));
#46=EDGE_LOOP('',(#182,#183,#184,#185,#186,#187));
#47=EDGE_LOOP('',(#188));
#48=EDGE_LOOP('',(#189));
#49=EDGE_LOOP('',(#190));
#50=EDGE_LOOP('',(#191));
#51=EDGE_LOOP('',(#192));
#52=EDGE_LOOP('',(#193,#194,#195,#196));
#53=EDGE_LOOP('',(#197,#198,#199,#200));
#54=EDGE_LOOP('',(#201,#202,#203,#204));
#55=EDGE_LOOP('',(#205,#206,#207,#208));
#56=EDGE_LOOP('',(#209,#210,#211,#212));
#57=EDGE_LOOP('',(#213,#214,#215,#216));
#58=EDGE_LOOP('',(#217,#218,#219,#220));
#59=EDGE_LOOP('',(#221,#222,#223,#224));
#60=EDGE_LOOP('',(#225,#226,#227,#228));
#61=EDGE_LOOP('',(#229,#230,#231,#232,#233,#234));
#62=EDGE_LOOP('',(#235));
#63=EDGE_LOOP('',(#236));
#64=EDGE_LOOP('',(#237));
#65=EDGE_LOOP('',(#238));
#66=EDGE_LOOP('',(#239));
#67=LINE('',#388,#86);
#68=LINE('',#391,#87);
#69=LINE('',#394,#88);
#70=LINE('',#396,#89);
#71=LINE('',#397,#90);
#72=LINE('',#400,#91);
#73=LINE('',#402,#92);
#74=LINE('',#404,#93);
#75=LINE('',#419,#94);
#76=LINE('',#423,#95);
#77=LINE('',#427,#96);
#78=LINE('',#431,#97);
#79=LINE('',#435,#98);
#80=LINE('',#439,#99);
#81=LINE('',#442,#100);
#82=LINE('',#444,#101);
#83=LINE('',#445,#102);
#84=LINE('',#447,#103);
#85=LINE('',#449,#104);
#86=VECTOR('',#313,10.);
#87=VECTOR('',#316,10.);
#88=VECTOR('',#319,10.);
#89=VECTOR('',#320,10.);
#90=VECTOR('',#321,10.);
#91=VECTOR('',#324,10.);
#92=VECTOR('',#325,10.);
#93=VECTOR('',#326,10.);
#94=VECTOR('',#343,10.);
#95=VECTOR('',#348,4.25);
#96=VECTOR('',#353,2.1);
#97=VECTOR('',#358,2.1);
#98=VECTOR('',#363,2.50000000000009);
#99=VECTOR('',#368,2.50000000000009);
#100=VECTOR('',#371,10.);
#101=VECTOR('',#372,10.);
#102=VECTOR('',#373,10.);
#103=VECTOR('',#376,10.);
#104=VECTOR('',#379,10.);
#105=CIRCLE('',#281,5.);
#106=CIRCLE('',#282,5.);
#107=CIRCLE('',#285,5.);
#108=CIRCLE('',#286,2.50000000000009);
#109=CIRCLE('',#287,2.50000000000009);
#110=CIRCLE('',#288,2.1);
#111=CIRCLE('',#289,2.1);
#112=CIRCLE('',#290,4.25);
#113=CIRCLE('',#292,5.);
#114=CIRCLE('',#294,4.25);
#115=CIRCLE('',#296,2.1);
#116=CIRCLE('',#298,2.1);
#117=CIRCLE('',#300,2.50000000000009);
#118=CIRCLE('',#302,2.50000000000009);
#119=VERTEX_POINT('',#384);
#120=VERTEX_POINT('',#385);
#121=VERTEX_POINT('',#387);
#122=VERTEX_POINT('',#389);
#123=VERTEX_POINT('',#393);
#124=VERTEX_POINT('',#395);
#125=VERTEX_POINT('',#399);
#126=VERTEX_POINT('',#401);
#127=VERTEX_POINT('',#403);
#128=VERTEX_POINT('',#406);
#129=VERTEX_POINT('',#408);
#130=VERTEX_POINT('',#410);
#131=VERTEX_POINT('',#412);
#132=VERTEX_POINT('',#414);
#133=VERTEX_POINT('',#417);
#134=VERTEX_POINT('',#421);
#135=VERTEX_POINT('',#425);
#136=VERTEX_POINT('',#429);
#137=VERTEX_POINT('',#433);
#138=VERTEX_POINT('',#437);
#139=VERTEX_POINT('',#441);
#140=VERTEX_POINT('',#443);
#141=EDGE_CURVE('',#119,#120,#105,.T.);
#142=EDGE_CURVE('',#120,#121,#67,.T.);
#143=EDGE_CURVE('',#121,#122,#106,.T.);
#144=EDGE_CURVE('',#122,#119,#68,.T.);
#145=EDGE_CURVE('',#122,#123,#69,.T.);
#146=EDGE_CURVE('',#124,#123,#70,.T.);
#147=EDGE_CURVE('',#119,#124,#71,.T.);
#148=EDGE_CURVE('',#125,#121,#72,.T.);
#149=EDGE_CURVE('',#126,#125,#73,.T.);
#150=EDGE_CURVE('',#127,#126,#74,.T.);
#151=EDGE_CURVE('',#123,#127,#107,.T.);
#152=EDGE_CURVE('',#128,#128,#108,.T.);
#153=EDGE_CURVE('',#129,#129,#109,.T.);
#154=EDGE_CURVE('',#130,#130,#110,.T.);
#155=EDGE_CURVE('',#131,#131,#111,.T.);
#156=EDGE_CURVE('',#132,#132,#112,.T.);
#157=EDGE_CURVE('',#133,#124,#113,.T.);
#158=EDGE_CURVE('',#127,#133,#75,.T.);
#159=EDGE_CURVE('',#134,#134,#114,.T.);
#160=EDGE_CURVE('',#134,#132,#76,.T.);
#161=EDGE_CURVE('',#135,#135,#115,.T.);
#162=EDGE_CURVE('',#135,#131,#77,.T.);
#163=EDGE_CURVE('',#136,#136,#116,.T.);
#164=EDGE_CURVE('',#136,#130,#78,.T.);
#165=EDGE_CURVE('',#137,#137,#117,.T.);
#166=EDGE_CURVE('',#137,#129,#79,.T.);
#167=EDGE_CURVE('',#138,#138,#118,.T.);
#168=EDGE_CURVE('',#138,#128,#80,.T.);
#169=EDGE_CURVE('',#125,#139,#81,.T.);
#170=EDGE_CURVE('',#140,#139,#82,.T.);
#171=EDGE_CURVE('',#126,#140,#83,.T.);
#172=EDGE_CURVE('',#133,#140,#84,.T.);
#173=EDGE_CURVE('',#139,#120,#85,.T.);
#174=ORIENTED_EDGE('',*,*,#141,.T.);
#175=ORIENTED_EDGE('',*,*,#142,.T.);
#176=ORIENTED_EDGE('',*,*,#143,.T.);
#177=ORIENTED_EDGE('',*,*,#144,.T.);
#178=ORIENTED_EDGE('',*,*,#144,.F.);
#179=ORIENTED_EDGE('',*,*,#145,.T.);
#180=ORIENTED_EDGE('',*,*,#146,.F.);
#181=ORIENTED_EDGE('',*,*,#147,.F.);
#182=ORIENTED_EDGE('',*,*,#143,.F.);
#183=ORIENTED_EDGE('',*,*,#148,.F.);
#184=ORIENTED_EDGE('',*,*,#149,.F.);
#185=ORIENTED_EDGE('',*,*,#150,.F.);
#186=ORIENTED_EDGE('',*,*,#151,.F.);
#187=ORIENTED_EDGE('',*,*,#145,.F.);
#188=ORIENTED_EDGE('',*,*,#152,.F.);
#189=ORIENTED_EDGE('',*,*,#153,.F.);
#190=ORIENTED_EDGE('',*,*,#154,.F.);
#191=ORIENTED_EDGE('',*,*,#155,.F.);
#192=ORIENTED_EDGE('',*,*,#156,.F.);
#193=ORIENTED_EDGE('',*,*,#157,.T.);
#194=ORIENTED_EDGE('',*,*,#146,.T.);
#195=ORIENTED_EDGE('',*,*,#151,.T.);
#196=ORIENTED_EDGE('',*,*,#158,.T.);
#197=ORIENTED_EDGE('',*,*,#159,.F.);
#198=ORIENTED_EDGE('',*,*,#160,.T.);
#199=ORIENTED_EDGE('',*,*,#156,.T.);
#200=ORIENTED_EDGE('',*,*,#160,.F.);
#201=ORIENTED_EDGE('',*,*,#161,.F.);
#202=ORIENTED_EDGE('',*,*,#162,.T.);
#203=ORIENTED_EDGE('',*,*,#155,.T.);
#204=ORIENTED_EDGE('',*,*,#162,.F.);
#205=ORIENTED_EDGE('',*,*,#163,.F.);
#206=ORIENTED_EDGE('',*,*,#164,.T.);
#207=ORIENTED_EDGE('',*,*,#154,.T.);
#208=ORIENTED_EDGE('',*,*,#164,.F.);
#209=ORIENTED_EDGE('',*,*,#165,.F.);
#210=ORIENTED_EDGE('',*,*,#166,.T.);
#211=ORIENTED_EDGE('',*,*,#153,.T.);
#212=ORIENTED_EDGE('',*,*,#166,.F.);
#213=ORIENTED_EDGE('',*,*,#167,.F.);
#214=ORIENTED_EDGE('',*,*,#168,.T.);
#215=ORIENTED_EDGE('',*,*,#152,.T.);
#216=ORIENTED_EDGE('',*,*,#168,.F.);
#217=ORIENTED_EDGE('',*,*,#149,.T.);
#218=ORIENTED_EDGE('',*,*,#169,.T.);
#219=ORIENTED_EDGE('',*,*,#170,.F.);
#220=ORIENTED_EDGE('',*,*,#171,.F.);
#221=ORIENTED_EDGE('',*,*,#158,.F.);
#222=ORIENTED_EDGE('',*,*,#150,.T.);
#223=ORIENTED_EDGE('',*,*,#171,.T.);
#224=ORIENTED_EDGE('',*,*,#172,.F.);
#225=ORIENTED_EDGE('',*,*,#142,.F.);
#226=ORIENTED_EDGE('',*,*,#173,.F.);
#227=ORIENTED_EDGE('',*,*,#169,.F.);
#228=ORIENTED_EDGE('',*,*,#148,.T.);
#229=ORIENTED_EDGE('',*,*,#141,.F.);
#230=ORIENTED_EDGE('',*,*,#147,.T.);
#231=ORIENTED_EDGE('',*,*,#157,.F.);
#232=ORIENTED_EDGE('',*,*,#172,.T.);
#233=ORIENTED_EDGE('',*,*,#170,.T.);
#234=ORIENTED_EDGE('',*,*,#173,.T.);
#235=ORIENTED_EDGE('',*,*,#167,.T.);
#236=ORIENTED_EDGE('',*,*,#165,.T.);
#237=ORIENTED_EDGE('',*,*,#163,.T.);
#238=ORIENTED_EDGE('',*,*,#161,.T.);
#239=ORIENTED_EDGE('',*,*,#159,.T.);
#240=CYLINDRICAL_SURFACE('',#280,5.);
#241=CYLINDRICAL_SURFACE('',#291,5.);
#242=CYLINDRICAL_SURFACE('',#293,4.25);
#243=CYLINDRICAL_SURFACE('',#295,2.1);
#244=CYLINDRICAL_SURFACE('',#297,2.1);
#245=CYLINDRICAL_SURFACE('',#299,2.50000000000009);
#246=CYLINDRICAL_SURFACE('',#301,2.50000000000009);
#247=ADVANCED_FACE('',(#31),#240,.T.);
#248=ADVANCED_FACE('',(#32),#25,.T.);
#249=ADVANCED_FACE('',(#33,#15,#16,#17,#18,#19),#26,.F.);
#250=ADVANCED_FACE('',(#34),#241,.T.);
#251=ADVANCED_FACE('',(#35),#242,.F.);
#252=ADVANCED_FACE('',(#36),#243,.F.);
#253=ADVANCED_FACE('',(#37),#244,.F.);
#254=ADVANCED_FACE('',(#38),#245,.F.);
#255=ADVANCED_FACE('',(#39),#246,.F.);
#256=ADVANCED_FACE('',(#40),#27,.T.);
#257=ADVANCED_FACE('',(#41),#28,.T.);
#258=ADVANCED_FACE('',(#42),#29,.T.);
#259=ADVANCED_FACE('',(#43,#20,#21,#22,#23,#24),#30,.T.);
#260=CLOSED_SHELL('',(#247,#248,#249,#250,#251,#252,#253,#254,#255,#256,
#257,#258,#259));
#261=DERIVED_UNIT_ELEMENT(#263,1.);
#262=DERIVED_UNIT_ELEMENT(#456,3.);
#263=(
MASS_UNIT()
NAMED_UNIT(*)
SI_UNIT($,.GRAM.)
);
#264=DERIVED_UNIT((#261,#262));
#265=MEASURE_REPRESENTATION_ITEM('density measure',
POSITIVE_RATIO_MEASURE(1.188),#264);
#266=PROPERTY_DEFINITION_REPRESENTATION(#271,#268);
#267=PROPERTY_DEFINITION_REPRESENTATION(#272,#269);
#268=REPRESENTATION('material name',(#270),#453);
#269=REPRESENTATION('density',(#265),#453);
#270=DESCRIPTIVE_REPRESENTATION_ITEM('PMMA Plastic','PMMA Plastic');
#271=PROPERTY_DEFINITION('material property','material name',#463);
#272=PROPERTY_DEFINITION('material property','density of part',#463);
#273=DATE_TIME_ROLE('creation_date');
#274=APPLIED_DATE_AND_TIME_ASSIGNMENT(#275,#273,(#463));
#275=DATE_AND_TIME(#276,#277);
#276=CALENDAR_DATE(2023,20,10);
#277=LOCAL_TIME(0,0,0.,#278);
#278=COORDINATED_UNIVERSAL_TIME_OFFSET(0,0,.BEHIND.);
#279=AXIS2_PLACEMENT_3D('placement',#382,#307,#308);
#280=AXIS2_PLACEMENT_3D('',#383,#309,#310);
#281=AXIS2_PLACEMENT_3D('',#386,#311,#312);
#282=AXIS2_PLACEMENT_3D('',#390,#314,#315);
#283=AXIS2_PLACEMENT_3D('',#392,#317,#318);
#284=AXIS2_PLACEMENT_3D('',#398,#322,#323);
#285=AXIS2_PLACEMENT_3D('',#405,#327,#328);
#286=AXIS2_PLACEMENT_3D('',#407,#329,#330);
#287=AXIS2_PLACEMENT_3D('',#409,#331,#332);
#288=AXIS2_PLACEMENT_3D('',#411,#333,#334);
#289=AXIS2_PLACEMENT_3D('',#413,#335,#336);
#290=AXIS2_PLACEMENT_3D('',#415,#337,#338);
#291=AXIS2_PLACEMENT_3D('',#416,#339,#340);
#292=AXIS2_PLACEMENT_3D('',#418,#341,#342);
#293=AXIS2_PLACEMENT_3D('',#420,#344,#345);
#294=AXIS2_PLACEMENT_3D('',#422,#346,#347);
#295=AXIS2_PLACEMENT_3D('',#424,#349,#350);
#296=AXIS2_PLACEMENT_3D('',#426,#351,#352);
#297=AXIS2_PLACEMENT_3D('',#428,#354,#355);
#298=AXIS2_PLACEMENT_3D('',#430,#356,#357);
#299=AXIS2_PLACEMENT_3D('',#432,#359,#360);
#300=AXIS2_PLACEMENT_3D('',#434,#361,#362);
#301=AXIS2_PLACEMENT_3D('',#436,#364,#365);
#302=AXIS2_PLACEMENT_3D('',#438,#366,#367);
#303=AXIS2_PLACEMENT_3D('',#440,#369,#370);
#304=AXIS2_PLACEMENT_3D('',#446,#374,#375);
#305=AXIS2_PLACEMENT_3D('',#448,#377,#378);
#306=AXIS2_PLACEMENT_3D('',#450,#380,#381);
#307=DIRECTION('axis',(0.,0.,1.));
#308=DIRECTION('refdir',(1.,0.,0.));
#309=DIRECTION('center_axis',(0.,0.,1.));
#310=DIRECTION('ref_axis',(0.707106781186547,0.707106781186548,0.));
#311=DIRECTION('center_axis',(0.,0.,-1.));
#312=DIRECTION('ref_axis',(0.707106781186547,0.707106781186548,0.));
#313=DIRECTION('',(0.,0.,-1.));
#314=DIRECTION('center_axis',(0.,0.,1.));
#315=DIRECTION('ref_axis',(0.707106781186547,0.707106781186548,0.));
#316=DIRECTION('',(0.,0.,1.));
#317=DIRECTION('center_axis',(-8.88178419700125E-16,1.,0.));
#318=DIRECTION('ref_axis',(-1.,-8.88178419700125E-16,0.));
#319=DIRECTION('',(-1.,-8.88178419700125E-16,0.));
#320=DIRECTION('',(0.,0.,-1.));
#321=DIRECTION('',(-1.,-8.88178419700125E-16,0.));
#322=DIRECTION('center_axis',(0.,0.,1.));
#323=DIRECTION('ref_axis',(1.,0.,0.));
#324=DIRECTION('',(-9.86864910777917E-17,1.,0.));
#325=DIRECTION('',(1.,0.,0.));
#326=DIRECTION('',(2.96059473233375E-16,-1.,0.));
#327=DIRECTION('center_axis',(0.,0.,1.));
#328=DIRECTION('ref_axis',(-0.707106781186548,0.707106781186547,0.));
#329=DIRECTION('center_axis',(0.,0.,-1.));
#330=DIRECTION('ref_axis',(-1.,0.,0.));
#331=DIRECTION('center_axis',(0.,0.,-1.));
#332=DIRECTION('ref_axis',(-1.,0.,0.));
#333=DIRECTION('center_axis',(0.,0.,-1.));
#334=DIRECTION('ref_axis',(-1.,0.,0.));
#335=DIRECTION('center_axis',(0.,0.,-1.));
#336=DIRECTION('ref_axis',(-1.,0.,0.));
#337=DIRECTION('center_axis',(0.,0.,-1.));
#338=DIRECTION('ref_axis',(-1.,0.,0.));
#339=DIRECTION('center_axis',(0.,0.,1.));
#340=DIRECTION('ref_axis',(-0.707106781186548,0.707106781186547,0.));
#341=DIRECTION('center_axis',(0.,0.,-1.));
#342=DIRECTION('ref_axis',(-0.707106781186548,0.707106781186547,0.));
#343=DIRECTION('',(0.,0.,1.));
#344=DIRECTION('center_axis',(0.,0.,1.));
#345=DIRECTION('ref_axis',(-1.,0.,0.));
#346=DIRECTION('center_axis',(0.,0.,-1.));
#347=DIRECTION('ref_axis',(-1.,0.,0.));
#348=DIRECTION('',(0.,0.,-1.));
#349=DIRECTION('center_axis',(0.,0.,1.));
#350=DIRECTION('ref_axis',(-1.,0.,0.));
#351=DIRECTION('center_axis',(0.,0.,-1.));
#352=DIRECTION('ref_axis',(-1.,0.,0.));
#353=DIRECTION('',(0.,0.,-1.));
#354=DIRECTION('center_axis',(0.,0.,1.));
#355=DIRECTION('ref_axis',(-1.,0.,0.));
#356=DIRECTION('center_axis',(0.,0.,-1.));
#357=DIRECTION('ref_axis',(-1.,0.,0.));
#358=DIRECTION('',(0.,0.,-1.));
#359=DIRECTION('center_axis',(0.,0.,1.));
#360=DIRECTION('ref_axis',(-1.,0.,0.));
#361=DIRECTION('center_axis',(0.,0.,-1.));
#362=DIRECTION('ref_axis',(-1.,0.,0.));
#363=DIRECTION('',(0.,0.,-1.));
#364=DIRECTION('center_axis',(0.,0.,1.));
#365=DIRECTION('ref_axis',(-1.,0.,0.));
#366=DIRECTION('center_axis',(0.,0.,-1.));
#367=DIRECTION('ref_axis',(-1.,0.,0.));
#368=DIRECTION('',(0.,0.,-1.));
#369=DIRECTION('center_axis',(0.,-1.,0.));
#370=DIRECTION('ref_axis',(1.,0.,0.));
#371=DIRECTION('',(0.,0.,1.));
#372=DIRECTION('',(1.,0.,0.));
#373=DIRECTION('',(0.,0.,1.));
#374=DIRECTION('center_axis',(-1.,-2.96059473233375E-16,0.));
#375=DIRECTION('ref_axis',(2.96059473233375E-16,-1.,0.));
#376=DIRECTION('',(2.96059473233375E-16,-1.,0.));
#377=DIRECTION('center_axis',(1.,9.86864910777917E-17,0.));
#378=DIRECTION('ref_axis',(-9.86864910777917E-17,1.,0.));
#379=DIRECTION('',(-9.86864910777917E-17,1.,0.));
#380=DIRECTION('center_axis',(0.,0.,1.));
#381=DIRECTION('ref_axis',(1.,0.,0.));
#382=CARTESIAN_POINT('',(0.,0.,0.));
#383=CARTESIAN_POINT('Origin',(35.,89.4544349940523,0.));
#384=CARTESIAN_POINT('',(35.,94.4544349940523,6.));
#385=CARTESIAN_POINT('',(40.,89.4544349940523,6.));
#386=CARTESIAN_POINT('Origin',(35.,89.4544349940523,6.));
#387=CARTESIAN_POINT('',(40.,89.4544349940523,0.));
#388=CARTESIAN_POINT('',(40.,89.4544349940523,0.));
#389=CARTESIAN_POINT('',(35.,94.4544349940523,0.));
#390=CARTESIAN_POINT('Origin',(35.,89.4544349940523,0.));
#391=CARTESIAN_POINT('',(35.,94.4544349940523,0.));
#392=CARTESIAN_POINT('Origin',(40.,94.4544349940523,0.));
#393=CARTESIAN_POINT('',(4.99999999999997,94.4544349940523,0.));
#394=CARTESIAN_POINT('',(40.,94.4544349940523,0.));
#395=CARTESIAN_POINT('',(4.99999999999997,94.4544349940523,6.));
#396=CARTESIAN_POINT('',(4.99999999999997,94.4544349940523,0.));
#397=CARTESIAN_POINT('',(40.,94.4544349940523,6.));
#398=CARTESIAN_POINT('Origin',(20.,49.4544349940523,0.));
#399=CARTESIAN_POINT('',(40.,4.45443499405229,0.));
#400=CARTESIAN_POINT('',(40.,4.45443499405229,0.));
#401=CARTESIAN_POINT('',(0.,4.45443499405229,0.));
#402=CARTESIAN_POINT('',(0.,4.45443499405229,0.));
#403=CARTESIAN_POINT('',(-2.51650552248369E-14,89.4544349940523,0.));
#404=CARTESIAN_POINT('',(-2.66453525910038E-14,94.4544349940523,0.));
#405=CARTESIAN_POINT('Origin',(4.99999999999998,89.4544349940523,0.));
#406=CARTESIAN_POINT('',(22.3754825469412,41.4544260437422,0.));
#407=CARTESIAN_POINT('Origin',(19.8754825469411,41.4544260437422,0.));
#408=CARTESIAN_POINT('',(22.4820497613847,77.4544260437429,0.));
#409=CARTESIAN_POINT('Origin',(19.9820497613846,77.4544260437429,0.));
#410=CARTESIAN_POINT('',(32.1,14.4544349940531,0.));
#411=CARTESIAN_POINT('Origin',(30.,14.4544349940531,0.));
#412=CARTESIAN_POINT('',(12.1,14.4544349940529,0.));
#413=CARTESIAN_POINT('Origin',(10.,14.4544349940529,0.));
#414=CARTESIAN_POINT('',(24.25,59.4544349940523,0.));
#415=CARTESIAN_POINT('Origin',(20.,59.4544349940523,0.));
#416=CARTESIAN_POINT('Origin',(4.99999999999998,89.4544349940523,0.));
#417=CARTESIAN_POINT('',(-2.51650552248369E-14,89.4544349940523,6.));
#418=CARTESIAN_POINT('Origin',(4.99999999999998,89.4544349940523,6.));
#419=CARTESIAN_POINT('',(-2.55351295663786E-14,89.4544349940523,0.));
#420=CARTESIAN_POINT('Origin',(20.,59.4544349940523,0.));
#421=CARTESIAN_POINT('',(24.25,59.4544349940523,6.));
#422=CARTESIAN_POINT('Origin',(20.,59.4544349940523,6.));
#423=CARTESIAN_POINT('',(24.25,59.4544349940523,0.));
#424=CARTESIAN_POINT('Origin',(10.,14.4544349940529,0.));
#425=CARTESIAN_POINT('',(12.1,14.4544349940529,6.));
#426=CARTESIAN_POINT('Origin',(10.,14.4544349940529,6.));
#427=CARTESIAN_POINT('',(12.1,14.4544349940529,0.));
#428=CARTESIAN_POINT('Origin',(30.,14.4544349940531,0.));
#429=CARTESIAN_POINT('',(32.1,14.4544349940531,6.));
#430=CARTESIAN_POINT('Origin',(30.,14.4544349940531,6.));
#431=CARTESIAN_POINT('',(32.1,14.4544349940531,0.));
#432=CARTESIAN_POINT('Origin',(19.9820497613846,77.4544260437429,0.));
#433=CARTESIAN_POINT('',(22.4820497613847,77.4544260437429,6.));
#434=CARTESIAN_POINT('Origin',(19.9820497613846,77.4544260437429,6.));
#435=CARTESIAN_POINT('',(22.4820497613847,77.4544260437429,0.));
#436=CARTESIAN_POINT('Origin',(19.8754825469411,41.4544260437422,0.));
#437=CARTESIAN_POINT('',(22.3754825469412,41.4544260437422,6.));
#438=CARTESIAN_POINT('Origin',(19.8754825469411,41.4544260437422,6.));
#439=CARTESIAN_POINT('',(22.3754825469412,41.4544260437422,0.));
#440=CARTESIAN_POINT('Origin',(0.,4.45443499405229,0.));
#441=CARTESIAN_POINT('',(40.,4.45443499405229,6.));
#442=CARTESIAN_POINT('',(40.,4.45443499405229,0.));
#443=CARTESIAN_POINT('',(0.,4.45443499405229,6.));
#444=CARTESIAN_POINT('',(0.,4.45443499405229,6.));
#445=CARTESIAN_POINT('',(0.,4.45443499405229,0.));
#446=CARTESIAN_POINT('Origin',(-2.66453525910038E-14,94.4544349940523,0.));
#447=CARTESIAN_POINT('',(-2.66453525910038E-14,94.4544349940523,6.));
#448=CARTESIAN_POINT('Origin',(40.,4.45443499405229,0.));
#449=CARTESIAN_POINT('',(40.,4.45443499405229,6.));
#450=CARTESIAN_POINT('Origin',(20.,49.4544349940523,6.));
#451=UNCERTAINTY_MEASURE_WITH_UNIT(LENGTH_MEASURE(0.01),#455,
'DISTANCE_ACCURACY_VALUE',
'Maximum model space distance between geometric entities at asserted c
onnectivities');
#452=UNCERTAINTY_MEASURE_WITH_UNIT(LENGTH_MEASURE(0.01),#455,
'DISTANCE_ACCURACY_VALUE',
'Maximum model space distance between geometric entities at asserted c
onnectivities');
#453=(
GEOMETRIC_REPRESENTATION_CONTEXT(3)
GLOBAL_UNCERTAINTY_ASSIGNED_CONTEXT((#451))
GLOBAL_UNIT_ASSIGNED_CONTEXT((#455,#457,#458))
REPRESENTATION_CONTEXT('','3D')
);
#454=(
GEOMETRIC_REPRESENTATION_CONTEXT(3)
GLOBAL_UNCERTAINTY_ASSIGNED_CONTEXT((#452))
GLOBAL_UNIT_ASSIGNED_CONTEXT((#455,#457,#458))
REPRESENTATION_CONTEXT('','3D')
);
#455=(
LENGTH_UNIT()
NAMED_UNIT(*)
SI_UNIT(.MILLI.,.METRE.)
);
#456=(
LENGTH_UNIT()
NAMED_UNIT(*)
SI_UNIT(.CENTI.,.METRE.)
);
#457=(
NAMED_UNIT(*)
PLANE_ANGLE_UNIT()
SI_UNIT($,.RADIAN.)
);
#458=(
NAMED_UNIT(*)
SI_UNIT($,.STERADIAN.)
SOLID_ANGLE_UNIT()
);
#459=SHAPE_DEFINITION_REPRESENTATION(#460,#461);
#460=PRODUCT_DEFINITION_SHAPE('',$,#463);
#461=SHAPE_REPRESENTATION('',(#279),#453);
#462=PRODUCT_DEFINITION_CONTEXT('part definition',#467,'design');
#463=PRODUCT_DEFINITION('BaseC_5','BaseC_5',#464,#462);
#464=PRODUCT_DEFINITION_FORMATION('',$,#469);
#465=PRODUCT_RELATED_PRODUCT_CATEGORY('BaseC_5','BaseC_5',(#469));
#466=APPLICATION_PROTOCOL_DEFINITION('international standard',
'automotive_design',2009,#467);
#467=APPLICATION_CONTEXT(
'Core Data for Automotive Mechanical Design Process');
#468=PRODUCT_CONTEXT('part definition',#467,'mechanical');
#469=PRODUCT('BaseC_5','BaseC_5',$,(#468));
#470=PRESENTATION_STYLE_ASSIGNMENT((#471));
#471=SURFACE_STYLE_USAGE(.BOTH.,#474);
#472=SURFACE_STYLE_RENDERING_WITH_PROPERTIES($,#478,(#473));
#473=SURFACE_STYLE_TRANSPARENT(0.53999999165535);
#474=SURFACE_SIDE_STYLE('',(#475,#472));
#475=SURFACE_STYLE_FILL_AREA(#476);
#476=FILL_AREA_STYLE('',(#477));
#477=FILL_AREA_STYLE_COLOUR('',#478);
#478=COLOUR_RGB('',0.8,0.8,0.8);
ENDSEC;
END-ISO-10303-21;
