ISO-10303-21;
HEADER;
/* Generated by software containing ST-Developer
 * from STEP Tools, Inc. (www.steptools.com) 
 */

FILE_DESCRIPTION(
/* description */ (''),
/* implementation_level */ '2;1');

FILE_NAME(
/* name */ 
'I:\\ASU_FOE\\graduation project\\quadcopter\\matlab xml\\231123\\\\Ba
seC_1_ipt_dbc63049.STEP',
/* time_stamp */ '2023-11-23T19:53:36+02:00',
/* author */ ('user'),
/* organization */ (''),
/* preprocessor_version */ 'ST-DEVELOPER v18.1',
/* originating_system */ 'Autodesk Inventor 2021',
/* authorisation */ '');

FILE_SCHEMA (('AUTOMOTIVE_DESIGN { 1 0 10303 214 3 1 1 }'));
ENDSEC;

DATA;
#10=MECHANICAL_DESIGN_GEOMETRIC_PRESENTATION_REPRESENTATION('',(#13),#1109);
#11=SHAPE_REPRESENTATION_RELATIONSHIP('SRR','None',#1116,#12);
#12=ADVANCED_BREP_SHAPE_REPRESENTATION('',(#14),#1108);
#13=STYLED_ITEM('',(#1125),#14);
#14=MANIFOLD_SOLID_BREP('Solid1',#643);
#15=FACE_BOUND('',#94,.T.);
#16=FACE_BOUND('',#95,.T.);
#17=FACE_BOUND('',#96,.T.);
#18=FACE_BOUND('',#97,.T.);
#19=FACE_BOUND('',#98,.T.);
#20=FACE_BOUND('',#99,.T.);
#21=FACE_BOUND('',#100,.T.);
#22=FACE_BOUND('',#101,.T.);
#23=FACE_BOUND('',#102,.T.);
#24=FACE_BOUND('',#103,.T.);
#25=FACE_BOUND('',#104,.T.);
#26=FACE_BOUND('',#105,.T.);
#27=FACE_BOUND('',#106,.T.);
#28=FACE_BOUND('',#107,.T.);
#29=FACE_BOUND('',#108,.T.);
#30=FACE_BOUND('',#109,.T.);
#31=FACE_BOUND('',#110,.T.);
#32=FACE_BOUND('',#111,.T.);
#33=FACE_BOUND('',#112,.T.);
#34=FACE_BOUND('',#113,.T.);
#35=FACE_BOUND('',#141,.T.);
#36=FACE_BOUND('',#142,.T.);
#37=FACE_BOUND('',#143,.T.);
#38=FACE_BOUND('',#144,.T.);
#39=FACE_BOUND('',#145,.T.);
#40=FACE_BOUND('',#146,.T.);
#41=FACE_BOUND('',#147,.T.);
#42=FACE_BOUND('',#148,.T.);
#43=FACE_BOUND('',#149,.T.);
#44=FACE_BOUND('',#150,.T.);
#45=FACE_BOUND('',#151,.T.);
#46=FACE_BOUND('',#152,.T.);
#47=FACE_BOUND('',#153,.T.);
#48=FACE_BOUND('',#154,.T.);
#49=FACE_BOUND('',#155,.T.);
#50=FACE_BOUND('',#156,.T.);
#51=FACE_BOUND('',#157,.T.);
#52=FACE_BOUND('',#158,.T.);
#53=FACE_BOUND('',#159,.T.);
#54=FACE_BOUND('',#160,.T.);
#55=PLANE('',#666);
#56=PLANE('',#667);
#57=PLANE('',#693);
#58=PLANE('',#696);
#59=PLANE('',#739);
#60=PLANE('',#740);
#61=FACE_OUTER_BOUND('',#91,.T.);
#62=FACE_OUTER_BOUND('',#92,.T.);
#63=FACE_OUTER_BOUND('',#93,.T.);
#64=FACE_OUTER_BOUND('',#114,.T.);
#65=FACE_OUTER_BOUND('',#115,.T.);
#66=FACE_OUTER_BOUND('',#116,.T.);
#67=FACE_OUTER_BOUND('',#117,.T.);
#68=FACE_OUTER_BOUND('',#118,.T.);
#69=FACE_OUTER_BOUND('',#119,.T.);
#70=FACE_OUTER_BOUND('',#120,.T.);
#71=FACE_OUTER_BOUND('',#121,.T.);
#72=FACE_OUTER_BOUND('',#122,.T.);
#73=FACE_OUTER_BOUND('',#123,.T.);
#74=FACE_OUTER_BOUND('',#124,.T.);
#75=FACE_OUTER_BOUND('',#125,.T.);
#76=FACE_OUTER_BOUND('',#126,.T.);
#77=FACE_OUTER_BOUND('',#127,.T.);
#78=FACE_OUTER_BOUND('',#128,.T.);
#79=FACE_OUTER_BOUND('',#129,.T.);
#80=FACE_OUTER_BOUND('',#130,.T.);
#81=FACE_OUTER_BOUND('',#131,.T.);
#82=FACE_OUTER_BOUND('',#132,.T.);
#83=FACE_OUTER_BOUND('',#133,.T.);
#84=FACE_OUTER_BOUND('',#134,.T.);
#85=FACE_OUTER_BOUND('',#135,.T.);
#86=FACE_OUTER_BOUND('',#136,.T.);
#87=FACE_OUTER_BOUND('',#137,.T.);
#88=FACE_OUTER_BOUND('',#138,.T.);
#89=FACE_OUTER_BOUND('',#139,.T.);
#90=FACE_OUTER_BOUND('',#140,.T.);
#91=EDGE_LOOP('',(#421,#422,#423,#424));
#92=EDGE_LOOP('',(#425,#426,#427,#428));
#93=EDGE_LOOP('',(#429,#430,#431,#432,#433,#434,#435,#436));
#94=EDGE_LOOP('',(#437));
#95=EDGE_LOOP('',(#438));
#96=EDGE_LOOP('',(#439));
#97=EDGE_LOOP('',(#440));
#98=EDGE_LOOP('',(#441));
#99=EDGE_LOOP('',(#442));
#100=EDGE_LOOP('',(#443));
#101=EDGE_LOOP('',(#444));
#102=EDGE_LOOP('',(#445));
#103=EDGE_LOOP('',(#446));
#104=EDGE_LOOP('',(#447));
#105=EDGE_LOOP('',(#448));
#106=EDGE_LOOP('',(#449));
#107=EDGE_LOOP('',(#450));
#108=EDGE_LOOP('',(#451));
#109=EDGE_LOOP('',(#452));
#110=EDGE_LOOP('',(#453));
#111=EDGE_LOOP('',(#454));
#112=EDGE_LOOP('',(#455));
#113=EDGE_LOOP('',(#456));
#114=EDGE_LOOP('',(#457,#458,#459,#460));
#115=EDGE_LOOP('',(#461,#462,#463,#464));
#116=EDGE_LOOP('',(#465,#466,#467,#468));
#117=EDGE_LOOP('',(#469,#470,#471,#472));
#118=EDGE_LOOP('',(#473,#474,#475,#476));
#119=EDGE_LOOP('',(#477,#478,#479,#480));
#120=EDGE_LOOP('',(#481,#482,#483,#484));
#121=EDGE_LOOP('',(#485,#486,#487,#488));
#122=EDGE_LOOP('',(#489,#490,#491,#492));
#123=EDGE_LOOP('',(#493,#494,#495,#496));
#124=EDGE_LOOP('',(#497,#498,#499,#500));
#125=EDGE_LOOP('',(#501,#502,#503,#504));
#126=EDGE_LOOP('',(#505,#506,#507,#508));
#127=EDGE_LOOP('',(#509,#510,#511,#512));
#128=EDGE_LOOP('',(#513,#514,#515,#516));
#129=EDGE_LOOP('',(#517,#518,#519,#520));
#130=EDGE_LOOP('',(#521,#522,#523,#524));
#131=EDGE_LOOP('',(#525,#526,#527,#528));
#132=EDGE_LOOP('',(#529,#530,#531,#532));
#133=EDGE_LOOP('',(#533,#534,#535,#536));
#134=EDGE_LOOP('',(#537,#538,#539,#540));
#135=EDGE_LOOP('',(#541,#542,#543,#544));
#136=EDGE_LOOP('',(#545,#546,#547,#548));
#137=EDGE_LOOP('',(#549,#550,#551,#552));
#138=EDGE_LOOP('',(#553,#554,#555,#556));
#139=EDGE_LOOP('',(#557,#558,#559,#560));
#140=EDGE_LOOP('',(#561,#562,#563,#564,#565,#566,#567,#568));
#141=EDGE_LOOP('',(#569));
#142=EDGE_LOOP('',(#570));
#143=EDGE_LOOP('',(#571));
#144=EDGE_LOOP('',(#572));
#145=EDGE_LOOP('',(#573));
#146=EDGE_LOOP('',(#574));
#147=EDGE_LOOP('',(#575));
#148=EDGE_LOOP('',(#576));
#149=EDGE_LOOP('',(#577));
#150=EDGE_LOOP('',(#578));
#151=EDGE_LOOP('',(#579));
#152=EDGE_LOOP('',(#580));
#153=EDGE_LOOP('',(#581));
#154=EDGE_LOOP('',(#582));
#155=EDGE_LOOP('',(#583));
#156=EDGE_LOOP('',(#584));
#157=EDGE_LOOP('',(#585));
#158=EDGE_LOOP('',(#586));
#159=EDGE_LOOP('',(#587));
#160=EDGE_LOOP('',(#588));
#161=LINE('',#941,#197);
#162=LINE('',#944,#198);
#163=LINE('',#947,#199);
#164=LINE('',#949,#200);
#165=LINE('',#950,#201);
#166=LINE('',#953,#202);
#167=LINE('',#957,#203);
#168=LINE('',#961,#204);
#169=LINE('',#1005,#205);
#170=LINE('',#1009,#206);
#171=LINE('',#1010,#207);
#172=LINE('',#1013,#208);
#173=LINE('',#1017,#209);
#174=LINE('',#1018,#210);
#175=LINE('',#1021,#211);
#176=LINE('',#1025,#212);
#177=LINE('',#1029,#213);
#178=LINE('',#1033,#214);
#179=LINE('',#1037,#215);
#180=LINE('',#1041,#216);
#181=LINE('',#1045,#217);
#182=LINE('',#1049,#218);
#183=LINE('',#1053,#219);
#184=LINE('',#1057,#220);
#185=LINE('',#1061,#221);
#186=LINE('',#1065,#222);
#187=LINE('',#1069,#223);
#188=LINE('',#1073,#224);
#189=LINE('',#1077,#225);
#190=LINE('',#1081,#226);
#191=LINE('',#1085,#227);
#192=LINE('',#1089,#228);
#193=LINE('',#1093,#229);
#194=LINE('',#1097,#230);
#195=LINE('',#1101,#231);
#196=LINE('',#1104,#232);
#197=VECTOR('',#747,10.);
#198=VECTOR('',#750,10.);
#199=VECTOR('',#753,10.);
#200=VECTOR('',#754,10.);
#201=VECTOR('',#755,10.);
#202=VECTOR('',#758,10.);
#203=VECTOR('',#761,10.);
#204=VECTOR('',#764,10.);
#205=VECTOR('',#809,10.);
#206=VECTOR('',#814,10.);
#207=VECTOR('',#815,10.);
#208=VECTOR('',#818,10.);
#209=VECTOR('',#823,10.);
#210=VECTOR('',#824,10.);
#211=VECTOR('',#827,10.);
#212=VECTOR('',#832,2.5);
#213=VECTOR('',#837,2.5);
#214=VECTOR('',#842,2.5);
#215=VECTOR('',#847,2.00000000000001);
#216=VECTOR('',#852,2.5);
#217=VECTOR('',#857,2.5);
#218=VECTOR('',#862,2.5);
#219=VECTOR('',#867,2.5);
#220=VECTOR('',#872,2.5);
#221=VECTOR('',#877,2.5);
#222=VECTOR('',#882,2.5);
#223=VECTOR('',#887,2.5);
#224=VECTOR('',#892,2.5);
#225=VECTOR('',#897,2.5);
#226=VECTOR('',#902,2.5);
#227=VECTOR('',#907,2.5);
#228=VECTOR('',#912,2.5);
#229=VECTOR('',#917,2.00000000000001);
#230=VECTOR('',#922,2.00000000000001);
#231=VECTOR('',#927,2.00000000000001);
#232=VECTOR('',#932,10.);
#233=CIRCLE('',#664,8.);
#234=CIRCLE('',#665,8.);
#235=CIRCLE('',#668,8.);
#236=CIRCLE('',#669,8.);
#237=CIRCLE('',#670,8.);
#238=CIRCLE('',#671,2.00000000000001);
#239=CIRCLE('',#672,2.00000000000001);
#240=CIRCLE('',#673,2.00000000000001);
#241=CIRCLE('',#674,2.5);
#242=CIRCLE('',#675,2.5);
#243=CIRCLE('',#676,2.5);
#244=CIRCLE('',#677,2.5);
#245=CIRCLE('',#678,2.5);
#246=CIRCLE('',#679,2.5);
#247=CIRCLE('',#680,2.5);
#248=CIRCLE('',#681,2.5);
#249=CIRCLE('',#682,2.5);
#250=CIRCLE('',#683,2.5);
#251=CIRCLE('',#684,2.5);
#252=CIRCLE('',#685,2.5);
#253=CIRCLE('',#686,2.5);
#254=CIRCLE('',#687,2.00000000000001);
#255=CIRCLE('',#688,2.5);
#256=CIRCLE('',#689,2.5);
#257=CIRCLE('',#690,2.5);
#258=CIRCLE('',#692,8.);
#259=CIRCLE('',#695,8.);
#260=CIRCLE('',#698,8.);
#261=CIRCLE('',#700,2.5);
#262=CIRCLE('',#702,2.5);
#263=CIRCLE('',#704,2.5);
#264=CIRCLE('',#706,2.00000000000001);
#265=CIRCLE('',#708,2.5);
#266=CIRCLE('',#710,2.5);
#267=CIRCLE('',#712,2.5);
#268=CIRCLE('',#714,2.5);
#269=CIRCLE('',#716,2.5);
#270=CIRCLE('',#718,2.5);
#271=CIRCLE('',#720,2.5);
#272=CIRCLE('',#722,2.5);
#273=CIRCLE('',#724,2.5);
#274=CIRCLE('',#726,2.5);
#275=CIRCLE('',#728,2.5);
#276=CIRCLE('',#730,2.5);
#277=CIRCLE('',#732,2.5);
#278=CIRCLE('',#734,2.00000000000001);
#279=CIRCLE('',#736,2.00000000000001);
#280=CIRCLE('',#738,2.00000000000001);
#281=VERTEX_POINT('',#937);
#282=VERTEX_POINT('',#938);
#283=VERTEX_POINT('',#940);
#284=VERTEX_POINT('',#942);
#285=VERTEX_POINT('',#946);
#286=VERTEX_POINT('',#948);
#287=VERTEX_POINT('',#952);
#288=VERTEX_POINT('',#954);
#289=VERTEX_POINT('',#956);
#290=VERTEX_POINT('',#958);
#291=VERTEX_POINT('',#960);
#292=VERTEX_POINT('',#963);
#293=VERTEX_POINT('',#965);
#294=VERTEX_POINT('',#967);
#295=VERTEX_POINT('',#969);
#296=VERTEX_POINT('',#971);
#297=VERTEX_POINT('',#973);
#298=VERTEX_POINT('',#975);
#299=VERTEX_POINT('',#977);
#300=VERTEX_POINT('',#979);
#301=VERTEX_POINT('',#981);
#302=VERTEX_POINT('',#983);
#303=VERTEX_POINT('',#985);
#304=VERTEX_POINT('',#987);
#305=VERTEX_POINT('',#989);
#306=VERTEX_POINT('',#991);
#307=VERTEX_POINT('',#993);
#308=VERTEX_POINT('',#995);
#309=VERTEX_POINT('',#997);
#310=VERTEX_POINT('',#999);
#311=VERTEX_POINT('',#1001);
#312=VERTEX_POINT('',#1004);
#313=VERTEX_POINT('',#1008);
#314=VERTEX_POINT('',#1012);
#315=VERTEX_POINT('',#1016);
#316=VERTEX_POINT('',#1020);
#317=VERTEX_POINT('',#1024);
#318=VERTEX_POINT('',#1028);
#319=VERTEX_POINT('',#1032);
#320=VERTEX_POINT('',#1036);
#321=VERTEX_POINT('',#1040);
#322=VERTEX_POINT('',#1044);
#323=VERTEX_POINT('',#1048);
#324=VERTEX_POINT('',#1052);
#325=VERTEX_POINT('',#1056);
#326=VERTEX_POINT('',#1060);
#327=VERTEX_POINT('',#1064);
#328=VERTEX_POINT('',#1068);
#329=VERTEX_POINT('',#1072);
#330=VERTEX_POINT('',#1076);
#331=VERTEX_POINT('',#1080);
#332=VERTEX_POINT('',#1084);
#333=VERTEX_POINT('',#1088);
#334=VERTEX_POINT('',#1092);
#335=VERTEX_POINT('',#1096);
#336=VERTEX_POINT('',#1100);
#337=EDGE_CURVE('',#281,#282,#233,.T.);
#338=EDGE_CURVE('',#282,#283,#161,.T.);
#339=EDGE_CURVE('',#283,#284,#234,.T.);
#340=EDGE_CURVE('',#284,#281,#162,.T.);
#341=EDGE_CURVE('',#285,#282,#163,.T.);
#342=EDGE_CURVE('',#286,#285,#164,.T.);
#343=EDGE_CURVE('',#286,#283,#165,.T.);
#344=EDGE_CURVE('',#281,#287,#166,.T.);
#345=EDGE_CURVE('',#288,#287,#235,.T.);
#346=EDGE_CURVE('',#288,#289,#167,.T.);
#347=EDGE_CURVE('',#290,#289,#236,.T.);
#348=EDGE_CURVE('',#290,#291,#168,.T.);
#349=EDGE_CURVE('',#285,#291,#237,.T.);
#350=EDGE_CURVE('',#292,#292,#238,.T.);
#351=EDGE_CURVE('',#293,#293,#239,.T.);
#352=EDGE_CURVE('',#294,#294,#240,.T.);
#353=EDGE_CURVE('',#295,#295,#241,.T.);
#354=EDGE_CURVE('',#296,#296,#242,.T.);
#355=EDGE_CURVE('',#297,#297,#243,.T.);
#356=EDGE_CURVE('',#298,#298,#244,.T.);
#357=EDGE_CURVE('',#299,#299,#245,.T.);
#358=EDGE_CURVE('',#300,#300,#246,.T.);
#359=EDGE_CURVE('',#301,#301,#247,.T.);
#360=EDGE_CURVE('',#302,#302,#248,.T.);
#361=EDGE_CURVE('',#303,#303,#249,.T.);
#362=EDGE_CURVE('',#304,#304,#250,.T.);
#363=EDGE_CURVE('',#305,#305,#251,.T.);
#364=EDGE_CURVE('',#306,#306,#252,.T.);
#365=EDGE_CURVE('',#307,#307,#253,.T.);
#366=EDGE_CURVE('',#308,#308,#254,.T.);
#367=EDGE_CURVE('',#309,#309,#255,.T.);
#368=EDGE_CURVE('',#310,#310,#256,.T.);
#369=EDGE_CURVE('',#311,#311,#257,.T.);
#370=EDGE_CURVE('',#291,#312,#169,.T.);
#371=EDGE_CURVE('',#312,#286,#258,.T.);
#372=EDGE_CURVE('',#313,#290,#170,.T.);
#373=EDGE_CURVE('',#313,#312,#171,.T.);
#374=EDGE_CURVE('',#289,#314,#172,.T.);
#375=EDGE_CURVE('',#314,#313,#259,.T.);
#376=EDGE_CURVE('',#315,#288,#173,.T.);
#377=EDGE_CURVE('',#315,#314,#174,.T.);
#378=EDGE_CURVE('',#287,#316,#175,.T.);
#379=EDGE_CURVE('',#316,#315,#260,.T.);
#380=EDGE_CURVE('',#311,#317,#176,.T.);
#381=EDGE_CURVE('',#317,#317,#261,.T.);
#382=EDGE_CURVE('',#310,#318,#177,.T.);
#383=EDGE_CURVE('',#318,#318,#262,.T.);
#384=EDGE_CURVE('',#309,#319,#178,.T.);
#385=EDGE_CURVE('',#319,#319,#263,.T.);
#386=EDGE_CURVE('',#308,#320,#179,.T.);
#387=EDGE_CURVE('',#320,#320,#264,.T.);
#388=EDGE_CURVE('',#307,#321,#180,.T.);
#389=EDGE_CURVE('',#321,#321,#265,.T.);
#390=EDGE_CURVE('',#306,#322,#181,.T.);
#391=EDGE_CURVE('',#322,#322,#266,.T.);
#392=EDGE_CURVE('',#305,#323,#182,.T.);
#393=EDGE_CURVE('',#323,#323,#267,.T.);
#394=EDGE_CURVE('',#304,#324,#183,.T.);
#395=EDGE_CURVE('',#324,#324,#268,.T.);
#396=EDGE_CURVE('',#303,#325,#184,.T.);
#397=EDGE_CURVE('',#325,#325,#269,.T.);
#398=EDGE_CURVE('',#302,#326,#185,.T.);
#399=EDGE_CURVE('',#326,#326,#270,.T.);
#400=EDGE_CURVE('',#301,#327,#186,.T.);
#401=EDGE_CURVE('',#327,#327,#271,.T.);
#402=EDGE_CURVE('',#300,#328,#187,.T.);
#403=EDGE_CURVE('',#328,#328,#272,.T.);
#404=EDGE_CURVE('',#299,#329,#188,.T.);
#405=EDGE_CURVE('',#329,#329,#273,.T.);
#406=EDGE_CURVE('',#298,#330,#189,.T.);
#407=EDGE_CURVE('',#330,#330,#274,.T.);
#408=EDGE_CURVE('',#297,#331,#190,.T.);
#409=EDGE_CURVE('',#331,#331,#275,.T.);
#410=EDGE_CURVE('',#296,#332,#191,.T.);
#411=EDGE_CURVE('',#332,#332,#276,.T.);
#412=EDGE_CURVE('',#295,#333,#192,.T.);
#413=EDGE_CURVE('',#333,#333,#277,.T.);
#414=EDGE_CURVE('',#294,#334,#193,.T.);
#415=EDGE_CURVE('',#334,#334,#278,.T.);
#416=EDGE_CURVE('',#293,#335,#194,.T.);
#417=EDGE_CURVE('',#335,#335,#279,.T.);
#418=EDGE_CURVE('',#292,#336,#195,.T.);
#419=EDGE_CURVE('',#336,#336,#280,.T.);
#420=EDGE_CURVE('',#284,#316,#196,.T.);
#421=ORIENTED_EDGE('',*,*,#337,.T.);
#422=ORIENTED_EDGE('',*,*,#338,.T.);
#423=ORIENTED_EDGE('',*,*,#339,.T.);
#424=ORIENTED_EDGE('',*,*,#340,.T.);
#425=ORIENTED_EDGE('',*,*,#338,.F.);
#426=ORIENTED_EDGE('',*,*,#341,.F.);
#427=ORIENTED_EDGE('',*,*,#342,.F.);
#428=ORIENTED_EDGE('',*,*,#343,.T.);
#429=ORIENTED_EDGE('',*,*,#337,.F.);
#430=ORIENTED_EDGE('',*,*,#344,.T.);
#431=ORIENTED_EDGE('',*,*,#345,.F.);
#432=ORIENTED_EDGE('',*,*,#346,.T.);
#433=ORIENTED_EDGE('',*,*,#347,.F.);
#434=ORIENTED_EDGE('',*,*,#348,.T.);
#435=ORIENTED_EDGE('',*,*,#349,.F.);
#436=ORIENTED_EDGE('',*,*,#341,.T.);
#437=ORIENTED_EDGE('',*,*,#350,.T.);
#438=ORIENTED_EDGE('',*,*,#351,.T.);
#439=ORIENTED_EDGE('',*,*,#352,.T.);
#440=ORIENTED_EDGE('',*,*,#353,.T.);
#441=ORIENTED_EDGE('',*,*,#354,.T.);
#442=ORIENTED_EDGE('',*,*,#355,.T.);
#443=ORIENTED_EDGE('',*,*,#356,.T.);
#444=ORIENTED_EDGE('',*,*,#357,.T.);
#445=ORIENTED_EDGE('',*,*,#358,.T.);
#446=ORIENTED_EDGE('',*,*,#359,.T.);
#447=ORIENTED_EDGE('',*,*,#360,.T.);
#448=ORIENTED_EDGE('',*,*,#361,.T.);
#449=ORIENTED_EDGE('',*,*,#362,.T.);
#450=ORIENTED_EDGE('',*,*,#363,.T.);
#451=ORIENTED_EDGE('',*,*,#364,.T.);
#452=ORIENTED_EDGE('',*,*,#365,.T.);
#453=ORIENTED_EDGE('',*,*,#366,.T.);
#454=ORIENTED_EDGE('',*,*,#367,.T.);
#455=ORIENTED_EDGE('',*,*,#368,.T.);
#456=ORIENTED_EDGE('',*,*,#369,.T.);
#457=ORIENTED_EDGE('',*,*,#349,.T.);
#458=ORIENTED_EDGE('',*,*,#370,.T.);
#459=ORIENTED_EDGE('',*,*,#371,.T.);
#460=ORIENTED_EDGE('',*,*,#342,.T.);
#461=ORIENTED_EDGE('',*,*,#370,.F.);
#462=ORIENTED_EDGE('',*,*,#348,.F.);
#463=ORIENTED_EDGE('',*,*,#372,.F.);
#464=ORIENTED_EDGE('',*,*,#373,.T.);
#465=ORIENTED_EDGE('',*,*,#347,.T.);
#466=ORIENTED_EDGE('',*,*,#374,.T.);
#467=ORIENTED_EDGE('',*,*,#375,.T.);
#468=ORIENTED_EDGE('',*,*,#372,.T.);
#469=ORIENTED_EDGE('',*,*,#374,.F.);
#470=ORIENTED_EDGE('',*,*,#346,.F.);
#471=ORIENTED_EDGE('',*,*,#376,.F.);
#472=ORIENTED_EDGE('',*,*,#377,.T.);
#473=ORIENTED_EDGE('',*,*,#345,.T.);
#474=ORIENTED_EDGE('',*,*,#378,.T.);
#475=ORIENTED_EDGE('',*,*,#379,.T.);
#476=ORIENTED_EDGE('',*,*,#376,.T.);
#477=ORIENTED_EDGE('',*,*,#369,.F.);
#478=ORIENTED_EDGE('',*,*,#380,.T.);
#479=ORIENTED_EDGE('',*,*,#381,.T.);
#480=ORIENTED_EDGE('',*,*,#380,.F.);
#481=ORIENTED_EDGE('',*,*,#368,.F.);
#482=ORIENTED_EDGE('',*,*,#382,.T.);
#483=ORIENTED_EDGE('',*,*,#383,.T.);
#484=ORIENTED_EDGE('',*,*,#382,.F.);
#485=ORIENTED_EDGE('',*,*,#367,.F.);
#486=ORIENTED_EDGE('',*,*,#384,.T.);
#487=ORIENTED_EDGE('',*,*,#385,.T.);
#488=ORIENTED_EDGE('',*,*,#384,.F.);
#489=ORIENTED_EDGE('',*,*,#366,.F.);
#490=ORIENTED_EDGE('',*,*,#386,.T.);
#491=ORIENTED_EDGE('',*,*,#387,.T.);
#492=ORIENTED_EDGE('',*,*,#386,.F.);
#493=ORIENTED_EDGE('',*,*,#365,.F.);
#494=ORIENTED_EDGE('',*,*,#388,.T.);
#495=ORIENTED_EDGE('',*,*,#389,.T.);
#496=ORIENTED_EDGE('',*,*,#388,.F.);
#497=ORIENTED_EDGE('',*,*,#364,.F.);
#498=ORIENTED_EDGE('',*,*,#390,.T.);
#499=ORIENTED_EDGE('',*,*,#391,.T.);
#500=ORIENTED_EDGE('',*,*,#390,.F.);
#501=ORIENTED_EDGE('',*,*,#363,.F.);
#502=ORIENTED_EDGE('',*,*,#392,.T.);
#503=ORIENTED_EDGE('',*,*,#393,.T.);
#504=ORIENTED_EDGE('',*,*,#392,.F.);
#505=ORIENTED_EDGE('',*,*,#362,.F.);
#506=ORIENTED_EDGE('',*,*,#394,.T.);
#507=ORIENTED_EDGE('',*,*,#395,.T.);
#508=ORIENTED_EDGE('',*,*,#394,.F.);
#509=ORIENTED_EDGE('',*,*,#361,.F.);
#510=ORIENTED_EDGE('',*,*,#396,.T.);
#511=ORIENTED_EDGE('',*,*,#397,.T.);
#512=ORIENTED_EDGE('',*,*,#396,.F.);
#513=ORIENTED_EDGE('',*,*,#360,.F.);
#514=ORIENTED_EDGE('',*,*,#398,.T.);
#515=ORIENTED_EDGE('',*,*,#399,.T.);
#516=ORIENTED_EDGE('',*,*,#398,.F.);
#517=ORIENTED_EDGE('',*,*,#359,.F.);
#518=ORIENTED_EDGE('',*,*,#400,.T.);
#519=ORIENTED_EDGE('',*,*,#401,.T.);
#520=ORIENTED_EDGE('',*,*,#400,.F.);
#521=ORIENTED_EDGE('',*,*,#358,.F.);
#522=ORIENTED_EDGE('',*,*,#402,.T.);
#523=ORIENTED_EDGE('',*,*,#403,.T.);
#524=ORIENTED_EDGE('',*,*,#402,.F.);
#525=ORIENTED_EDGE('',*,*,#357,.F.);
#526=ORIENTED_EDGE('',*,*,#404,.T.);
#527=ORIENTED_EDGE('',*,*,#405,.T.);
#528=ORIENTED_EDGE('',*,*,#404,.F.);
#529=ORIENTED_EDGE('',*,*,#356,.F.);
#530=ORIENTED_EDGE('',*,*,#406,.T.);
#531=ORIENTED_EDGE('',*,*,#407,.T.);
#532=ORIENTED_EDGE('',*,*,#406,.F.);
#533=ORIENTED_EDGE('',*,*,#355,.F.);
#534=ORIENTED_EDGE('',*,*,#408,.T.);
#535=ORIENTED_EDGE('',*,*,#409,.T.);
#536=ORIENTED_EDGE('',*,*,#408,.F.);
#537=ORIENTED_EDGE('',*,*,#354,.F.);
#538=ORIENTED_EDGE('',*,*,#410,.T.);
#539=ORIENTED_EDGE('',*,*,#411,.T.);
#540=ORIENTED_EDGE('',*,*,#410,.F.);
#541=ORIENTED_EDGE('',*,*,#353,.F.);
#542=ORIENTED_EDGE('',*,*,#412,.T.);
#543=ORIENTED_EDGE('',*,*,#413,.T.);
#544=ORIENTED_EDGE('',*,*,#412,.F.);
#545=ORIENTED_EDGE('',*,*,#352,.F.);
#546=ORIENTED_EDGE('',*,*,#414,.T.);
#547=ORIENTED_EDGE('',*,*,#415,.T.);
#548=ORIENTED_EDGE('',*,*,#414,.F.);
#549=ORIENTED_EDGE('',*,*,#351,.F.);
#550=ORIENTED_EDGE('',*,*,#416,.T.);
#551=ORIENTED_EDGE('',*,*,#417,.T.);
#552=ORIENTED_EDGE('',*,*,#416,.F.);
#553=ORIENTED_EDGE('',*,*,#350,.F.);
#554=ORIENTED_EDGE('',*,*,#418,.T.);
#555=ORIENTED_EDGE('',*,*,#419,.T.);
#556=ORIENTED_EDGE('',*,*,#418,.F.);
#557=ORIENTED_EDGE('',*,*,#340,.F.);
#558=ORIENTED_EDGE('',*,*,#420,.T.);
#559=ORIENTED_EDGE('',*,*,#378,.F.);
#560=ORIENTED_EDGE('',*,*,#344,.F.);
#561=ORIENTED_EDGE('',*,*,#339,.F.);
#562=ORIENTED_EDGE('',*,*,#343,.F.);
#563=ORIENTED_EDGE('',*,*,#371,.F.);
#564=ORIENTED_EDGE('',*,*,#373,.F.);
#565=ORIENTED_EDGE('',*,*,#375,.F.);
#566=ORIENTED_EDGE('',*,*,#377,.F.);
#567=ORIENTED_EDGE('',*,*,#379,.F.);
#568=ORIENTED_EDGE('',*,*,#420,.F.);
#569=ORIENTED_EDGE('',*,*,#419,.F.);
#570=ORIENTED_EDGE('',*,*,#417,.F.);
#571=ORIENTED_EDGE('',*,*,#415,.F.);
#572=ORIENTED_EDGE('',*,*,#413,.F.);
#573=ORIENTED_EDGE('',*,*,#411,.F.);
#574=ORIENTED_EDGE('',*,*,#409,.F.);
#575=ORIENTED_EDGE('',*,*,#407,.F.);
#576=ORIENTED_EDGE('',*,*,#405,.F.);
#577=ORIENTED_EDGE('',*,*,#403,.F.);
#578=ORIENTED_EDGE('',*,*,#401,.F.);
#579=ORIENTED_EDGE('',*,*,#399,.F.);
#580=ORIENTED_EDGE('',*,*,#397,.F.);
#581=ORIENTED_EDGE('',*,*,#395,.F.);
#582=ORIENTED_EDGE('',*,*,#393,.F.);
#583=ORIENTED_EDGE('',*,*,#391,.F.);
#584=ORIENTED_EDGE('',*,*,#389,.F.);
#585=ORIENTED_EDGE('',*,*,#387,.F.);
#586=ORIENTED_EDGE('',*,*,#385,.F.);
#587=ORIENTED_EDGE('',*,*,#383,.F.);
#588=ORIENTED_EDGE('',*,*,#381,.F.);
#589=CYLINDRICAL_SURFACE('',#663,8.);
#590=CYLINDRICAL_SURFACE('',#691,8.);
#591=CYLINDRICAL_SURFACE('',#694,8.);
#592=CYLINDRICAL_SURFACE('',#697,8.);
#593=CYLINDRICAL_SURFACE('',#699,2.5);
#594=CYLINDRICAL_SURFACE('',#701,2.5);
#595=CYLINDRICAL_SURFACE('',#703,2.5);
#596=CYLINDRICAL_SURFACE('',#705,2.00000000000001);
#597=CYLINDRICAL_SURFACE('',#707,2.5);
#598=CYLINDRICAL_SURFACE('',#709,2.5);
#599=CYLINDRICAL_SURFACE('',#711,2.5);
#600=CYLINDRICAL_SURFACE('',#713,2.5);
#601=CYLINDRICAL_SURFACE('',#715,2.5);
#602=CYLINDRICAL_SURFACE('',#717,2.5);
#603=CYLINDRICAL_SURFACE('',#719,2.5);
#604=CYLINDRICAL_SURFACE('',#721,2.5);
#605=CYLINDRICAL_SURFACE('',#723,2.5);
#606=CYLINDRICAL_SURFACE('',#725,2.5);
#607=CYLINDRICAL_SURFACE('',#727,2.5);
#608=CYLINDRICAL_SURFACE('',#729,2.5);
#609=CYLINDRICAL_SURFACE('',#731,2.5);
#610=CYLINDRICAL_SURFACE('',#733,2.00000000000001);
#611=CYLINDRICAL_SURFACE('',#735,2.00000000000001);
#612=CYLINDRICAL_SURFACE('',#737,2.00000000000001);
#613=ADVANCED_FACE('',(#61),#589,.T.);
#614=ADVANCED_FACE('',(#62),#55,.T.);
#615=ADVANCED_FACE('',(#63,#15,#16,#17,#18,#19,#20,#21,#22,#23,#24,#25,
#26,#27,#28,#29,#30,#31,#32,#33,#34),#56,.T.);
#616=ADVANCED_FACE('',(#64),#590,.T.);
#617=ADVANCED_FACE('',(#65),#57,.T.);
#618=ADVANCED_FACE('',(#66),#591,.T.);
#619=ADVANCED_FACE('',(#67),#58,.T.);
#620=ADVANCED_FACE('',(#68),#592,.T.);
#621=ADVANCED_FACE('',(#69),#593,.F.);
#622=ADVANCED_FACE('',(#70),#594,.F.);
#623=ADVANCED_FACE('',(#71),#595,.F.);
#624=ADVANCED_FACE('',(#72),#596,.F.);
#625=ADVANCED_FACE('',(#73),#597,.F.);
#626=ADVANCED_FACE('',(#74),#598,.F.);
#627=ADVANCED_FACE('',(#75),#599,.F.);
#628=ADVANCED_FACE('',(#76),#600,.F.);
#629=ADVANCED_FACE('',(#77),#601,.F.);
#630=ADVANCED_FACE('',(#78),#602,.F.);
#631=ADVANCED_FACE('',(#79),#603,.F.);
#632=ADVANCED_FACE('',(#80),#604,.F.);
#633=ADVANCED_FACE('',(#81),#605,.F.);
#634=ADVANCED_FACE('',(#82),#606,.F.);
#635=ADVANCED_FACE('',(#83),#607,.F.);
#636=ADVANCED_FACE('',(#84),#608,.F.);
#637=ADVANCED_FACE('',(#85),#609,.F.);
#638=ADVANCED_FACE('',(#86),#610,.F.);
#639=ADVANCED_FACE('',(#87),#611,.F.);
#640=ADVANCED_FACE('',(#88),#612,.F.);
#641=ADVANCED_FACE('',(#89),#59,.T.);
#642=ADVANCED_FACE('',(#90,#35,#36,#37,#38,#39,#40,#41,#42,#43,#44,#45,
#46,#47,#48,#49,#50,#51,#52,#53,#54),#60,.F.);
#643=CLOSED_SHELL('',(#613,#614,#615,#616,#617,#618,#619,#620,#621,#622,
#623,#624,#625,#626,#627,#628,#629,#630,#631,#632,#633,#634,#635,#636,#637,
#638,#639,#640,#641,#642));
#644=DERIVED_UNIT_ELEMENT(#646,1.);
#645=DERIVED_UNIT_ELEMENT(#1111,3.);
#646=(
MASS_UNIT()
NAMED_UNIT(*)
SI_UNIT($,.GRAM.)
);
#647=DERIVED_UNIT((#644,#645));
#648=MEASURE_REPRESENTATION_ITEM('density measure',
POSITIVE_RATIO_MEASURE(7.85),#647);
#649=PROPERTY_DEFINITION_REPRESENTATION(#654,#651);
#650=PROPERTY_DEFINITION_REPRESENTATION(#655,#652);
#651=REPRESENTATION('material name',(#653),#1108);
#652=REPRESENTATION('density',(#648),#1108);
#653=DESCRIPTIVE_REPRESENTATION_ITEM('Steel','Steel');
#654=PROPERTY_DEFINITION('material property','material name',#1118);
#655=PROPERTY_DEFINITION('material property','density of part',#1118);
#656=DATE_TIME_ROLE('creation_date');
#657=APPLIED_DATE_AND_TIME_ASSIGNMENT(#658,#656,(#1118));
#658=DATE_AND_TIME(#659,#660);
#659=CALENDAR_DATE(2023,20,10);
#660=LOCAL_TIME(0,0,0.,#661);
#661=COORDINATED_UNIVERSAL_TIME_OFFSET(0,0,.BEHIND.);
#662=AXIS2_PLACEMENT_3D('placement',#935,#741,#742);
#663=AXIS2_PLACEMENT_3D('',#936,#743,#744);
#664=AXIS2_PLACEMENT_3D('',#939,#745,#746);
#665=AXIS2_PLACEMENT_3D('',#943,#748,#749);
#666=AXIS2_PLACEMENT_3D('',#945,#751,#752);
#667=AXIS2_PLACEMENT_3D('',#951,#756,#757);
#668=AXIS2_PLACEMENT_3D('',#955,#759,#760);
#669=AXIS2_PLACEMENT_3D('',#959,#762,#763);
#670=AXIS2_PLACEMENT_3D('',#962,#765,#766);
#671=AXIS2_PLACEMENT_3D('',#964,#767,#768);
#672=AXIS2_PLACEMENT_3D('',#966,#769,#770);
#673=AXIS2_PLACEMENT_3D('',#968,#771,#772);
#674=AXIS2_PLACEMENT_3D('',#970,#773,#774);
#675=AXIS2_PLACEMENT_3D('',#972,#775,#776);
#676=AXIS2_PLACEMENT_3D('',#974,#777,#778);
#677=AXIS2_PLACEMENT_3D('',#976,#779,#780);
#678=AXIS2_PLACEMENT_3D('',#978,#781,#782);
#679=AXIS2_PLACEMENT_3D('',#980,#783,#784);
#680=AXIS2_PLACEMENT_3D('',#982,#785,#786);
#681=AXIS2_PLACEMENT_3D('',#984,#787,#788);
#682=AXIS2_PLACEMENT_3D('',#986,#789,#790);
#683=AXIS2_PLACEMENT_3D('',#988,#791,#792);
#684=AXIS2_PLACEMENT_3D('',#990,#793,#794);
#685=AXIS2_PLACEMENT_3D('',#992,#795,#796);
#686=AXIS2_PLACEMENT_3D('',#994,#797,#798);
#687=AXIS2_PLACEMENT_3D('',#996,#799,#800);
#688=AXIS2_PLACEMENT_3D('',#998,#801,#802);
#689=AXIS2_PLACEMENT_3D('',#1000,#803,#804);
#690=AXIS2_PLACEMENT_3D('',#1002,#805,#806);
#691=AXIS2_PLACEMENT_3D('',#1003,#807,#808);
#692=AXIS2_PLACEMENT_3D('',#1006,#810,#811);
#693=AXIS2_PLACEMENT_3D('',#1007,#812,#813);
#694=AXIS2_PLACEMENT_3D('',#1011,#816,#817);
#695=AXIS2_PLACEMENT_3D('',#1014,#819,#820);
#696=AXIS2_PLACEMENT_3D('',#1015,#821,#822);
#697=AXIS2_PLACEMENT_3D('',#1019,#825,#826);
#698=AXIS2_PLACEMENT_3D('',#1022,#828,#829);
#699=AXIS2_PLACEMENT_3D('',#1023,#830,#831);
#700=AXIS2_PLACEMENT_3D('',#1026,#833,#834);
#701=AXIS2_PLACEMENT_3D('',#1027,#835,#836);
#702=AXIS2_PLACEMENT_3D('',#1030,#838,#839);
#703=AXIS2_PLACEMENT_3D('',#1031,#840,#841);
#704=AXIS2_PLACEMENT_3D('',#1034,#843,#844);
#705=AXIS2_PLACEMENT_3D('',#1035,#845,#846);
#706=AXIS2_PLACEMENT_3D('',#1038,#848,#849);
#707=AXIS2_PLACEMENT_3D('',#1039,#850,#851);
#708=AXIS2_PLACEMENT_3D('',#1042,#853,#854);
#709=AXIS2_PLACEMENT_3D('',#1043,#855,#856);
#710=AXIS2_PLACEMENT_3D('',#1046,#858,#859);
#711=AXIS2_PLACEMENT_3D('',#1047,#860,#861);
#712=AXIS2_PLACEMENT_3D('',#1050,#863,#864);
#713=AXIS2_PLACEMENT_3D('',#1051,#865,#866);
#714=AXIS2_PLACEMENT_3D('',#1054,#868,#869);
#715=AXIS2_PLACEMENT_3D('',#1055,#870,#871);
#716=AXIS2_PLACEMENT_3D('',#1058,#873,#874);
#717=AXIS2_PLACEMENT_3D('',#1059,#875,#876);
#718=AXIS2_PLACEMENT_3D('',#1062,#878,#879);
#719=AXIS2_PLACEMENT_3D('',#1063,#880,#881);
#720=AXIS2_PLACEMENT_3D('',#1066,#883,#884);
#721=AXIS2_PLACEMENT_3D('',#1067,#885,#886);
#722=AXIS2_PLACEMENT_3D('',#1070,#888,#889);
#723=AXIS2_PLACEMENT_3D('',#1071,#890,#891);
#724=AXIS2_PLACEMENT_3D('',#1074,#893,#894);
#725=AXIS2_PLACEMENT_3D('',#1075,#895,#896);
#726=AXIS2_PLACEMENT_3D('',#1078,#898,#899);
#727=AXIS2_PLACEMENT_3D('',#1079,#900,#901);
#728=AXIS2_PLACEMENT_3D('',#1082,#903,#904);
#729=AXIS2_PLACEMENT_3D('',#1083,#905,#906);
#730=AXIS2_PLACEMENT_3D('',#1086,#908,#909);
#731=AXIS2_PLACEMENT_3D('',#1087,#910,#911);
#732=AXIS2_PLACEMENT_3D('',#1090,#913,#914);
#733=AXIS2_PLACEMENT_3D('',#1091,#915,#916);
#734=AXIS2_PLACEMENT_3D('',#1094,#918,#919);
#735=AXIS2_PLACEMENT_3D('',#1095,#920,#921);
#736=AXIS2_PLACEMENT_3D('',#1098,#923,#924);
#737=AXIS2_PLACEMENT_3D('',#1099,#925,#926);
#738=AXIS2_PLACEMENT_3D('',#1102,#928,#929);
#739=AXIS2_PLACEMENT_3D('',#1103,#930,#931);
#740=AXIS2_PLACEMENT_3D('',#1105,#933,#934);
#741=DIRECTION('axis',(0.,0.,1.));
#742=DIRECTION('refdir',(1.,0.,0.));
#743=DIRECTION('center_axis',(0.,0.,1.));
#744=DIRECTION('ref_axis',(-0.707106781186548,0.707106781186547,0.));
#745=DIRECTION('center_axis',(0.,0.,-1.));
#746=DIRECTION('ref_axis',(-0.707106781186548,0.707106781186547,0.));
#747=DIRECTION('',(0.,0.,-1.));
#748=DIRECTION('center_axis',(0.,0.,1.));
#749=DIRECTION('ref_axis',(-0.707106781186548,0.707106781186547,0.));
#750=DIRECTION('',(0.,0.,1.));
#751=DIRECTION('center_axis',(0.,1.,0.));
#752=DIRECTION('ref_axis',(-1.,0.,0.));
#753=DIRECTION('',(-1.,0.,0.));
#754=DIRECTION('',(0.,0.,1.));
#755=DIRECTION('',(-1.,0.,0.));
#756=DIRECTION('center_axis',(0.,0.,1.));
#757=DIRECTION('ref_axis',(1.,0.,0.));
#758=DIRECTION('',(1.00845258070118E-16,-1.,0.));
#759=DIRECTION('center_axis',(0.,0.,-1.));
#760=DIRECTION('ref_axis',(-0.707106781186546,-0.707106781186549,0.));
#761=DIRECTION('',(1.,2.368475785867E-16,0.));
#762=DIRECTION('center_axis',(0.,0.,-1.));
#763=DIRECTION('ref_axis',(0.707106781186548,-0.707106781186548,0.));
#764=DIRECTION('',(2.368475785867E-16,1.,0.));
#765=DIRECTION('center_axis',(0.,0.,-1.));
#766=DIRECTION('ref_axis',(0.707106781186549,0.707106781186546,0.));
#767=DIRECTION('center_axis',(0.,0.,-1.));
#768=DIRECTION('ref_axis',(-1.,0.,0.));
#769=DIRECTION('center_axis',(0.,0.,-1.));
#770=DIRECTION('ref_axis',(-1.,0.,0.));
#771=DIRECTION('center_axis',(0.,0.,-1.));
#772=DIRECTION('ref_axis',(-1.,0.,0.));
#773=DIRECTION('center_axis',(0.,0.,-1.));
#774=DIRECTION('ref_axis',(-1.,0.,0.));
#775=DIRECTION('center_axis',(0.,0.,-1.));
#776=DIRECTION('ref_axis',(-1.,0.,0.));
#777=DIRECTION('center_axis',(0.,0.,-1.));
#778=DIRECTION('ref_axis',(-1.,0.,0.));
#779=DIRECTION('center_axis',(0.,0.,-1.));
#780=DIRECTION('ref_axis',(-1.,0.,0.));
#781=DIRECTION('center_axis',(0.,0.,-1.));
#782=DIRECTION('ref_axis',(-1.,0.,0.));
#783=DIRECTION('center_axis',(0.,0.,-1.));
#784=DIRECTION('ref_axis',(-1.,0.,0.));
#785=DIRECTION('center_axis',(0.,0.,-1.));
#786=DIRECTION('ref_axis',(-1.,0.,0.));
#787=DIRECTION('center_axis',(0.,0.,-1.));
#788=DIRECTION('ref_axis',(-1.,0.,0.));
#789=DIRECTION('center_axis',(0.,0.,-1.));
#790=DIRECTION('ref_axis',(-1.,0.,0.));
#791=DIRECTION('center_axis',(0.,0.,-1.));
#792=DIRECTION('ref_axis',(-1.,0.,0.));
#793=DIRECTION('center_axis',(0.,0.,-1.));
#794=DIRECTION('ref_axis',(-1.,0.,0.));
#795=DIRECTION('center_axis',(0.,0.,-1.));
#796=DIRECTION('ref_axis',(-1.,0.,0.));
#797=DIRECTION('center_axis',(0.,0.,-1.));
#798=DIRECTION('ref_axis',(-1.,0.,0.));
#799=DIRECTION('center_axis',(0.,0.,-1.));
#800=DIRECTION('ref_axis',(-1.,0.,0.));
#801=DIRECTION('center_axis',(0.,0.,-1.));
#802=DIRECTION('ref_axis',(-1.,0.,0.));
#803=DIRECTION('center_axis',(0.,0.,-1.));
#804=DIRECTION('ref_axis',(-1.,0.,0.));
#805=DIRECTION('center_axis',(0.,0.,-1.));
#806=DIRECTION('ref_axis',(-1.,0.,0.));
#807=DIRECTION('center_axis',(0.,0.,1.));
#808=DIRECTION('ref_axis',(0.707106781186549,0.707106781186546,0.));
#809=DIRECTION('',(0.,0.,-1.));
#810=DIRECTION('center_axis',(0.,0.,1.));
#811=DIRECTION('ref_axis',(0.707106781186549,0.707106781186546,0.));
#812=DIRECTION('center_axis',(1.,-2.368475785867E-16,0.));
#813=DIRECTION('ref_axis',(2.368475785867E-16,1.,0.));
#814=DIRECTION('',(0.,0.,1.));
#815=DIRECTION('',(2.368475785867E-16,1.,0.));
#816=DIRECTION('center_axis',(0.,0.,1.));
#817=DIRECTION('ref_axis',(0.707106781186548,-0.707106781186548,0.));
#818=DIRECTION('',(0.,0.,-1.));
#819=DIRECTION('center_axis',(0.,0.,1.));
#820=DIRECTION('ref_axis',(0.707106781186548,-0.707106781186548,0.));
#821=DIRECTION('center_axis',(2.368475785867E-16,-1.,0.));
#822=DIRECTION('ref_axis',(1.,2.368475785867E-16,0.));
#823=DIRECTION('',(0.,0.,1.));
#824=DIRECTION('',(1.,2.368475785867E-16,0.));
#825=DIRECTION('center_axis',(0.,0.,1.));
#826=DIRECTION('ref_axis',(-0.707106781186546,-0.707106781186549,0.));
#827=DIRECTION('',(0.,0.,-1.));
#828=DIRECTION('center_axis',(0.,0.,1.));
#829=DIRECTION('ref_axis',(-0.707106781186546,-0.707106781186549,0.));
#830=DIRECTION('center_axis',(0.,0.,1.));
#831=DIRECTION('ref_axis',(-1.,0.,0.));
#832=DIRECTION('',(0.,0.,-1.));
#833=DIRECTION('center_axis',(0.,0.,-1.));
#834=DIRECTION('ref_axis',(-1.,0.,0.));
#835=DIRECTION('center_axis',(0.,0.,1.));
#836=DIRECTION('ref_axis',(-1.,0.,0.));
#837=DIRECTION('',(0.,0.,-1.));
#838=DIRECTION('center_axis',(0.,0.,-1.));
#839=DIRECTION('ref_axis',(-1.,0.,0.));
#840=DIRECTION('center_axis',(0.,0.,1.));
#841=DIRECTION('ref_axis',(-1.,0.,0.));
#842=DIRECTION('',(0.,0.,-1.));
#843=DIRECTION('center_axis',(0.,0.,-1.));
#844=DIRECTION('ref_axis',(-1.,0.,0.));
#845=DIRECTION('center_axis',(0.,0.,1.));
#846=DIRECTION('ref_axis',(-1.,0.,0.));
#847=DIRECTION('',(0.,0.,-1.));
#848=DIRECTION('center_axis',(0.,0.,-1.));
#849=DIRECTION('ref_axis',(-1.,0.,0.));
#850=DIRECTION('center_axis',(0.,0.,1.));
#851=DIRECTION('ref_axis',(-1.,0.,0.));
#852=DIRECTION('',(0.,0.,-1.));
#853=DIRECTION('center_axis',(0.,0.,-1.));
#854=DIRECTION('ref_axis',(-1.,0.,0.));
#855=DIRECTION('center_axis',(0.,0.,1.));
#856=DIRECTION('ref_axis',(-1.,0.,0.));
#857=DIRECTION('',(0.,0.,-1.));
#858=DIRECTION('center_axis',(0.,0.,-1.));
#859=DIRECTION('ref_axis',(-1.,0.,0.));
#860=DIRECTION('center_axis',(0.,0.,1.));
#861=DIRECTION('ref_axis',(-1.,0.,0.));
#862=DIRECTION('',(0.,0.,-1.));
#863=DIRECTION('center_axis',(0.,0.,-1.));
#864=DIRECTION('ref_axis',(-1.,0.,0.));
#865=DIRECTION('center_axis',(0.,0.,1.));
#866=DIRECTION('ref_axis',(-1.,0.,0.));
#867=DIRECTION('',(0.,0.,-1.));
#868=DIRECTION('center_axis',(0.,0.,-1.));
#869=DIRECTION('ref_axis',(-1.,0.,0.));
#870=DIRECTION('center_axis',(0.,0.,1.));
#871=DIRECTION('ref_axis',(-1.,0.,0.));
#872=DIRECTION('',(0.,0.,-1.));
#873=DIRECTION('center_axis',(0.,0.,-1.));
#874=DIRECTION('ref_axis',(-1.,0.,0.));
#875=DIRECTION('center_axis',(0.,0.,1.));
#876=DIRECTION('ref_axis',(-1.,0.,0.));
#877=DIRECTION('',(0.,0.,-1.));
#878=DIRECTION('center_axis',(0.,0.,-1.));
#879=DIRECTION('ref_axis',(-1.,0.,0.));
#880=DIRECTION('center_axis',(0.,0.,1.));
#881=DIRECTION('ref_axis',(-1.,0.,0.));
#882=DIRECTION('',(0.,0.,-1.));
#883=DIRECTION('center_axis',(0.,0.,-1.));
#884=DIRECTION('ref_axis',(-1.,0.,0.));
#885=DIRECTION('center_axis',(0.,0.,1.));
#886=DIRECTION('ref_axis',(-1.,0.,0.));
#887=DIRECTION('',(0.,0.,-1.));
#888=DIRECTION('center_axis',(0.,0.,-1.));
#889=DIRECTION('ref_axis',(-1.,0.,0.));
#890=DIRECTION('center_axis',(0.,0.,1.));
#891=DIRECTION('ref_axis',(-1.,0.,0.));
#892=DIRECTION('',(0.,0.,-1.));
#893=DIRECTION('center_axis',(0.,0.,-1.));
#894=DIRECTION('ref_axis',(-1.,0.,0.));
#895=DIRECTION('center_axis',(0.,0.,1.));
#896=DIRECTION('ref_axis',(-1.,0.,0.));
#897=DIRECTION('',(0.,0.,-1.));
#898=DIRECTION('center_axis',(0.,0.,-1.));
#899=DIRECTION('ref_axis',(-1.,0.,0.));
#900=DIRECTION('center_axis',(0.,0.,1.));
#901=DIRECTION('ref_axis',(-1.,0.,0.));
#902=DIRECTION('',(0.,0.,-1.));
#903=DIRECTION('center_axis',(0.,0.,-1.));
#904=DIRECTION('ref_axis',(-1.,0.,0.));
#905=DIRECTION('center_axis',(0.,0.,1.));
#906=DIRECTION('ref_axis',(-1.,0.,0.));
#907=DIRECTION('',(0.,0.,-1.));
#908=DIRECTION('center_axis',(0.,0.,-1.));
#909=DIRECTION('ref_axis',(-1.,0.,0.));
#910=DIRECTION('center_axis',(0.,0.,1.));
#911=DIRECTION('ref_axis',(-1.,0.,0.));
#912=DIRECTION('',(0.,0.,-1.));
#913=DIRECTION('center_axis',(0.,0.,-1.));
#914=DIRECTION('ref_axis',(-1.,0.,0.));
#915=DIRECTION('center_axis',(0.,0.,1.));
#916=DIRECTION('ref_axis',(-1.,0.,0.));
#917=DIRECTION('',(0.,0.,-1.));
#918=DIRECTION('center_axis',(0.,0.,-1.));
#919=DIRECTION('ref_axis',(-1.,0.,0.));
#920=DIRECTION('center_axis',(0.,0.,1.));
#921=DIRECTION('ref_axis',(-1.,0.,0.));
#922=DIRECTION('',(0.,0.,-1.));
#923=DIRECTION('center_axis',(0.,0.,-1.));
#924=DIRECTION('ref_axis',(-1.,0.,0.));
#925=DIRECTION('center_axis',(0.,0.,1.));
#926=DIRECTION('ref_axis',(-1.,0.,0.));
#927=DIRECTION('',(0.,0.,-1.));
#928=DIRECTION('center_axis',(0.,0.,-1.));
#929=DIRECTION('ref_axis',(-1.,0.,0.));
#930=DIRECTION('center_axis',(-1.,-1.00845258070118E-16,0.));
#931=DIRECTION('ref_axis',(1.00845258070118E-16,-1.,0.));
#932=DIRECTION('',(1.00845258070118E-16,-1.,0.));
#933=DIRECTION('center_axis',(0.,0.,1.));
#934=DIRECTION('ref_axis',(1.,0.,0.));
#935=CARTESIAN_POINT('',(0.,0.,0.));
#936=CARTESIAN_POINT('Origin',(8.00000000000001,-8.,0.));
#937=CARTESIAN_POINT('',(8.06762064560947E-16,-8.,6.));
#938=CARTESIAN_POINT('',(8.00000000000001,0.,6.));
#939=CARTESIAN_POINT('Origin',(8.00000000000001,-8.,6.));
#940=CARTESIAN_POINT('',(8.00000000000001,0.,0.));
#941=CARTESIAN_POINT('',(8.00000000000001,0.,0.));
#942=CARTESIAN_POINT('',(8.06762064560947E-16,-8.,0.));
#943=CARTESIAN_POINT('Origin',(8.00000000000001,-8.,0.));
#944=CARTESIAN_POINT('',(1.11022302462516E-15,-8.,0.));
#945=CARTESIAN_POINT('Origin',(300.,0.,0.));
#946=CARTESIAN_POINT('',(292.,0.,6.));
#947=CARTESIAN_POINT('',(300.,0.,6.));
#948=CARTESIAN_POINT('',(292.,0.,0.));
#949=CARTESIAN_POINT('',(292.,0.,0.));
#950=CARTESIAN_POINT('',(300.,0.,0.));
#951=CARTESIAN_POINT('Origin',(150.,-150.,6.));
#952=CARTESIAN_POINT('',(2.94468153564746E-14,-292.,6.));
#953=CARTESIAN_POINT('',(0.,0.,6.));
#954=CARTESIAN_POINT('',(8.00000000000003,-300.,6.));
#955=CARTESIAN_POINT('Origin',(8.00000000000003,-292.,6.));
#956=CARTESIAN_POINT('',(292.,-300.,6.));
#957=CARTESIAN_POINT('',(3.5527136788005E-14,-300.,6.));
#958=CARTESIAN_POINT('',(300.,-292.,6.));
#959=CARTESIAN_POINT('Origin',(292.,-292.,6.));
#960=CARTESIAN_POINT('',(300.,-8.00000000000001,6.));
#961=CARTESIAN_POINT('',(300.,-300.,6.));
#962=CARTESIAN_POINT('Origin',(292.,-8.00000000000001,6.));
#963=CARTESIAN_POINT('',(183.5,-125.,6.));
#964=CARTESIAN_POINT('Origin',(181.5,-125.,6.));
#965=CARTESIAN_POINT('',(120.5,-125.,6.));
#966=CARTESIAN_POINT('Origin',(118.5,-125.,6.));
#967=CARTESIAN_POINT('',(120.5,-175.,6.));
#968=CARTESIAN_POINT('Origin',(118.5,-175.,6.));
#969=CARTESIAN_POINT('',(252.5,-10.,6.));
#970=CARTESIAN_POINT('Origin',(250.,-10.,6.));
#971=CARTESIAN_POINT('',(292.5,-10.,6.));
#972=CARTESIAN_POINT('Origin',(290.,-10.,6.));
#973=CARTESIAN_POINT('',(252.5,-30.,6.));
#974=CARTESIAN_POINT('Origin',(250.,-30.,6.));
#975=CARTESIAN_POINT('',(292.5,-30.,6.));
#976=CARTESIAN_POINT('Origin',(290.,-30.,6.));
#977=CARTESIAN_POINT('',(12.5,-10.,6.));
#978=CARTESIAN_POINT('Origin',(10.,-10.,6.));
#979=CARTESIAN_POINT('',(52.5000000000001,-30.,6.));
#980=CARTESIAN_POINT('Origin',(50.0000000000001,-30.,6.));
#981=CARTESIAN_POINT('',(12.5000000000001,-290.,6.));
#982=CARTESIAN_POINT('Origin',(10.0000000000001,-290.,6.));
#983=CARTESIAN_POINT('',(52.5000000000001,-270.,6.));
#984=CARTESIAN_POINT('Origin',(50.0000000000001,-270.,6.));
#985=CARTESIAN_POINT('',(52.5000000000001,-290.,6.));
#986=CARTESIAN_POINT('Origin',(50.0000000000001,-290.,6.));
#987=CARTESIAN_POINT('',(252.5,-290.,6.));
#988=CARTESIAN_POINT('Origin',(250.,-290.,6.));
#989=CARTESIAN_POINT('',(252.5,-270.,6.));
#990=CARTESIAN_POINT('Origin',(250.,-270.,6.));
#991=CARTESIAN_POINT('',(292.5,-270.,6.));
#992=CARTESIAN_POINT('Origin',(290.,-270.,6.));
#993=CARTESIAN_POINT('',(292.5,-290.,6.));
#994=CARTESIAN_POINT('Origin',(290.,-290.,6.));
#995=CARTESIAN_POINT('',(183.5,-175.,6.));
#996=CARTESIAN_POINT('Origin',(181.5,-175.,6.));
#997=CARTESIAN_POINT('',(12.5,-270.,6.));
#998=CARTESIAN_POINT('Origin',(10.,-270.,6.));
#999=CARTESIAN_POINT('',(52.5000000000001,-10.,6.));
#1000=CARTESIAN_POINT('Origin',(50.0000000000001,-10.,6.));
#1001=CARTESIAN_POINT('',(12.5000000000001,-30.,6.));
#1002=CARTESIAN_POINT('Origin',(10.0000000000001,-30.,6.));
#1003=CARTESIAN_POINT('Origin',(292.,-8.00000000000001,0.));
#1004=CARTESIAN_POINT('',(300.,-8.00000000000001,0.));
#1005=CARTESIAN_POINT('',(300.,-8.00000000000001,0.));
#1006=CARTESIAN_POINT('Origin',(292.,-8.00000000000001,0.));
#1007=CARTESIAN_POINT('Origin',(300.,-300.,0.));
#1008=CARTESIAN_POINT('',(300.,-292.,0.));
#1009=CARTESIAN_POINT('',(300.,-292.,0.));
#1010=CARTESIAN_POINT('',(300.,-300.,0.));
#1011=CARTESIAN_POINT('Origin',(292.,-292.,0.));
#1012=CARTESIAN_POINT('',(292.,-300.,0.));
#1013=CARTESIAN_POINT('',(292.,-300.,0.));
#1014=CARTESIAN_POINT('Origin',(292.,-292.,0.));
#1015=CARTESIAN_POINT('Origin',(3.02535774210355E-14,-300.,0.));
#1016=CARTESIAN_POINT('',(8.00000000000003,-300.,0.));
#1017=CARTESIAN_POINT('',(8.00000000000003,-300.,0.));
#1018=CARTESIAN_POINT('',(3.5527136788005E-14,-300.,0.));
#1019=CARTESIAN_POINT('Origin',(8.00000000000003,-292.,0.));
#1020=CARTESIAN_POINT('',(2.94468153564746E-14,-292.,0.));
#1021=CARTESIAN_POINT('',(2.99760216648792E-14,-292.,0.));
#1022=CARTESIAN_POINT('Origin',(8.00000000000003,-292.,0.));
#1023=CARTESIAN_POINT('Origin',(10.0000000000001,-30.,0.));
#1024=CARTESIAN_POINT('',(12.5000000000001,-30.,0.));
#1025=CARTESIAN_POINT('',(12.5000000000001,-30.,0.));
#1026=CARTESIAN_POINT('Origin',(10.0000000000001,-30.,0.));
#1027=CARTESIAN_POINT('Origin',(50.0000000000001,-10.,0.));
#1028=CARTESIAN_POINT('',(52.5000000000001,-10.,0.));
#1029=CARTESIAN_POINT('',(52.5000000000001,-10.,0.));
#1030=CARTESIAN_POINT('Origin',(50.0000000000001,-10.,0.));
#1031=CARTESIAN_POINT('Origin',(10.,-270.,0.));
#1032=CARTESIAN_POINT('',(12.5,-270.,0.));
#1033=CARTESIAN_POINT('',(12.5,-270.,0.));
#1034=CARTESIAN_POINT('Origin',(10.,-270.,0.));
#1035=CARTESIAN_POINT('Origin',(181.5,-175.,0.));
#1036=CARTESIAN_POINT('',(183.5,-175.,0.));
#1037=CARTESIAN_POINT('',(183.5,-175.,0.));
#1038=CARTESIAN_POINT('Origin',(181.5,-175.,0.));
#1039=CARTESIAN_POINT('Origin',(290.,-290.,0.));
#1040=CARTESIAN_POINT('',(292.5,-290.,0.));
#1041=CARTESIAN_POINT('',(292.5,-290.,0.));
#1042=CARTESIAN_POINT('Origin',(290.,-290.,0.));
#1043=CARTESIAN_POINT('Origin',(290.,-270.,0.));
#1044=CARTESIAN_POINT('',(292.5,-270.,0.));
#1045=CARTESIAN_POINT('',(292.5,-270.,0.));
#1046=CARTESIAN_POINT('Origin',(290.,-270.,0.));
#1047=CARTESIAN_POINT('Origin',(250.,-270.,0.));
#1048=CARTESIAN_POINT('',(252.5,-270.,0.));
#1049=CARTESIAN_POINT('',(252.5,-270.,0.));
#1050=CARTESIAN_POINT('Origin',(250.,-270.,0.));
#1051=CARTESIAN_POINT('Origin',(250.,-290.,0.));
#1052=CARTESIAN_POINT('',(252.5,-290.,0.));
#1053=CARTESIAN_POINT('',(252.5,-290.,0.));
#1054=CARTESIAN_POINT('Origin',(250.,-290.,0.));
#1055=CARTESIAN_POINT('Origin',(50.0000000000001,-290.,0.));
#1056=CARTESIAN_POINT('',(52.5000000000001,-290.,0.));
#1057=CARTESIAN_POINT('',(52.5000000000001,-290.,0.));
#1058=CARTESIAN_POINT('Origin',(50.0000000000001,-290.,0.));
#1059=CARTESIAN_POINT('Origin',(50.0000000000001,-270.,0.));
#1060=CARTESIAN_POINT('',(52.5000000000001,-270.,0.));
#1061=CARTESIAN_POINT('',(52.5000000000001,-270.,0.));
#1062=CARTESIAN_POINT('Origin',(50.0000000000001,-270.,0.));
#1063=CARTESIAN_POINT('Origin',(10.0000000000001,-290.,0.));
#1064=CARTESIAN_POINT('',(12.5000000000001,-290.,0.));
#1065=CARTESIAN_POINT('',(12.5000000000001,-290.,0.));
#1066=CARTESIAN_POINT('Origin',(10.0000000000001,-290.,0.));
#1067=CARTESIAN_POINT('Origin',(50.0000000000001,-30.,0.));
#1068=CARTESIAN_POINT('',(52.5000000000001,-30.,0.));
#1069=CARTESIAN_POINT('',(52.5000000000001,-30.,0.));
#1070=CARTESIAN_POINT('Origin',(50.0000000000001,-30.,0.));
#1071=CARTESIAN_POINT('Origin',(10.,-10.,0.));
#1072=CARTESIAN_POINT('',(12.5,-10.,0.));
#1073=CARTESIAN_POINT('',(12.5,-10.,0.));
#1074=CARTESIAN_POINT('Origin',(10.,-10.,0.));
#1075=CARTESIAN_POINT('Origin',(290.,-30.,0.));
#1076=CARTESIAN_POINT('',(292.5,-30.,0.));
#1077=CARTESIAN_POINT('',(292.5,-30.,0.));
#1078=CARTESIAN_POINT('Origin',(290.,-30.,0.));
#1079=CARTESIAN_POINT('Origin',(250.,-30.,0.));
#1080=CARTESIAN_POINT('',(252.5,-30.,0.));
#1081=CARTESIAN_POINT('',(252.5,-30.,0.));
#1082=CARTESIAN_POINT('Origin',(250.,-30.,0.));
#1083=CARTESIAN_POINT('Origin',(290.,-10.,0.));
#1084=CARTESIAN_POINT('',(292.5,-10.,0.));
#1085=CARTESIAN_POINT('',(292.5,-10.,0.));
#1086=CARTESIAN_POINT('Origin',(290.,-10.,0.));
#1087=CARTESIAN_POINT('Origin',(250.,-10.,0.));
#1088=CARTESIAN_POINT('',(252.5,-10.,0.));
#1089=CARTESIAN_POINT('',(252.5,-10.,0.));
#1090=CARTESIAN_POINT('Origin',(250.,-10.,0.));
#1091=CARTESIAN_POINT('Origin',(118.5,-175.,0.));
#1092=CARTESIAN_POINT('',(120.5,-175.,0.));
#1093=CARTESIAN_POINT('',(120.5,-175.,0.));
#1094=CARTESIAN_POINT('Origin',(118.5,-175.,0.));
#1095=CARTESIAN_POINT('Origin',(118.5,-125.,0.));
#1096=CARTESIAN_POINT('',(120.5,-125.,0.));
#1097=CARTESIAN_POINT('',(120.5,-125.,0.));
#1098=CARTESIAN_POINT('Origin',(118.5,-125.,0.));
#1099=CARTESIAN_POINT('Origin',(181.5,-125.,0.));
#1100=CARTESIAN_POINT('',(183.5,-125.,0.));
#1101=CARTESIAN_POINT('',(183.5,-125.,0.));
#1102=CARTESIAN_POINT('Origin',(181.5,-125.,0.));
#1103=CARTESIAN_POINT('Origin',(0.,0.,0.));
#1104=CARTESIAN_POINT('',(0.,0.,0.));
#1105=CARTESIAN_POINT('Origin',(150.,-150.,0.));
#1106=UNCERTAINTY_MEASURE_WITH_UNIT(LENGTH_MEASURE(0.01),#1110,
'DISTANCE_ACCURACY_VALUE',
'Maximum model space distance between geometric entities at asserted c
onnectivities');
#1107=UNCERTAINTY_MEASURE_WITH_UNIT(LENGTH_MEASURE(0.01),#1110,
'DISTANCE_ACCURACY_VALUE',
'Maximum model space distance between geometric entities at asserted c
onnectivities');
#1108=(
GEOMETRIC_REPRESENTATION_CONTEXT(3)
GLOBAL_UNCERTAINTY_ASSIGNED_CONTEXT((#1106))
GLOBAL_UNIT_ASSIGNED_CONTEXT((#1110,#1112,#1113))
REPRESENTATION_CONTEXT('','3D')
);
#1109=(
GEOMETRIC_REPRESENTATION_CONTEXT(3)
GLOBAL_UNCERTAINTY_ASSIGNED_CONTEXT((#1107))
GLOBAL_UNIT_ASSIGNED_CONTEXT((#1110,#1112,#1113))
REPRESENTATION_CONTEXT('','3D')
);
#1110=(
LENGTH_UNIT()
NAMED_UNIT(*)
SI_UNIT(.MILLI.,.METRE.)
);
#1111=(
LENGTH_UNIT()
NAMED_UNIT(*)
SI_UNIT(.CENTI.,.METRE.)
);
#1112=(
NAMED_UNIT(*)
PLANE_ANGLE_UNIT()
SI_UNIT($,.RADIAN.)
);
#1113=(
NAMED_UNIT(*)
SI_UNIT($,.STERADIAN.)
SOLID_ANGLE_UNIT()
);
#1114=SHAPE_DEFINITION_REPRESENTATION(#1115,#1116);
#1115=PRODUCT_DEFINITION_SHAPE('',$,#1118);
#1116=SHAPE_REPRESENTATION('',(#662),#1108);
#1117=PRODUCT_DEFINITION_CONTEXT('part definition',#1122,'design');
#1118=PRODUCT_DEFINITION('BaseC_1','BaseC_1',#1119,#1117);
#1119=PRODUCT_DEFINITION_FORMATION('',$,#1124);
#1120=PRODUCT_RELATED_PRODUCT_CATEGORY('BaseC_1','BaseC_1',(#1124));
#1121=APPLICATION_PROTOCOL_DEFINITION('international standard',
'automotive_design',2009,#1122);
#1122=APPLICATION_CONTEXT(
'Core Data for Automotive Mechanical Design Process');
#1123=PRODUCT_CONTEXT('part definition',#1122,'mechanical');
#1124=PRODUCT('BaseC_1','BaseC_1',$,(#1123));
#1125=PRESENTATION_STYLE_ASSIGNMENT((#1126));
#1126=SURFACE_STYLE_USAGE(.BOTH.,#1127);
#1127=SURFACE_SIDE_STYLE('',(#1128));
#1128=SURFACE_STYLE_FILL_AREA(#1129);
#1129=FILL_AREA_STYLE('',(#1130));
#1130=FILL_AREA_STYLE_COLOUR('',#1131);
#1131=COLOUR_RGB('',0.301960784313725,0.305882352941176,0.290196078431373);
ENDSEC;
END-ISO-10303-21;
