ISO-10303-21;
HEADER;
/* Generated by software containing ST-Developer
 * from STEP Tools, Inc. (www.steptools.com) 
 */

FILE_DESCRIPTION(
/* description */ (''),
/* implementation_level */ '2;1');

FILE_NAME(
/* name */ 
'I:\\ASU_FOE\\graduation project\\quadcopter\\matlab xml\\231123\\\\Ba
seC_9_ipt_bd9223d9.STEP',
/* time_stamp */ '2023-11-23T19:53:37+02:00',
/* author */ ('M'),
/* organization */ (''),
/* preprocessor_version */ 'ST-DEVELOPER v18.1',
/* originating_system */ 'Autodesk Inventor 2021',
/* authorisation */ '');

FILE_SCHEMA (('AUTOMOTIVE_DESIGN { 1 0 10303 214 3 1 1 }'));
ENDSEC;

DATA;
#10=MECHANICAL_DESIGN_GEOMETRIC_PRESENTATION_REPRESENTATION('',(#13),#345);
#11=SHAPE_REPRESENTATION_RELATIONSHIP('SRR','None',#352,#12);
#12=ADVANCED_BREP_SHAPE_REPRESENTATION('',(#14),#344);
#13=STYLED_ITEM('',(#361),#14);
#14=MANIFOLD_SOLID_BREP('Solid1',#199);
#15=FACE_BOUND('',#48,.T.);
#16=FACE_BOUND('',#49,.T.);
#17=FACE_BOUND('',#50,.T.);
#18=FACE_BOUND('',#51,.T.);
#19=FACE_BOUND('',#53,.T.);
#20=FACE_BOUND('',#54,.T.);
#21=FACE_BOUND('',#55,.T.);
#22=FACE_BOUND('',#56,.T.);
#23=PLANE('',#231);
#24=PLANE('',#232);
#25=PLANE('',#233);
#26=PLANE('',#234);
#27=PLANE('',#235);
#28=PLANE('',#236);
#29=FACE_OUTER_BOUND('',#39,.T.);
#30=FACE_OUTER_BOUND('',#40,.T.);
#31=FACE_OUTER_BOUND('',#41,.T.);
#32=FACE_OUTER_BOUND('',#42,.T.);
#33=FACE_OUTER_BOUND('',#43,.T.);
#34=FACE_OUTER_BOUND('',#44,.T.);
#35=FACE_OUTER_BOUND('',#45,.T.);
#36=FACE_OUTER_BOUND('',#46,.T.);
#37=FACE_OUTER_BOUND('',#47,.T.);
#38=FACE_OUTER_BOUND('',#52,.T.);
#39=EDGE_LOOP('',(#137,#138,#139,#140));
#40=EDGE_LOOP('',(#141,#142,#143,#144));
#41=EDGE_LOOP('',(#145,#146,#147,#148));
#42=EDGE_LOOP('',(#149,#150,#151,#152));
#43=EDGE_LOOP('',(#153,#154,#155,#156));
#44=EDGE_LOOP('',(#157,#158,#159,#160));
#45=EDGE_LOOP('',(#161,#162,#163,#164));
#46=EDGE_LOOP('',(#165,#166,#167,#168));
#47=EDGE_LOOP('',(#169,#170,#171,#172));
#48=EDGE_LOOP('',(#173));
#49=EDGE_LOOP('',(#174));
#50=EDGE_LOOP('',(#175));
#51=EDGE_LOOP('',(#176));
#52=EDGE_LOOP('',(#177,#178,#179,#180));
#53=EDGE_LOOP('',(#181));
#54=EDGE_LOOP('',(#182));
#55=EDGE_LOOP('',(#183));
#56=EDGE_LOOP('',(#184));
#57=LINE('',#296,#73);
#58=LINE('',#302,#74);
#59=LINE('',#308,#75);
#60=LINE('',#314,#76);
#61=LINE('',#319,#77);
#62=LINE('',#321,#78);
#63=LINE('',#323,#79);
#64=LINE('',#324,#80);
#65=LINE('',#327,#81);
#66=LINE('',#329,#82);
#67=LINE('',#330,#83);
#68=LINE('',#333,#84);
#69=LINE('',#335,#85);
#70=LINE('',#336,#86);
#71=LINE('',#338,#87);
#72=LINE('',#339,#88);
#73=VECTOR('',#243,2.25);
#74=VECTOR('',#250,2.25);
#75=VECTOR('',#257,2.25);
#76=VECTOR('',#264,2.25);
#77=VECTOR('',#269,10.);
#78=VECTOR('',#270,10.);
#79=VECTOR('',#271,10.);
#80=VECTOR('',#272,10.);
#81=VECTOR('',#275,10.);
#82=VECTOR('',#276,10.);
#83=VECTOR('',#277,10.);
#84=VECTOR('',#280,10.);
#85=VECTOR('',#281,10.);
#86=VECTOR('',#282,10.);
#87=VECTOR('',#285,10.);
#88=VECTOR('',#286,10.);
#89=CIRCLE('',#220,2.25);
#90=CIRCLE('',#221,2.25);
#91=CIRCLE('',#223,2.25);
#92=CIRCLE('',#224,2.25);
#93=CIRCLE('',#226,2.25);
#94=CIRCLE('',#227,2.25);
#95=CIRCLE('',#229,2.25);
#96=CIRCLE('',#230,2.25);
#97=VERTEX_POINT('',#293);
#98=VERTEX_POINT('',#295);
#99=VERTEX_POINT('',#299);
#100=VERTEX_POINT('',#301);
#101=VERTEX_POINT('',#305);
#102=VERTEX_POINT('',#307);
#103=VERTEX_POINT('',#311);
#104=VERTEX_POINT('',#313);
#105=VERTEX_POINT('',#317);
#106=VERTEX_POINT('',#318);
#107=VERTEX_POINT('',#320);
#108=VERTEX_POINT('',#322);
#109=VERTEX_POINT('',#326);
#110=VERTEX_POINT('',#328);
#111=VERTEX_POINT('',#332);
#112=VERTEX_POINT('',#334);
#113=EDGE_CURVE('',#97,#97,#89,.T.);
#114=EDGE_CURVE('',#97,#98,#57,.T.);
#115=EDGE_CURVE('',#98,#98,#90,.T.);
#116=EDGE_CURVE('',#99,#99,#91,.T.);
#117=EDGE_CURVE('',#99,#100,#58,.T.);
#118=EDGE_CURVE('',#100,#100,#92,.T.);
#119=EDGE_CURVE('',#101,#101,#93,.T.);
#120=EDGE_CURVE('',#101,#102,#59,.T.);
#121=EDGE_CURVE('',#102,#102,#94,.T.);
#122=EDGE_CURVE('',#103,#103,#95,.T.);
#123=EDGE_CURVE('',#103,#104,#60,.T.);
#124=EDGE_CURVE('',#104,#104,#96,.T.);
#125=EDGE_CURVE('',#105,#106,#61,.T.);
#126=EDGE_CURVE('',#106,#107,#62,.T.);
#127=EDGE_CURVE('',#108,#107,#63,.T.);
#128=EDGE_CURVE('',#105,#108,#64,.T.);
#129=EDGE_CURVE('',#109,#105,#65,.T.);
#130=EDGE_CURVE('',#110,#108,#66,.T.);
#131=EDGE_CURVE('',#109,#110,#67,.T.);
#132=EDGE_CURVE('',#111,#109,#68,.T.);
#133=EDGE_CURVE('',#112,#110,#69,.T.);
#134=EDGE_CURVE('',#111,#112,#70,.T.);
#135=EDGE_CURVE('',#106,#111,#71,.T.);
#136=EDGE_CURVE('',#107,#112,#72,.T.);
#137=ORIENTED_EDGE('',*,*,#113,.F.);
#138=ORIENTED_EDGE('',*,*,#114,.T.);
#139=ORIENTED_EDGE('',*,*,#115,.T.);
#140=ORIENTED_EDGE('',*,*,#114,.F.);
#141=ORIENTED_EDGE('',*,*,#116,.F.);
#142=ORIENTED_EDGE('',*,*,#117,.T.);
#143=ORIENTED_EDGE('',*,*,#118,.T.);
#144=ORIENTED_EDGE('',*,*,#117,.F.);
#145=ORIENTED_EDGE('',*,*,#119,.F.);
#146=ORIENTED_EDGE('',*,*,#120,.T.);
#147=ORIENTED_EDGE('',*,*,#121,.T.);
#148=ORIENTED_EDGE('',*,*,#120,.F.);
#149=ORIENTED_EDGE('',*,*,#122,.F.);
#150=ORIENTED_EDGE('',*,*,#123,.T.);
#151=ORIENTED_EDGE('',*,*,#124,.T.);
#152=ORIENTED_EDGE('',*,*,#123,.F.);
#153=ORIENTED_EDGE('',*,*,#125,.T.);
#154=ORIENTED_EDGE('',*,*,#126,.T.);
#155=ORIENTED_EDGE('',*,*,#127,.F.);
#156=ORIENTED_EDGE('',*,*,#128,.F.);
#157=ORIENTED_EDGE('',*,*,#129,.T.);
#158=ORIENTED_EDGE('',*,*,#128,.T.);
#159=ORIENTED_EDGE('',*,*,#130,.F.);
#160=ORIENTED_EDGE('',*,*,#131,.F.);
#161=ORIENTED_EDGE('',*,*,#132,.T.);
#162=ORIENTED_EDGE('',*,*,#131,.T.);
#163=ORIENTED_EDGE('',*,*,#133,.F.);
#164=ORIENTED_EDGE('',*,*,#134,.F.);
#165=ORIENTED_EDGE('',*,*,#135,.T.);
#166=ORIENTED_EDGE('',*,*,#134,.T.);
#167=ORIENTED_EDGE('',*,*,#136,.F.);
#168=ORIENTED_EDGE('',*,*,#126,.F.);
#169=ORIENTED_EDGE('',*,*,#136,.T.);
#170=ORIENTED_EDGE('',*,*,#133,.T.);
#171=ORIENTED_EDGE('',*,*,#130,.T.);
#172=ORIENTED_EDGE('',*,*,#127,.T.);
#173=ORIENTED_EDGE('',*,*,#122,.T.);
#174=ORIENTED_EDGE('',*,*,#119,.T.);
#175=ORIENTED_EDGE('',*,*,#116,.T.);
#176=ORIENTED_EDGE('',*,*,#113,.T.);
#177=ORIENTED_EDGE('',*,*,#135,.F.);
#178=ORIENTED_EDGE('',*,*,#125,.F.);
#179=ORIENTED_EDGE('',*,*,#129,.F.);
#180=ORIENTED_EDGE('',*,*,#132,.F.);
#181=ORIENTED_EDGE('',*,*,#124,.F.);
#182=ORIENTED_EDGE('',*,*,#121,.F.);
#183=ORIENTED_EDGE('',*,*,#118,.F.);
#184=ORIENTED_EDGE('',*,*,#115,.F.);
#185=CYLINDRICAL_SURFACE('',#219,2.25);
#186=CYLINDRICAL_SURFACE('',#222,2.25);
#187=CYLINDRICAL_SURFACE('',#225,2.25);
#188=CYLINDRICAL_SURFACE('',#228,2.25);
#189=ADVANCED_FACE('',(#29),#185,.F.);
#190=ADVANCED_FACE('',(#30),#186,.F.);
#191=ADVANCED_FACE('',(#31),#187,.F.);
#192=ADVANCED_FACE('',(#32),#188,.F.);
#193=ADVANCED_FACE('',(#33),#23,.T.);
#194=ADVANCED_FACE('',(#34),#24,.T.);
#195=ADVANCED_FACE('',(#35),#25,.T.);
#196=ADVANCED_FACE('',(#36),#26,.T.);
#197=ADVANCED_FACE('',(#37,#15,#16,#17,#18),#27,.T.);
#198=ADVANCED_FACE('',(#38,#19,#20,#21,#22),#28,.F.);
#199=CLOSED_SHELL('',(#189,#190,#191,#192,#193,#194,#195,#196,#197,#198));
#200=DERIVED_UNIT_ELEMENT(#202,1.);
#201=DERIVED_UNIT_ELEMENT(#347,3.);
#202=(
MASS_UNIT()
NAMED_UNIT(*)
SI_UNIT($,.GRAM.)
);
#203=DERIVED_UNIT((#200,#201));
#204=MEASURE_REPRESENTATION_ITEM('density measure',
POSITIVE_RATIO_MEASURE(1.188),#203);
#205=PROPERTY_DEFINITION_REPRESENTATION(#210,#207);
#206=PROPERTY_DEFINITION_REPRESENTATION(#211,#208);
#207=REPRESENTATION('material name',(#209),#344);
#208=REPRESENTATION('density',(#204),#344);
#209=DESCRIPTIVE_REPRESENTATION_ITEM('PMMA Plastic','PMMA Plastic');
#210=PROPERTY_DEFINITION('material property','material name',#354);
#211=PROPERTY_DEFINITION('material property','density of part',#354);
#212=DATE_TIME_ROLE('creation_date');
#213=APPLIED_DATE_AND_TIME_ASSIGNMENT(#214,#212,(#354));
#214=DATE_AND_TIME(#215,#216);
#215=CALENDAR_DATE(2023,23,10);
#216=LOCAL_TIME(0,0,0.,#217);
#217=COORDINATED_UNIVERSAL_TIME_OFFSET(0,0,.BEHIND.);
#218=AXIS2_PLACEMENT_3D('placement',#291,#237,#238);
#219=AXIS2_PLACEMENT_3D('',#292,#239,#240);
#220=AXIS2_PLACEMENT_3D('',#294,#241,#242);
#221=AXIS2_PLACEMENT_3D('',#297,#244,#245);
#222=AXIS2_PLACEMENT_3D('',#298,#246,#247);
#223=AXIS2_PLACEMENT_3D('',#300,#248,#249);
#224=AXIS2_PLACEMENT_3D('',#303,#251,#252);
#225=AXIS2_PLACEMENT_3D('',#304,#253,#254);
#226=AXIS2_PLACEMENT_3D('',#306,#255,#256);
#227=AXIS2_PLACEMENT_3D('',#309,#258,#259);
#228=AXIS2_PLACEMENT_3D('',#310,#260,#261);
#229=AXIS2_PLACEMENT_3D('',#312,#262,#263);
#230=AXIS2_PLACEMENT_3D('',#315,#265,#266);
#231=AXIS2_PLACEMENT_3D('',#316,#267,#268);
#232=AXIS2_PLACEMENT_3D('',#325,#273,#274);
#233=AXIS2_PLACEMENT_3D('',#331,#278,#279);
#234=AXIS2_PLACEMENT_3D('',#337,#283,#284);
#235=AXIS2_PLACEMENT_3D('',#340,#287,#288);
#236=AXIS2_PLACEMENT_3D('',#341,#289,#290);
#237=DIRECTION('axis',(0.,0.,1.));
#238=DIRECTION('refdir',(1.,0.,0.));
#239=DIRECTION('center_axis',(0.,0.,1.));
#240=DIRECTION('ref_axis',(-1.,0.,0.));
#241=DIRECTION('center_axis',(0.,0.,-1.));
#242=DIRECTION('ref_axis',(-1.,0.,0.));
#243=DIRECTION('',(0.,0.,-1.));
#244=DIRECTION('center_axis',(0.,0.,-1.));
#245=DIRECTION('ref_axis',(-1.,0.,0.));
#246=DIRECTION('center_axis',(0.,0.,1.));
#247=DIRECTION('ref_axis',(-1.,0.,0.));
#248=DIRECTION('center_axis',(0.,0.,-1.));
#249=DIRECTION('ref_axis',(-1.,0.,0.));
#250=DIRECTION('',(0.,0.,-1.));
#251=DIRECTION('center_axis',(0.,0.,-1.));
#252=DIRECTION('ref_axis',(-1.,0.,0.));
#253=DIRECTION('center_axis',(0.,0.,1.));
#254=DIRECTION('ref_axis',(-1.,0.,0.));
#255=DIRECTION('center_axis',(0.,0.,-1.));
#256=DIRECTION('ref_axis',(-1.,0.,0.));
#257=DIRECTION('',(0.,0.,-1.));
#258=DIRECTION('center_axis',(0.,0.,-1.));
#259=DIRECTION('ref_axis',(-1.,0.,0.));
#260=DIRECTION('center_axis',(0.,0.,1.));
#261=DIRECTION('ref_axis',(-1.,0.,0.));
#262=DIRECTION('center_axis',(0.,0.,-1.));
#263=DIRECTION('ref_axis',(-1.,0.,0.));
#264=DIRECTION('',(0.,0.,-1.));
#265=DIRECTION('center_axis',(0.,0.,-1.));
#266=DIRECTION('ref_axis',(-1.,0.,0.));
#267=DIRECTION('center_axis',(-1.,0.,0.));
#268=DIRECTION('ref_axis',(0.,-1.,0.));
#269=DIRECTION('',(0.,-1.,0.));
#270=DIRECTION('',(0.,0.,1.));
#271=DIRECTION('',(0.,-1.,0.));
#272=DIRECTION('',(0.,0.,1.));
#273=DIRECTION('center_axis',(0.,1.,0.));
#274=DIRECTION('ref_axis',(-1.,0.,0.));
#275=DIRECTION('',(-1.,0.,0.));
#276=DIRECTION('',(-1.,0.,0.));
#277=DIRECTION('',(0.,0.,1.));
#278=DIRECTION('center_axis',(1.,1.85037170770859E-16,0.));
#279=DIRECTION('ref_axis',(-1.85037170770859E-16,1.,0.));
#280=DIRECTION('',(-1.85037170770859E-16,1.,0.));
#281=DIRECTION('',(-1.85037170770859E-16,1.,0.));
#282=DIRECTION('',(0.,0.,1.));
#283=DIRECTION('center_axis',(-1.02449468210522E-31,-1.,0.));
#284=DIRECTION('ref_axis',(1.,-1.02449468210522E-31,0.));
#285=DIRECTION('',(1.,-1.02449468210522E-31,0.));
#286=DIRECTION('',(1.,-1.02449468210522E-31,0.));
#287=DIRECTION('center_axis',(0.,0.,1.));
#288=DIRECTION('ref_axis',(1.,0.,0.));
#289=DIRECTION('center_axis',(0.,0.,1.));
#290=DIRECTION('ref_axis',(1.,0.,0.));
#291=CARTESIAN_POINT('',(0.,0.,0.));
#292=CARTESIAN_POINT('Origin',(29.2499999999999,18.,0.));
#293=CARTESIAN_POINT('',(31.4999999999999,18.,6.));
#294=CARTESIAN_POINT('Origin',(29.2499999999999,18.,6.));
#295=CARTESIAN_POINT('',(31.4999999999999,18.,0.));
#296=CARTESIAN_POINT('',(31.4999999999999,18.,0.));
#297=CARTESIAN_POINT('Origin',(29.2499999999999,18.,0.));
#298=CARTESIAN_POINT('Origin',(29.2499999999999,36.,0.));
#299=CARTESIAN_POINT('',(31.4999999999999,36.,6.));
#300=CARTESIAN_POINT('Origin',(29.2499999999999,36.,6.));
#301=CARTESIAN_POINT('',(31.4999999999999,36.,0.));
#302=CARTESIAN_POINT('',(31.4999999999999,36.,0.));
#303=CARTESIAN_POINT('Origin',(29.2499999999999,36.,0.));
#304=CARTESIAN_POINT('Origin',(9.2499999999999,36.,0.));
#305=CARTESIAN_POINT('',(11.4999999999999,36.,6.));
#306=CARTESIAN_POINT('Origin',(9.2499999999999,36.,6.));
#307=CARTESIAN_POINT('',(11.4999999999999,36.,0.));
#308=CARTESIAN_POINT('',(11.4999999999999,36.,0.));
#309=CARTESIAN_POINT('Origin',(9.2499999999999,36.,0.));
#310=CARTESIAN_POINT('Origin',(9.2499999999999,18.,0.));
#311=CARTESIAN_POINT('',(11.4999999999999,18.,6.));
#312=CARTESIAN_POINT('Origin',(9.2499999999999,18.,6.));
#313=CARTESIAN_POINT('',(11.4999999999999,18.,0.));
#314=CARTESIAN_POINT('',(11.4999999999999,18.,0.));
#315=CARTESIAN_POINT('Origin',(9.2499999999999,18.,0.));
#316=CARTESIAN_POINT('Origin',(0.,48.,0.));
#317=CARTESIAN_POINT('',(0.,48.,0.));
#318=CARTESIAN_POINT('',(0.,0.,0.));
#319=CARTESIAN_POINT('',(0.,48.,0.));
#320=CARTESIAN_POINT('',(0.,0.,6.));
#321=CARTESIAN_POINT('',(0.,0.,0.));
#322=CARTESIAN_POINT('',(0.,48.,6.));
#323=CARTESIAN_POINT('',(0.,48.,6.));
#324=CARTESIAN_POINT('',(0.,48.,0.));
#325=CARTESIAN_POINT('Origin',(38.4999999999998,48.,0.));
#326=CARTESIAN_POINT('',(38.4999999999998,48.,0.));
#327=CARTESIAN_POINT('',(38.4999999999998,48.,0.));
#328=CARTESIAN_POINT('',(38.4999999999998,48.,6.));
#329=CARTESIAN_POINT('',(38.4999999999998,48.,6.));
#330=CARTESIAN_POINT('',(38.4999999999998,48.,0.));
#331=CARTESIAN_POINT('Origin',(38.4999999999998,-3.94430452610506E-30,0.));
#332=CARTESIAN_POINT('',(38.4999999999998,-3.94430452610506E-30,0.));
#333=CARTESIAN_POINT('',(38.4999999999998,0.,0.));
#334=CARTESIAN_POINT('',(38.4999999999998,-3.94430452610506E-30,6.));
#335=CARTESIAN_POINT('',(38.4999999999998,0.,6.));
#336=CARTESIAN_POINT('',(38.4999999999998,-3.94430452610506E-30,0.));
#337=CARTESIAN_POINT('Origin',(0.,0.,0.));
#338=CARTESIAN_POINT('',(0.,0.,0.));
#339=CARTESIAN_POINT('',(0.,0.,6.));
#340=CARTESIAN_POINT('Origin',(19.2499999999999,24.,6.));
#341=CARTESIAN_POINT('Origin',(19.2499999999999,24.,0.));
#342=UNCERTAINTY_MEASURE_WITH_UNIT(LENGTH_MEASURE(0.01),#346,
'DISTANCE_ACCURACY_VALUE',
'Maximum model space distance between geometric entities at asserted c
onnectivities');
#343=UNCERTAINTY_MEASURE_WITH_UNIT(LENGTH_MEASURE(0.01),#346,
'DISTANCE_ACCURACY_VALUE',
'Maximum model space distance between geometric entities at asserted c
onnectivities');
#344=(
GEOMETRIC_REPRESENTATION_CONTEXT(3)
GLOBAL_UNCERTAINTY_ASSIGNED_CONTEXT((#342))
GLOBAL_UNIT_ASSIGNED_CONTEXT((#346,#348,#349))
REPRESENTATION_CONTEXT('','3D')
);
#345=(
GEOMETRIC_REPRESENTATION_CONTEXT(3)
GLOBAL_UNCERTAINTY_ASSIGNED_CONTEXT((#343))
GLOBAL_UNIT_ASSIGNED_CONTEXT((#346,#348,#349))
REPRESENTATION_CONTEXT('','3D')
);
#346=(
LENGTH_UNIT()
NAMED_UNIT(*)
SI_UNIT(.MILLI.,.METRE.)
);
#347=(
LENGTH_UNIT()
NAMED_UNIT(*)
SI_UNIT(.CENTI.,.METRE.)
);
#348=(
NAMED_UNIT(*)
PLANE_ANGLE_UNIT()
SI_UNIT($,.RADIAN.)
);
#349=(
NAMED_UNIT(*)
SI_UNIT($,.STERADIAN.)
SOLID_ANGLE_UNIT()
);
#350=SHAPE_DEFINITION_REPRESENTATION(#351,#352);
#351=PRODUCT_DEFINITION_SHAPE('',$,#354);
#352=SHAPE_REPRESENTATION('',(#218),#344);
#353=PRODUCT_DEFINITION_CONTEXT('part definition',#358,'design');
#354=PRODUCT_DEFINITION('BaseC_9','BaseC_9',#355,#353);
#355=PRODUCT_DEFINITION_FORMATION('',$,#360);
#356=PRODUCT_RELATED_PRODUCT_CATEGORY('BaseC_9','BaseC_9',(#360));
#357=APPLICATION_PROTOCOL_DEFINITION('international standard',
'automotive_design',2009,#358);
#358=APPLICATION_CONTEXT(
'Core Data for Automotive Mechanical Design Process');
#359=PRODUCT_CONTEXT('part definition',#358,'mechanical');
#360=PRODUCT('BaseC_9','BaseC_9',$,(#359));
#361=PRESENTATION_STYLE_ASSIGNMENT((#362));
#362=SURFACE_STYLE_USAGE(.BOTH.,#365);
#363=SURFACE_STYLE_RENDERING_WITH_PROPERTIES($,#369,(#364));
#364=SURFACE_STYLE_TRANSPARENT(0.53999999165535);
#365=SURFACE_SIDE_STYLE('',(#366,#363));
#366=SURFACE_STYLE_FILL_AREA(#367);
#367=FILL_AREA_STYLE('',(#368));
#368=FILL_AREA_STYLE_COLOUR('',#369);
#369=COLOUR_RGB('',0.8,0.8,0.8);
ENDSEC;
END-ISO-10303-21;
