ISO-10303-21;
HEADER;
/* Generated by software containing ST-Developer
 * from STEP Tools, Inc. (www.steptools.com) 
 */

FILE_DESCRIPTION(
/* description */ (''),
/* implementation_level */ '2;1');

FILE_NAME(
/* name */ 
'I:\\ASU_FOE\\graduation project\\quadcopter\\matlab xml\\231123\\\\Fl
angedBearing8mm_ipt_45b851ef.STEP',
/* time_stamp */ '2023-11-23T19:53:37+02:00',
/* author */ (''),
/* organization */ (''),
/* preprocessor_version */ 'ST-DEVELOPER v18.1',
/* originating_system */ 'Autodesk Inventor 2021',
/* authorisation */ '');

FILE_SCHEMA (('AUTOMOTIVE_DESIGN { 1 0 10303 214 3 1 1 }'));
ENDSEC;

DATA;
#10=MECHANICAL_DESIGN_GEOMETRIC_PRESENTATION_REPRESENTATION('',(#65,#66,
#67,#68,#69,#70),#1034);
#11=SHAPE_REPRESENTATION_RELATIONSHIP('SRR','None',#1041,#12);
#12=ADVANCED_BREP_SHAPE_REPRESENTATION('',(#13),#1033);
#13=MANIFOLD_SOLID_BREP('Solid1',#519);
#14=CONICAL_SURFACE('',#556,13.425,0.174532925199433);
#15=PLANE('',#547);
#16=PLANE('',#548);
#17=PLANE('',#552);
#18=PLANE('',#559);
#19=PLANE('',#563);
#20=PLANE('',#569);
#21=PLANE('',#576);
#22=PLANE('',#580);
#23=PLANE('',#583);
#24=PLANE('',#587);
#25=PLANE('',#590);
#26=PLANE('',#591);
#27=FACE_BOUND('',#101,.T.);
#28=FACE_BOUND('',#103,.T.);
#29=FACE_BOUND('',#105,.T.);
#30=FACE_BOUND('',#107,.T.);
#31=FACE_BOUND('',#110,.T.);
#32=FACE_BOUND('',#114,.T.);
#33=FACE_BOUND('',#117,.T.);
#34=FACE_BOUND('',#120,.T.);
#35=FACE_BOUND('',#132,.T.);
#36=FACE_BOUND('',#134,.T.);
#37=FACE_BOUND('',#135,.T.);
#38=FACE_BOUND('',#136,.T.);
#39=CIRCLE('',#542,4.1);
#40=CIRCLE('',#543,4.1);
#41=CIRCLE('',#545,5.5);
#42=CIRCLE('',#546,5.5);
#43=CIRCLE('',#549,10.);
#44=CIRCLE('',#551,10.);
#45=CIRCLE('',#553,11.3609977945285);
#46=CIRCLE('',#555,11.3609977945285);
#47=CIRCLE('',#557,13.425);
#48=CIRCLE('',#558,12.5609977945285);
#49=CIRCLE('',#561,14.7782664130293);
#50=CIRCLE('',#562,14.7782664130293);
#51=CIRCLE('',#564,5.99999999999995);
#52=CIRCLE('',#565,2.5);
#53=CIRCLE('',#567,14.5);
#54=CIRCLE('',#568,14.5);
#55=CIRCLE('',#570,5.99999999999996);
#56=CIRCLE('',#571,2.5);
#57=CIRCLE('',#573,2.5);
#58=CIRCLE('',#575,2.5);
#59=CIRCLE('',#578,13.5);
#60=CIRCLE('',#579,13.5);
#61=CIRCLE('',#582,5.99999999999996);
#62=CIRCLE('',#585,13.4999999999999);
#63=CIRCLE('',#586,13.4999999999999);
#64=CIRCLE('',#589,5.99999999999995);
#65=STYLED_ITEM('',(#1052),#494);
#66=STYLED_ITEM('',(#1052),#495);
#67=STYLED_ITEM('',(#1052),#496);
#68=STYLED_ITEM('',(#1053),#497);
#69=STYLED_ITEM('',(#1052),#499);
#70=STYLED_ITEM('',(#1051),#13);
#71=FACE_OUTER_BOUND('',#98,.T.);
#72=FACE_OUTER_BOUND('',#99,.T.);
#73=FACE_OUTER_BOUND('',#100,.T.);
#74=FACE_OUTER_BOUND('',#102,.T.);
#75=FACE_OUTER_BOUND('',#104,.T.);
#76=FACE_OUTER_BOUND('',#106,.T.);
#77=FACE_OUTER_BOUND('',#108,.T.);
#78=FACE_OUTER_BOUND('',#109,.T.);
#79=FACE_OUTER_BOUND('',#111,.T.);
#80=FACE_OUTER_BOUND('',#112,.T.);
#81=FACE_OUTER_BOUND('',#113,.T.);
#82=FACE_OUTER_BOUND('',#115,.T.);
#83=FACE_OUTER_BOUND('',#116,.T.);
#84=FACE_OUTER_BOUND('',#118,.T.);
#85=FACE_OUTER_BOUND('',#119,.T.);
#86=FACE_OUTER_BOUND('',#121,.T.);
#87=FACE_OUTER_BOUND('',#122,.T.);
#88=FACE_OUTER_BOUND('',#123,.T.);
#89=FACE_OUTER_BOUND('',#124,.T.);
#90=FACE_OUTER_BOUND('',#125,.T.);
#91=FACE_OUTER_BOUND('',#126,.T.);
#92=FACE_OUTER_BOUND('',#127,.T.);
#93=FACE_OUTER_BOUND('',#128,.T.);
#94=FACE_OUTER_BOUND('',#129,.T.);
#95=FACE_OUTER_BOUND('',#130,.T.);
#96=FACE_OUTER_BOUND('',#131,.T.);
#97=FACE_OUTER_BOUND('',#133,.T.);
#98=EDGE_LOOP('',(#336,#337,#338,#339,#340,#341,#342,#343));
#99=EDGE_LOOP('',(#344,#345,#346,#347,#348,#349));
#100=EDGE_LOOP('',(#350,#351,#352,#353,#354,#355,#356,#357,#358));
#101=EDGE_LOOP('',(#359,#360));
#102=EDGE_LOOP('',(#361,#362,#363,#364,#365,#366,#367,#368,#369));
#103=EDGE_LOOP('',(#370,#371));
#104=EDGE_LOOP('',(#372));
#105=EDGE_LOOP('',(#373));
#106=EDGE_LOOP('',(#374));
#107=EDGE_LOOP('',(#375));
#108=EDGE_LOOP('',(#376,#377,#378,#379));
#109=EDGE_LOOP('',(#380));
#110=EDGE_LOOP('',(#381));
#111=EDGE_LOOP('',(#382,#383,#384,#385));
#112=EDGE_LOOP('',(#386,#387,#388,#389));
#113=EDGE_LOOP('',(#390));
#114=EDGE_LOOP('',(#391));
#115=EDGE_LOOP('',(#392,#393,#394,#395));
#116=EDGE_LOOP('',(#396,#397,#398,#399));
#117=EDGE_LOOP('',(#400));
#118=EDGE_LOOP('',(#401,#402,#403,#404));
#119=EDGE_LOOP('',(#405,#406,#407,#408));
#120=EDGE_LOOP('',(#409));
#121=EDGE_LOOP('',(#410,#411,#412,#413));
#122=EDGE_LOOP('',(#414,#415,#416,#417));
#123=EDGE_LOOP('',(#418,#419,#420,#421,#422,#423));
#124=EDGE_LOOP('',(#424,#425,#426,#427));
#125=EDGE_LOOP('',(#428,#429,#430,#431,#432,#433));
#126=EDGE_LOOP('',(#434,#435,#436,#437));
#127=EDGE_LOOP('',(#438,#439,#440,#441,#442,#443));
#128=EDGE_LOOP('',(#444,#445,#446,#447));
#129=EDGE_LOOP('',(#448,#449,#450,#451,#452,#453));
#130=EDGE_LOOP('',(#454,#455,#456,#457));
#131=EDGE_LOOP('',(#458,#459,#460,#461,#462,#463,#464,#465));
#132=EDGE_LOOP('',(#466));
#133=EDGE_LOOP('',(#467,#468,#469,#470,#471,#472,#473,#474));
#134=EDGE_LOOP('',(#475));
#135=EDGE_LOOP('',(#476));
#136=EDGE_LOOP('',(#477));
#137=LINE('',#771,#172);
#138=LINE('',#871,#173);
#139=LINE('',#912,#174);
#140=LINE('',#914,#175);
#141=LINE('',#918,#176);
#142=LINE('',#921,#177);
#143=LINE('',#929,#178);
#144=LINE('',#937,#179);
#145=LINE('',#942,#180);
#146=LINE('',#950,#181);
#147=LINE('',#953,#182);
#148=LINE('',#958,#183);
#149=LINE('',#959,#184);
#150=LINE('',#967,#185);
#151=LINE('',#970,#186);
#152=LINE('',#975,#187);
#153=LINE('',#976,#188);
#154=LINE('',#982,#189);
#155=LINE('',#986,#190);
#156=LINE('',#990,#191);
#157=LINE('',#991,#192);
#158=LINE('',#993,#193);
#159=LINE('',#994,#194);
#160=LINE('',#1000,#195);
#161=LINE('',#1003,#196);
#162=LINE('',#1004,#197);
#163=LINE('',#1005,#198);
#164=LINE('',#1009,#199);
#165=LINE('',#1012,#200);
#166=LINE('',#1014,#201);
#167=LINE('',#1015,#202);
#168=LINE('',#1021,#203);
#169=LINE('',#1024,#204);
#170=LINE('',#1025,#205);
#171=LINE('',#1026,#206);
#172=VECTOR('',#596,1.03775);
#173=VECTOR('',#599,1.03775);
#174=VECTOR('',#604,4.1);
#175=VECTOR('',#605,4.1);
#176=VECTOR('',#610,5.5);
#177=VECTOR('',#613,5.5);
#178=VECTOR('',#624,10.);
#179=VECTOR('',#635,11.3609977945285);
#180=VECTOR('',#640,13.425);
#181=VECTOR('',#649,10.);
#182=VECTOR('',#652,10.);
#183=VECTOR('',#657,10.);
#184=VECTOR('',#658,10.);
#185=VECTOR('',#665,10.);
#186=VECTOR('',#668,10.);
#187=VECTOR('',#673,10.);
#188=VECTOR('',#674,10.);
#189=VECTOR('',#681,2.5);
#190=VECTOR('',#686,2.5);
#191=VECTOR('',#689,10.);
#192=VECTOR('',#690,10.);
#193=VECTOR('',#691,10.);
#194=VECTOR('',#692,10.);
#195=VECTOR('',#699,10.);
#196=VECTOR('',#702,10.);
#197=VECTOR('',#703,10.);
#198=VECTOR('',#704,10.);
#199=VECTOR('',#709,10.);
#200=VECTOR('',#712,10.);
#201=VECTOR('',#713,10.);
#202=VECTOR('',#714,10.);
#203=VECTOR('',#721,10.);
#204=VECTOR('',#724,10.);
#205=VECTOR('',#725,10.);
#206=VECTOR('',#726,10.);
#207=B_SPLINE_CURVE_WITH_KNOTS('',3,(#739,#740,#741,#742,#743,#744,#745,
#746,#747,#748,#749,#750,#751,#752,#753,#754,#755,#756),.UNSPECIFIED.,.F.,
 .F.,(4,2,2,2,2,2,2,2,4),(0.157942345358308,0.195966239910008,0.235151176445973,
0.274343179690181,0.313535182934389,0.352727186178598,0.391919189422806,
0.431104125958771,0.46912802258504),.UNSPECIFIED.);
#208=B_SPLINE_CURVE_WITH_KNOTS('',3,(#758,#759,#760,#761,#762,#763,#764,
#765,#766,#767,#768,#769),.UNSPECIFIED.,.F.,.F.,(4,2,2,2,2,4),(0.627070365868779,
0.666263792877671,0.705457219886563,0.744654444564693,0.783851669242822,
0.785012711227101),.UNSPECIFIED.);
#209=B_SPLINE_CURVE_WITH_KNOTS('',3,(#773,#774,#775,#776,#777,#778,#779,
#780,#781,#782,#783,#784),.UNSPECIFIED.,.F.,.F.,(4,2,2,2,2,4),(-0.158288212527709,
-0.157127122369819,-0.117843275708369,-0.0785594290469201,-0.03927971452346,
0.),.UNSPECIFIED.);
#210=B_SPLINE_CURVE_WITH_KNOTS('',3,(#786,#787,#788,#789,#790,#791,#792,
#793,#794,#795,#796,#797,#798,#799,#800,#801,#802,#803),.UNSPECIFIED.,.F.,
 .F.,(4,2,2,2,2,2,2,2,4),(-0.470119149306967,-0.432018767366707,-0.392757295268572,
-0.353480488092951,-0.314203680917331,-0.27492687374171,-0.23565006656609,
-0.196388594467954,-0.158288212527695),.UNSPECIFIED.);
#211=B_SPLINE_CURVE_WITH_KNOTS('',3,(#804,#805,#806,#807,#808,#809,#810,
#811,#812,#813,#814,#815),.UNSPECIFIED.,.F.,.F.,(4,2,2,2,2,4),(0.,0.03927971452346,
0.07855942904692,0.117843275708369,0.157127122369819,0.158288212527709),
 .UNSPECIFIED.);
#212=B_SPLINE_CURVE_WITH_KNOTS('',3,(#816,#817,#818,#819,#820,#821,#822,
#823,#824,#825,#826,#827),.UNSPECIFIED.,.F.,.F.,(4,2,2,2,2,4),(0.469130529843981,
0.470289062494735,0.509486287172865,0.548683511850995,0.587876938859887,
0.627070365868779),.UNSPECIFIED.);
#213=B_SPLINE_CURVE_WITH_KNOTS('',3,(#831,#832,#833,#834,#835,#836,#837,
#838,#839,#840,#841,#842,#843,#844,#845,#846,#847,#848,#849),
 .UNSPECIFIED.,.F.,.F.,(4,2,2,2,3,2,2,2,4),(0.470377324542301,0.509494175035025,
0.54868438551494,0.587877013494092,0.627069641473245,0.666262269452397,
0.70545489743155,0.744645107911465,0.78383531839138),.UNSPECIFIED.);
#214=B_SPLINE_CURVE_WITH_KNOTS('',3,(#850,#851,#852,#853,#854,#855,#856,
#857,#858,#859,#860,#861,#862,#863,#864,#865,#866,#867,#868,#869),
 .UNSPECIFIED.,.F.,.F.,(4,2,2,2,2,2,2,2,2,4),(0.78383531839138,0.823027082331053,
0.862218846270726,0.901411654240297,0.940604462209867,0.979797270179438,
1.01899007814901,1.05818184208868,1.09737360602835,1.09744696601555),
 .UNSPECIFIED.);
#215=B_SPLINE_CURVE_WITH_KNOTS('',3,(#873,#874,#875,#876,#877,#878,#879,
#880,#881,#882,#883,#884,#885,#886,#887,#888,#889,#890,#891,#892,#893,#894,
#895,#896,#897,#898),.UNSPECIFIED.,.F.,.F.,(4,2,2,2,2,2,2,2,2,2,2,2,4),
(-0.628406001405637,-0.589127921993985,-0.549849842582334,-0.51057876986851,
-0.471307697154686,-0.43203379587894,-0.392759894603193,-0.353481447653006,
-0.314203000702818,-0.274924553752631,-0.235646106802443,-0.196372205526697,
-0.157098304250951),.UNSPECIFIED.);
#216=B_SPLINE_CURVE_WITH_KNOTS('',3,(#899,#900,#901,#902,#903,#904,#905,
#906,#907,#908),.UNSPECIFIED.,.F.,.F.,(4,2,2,2,4),(-0.157098304250951,-0.117827231537127,
-0.0785561588233027,-0.0392780794116514,0.),.UNSPECIFIED.);
#217=VERTEX_POINT('',#737);
#218=VERTEX_POINT('',#738);
#219=VERTEX_POINT('',#757);
#220=VERTEX_POINT('',#770);
#221=VERTEX_POINT('',#772);
#222=VERTEX_POINT('',#785);
#223=VERTEX_POINT('',#829);
#224=VERTEX_POINT('',#830);
#225=VERTEX_POINT('',#870);
#226=VERTEX_POINT('',#872);
#227=VERTEX_POINT('',#910);
#228=VERTEX_POINT('',#913);
#229=VERTEX_POINT('',#917);
#230=VERTEX_POINT('',#920);
#231=VERTEX_POINT('',#925);
#232=VERTEX_POINT('',#928);
#233=VERTEX_POINT('',#932);
#234=VERTEX_POINT('',#935);
#235=VERTEX_POINT('',#939);
#236=VERTEX_POINT('',#941);
#237=VERTEX_POINT('',#946);
#238=VERTEX_POINT('',#947);
#239=VERTEX_POINT('',#949);
#240=VERTEX_POINT('',#951);
#241=VERTEX_POINT('',#955);
#242=VERTEX_POINT('',#956);
#243=VERTEX_POINT('',#960);
#244=VERTEX_POINT('',#963);
#245=VERTEX_POINT('',#964);
#246=VERTEX_POINT('',#966);
#247=VERTEX_POINT('',#968);
#248=VERTEX_POINT('',#972);
#249=VERTEX_POINT('',#973);
#250=VERTEX_POINT('',#977);
#251=VERTEX_POINT('',#980);
#252=VERTEX_POINT('',#984);
#253=VERTEX_POINT('',#988);
#254=VERTEX_POINT('',#989);
#255=VERTEX_POINT('',#992);
#256=VERTEX_POINT('',#996);
#257=VERTEX_POINT('',#998);
#258=VERTEX_POINT('',#1002);
#259=VERTEX_POINT('',#1007);
#260=VERTEX_POINT('',#1011);
#261=VERTEX_POINT('',#1013);
#262=VERTEX_POINT('',#1017);
#263=VERTEX_POINT('',#1019);
#264=VERTEX_POINT('',#1023);
#265=EDGE_CURVE('',#217,#218,#207,.T.);
#266=EDGE_CURVE('',#219,#217,#208,.T.);
#267=EDGE_CURVE('',#219,#220,#137,.T.);
#268=EDGE_CURVE('',#221,#220,#209,.T.);
#269=EDGE_CURVE('',#222,#221,#210,.T.);
#270=EDGE_CURVE('',#220,#222,#211,.T.);
#271=EDGE_CURVE('',#218,#219,#212,.T.);
#272=EDGE_CURVE('',#223,#224,#213,.T.);
#273=EDGE_CURVE('',#224,#223,#214,.T.);
#274=EDGE_CURVE('',#224,#225,#138,.T.);
#275=EDGE_CURVE('',#226,#225,#215,.T.);
#276=EDGE_CURVE('',#225,#226,#216,.T.);
#277=EDGE_CURVE('',#227,#227,#39,.T.);
#278=EDGE_CURVE('',#227,#222,#139,.T.);
#279=EDGE_CURVE('',#221,#228,#140,.T.);
#280=EDGE_CURVE('',#228,#228,#40,.T.);
#281=EDGE_CURVE('',#229,#217,#141,.T.);
#282=EDGE_CURVE('',#229,#229,#41,.T.);
#283=EDGE_CURVE('',#218,#230,#142,.T.);
#284=EDGE_CURVE('',#230,#230,#42,.T.);
#285=EDGE_CURVE('',#231,#231,#43,.T.);
#286=EDGE_CURVE('',#231,#232,#143,.T.);
#287=EDGE_CURVE('',#232,#232,#44,.T.);
#288=EDGE_CURVE('',#233,#233,#45,.T.);
#289=EDGE_CURVE('',#234,#234,#46,.T.);
#290=EDGE_CURVE('',#234,#233,#144,.T.);
#291=EDGE_CURVE('',#235,#235,#47,.T.);
#292=EDGE_CURVE('',#235,#236,#145,.T.);
#293=EDGE_CURVE('',#236,#236,#48,.T.);
#294=EDGE_CURVE('',#237,#238,#49,.T.);
#295=EDGE_CURVE('',#237,#239,#146,.T.);
#296=EDGE_CURVE('',#240,#239,#50,.T.);
#297=EDGE_CURVE('',#238,#240,#147,.T.);
#298=EDGE_CURVE('',#241,#242,#51,.T.);
#299=EDGE_CURVE('',#242,#240,#148,.T.);
#300=EDGE_CURVE('',#239,#241,#149,.T.);
#301=EDGE_CURVE('',#243,#243,#52,.T.);
#302=EDGE_CURVE('',#244,#245,#53,.T.);
#303=EDGE_CURVE('',#244,#246,#150,.T.);
#304=EDGE_CURVE('',#247,#246,#54,.T.);
#305=EDGE_CURVE('',#245,#247,#151,.T.);
#306=EDGE_CURVE('',#248,#249,#55,.T.);
#307=EDGE_CURVE('',#249,#247,#152,.T.);
#308=EDGE_CURVE('',#246,#248,#153,.T.);
#309=EDGE_CURVE('',#250,#250,#56,.T.);
#310=EDGE_CURVE('',#251,#251,#57,.T.);
#311=EDGE_CURVE('',#251,#250,#154,.T.);
#312=EDGE_CURVE('',#252,#252,#58,.T.);
#313=EDGE_CURVE('',#252,#243,#155,.T.);
#314=EDGE_CURVE('',#253,#254,#156,.T.);
#315=EDGE_CURVE('',#253,#241,#157,.T.);
#316=EDGE_CURVE('',#255,#237,#158,.T.);
#317=EDGE_CURVE('',#254,#255,#159,.T.);
#318=EDGE_CURVE('',#256,#254,#59,.T.);
#319=EDGE_CURVE('',#257,#255,#60,.T.);
#320=EDGE_CURVE('',#256,#257,#160,.T.);
#321=EDGE_CURVE('',#258,#256,#161,.T.);
#322=EDGE_CURVE('',#245,#257,#162,.T.);
#323=EDGE_CURVE('',#258,#249,#163,.T.);
#324=EDGE_CURVE('',#259,#258,#61,.T.);
#325=EDGE_CURVE('',#259,#248,#164,.T.);
#326=EDGE_CURVE('',#259,#260,#165,.T.);
#327=EDGE_CURVE('',#261,#244,#166,.T.);
#328=EDGE_CURVE('',#260,#261,#167,.T.);
#329=EDGE_CURVE('',#262,#260,#62,.T.);
#330=EDGE_CURVE('',#263,#261,#63,.T.);
#331=EDGE_CURVE('',#262,#263,#168,.T.);
#332=EDGE_CURVE('',#264,#262,#169,.T.);
#333=EDGE_CURVE('',#238,#263,#170,.T.);
#334=EDGE_CURVE('',#264,#242,#171,.T.);
#335=EDGE_CURVE('',#253,#264,#64,.T.);
#336=ORIENTED_EDGE('',*,*,#265,.F.);
#337=ORIENTED_EDGE('',*,*,#266,.F.);
#338=ORIENTED_EDGE('',*,*,#267,.T.);
#339=ORIENTED_EDGE('',*,*,#268,.F.);
#340=ORIENTED_EDGE('',*,*,#269,.F.);
#341=ORIENTED_EDGE('',*,*,#270,.F.);
#342=ORIENTED_EDGE('',*,*,#267,.F.);
#343=ORIENTED_EDGE('',*,*,#271,.F.);
#344=ORIENTED_EDGE('',*,*,#272,.F.);
#345=ORIENTED_EDGE('',*,*,#273,.F.);
#346=ORIENTED_EDGE('',*,*,#274,.T.);
#347=ORIENTED_EDGE('',*,*,#275,.F.);
#348=ORIENTED_EDGE('',*,*,#276,.F.);
#349=ORIENTED_EDGE('',*,*,#274,.F.);
#350=ORIENTED_EDGE('',*,*,#277,.F.);
#351=ORIENTED_EDGE('',*,*,#278,.T.);
#352=ORIENTED_EDGE('',*,*,#269,.T.);
#353=ORIENTED_EDGE('',*,*,#279,.T.);
#354=ORIENTED_EDGE('',*,*,#280,.F.);
#355=ORIENTED_EDGE('',*,*,#279,.F.);
#356=ORIENTED_EDGE('',*,*,#268,.T.);
#357=ORIENTED_EDGE('',*,*,#270,.T.);
#358=ORIENTED_EDGE('',*,*,#278,.F.);
#359=ORIENTED_EDGE('',*,*,#275,.T.);
#360=ORIENTED_EDGE('',*,*,#276,.T.);
#361=ORIENTED_EDGE('',*,*,#271,.T.);
#362=ORIENTED_EDGE('',*,*,#266,.T.);
#363=ORIENTED_EDGE('',*,*,#281,.F.);
#364=ORIENTED_EDGE('',*,*,#282,.F.);
#365=ORIENTED_EDGE('',*,*,#281,.T.);
#366=ORIENTED_EDGE('',*,*,#265,.T.);
#367=ORIENTED_EDGE('',*,*,#283,.T.);
#368=ORIENTED_EDGE('',*,*,#284,.F.);
#369=ORIENTED_EDGE('',*,*,#283,.F.);
#370=ORIENTED_EDGE('',*,*,#272,.T.);
#371=ORIENTED_EDGE('',*,*,#273,.T.);
#372=ORIENTED_EDGE('',*,*,#282,.T.);
#373=ORIENTED_EDGE('',*,*,#280,.T.);
#374=ORIENTED_EDGE('',*,*,#285,.T.);
#375=ORIENTED_EDGE('',*,*,#284,.T.);
#376=ORIENTED_EDGE('',*,*,#285,.F.);
#377=ORIENTED_EDGE('',*,*,#286,.T.);
#378=ORIENTED_EDGE('',*,*,#287,.F.);
#379=ORIENTED_EDGE('',*,*,#286,.F.);
#380=ORIENTED_EDGE('',*,*,#288,.F.);
#381=ORIENTED_EDGE('',*,*,#287,.T.);
#382=ORIENTED_EDGE('',*,*,#289,.F.);
#383=ORIENTED_EDGE('',*,*,#290,.T.);
#384=ORIENTED_EDGE('',*,*,#288,.T.);
#385=ORIENTED_EDGE('',*,*,#290,.F.);
#386=ORIENTED_EDGE('',*,*,#291,.F.);
#387=ORIENTED_EDGE('',*,*,#292,.T.);
#388=ORIENTED_EDGE('',*,*,#293,.T.);
#389=ORIENTED_EDGE('',*,*,#292,.F.);
#390=ORIENTED_EDGE('',*,*,#293,.F.);
#391=ORIENTED_EDGE('',*,*,#289,.T.);
#392=ORIENTED_EDGE('',*,*,#294,.F.);
#393=ORIENTED_EDGE('',*,*,#295,.T.);
#394=ORIENTED_EDGE('',*,*,#296,.F.);
#395=ORIENTED_EDGE('',*,*,#297,.F.);
#396=ORIENTED_EDGE('',*,*,#298,.T.);
#397=ORIENTED_EDGE('',*,*,#299,.T.);
#398=ORIENTED_EDGE('',*,*,#296,.T.);
#399=ORIENTED_EDGE('',*,*,#300,.T.);
#400=ORIENTED_EDGE('',*,*,#301,.T.);
#401=ORIENTED_EDGE('',*,*,#302,.F.);
#402=ORIENTED_EDGE('',*,*,#303,.T.);
#403=ORIENTED_EDGE('',*,*,#304,.F.);
#404=ORIENTED_EDGE('',*,*,#305,.F.);
#405=ORIENTED_EDGE('',*,*,#306,.T.);
#406=ORIENTED_EDGE('',*,*,#307,.T.);
#407=ORIENTED_EDGE('',*,*,#304,.T.);
#408=ORIENTED_EDGE('',*,*,#308,.T.);
#409=ORIENTED_EDGE('',*,*,#309,.T.);
#410=ORIENTED_EDGE('',*,*,#310,.T.);
#411=ORIENTED_EDGE('',*,*,#311,.T.);
#412=ORIENTED_EDGE('',*,*,#309,.F.);
#413=ORIENTED_EDGE('',*,*,#311,.F.);
#414=ORIENTED_EDGE('',*,*,#312,.T.);
#415=ORIENTED_EDGE('',*,*,#313,.T.);
#416=ORIENTED_EDGE('',*,*,#301,.F.);
#417=ORIENTED_EDGE('',*,*,#313,.F.);
#418=ORIENTED_EDGE('',*,*,#314,.F.);
#419=ORIENTED_EDGE('',*,*,#315,.T.);
#420=ORIENTED_EDGE('',*,*,#300,.F.);
#421=ORIENTED_EDGE('',*,*,#295,.F.);
#422=ORIENTED_EDGE('',*,*,#316,.F.);
#423=ORIENTED_EDGE('',*,*,#317,.F.);
#424=ORIENTED_EDGE('',*,*,#318,.T.);
#425=ORIENTED_EDGE('',*,*,#317,.T.);
#426=ORIENTED_EDGE('',*,*,#319,.F.);
#427=ORIENTED_EDGE('',*,*,#320,.F.);
#428=ORIENTED_EDGE('',*,*,#321,.T.);
#429=ORIENTED_EDGE('',*,*,#320,.T.);
#430=ORIENTED_EDGE('',*,*,#322,.F.);
#431=ORIENTED_EDGE('',*,*,#305,.T.);
#432=ORIENTED_EDGE('',*,*,#307,.F.);
#433=ORIENTED_EDGE('',*,*,#323,.F.);
#434=ORIENTED_EDGE('',*,*,#324,.T.);
#435=ORIENTED_EDGE('',*,*,#323,.T.);
#436=ORIENTED_EDGE('',*,*,#306,.F.);
#437=ORIENTED_EDGE('',*,*,#325,.F.);
#438=ORIENTED_EDGE('',*,*,#326,.F.);
#439=ORIENTED_EDGE('',*,*,#325,.T.);
#440=ORIENTED_EDGE('',*,*,#308,.F.);
#441=ORIENTED_EDGE('',*,*,#303,.F.);
#442=ORIENTED_EDGE('',*,*,#327,.F.);
#443=ORIENTED_EDGE('',*,*,#328,.F.);
#444=ORIENTED_EDGE('',*,*,#329,.T.);
#445=ORIENTED_EDGE('',*,*,#328,.T.);
#446=ORIENTED_EDGE('',*,*,#330,.F.);
#447=ORIENTED_EDGE('',*,*,#331,.F.);
#448=ORIENTED_EDGE('',*,*,#332,.T.);
#449=ORIENTED_EDGE('',*,*,#331,.T.);
#450=ORIENTED_EDGE('',*,*,#333,.F.);
#451=ORIENTED_EDGE('',*,*,#297,.T.);
#452=ORIENTED_EDGE('',*,*,#299,.F.);
#453=ORIENTED_EDGE('',*,*,#334,.F.);
#454=ORIENTED_EDGE('',*,*,#335,.T.);
#455=ORIENTED_EDGE('',*,*,#334,.T.);
#456=ORIENTED_EDGE('',*,*,#298,.F.);
#457=ORIENTED_EDGE('',*,*,#315,.F.);
#458=ORIENTED_EDGE('',*,*,#294,.T.);
#459=ORIENTED_EDGE('',*,*,#333,.T.);
#460=ORIENTED_EDGE('',*,*,#330,.T.);
#461=ORIENTED_EDGE('',*,*,#327,.T.);
#462=ORIENTED_EDGE('',*,*,#302,.T.);
#463=ORIENTED_EDGE('',*,*,#322,.T.);
#464=ORIENTED_EDGE('',*,*,#319,.T.);
#465=ORIENTED_EDGE('',*,*,#316,.T.);
#466=ORIENTED_EDGE('',*,*,#291,.T.);
#467=ORIENTED_EDGE('',*,*,#335,.F.);
#468=ORIENTED_EDGE('',*,*,#314,.T.);
#469=ORIENTED_EDGE('',*,*,#318,.F.);
#470=ORIENTED_EDGE('',*,*,#321,.F.);
#471=ORIENTED_EDGE('',*,*,#324,.F.);
#472=ORIENTED_EDGE('',*,*,#326,.T.);
#473=ORIENTED_EDGE('',*,*,#329,.F.);
#474=ORIENTED_EDGE('',*,*,#332,.F.);
#475=ORIENTED_EDGE('',*,*,#277,.T.);
#476=ORIENTED_EDGE('',*,*,#312,.F.);
#477=ORIENTED_EDGE('',*,*,#310,.F.);
#478=CYLINDRICAL_SURFACE('',#539,1.03775);
#479=CYLINDRICAL_SURFACE('',#540,1.03775);
#480=CYLINDRICAL_SURFACE('',#541,4.1);
#481=CYLINDRICAL_SURFACE('',#544,5.5);
#482=CYLINDRICAL_SURFACE('',#550,10.);
#483=CYLINDRICAL_SURFACE('',#554,11.3609977945285);
#484=CYLINDRICAL_SURFACE('',#560,14.7782664130293);
#485=CYLINDRICAL_SURFACE('',#566,14.5);
#486=CYLINDRICAL_SURFACE('',#572,2.5);
#487=CYLINDRICAL_SURFACE('',#574,2.5);
#488=CYLINDRICAL_SURFACE('',#577,13.5);
#489=CYLINDRICAL_SURFACE('',#581,5.99999999999996);
#490=CYLINDRICAL_SURFACE('',#584,13.4999999999999);
#491=CYLINDRICAL_SURFACE('',#588,5.99999999999995);
#492=ADVANCED_FACE('',(#71),#478,.F.);
#493=ADVANCED_FACE('',(#72),#479,.F.);
#494=ADVANCED_FACE('',(#73,#27),#480,.F.);
#495=ADVANCED_FACE('',(#74,#28),#481,.T.);
#496=ADVANCED_FACE('',(#75,#29),#15,.T.);
#497=ADVANCED_FACE('',(#76,#30),#16,.T.);
#498=ADVANCED_FACE('',(#77),#482,.F.);
#499=ADVANCED_FACE('',(#78,#31),#17,.T.);
#500=ADVANCED_FACE('',(#79),#483,.F.);
#501=ADVANCED_FACE('',(#80),#14,.T.);
#502=ADVANCED_FACE('',(#81,#32),#18,.T.);
#503=ADVANCED_FACE('',(#82),#484,.F.);
#504=ADVANCED_FACE('',(#83,#33),#19,.T.);
#505=ADVANCED_FACE('',(#84),#485,.F.);
#506=ADVANCED_FACE('',(#85,#34),#20,.T.);
#507=ADVANCED_FACE('',(#86),#486,.F.);
#508=ADVANCED_FACE('',(#87),#487,.F.);
#509=ADVANCED_FACE('',(#88),#21,.T.);
#510=ADVANCED_FACE('',(#89),#488,.T.);
#511=ADVANCED_FACE('',(#90),#22,.T.);
#512=ADVANCED_FACE('',(#91),#489,.T.);
#513=ADVANCED_FACE('',(#92),#23,.T.);
#514=ADVANCED_FACE('',(#93),#490,.T.);
#515=ADVANCED_FACE('',(#94),#24,.T.);
#516=ADVANCED_FACE('',(#95),#491,.T.);
#517=ADVANCED_FACE('',(#96,#35),#25,.T.);
#518=ADVANCED_FACE('',(#97,#36,#37,#38),#26,.F.);
#519=CLOSED_SHELL('',(#492,#493,#494,#495,#496,#497,#498,#499,#500,#501,
#502,#503,#504,#505,#506,#507,#508,#509,#510,#511,#512,#513,#514,#515,#516,
#517,#518));
#520=DERIVED_UNIT_ELEMENT(#522,1.);
#521=DERIVED_UNIT_ELEMENT(#1036,3.);
#522=(
MASS_UNIT()
NAMED_UNIT(*)
SI_UNIT($,.GRAM.)
);
#523=DERIVED_UNIT((#520,#521));
#524=MEASURE_REPRESENTATION_ITEM('density measure',
POSITIVE_RATIO_MEASURE(7.85),#523);
#525=PROPERTY_DEFINITION_REPRESENTATION(#530,#527);
#526=PROPERTY_DEFINITION_REPRESENTATION(#531,#528);
#527=REPRESENTATION('material name',(#529),#1033);
#528=REPRESENTATION('density',(#524),#1033);
#529=DESCRIPTIVE_REPRESENTATION_ITEM('Steel','Steel');
#530=PROPERTY_DEFINITION('material property','material name',#1043);
#531=PROPERTY_DEFINITION('material property','density of part',#1043);
#532=DATE_TIME_ROLE('creation_date');
#533=APPLIED_DATE_AND_TIME_ASSIGNMENT(#534,#532,(#1043));
#534=DATE_AND_TIME(#535,#536);
#535=CALENDAR_DATE(2021,3,2);
#536=LOCAL_TIME(10,44,22.,#537);
#537=COORDINATED_UNIVERSAL_TIME_OFFSET(0,0,.BEHIND.);
#538=AXIS2_PLACEMENT_3D('placement',#735,#592,#593);
#539=AXIS2_PLACEMENT_3D('',#736,#594,#595);
#540=AXIS2_PLACEMENT_3D('',#828,#597,#598);
#541=AXIS2_PLACEMENT_3D('',#909,#600,#601);
#542=AXIS2_PLACEMENT_3D('',#911,#602,#603);
#543=AXIS2_PLACEMENT_3D('',#915,#606,#607);
#544=AXIS2_PLACEMENT_3D('',#916,#608,#609);
#545=AXIS2_PLACEMENT_3D('',#919,#611,#612);
#546=AXIS2_PLACEMENT_3D('',#922,#614,#615);
#547=AXIS2_PLACEMENT_3D('',#923,#616,#617);
#548=AXIS2_PLACEMENT_3D('',#924,#618,#619);
#549=AXIS2_PLACEMENT_3D('',#926,#620,#621);
#550=AXIS2_PLACEMENT_3D('',#927,#622,#623);
#551=AXIS2_PLACEMENT_3D('',#930,#625,#626);
#552=AXIS2_PLACEMENT_3D('',#931,#627,#628);
#553=AXIS2_PLACEMENT_3D('',#933,#629,#630);
#554=AXIS2_PLACEMENT_3D('',#934,#631,#632);
#555=AXIS2_PLACEMENT_3D('',#936,#633,#634);
#556=AXIS2_PLACEMENT_3D('',#938,#636,#637);
#557=AXIS2_PLACEMENT_3D('',#940,#638,#639);
#558=AXIS2_PLACEMENT_3D('',#943,#641,#642);
#559=AXIS2_PLACEMENT_3D('',#944,#643,#644);
#560=AXIS2_PLACEMENT_3D('',#945,#645,#646);
#561=AXIS2_PLACEMENT_3D('',#948,#647,#648);
#562=AXIS2_PLACEMENT_3D('',#952,#650,#651);
#563=AXIS2_PLACEMENT_3D('',#954,#653,#654);
#564=AXIS2_PLACEMENT_3D('',#957,#655,#656);
#565=AXIS2_PLACEMENT_3D('',#961,#659,#660);
#566=AXIS2_PLACEMENT_3D('',#962,#661,#662);
#567=AXIS2_PLACEMENT_3D('',#965,#663,#664);
#568=AXIS2_PLACEMENT_3D('',#969,#666,#667);
#569=AXIS2_PLACEMENT_3D('',#971,#669,#670);
#570=AXIS2_PLACEMENT_3D('',#974,#671,#672);
#571=AXIS2_PLACEMENT_3D('',#978,#675,#676);
#572=AXIS2_PLACEMENT_3D('',#979,#677,#678);
#573=AXIS2_PLACEMENT_3D('',#981,#679,#680);
#574=AXIS2_PLACEMENT_3D('',#983,#682,#683);
#575=AXIS2_PLACEMENT_3D('',#985,#684,#685);
#576=AXIS2_PLACEMENT_3D('',#987,#687,#688);
#577=AXIS2_PLACEMENT_3D('',#995,#693,#694);
#578=AXIS2_PLACEMENT_3D('',#997,#695,#696);
#579=AXIS2_PLACEMENT_3D('',#999,#697,#698);
#580=AXIS2_PLACEMENT_3D('',#1001,#700,#701);
#581=AXIS2_PLACEMENT_3D('',#1006,#705,#706);
#582=AXIS2_PLACEMENT_3D('',#1008,#707,#708);
#583=AXIS2_PLACEMENT_3D('',#1010,#710,#711);
#584=AXIS2_PLACEMENT_3D('',#1016,#715,#716);
#585=AXIS2_PLACEMENT_3D('',#1018,#717,#718);
#586=AXIS2_PLACEMENT_3D('',#1020,#719,#720);
#587=AXIS2_PLACEMENT_3D('',#1022,#722,#723);
#588=AXIS2_PLACEMENT_3D('',#1027,#727,#728);
#589=AXIS2_PLACEMENT_3D('',#1028,#729,#730);
#590=AXIS2_PLACEMENT_3D('',#1029,#731,#732);
#591=AXIS2_PLACEMENT_3D('',#1030,#733,#734);
#592=DIRECTION('axis',(0.,0.,1.));
#593=DIRECTION('refdir',(1.,0.,0.));
#594=DIRECTION('center_axis',(-1.,0.,0.));
#595=DIRECTION('ref_axis',(0.,1.,0.));
#596=DIRECTION('',(-1.,0.,0.));
#597=DIRECTION('center_axis',(0.,1.,0.));
#598=DIRECTION('ref_axis',(0.,0.,-1.));
#599=DIRECTION('',(0.,1.,0.));
#600=DIRECTION('center_axis',(0.,0.,1.));
#601=DIRECTION('ref_axis',(-1.,0.,0.));
#602=DIRECTION('center_axis',(0.,0.,1.));
#603=DIRECTION('ref_axis',(-1.,0.,0.));
#604=DIRECTION('',(0.,0.,1.));
#605=DIRECTION('',(0.,0.,1.));
#606=DIRECTION('center_axis',(0.,0.,-1.));
#607=DIRECTION('ref_axis',(-1.,0.,0.));
#608=DIRECTION('center_axis',(0.,0.,1.));
#609=DIRECTION('ref_axis',(-1.,0.,0.));
#610=DIRECTION('',(0.,0.,-1.));
#611=DIRECTION('center_axis',(0.,0.,1.));
#612=DIRECTION('ref_axis',(-1.,0.,0.));
#613=DIRECTION('',(0.,0.,-1.));
#614=DIRECTION('center_axis',(0.,0.,-1.));
#615=DIRECTION('ref_axis',(-1.,0.,0.));
#616=DIRECTION('center_axis',(0.,0.,1.));
#617=DIRECTION('ref_axis',(-1.,0.,0.));
#618=DIRECTION('center_axis',(0.,0.,1.));
#619=DIRECTION('ref_axis',(-1.,0.,0.));
#620=DIRECTION('center_axis',(0.,0.,1.));
#621=DIRECTION('ref_axis',(-1.,0.,0.));
#622=DIRECTION('center_axis',(0.,0.,1.));
#623=DIRECTION('ref_axis',(-1.,0.,0.));
#624=DIRECTION('',(0.,0.,1.));
#625=DIRECTION('center_axis',(0.,0.,-1.));
#626=DIRECTION('ref_axis',(-1.,0.,0.));
#627=DIRECTION('center_axis',(0.,0.,1.));
#628=DIRECTION('ref_axis',(-1.,0.,0.));
#629=DIRECTION('center_axis',(0.,0.,-1.));
#630=DIRECTION('ref_axis',(-1.,0.,0.));
#631=DIRECTION('center_axis',(0.,0.,-1.));
#632=DIRECTION('ref_axis',(-1.,0.,0.));
#633=DIRECTION('center_axis',(0.,0.,-1.));
#634=DIRECTION('ref_axis',(-1.,0.,0.));
#635=DIRECTION('',(0.,0.,-1.));
#636=DIRECTION('center_axis',(0.,0.,-1.));
#637=DIRECTION('ref_axis',(-1.,0.,0.));
#638=DIRECTION('center_axis',(0.,0.,-1.));
#639=DIRECTION('ref_axis',(-1.,0.,0.));
#640=DIRECTION('',(-0.17364817766693,2.12657684957577E-17,0.984807753012208));
#641=DIRECTION('center_axis',(0.,0.,-1.));
#642=DIRECTION('ref_axis',(-1.,0.,0.));
#643=DIRECTION('center_axis',(0.,0.,1.));
#644=DIRECTION('ref_axis',(-1.,0.,0.));
#645=DIRECTION('center_axis',(0.,0.,1.));
#646=DIRECTION('ref_axis',(0.755006221467694,-0.655717626379736,0.));
#647=DIRECTION('center_axis',(0.,0.,1.));
#648=DIRECTION('ref_axis',(0.755006221467694,-0.655717626379736,0.));
#649=DIRECTION('',(0.,0.,1.));
#650=DIRECTION('center_axis',(0.,0.,-1.));
#651=DIRECTION('ref_axis',(0.755006221467694,-0.655717626379736,0.));
#652=DIRECTION('',(0.,0.,1.));
#653=DIRECTION('center_axis',(0.,0.,1.));
#654=DIRECTION('ref_axis',(-1.,0.,0.));
#655=DIRECTION('center_axis',(0.,0.,1.));
#656=DIRECTION('ref_axis',(0.422934941999771,-0.906160049238351,0.));
#657=DIRECTION('',(-0.911924464558073,0.410358100858838,0.));
#658=DIRECTION('',(0.906160049238343,0.422934941999789,0.));
#659=DIRECTION('center_axis',(0.,0.,-1.));
#660=DIRECTION('ref_axis',(-1.,0.,0.));
#661=DIRECTION('center_axis',(0.,0.,1.));
#662=DIRECTION('ref_axis',(-0.718982415944069,0.695028262420479,0.));
#663=DIRECTION('center_axis',(0.,0.,1.));
#664=DIRECTION('ref_axis',(-0.718982415944069,0.695028262420479,0.));
#665=DIRECTION('',(0.,0.,1.));
#666=DIRECTION('center_axis',(0.,0.,-1.));
#667=DIRECTION('ref_axis',(-0.718982415944069,0.695028262420479,0.));
#668=DIRECTION('',(0.,0.,1.));
#669=DIRECTION('center_axis',(0.,0.,1.));
#670=DIRECTION('ref_axis',(-1.,0.,0.));
#671=DIRECTION('center_axis',(0.,0.,1.));
#672=DIRECTION('ref_axis',(-0.415759913254643,0.90947440564894,0.));
#673=DIRECTION('',(0.9086433760834,-0.417573005712488,0.));
#674=DIRECTION('',(-0.909474405648937,-0.415759913254649,0.));
#675=DIRECTION('center_axis',(0.,0.,-1.));
#676=DIRECTION('ref_axis',(-1.,0.,0.));
#677=DIRECTION('center_axis',(0.,0.,1.));
#678=DIRECTION('ref_axis',(1.,0.,0.));
#679=DIRECTION('center_axis',(0.,0.,-1.));
#680=DIRECTION('ref_axis',(1.,0.,0.));
#681=DIRECTION('',(0.,0.,1.));
#682=DIRECTION('center_axis',(0.,0.,1.));
#683=DIRECTION('ref_axis',(1.,0.,0.));
#684=DIRECTION('center_axis',(0.,0.,-1.));
#685=DIRECTION('ref_axis',(1.,0.,0.));
#686=DIRECTION('',(0.,0.,1.));
#687=DIRECTION('center_axis',(0.422934941999789,-0.906160049238343,0.));
#688=DIRECTION('ref_axis',(0.906160049238343,0.422934941999789,0.));
#689=DIRECTION('',(-0.906160049238343,-0.422934941999789,0.));
#690=DIRECTION('',(0.,0.,1.));
#691=DIRECTION('',(0.906160049238343,0.422934941999789,0.));
#692=DIRECTION('',(0.,0.,1.));
#693=DIRECTION('center_axis',(0.,0.,1.));
#694=DIRECTION('ref_axis',(-0.417573005712488,-0.9086433760834,0.));
#695=DIRECTION('center_axis',(0.,0.,1.));
#696=DIRECTION('ref_axis',(-0.417573005712488,-0.9086433760834,0.));
#697=DIRECTION('center_axis',(0.,0.,1.));
#698=DIRECTION('ref_axis',(-0.417573005712488,-0.9086433760834,0.));
#699=DIRECTION('',(0.,0.,1.));
#700=DIRECTION('center_axis',(-0.417573005712488,-0.9086433760834,0.));
#701=DIRECTION('ref_axis',(0.9086433760834,-0.417573005712488,0.));
#702=DIRECTION('',(0.9086433760834,-0.417573005712488,0.));
#703=DIRECTION('',(0.9086433760834,-0.417573005712488,0.));
#704=DIRECTION('',(0.,0.,1.));
#705=DIRECTION('center_axis',(0.,0.,1.));
#706=DIRECTION('ref_axis',(-0.415759913254643,0.90947440564894,0.));
#707=DIRECTION('center_axis',(0.,0.,1.));
#708=DIRECTION('ref_axis',(-0.415759913254643,0.90947440564894,0.));
#709=DIRECTION('',(0.,0.,1.));
#710=DIRECTION('center_axis',(-0.415759913254651,0.909474405648936,0.));
#711=DIRECTION('ref_axis',(-0.909474405648936,-0.415759913254651,0.));
#712=DIRECTION('',(0.909474405648936,0.415759913254651,0.));
#713=DIRECTION('',(-0.909474405648936,-0.415759913254651,0.));
#714=DIRECTION('',(0.,0.,1.));
#715=DIRECTION('center_axis',(0.,0.,1.));
#716=DIRECTION('ref_axis',(0.410358100858841,0.911924464558071,0.));
#717=DIRECTION('center_axis',(0.,0.,1.));
#718=DIRECTION('ref_axis',(0.410358100858841,0.911924464558071,0.));
#719=DIRECTION('center_axis',(0.,0.,1.));
#720=DIRECTION('ref_axis',(0.410358100858841,0.911924464558071,0.));
#721=DIRECTION('',(0.,0.,1.));
#722=DIRECTION('center_axis',(0.410358100858838,0.911924464558073,0.));
#723=DIRECTION('ref_axis',(-0.911924464558073,0.410358100858838,0.));
#724=DIRECTION('',(-0.911924464558073,0.410358100858838,0.));
#725=DIRECTION('',(-0.911924464558073,0.410358100858838,0.));
#726=DIRECTION('',(0.,0.,1.));
#727=DIRECTION('center_axis',(0.,0.,1.));
#728=DIRECTION('ref_axis',(0.422934941999771,-0.906160049238351,0.));
#729=DIRECTION('center_axis',(0.,0.,1.));
#730=DIRECTION('ref_axis',(0.422934941999771,-0.906160049238351,0.));
#731=DIRECTION('center_axis',(0.,0.,1.));
#732=DIRECTION('ref_axis',(1.,0.,0.));
#733=DIRECTION('center_axis',(0.,0.,1.));
#734=DIRECTION('ref_axis',(1.,0.,0.));
#735=CARTESIAN_POINT('',(0.,0.,0.));
#736=CARTESIAN_POINT('Origin',(0.22,-0.0116323060696133,9.87253694544623));
#737=CARTESIAN_POINT('',(5.5,2.09184286284109E-8,10.9102217487378));
#738=CARTESIAN_POINT('',(5.49999999994242,-2.51660467867693E-5,8.83485185988294));
#739=CARTESIAN_POINT('Ctrl Pts',(5.5,2.09210566232132E-8,10.9102217489722));
#740=CARTESIAN_POINT('Ctrl Pts',(5.49999999951608,0.127219233158556,10.9087956362729));
#741=CARTESIAN_POINT('Ctrl Pts',(5.49516746769416,0.261893187400849,10.8825522662839));
#742=CARTESIAN_POINT('Ctrl Pts',(5.47745677966253,0.513691453096924,10.77813038538));
#743=CARTESIAN_POINT('Ctrl Pts',(5.46456591166367,0.630178195945805,10.6983193953045));
#744=CARTESIAN_POINT('Ctrl Pts',(5.44020425234605,0.814116673671642,10.5143952615986));
#745=CARTESIAN_POINT('Ctrl Pts',(5.42713294940532,0.893936915412838,10.3979046227637));
#746=CARTESIAN_POINT('Ctrl Pts',(5.40860464682628,0.999945537542823,10.1423091179653));
#747=CARTESIAN_POINT('Ctrl Pts',(5.40343247188331,1.02611769393039,10.0031769562603));
#748=CARTESIAN_POINT('Ctrl Pts',(5.40343247188331,1.02611769393039,9.7418969346322));
#749=CARTESIAN_POINT('Ctrl Pts',(5.40860464682628,0.999945537542824,9.60276477292718));
#750=CARTESIAN_POINT('Ctrl Pts',(5.42713294940532,0.89393691541284,9.34716926812874));
#751=CARTESIAN_POINT('Ctrl Pts',(5.44020425234605,0.814116673671643,9.2306786292939));
#752=CARTESIAN_POINT('Ctrl Pts',(5.46456591166367,0.630178195945806,9.04675449558798));
#753=CARTESIAN_POINT('Ctrl Pts',(5.47745677966253,0.513691453096924,8.96694350551246));
#754=CARTESIAN_POINT('Ctrl Pts',(5.49516746817004,0.261893180635135,8.86252162180277));
#755=CARTESIAN_POINT('Ctrl Pts',(5.49999999999774,0.127219218459545,8.8362782519016));
#756=CARTESIAN_POINT('Ctrl Pts',(5.5,9.78767067394415E-11,8.83485214168681));
#757=CARTESIAN_POINT('',(5.39896256476261,-1.04938230606961,9.87253694544623));
#758=CARTESIAN_POINT('Ctrl Pts',(5.39896256476261,-1.04938230606961,9.87253694544623));
#759=CARTESIAN_POINT('Ctrl Pts',(5.39896256476261,-1.04938230606961,10.0031817021425));
#760=CARTESIAN_POINT('Ctrl Pts',(5.40425241480458,-1.02320810199002,10.1423098675986));
#761=CARTESIAN_POINT('Ctrl Pts',(5.42324806996992,-0.91721279364275,10.3978816464549));
#762=CARTESIAN_POINT('Ctrl Pts',(5.4366680325551,-0.837408600268892,10.5143534380258));
#763=CARTESIAN_POINT('Ctrl Pts',(5.46182609881652,-0.653505773040111,10.6982709387775));
#764=CARTESIAN_POINT('Ctrl Pts',(5.47521925416654,-0.537026298687024,10.7780910876002));
#765=CARTESIAN_POINT('Ctrl Pts',(5.49428972386567,-0.281431263359205,10.8841078441851));
#766=CARTESIAN_POINT('Ctrl Pts',(5.49971136320066,-0.142289429442787,10.9102869454462));
#767=CARTESIAN_POINT('Ctrl Pts',(5.49999588423718,-0.00776217477774276,
10.9102869454462));
#768=CARTESIAN_POINT('Ctrl Pts',(5.50000000001478,-0.0038845587189456,10.9102652946621));
#769=CARTESIAN_POINT('Ctrl Pts',(5.5,2.09212002930115E-8,10.9102217489722));
#770=CARTESIAN_POINT('',(3.96343244873784,-1.04938230606961,9.87253694544623));
#771=CARTESIAN_POINT('',(0.22,-1.04938230606961,9.87253694544623));
#772=CARTESIAN_POINT('',(4.1,2.08983410866815E-8,10.9102217487382));
#773=CARTESIAN_POINT('Ctrl Pts',(4.1,2.09011107782143E-8,10.9102217489724));
#774=CARTESIAN_POINT('Ctrl Pts',(4.1000000000198,-0.00388440596087609,10.9102652929496));
#775=CARTESIAN_POINT('Ctrl Pts',(4.09999447929559,-0.00776202112015708,
10.9102869454462));
#776=CARTESIAN_POINT('Ctrl Pts',(4.09961198508091,-0.142577934587217,10.9102869454462));
#777=CARTESIAN_POINT('Ctrl Pts',(4.0923160949944,-0.281846036146371,10.8839952907799));
#778=CARTESIAN_POINT('Ctrl Pts',(4.06665923599648,-0.53737404922888,10.7778871807031));
#779=CARTESIAN_POINT('Ctrl Pts',(4.04863165078314,-0.653680403658813,10.6981022257932));
#780=CARTESIAN_POINT('Ctrl Pts',(4.01468250602439,-0.837280631621371,10.514475484408));
#781=CARTESIAN_POINT('Ctrl Pts',(3.99650246900366,-0.917031749477843,10.3981855859987));
#782=CARTESIAN_POINT('Ctrl Pts',(3.9706738865264,-1.02309734928937,10.1427091326588));
#783=CARTESIAN_POINT('Ctrl Pts',(3.96343244873784,-1.04938230606961,10.0034693271911));
#784=CARTESIAN_POINT('Ctrl Pts',(3.96343244873784,-1.04938230606961,9.87253694544623));
#785=CARTESIAN_POINT('',(4.1,2.08983409652509E-8,8.83485214215425));
#786=CARTESIAN_POINT('Ctrl Pts',(4.1,2.09009667906379E-8,8.83485214192001));
#787=CARTESIAN_POINT('Ctrl Pts',(4.09999999935021,0.127464840109836,8.83628100784273));
#788=CARTESIAN_POINT('Ctrl Pts',(4.09349881549747,0.262250335850382,8.8626201088013));
#789=CARTESIAN_POINT('Ctrl Pts',(4.06967939877219,0.513981487844764,8.96711505682779));
#790=CARTESIAN_POINT('Ctrl Pts',(4.05233514029796,0.630301292825179,9.04688337700281));
#791=CARTESIAN_POINT('Ctrl Pts',(4.01947323300624,0.813966544517795,9.23052271691087));
#792=CARTESIAN_POINT('Ctrl Pts',(4.00177316521176,0.893747028367215,9.34684715771937));
#793=CARTESIAN_POINT('Ctrl Pts',(3.97659385981622,0.999836773302726,9.60236719250188));
#794=CARTESIAN_POINT('Ctrl Pts',(3.9695191746864,1.02611769393039,9.74161425486083));
#795=CARTESIAN_POINT('Ctrl Pts',(3.9695191746864,1.02611769393039,10.0034596360316));
#796=CARTESIAN_POINT('Ctrl Pts',(3.97659385981622,0.999836773302727,10.1427066983906));
#797=CARTESIAN_POINT('Ctrl Pts',(4.00177316521176,0.893747028367215,10.3982267331731));
#798=CARTESIAN_POINT('Ctrl Pts',(4.01947323300624,0.813966544517795,10.5145511739816));
#799=CARTESIAN_POINT('Ctrl Pts',(4.05233514029796,0.630301292825179,10.6981905138896));
#800=CARTESIAN_POINT('Ctrl Pts',(4.06967939877219,0.513981487844763,10.7779588340647));
#801=CARTESIAN_POINT('Ctrl Pts',(4.09349881549747,0.262250335850382,10.8824537820912));
#802=CARTESIAN_POINT('Ctrl Pts',(4.09999999935021,0.127464840109836,10.9087928830497));
#803=CARTESIAN_POINT('Ctrl Pts',(4.1,2.09009668600268E-8,10.9102217489725));
#804=CARTESIAN_POINT('Ctrl Pts',(3.96343244873784,-1.04938230606961,9.87253694544623));
#805=CARTESIAN_POINT('Ctrl Pts',(3.96343244873784,-1.04938230606961,9.74160456370137));
#806=CARTESIAN_POINT('Ctrl Pts',(3.9706738865264,-1.02309734928937,9.60236475823369));
#807=CARTESIAN_POINT('Ctrl Pts',(3.99650246900366,-0.917031749477842,9.34688830489377));
#808=CARTESIAN_POINT('Ctrl Pts',(4.01468250602439,-0.837280631621371,9.23059840648445));
#809=CARTESIAN_POINT('Ctrl Pts',(4.04863165078314,-0.653680403658813,9.04697166509926));
#810=CARTESIAN_POINT('Ctrl Pts',(4.06665923599648,-0.53737404922888,8.96718671018935));
#811=CARTESIAN_POINT('Ctrl Pts',(4.0923160949944,-0.281846036146371,8.86107860011254));
#812=CARTESIAN_POINT('Ctrl Pts',(4.09961198508091,-0.142577934587216,8.83478694544623));
#813=CARTESIAN_POINT('Ctrl Pts',(4.09999447929559,-0.00776202112015673,
8.83478694544623));
#814=CARTESIAN_POINT('Ctrl Pts',(4.1000000000198,-0.00388440596087594,8.83480859794288));
#815=CARTESIAN_POINT('Ctrl Pts',(4.1,2.09011107379919E-8,8.83485214192001));
#816=CARTESIAN_POINT('Ctrl Pts',(5.49999999994242,-2.51660467884438E-5,
8.83485185988294));
#817=CARTESIAN_POINT('Ctrl Pts',(5.49999998220652,-0.00390131992694841,
8.83480850273975));
#818=CARTESIAN_POINT('Ctrl Pts',(5.49999586654668,-0.00777053920411561,
8.83478694544623));
#819=CARTESIAN_POINT('Ctrl Pts',(5.49971136320066,-0.142289429442787,8.83478694544623));
#820=CARTESIAN_POINT('Ctrl Pts',(5.49428972386567,-0.281431263359205,8.86096604670738));
#821=CARTESIAN_POINT('Ctrl Pts',(5.47521925416654,-0.537026298687024,8.96698280329229));
#822=CARTESIAN_POINT('Ctrl Pts',(5.46182609881652,-0.653505773040111,9.04680295211497));
#823=CARTESIAN_POINT('Ctrl Pts',(5.4366680325551,-0.837408600268892,9.23072045286668));
#824=CARTESIAN_POINT('Ctrl Pts',(5.42324806996992,-0.917212793642751,9.34719224443757));
#825=CARTESIAN_POINT('Ctrl Pts',(5.40425241480458,-1.02320810199002,9.60276402329385));
#826=CARTESIAN_POINT('Ctrl Pts',(5.39896256476261,-1.04938230606961,9.74189218874992));
#827=CARTESIAN_POINT('Ctrl Pts',(5.39896256476261,-1.04938230606961,9.87253694544623));
#828=CARTESIAN_POINT('Origin',(0.00147055997568923,-0.22,9.52784076575499));
#829=CARTESIAN_POINT('',(0.000736870927727194,-5.49999995063829,8.49009102511403));
#830=CARTESIAN_POINT('',(0.00147055997568928,-5.49999980340485,10.565590765755));
#831=CARTESIAN_POINT('Ctrl Pts',(0.000736870927727021,-5.49999995063829,
8.49009102511403));
#832=CARTESIAN_POINT('Ctrl Pts',(-0.129684312285947,-5.50001742401632,8.49018323288822));
#833=CARTESIAN_POINT('Ctrl Pts',(-0.268533799310943,-5.49492900646563,8.51636080111158));
#834=CARTESIAN_POINT('Ctrl Pts',(-0.523883694906027,-5.47649180272697,8.62226439530519));
#835=CARTESIAN_POINT('Ctrl Pts',(-0.640367188116135,-5.46338163491036,8.70207930526584));
#836=CARTESIAN_POINT('Ctrl Pts',(-0.824290181406641,-5.43867224451692,8.88600046699283));
#837=CARTESIAN_POINT('Ctrl Pts',(-0.904103496276253,-5.42544871174854,9.00248295667208));
#838=CARTESIAN_POINT('Ctrl Pts',(-1.01010638674512,-5.40671637763888,9.25806821961267));
#839=CARTESIAN_POINT('Ctrl Pts',(-1.03627944002431,-5.40149284200052,9.39719867249115));
#840=CARTESIAN_POINT('Ctrl Pts',(-1.03627944002431,-5.40149284200052,9.52784076575499));
#841=CARTESIAN_POINT('Ctrl Pts',(-1.03627944002431,-5.40149284200052,9.65848285901883));
#842=CARTESIAN_POINT('Ctrl Pts',(-1.01010638674512,-5.40671637763888,9.79761331189731));
#843=CARTESIAN_POINT('Ctrl Pts',(-0.904103496276253,-5.42544871174854,10.0531985748379));
#844=CARTESIAN_POINT('Ctrl Pts',(-0.824290181406641,-5.43867224451692,10.1696810645172));
#845=CARTESIAN_POINT('Ctrl Pts',(-0.640367188116136,-5.46338163491036,10.3536022262441));
#846=CARTESIAN_POINT('Ctrl Pts',(-0.523883694906026,-5.47649180272697,10.4334171362048));
#847=CARTESIAN_POINT('Ctrl Pts',(-0.268294581227191,-5.49494627889308,10.5394199434989));
#848=CARTESIAN_POINT('Ctrl Pts',(-0.129163470287903,-5.50003473161998,10.565590765755));
#849=CARTESIAN_POINT('Ctrl Pts',(0.00147055997568896,-5.49999980340485,
10.565590765755));
#850=CARTESIAN_POINT('Ctrl Pts',(0.00147055997568903,-5.49999980340485,
10.565590765755));
#851=CARTESIAN_POINT('Ctrl Pts',(0.13210976843829,-5.49996487380519,10.565590765755));
#852=CARTESIAN_POINT('Ctrl Pts',(0.271243277066683,-5.49480164534599,10.5394180869864));
#853=CARTESIAN_POINT('Ctrl Pts',(0.526833693747468,-5.47620893475356,10.4334121681945));
#854=CARTESIAN_POINT('Ctrl Pts',(0.643316268080315,-5.46303526779601,10.3535961003873));
#855=CARTESIAN_POINT('Ctrl Pts',(0.827234754443457,-5.43822519557061,10.1696757771945));
#856=CARTESIAN_POINT('Ctrl Pts',(0.907046040484538,-5.42495758519861,10.0531956701793));
#857=CARTESIAN_POINT('Ctrl Pts',(1.01304724782902,-5.40616616832639,9.79761340666181));
#858=CARTESIAN_POINT('Ctrl Pts',(1.03922055997569,-5.40092775620299,9.65848345898689));
#859=CARTESIAN_POINT('Ctrl Pts',(1.03922055997569,-5.40092775620299,9.39719807252309));
#860=CARTESIAN_POINT('Ctrl Pts',(1.01304724782902,-5.40616616832639,9.25806812484818));
#861=CARTESIAN_POINT('Ctrl Pts',(0.907046040484539,-5.42495758519861,9.00248586133072));
#862=CARTESIAN_POINT('Ctrl Pts',(0.827234754443458,-5.43822519557061,8.88600575431544));
#863=CARTESIAN_POINT('Ctrl Pts',(0.643316268080316,-5.46303526779601,8.70208543112264));
#864=CARTESIAN_POINT('Ctrl Pts',(0.526833693747469,-5.47620893475355,8.62226936331552));
#865=CARTESIAN_POINT('Ctrl Pts',(0.271243277066684,-5.49480164534599,8.51626344452362));
#866=CARTESIAN_POINT('Ctrl Pts',(0.13210976843829,-5.4999648738052,8.49009076575499));
#867=CARTESIAN_POINT('Ctrl Pts',(0.00122602669379341,-5.49999986878682,
8.49009076575499));
#868=CARTESIAN_POINT('Ctrl Pts',(0.000981463634181639,-5.49999991786861,
8.49009085218699));
#869=CARTESIAN_POINT('Ctrl Pts',(0.000736870927727015,-5.49999995063829,
8.49009102511403));
#870=CARTESIAN_POINT('',(0.00147055997568923,-4.09999973627479,10.565590765755));
#871=CARTESIAN_POINT('',(0.00147055997568936,-0.22,10.565590765755));
#872=CARTESIAN_POINT('',(-1.03627944002431,-3.96687848593613,9.52784076575499));
#873=CARTESIAN_POINT('Ctrl Pts',(-1.03627944002431,-3.96687848593613,9.52784076575499));
#874=CARTESIAN_POINT('Ctrl Pts',(-1.03627944002431,-3.96687848593613,9.39691383438282));
#875=CARTESIAN_POINT('Ctrl Pts',(-1.00999675481886,-3.9740259046433,9.25766987465539));
#876=CARTESIAN_POINT('Ctrl Pts',(-0.903917402600983,-3.99948853994314,9.00216864745246));
#877=CARTESIAN_POINT('Ctrl Pts',(-0.824149590616915,-4.01739809761746,8.88585913741948));
#878=CARTESIAN_POINT('Ctrl Pts',(-0.640512571872174,-4.05073457048177,8.70222542764958));
#879=CARTESIAN_POINT('Ctrl Pts',(-0.524198771406855,-4.06837706701981,8.62244998867675));
#880=CARTESIAN_POINT('Ctrl Pts',(-0.268681524250229,-4.09320003772892,8.5163673002592));
#881=CARTESIAN_POINT('Ctrl Pts',(-0.129433007316918,-4.10004668787458,8.49009076575499));
#882=CARTESIAN_POINT('Ctrl Pts',(0.13238355580743,-4.09995278129324,8.49009076575499));
#883=CARTESIAN_POINT('Ctrl Pts',(0.271636450513449,-4.09300532403904,8.51637068957574));
#884=CARTESIAN_POINT('Ctrl Pts',(0.527156066587445,-4.0679952588934,8.62245904702281));
#885=CARTESIAN_POINT('Ctrl Pts',(0.643468166658433,-4.05026637645269,8.70223658894587));
#886=CARTESIAN_POINT('Ctrl Pts',(0.827096965150812,-4.01679245519243,8.88586870602849));
#887=CARTESIAN_POINT('Ctrl Pts',(0.906861064715395,-3.99882221983079,9.0021738492456));
#888=CARTESIAN_POINT('Ctrl Pts',(1.01293736452763,-3.97327750301993,9.25766956693231));
#889=CARTESIAN_POINT('Ctrl Pts',(1.03922055997569,-3.96610900351009,9.39691260925436));
#890=CARTESIAN_POINT('Ctrl Pts',(1.03922055997569,-3.96610900351009,9.65876892225562));
#891=CARTESIAN_POINT('Ctrl Pts',(1.01293736452763,-3.97327750301993,9.79801196457767));
#892=CARTESIAN_POINT('Ctrl Pts',(0.906861064715396,-3.99882221983079,10.0535076822644));
#893=CARTESIAN_POINT('Ctrl Pts',(0.827096965150812,-4.01679245519243,10.1698128254815));
#894=CARTESIAN_POINT('Ctrl Pts',(0.643468166658432,-4.05026637645269,10.3534449425641));
#895=CARTESIAN_POINT('Ctrl Pts',(0.527156066587444,-4.0679952588934,10.4332224844872));
#896=CARTESIAN_POINT('Ctrl Pts',(0.271636450513448,-4.09300532403904,10.5393108419342));
#897=CARTESIAN_POINT('Ctrl Pts',(0.13238355580743,-4.09995278129324,10.565590765755));
#898=CARTESIAN_POINT('Ctrl Pts',(0.0014705599756891,-4.09999973627479,10.565590765755));
#899=CARTESIAN_POINT('Ctrl Pts',(0.00147055997568923,-4.09999973627479,
10.565590765755));
#900=CARTESIAN_POINT('Ctrl Pts',(-0.129433007316918,-4.10004668787458,10.565590765755));
#901=CARTESIAN_POINT('Ctrl Pts',(-0.268681524250229,-4.09320003772892,10.5393142312508));
#902=CARTESIAN_POINT('Ctrl Pts',(-0.524198771406855,-4.06837706701981,10.4332315428332));
#903=CARTESIAN_POINT('Ctrl Pts',(-0.640512571872174,-4.05073457048177,10.3534561038604));
#904=CARTESIAN_POINT('Ctrl Pts',(-0.824149590616914,-4.01739809761746,10.1698223940905));
#905=CARTESIAN_POINT('Ctrl Pts',(-0.903917402600982,-3.99948853994314,10.0535128840575));
#906=CARTESIAN_POINT('Ctrl Pts',(-1.00999675481886,-3.9740259046433,9.79801165685459));
#907=CARTESIAN_POINT('Ctrl Pts',(-1.03627944002431,-3.96687848593613,9.65876769712716));
#908=CARTESIAN_POINT('Ctrl Pts',(-1.03627944002431,-3.96687848593613,9.52784076575499));
#909=CARTESIAN_POINT('Origin',(0.,0.,7.5));
#910=CARTESIAN_POINT('',(4.1,5.02105187650415E-16,0.));
#911=CARTESIAN_POINT('Origin',(0.,0.,0.));
#912=CARTESIAN_POINT('',(4.1,5.02105187650415E-16,7.5));
#913=CARTESIAN_POINT('',(4.1,5.02105187650415E-16,11.));
#914=CARTESIAN_POINT('',(4.1,5.02105187650415E-16,7.5));
#915=CARTESIAN_POINT('Origin',(0.,0.,11.));
#916=CARTESIAN_POINT('Origin',(0.,0.,7.5));
#917=CARTESIAN_POINT('',(5.5,6.73555739531044E-16,11.));
#918=CARTESIAN_POINT('',(5.5,6.73555739531044E-16,7.5));
#919=CARTESIAN_POINT('Origin',(0.,0.,11.));
#920=CARTESIAN_POINT('',(5.5,6.73555739531044E-16,7.5));
#921=CARTESIAN_POINT('',(5.5,6.73555739531044E-16,7.5));
#922=CARTESIAN_POINT('Origin',(0.,0.,7.5));
#923=CARTESIAN_POINT('Origin',(0.,0.,11.));
#924=CARTESIAN_POINT('Origin',(0.,0.,7.5));
#925=CARTESIAN_POINT('',(10.,1.22464679914735E-15,7.5));
#926=CARTESIAN_POINT('Origin',(0.,0.,7.5));
#927=CARTESIAN_POINT('Origin',(0.,0.,7.5));
#928=CARTESIAN_POINT('',(10.,1.22464679914735E-15,7.7));
#929=CARTESIAN_POINT('',(10.,1.22464679914735E-15,7.5));
#930=CARTESIAN_POINT('Origin',(0.,0.,7.7));
#931=CARTESIAN_POINT('Origin',(0.,0.,7.7));
#932=CARTESIAN_POINT('',(11.3609977945285,1.39132095841895E-15,7.7));
#933=CARTESIAN_POINT('Origin',(0.,0.,7.7));
#934=CARTESIAN_POINT('Origin',(0.,0.,8.5));
#935=CARTESIAN_POINT('',(11.3609977945285,1.39132095841895E-15,8.5));
#936=CARTESIAN_POINT('Origin',(0.,0.,8.5));
#937=CARTESIAN_POINT('',(11.3609977945285,-1.39132095841895E-15,8.5));
#938=CARTESIAN_POINT('Origin',(0.,0.,3.6));
#939=CARTESIAN_POINT('',(13.425,1.64408832785532E-15,3.6));
#940=CARTESIAN_POINT('Origin',(0.,0.,3.6));
#941=CARTESIAN_POINT('',(12.5609977945285,1.53827857431663E-15,8.5));
#942=CARTESIAN_POINT('',(13.425,-1.64408832785532E-15,3.6));
#943=CARTESIAN_POINT('Origin',(0.,0.,8.5));
#944=CARTESIAN_POINT('Origin',(0.,0.,8.5));
#945=CARTESIAN_POINT('Origin',(0.,0.,3.6));
#946=CARTESIAN_POINT('',(11.1576830843442,-9.69036977435897,3.6));
#947=CARTESIAN_POINT('',(11.0225528388364,9.84380450280942,3.6));
#948=CARTESIAN_POINT('Origin',(0.,0.,3.6));
#949=CARTESIAN_POINT('',(11.1576830843442,-9.69036977435897,4.));
#950=CARTESIAN_POINT('',(11.1576830843442,-9.69036977435897,3.6));
#951=CARTESIAN_POINT('',(11.0225528388364,9.84380450280942,4.));
#952=CARTESIAN_POINT('Origin',(0.,0.,4.));
#953=CARTESIAN_POINT('',(11.0225528388364,9.84380450280942,3.6));
#954=CARTESIAN_POINT('Origin',(17.511280894573,0.0767173642252261,4.));
#955=CARTESIAN_POINT('',(20.5376186023082,-5.31244284237123,4.));
#956=CARTESIAN_POINT('',(20.4621575554625,5.59606424040727,4.));
#957=CARTESIAN_POINT('Origin',(18.0000089503096,0.124517453058832,4.));
#958=CARTESIAN_POINT('',(20.4621575554625,5.59606424040727,4.));
#959=CARTESIAN_POINT('',(5.70962171699715,-12.2331606647176,4.));
#960=CARTESIAN_POINT('',(15.5000089503096,0.124517453058832,4.));
#961=CARTESIAN_POINT('Origin',(18.0000089503096,0.124517453058832,4.));
#962=CARTESIAN_POINT('Origin',(0.,0.,3.6));
#963=CARTESIAN_POINT('',(-10.425245031189,10.0779098050969,3.6));
#964=CARTESIAN_POINT('',(-10.4453243842442,-10.0570969224679,3.6));
#965=CARTESIAN_POINT('Origin',(0.,0.,3.6));
#966=CARTESIAN_POINT('',(-10.425245031189,10.0779098050969,4.));
#967=CARTESIAN_POINT('',(-10.425245031189,10.0779098050969,3.6));
#968=CARTESIAN_POINT('',(-10.4453243842442,-10.0570969224679,4.));
#969=CARTESIAN_POINT('Origin',(0.,0.,4.));
#970=CARTESIAN_POINT('',(-10.4453243842442,-10.0570969224679,3.6));
#971=CARTESIAN_POINT('Origin',(-17.2126180404397,0.0104064413145211,4.));
#972=CARTESIAN_POINT('',(-20.4945505292182,5.47479667250905,4.));
#973=CARTESIAN_POINT('',(-20.5054290839652,-5.43391001788495,4.));
#974=CARTESIAN_POINT('Origin',(-17.9999910496904,0.0179502386154544,4.));
#975=CARTESIAN_POINT('',(-20.5054290839652,-5.43391001788495,4.));
#976=CARTESIAN_POINT('',(-5.61276081088861,12.2779035702253,4.));
#977=CARTESIAN_POINT('',(-20.4999910496904,0.0179502386154541,4.));
#978=CARTESIAN_POINT('Origin',(-17.9999910496904,0.0179502386154544,4.));
#979=CARTESIAN_POINT('Origin',(-17.9999910496904,0.0179502386154544,0.));
#980=CARTESIAN_POINT('',(-20.4999910496904,0.0179502386154541,0.));
#981=CARTESIAN_POINT('Origin',(-17.9999910496904,0.0179502386154544,0.));
#982=CARTESIAN_POINT('',(-20.4999910496904,0.0179502386154541,0.));
#983=CARTESIAN_POINT('Origin',(18.0000089503096,0.124517453058832,0.));
#984=CARTESIAN_POINT('',(15.5000089503096,0.124517453058832,0.));
#985=CARTESIAN_POINT('Origin',(18.0000089503096,0.124517453058832,0.));
#986=CARTESIAN_POINT('',(15.5000089503096,0.124517453058832,0.));
#987=CARTESIAN_POINT('Origin',(5.70962171699715,-12.2331606647176,0.));
#988=CARTESIAN_POINT('',(20.5376186023082,-5.31244284237123,0.));
#989=CARTESIAN_POINT('',(5.70962171699715,-12.2331606647176,0.));
#990=CARTESIAN_POINT('',(20.5376186023082,-5.31244284237123,0.));
#991=CARTESIAN_POINT('',(20.5376186023082,-5.31244284237123,0.));
#992=CARTESIAN_POINT('',(5.70962171699715,-12.2331606647176,3.6));
#993=CARTESIAN_POINT('',(20.5376186023082,-5.31244284237123,3.6));
#994=CARTESIAN_POINT('',(5.70962171699715,-12.2331606647176,0.));
#995=CARTESIAN_POINT('Origin',(0.,0.,0.));
#996=CARTESIAN_POINT('',(-5.63723557711859,-12.2666855771259,0.));
#997=CARTESIAN_POINT('Origin',(0.,0.,0.));
#998=CARTESIAN_POINT('',(-5.63723557711859,-12.2666855771259,3.6));
#999=CARTESIAN_POINT('Origin',(0.,0.,3.6));
#1000=CARTESIAN_POINT('',(-5.63723557711859,-12.2666855771259,0.));
#1001=CARTESIAN_POINT('Origin',(-20.5054290839652,-5.43391001788495,0.));
#1002=CARTESIAN_POINT('',(-20.5054290839652,-5.43391001788495,0.));
#1003=CARTESIAN_POINT('',(-20.5054290839652,-5.43391001788495,0.));
#1004=CARTESIAN_POINT('',(-20.5054290839652,-5.43391001788495,3.6));
#1005=CARTESIAN_POINT('',(-20.5054290839652,-5.43391001788495,0.));
#1006=CARTESIAN_POINT('Origin',(-17.9999910496904,0.0179502386154544,0.));
#1007=CARTESIAN_POINT('',(-20.4945505292182,5.47479667250905,0.));
#1008=CARTESIAN_POINT('Origin',(-17.9999910496904,0.0179502386154544,0.));
#1009=CARTESIAN_POINT('',(-20.4945505292182,5.47479667250905,0.));
#1010=CARTESIAN_POINT('Origin',(-5.61276081088864,12.2779035702253,0.));
#1011=CARTESIAN_POINT('',(-5.61276081088862,12.2779035702253,0.));
#1012=CARTESIAN_POINT('',(-20.4945505292182,5.47479667250905,0.));
#1013=CARTESIAN_POINT('',(-5.61276081088862,12.2779035702253,3.6));
#1014=CARTESIAN_POINT('',(-20.4945505292182,5.47479667250905,3.6));
#1015=CARTESIAN_POINT('',(-5.61276081088862,12.2779035702253,0.));
#1016=CARTESIAN_POINT('Origin',(0.,0.,0.));
#1017=CARTESIAN_POINT('',(5.53983436159432,12.3109802715339,0.));
#1018=CARTESIAN_POINT('Origin',(0.,0.,0.));
#1019=CARTESIAN_POINT('',(5.53983436159432,12.3109802715339,3.6));
#1020=CARTESIAN_POINT('Origin',(0.,0.,3.6));
#1021=CARTESIAN_POINT('',(5.53983436159432,12.3109802715339,0.));
#1022=CARTESIAN_POINT('Origin',(20.4621575554625,5.59606424040727,0.));
#1023=CARTESIAN_POINT('',(20.4621575554625,5.59606424040727,0.));
#1024=CARTESIAN_POINT('',(20.4621575554625,5.59606424040727,0.));
#1025=CARTESIAN_POINT('',(20.4621575554625,5.59606424040727,3.6));
#1026=CARTESIAN_POINT('',(20.4621575554625,5.59606424040727,0.));
#1027=CARTESIAN_POINT('Origin',(18.0000089503096,0.124517453058832,0.));
#1028=CARTESIAN_POINT('Origin',(18.0000089503096,0.124517453058832,0.));
#1029=CARTESIAN_POINT('Origin',(8.95030961789445E-6,-4.66293670342566E-14,
3.6));
#1030=CARTESIAN_POINT('Origin',(8.95030961789445E-6,-4.66293670342566E-14,
0.));
#1031=UNCERTAINTY_MEASURE_WITH_UNIT(LENGTH_MEASURE(0.01),#1035,
'DISTANCE_ACCURACY_VALUE',
'Maximum model space distance between geometric entities at asserted c
onnectivities');
#1032=UNCERTAINTY_MEASURE_WITH_UNIT(LENGTH_MEASURE(0.01),#1035,
'DISTANCE_ACCURACY_VALUE',
'Maximum model space distance between geometric entities at asserted c
onnectivities');
#1033=(
GEOMETRIC_REPRESENTATION_CONTEXT(3)
GLOBAL_UNCERTAINTY_ASSIGNED_CONTEXT((#1031))
GLOBAL_UNIT_ASSIGNED_CONTEXT((#1035,#1037,#1038))
REPRESENTATION_CONTEXT('','3D')
);
#1034=(
GEOMETRIC_REPRESENTATION_CONTEXT(3)
GLOBAL_UNCERTAINTY_ASSIGNED_CONTEXT((#1032))
GLOBAL_UNIT_ASSIGNED_CONTEXT((#1035,#1037,#1038))
REPRESENTATION_CONTEXT('','3D')
);
#1035=(
LENGTH_UNIT()
NAMED_UNIT(*)
SI_UNIT(.MILLI.,.METRE.)
);
#1036=(
LENGTH_UNIT()
NAMED_UNIT(*)
SI_UNIT(.CENTI.,.METRE.)
);
#1037=(
NAMED_UNIT(*)
PLANE_ANGLE_UNIT()
SI_UNIT($,.RADIAN.)
);
#1038=(
NAMED_UNIT(*)
SI_UNIT($,.STERADIAN.)
SOLID_ANGLE_UNIT()
);
#1039=SHAPE_DEFINITION_REPRESENTATION(#1040,#1041);
#1040=PRODUCT_DEFINITION_SHAPE('',$,#1043);
#1041=SHAPE_REPRESENTATION('',(#538),#1033);
#1042=PRODUCT_DEFINITION_CONTEXT('part definition',#1047,'design');
#1043=PRODUCT_DEFINITION('FlangedBearing8mm','FlangedBearing8mm',#1044,
#1042);
#1044=PRODUCT_DEFINITION_FORMATION('',$,#1049);
#1045=PRODUCT_RELATED_PRODUCT_CATEGORY('FlangedBearing8mm',
'FlangedBearing8mm',(#1049));
#1046=APPLICATION_PROTOCOL_DEFINITION('international standard',
'automotive_design',2009,#1047);
#1047=APPLICATION_CONTEXT(
'Core Data for Automotive Mechanical Design Process');
#1048=PRODUCT_CONTEXT('part definition',#1047,'mechanical');
#1049=PRODUCT('FlangedBearing8mm','FlangedBearing8mm',$,(#1048));
#1050=PRESENTATION_STYLE_ASSIGNMENT((#1054));
#1051=PRESENTATION_STYLE_ASSIGNMENT((#1055));
#1052=PRESENTATION_STYLE_ASSIGNMENT((#1056));
#1053=PRESENTATION_STYLE_ASSIGNMENT((#1057));
#1054=SURFACE_STYLE_USAGE(.BOTH.,#1066);
#1055=SURFACE_STYLE_USAGE(.BOTH.,#1067);
#1056=SURFACE_STYLE_USAGE(.BOTH.,#1068);
#1057=SURFACE_STYLE_USAGE(.BOTH.,#1069);
#1058=SURFACE_STYLE_RENDERING_WITH_PROPERTIES($,#1082,(#1062));
#1059=SURFACE_STYLE_RENDERING_WITH_PROPERTIES($,#1083,(#1063));
#1060=SURFACE_STYLE_RENDERING_WITH_PROPERTIES($,#1084,(#1064));
#1061=SURFACE_STYLE_RENDERING_WITH_PROPERTIES($,#1085,(#1065));
#1062=SURFACE_STYLE_TRANSPARENT(0.);
#1063=SURFACE_STYLE_TRANSPARENT(0.);
#1064=SURFACE_STYLE_TRANSPARENT(0.);
#1065=SURFACE_STYLE_TRANSPARENT(0.);
#1066=SURFACE_SIDE_STYLE('',(#1070,#1058));
#1067=SURFACE_SIDE_STYLE('',(#1071,#1059));
#1068=SURFACE_SIDE_STYLE('',(#1072,#1060));
#1069=SURFACE_SIDE_STYLE('',(#1073,#1061));
#1070=SURFACE_STYLE_FILL_AREA(#1074);
#1071=SURFACE_STYLE_FILL_AREA(#1075);
#1072=SURFACE_STYLE_FILL_AREA(#1076);
#1073=SURFACE_STYLE_FILL_AREA(#1077);
#1074=FILL_AREA_STYLE('',(#1078));
#1075=FILL_AREA_STYLE('',(#1079));
#1076=FILL_AREA_STYLE('',(#1080));
#1077=FILL_AREA_STYLE('',(#1081));
#1078=FILL_AREA_STYLE_COLOUR('',#1082);
#1079=FILL_AREA_STYLE_COLOUR('',#1083);
#1080=FILL_AREA_STYLE_COLOUR('',#1084);
#1081=FILL_AREA_STYLE_COLOUR('',#1085);
#1082=COLOUR_RGB('',0.749019607843137,0.749019607843137,0.749019607843137);
#1083=COLOUR_RGB('',0.627450980392157,0.627450980392157,0.627450980392157);
#1084=COLOUR_RGB('',0.96078431372549,0.96078431372549,0.964705882352941);
#1085=COLOUR_RGB('',0.0980392156862745,0.0980392156862745,0.0980392156862745);
ENDSEC;
END-ISO-10303-21;
