ISO-10303-21;
HEADER;
/* Generated by software containing ST-Developer
 * from STEP Tools, Inc. (www.steptools.com) 
 */

FILE_DESCRIPTION(
/* description */ (''),
/* implementation_level */ '2;1');

FILE_NAME(
/* name */ 
'I:\\ASU_FOE\\graduation project\\quadcopter\\matlab xml\\231123\\\\ga
rd1_ipt_e571afd1.STEP',
/* time_stamp */ '2023-11-23T19:53:37+02:00',
/* author */ ('M'),
/* organization */ (''),
/* preprocessor_version */ 'ST-DEVELOPER v18.1',
/* originating_system */ 'Autodesk Inventor 2021',
/* authorisation */ '');

FILE_SCHEMA (('AUTOMOTIVE_DESIGN { 1 0 10303 214 3 1 1 }'));
ENDSEC;

DATA;
#10=MECHANICAL_DESIGN_GEOMETRIC_PRESENTATION_REPRESENTATION('',(#13),#306);
#11=SHAPE_REPRESENTATION_RELATIONSHIP('SRR','None',#313,#12);
#12=ADVANCED_BREP_SHAPE_REPRESENTATION('',(#14),#305);
#13=STYLED_ITEM('',(#322),#14);
#14=MANIFOLD_SOLID_BREP('Solid1',#176);
#15=FACE_BOUND('',#44,.T.);
#16=FACE_BOUND('',#45,.T.);
#17=FACE_BOUND('',#46,.T.);
#18=FACE_BOUND('',#48,.T.);
#19=FACE_BOUND('',#49,.T.);
#20=FACE_BOUND('',#50,.T.);
#21=PLANE('',#205);
#22=PLANE('',#206);
#23=PLANE('',#207);
#24=PLANE('',#208);
#25=PLANE('',#209);
#26=PLANE('',#210);
#27=FACE_OUTER_BOUND('',#36,.T.);
#28=FACE_OUTER_BOUND('',#37,.T.);
#29=FACE_OUTER_BOUND('',#38,.T.);
#30=FACE_OUTER_BOUND('',#39,.T.);
#31=FACE_OUTER_BOUND('',#40,.T.);
#32=FACE_OUTER_BOUND('',#41,.T.);
#33=FACE_OUTER_BOUND('',#42,.T.);
#34=FACE_OUTER_BOUND('',#43,.T.);
#35=FACE_OUTER_BOUND('',#47,.T.);
#36=EDGE_LOOP('',(#122,#123,#124,#125));
#37=EDGE_LOOP('',(#126,#127,#128,#129));
#38=EDGE_LOOP('',(#130,#131,#132,#133));
#39=EDGE_LOOP('',(#134,#135,#136,#137));
#40=EDGE_LOOP('',(#138,#139,#140,#141));
#41=EDGE_LOOP('',(#142,#143,#144,#145));
#42=EDGE_LOOP('',(#146,#147,#148,#149));
#43=EDGE_LOOP('',(#150,#151,#152,#153));
#44=EDGE_LOOP('',(#154));
#45=EDGE_LOOP('',(#155));
#46=EDGE_LOOP('',(#156));
#47=EDGE_LOOP('',(#157,#158,#159,#160));
#48=EDGE_LOOP('',(#161));
#49=EDGE_LOOP('',(#162));
#50=EDGE_LOOP('',(#163));
#51=LINE('',#263,#66);
#52=LINE('',#269,#67);
#53=LINE('',#275,#68);
#54=LINE('',#280,#69);
#55=LINE('',#282,#70);
#56=LINE('',#284,#71);
#57=LINE('',#285,#72);
#58=LINE('',#288,#73);
#59=LINE('',#290,#74);
#60=LINE('',#291,#75);
#61=LINE('',#294,#76);
#62=LINE('',#296,#77);
#63=LINE('',#297,#78);
#64=LINE('',#299,#79);
#65=LINE('',#300,#80);
#66=VECTOR('',#217,4.);
#67=VECTOR('',#224,2.50000000000009);
#68=VECTOR('',#231,2.50000000000009);
#69=VECTOR('',#236,10.);
#70=VECTOR('',#237,10.);
#71=VECTOR('',#238,10.);
#72=VECTOR('',#239,10.);
#73=VECTOR('',#242,10.);
#74=VECTOR('',#243,10.);
#75=VECTOR('',#244,10.);
#76=VECTOR('',#247,10.);
#77=VECTOR('',#248,10.);
#78=VECTOR('',#249,10.);
#79=VECTOR('',#252,10.);
#80=VECTOR('',#253,10.);
#81=CIRCLE('',#197,4.);
#82=CIRCLE('',#198,4.);
#83=CIRCLE('',#200,2.50000000000009);
#84=CIRCLE('',#201,2.50000000000009);
#85=CIRCLE('',#203,2.50000000000009);
#86=CIRCLE('',#204,2.50000000000009);
#87=VERTEX_POINT('',#260);
#88=VERTEX_POINT('',#262);
#89=VERTEX_POINT('',#266);
#90=VERTEX_POINT('',#268);
#91=VERTEX_POINT('',#272);
#92=VERTEX_POINT('',#274);
#93=VERTEX_POINT('',#278);
#94=VERTEX_POINT('',#279);
#95=VERTEX_POINT('',#281);
#96=VERTEX_POINT('',#283);
#97=VERTEX_POINT('',#287);
#98=VERTEX_POINT('',#289);
#99=VERTEX_POINT('',#293);
#100=VERTEX_POINT('',#295);
#101=EDGE_CURVE('',#87,#87,#81,.T.);
#102=EDGE_CURVE('',#87,#88,#51,.T.);
#103=EDGE_CURVE('',#88,#88,#82,.T.);
#104=EDGE_CURVE('',#89,#89,#83,.T.);
#105=EDGE_CURVE('',#89,#90,#52,.T.);
#106=EDGE_CURVE('',#90,#90,#84,.T.);
#107=EDGE_CURVE('',#91,#91,#85,.T.);
#108=EDGE_CURVE('',#91,#92,#53,.T.);
#109=EDGE_CURVE('',#92,#92,#86,.T.);
#110=EDGE_CURVE('',#93,#94,#54,.T.);
#111=EDGE_CURVE('',#94,#95,#55,.T.);
#112=EDGE_CURVE('',#96,#95,#56,.T.);
#113=EDGE_CURVE('',#93,#96,#57,.T.);
#114=EDGE_CURVE('',#97,#93,#58,.T.);
#115=EDGE_CURVE('',#98,#96,#59,.T.);
#116=EDGE_CURVE('',#97,#98,#60,.T.);
#117=EDGE_CURVE('',#99,#97,#61,.T.);
#118=EDGE_CURVE('',#100,#98,#62,.T.);
#119=EDGE_CURVE('',#99,#100,#63,.T.);
#120=EDGE_CURVE('',#94,#99,#64,.T.);
#121=EDGE_CURVE('',#95,#100,#65,.T.);
#122=ORIENTED_EDGE('',*,*,#101,.F.);
#123=ORIENTED_EDGE('',*,*,#102,.T.);
#124=ORIENTED_EDGE('',*,*,#103,.T.);
#125=ORIENTED_EDGE('',*,*,#102,.F.);
#126=ORIENTED_EDGE('',*,*,#104,.F.);
#127=ORIENTED_EDGE('',*,*,#105,.T.);
#128=ORIENTED_EDGE('',*,*,#106,.T.);
#129=ORIENTED_EDGE('',*,*,#105,.F.);
#130=ORIENTED_EDGE('',*,*,#107,.F.);
#131=ORIENTED_EDGE('',*,*,#108,.T.);
#132=ORIENTED_EDGE('',*,*,#109,.T.);
#133=ORIENTED_EDGE('',*,*,#108,.F.);
#134=ORIENTED_EDGE('',*,*,#110,.T.);
#135=ORIENTED_EDGE('',*,*,#111,.T.);
#136=ORIENTED_EDGE('',*,*,#112,.F.);
#137=ORIENTED_EDGE('',*,*,#113,.F.);
#138=ORIENTED_EDGE('',*,*,#114,.T.);
#139=ORIENTED_EDGE('',*,*,#113,.T.);
#140=ORIENTED_EDGE('',*,*,#115,.F.);
#141=ORIENTED_EDGE('',*,*,#116,.F.);
#142=ORIENTED_EDGE('',*,*,#117,.T.);
#143=ORIENTED_EDGE('',*,*,#116,.T.);
#144=ORIENTED_EDGE('',*,*,#118,.F.);
#145=ORIENTED_EDGE('',*,*,#119,.F.);
#146=ORIENTED_EDGE('',*,*,#120,.T.);
#147=ORIENTED_EDGE('',*,*,#119,.T.);
#148=ORIENTED_EDGE('',*,*,#121,.F.);
#149=ORIENTED_EDGE('',*,*,#111,.F.);
#150=ORIENTED_EDGE('',*,*,#121,.T.);
#151=ORIENTED_EDGE('',*,*,#118,.T.);
#152=ORIENTED_EDGE('',*,*,#115,.T.);
#153=ORIENTED_EDGE('',*,*,#112,.T.);
#154=ORIENTED_EDGE('',*,*,#107,.T.);
#155=ORIENTED_EDGE('',*,*,#104,.T.);
#156=ORIENTED_EDGE('',*,*,#101,.T.);
#157=ORIENTED_EDGE('',*,*,#120,.F.);
#158=ORIENTED_EDGE('',*,*,#110,.F.);
#159=ORIENTED_EDGE('',*,*,#114,.F.);
#160=ORIENTED_EDGE('',*,*,#117,.F.);
#161=ORIENTED_EDGE('',*,*,#109,.F.);
#162=ORIENTED_EDGE('',*,*,#106,.F.);
#163=ORIENTED_EDGE('',*,*,#103,.F.);
#164=CYLINDRICAL_SURFACE('',#196,4.);
#165=CYLINDRICAL_SURFACE('',#199,2.50000000000009);
#166=CYLINDRICAL_SURFACE('',#202,2.50000000000009);
#167=ADVANCED_FACE('',(#27),#164,.F.);
#168=ADVANCED_FACE('',(#28),#165,.F.);
#169=ADVANCED_FACE('',(#29),#166,.F.);
#170=ADVANCED_FACE('',(#30),#21,.T.);
#171=ADVANCED_FACE('',(#31),#22,.T.);
#172=ADVANCED_FACE('',(#32),#23,.T.);
#173=ADVANCED_FACE('',(#33),#24,.T.);
#174=ADVANCED_FACE('',(#34,#15,#16,#17),#25,.T.);
#175=ADVANCED_FACE('',(#35,#18,#19,#20),#26,.F.);
#176=CLOSED_SHELL('',(#167,#168,#169,#170,#171,#172,#173,#174,#175));
#177=DERIVED_UNIT_ELEMENT(#179,1.);
#178=DERIVED_UNIT_ELEMENT(#308,3.);
#179=(
MASS_UNIT()
NAMED_UNIT(*)
SI_UNIT($,.GRAM.)
);
#180=DERIVED_UNIT((#177,#178));
#181=MEASURE_REPRESENTATION_ITEM('density measure',
POSITIVE_RATIO_MEASURE(1.188),#180);
#182=PROPERTY_DEFINITION_REPRESENTATION(#187,#184);
#183=PROPERTY_DEFINITION_REPRESENTATION(#188,#185);
#184=REPRESENTATION('material name',(#186),#305);
#185=REPRESENTATION('density',(#181),#305);
#186=DESCRIPTIVE_REPRESENTATION_ITEM('PMMA Plastic','PMMA Plastic');
#187=PROPERTY_DEFINITION('material property','material name',#315);
#188=PROPERTY_DEFINITION('material property','density of part',#315);
#189=DATE_TIME_ROLE('creation_date');
#190=APPLIED_DATE_AND_TIME_ASSIGNMENT(#191,#189,(#315));
#191=DATE_AND_TIME(#192,#193);
#192=CALENDAR_DATE(2023,23,11);
#193=LOCAL_TIME(0,0,0.,#194);
#194=COORDINATED_UNIVERSAL_TIME_OFFSET(0,0,.BEHIND.);
#195=AXIS2_PLACEMENT_3D('placement',#258,#211,#212);
#196=AXIS2_PLACEMENT_3D('',#259,#213,#214);
#197=AXIS2_PLACEMENT_3D('',#261,#215,#216);
#198=AXIS2_PLACEMENT_3D('',#264,#218,#219);
#199=AXIS2_PLACEMENT_3D('',#265,#220,#221);
#200=AXIS2_PLACEMENT_3D('',#267,#222,#223);
#201=AXIS2_PLACEMENT_3D('',#270,#225,#226);
#202=AXIS2_PLACEMENT_3D('',#271,#227,#228);
#203=AXIS2_PLACEMENT_3D('',#273,#229,#230);
#204=AXIS2_PLACEMENT_3D('',#276,#232,#233);
#205=AXIS2_PLACEMENT_3D('',#277,#234,#235);
#206=AXIS2_PLACEMENT_3D('',#286,#240,#241);
#207=AXIS2_PLACEMENT_3D('',#292,#245,#246);
#208=AXIS2_PLACEMENT_3D('',#298,#250,#251);
#209=AXIS2_PLACEMENT_3D('',#301,#254,#255);
#210=AXIS2_PLACEMENT_3D('',#302,#256,#257);
#211=DIRECTION('axis',(0.,0.,1.));
#212=DIRECTION('refdir',(1.,0.,0.));
#213=DIRECTION('center_axis',(0.,0.,1.));
#214=DIRECTION('ref_axis',(-1.,0.,0.));
#215=DIRECTION('center_axis',(0.,0.,-1.));
#216=DIRECTION('ref_axis',(-1.,0.,0.));
#217=DIRECTION('',(0.,0.,-1.));
#218=DIRECTION('center_axis',(0.,0.,-1.));
#219=DIRECTION('ref_axis',(-1.,0.,0.));
#220=DIRECTION('center_axis',(0.,0.,1.));
#221=DIRECTION('ref_axis',(-1.,0.,0.));
#222=DIRECTION('center_axis',(0.,0.,-1.));
#223=DIRECTION('ref_axis',(-1.,0.,0.));
#224=DIRECTION('',(0.,0.,-1.));
#225=DIRECTION('center_axis',(0.,0.,-1.));
#226=DIRECTION('ref_axis',(-1.,0.,0.));
#227=DIRECTION('center_axis',(0.,0.,1.));
#228=DIRECTION('ref_axis',(-1.,0.,0.));
#229=DIRECTION('center_axis',(0.,0.,-1.));
#230=DIRECTION('ref_axis',(-1.,0.,0.));
#231=DIRECTION('',(0.,0.,-1.));
#232=DIRECTION('center_axis',(0.,0.,-1.));
#233=DIRECTION('ref_axis',(-1.,0.,0.));
#234=DIRECTION('center_axis',(0.,1.,0.));
#235=DIRECTION('ref_axis',(-1.,0.,0.));
#236=DIRECTION('',(-1.,0.,0.));
#237=DIRECTION('',(0.,0.,1.));
#238=DIRECTION('',(-1.,0.,0.));
#239=DIRECTION('',(0.,0.,1.));
#240=DIRECTION('center_axis',(1.,9.66547103791313E-16,0.));
#241=DIRECTION('ref_axis',(-9.66547103791313E-16,1.,0.));
#242=DIRECTION('',(-9.66547103791313E-16,1.,0.));
#243=DIRECTION('',(-9.66547103791313E-16,1.,0.));
#244=DIRECTION('',(0.,0.,1.));
#245=DIRECTION('center_axis',(-4.44089209850064E-16,-1.,0.));
#246=DIRECTION('ref_axis',(1.,-4.44089209850064E-16,0.));
#247=DIRECTION('',(1.,-4.44089209850064E-16,0.));
#248=DIRECTION('',(1.,-4.44089209850064E-16,0.));
#249=DIRECTION('',(0.,0.,1.));
#250=DIRECTION('center_axis',(-1.,0.,0.));
#251=DIRECTION('ref_axis',(0.,-1.,0.));
#252=DIRECTION('',(0.,-1.,0.));
#253=DIRECTION('',(0.,-1.,0.));
#254=DIRECTION('center_axis',(0.,0.,1.));
#255=DIRECTION('ref_axis',(1.,0.,0.));
#256=DIRECTION('center_axis',(0.,0.,1.));
#257=DIRECTION('ref_axis',(1.,0.,0.));
#258=CARTESIAN_POINT('',(0.,0.,0.));
#259=CARTESIAN_POINT('Origin',(-8.5265128291212E-13,10.0000000000001,0.));
#260=CARTESIAN_POINT('',(3.99999999999915,10.0000000000001,6.));
#261=CARTESIAN_POINT('Origin',(-8.5265128291212E-13,10.0000000000001,6.));
#262=CARTESIAN_POINT('',(3.99999999999915,10.0000000000001,0.));
#263=CARTESIAN_POINT('',(3.99999999999915,10.0000000000001,0.));
#264=CARTESIAN_POINT('Origin',(-8.5265128291212E-13,10.0000000000001,0.));
#265=CARTESIAN_POINT('Origin',(-0.0179502386153985,27.9999910496905,0.));
#266=CARTESIAN_POINT('',(2.48204976138469,27.9999910496905,6.));
#267=CARTESIAN_POINT('Origin',(-0.0179502386153985,27.9999910496905,6.));
#268=CARTESIAN_POINT('',(2.48204976138469,27.9999910496905,0.));
#269=CARTESIAN_POINT('',(2.48204976138469,27.9999910496905,0.));
#270=CARTESIAN_POINT('Origin',(-0.0179502386153985,27.9999910496905,0.));
#271=CARTESIAN_POINT('Origin',(-0.124517453058921,-8.00000895031005,0.));
#272=CARTESIAN_POINT('',(2.37548254694117,-8.00000895031005,6.));
#273=CARTESIAN_POINT('Origin',(-0.124517453058921,-8.00000895031005,6.));
#274=CARTESIAN_POINT('',(2.37548254694117,-8.00000895031005,0.));
#275=CARTESIAN_POINT('',(2.37548254694117,-8.00000895031005,0.));
#276=CARTESIAN_POINT('Origin',(-0.124517453058921,-8.00000895031005,0.));
#277=CARTESIAN_POINT('Origin',(20.,75.0000000000001,0.));
#278=CARTESIAN_POINT('',(20.,75.0000000000001,0.));
#279=CARTESIAN_POINT('',(-20.0000000000001,75.0000000000001,0.));
#280=CARTESIAN_POINT('',(20.,75.0000000000001,0.));
#281=CARTESIAN_POINT('',(-20.0000000000001,75.0000000000001,6.));
#282=CARTESIAN_POINT('',(-20.0000000000001,75.0000000000001,0.));
#283=CARTESIAN_POINT('',(20.,75.0000000000001,6.));
#284=CARTESIAN_POINT('',(20.,75.0000000000001,6.));
#285=CARTESIAN_POINT('',(20.,75.0000000000001,0.));
#286=CARTESIAN_POINT('Origin',(20.,-44.9999999999999,0.));
#287=CARTESIAN_POINT('',(20.,-44.9999999999999,0.));
#288=CARTESIAN_POINT('',(20.,-44.9999999999999,0.));
#289=CARTESIAN_POINT('',(20.,-44.9999999999999,6.));
#290=CARTESIAN_POINT('',(20.,-44.9999999999999,6.));
#291=CARTESIAN_POINT('',(20.,-44.9999999999999,0.));
#292=CARTESIAN_POINT('Origin',(-19.9999999999999,-44.9999999999999,0.));
#293=CARTESIAN_POINT('',(-19.9999999999999,-44.9999999999999,0.));
#294=CARTESIAN_POINT('',(-19.9999999999999,-44.9999999999999,0.));
#295=CARTESIAN_POINT('',(-19.9999999999999,-44.9999999999999,6.));
#296=CARTESIAN_POINT('',(-19.9999999999999,-44.9999999999999,6.));
#297=CARTESIAN_POINT('',(-19.9999999999999,-44.9999999999999,0.));
#298=CARTESIAN_POINT('Origin',(-20.0000000000001,75.0000000000001,0.));
#299=CARTESIAN_POINT('',(-20.0000000000001,75.0000000000001,0.));
#300=CARTESIAN_POINT('',(-20.0000000000001,75.0000000000001,6.));
#301=CARTESIAN_POINT('Origin',(-5.10702591327572E-14,15.0000000000001,6.));
#302=CARTESIAN_POINT('Origin',(-5.10702591327572E-14,15.0000000000001,0.));
#303=UNCERTAINTY_MEASURE_WITH_UNIT(LENGTH_MEASURE(0.01),#307,
'DISTANCE_ACCURACY_VALUE',
'Maximum model space distance between geometric entities at asserted c
onnectivities');
#304=UNCERTAINTY_MEASURE_WITH_UNIT(LENGTH_MEASURE(0.01),#307,
'DISTANCE_ACCURACY_VALUE',
'Maximum model space distance between geometric entities at asserted c
onnectivities');
#305=(
GEOMETRIC_REPRESENTATION_CONTEXT(3)
GLOBAL_UNCERTAINTY_ASSIGNED_CONTEXT((#303))
GLOBAL_UNIT_ASSIGNED_CONTEXT((#307,#309,#310))
REPRESENTATION_CONTEXT('','3D')
);
#306=(
GEOMETRIC_REPRESENTATION_CONTEXT(3)
GLOBAL_UNCERTAINTY_ASSIGNED_CONTEXT((#304))
GLOBAL_UNIT_ASSIGNED_CONTEXT((#307,#309,#310))
REPRESENTATION_CONTEXT('','3D')
);
#307=(
LENGTH_UNIT()
NAMED_UNIT(*)
SI_UNIT(.MILLI.,.METRE.)
);
#308=(
LENGTH_UNIT()
NAMED_UNIT(*)
SI_UNIT(.CENTI.,.METRE.)
);
#309=(
NAMED_UNIT(*)
PLANE_ANGLE_UNIT()
SI_UNIT($,.RADIAN.)
);
#310=(
NAMED_UNIT(*)
SI_UNIT($,.STERADIAN.)
SOLID_ANGLE_UNIT()
);
#311=SHAPE_DEFINITION_REPRESENTATION(#312,#313);
#312=PRODUCT_DEFINITION_SHAPE('',$,#315);
#313=SHAPE_REPRESENTATION('',(#195),#305);
#314=PRODUCT_DEFINITION_CONTEXT('part definition',#319,'design');
#315=PRODUCT_DEFINITION('gard1','gard1',#316,#314);
#316=PRODUCT_DEFINITION_FORMATION('',$,#321);
#317=PRODUCT_RELATED_PRODUCT_CATEGORY('gard1','gard1',(#321));
#318=APPLICATION_PROTOCOL_DEFINITION('international standard',
'automotive_design',2009,#319);
#319=APPLICATION_CONTEXT(
'Core Data for Automotive Mechanical Design Process');
#320=PRODUCT_CONTEXT('part definition',#319,'mechanical');
#321=PRODUCT('gard1','gard1',$,(#320));
#322=PRESENTATION_STYLE_ASSIGNMENT((#323));
#323=SURFACE_STYLE_USAGE(.BOTH.,#326);
#324=SURFACE_STYLE_RENDERING_WITH_PROPERTIES($,#330,(#325));
#325=SURFACE_STYLE_TRANSPARENT(0.53999999165535);
#326=SURFACE_SIDE_STYLE('',(#327,#324));
#327=SURFACE_STYLE_FILL_AREA(#328);
#328=FILL_AREA_STYLE('',(#329));
#329=FILL_AREA_STYLE_COLOUR('',#330);
#330=COLOUR_RGB('',0.8,0.8,0.8);
ENDSEC;
END-ISO-10303-21;
