ISO-10303-21;
HEADER;
/* Generated by software containing ST-Developer
 * from STEP Tools, Inc. (www.steptools.com) 
 */

FILE_DESCRIPTION(
/* description */ ('HOOPS Exchange Step'),
/* implementation_level */ '2;1');

FILE_NAME(
/* name */ 
'I:\\ASU_FOE\\graduation project\\quadcopter\\matlab xml\\231123\\\\gu
ard 2_ipt_d986c415.STEP',
/* time_stamp */ '2023-11-23T19:53:37+02:00',
/* author */ ('mobile'),
/* organization */ ('Shapr3D Limited'),
/* preprocessor_version */ 'ST-DEVELOPER v18.1',
/* originating_system */ 'Autodesk Inventor 2021',
/* authorisation */ 'Authorized');

FILE_SCHEMA (('AUTOMOTIVE_DESIGN { 1 0 10303 214 3 1 1 }'));
ENDSEC;

DATA;
#10=MECHANICAL_DESIGN_GEOMETRIC_PRESENTATION_REPRESENTATION('',(#13),#907);
#11=SHAPE_REPRESENTATION_RELATIONSHIP('SRR','None',#914,#12);
#12=ADVANCED_BREP_SHAPE_REPRESENTATION('',(#14),#906);
#13=STYLED_ITEM('',(#924),#14);
#14=MANIFOLD_SOLID_BREP('Solid1',#533);
#15=CYLINDRICAL_SURFACE('',#574,2.);
#16=CYLINDRICAL_SURFACE('',#576,2.);
#17=CYLINDRICAL_SURFACE('',#583,6.);
#18=CYLINDRICAL_SURFACE('',#584,6.);
#19=CYLINDRICAL_SURFACE('',#585,3.);
#20=CYLINDRICAL_SURFACE('',#586,3.);
#21=CYLINDRICAL_SURFACE('',#594,3.6);
#22=CYLINDRICAL_SURFACE('',#595,3.6);
#23=CYLINDRICAL_SURFACE('',#596,6.);
#24=CYLINDRICAL_SURFACE('',#597,6.);
#25=FACE_BOUND('',#83,.T.);
#26=FACE_BOUND('',#85,.T.);
#27=FACE_BOUND('',#93,.T.);
#28=FACE_BOUND('',#94,.T.);
#29=CIRCLE('',#557,6.);
#30=CIRCLE('',#558,6.);
#31=CIRCLE('',#561,3.);
#32=CIRCLE('',#562,6.);
#33=CIRCLE('',#563,2.);
#34=CIRCLE('',#565,6.);
#35=CIRCLE('',#566,3.);
#36=CIRCLE('',#567,2.);
#37=CIRCLE('',#571,6.);
#38=CIRCLE('',#572,6.);
#39=CIRCLE('',#575,2.);
#40=CIRCLE('',#577,2.);
#41=CIRCLE('',#579,3.);
#42=CIRCLE('',#580,3.);
#43=CIRCLE('',#581,6.);
#44=CIRCLE('',#582,6.);
#45=CIRCLE('',#588,3.6);
#46=CIRCLE('',#589,3.6);
#47=CIRCLE('',#591,3.6);
#48=CIRCLE('',#592,3.6);
#49=FACE_OUTER_BOUND('',#77,.T.);
#50=FACE_OUTER_BOUND('',#78,.T.);
#51=FACE_OUTER_BOUND('',#79,.T.);
#52=FACE_OUTER_BOUND('',#80,.T.);
#53=FACE_OUTER_BOUND('',#81,.T.);
#54=FACE_OUTER_BOUND('',#82,.T.);
#55=FACE_OUTER_BOUND('',#84,.T.);
#56=FACE_OUTER_BOUND('',#86,.T.);
#57=FACE_OUTER_BOUND('',#87,.T.);
#58=FACE_OUTER_BOUND('',#88,.T.);
#59=FACE_OUTER_BOUND('',#89,.T.);
#60=FACE_OUTER_BOUND('',#90,.T.);
#61=FACE_OUTER_BOUND('',#91,.T.);
#62=FACE_OUTER_BOUND('',#92,.T.);
#63=FACE_OUTER_BOUND('',#95,.T.);
#64=FACE_OUTER_BOUND('',#96,.T.);
#65=FACE_OUTER_BOUND('',#97,.T.);
#66=FACE_OUTER_BOUND('',#98,.T.);
#67=FACE_OUTER_BOUND('',#99,.T.);
#68=FACE_OUTER_BOUND('',#100,.T.);
#69=FACE_OUTER_BOUND('',#101,.T.);
#70=FACE_OUTER_BOUND('',#102,.T.);
#71=FACE_OUTER_BOUND('',#103,.T.);
#72=FACE_OUTER_BOUND('',#104,.T.);
#73=FACE_OUTER_BOUND('',#105,.T.);
#74=FACE_OUTER_BOUND('',#106,.T.);
#75=FACE_OUTER_BOUND('',#107,.T.);
#76=FACE_OUTER_BOUND('',#108,.T.);
#77=EDGE_LOOP('',(#339,#340,#341,#342));
#78=EDGE_LOOP('',(#343,#344,#345));
#79=EDGE_LOOP('',(#346,#347,#348));
#80=EDGE_LOOP('',(#349,#350,#351,#352,#353,#354,#355,#356,#357,#358,#359,
#360,#361,#362));
#81=EDGE_LOOP('',(#363,#364,#365,#366));
#82=EDGE_LOOP('',(#367,#368,#369,#370,#371,#372,#373,#374));
#83=EDGE_LOOP('',(#375));
#84=EDGE_LOOP('',(#376,#377,#378,#379,#380,#381,#382,#383));
#85=EDGE_LOOP('',(#384));
#86=EDGE_LOOP('',(#385,#386,#387,#388,#389,#390,#391,#392));
#87=EDGE_LOOP('',(#393,#394,#395,#396));
#88=EDGE_LOOP('',(#397,#398,#399,#400,#401,#402,#403,#404,#405,#406));
#89=EDGE_LOOP('',(#407,#408,#409,#410));
#90=EDGE_LOOP('',(#411,#412,#413,#414));
#91=EDGE_LOOP('',(#415,#416,#417,#418));
#92=EDGE_LOOP('',(#419,#420,#421,#422,#423,#424,#425,#426));
#93=EDGE_LOOP('',(#427));
#94=EDGE_LOOP('',(#428));
#95=EDGE_LOOP('',(#429,#430,#431,#432));
#96=EDGE_LOOP('',(#433,#434,#435,#436));
#97=EDGE_LOOP('',(#437,#438,#439,#440));
#98=EDGE_LOOP('',(#441,#442,#443,#444));
#99=EDGE_LOOP('',(#445,#446,#447,#448,#449,#450));
#100=EDGE_LOOP('',(#451,#452,#453,#454,#455,#456));
#101=EDGE_LOOP('',(#457,#458,#459,#460));
#102=EDGE_LOOP('',(#461,#462,#463,#464));
#103=EDGE_LOOP('',(#465,#466,#467,#468));
#104=EDGE_LOOP('',(#469,#470,#471,#472));
#105=EDGE_LOOP('',(#473,#474,#475,#476));
#106=EDGE_LOOP('',(#477,#478,#479,#480));
#107=EDGE_LOOP('',(#481,#482,#483));
#108=EDGE_LOOP('',(#484,#485,#486));
#109=LINE('',#757,#163);
#110=LINE('',#759,#164);
#111=LINE('',#761,#165);
#112=LINE('',#762,#166);
#113=LINE('',#765,#167);
#114=LINE('',#766,#168);
#115=LINE('',#769,#169);
#116=LINE('',#770,#170);
#117=LINE('',#773,#171);
#118=LINE('',#777,#172);
#119=LINE('',#779,#173);
#120=LINE('',#781,#174);
#121=LINE('',#785,#175);
#122=LINE('',#787,#176);
#123=LINE('',#789,#177);
#124=LINE('',#791,#178);
#125=LINE('',#792,#179);
#126=LINE('',#795,#180);
#127=LINE('',#796,#181);
#128=LINE('',#799,#182);
#129=LINE('',#803,#183);
#130=LINE('',#807,#184);
#131=LINE('',#808,#185);
#132=LINE('',#813,#186);
#133=LINE('',#815,#187);
#134=LINE('',#817,#188);
#135=LINE('',#821,#189);
#136=LINE('',#824,#190);
#137=LINE('',#830,#191);
#138=LINE('',#831,#192);
#139=LINE('',#832,#193);
#140=LINE('',#833,#194);
#141=LINE('',#836,#195);
#142=LINE('',#838,#196);
#143=LINE('',#839,#197);
#144=LINE('',#843,#198);
#145=LINE('',#845,#199);
#146=LINE('',#847,#200);
#147=LINE('',#850,#201);
#148=LINE('',#852,#202);
#149=LINE('',#853,#203);
#150=LINE('',#858,#204);
#151=LINE('',#859,#205);
#152=LINE('',#860,#206);
#153=LINE('',#863,#207);
#154=LINE('',#867,#208);
#155=LINE('',#879,#209);
#156=LINE('',#883,#210);
#157=LINE('',#886,#211);
#158=LINE('',#890,#212);
#159=LINE('',#893,#213);
#160=LINE('',#894,#214);
#161=LINE('',#900,#215);
#162=LINE('',#901,#216);
#163=VECTOR('',#605,27.6081509768797);
#164=VECTOR('',#606,4.);
#165=VECTOR('',#607,27.6081509768797);
#166=VECTOR('',#608,4.);
#167=VECTOR('',#611,9.);
#168=VECTOR('',#612,26.1);
#169=VECTOR('',#615,26.1);
#170=VECTOR('',#616,9.);
#171=VECTOR('',#619,14.);
#172=VECTOR('',#622,40.2);
#173=VECTOR('',#623,40.);
#174=VECTOR('',#624,40.2);
#175=VECTOR('',#627,14.);
#176=VECTOR('',#628,26.1);
#177=VECTOR('',#629,4.);
#178=VECTOR('',#630,26.1);
#179=VECTOR('',#631,16.);
#180=VECTOR('',#634,9.);
#181=VECTOR('',#635,16.);
#182=VECTOR('',#638,22.5);
#183=VECTOR('',#641,8.);
#184=VECTOR('',#644,5.5);
#185=VECTOR('',#645,8.);
#186=VECTOR('',#650,9.);
#187=VECTOR('',#651,8.);
#188=VECTOR('',#652,5.5);
#189=VECTOR('',#655,8.);
#190=VECTOR('',#658,22.5);
#191=VECTOR('',#663,69.);
#192=VECTOR('',#664,5.);
#193=VECTOR('',#665,4.);
#194=VECTOR('',#666,5.);
#195=VECTOR('',#669,5.);
#196=VECTOR('',#670,8.);
#197=VECTOR('',#671,5.);
#198=VECTOR('',#674,40.2);
#199=VECTOR('',#675,40.);
#200=VECTOR('',#676,40.2);
#201=VECTOR('',#679,5.);
#202=VECTOR('',#680,63.);
#203=VECTOR('',#681,5.);
#204=VECTOR('',#686,8.);
#205=VECTOR('',#687,5.);
#206=VECTOR('',#688,5.);
#207=VECTOR('',#691,2.);
#208=VECTOR('',#696,2.);
#209=VECTOR('',#719,8.);
#210=VECTOR('',#722,0.8);
#211=VECTOR('',#727,8.);
#212=VECTOR('',#730,0.8);
#213=VECTOR('',#735,40.);
#214=VECTOR('',#736,40.);
#215=VECTOR('',#747,27.6081509768797);
#216=VECTOR('',#748,27.6081509768797);
#217=VERTEX_POINT('',#755);
#218=VERTEX_POINT('',#756);
#219=VERTEX_POINT('',#758);
#220=VERTEX_POINT('',#760);
#221=VERTEX_POINT('',#764);
#222=VERTEX_POINT('',#768);
#223=VERTEX_POINT('',#772);
#224=VERTEX_POINT('',#774);
#225=VERTEX_POINT('',#776);
#226=VERTEX_POINT('',#778);
#227=VERTEX_POINT('',#780);
#228=VERTEX_POINT('',#782);
#229=VERTEX_POINT('',#784);
#230=VERTEX_POINT('',#786);
#231=VERTEX_POINT('',#788);
#232=VERTEX_POINT('',#790);
#233=VERTEX_POINT('',#794);
#234=VERTEX_POINT('',#798);
#235=VERTEX_POINT('',#800);
#236=VERTEX_POINT('',#802);
#237=VERTEX_POINT('',#804);
#238=VERTEX_POINT('',#806);
#239=VERTEX_POINT('',#809);
#240=VERTEX_POINT('',#812);
#241=VERTEX_POINT('',#814);
#242=VERTEX_POINT('',#816);
#243=VERTEX_POINT('',#818);
#244=VERTEX_POINT('',#820);
#245=VERTEX_POINT('',#822);
#246=VERTEX_POINT('',#825);
#247=VERTEX_POINT('',#828);
#248=VERTEX_POINT('',#829);
#249=VERTEX_POINT('',#835);
#250=VERTEX_POINT('',#837);
#251=VERTEX_POINT('',#841);
#252=VERTEX_POINT('',#842);
#253=VERTEX_POINT('',#844);
#254=VERTEX_POINT('',#846);
#255=VERTEX_POINT('',#849);
#256=VERTEX_POINT('',#851);
#257=VERTEX_POINT('',#856);
#258=VERTEX_POINT('',#857);
#259=VERTEX_POINT('',#862);
#260=VERTEX_POINT('',#866);
#261=VERTEX_POINT('',#880);
#262=VERTEX_POINT('',#882);
#263=VERTEX_POINT('',#887);
#264=VERTEX_POINT('',#889);
#265=EDGE_CURVE('',#217,#218,#109,.T.);
#266=EDGE_CURVE('',#219,#217,#110,.T.);
#267=EDGE_CURVE('',#219,#220,#111,.T.);
#268=EDGE_CURVE('',#220,#218,#112,.T.);
#269=EDGE_CURVE('',#221,#219,#113,.T.);
#270=EDGE_CURVE('',#220,#221,#114,.T.);
#271=EDGE_CURVE('',#218,#222,#115,.T.);
#272=EDGE_CURVE('',#222,#217,#116,.T.);
#273=EDGE_CURVE('',#223,#221,#117,.T.);
#274=EDGE_CURVE('',#223,#224,#29,.T.);
#275=EDGE_CURVE('',#225,#224,#118,.T.);
#276=EDGE_CURVE('',#225,#226,#119,.T.);
#277=EDGE_CURVE('',#226,#227,#120,.T.);
#278=EDGE_CURVE('',#227,#228,#30,.T.);
#279=EDGE_CURVE('',#229,#228,#121,.T.);
#280=EDGE_CURVE('',#230,#229,#122,.T.);
#281=EDGE_CURVE('',#231,#230,#123,.T.);
#282=EDGE_CURVE('',#231,#232,#124,.T.);
#283=EDGE_CURVE('',#222,#232,#125,.T.);
#284=EDGE_CURVE('',#232,#233,#126,.T.);
#285=EDGE_CURVE('',#233,#217,#127,.T.);
#286=EDGE_CURVE('',#219,#234,#128,.T.);
#287=EDGE_CURVE('',#234,#235,#31,.T.);
#288=EDGE_CURVE('',#235,#236,#129,.T.);
#289=EDGE_CURVE('',#236,#237,#32,.T.);
#290=EDGE_CURVE('',#237,#238,#130,.T.);
#291=EDGE_CURVE('',#238,#223,#131,.T.);
#292=EDGE_CURVE('',#239,#239,#33,.T.);
#293=EDGE_CURVE('',#229,#240,#132,.T.);
#294=EDGE_CURVE('',#228,#241,#133,.T.);
#295=EDGE_CURVE('',#241,#242,#134,.T.);
#296=EDGE_CURVE('',#242,#243,#34,.T.);
#297=EDGE_CURVE('',#244,#243,#135,.T.);
#298=EDGE_CURVE('',#244,#245,#35,.T.);
#299=EDGE_CURVE('',#245,#240,#136,.T.);
#300=EDGE_CURVE('',#246,#246,#36,.T.);
#301=EDGE_CURVE('',#247,#248,#137,.T.);
#302=EDGE_CURVE('',#248,#234,#138,.T.);
#303=EDGE_CURVE('',#233,#240,#139,.T.);
#304=EDGE_CURVE('',#245,#247,#140,.T.);
#305=EDGE_CURVE('',#235,#249,#141,.T.);
#306=EDGE_CURVE('',#249,#250,#142,.T.);
#307=EDGE_CURVE('',#250,#236,#143,.T.);
#308=EDGE_CURVE('',#251,#252,#144,.T.);
#309=EDGE_CURVE('',#251,#253,#145,.T.);
#310=EDGE_CURVE('',#253,#254,#146,.T.);
#311=EDGE_CURVE('',#254,#238,#37,.T.);
#312=EDGE_CURVE('',#237,#255,#147,.T.);
#313=EDGE_CURVE('',#255,#256,#148,.T.);
#314=EDGE_CURVE('',#256,#242,#149,.T.);
#315=EDGE_CURVE('',#241,#252,#38,.T.);
#316=EDGE_CURVE('',#257,#258,#150,.T.);
#317=EDGE_CURVE('',#257,#244,#151,.T.);
#318=EDGE_CURVE('',#243,#258,#152,.T.);
#319=EDGE_CURVE('',#239,#259,#153,.T.);
#320=EDGE_CURVE('',#259,#259,#39,.T.);
#321=EDGE_CURVE('',#246,#260,#154,.T.);
#322=EDGE_CURVE('',#260,#260,#40,.T.);
#323=EDGE_CURVE('',#249,#248,#41,.T.);
#324=EDGE_CURVE('',#247,#257,#42,.T.);
#325=EDGE_CURVE('',#258,#256,#43,.T.);
#326=EDGE_CURVE('',#255,#250,#44,.T.);
#327=EDGE_CURVE('',#252,#227,#155,.T.);
#328=EDGE_CURVE('',#226,#261,#45,.T.);
#329=EDGE_CURVE('',#261,#262,#156,.T.);
#330=EDGE_CURVE('',#262,#251,#46,.T.);
#331=EDGE_CURVE('',#224,#254,#157,.T.);
#332=EDGE_CURVE('',#253,#263,#47,.T.);
#333=EDGE_CURVE('',#264,#263,#158,.T.);
#334=EDGE_CURVE('',#264,#225,#48,.T.);
#335=EDGE_CURVE('',#261,#264,#159,.T.);
#336=EDGE_CURVE('',#263,#262,#160,.T.);
#337=EDGE_CURVE('',#240,#230,#161,.T.);
#338=EDGE_CURVE('',#233,#231,#162,.T.);
#339=ORIENTED_EDGE('',*,*,#265,.F.);
#340=ORIENTED_EDGE('',*,*,#266,.F.);
#341=ORIENTED_EDGE('',*,*,#267,.T.);
#342=ORIENTED_EDGE('',*,*,#268,.T.);
#343=ORIENTED_EDGE('',*,*,#267,.F.);
#344=ORIENTED_EDGE('',*,*,#269,.F.);
#345=ORIENTED_EDGE('',*,*,#270,.F.);
#346=ORIENTED_EDGE('',*,*,#265,.T.);
#347=ORIENTED_EDGE('',*,*,#271,.T.);
#348=ORIENTED_EDGE('',*,*,#272,.T.);
#349=ORIENTED_EDGE('',*,*,#271,.F.);
#350=ORIENTED_EDGE('',*,*,#268,.F.);
#351=ORIENTED_EDGE('',*,*,#270,.T.);
#352=ORIENTED_EDGE('',*,*,#273,.F.);
#353=ORIENTED_EDGE('',*,*,#274,.T.);
#354=ORIENTED_EDGE('',*,*,#275,.F.);
#355=ORIENTED_EDGE('',*,*,#276,.T.);
#356=ORIENTED_EDGE('',*,*,#277,.T.);
#357=ORIENTED_EDGE('',*,*,#278,.T.);
#358=ORIENTED_EDGE('',*,*,#279,.F.);
#359=ORIENTED_EDGE('',*,*,#280,.F.);
#360=ORIENTED_EDGE('',*,*,#281,.F.);
#361=ORIENTED_EDGE('',*,*,#282,.T.);
#362=ORIENTED_EDGE('',*,*,#283,.F.);
#363=ORIENTED_EDGE('',*,*,#272,.F.);
#364=ORIENTED_EDGE('',*,*,#283,.T.);
#365=ORIENTED_EDGE('',*,*,#284,.T.);
#366=ORIENTED_EDGE('',*,*,#285,.T.);
#367=ORIENTED_EDGE('',*,*,#273,.T.);
#368=ORIENTED_EDGE('',*,*,#269,.T.);
#369=ORIENTED_EDGE('',*,*,#286,.T.);
#370=ORIENTED_EDGE('',*,*,#287,.T.);
#371=ORIENTED_EDGE('',*,*,#288,.T.);
#372=ORIENTED_EDGE('',*,*,#289,.T.);
#373=ORIENTED_EDGE('',*,*,#290,.T.);
#374=ORIENTED_EDGE('',*,*,#291,.T.);
#375=ORIENTED_EDGE('',*,*,#292,.T.);
#376=ORIENTED_EDGE('',*,*,#293,.F.);
#377=ORIENTED_EDGE('',*,*,#279,.T.);
#378=ORIENTED_EDGE('',*,*,#294,.T.);
#379=ORIENTED_EDGE('',*,*,#295,.T.);
#380=ORIENTED_EDGE('',*,*,#296,.T.);
#381=ORIENTED_EDGE('',*,*,#297,.F.);
#382=ORIENTED_EDGE('',*,*,#298,.T.);
#383=ORIENTED_EDGE('',*,*,#299,.T.);
#384=ORIENTED_EDGE('',*,*,#300,.T.);
#385=ORIENTED_EDGE('',*,*,#301,.T.);
#386=ORIENTED_EDGE('',*,*,#302,.T.);
#387=ORIENTED_EDGE('',*,*,#286,.F.);
#388=ORIENTED_EDGE('',*,*,#266,.T.);
#389=ORIENTED_EDGE('',*,*,#285,.F.);
#390=ORIENTED_EDGE('',*,*,#303,.T.);
#391=ORIENTED_EDGE('',*,*,#299,.F.);
#392=ORIENTED_EDGE('',*,*,#304,.T.);
#393=ORIENTED_EDGE('',*,*,#288,.F.);
#394=ORIENTED_EDGE('',*,*,#305,.T.);
#395=ORIENTED_EDGE('',*,*,#306,.T.);
#396=ORIENTED_EDGE('',*,*,#307,.T.);
#397=ORIENTED_EDGE('',*,*,#308,.F.);
#398=ORIENTED_EDGE('',*,*,#309,.T.);
#399=ORIENTED_EDGE('',*,*,#310,.T.);
#400=ORIENTED_EDGE('',*,*,#311,.T.);
#401=ORIENTED_EDGE('',*,*,#290,.F.);
#402=ORIENTED_EDGE('',*,*,#312,.T.);
#403=ORIENTED_EDGE('',*,*,#313,.T.);
#404=ORIENTED_EDGE('',*,*,#314,.T.);
#405=ORIENTED_EDGE('',*,*,#295,.F.);
#406=ORIENTED_EDGE('',*,*,#315,.T.);
#407=ORIENTED_EDGE('',*,*,#316,.F.);
#408=ORIENTED_EDGE('',*,*,#317,.T.);
#409=ORIENTED_EDGE('',*,*,#297,.T.);
#410=ORIENTED_EDGE('',*,*,#318,.T.);
#411=ORIENTED_EDGE('',*,*,#292,.F.);
#412=ORIENTED_EDGE('',*,*,#319,.T.);
#413=ORIENTED_EDGE('',*,*,#320,.T.);
#414=ORIENTED_EDGE('',*,*,#319,.F.);
#415=ORIENTED_EDGE('',*,*,#300,.F.);
#416=ORIENTED_EDGE('',*,*,#321,.T.);
#417=ORIENTED_EDGE('',*,*,#322,.T.);
#418=ORIENTED_EDGE('',*,*,#321,.F.);
#419=ORIENTED_EDGE('',*,*,#306,.F.);
#420=ORIENTED_EDGE('',*,*,#323,.T.);
#421=ORIENTED_EDGE('',*,*,#301,.F.);
#422=ORIENTED_EDGE('',*,*,#324,.T.);
#423=ORIENTED_EDGE('',*,*,#316,.T.);
#424=ORIENTED_EDGE('',*,*,#325,.T.);
#425=ORIENTED_EDGE('',*,*,#313,.F.);
#426=ORIENTED_EDGE('',*,*,#326,.T.);
#427=ORIENTED_EDGE('',*,*,#322,.F.);
#428=ORIENTED_EDGE('',*,*,#320,.F.);
#429=ORIENTED_EDGE('',*,*,#289,.F.);
#430=ORIENTED_EDGE('',*,*,#307,.F.);
#431=ORIENTED_EDGE('',*,*,#326,.F.);
#432=ORIENTED_EDGE('',*,*,#312,.F.);
#433=ORIENTED_EDGE('',*,*,#296,.F.);
#434=ORIENTED_EDGE('',*,*,#314,.F.);
#435=ORIENTED_EDGE('',*,*,#325,.F.);
#436=ORIENTED_EDGE('',*,*,#318,.F.);
#437=ORIENTED_EDGE('',*,*,#298,.F.);
#438=ORIENTED_EDGE('',*,*,#317,.F.);
#439=ORIENTED_EDGE('',*,*,#324,.F.);
#440=ORIENTED_EDGE('',*,*,#304,.F.);
#441=ORIENTED_EDGE('',*,*,#287,.F.);
#442=ORIENTED_EDGE('',*,*,#302,.F.);
#443=ORIENTED_EDGE('',*,*,#323,.F.);
#444=ORIENTED_EDGE('',*,*,#305,.F.);
#445=ORIENTED_EDGE('',*,*,#308,.T.);
#446=ORIENTED_EDGE('',*,*,#327,.T.);
#447=ORIENTED_EDGE('',*,*,#277,.F.);
#448=ORIENTED_EDGE('',*,*,#328,.T.);
#449=ORIENTED_EDGE('',*,*,#329,.T.);
#450=ORIENTED_EDGE('',*,*,#330,.T.);
#451=ORIENTED_EDGE('',*,*,#275,.T.);
#452=ORIENTED_EDGE('',*,*,#331,.T.);
#453=ORIENTED_EDGE('',*,*,#310,.F.);
#454=ORIENTED_EDGE('',*,*,#332,.T.);
#455=ORIENTED_EDGE('',*,*,#333,.F.);
#456=ORIENTED_EDGE('',*,*,#334,.T.);
#457=ORIENTED_EDGE('',*,*,#329,.F.);
#458=ORIENTED_EDGE('',*,*,#335,.T.);
#459=ORIENTED_EDGE('',*,*,#333,.T.);
#460=ORIENTED_EDGE('',*,*,#336,.T.);
#461=ORIENTED_EDGE('',*,*,#334,.F.);
#462=ORIENTED_EDGE('',*,*,#335,.F.);
#463=ORIENTED_EDGE('',*,*,#328,.F.);
#464=ORIENTED_EDGE('',*,*,#276,.F.);
#465=ORIENTED_EDGE('',*,*,#332,.F.);
#466=ORIENTED_EDGE('',*,*,#309,.F.);
#467=ORIENTED_EDGE('',*,*,#330,.F.);
#468=ORIENTED_EDGE('',*,*,#336,.F.);
#469=ORIENTED_EDGE('',*,*,#278,.F.);
#470=ORIENTED_EDGE('',*,*,#327,.F.);
#471=ORIENTED_EDGE('',*,*,#315,.F.);
#472=ORIENTED_EDGE('',*,*,#294,.F.);
#473=ORIENTED_EDGE('',*,*,#311,.F.);
#474=ORIENTED_EDGE('',*,*,#331,.F.);
#475=ORIENTED_EDGE('',*,*,#274,.F.);
#476=ORIENTED_EDGE('',*,*,#291,.F.);
#477=ORIENTED_EDGE('',*,*,#337,.F.);
#478=ORIENTED_EDGE('',*,*,#303,.F.);
#479=ORIENTED_EDGE('',*,*,#338,.T.);
#480=ORIENTED_EDGE('',*,*,#281,.T.);
#481=ORIENTED_EDGE('',*,*,#338,.F.);
#482=ORIENTED_EDGE('',*,*,#284,.F.);
#483=ORIENTED_EDGE('',*,*,#282,.F.);
#484=ORIENTED_EDGE('',*,*,#337,.T.);
#485=ORIENTED_EDGE('',*,*,#280,.T.);
#486=ORIENTED_EDGE('',*,*,#293,.T.);
#487=PLANE('',#553);
#488=PLANE('',#554);
#489=PLANE('',#555);
#490=PLANE('',#556);
#491=PLANE('',#559);
#492=PLANE('',#560);
#493=PLANE('',#564);
#494=PLANE('',#568);
#495=PLANE('',#569);
#496=PLANE('',#570);
#497=PLANE('',#573);
#498=PLANE('',#578);
#499=PLANE('',#587);
#500=PLANE('',#590);
#501=PLANE('',#593);
#502=PLANE('',#598);
#503=PLANE('',#599);
#504=PLANE('',#600);
#505=ADVANCED_FACE('',(#49),#487,.T.);
#506=ADVANCED_FACE('',(#50),#488,.F.);
#507=ADVANCED_FACE('',(#51),#489,.T.);
#508=ADVANCED_FACE('',(#52),#490,.T.);
#509=ADVANCED_FACE('',(#53),#491,.T.);
#510=ADVANCED_FACE('',(#54,#25),#492,.T.);
#511=ADVANCED_FACE('',(#55,#26),#493,.T.);
#512=ADVANCED_FACE('',(#56),#494,.F.);
#513=ADVANCED_FACE('',(#57),#495,.F.);
#514=ADVANCED_FACE('',(#58),#496,.F.);
#515=ADVANCED_FACE('',(#59),#497,.T.);
#516=ADVANCED_FACE('',(#60),#15,.F.);
#517=ADVANCED_FACE('',(#61),#16,.F.);
#518=ADVANCED_FACE('',(#62,#27,#28),#498,.F.);
#519=ADVANCED_FACE('',(#63),#17,.T.);
#520=ADVANCED_FACE('',(#64),#18,.T.);
#521=ADVANCED_FACE('',(#65),#19,.T.);
#522=ADVANCED_FACE('',(#66),#20,.T.);
#523=ADVANCED_FACE('',(#67),#499,.T.);
#524=ADVANCED_FACE('',(#68),#500,.F.);
#525=ADVANCED_FACE('',(#69),#501,.T.);
#526=ADVANCED_FACE('',(#70),#21,.T.);
#527=ADVANCED_FACE('',(#71),#22,.T.);
#528=ADVANCED_FACE('',(#72),#23,.F.);
#529=ADVANCED_FACE('',(#73),#24,.F.);
#530=ADVANCED_FACE('',(#74),#502,.T.);
#531=ADVANCED_FACE('',(#75),#503,.F.);
#532=ADVANCED_FACE('',(#76),#504,.T.);
#533=CLOSED_SHELL('',(#505,#506,#507,#508,#509,#510,#511,#512,#513,#514,
#515,#516,#517,#518,#519,#520,#521,#522,#523,#524,#525,#526,#527,#528,#529,
#530,#531,#532));
#534=DERIVED_UNIT_ELEMENT(#536,1.);
#535=DERIVED_UNIT_ELEMENT(#909,3.);
#536=(
MASS_UNIT()
NAMED_UNIT(*)
SI_UNIT($,.GRAM.)
);
#537=DERIVED_UNIT((#534,#535));
#538=MEASURE_REPRESENTATION_ITEM('density measure',
POSITIVE_RATIO_MEASURE(0.357272727273),#537);
#539=PROPERTY_DEFINITION_REPRESENTATION(#544,#541);
#540=PROPERTY_DEFINITION_REPRESENTATION(#545,#542);
#541=REPRESENTATION('material name',(#543),#906);
#542=REPRESENTATION('density',(#538),#906);
#543=DESCRIPTIVE_REPRESENTATION_ITEM('PC/ABS Plastic','PC/ABS Plastic');
#544=PROPERTY_DEFINITION('material property','material name',#916);
#545=PROPERTY_DEFINITION('material property','density of part',#916);
#546=DATE_TIME_ROLE('creation_date');
#547=APPLIED_DATE_AND_TIME_ASSIGNMENT(#548,#546,(#916));
#548=DATE_AND_TIME(#549,#550);
#549=CALENDAR_DATE(2023,23,11);
#550=LOCAL_TIME(18,1,52.,#551);
#551=COORDINATED_UNIVERSAL_TIME_OFFSET(0,0,.BEHIND.);
#552=AXIS2_PLACEMENT_3D('placement',#753,#601,#602);
#553=AXIS2_PLACEMENT_3D('',#754,#603,#604);
#554=AXIS2_PLACEMENT_3D('',#763,#609,#610);
#555=AXIS2_PLACEMENT_3D('',#767,#613,#614);
#556=AXIS2_PLACEMENT_3D('',#771,#617,#618);
#557=AXIS2_PLACEMENT_3D('',#775,#620,#621);
#558=AXIS2_PLACEMENT_3D('',#783,#625,#626);
#559=AXIS2_PLACEMENT_3D('',#793,#632,#633);
#560=AXIS2_PLACEMENT_3D('',#797,#636,#637);
#561=AXIS2_PLACEMENT_3D('',#801,#639,#640);
#562=AXIS2_PLACEMENT_3D('',#805,#642,#643);
#563=AXIS2_PLACEMENT_3D('',#810,#646,#647);
#564=AXIS2_PLACEMENT_3D('',#811,#648,#649);
#565=AXIS2_PLACEMENT_3D('',#819,#653,#654);
#566=AXIS2_PLACEMENT_3D('',#823,#656,#657);
#567=AXIS2_PLACEMENT_3D('',#826,#659,#660);
#568=AXIS2_PLACEMENT_3D('',#827,#661,#662);
#569=AXIS2_PLACEMENT_3D('',#834,#667,#668);
#570=AXIS2_PLACEMENT_3D('',#840,#672,#673);
#571=AXIS2_PLACEMENT_3D('',#848,#677,#678);
#572=AXIS2_PLACEMENT_3D('',#854,#682,#683);
#573=AXIS2_PLACEMENT_3D('',#855,#684,#685);
#574=AXIS2_PLACEMENT_3D('',#861,#689,#690);
#575=AXIS2_PLACEMENT_3D('',#864,#692,#693);
#576=AXIS2_PLACEMENT_3D('',#865,#694,#695);
#577=AXIS2_PLACEMENT_3D('',#868,#697,#698);
#578=AXIS2_PLACEMENT_3D('',#869,#699,#700);
#579=AXIS2_PLACEMENT_3D('',#870,#701,#702);
#580=AXIS2_PLACEMENT_3D('',#871,#703,#704);
#581=AXIS2_PLACEMENT_3D('',#872,#705,#706);
#582=AXIS2_PLACEMENT_3D('',#873,#707,#708);
#583=AXIS2_PLACEMENT_3D('',#874,#709,#710);
#584=AXIS2_PLACEMENT_3D('',#875,#711,#712);
#585=AXIS2_PLACEMENT_3D('',#876,#713,#714);
#586=AXIS2_PLACEMENT_3D('',#877,#715,#716);
#587=AXIS2_PLACEMENT_3D('',#878,#717,#718);
#588=AXIS2_PLACEMENT_3D('',#881,#720,#721);
#589=AXIS2_PLACEMENT_3D('',#884,#723,#724);
#590=AXIS2_PLACEMENT_3D('',#885,#725,#726);
#591=AXIS2_PLACEMENT_3D('',#888,#728,#729);
#592=AXIS2_PLACEMENT_3D('',#891,#731,#732);
#593=AXIS2_PLACEMENT_3D('',#892,#733,#734);
#594=AXIS2_PLACEMENT_3D('',#895,#737,#738);
#595=AXIS2_PLACEMENT_3D('',#896,#739,#740);
#596=AXIS2_PLACEMENT_3D('',#897,#741,#742);
#597=AXIS2_PLACEMENT_3D('',#898,#743,#744);
#598=AXIS2_PLACEMENT_3D('',#899,#745,#746);
#599=AXIS2_PLACEMENT_3D('',#902,#749,#750);
#600=AXIS2_PLACEMENT_3D('',#903,#751,#752);
#601=DIRECTION('axis',(0.,0.,1.));
#602=DIRECTION('refdir',(1.,0.,0.));
#603=DIRECTION('center_axis',(0.,-0.945372981764423,0.325990682918767));
#604=DIRECTION('ref_axis',(0.,-0.325990682918767,-0.945372981764423));
#605=DIRECTION('',(0.,0.325990682918767,0.945372981764423));
#606=DIRECTION('',(-1.,0.,0.));
#607=DIRECTION('',(0.,0.325990682918767,0.945372981764423));
#608=DIRECTION('',(-1.,0.,0.));
#609=DIRECTION('center_axis',(-1.,0.,0.));
#610=DIRECTION('ref_axis',(0.,-1.,0.));
#611=DIRECTION('',(0.,-1.,0.));
#612=DIRECTION('',(0.,0.,-1.));
#613=DIRECTION('center_axis',(-1.,0.,0.));
#614=DIRECTION('ref_axis',(0.,-1.,0.));
#615=DIRECTION('',(0.,0.,-1.));
#616=DIRECTION('',(0.,-1.,0.));
#617=DIRECTION('center_axis',(0.,-1.,0.));
#618=DIRECTION('ref_axis',(0.,0.,-1.));
#619=DIRECTION('',(-1.,0.,0.));
#620=DIRECTION('center_axis',(0.,1.,0.));
#621=DIRECTION('ref_axis',(0.,0.,-1.));
#622=DIRECTION('',(0.,0.,-1.));
#623=DIRECTION('',(-1.,0.,0.));
#624=DIRECTION('',(0.,0.,-1.));
#625=DIRECTION('center_axis',(0.,1.,0.));
#626=DIRECTION('ref_axis',(0.,0.,-1.));
#627=DIRECTION('',(-1.,0.,0.));
#628=DIRECTION('',(0.,0.,-1.));
#629=DIRECTION('',(-1.,0.,0.));
#630=DIRECTION('',(0.,0.,-1.));
#631=DIRECTION('',(-1.,0.,0.));
#632=DIRECTION('center_axis',(0.,0.,1.));
#633=DIRECTION('ref_axis',(1.,0.,0.));
#634=DIRECTION('',(0.,-1.,0.));
#635=DIRECTION('',(1.,0.,0.));
#636=DIRECTION('center_axis',(0.,0.,1.));
#637=DIRECTION('ref_axis',(1.,0.,0.));
#638=DIRECTION('',(1.,0.,0.));
#639=DIRECTION('center_axis',(0.,0.,1.));
#640=DIRECTION('ref_axis',(0.,-1.,0.));
#641=DIRECTION('',(0.,1.,0.));
#642=DIRECTION('center_axis',(0.,0.,1.));
#643=DIRECTION('ref_axis',(0.,-1.,0.));
#644=DIRECTION('',(-1.,0.,0.));
#645=DIRECTION('',(0.,-1.,0.));
#646=DIRECTION('center_axis',(0.,0.,-1.));
#647=DIRECTION('ref_axis',(0.,-1.,0.));
#648=DIRECTION('center_axis',(0.,0.,1.));
#649=DIRECTION('ref_axis',(1.,0.,0.));
#650=DIRECTION('',(0.,-1.,0.));
#651=DIRECTION('',(0.,1.,0.));
#652=DIRECTION('',(-1.,0.,0.));
#653=DIRECTION('center_axis',(0.,0.,1.));
#654=DIRECTION('ref_axis',(0.,-1.,0.));
#655=DIRECTION('',(0.,1.,0.));
#656=DIRECTION('center_axis',(0.,0.,1.));
#657=DIRECTION('ref_axis',(0.,-1.,0.));
#658=DIRECTION('',(1.,0.,0.));
#659=DIRECTION('center_axis',(0.,0.,-1.));
#660=DIRECTION('ref_axis',(0.,-1.,0.));
#661=DIRECTION('center_axis',(0.,1.,0.));
#662=DIRECTION('ref_axis',(0.,0.,1.));
#663=DIRECTION('',(1.,0.,0.));
#664=DIRECTION('',(0.,0.,1.));
#665=DIRECTION('',(-1.,0.,0.));
#666=DIRECTION('',(0.,0.,-1.));
#667=DIRECTION('center_axis',(-1.,0.,0.));
#668=DIRECTION('ref_axis',(0.,-1.,0.));
#669=DIRECTION('',(0.,0.,-1.));
#670=DIRECTION('',(0.,1.,0.));
#671=DIRECTION('',(0.,0.,1.));
#672=DIRECTION('center_axis',(0.,-1.,0.));
#673=DIRECTION('ref_axis',(0.,0.,-1.));
#674=DIRECTION('',(0.,0.,-1.));
#675=DIRECTION('',(1.,0.,0.));
#676=DIRECTION('',(0.,0.,-1.));
#677=DIRECTION('center_axis',(0.,-1.,0.));
#678=DIRECTION('ref_axis',(0.,0.,-1.));
#679=DIRECTION('',(0.,0.,-1.));
#680=DIRECTION('',(-1.,0.,0.));
#681=DIRECTION('',(0.,0.,1.));
#682=DIRECTION('center_axis',(0.,-1.,0.));
#683=DIRECTION('ref_axis',(0.,0.,-1.));
#684=DIRECTION('center_axis',(-1.,0.,0.));
#685=DIRECTION('ref_axis',(0.,-1.,0.));
#686=DIRECTION('',(0.,1.,0.));
#687=DIRECTION('',(0.,0.,1.));
#688=DIRECTION('',(0.,0.,-1.));
#689=DIRECTION('center_axis',(0.,0.,-1.));
#690=DIRECTION('ref_axis',(0.,1.,0.));
#691=DIRECTION('',(0.,0.,-1.));
#692=DIRECTION('center_axis',(0.,0.,-1.));
#693=DIRECTION('ref_axis',(0.,-1.,0.));
#694=DIRECTION('center_axis',(0.,0.,-1.));
#695=DIRECTION('ref_axis',(0.,1.,0.));
#696=DIRECTION('',(0.,0.,-1.));
#697=DIRECTION('center_axis',(0.,0.,-1.));
#698=DIRECTION('ref_axis',(0.,-1.,0.));
#699=DIRECTION('center_axis',(0.,0.,1.));
#700=DIRECTION('ref_axis',(1.,0.,0.));
#701=DIRECTION('center_axis',(0.,0.,-1.));
#702=DIRECTION('ref_axis',(0.,-1.,0.));
#703=DIRECTION('center_axis',(0.,0.,-1.));
#704=DIRECTION('ref_axis',(0.,-1.,0.));
#705=DIRECTION('center_axis',(0.,0.,-1.));
#706=DIRECTION('ref_axis',(0.,-1.,0.));
#707=DIRECTION('center_axis',(0.,0.,-1.));
#708=DIRECTION('ref_axis',(0.,-1.,0.));
#709=DIRECTION('center_axis',(0.,0.,-1.));
#710=DIRECTION('ref_axis',(0.,1.,0.));
#711=DIRECTION('center_axis',(0.,0.,1.));
#712=DIRECTION('ref_axis',(0.,-1.,0.));
#713=DIRECTION('center_axis',(0.,0.,1.));
#714=DIRECTION('ref_axis',(0.,-1.,0.));
#715=DIRECTION('center_axis',(0.,0.,-1.));
#716=DIRECTION('ref_axis',(0.,1.,0.));
#717=DIRECTION('center_axis',(-1.,0.,0.));
#718=DIRECTION('ref_axis',(0.,0.,1.));
#719=DIRECTION('',(0.,-1.,0.));
#720=DIRECTION('center_axis',(-1.,0.,0.));
#721=DIRECTION('ref_axis',(0.,0.,1.));
#722=DIRECTION('',(0.,1.,0.));
#723=DIRECTION('center_axis',(-1.,0.,0.));
#724=DIRECTION('ref_axis',(0.,0.,1.));
#725=DIRECTION('center_axis',(-1.,0.,0.));
#726=DIRECTION('ref_axis',(0.,0.,1.));
#727=DIRECTION('',(0.,1.,0.));
#728=DIRECTION('center_axis',(1.,0.,0.));
#729=DIRECTION('ref_axis',(0.,0.,1.));
#730=DIRECTION('',(0.,1.,0.));
#731=DIRECTION('center_axis',(1.,0.,0.));
#732=DIRECTION('ref_axis',(0.,0.,1.));
#733=DIRECTION('center_axis',(0.,0.,1.));
#734=DIRECTION('ref_axis',(1.,0.,0.));
#735=DIRECTION('',(1.,0.,0.));
#736=DIRECTION('',(-1.,0.,0.));
#737=DIRECTION('center_axis',(-1.,0.,0.));
#738=DIRECTION('ref_axis',(0.,-1.,0.));
#739=DIRECTION('center_axis',(1.,0.,0.));
#740=DIRECTION('ref_axis',(0.,1.,0.));
#741=DIRECTION('center_axis',(0.,-1.,0.));
#742=DIRECTION('ref_axis',(0.,0.,-1.));
#743=DIRECTION('center_axis',(0.,-1.,0.));
#744=DIRECTION('ref_axis',(0.,0.,-1.));
#745=DIRECTION('center_axis',(0.,-0.945372981764423,0.325990682918767));
#746=DIRECTION('ref_axis',(0.,-0.325990682918767,-0.945372981764423));
#747=DIRECTION('',(0.,0.325990682918767,0.945372981764423));
#748=DIRECTION('',(0.,0.325990682918767,0.945372981764423));
#749=DIRECTION('center_axis',(-1.,0.,0.));
#750=DIRECTION('ref_axis',(0.,-1.,0.));
#751=DIRECTION('center_axis',(-1.,0.,0.));
#752=DIRECTION('ref_axis',(0.,-1.,0.));
#753=CARTESIAN_POINT('',(0.,0.,0.));
#754=CARTESIAN_POINT('Origin',(-196.558999246,59.696425188,200.422495787));
#755=CARTESIAN_POINT('',(-200.558999246,55.1964251885185,187.372495787));
#756=CARTESIAN_POINT('',(-200.558999246,64.1964251843566,213.47249578896));
#757=CARTESIAN_POINT('',(-200.558999246,55.196425188,187.372495787));
#758=CARTESIAN_POINT('',(-196.558999246,55.1964251885185,187.372495787));
#759=CARTESIAN_POINT('',(-196.558999246,55.196425188,187.372495787));
#760=CARTESIAN_POINT('',(-196.558999246,64.1964251843566,213.47249578896));
#761=CARTESIAN_POINT('',(-196.558999246,55.196425188,187.372495787));
#762=CARTESIAN_POINT('',(-196.558999246,64.196425188,213.472495787));
#763=CARTESIAN_POINT('Origin',(-196.558999246,0.,70.));
#764=CARTESIAN_POINT('',(-196.558999246,64.196425188,187.372495787));
#765=CARTESIAN_POINT('',(-196.558999246,64.196425188,187.372495787));
#766=CARTESIAN_POINT('',(-196.558999246,64.196425188,213.472495787));
#767=CARTESIAN_POINT('Origin',(-200.558999246,0.,70.));
#768=CARTESIAN_POINT('',(-200.558999246,64.196425188,187.372495787));
#769=CARTESIAN_POINT('',(-200.558999246,64.196425188,213.472495787));
#770=CARTESIAN_POINT('',(-200.558999246,64.196425188,187.372495787));
#771=CARTESIAN_POINT('Origin',(-218.558999246,64.196425188,227.372495787));
#772=CARTESIAN_POINT('',(-182.558999246,64.196425188,187.372495787));
#773=CARTESIAN_POINT('',(-182.558999246,64.196425188,187.372495787));
#774=CARTESIAN_POINT('',(-188.558999246,64.196425188,193.372495787));
#775=CARTESIAN_POINT('Origin',(-182.558999246,64.196425188,193.372495787));
#776=CARTESIAN_POINT('',(-188.558999246,64.196425188,233.572495787));
#777=CARTESIAN_POINT('',(-188.558999246,64.196425188,233.572495787));
#778=CARTESIAN_POINT('',(-228.558999246,64.196425188,233.572495787));
#779=CARTESIAN_POINT('',(-188.558999246,64.196425188,233.572495787));
#780=CARTESIAN_POINT('',(-228.558999246,64.196425188,193.372495787));
#781=CARTESIAN_POINT('',(-228.558999246,64.196425188,233.572495787));
#782=CARTESIAN_POINT('',(-234.558999246,64.196425188,187.372495787));
#783=CARTESIAN_POINT('Origin',(-234.558999246,64.196425188,193.372495787));
#784=CARTESIAN_POINT('',(-220.558999246,64.196425188,187.372495787));
#785=CARTESIAN_POINT('',(-220.558999246,64.196425188,187.372495787));
#786=CARTESIAN_POINT('',(-220.558999246,64.1964251843566,213.47249578896));
#787=CARTESIAN_POINT('',(-220.558999246,64.196425188,213.472495787));
#788=CARTESIAN_POINT('',(-216.558999246,64.1964251843566,213.47249578896));
#789=CARTESIAN_POINT('',(-216.558999246,64.196425188,213.472495787));
#790=CARTESIAN_POINT('',(-216.558999246,64.196425188,187.372495787));
#791=CARTESIAN_POINT('',(-216.558999246,64.196425188,213.472495787));
#792=CARTESIAN_POINT('',(-200.558999246,64.196425188,187.372495787));
#793=CARTESIAN_POINT('Origin',(0.,0.,187.372495787));
#794=CARTESIAN_POINT('',(-216.558999246,55.1964251885185,187.372495787));
#795=CARTESIAN_POINT('',(-216.558999246,64.196425188,187.372495787));
#796=CARTESIAN_POINT('',(-216.558999246,55.196425188,187.372495787));
#797=CARTESIAN_POINT('Origin',(0.,0.,187.372495787));
#798=CARTESIAN_POINT('',(-174.058999246,55.196425188,187.372495787));
#799=CARTESIAN_POINT('',(-196.558999246,55.196425188,187.372495787));
#800=CARTESIAN_POINT('',(-171.058999246,58.196425188,187.372495787));
#801=CARTESIAN_POINT('Origin',(-174.058999246,58.196425188,187.372495787));
#802=CARTESIAN_POINT('',(-171.058999246,66.196425188,187.372495787));
#803=CARTESIAN_POINT('',(-171.058999246,58.196425188,187.372495787));
#804=CARTESIAN_POINT('',(-177.058999246,72.196425188,187.372495787));
#805=CARTESIAN_POINT('Origin',(-177.058999246,66.196425188,187.372495787));
#806=CARTESIAN_POINT('',(-182.558999246,72.196425188,187.372495787));
#807=CARTESIAN_POINT('',(-177.058999246,72.196425188,187.372495787));
#808=CARTESIAN_POINT('',(-182.558999246,72.196425188,187.372495787));
#809=CARTESIAN_POINT('',(-177.058999246,57.696425188,187.372495787));
#810=CARTESIAN_POINT('Origin',(-177.058999246,59.696425188,187.372495787));
#811=CARTESIAN_POINT('Origin',(0.,0.,187.372495787));
#812=CARTESIAN_POINT('',(-220.558999246,55.1964251885185,187.372495787));
#813=CARTESIAN_POINT('',(-220.558999246,64.196425188,187.372495787));
#814=CARTESIAN_POINT('',(-234.558999246,72.196425188,187.372495787));
#815=CARTESIAN_POINT('',(-234.558999246,64.196425188,187.372495787));
#816=CARTESIAN_POINT('',(-240.058999246,72.196425188,187.372495787));
#817=CARTESIAN_POINT('',(-234.558999246,72.196425188,187.372495787));
#818=CARTESIAN_POINT('',(-246.058999246,66.196425188,187.372495787));
#819=CARTESIAN_POINT('Origin',(-240.058999246,66.196425188,187.372495787));
#820=CARTESIAN_POINT('',(-246.058999246,58.196425188,187.372495787));
#821=CARTESIAN_POINT('',(-246.058999246,58.196425188,187.372495787));
#822=CARTESIAN_POINT('',(-243.058999246,55.196425188,187.372495787));
#823=CARTESIAN_POINT('Origin',(-243.058999246,58.196425188,187.372495787));
#824=CARTESIAN_POINT('',(-243.058999246,55.196425188,187.372495787));
#825=CARTESIAN_POINT('',(-240.058999246,57.696425188,187.372495787));
#826=CARTESIAN_POINT('Origin',(-240.058999246,59.696425188,187.372495787));
#827=CARTESIAN_POINT('Origin',(-208.558999246,55.196425188,187.372495787));
#828=CARTESIAN_POINT('',(-243.058999246,55.196425188,182.372495787));
#829=CARTESIAN_POINT('',(-174.058999246,55.196425188,182.372495787));
#830=CARTESIAN_POINT('',(-243.058999246,55.196425188,182.372495787));
#831=CARTESIAN_POINT('',(-174.058999246,55.196425188,182.372495787));
#832=CARTESIAN_POINT('',(-216.558999246,55.196425188,187.372495787));
#833=CARTESIAN_POINT('',(-243.058999246,55.196425188,187.372495787));
#834=CARTESIAN_POINT('Origin',(-171.058999246,61.946425188,187.372495787));
#835=CARTESIAN_POINT('',(-171.058999246,58.196425188,182.372495787));
#836=CARTESIAN_POINT('',(-171.058999246,58.196425188,187.372495787));
#837=CARTESIAN_POINT('',(-171.058999246,66.196425188,182.372495787));
#838=CARTESIAN_POINT('',(-171.058999246,58.196425188,182.372495787));
#839=CARTESIAN_POINT('',(-171.058999246,66.196425188,182.372495787));
#840=CARTESIAN_POINT('Origin',(-208.558999246,72.196425188,187.372495787));
#841=CARTESIAN_POINT('',(-228.558999246,72.196425188,233.572495787));
#842=CARTESIAN_POINT('',(-228.558999246,72.196425188,193.372495787));
#843=CARTESIAN_POINT('',(-228.558999246,72.196425188,233.572495787));
#844=CARTESIAN_POINT('',(-188.558999246,72.196425188,233.572495787));
#845=CARTESIAN_POINT('',(-228.558999246,72.196425188,233.572495787));
#846=CARTESIAN_POINT('',(-188.558999246,72.196425188,193.372495787));
#847=CARTESIAN_POINT('',(-188.558999246,72.196425188,233.572495787));
#848=CARTESIAN_POINT('Origin',(-182.558999246,72.196425188,193.372495787));
#849=CARTESIAN_POINT('',(-177.058999246,72.196425188,182.372495787));
#850=CARTESIAN_POINT('',(-177.058999246,72.196425188,187.372495787));
#851=CARTESIAN_POINT('',(-240.058999246,72.196425188,182.372495787));
#852=CARTESIAN_POINT('',(-177.058999246,72.196425188,182.372495787));
#853=CARTESIAN_POINT('',(-240.058999246,72.196425188,182.372495787));
#854=CARTESIAN_POINT('Origin',(-234.558999246,72.196425188,193.372495787));
#855=CARTESIAN_POINT('Origin',(-246.058999246,61.946425188,187.372495787));
#856=CARTESIAN_POINT('',(-246.058999246,58.196425188,182.372495787));
#857=CARTESIAN_POINT('',(-246.058999246,66.196425188,182.372495787));
#858=CARTESIAN_POINT('',(-246.058999246,58.196425188,182.372495787));
#859=CARTESIAN_POINT('',(-246.058999246,58.196425188,182.372495787));
#860=CARTESIAN_POINT('',(-246.058999246,66.196425188,187.372495787));
#861=CARTESIAN_POINT('Origin',(-177.058999246,59.696425188,187.372495787));
#862=CARTESIAN_POINT('',(-177.058999246,57.696425188,182.372495787));
#863=CARTESIAN_POINT('',(-177.058999246,57.696425188,187.372495787));
#864=CARTESIAN_POINT('Origin',(-177.058999246,59.696425188,182.372495787));
#865=CARTESIAN_POINT('Origin',(-240.058999246,59.696425188,187.372495787));
#866=CARTESIAN_POINT('',(-240.058999246,57.696425188,182.372495787));
#867=CARTESIAN_POINT('',(-240.058999246,57.696425188,187.372495787));
#868=CARTESIAN_POINT('Origin',(-240.058999246,59.696425188,182.372495787));
#869=CARTESIAN_POINT('Origin',(0.,0.,182.372495787));
#870=CARTESIAN_POINT('Origin',(-174.058999246,58.196425188,182.372495787));
#871=CARTESIAN_POINT('Origin',(-243.058999246,58.196425188,182.372495787));
#872=CARTESIAN_POINT('Origin',(-240.058999246,66.196425188,182.372495787));
#873=CARTESIAN_POINT('Origin',(-177.058999246,66.196425188,182.372495787));
#874=CARTESIAN_POINT('Origin',(-177.058999246,66.196425188,187.372495787));
#875=CARTESIAN_POINT('Origin',(-240.058999246,66.196425188,187.372495787));
#876=CARTESIAN_POINT('Origin',(-243.058999246,58.196425188,187.372495787));
#877=CARTESIAN_POINT('Origin',(-174.058999246,58.196425188,187.372495787));
#878=CARTESIAN_POINT('Origin',(-228.558999246,65.196425188,227.372495787));
#879=CARTESIAN_POINT('',(-228.558999246,72.196425188,193.372495787));
#880=CARTESIAN_POINT('',(-228.558999246,67.796425188,237.172495787));
#881=CARTESIAN_POINT('Origin',(-228.558999246,67.796425188,233.572495787));
#882=CARTESIAN_POINT('',(-228.558999246,68.596425188,237.172495787));
#883=CARTESIAN_POINT('',(-228.558999246,67.796425188,237.172495787));
#884=CARTESIAN_POINT('Origin',(-228.558999246,68.596425188,233.572495787));
#885=CARTESIAN_POINT('Origin',(-188.558999246,65.196425188,227.372495787));
#886=CARTESIAN_POINT('',(-188.558999246,64.196425188,193.372495787));
#887=CARTESIAN_POINT('',(-188.558999246,68.596425188,237.172495787));
#888=CARTESIAN_POINT('Origin',(-188.558999246,68.596425188,233.572495787));
#889=CARTESIAN_POINT('',(-188.558999246,67.796425188,237.172495787));
#890=CARTESIAN_POINT('',(-188.558999246,67.796425188,237.172495787));
#891=CARTESIAN_POINT('Origin',(-188.558999246,67.796425188,233.572495787));
#892=CARTESIAN_POINT('Origin',(0.,0.,237.172495787));
#893=CARTESIAN_POINT('',(-228.558999246,67.796425188,237.172495787));
#894=CARTESIAN_POINT('',(-188.558999246,68.596425188,237.172495787));
#895=CARTESIAN_POINT('Origin',(-218.558999246,67.796425188,233.572495787));
#896=CARTESIAN_POINT('Origin',(0.,68.596425188,233.572495787));
#897=CARTESIAN_POINT('Origin',(-234.558999246,0.,193.372495787));
#898=CARTESIAN_POINT('Origin',(-182.558999246,0.,193.372495787));
#899=CARTESIAN_POINT('Origin',(-216.558999246,59.696425188,200.422495787));
#900=CARTESIAN_POINT('',(-220.558999246,55.196425188,187.372495787));
#901=CARTESIAN_POINT('',(-216.558999246,55.196425188,187.372495787));
#902=CARTESIAN_POINT('Origin',(-216.558999246,0.,70.));
#903=CARTESIAN_POINT('Origin',(-220.558999246,0.,70.));
#904=UNCERTAINTY_MEASURE_WITH_UNIT(LENGTH_MEASURE(0.01),#908,
'DISTANCE_ACCURACY_VALUE',
'Maximum model space distance between geometric entities at asserted c
onnectivities');
#905=UNCERTAINTY_MEASURE_WITH_UNIT(LENGTH_MEASURE(0.01),#908,
'DISTANCE_ACCURACY_VALUE',
'Maximum model space distance between geometric entities at asserted c
onnectivities');
#906=(
GEOMETRIC_REPRESENTATION_CONTEXT(3)
GLOBAL_UNCERTAINTY_ASSIGNED_CONTEXT((#904))
GLOBAL_UNIT_ASSIGNED_CONTEXT((#908,#910,#911))
REPRESENTATION_CONTEXT('','3D')
);
#907=(
GEOMETRIC_REPRESENTATION_CONTEXT(3)
GLOBAL_UNCERTAINTY_ASSIGNED_CONTEXT((#905))
GLOBAL_UNIT_ASSIGNED_CONTEXT((#908,#910,#911))
REPRESENTATION_CONTEXT('','3D')
);
#908=(
LENGTH_UNIT()
NAMED_UNIT(*)
SI_UNIT(.MILLI.,.METRE.)
);
#909=(
LENGTH_UNIT()
NAMED_UNIT(*)
SI_UNIT(.CENTI.,.METRE.)
);
#910=(
NAMED_UNIT(*)
PLANE_ANGLE_UNIT()
SI_UNIT($,.RADIAN.)
);
#911=(
NAMED_UNIT(*)
SI_UNIT($,.STERADIAN.)
SOLID_ANGLE_UNIT()
);
#912=SHAPE_DEFINITION_REPRESENTATION(#913,#914);
#913=PRODUCT_DEFINITION_SHAPE('',$,#916);
#914=SHAPE_REPRESENTATION('',(#552),#906);
#915=PRODUCT_DEFINITION_CONTEXT('part definition',#920,'design');
#916=PRODUCT_DEFINITION('guard 2','guard 2',#917,#915);
#917=PRODUCT_DEFINITION_FORMATION('',$,#922);
#918=PRODUCT_RELATED_PRODUCT_CATEGORY('guard 2','guard 2',(#922));
#919=APPLICATION_PROTOCOL_DEFINITION('international standard',
'automotive_design',2009,#920);
#920=APPLICATION_CONTEXT(
'Core Data for Automotive Mechanical Design Process');
#921=PRODUCT_CONTEXT('part definition',#920,'mechanical');
#922=PRODUCT('guard 2','guard 2','HOOPS Exchange Step',(#921));
#923=PRESENTATION_STYLE_ASSIGNMENT((#925));
#924=PRESENTATION_STYLE_ASSIGNMENT((#926));
#925=SURFACE_STYLE_USAGE(.BOTH.,#931);
#926=SURFACE_STYLE_USAGE(.BOTH.,#932);
#927=SURFACE_STYLE_RENDERING_WITH_PROPERTIES($,#939,(#929));
#928=SURFACE_STYLE_RENDERING_WITH_PROPERTIES($,#940,(#930));
#929=SURFACE_STYLE_TRANSPARENT(0.);
#930=SURFACE_STYLE_TRANSPARENT(0.);
#931=SURFACE_SIDE_STYLE('',(#933,#927));
#932=SURFACE_SIDE_STYLE('',(#934,#928));
#933=SURFACE_STYLE_FILL_AREA(#935);
#934=SURFACE_STYLE_FILL_AREA(#936);
#935=FILL_AREA_STYLE('',(#937));
#936=FILL_AREA_STYLE('',(#938));
#937=FILL_AREA_STYLE_COLOUR('',#939);
#938=FILL_AREA_STYLE_COLOUR('',#940);
#939=COLOUR_RGB('',0.92156862745098,0.92156862745098,0.92156862745098);
#940=COLOUR_RGB('',0.494117647058824,0.494117647058824,0.525490196078431);
ENDSEC;
END-ISO-10303-21;
