ISO-10303-21;
HEADER;
/* Generated by software containing ST-Developer
 * from STEP Tools, Inc. (www.steptools.com) 
 */

FILE_DESCRIPTION(
/* description */ (''),
/* implementation_level */ '2;1');

FILE_NAME(
/* name */ 
'I:\\ASU_FOE\\graduation project\\quadcopter\\matlab xml\\231123\\\\Jo
int1C_1_ipt_b9e6bb9f.STEP',
/* time_stamp */ '2023-11-23T19:53:38+02:00',
/* author */ ('user'),
/* organization */ (''),
/* preprocessor_version */ 'ST-DEVELOPER v18.1',
/* originating_system */ 'Autodesk Inventor 2021',
/* authorisation */ '');

FILE_SCHEMA (('AUTOMOTIVE_DESIGN { 1 0 10303 214 3 1 1 }'));
ENDSEC;

DATA;
#10=MECHANICAL_DESIGN_GEOMETRIC_PRESENTATION_REPRESENTATION('',(#13),#740);
#11=SHAPE_REPRESENTATION_RELATIONSHIP('SRR','None',#747,#12);
#12=ADVANCED_BREP_SHAPE_REPRESENTATION('',(#14),#739);
#13=STYLED_ITEM('',(#756),#14);
#14=MANIFOLD_SOLID_BREP('Solid1',#414);
#15=FACE_BOUND('',#73,.T.);
#16=FACE_BOUND('',#74,.T.);
#17=FACE_BOUND('',#75,.T.);
#18=FACE_BOUND('',#76,.T.);
#19=FACE_BOUND('',#77,.T.);
#20=FACE_BOUND('',#78,.T.);
#21=FACE_BOUND('',#80,.T.);
#22=FACE_BOUND('',#81,.T.);
#23=FACE_BOUND('',#82,.T.);
#24=FACE_BOUND('',#83,.T.);
#25=FACE_BOUND('',#84,.T.);
#26=FACE_BOUND('',#85,.T.);
#27=PLANE('',#482);
#28=PLANE('',#483);
#29=PLANE('',#484);
#30=PLANE('',#485);
#31=PLANE('',#486);
#32=FACE_OUTER_BOUND('',#53,.T.);
#33=FACE_OUTER_BOUND('',#54,.T.);
#34=FACE_OUTER_BOUND('',#55,.T.);
#35=FACE_OUTER_BOUND('',#56,.T.);
#36=FACE_OUTER_BOUND('',#57,.T.);
#37=FACE_OUTER_BOUND('',#58,.T.);
#38=FACE_OUTER_BOUND('',#59,.T.);
#39=FACE_OUTER_BOUND('',#60,.T.);
#40=FACE_OUTER_BOUND('',#61,.T.);
#41=FACE_OUTER_BOUND('',#62,.T.);
#42=FACE_OUTER_BOUND('',#63,.T.);
#43=FACE_OUTER_BOUND('',#64,.T.);
#44=FACE_OUTER_BOUND('',#65,.T.);
#45=FACE_OUTER_BOUND('',#66,.T.);
#46=FACE_OUTER_BOUND('',#67,.T.);
#47=FACE_OUTER_BOUND('',#68,.T.);
#48=FACE_OUTER_BOUND('',#69,.T.);
#49=FACE_OUTER_BOUND('',#70,.T.);
#50=FACE_OUTER_BOUND('',#71,.T.);
#51=FACE_OUTER_BOUND('',#72,.T.);
#52=FACE_OUTER_BOUND('',#79,.T.);
#53=EDGE_LOOP('',(#263,#264,#265,#266));
#54=EDGE_LOOP('',(#267,#268,#269,#270));
#55=EDGE_LOOP('',(#271,#272,#273,#274));
#56=EDGE_LOOP('',(#275,#276,#277,#278));
#57=EDGE_LOOP('',(#279,#280,#281,#282));
#58=EDGE_LOOP('',(#283,#284,#285,#286));
#59=EDGE_LOOP('',(#287,#288,#289,#290));
#60=EDGE_LOOP('',(#291,#292,#293,#294));
#61=EDGE_LOOP('',(#295,#296,#297,#298));
#62=EDGE_LOOP('',(#299,#300,#301,#302));
#63=EDGE_LOOP('',(#303,#304,#305,#306));
#64=EDGE_LOOP('',(#307,#308,#309,#310));
#65=EDGE_LOOP('',(#311,#312,#313,#314));
#66=EDGE_LOOP('',(#315,#316,#317,#318));
#67=EDGE_LOOP('',(#319,#320,#321,#322));
#68=EDGE_LOOP('',(#323,#324,#325,#326));
#69=EDGE_LOOP('',(#327,#328,#329,#330));
#70=EDGE_LOOP('',(#331,#332,#333,#334));
#71=EDGE_LOOP('',(#335,#336,#337,#338));
#72=EDGE_LOOP('',(#339,#340,#341,#342));
#73=EDGE_LOOP('',(#343));
#74=EDGE_LOOP('',(#344));
#75=EDGE_LOOP('',(#345,#346,#347,#348));
#76=EDGE_LOOP('',(#349,#350,#351,#352));
#77=EDGE_LOOP('',(#353,#354,#355,#356));
#78=EDGE_LOOP('',(#357));
#79=EDGE_LOOP('',(#358,#359,#360,#361));
#80=EDGE_LOOP('',(#362));
#81=EDGE_LOOP('',(#363));
#82=EDGE_LOOP('',(#364,#365,#366,#367));
#83=EDGE_LOOP('',(#368,#369,#370,#371));
#84=EDGE_LOOP('',(#372,#373,#374,#375));
#85=EDGE_LOOP('',(#376));
#86=LINE('',#625,#111);
#87=LINE('',#632,#112);
#88=LINE('',#635,#113);
#89=LINE('',#641,#114);
#90=LINE('',#647,#115);
#91=LINE('',#656,#116);
#92=LINE('',#659,#117);
#93=LINE('',#665,#118);
#94=LINE('',#671,#119);
#95=LINE('',#680,#120);
#96=LINE('',#683,#121);
#97=LINE('',#689,#122);
#98=LINE('',#695,#123);
#99=LINE('',#703,#124);
#100=LINE('',#709,#125);
#101=LINE('',#716,#126);
#102=LINE('',#719,#127);
#103=LINE('',#722,#128);
#104=LINE('',#724,#129);
#105=LINE('',#725,#130);
#106=LINE('',#728,#131);
#107=LINE('',#730,#132);
#108=LINE('',#731,#133);
#109=LINE('',#733,#134);
#110=LINE('',#734,#135);
#111=VECTOR('',#493,10.5);
#112=VECTOR('',#500,10.);
#113=VECTOR('',#503,10.);
#114=VECTOR('',#510,10.);
#115=VECTOR('',#517,10.);
#116=VECTOR('',#528,10.);
#117=VECTOR('',#531,10.);
#118=VECTOR('',#538,10.);
#119=VECTOR('',#545,10.);
#120=VECTOR('',#556,10.);
#121=VECTOR('',#559,10.);
#122=VECTOR('',#566,10.);
#123=VECTOR('',#573,10.);
#124=VECTOR('',#584,2.25);
#125=VECTOR('',#591,2.25);
#126=VECTOR('',#598,10.);
#127=VECTOR('',#601,10.);
#128=VECTOR('',#604,10.);
#129=VECTOR('',#605,10.);
#130=VECTOR('',#606,10.);
#131=VECTOR('',#609,10.);
#132=VECTOR('',#610,10.);
#133=VECTOR('',#611,10.);
#134=VECTOR('',#614,10.);
#135=VECTOR('',#615,10.);
#136=CIRCLE('',#435,10.5);
#137=CIRCLE('',#436,10.5);
#138=CIRCLE('',#438,1.2295);
#139=CIRCLE('',#439,1.2295);
#140=CIRCLE('',#441,16.2983420258498);
#141=CIRCLE('',#442,16.2983420258498);
#142=CIRCLE('',#444,1.2295);
#143=CIRCLE('',#445,1.2295);
#144=CIRCLE('',#447,13.8393420258498);
#145=CIRCLE('',#448,13.8393420258498);
#146=CIRCLE('',#450,1.2295);
#147=CIRCLE('',#451,1.2295);
#148=CIRCLE('',#453,16.2983420258478);
#149=CIRCLE('',#454,16.2983420258478);
#150=CIRCLE('',#456,1.2295);
#151=CIRCLE('',#457,1.2295);
#152=CIRCLE('',#459,13.8393420258478);
#153=CIRCLE('',#460,13.8393420258478);
#154=CIRCLE('',#462,1.2295);
#155=CIRCLE('',#463,1.2295);
#156=CIRCLE('',#465,16.2983420258501);
#157=CIRCLE('',#466,16.2983420258501);
#158=CIRCLE('',#468,1.2295);
#159=CIRCLE('',#469,1.2295);
#160=CIRCLE('',#471,13.8393420258501);
#161=CIRCLE('',#472,13.8393420258501);
#162=CIRCLE('',#474,2.25);
#163=CIRCLE('',#475,2.25);
#164=CIRCLE('',#477,2.25);
#165=CIRCLE('',#478,2.25);
#166=CIRCLE('',#480,19.25);
#167=CIRCLE('',#481,19.25);
#168=VERTEX_POINT('',#622);
#169=VERTEX_POINT('',#624);
#170=VERTEX_POINT('',#628);
#171=VERTEX_POINT('',#629);
#172=VERTEX_POINT('',#631);
#173=VERTEX_POINT('',#633);
#174=VERTEX_POINT('',#637);
#175=VERTEX_POINT('',#639);
#176=VERTEX_POINT('',#643);
#177=VERTEX_POINT('',#645);
#178=VERTEX_POINT('',#652);
#179=VERTEX_POINT('',#653);
#180=VERTEX_POINT('',#655);
#181=VERTEX_POINT('',#657);
#182=VERTEX_POINT('',#661);
#183=VERTEX_POINT('',#663);
#184=VERTEX_POINT('',#667);
#185=VERTEX_POINT('',#669);
#186=VERTEX_POINT('',#676);
#187=VERTEX_POINT('',#677);
#188=VERTEX_POINT('',#679);
#189=VERTEX_POINT('',#681);
#190=VERTEX_POINT('',#685);
#191=VERTEX_POINT('',#687);
#192=VERTEX_POINT('',#691);
#193=VERTEX_POINT('',#693);
#194=VERTEX_POINT('',#700);
#195=VERTEX_POINT('',#702);
#196=VERTEX_POINT('',#706);
#197=VERTEX_POINT('',#708);
#198=VERTEX_POINT('',#712);
#199=VERTEX_POINT('',#713);
#200=VERTEX_POINT('',#715);
#201=VERTEX_POINT('',#717);
#202=VERTEX_POINT('',#721);
#203=VERTEX_POINT('',#723);
#204=VERTEX_POINT('',#727);
#205=VERTEX_POINT('',#729);
#206=EDGE_CURVE('',#168,#168,#136,.T.);
#207=EDGE_CURVE('',#168,#169,#86,.T.);
#208=EDGE_CURVE('',#169,#169,#137,.T.);
#209=EDGE_CURVE('',#170,#171,#138,.T.);
#210=EDGE_CURVE('',#171,#172,#87,.T.);
#211=EDGE_CURVE('',#173,#172,#139,.T.);
#212=EDGE_CURVE('',#170,#173,#88,.T.);
#213=EDGE_CURVE('',#174,#170,#140,.T.);
#214=EDGE_CURVE('',#175,#173,#141,.T.);
#215=EDGE_CURVE('',#174,#175,#89,.T.);
#216=EDGE_CURVE('',#176,#174,#142,.T.);
#217=EDGE_CURVE('',#177,#175,#143,.T.);
#218=EDGE_CURVE('',#176,#177,#90,.T.);
#219=EDGE_CURVE('',#171,#176,#144,.T.);
#220=EDGE_CURVE('',#172,#177,#145,.T.);
#221=EDGE_CURVE('',#178,#179,#146,.T.);
#222=EDGE_CURVE('',#179,#180,#91,.T.);
#223=EDGE_CURVE('',#181,#180,#147,.T.);
#224=EDGE_CURVE('',#178,#181,#92,.T.);
#225=EDGE_CURVE('',#182,#178,#148,.T.);
#226=EDGE_CURVE('',#183,#181,#149,.T.);
#227=EDGE_CURVE('',#182,#183,#93,.T.);
#228=EDGE_CURVE('',#184,#182,#150,.T.);
#229=EDGE_CURVE('',#185,#183,#151,.T.);
#230=EDGE_CURVE('',#184,#185,#94,.T.);
#231=EDGE_CURVE('',#179,#184,#152,.T.);
#232=EDGE_CURVE('',#180,#185,#153,.T.);
#233=EDGE_CURVE('',#186,#187,#154,.T.);
#234=EDGE_CURVE('',#187,#188,#95,.T.);
#235=EDGE_CURVE('',#189,#188,#155,.T.);
#236=EDGE_CURVE('',#186,#189,#96,.T.);
#237=EDGE_CURVE('',#190,#186,#156,.T.);
#238=EDGE_CURVE('',#191,#189,#157,.T.);
#239=EDGE_CURVE('',#190,#191,#97,.T.);
#240=EDGE_CURVE('',#192,#190,#158,.T.);
#241=EDGE_CURVE('',#193,#191,#159,.T.);
#242=EDGE_CURVE('',#192,#193,#98,.T.);
#243=EDGE_CURVE('',#187,#192,#160,.T.);
#244=EDGE_CURVE('',#188,#193,#161,.T.);
#245=EDGE_CURVE('',#194,#194,#162,.T.);
#246=EDGE_CURVE('',#194,#195,#99,.T.);
#247=EDGE_CURVE('',#195,#195,#163,.T.);
#248=EDGE_CURVE('',#196,#196,#164,.T.);
#249=EDGE_CURVE('',#196,#197,#100,.T.);
#250=EDGE_CURVE('',#197,#197,#165,.T.);
#251=EDGE_CURVE('',#198,#199,#166,.T.);
#252=EDGE_CURVE('',#199,#200,#101,.T.);
#253=EDGE_CURVE('',#201,#200,#167,.T.);
#254=EDGE_CURVE('',#198,#201,#102,.T.);
#255=EDGE_CURVE('',#202,#198,#103,.T.);
#256=EDGE_CURVE('',#203,#201,#104,.T.);
#257=EDGE_CURVE('',#202,#203,#105,.T.);
#258=EDGE_CURVE('',#204,#202,#106,.T.);
#259=EDGE_CURVE('',#205,#203,#107,.T.);
#260=EDGE_CURVE('',#204,#205,#108,.T.);
#261=EDGE_CURVE('',#199,#204,#109,.T.);
#262=EDGE_CURVE('',#200,#205,#110,.T.);
#263=ORIENTED_EDGE('',*,*,#206,.F.);
#264=ORIENTED_EDGE('',*,*,#207,.T.);
#265=ORIENTED_EDGE('',*,*,#208,.T.);
#266=ORIENTED_EDGE('',*,*,#207,.F.);
#267=ORIENTED_EDGE('',*,*,#209,.T.);
#268=ORIENTED_EDGE('',*,*,#210,.T.);
#269=ORIENTED_EDGE('',*,*,#211,.F.);
#270=ORIENTED_EDGE('',*,*,#212,.F.);
#271=ORIENTED_EDGE('',*,*,#213,.T.);
#272=ORIENTED_EDGE('',*,*,#212,.T.);
#273=ORIENTED_EDGE('',*,*,#214,.F.);
#274=ORIENTED_EDGE('',*,*,#215,.F.);
#275=ORIENTED_EDGE('',*,*,#216,.T.);
#276=ORIENTED_EDGE('',*,*,#215,.T.);
#277=ORIENTED_EDGE('',*,*,#217,.F.);
#278=ORIENTED_EDGE('',*,*,#218,.F.);
#279=ORIENTED_EDGE('',*,*,#219,.T.);
#280=ORIENTED_EDGE('',*,*,#218,.T.);
#281=ORIENTED_EDGE('',*,*,#220,.F.);
#282=ORIENTED_EDGE('',*,*,#210,.F.);
#283=ORIENTED_EDGE('',*,*,#221,.T.);
#284=ORIENTED_EDGE('',*,*,#222,.T.);
#285=ORIENTED_EDGE('',*,*,#223,.F.);
#286=ORIENTED_EDGE('',*,*,#224,.F.);
#287=ORIENTED_EDGE('',*,*,#225,.T.);
#288=ORIENTED_EDGE('',*,*,#224,.T.);
#289=ORIENTED_EDGE('',*,*,#226,.F.);
#290=ORIENTED_EDGE('',*,*,#227,.F.);
#291=ORIENTED_EDGE('',*,*,#228,.T.);
#292=ORIENTED_EDGE('',*,*,#227,.T.);
#293=ORIENTED_EDGE('',*,*,#229,.F.);
#294=ORIENTED_EDGE('',*,*,#230,.F.);
#295=ORIENTED_EDGE('',*,*,#231,.T.);
#296=ORIENTED_EDGE('',*,*,#230,.T.);
#297=ORIENTED_EDGE('',*,*,#232,.F.);
#298=ORIENTED_EDGE('',*,*,#222,.F.);
#299=ORIENTED_EDGE('',*,*,#233,.T.);
#300=ORIENTED_EDGE('',*,*,#234,.T.);
#301=ORIENTED_EDGE('',*,*,#235,.F.);
#302=ORIENTED_EDGE('',*,*,#236,.F.);
#303=ORIENTED_EDGE('',*,*,#237,.T.);
#304=ORIENTED_EDGE('',*,*,#236,.T.);
#305=ORIENTED_EDGE('',*,*,#238,.F.);
#306=ORIENTED_EDGE('',*,*,#239,.F.);
#307=ORIENTED_EDGE('',*,*,#240,.T.);
#308=ORIENTED_EDGE('',*,*,#239,.T.);
#309=ORIENTED_EDGE('',*,*,#241,.F.);
#310=ORIENTED_EDGE('',*,*,#242,.F.);
#311=ORIENTED_EDGE('',*,*,#243,.T.);
#312=ORIENTED_EDGE('',*,*,#242,.T.);
#313=ORIENTED_EDGE('',*,*,#244,.F.);
#314=ORIENTED_EDGE('',*,*,#234,.F.);
#315=ORIENTED_EDGE('',*,*,#245,.F.);
#316=ORIENTED_EDGE('',*,*,#246,.T.);
#317=ORIENTED_EDGE('',*,*,#247,.T.);
#318=ORIENTED_EDGE('',*,*,#246,.F.);
#319=ORIENTED_EDGE('',*,*,#248,.F.);
#320=ORIENTED_EDGE('',*,*,#249,.T.);
#321=ORIENTED_EDGE('',*,*,#250,.T.);
#322=ORIENTED_EDGE('',*,*,#249,.F.);
#323=ORIENTED_EDGE('',*,*,#251,.T.);
#324=ORIENTED_EDGE('',*,*,#252,.T.);
#325=ORIENTED_EDGE('',*,*,#253,.F.);
#326=ORIENTED_EDGE('',*,*,#254,.F.);
#327=ORIENTED_EDGE('',*,*,#255,.T.);
#328=ORIENTED_EDGE('',*,*,#254,.T.);
#329=ORIENTED_EDGE('',*,*,#256,.F.);
#330=ORIENTED_EDGE('',*,*,#257,.F.);
#331=ORIENTED_EDGE('',*,*,#258,.T.);
#332=ORIENTED_EDGE('',*,*,#257,.T.);
#333=ORIENTED_EDGE('',*,*,#259,.F.);
#334=ORIENTED_EDGE('',*,*,#260,.F.);
#335=ORIENTED_EDGE('',*,*,#261,.T.);
#336=ORIENTED_EDGE('',*,*,#260,.T.);
#337=ORIENTED_EDGE('',*,*,#262,.F.);
#338=ORIENTED_EDGE('',*,*,#252,.F.);
#339=ORIENTED_EDGE('',*,*,#262,.T.);
#340=ORIENTED_EDGE('',*,*,#259,.T.);
#341=ORIENTED_EDGE('',*,*,#256,.T.);
#342=ORIENTED_EDGE('',*,*,#253,.T.);
#343=ORIENTED_EDGE('',*,*,#248,.T.);
#344=ORIENTED_EDGE('',*,*,#245,.T.);
#345=ORIENTED_EDGE('',*,*,#244,.T.);
#346=ORIENTED_EDGE('',*,*,#241,.T.);
#347=ORIENTED_EDGE('',*,*,#238,.T.);
#348=ORIENTED_EDGE('',*,*,#235,.T.);
#349=ORIENTED_EDGE('',*,*,#232,.T.);
#350=ORIENTED_EDGE('',*,*,#229,.T.);
#351=ORIENTED_EDGE('',*,*,#226,.T.);
#352=ORIENTED_EDGE('',*,*,#223,.T.);
#353=ORIENTED_EDGE('',*,*,#220,.T.);
#354=ORIENTED_EDGE('',*,*,#217,.T.);
#355=ORIENTED_EDGE('',*,*,#214,.T.);
#356=ORIENTED_EDGE('',*,*,#211,.T.);
#357=ORIENTED_EDGE('',*,*,#206,.T.);
#358=ORIENTED_EDGE('',*,*,#261,.F.);
#359=ORIENTED_EDGE('',*,*,#251,.F.);
#360=ORIENTED_EDGE('',*,*,#255,.F.);
#361=ORIENTED_EDGE('',*,*,#258,.F.);
#362=ORIENTED_EDGE('',*,*,#250,.F.);
#363=ORIENTED_EDGE('',*,*,#247,.F.);
#364=ORIENTED_EDGE('',*,*,#243,.F.);
#365=ORIENTED_EDGE('',*,*,#233,.F.);
#366=ORIENTED_EDGE('',*,*,#237,.F.);
#367=ORIENTED_EDGE('',*,*,#240,.F.);
#368=ORIENTED_EDGE('',*,*,#231,.F.);
#369=ORIENTED_EDGE('',*,*,#221,.F.);
#370=ORIENTED_EDGE('',*,*,#225,.F.);
#371=ORIENTED_EDGE('',*,*,#228,.F.);
#372=ORIENTED_EDGE('',*,*,#219,.F.);
#373=ORIENTED_EDGE('',*,*,#209,.F.);
#374=ORIENTED_EDGE('',*,*,#213,.F.);
#375=ORIENTED_EDGE('',*,*,#216,.F.);
#376=ORIENTED_EDGE('',*,*,#208,.F.);
#377=CYLINDRICAL_SURFACE('',#434,10.5);
#378=CYLINDRICAL_SURFACE('',#437,1.2295);
#379=CYLINDRICAL_SURFACE('',#440,16.2983420258498);
#380=CYLINDRICAL_SURFACE('',#443,1.2295);
#381=CYLINDRICAL_SURFACE('',#446,13.8393420258498);
#382=CYLINDRICAL_SURFACE('',#449,1.2295);
#383=CYLINDRICAL_SURFACE('',#452,16.2983420258478);
#384=CYLINDRICAL_SURFACE('',#455,1.2295);
#385=CYLINDRICAL_SURFACE('',#458,13.8393420258478);
#386=CYLINDRICAL_SURFACE('',#461,1.2295);
#387=CYLINDRICAL_SURFACE('',#464,16.2983420258501);
#388=CYLINDRICAL_SURFACE('',#467,1.2295);
#389=CYLINDRICAL_SURFACE('',#470,13.8393420258501);
#390=CYLINDRICAL_SURFACE('',#473,2.25);
#391=CYLINDRICAL_SURFACE('',#476,2.25);
#392=CYLINDRICAL_SURFACE('',#479,19.25);
#393=ADVANCED_FACE('',(#32),#377,.F.);
#394=ADVANCED_FACE('',(#33),#378,.F.);
#395=ADVANCED_FACE('',(#34),#379,.F.);
#396=ADVANCED_FACE('',(#35),#380,.F.);
#397=ADVANCED_FACE('',(#36),#381,.T.);
#398=ADVANCED_FACE('',(#37),#382,.F.);
#399=ADVANCED_FACE('',(#38),#383,.F.);
#400=ADVANCED_FACE('',(#39),#384,.F.);
#401=ADVANCED_FACE('',(#40),#385,.T.);
#402=ADVANCED_FACE('',(#41),#386,.F.);
#403=ADVANCED_FACE('',(#42),#387,.F.);
#404=ADVANCED_FACE('',(#43),#388,.F.);
#405=ADVANCED_FACE('',(#44),#389,.T.);
#406=ADVANCED_FACE('',(#45),#390,.F.);
#407=ADVANCED_FACE('',(#46),#391,.F.);
#408=ADVANCED_FACE('',(#47),#392,.T.);
#409=ADVANCED_FACE('',(#48),#27,.T.);
#410=ADVANCED_FACE('',(#49),#28,.T.);
#411=ADVANCED_FACE('',(#50),#29,.T.);
#412=ADVANCED_FACE('',(#51,#15,#16,#17,#18,#19,#20),#30,.T.);
#413=ADVANCED_FACE('',(#52,#21,#22,#23,#24,#25,#26),#31,.F.);
#414=CLOSED_SHELL('',(#393,#394,#395,#396,#397,#398,#399,#400,#401,#402,
#403,#404,#405,#406,#407,#408,#409,#410,#411,#412,#413));
#415=DERIVED_UNIT_ELEMENT(#417,1.);
#416=DERIVED_UNIT_ELEMENT(#742,3.);
#417=(
MASS_UNIT()
NAMED_UNIT(*)
SI_UNIT($,.GRAM.)
);
#418=DERIVED_UNIT((#415,#416));
#419=MEASURE_REPRESENTATION_ITEM('density measure',
POSITIVE_RATIO_MEASURE(1.188),#418);
#420=PROPERTY_DEFINITION_REPRESENTATION(#425,#422);
#421=PROPERTY_DEFINITION_REPRESENTATION(#426,#423);
#422=REPRESENTATION('material name',(#424),#739);
#423=REPRESENTATION('density',(#419),#739);
#424=DESCRIPTIVE_REPRESENTATION_ITEM('PMMA Plastic','PMMA Plastic');
#425=PROPERTY_DEFINITION('material property','material name',#749);
#426=PROPERTY_DEFINITION('material property','density of part',#749);
#427=DATE_TIME_ROLE('creation_date');
#428=APPLIED_DATE_AND_TIME_ASSIGNMENT(#429,#427,(#749));
#429=DATE_AND_TIME(#430,#431);
#430=CALENDAR_DATE(2023,21,10);
#431=LOCAL_TIME(0,0,0.,#432);
#432=COORDINATED_UNIVERSAL_TIME_OFFSET(0,0,.BEHIND.);
#433=AXIS2_PLACEMENT_3D('placement',#620,#487,#488);
#434=AXIS2_PLACEMENT_3D('',#621,#489,#490);
#435=AXIS2_PLACEMENT_3D('',#623,#491,#492);
#436=AXIS2_PLACEMENT_3D('',#626,#494,#495);
#437=AXIS2_PLACEMENT_3D('',#627,#496,#497);
#438=AXIS2_PLACEMENT_3D('',#630,#498,#499);
#439=AXIS2_PLACEMENT_3D('',#634,#501,#502);
#440=AXIS2_PLACEMENT_3D('',#636,#504,#505);
#441=AXIS2_PLACEMENT_3D('',#638,#506,#507);
#442=AXIS2_PLACEMENT_3D('',#640,#508,#509);
#443=AXIS2_PLACEMENT_3D('',#642,#511,#512);
#444=AXIS2_PLACEMENT_3D('',#644,#513,#514);
#445=AXIS2_PLACEMENT_3D('',#646,#515,#516);
#446=AXIS2_PLACEMENT_3D('',#648,#518,#519);
#447=AXIS2_PLACEMENT_3D('',#649,#520,#521);
#448=AXIS2_PLACEMENT_3D('',#650,#522,#523);
#449=AXIS2_PLACEMENT_3D('',#651,#524,#525);
#450=AXIS2_PLACEMENT_3D('',#654,#526,#527);
#451=AXIS2_PLACEMENT_3D('',#658,#529,#530);
#452=AXIS2_PLACEMENT_3D('',#660,#532,#533);
#453=AXIS2_PLACEMENT_3D('',#662,#534,#535);
#454=AXIS2_PLACEMENT_3D('',#664,#536,#537);
#455=AXIS2_PLACEMENT_3D('',#666,#539,#540);
#456=AXIS2_PLACEMENT_3D('',#668,#541,#542);
#457=AXIS2_PLACEMENT_3D('',#670,#543,#544);
#458=AXIS2_PLACEMENT_3D('',#672,#546,#547);
#459=AXIS2_PLACEMENT_3D('',#673,#548,#549);
#460=AXIS2_PLACEMENT_3D('',#674,#550,#551);
#461=AXIS2_PLACEMENT_3D('',#675,#552,#553);
#462=AXIS2_PLACEMENT_3D('',#678,#554,#555);
#463=AXIS2_PLACEMENT_3D('',#682,#557,#558);
#464=AXIS2_PLACEMENT_3D('',#684,#560,#561);
#465=AXIS2_PLACEMENT_3D('',#686,#562,#563);
#466=AXIS2_PLACEMENT_3D('',#688,#564,#565);
#467=AXIS2_PLACEMENT_3D('',#690,#567,#568);
#468=AXIS2_PLACEMENT_3D('',#692,#569,#570);
#469=AXIS2_PLACEMENT_3D('',#694,#571,#572);
#470=AXIS2_PLACEMENT_3D('',#696,#574,#575);
#471=AXIS2_PLACEMENT_3D('',#697,#576,#577);
#472=AXIS2_PLACEMENT_3D('',#698,#578,#579);
#473=AXIS2_PLACEMENT_3D('',#699,#580,#581);
#474=AXIS2_PLACEMENT_3D('',#701,#582,#583);
#475=AXIS2_PLACEMENT_3D('',#704,#585,#586);
#476=AXIS2_PLACEMENT_3D('',#705,#587,#588);
#477=AXIS2_PLACEMENT_3D('',#707,#589,#590);
#478=AXIS2_PLACEMENT_3D('',#710,#592,#593);
#479=AXIS2_PLACEMENT_3D('',#711,#594,#595);
#480=AXIS2_PLACEMENT_3D('',#714,#596,#597);
#481=AXIS2_PLACEMENT_3D('',#718,#599,#600);
#482=AXIS2_PLACEMENT_3D('',#720,#602,#603);
#483=AXIS2_PLACEMENT_3D('',#726,#607,#608);
#484=AXIS2_PLACEMENT_3D('',#732,#612,#613);
#485=AXIS2_PLACEMENT_3D('',#735,#616,#617);
#486=AXIS2_PLACEMENT_3D('',#736,#618,#619);
#487=DIRECTION('axis',(0.,0.,1.));
#488=DIRECTION('refdir',(1.,0.,0.));
#489=DIRECTION('center_axis',(0.,0.,1.));
#490=DIRECTION('ref_axis',(-1.,0.,0.));
#491=DIRECTION('center_axis',(0.,0.,-1.));
#492=DIRECTION('ref_axis',(-1.,0.,0.));
#493=DIRECTION('',(0.,0.,-1.));
#494=DIRECTION('center_axis',(0.,0.,-1.));
#495=DIRECTION('ref_axis',(-1.,0.,0.));
#496=DIRECTION('center_axis',(0.,0.,1.));
#497=DIRECTION('ref_axis',(0.86602540378445,-0.49999999999998,0.));
#498=DIRECTION('center_axis',(0.,0.,-1.));
#499=DIRECTION('ref_axis',(0.86602540378445,-0.49999999999998,0.));
#500=DIRECTION('',(0.,0.,1.));
#501=DIRECTION('center_axis',(0.,0.,-1.));
#502=DIRECTION('ref_axis',(0.86602540378445,-0.49999999999998,0.));
#503=DIRECTION('',(0.,0.,1.));
#504=DIRECTION('center_axis',(0.,0.,1.));
#505=DIRECTION('ref_axis',(-0.86602540378445,0.499999999999981,0.));
#506=DIRECTION('center_axis',(0.,0.,-1.));
#507=DIRECTION('ref_axis',(-0.86602540378445,0.499999999999981,0.));
#508=DIRECTION('center_axis',(0.,0.,-1.));
#509=DIRECTION('ref_axis',(-0.86602540378445,0.499999999999981,0.));
#510=DIRECTION('',(0.,0.,1.));
#511=DIRECTION('center_axis',(0.,0.,1.));
#512=DIRECTION('ref_axis',(-0.965925826289063,-0.258819045102542,0.));
#513=DIRECTION('center_axis',(0.,0.,-1.));
#514=DIRECTION('ref_axis',(-0.965925826289063,-0.258819045102542,0.));
#515=DIRECTION('center_axis',(0.,0.,-1.));
#516=DIRECTION('ref_axis',(-0.965925826289063,-0.258819045102542,0.));
#517=DIRECTION('',(0.,0.,1.));
#518=DIRECTION('center_axis',(0.,0.,1.));
#519=DIRECTION('ref_axis',(0.86602540378445,-0.499999999999981,0.));
#520=DIRECTION('center_axis',(0.,0.,1.));
#521=DIRECTION('ref_axis',(0.86602540378445,-0.499999999999981,0.));
#522=DIRECTION('center_axis',(0.,0.,1.));
#523=DIRECTION('ref_axis',(0.86602540378445,-0.499999999999981,0.));
#524=DIRECTION('center_axis',(0.,0.,1.));
#525=DIRECTION('ref_axis',(-0.866025403784423,-0.500000000000027,0.));
#526=DIRECTION('center_axis',(0.,0.,-1.));
#527=DIRECTION('ref_axis',(-0.866025403784423,-0.500000000000027,0.));
#528=DIRECTION('',(0.,0.,1.));
#529=DIRECTION('center_axis',(0.,0.,-1.));
#530=DIRECTION('ref_axis',(-0.866025403784423,-0.500000000000027,0.));
#531=DIRECTION('',(0.,0.,1.));
#532=DIRECTION('center_axis',(0.,0.,1.));
#533=DIRECTION('ref_axis',(0.866025403784423,0.500000000000027,0.));
#534=DIRECTION('center_axis',(0.,0.,-1.));
#535=DIRECTION('ref_axis',(0.866025403784423,0.500000000000027,0.));
#536=DIRECTION('center_axis',(0.,0.,-1.));
#537=DIRECTION('ref_axis',(0.866025403784423,0.500000000000027,0.));
#538=DIRECTION('',(0.,0.,1.));
#539=DIRECTION('center_axis',(0.,0.,1.));
#540=DIRECTION('ref_axis',(0.25881904510249,0.965925826289076,0.));
#541=DIRECTION('center_axis',(0.,0.,-1.));
#542=DIRECTION('ref_axis',(0.25881904510249,0.965925826289076,0.));
#543=DIRECTION('center_axis',(0.,0.,-1.));
#544=DIRECTION('ref_axis',(0.25881904510249,0.965925826289076,0.));
#545=DIRECTION('',(0.,0.,1.));
#546=DIRECTION('center_axis',(0.,0.,1.));
#547=DIRECTION('ref_axis',(-0.866025403784423,-0.500000000000027,0.));
#548=DIRECTION('center_axis',(0.,0.,1.));
#549=DIRECTION('ref_axis',(-0.866025403784423,-0.500000000000027,0.));
#550=DIRECTION('center_axis',(0.,0.,1.));
#551=DIRECTION('ref_axis',(-0.866025403784423,-0.500000000000027,0.));
#552=DIRECTION('center_axis',(0.,0.,1.));
#553=DIRECTION('ref_axis',(5.18684188204612E-14,1.,0.));
#554=DIRECTION('center_axis',(0.,0.,-1.));
#555=DIRECTION('ref_axis',(5.18684188204612E-14,1.,0.));
#556=DIRECTION('',(0.,0.,1.));
#557=DIRECTION('center_axis',(0.,0.,-1.));
#558=DIRECTION('ref_axis',(5.18684188204612E-14,1.,0.));
#559=DIRECTION('',(0.,0.,1.));
#560=DIRECTION('center_axis',(0.,0.,1.));
#561=DIRECTION('ref_axis',(0.,-1.,0.));
#562=DIRECTION('center_axis',(0.,0.,-1.));
#563=DIRECTION('ref_axis',(0.,-1.,0.));
#564=DIRECTION('center_axis',(0.,0.,-1.));
#565=DIRECTION('ref_axis',(0.,-1.,0.));
#566=DIRECTION('',(0.,0.,1.));
#567=DIRECTION('center_axis',(0.,0.,1.));
#568=DIRECTION('ref_axis',(0.707106781186548,-0.707106781186547,0.));
#569=DIRECTION('center_axis',(0.,0.,-1.));
#570=DIRECTION('ref_axis',(0.707106781186548,-0.707106781186547,0.));
#571=DIRECTION('center_axis',(0.,0.,-1.));
#572=DIRECTION('ref_axis',(0.707106781186548,-0.707106781186547,0.));
#573=DIRECTION('',(0.,0.,1.));
#574=DIRECTION('center_axis',(0.,0.,1.));
#575=DIRECTION('ref_axis',(5.18684188204613E-14,1.,0.));
#576=DIRECTION('center_axis',(0.,0.,1.));
#577=DIRECTION('ref_axis',(5.18684188204613E-14,1.,0.));
#578=DIRECTION('center_axis',(0.,0.,1.));
#579=DIRECTION('ref_axis',(5.18684188204613E-14,1.,0.));
#580=DIRECTION('center_axis',(0.,0.,1.));
#581=DIRECTION('ref_axis',(-1.,0.,0.));
#582=DIRECTION('center_axis',(0.,0.,-1.));
#583=DIRECTION('ref_axis',(-1.,0.,0.));
#584=DIRECTION('',(0.,0.,-1.));
#585=DIRECTION('center_axis',(0.,0.,-1.));
#586=DIRECTION('ref_axis',(-1.,0.,0.));
#587=DIRECTION('center_axis',(0.,0.,1.));
#588=DIRECTION('ref_axis',(-1.,0.,0.));
#589=DIRECTION('center_axis',(0.,0.,-1.));
#590=DIRECTION('ref_axis',(-1.,0.,0.));
#591=DIRECTION('',(0.,0.,-1.));
#592=DIRECTION('center_axis',(0.,0.,-1.));
#593=DIRECTION('ref_axis',(-1.,0.,0.));
#594=DIRECTION('center_axis',(0.,0.,1.));
#595=DIRECTION('ref_axis',(-1.,3.69113109485767E-15,0.));
#596=DIRECTION('center_axis',(0.,0.,1.));
#597=DIRECTION('ref_axis',(-1.,3.69113109485767E-15,0.));
#598=DIRECTION('',(0.,0.,1.));
#599=DIRECTION('center_axis',(0.,0.,1.));
#600=DIRECTION('ref_axis',(-1.,3.69113109485767E-15,0.));
#601=DIRECTION('',(0.,0.,1.));
#602=DIRECTION('center_axis',(-1.,0.,0.));
#603=DIRECTION('ref_axis',(0.,-1.,0.));
#604=DIRECTION('',(0.,-1.,0.));
#605=DIRECTION('',(0.,-1.,0.));
#606=DIRECTION('',(0.,0.,1.));
#607=DIRECTION('center_axis',(0.,1.,0.));
#608=DIRECTION('ref_axis',(-1.,0.,0.));
#609=DIRECTION('',(-1.,0.,0.));
#610=DIRECTION('',(-1.,0.,0.));
#611=DIRECTION('',(0.,0.,1.));
#612=DIRECTION('center_axis',(1.,0.,0.));
#613=DIRECTION('ref_axis',(0.,1.,0.));
#614=DIRECTION('',(0.,1.,0.));
#615=DIRECTION('',(0.,1.,0.));
#616=DIRECTION('center_axis',(0.,0.,1.));
#617=DIRECTION('ref_axis',(1.,0.,0.));
#618=DIRECTION('center_axis',(0.,0.,1.));
#619=DIRECTION('ref_axis',(1.,0.,0.));
#620=CARTESIAN_POINT('',(0.,0.,0.));
#621=CARTESIAN_POINT('Origin',(-7.8159700933611E-13,-19.2499999999999,0.));
#622=CARTESIAN_POINT('',(10.4999999999992,-19.2499999999999,6.));
#623=CARTESIAN_POINT('Origin',(-7.8159700933611E-13,-19.2499999999999,6.));
#624=CARTESIAN_POINT('',(10.4999999999992,-19.2499999999999,0.));
#625=CARTESIAN_POINT('',(10.4999999999992,-19.2499999999999,0.));
#626=CARTESIAN_POINT('Origin',(-7.8159700933611E-13,-19.2499999999999,0.));
#627=CARTESIAN_POINT('Origin',(13.05,-26.7844210129246,0.));
#628=CARTESIAN_POINT('',(14.1147782339531,-27.3991710129246,0.));
#629=CARTESIAN_POINT('',(11.9852217660469,-26.1696710129245,0.));
#630=CARTESIAN_POINT('Origin',(13.05,-26.7844210129246,0.));
#631=CARTESIAN_POINT('',(11.9852217660469,-26.1696710129245,6.));
#632=CARTESIAN_POINT('',(11.9852217660469,-26.1696710129245,0.));
#633=CARTESIAN_POINT('',(14.1147782339531,-27.3991710129246,6.));
#634=CARTESIAN_POINT('Origin',(13.05,-26.7844210129246,6.));
#635=CARTESIAN_POINT('',(14.1147782339531,-27.3991710129246,0.));
#636=CARTESIAN_POINT('Origin',(-7.8159700933611E-13,-19.2499999999999,0.));
#637=CARTESIAN_POINT('',(15.7429894884601,-15.0316786801148,0.));
#638=CARTESIAN_POINT('Origin',(-7.8159700933611E-13,-19.2499999999999,0.));
#639=CARTESIAN_POINT('',(15.7429894884601,-15.0316786801148,6.));
#640=CARTESIAN_POINT('Origin',(-7.8159700933611E-13,-19.2499999999999,6.));
#641=CARTESIAN_POINT('',(15.7429894884601,-15.0316786801148,0.));
#642=CARTESIAN_POINT('Origin',(14.5553836850377,-15.3498966960684,0.));
#643=CARTESIAN_POINT('',(13.3677778816153,-15.6681147120219,0.));
#644=CARTESIAN_POINT('Origin',(14.5553836850377,-15.3498966960684,0.));
#645=CARTESIAN_POINT('',(13.3677778816153,-15.6681147120219,6.));
#646=CARTESIAN_POINT('Origin',(14.5553836850377,-15.3498966960684,6.));
#647=CARTESIAN_POINT('',(13.3677778816153,-15.6681147120219,0.));
#648=CARTESIAN_POINT('Origin',(-7.8159700933611E-13,-19.2499999999999,0.));
#649=CARTESIAN_POINT('Origin',(-7.8159700933611E-13,-19.2499999999999,0.));
#650=CARTESIAN_POINT('Origin',(-7.8159700933611E-13,-19.2499999999999,6.));
#651=CARTESIAN_POINT('Origin',(-13.05,-26.7844210129246,0.));
#652=CARTESIAN_POINT('',(-14.1147782339529,-27.3991710129246,0.));
#653=CARTESIAN_POINT('',(-11.985221766047,-26.1696710129246,0.));
#654=CARTESIAN_POINT('Origin',(-13.05,-26.7844210129246,0.));
#655=CARTESIAN_POINT('',(-11.985221766047,-26.1696710129246,6.));
#656=CARTESIAN_POINT('',(-11.985221766047,-26.1696710129246,0.));
#657=CARTESIAN_POINT('',(-14.1147782339529,-27.3991710129246,6.));
#658=CARTESIAN_POINT('Origin',(-13.05,-26.7844210129246,6.));
#659=CARTESIAN_POINT('',(-14.1147782339529,-27.3991710129246,0.));
#660=CARTESIAN_POINT('Origin',(-7.8159700933611E-13,-19.2499999999999,0.));
#661=CARTESIAN_POINT('',(-4.21832131988471,-34.9929894884597,0.));
#662=CARTESIAN_POINT('Origin',(-7.8159700933611E-13,-19.2499999999999,0.));
#663=CARTESIAN_POINT('',(-4.21832131988471,-34.9929894884597,6.));
#664=CARTESIAN_POINT('Origin',(-7.8159700933611E-13,-19.2499999999999,6.));
#665=CARTESIAN_POINT('',(-4.21832131988471,-34.9929894884597,0.));
#666=CARTESIAN_POINT('Origin',(-3.9001033039312,-33.8053836850373,0.));
#667=CARTESIAN_POINT('',(-3.58188528797769,-32.6177778816149,0.));
#668=CARTESIAN_POINT('Origin',(-3.9001033039312,-33.8053836850373,0.));
#669=CARTESIAN_POINT('',(-3.58188528797769,-32.6177778816149,6.));
#670=CARTESIAN_POINT('Origin',(-3.9001033039312,-33.8053836850373,6.));
#671=CARTESIAN_POINT('',(-3.58188528797769,-32.6177778816149,0.));
#672=CARTESIAN_POINT('Origin',(-7.8159700933611E-13,-19.2499999999999,0.));
#673=CARTESIAN_POINT('Origin',(-7.8159700933611E-13,-19.2499999999999,0.));
#674=CARTESIAN_POINT('Origin',(-7.8159700933611E-13,-19.2499999999999,6.));
#675=CARTESIAN_POINT('Origin',(0.,-4.18115797415078,0.));
#676=CARTESIAN_POINT('',(-7.8159700933611E-13,-2.95165797415078,0.));
#677=CARTESIAN_POINT('',(-6.3772220939757E-14,-5.41065797415078,0.));
#678=CARTESIAN_POINT('Origin',(0.,-4.18115797415078,0.));
#679=CARTESIAN_POINT('',(-6.43929354282591E-14,-5.41065797415078,6.));
#680=CARTESIAN_POINT('',(-6.3772220939757E-14,-5.41065797415078,0.));
#681=CARTESIAN_POINT('',(-7.8159700933611E-13,-2.95165797415078,6.));
#682=CARTESIAN_POINT('Origin',(0.,-4.18115797415078,6.));
#683=CARTESIAN_POINT('',(-7.8159700933611E-13,-2.95165797415078,0.));
#684=CARTESIAN_POINT('Origin',(-7.8159700933611E-13,-19.2499999999999,0.));
#685=CARTESIAN_POINT('',(-11.5246681685764,-7.7253318314243,0.));
#686=CARTESIAN_POINT('Origin',(-7.8159700933611E-13,-19.2499999999999,0.));
#687=CARTESIAN_POINT('',(-11.5246681685764,-7.7253318314243,6.));
#688=CARTESIAN_POINT('Origin',(-7.8159700933611E-13,-19.2499999999999,6.));
#689=CARTESIAN_POINT('',(-11.5246681685764,-7.7253318314243,0.));
#690=CARTESIAN_POINT('Origin',(-10.6552803811075,-8.59471961889316,0.));
#691=CARTESIAN_POINT('',(-9.78589259363867,-9.46410740636202,0.));
#692=CARTESIAN_POINT('Origin',(-10.6552803811075,-8.59471961889316,0.));
#693=CARTESIAN_POINT('',(-9.78589259363867,-9.46410740636202,6.));
#694=CARTESIAN_POINT('Origin',(-10.6552803811075,-8.59471961889316,6.));
#695=CARTESIAN_POINT('',(-9.78589259363867,-9.46410740636202,0.));
#696=CARTESIAN_POINT('Origin',(-7.8159700933611E-13,-19.2499999999999,0.));
#697=CARTESIAN_POINT('Origin',(-7.8159700933611E-13,-19.2499999999999,0.));
#698=CARTESIAN_POINT('Origin',(-7.8159700933611E-13,-19.2499999999999,6.));
#699=CARTESIAN_POINT('Origin',(-9.99999999999996,30.75,0.));
#700=CARTESIAN_POINT('',(-7.74999999999997,30.75,6.));
#701=CARTESIAN_POINT('Origin',(-9.99999999999996,30.75,6.));
#702=CARTESIAN_POINT('',(-7.74999999999996,30.75,0.));
#703=CARTESIAN_POINT('',(-7.74999999999996,30.75,0.));
#704=CARTESIAN_POINT('Origin',(-9.99999999999996,30.75,0.));
#705=CARTESIAN_POINT('Origin',(10.,30.75,0.));
#706=CARTESIAN_POINT('',(12.25,30.75,6.));
#707=CARTESIAN_POINT('Origin',(10.,30.75,6.));
#708=CARTESIAN_POINT('',(12.25,30.75,0.));
#709=CARTESIAN_POINT('',(12.25,30.75,0.));
#710=CARTESIAN_POINT('Origin',(10.,30.75,0.));
#711=CARTESIAN_POINT('Origin',(3.5527136788005E-14,-19.25,0.));
#712=CARTESIAN_POINT('',(-19.25,-19.2499999999999,0.));
#713=CARTESIAN_POINT('',(19.25,-19.2499999999999,0.));
#714=CARTESIAN_POINT('Origin',(3.5527136788005E-14,-19.25,0.));
#715=CARTESIAN_POINT('',(19.25,-19.2499999999999,6.));
#716=CARTESIAN_POINT('',(19.25,-19.2499999999999,0.));
#717=CARTESIAN_POINT('',(-19.25,-19.2499999999999,6.));
#718=CARTESIAN_POINT('Origin',(3.5527136788005E-14,-19.25,6.));
#719=CARTESIAN_POINT('',(-19.25,-19.2499999999999,0.));
#720=CARTESIAN_POINT('Origin',(-19.25,42.75,0.));
#721=CARTESIAN_POINT('',(-19.25,42.75,0.));
#722=CARTESIAN_POINT('',(-19.25,42.75,0.));
#723=CARTESIAN_POINT('',(-19.25,42.75,6.));
#724=CARTESIAN_POINT('',(-19.25,42.75,6.));
#725=CARTESIAN_POINT('',(-19.25,42.75,0.));
#726=CARTESIAN_POINT('Origin',(19.25,42.75,0.));
#727=CARTESIAN_POINT('',(19.25,42.75,0.));
#728=CARTESIAN_POINT('',(19.25,42.75,0.));
#729=CARTESIAN_POINT('',(19.25,42.75,6.));
#730=CARTESIAN_POINT('',(19.25,42.75,6.));
#731=CARTESIAN_POINT('',(19.25,42.75,0.));
#732=CARTESIAN_POINT('Origin',(19.25,-19.2499999999999,0.));
#733=CARTESIAN_POINT('',(19.25,-19.2499999999999,0.));
#734=CARTESIAN_POINT('',(19.25,-19.2499999999999,6.));
#735=CARTESIAN_POINT('Origin',(3.5527136788005E-14,2.12500000000003,6.));
#736=CARTESIAN_POINT('Origin',(3.5527136788005E-14,2.12500000000003,0.));
#737=UNCERTAINTY_MEASURE_WITH_UNIT(LENGTH_MEASURE(0.01),#741,
'DISTANCE_ACCURACY_VALUE',
'Maximum model space distance between geometric entities at asserted c
onnectivities');
#738=UNCERTAINTY_MEASURE_WITH_UNIT(LENGTH_MEASURE(0.01),#741,
'DISTANCE_ACCURACY_VALUE',
'Maximum model space distance between geometric entities at asserted c
onnectivities');
#739=(
GEOMETRIC_REPRESENTATION_CONTEXT(3)
GLOBAL_UNCERTAINTY_ASSIGNED_CONTEXT((#737))
GLOBAL_UNIT_ASSIGNED_CONTEXT((#741,#743,#744))
REPRESENTATION_CONTEXT('','3D')
);
#740=(
GEOMETRIC_REPRESENTATION_CONTEXT(3)
GLOBAL_UNCERTAINTY_ASSIGNED_CONTEXT((#738))
GLOBAL_UNIT_ASSIGNED_CONTEXT((#741,#743,#744))
REPRESENTATION_CONTEXT('','3D')
);
#741=(
LENGTH_UNIT()
NAMED_UNIT(*)
SI_UNIT(.MILLI.,.METRE.)
);
#742=(
LENGTH_UNIT()
NAMED_UNIT(*)
SI_UNIT(.CENTI.,.METRE.)
);
#743=(
NAMED_UNIT(*)
PLANE_ANGLE_UNIT()
SI_UNIT($,.RADIAN.)
);
#744=(
NAMED_UNIT(*)
SI_UNIT($,.STERADIAN.)
SOLID_ANGLE_UNIT()
);
#745=SHAPE_DEFINITION_REPRESENTATION(#746,#747);
#746=PRODUCT_DEFINITION_SHAPE('',$,#749);
#747=SHAPE_REPRESENTATION('',(#433),#739);
#748=PRODUCT_DEFINITION_CONTEXT('part definition',#753,'design');
#749=PRODUCT_DEFINITION('Joint1C_1','Joint1C_1',#750,#748);
#750=PRODUCT_DEFINITION_FORMATION('',$,#755);
#751=PRODUCT_RELATED_PRODUCT_CATEGORY('Joint1C_1','Joint1C_1',(#755));
#752=APPLICATION_PROTOCOL_DEFINITION('international standard',
'automotive_design',2009,#753);
#753=APPLICATION_CONTEXT(
'Core Data for Automotive Mechanical Design Process');
#754=PRODUCT_CONTEXT('part definition',#753,'mechanical');
#755=PRODUCT('Joint1C_1','Joint1C_1',$,(#754));
#756=PRESENTATION_STYLE_ASSIGNMENT((#757));
#757=SURFACE_STYLE_USAGE(.BOTH.,#760);
#758=SURFACE_STYLE_RENDERING_WITH_PROPERTIES($,#764,(#759));
#759=SURFACE_STYLE_TRANSPARENT(0.53999999165535);
#760=SURFACE_SIDE_STYLE('',(#761,#758));
#761=SURFACE_STYLE_FILL_AREA(#762);
#762=FILL_AREA_STYLE('',(#763));
#763=FILL_AREA_STYLE_COLOUR('',#764);
#764=COLOUR_RGB('',0.8,0.8,0.8);
ENDSEC;
END-ISO-10303-21;
