ISO-10303-21;
HEADER;
/* Generated by software containing ST-Developer
 * from STEP Tools, Inc. (www.steptools.com) 
 */

FILE_DESCRIPTION(
/* description */ (''),
/* implementation_level */ '2;1');

FILE_NAME(
/* name */ 
'I:\\ASU_FOE\\graduation project\\quadcopter\\matlab xml\\231123\\\\MO
TOR COUPLER CONNECTOR (1)_ipt_c41452cb.STEP',
/* time_stamp */ '2023-11-23T19:53:38+02:00',
/* author */ ('klama'),
/* organization */ (''),
/* preprocessor_version */ 'ST-DEVELOPER v18.1',
/* originating_system */ 'Autodesk Inventor 2021',
/* authorisation */ '');

FILE_SCHEMA (('AUTOMOTIVE_DESIGN { 1 0 10303 214 3 1 1 }'));
ENDSEC;

DATA;
#10=MECHANICAL_DESIGN_GEOMETRIC_PRESENTATION_REPRESENTATION('',(#13),#1281);
#11=SHAPE_REPRESENTATION_RELATIONSHIP('SRR','None',#1288,#12);
#12=ADVANCED_BREP_SHAPE_REPRESENTATION('',(#14),#1280);
#13=STYLED_ITEM('',(#1297),#14);
#14=MANIFOLD_SOLID_BREP('Solid1',#365);
#15=CONICAL_SURFACE('',#413,5.75000000000001,0.78539816339745);
#16=CONICAL_SURFACE('',#414,5.75000000000001,0.785398163397448);
#17=PLANE('',#406);
#18=PLANE('',#411);
#19=TOROIDAL_SURFACE('',#398,3.5,0.5);
#20=TOROIDAL_SURFACE('',#408,3.5,0.5);
#21=FACE_BOUND('',#75,.T.);
#22=FACE_BOUND('',#76,.T.);
#23=FACE_BOUND('',#86,.T.);
#24=FACE_BOUND('',#87,.T.);
#25=FACE_BOUND('',#89,.T.);
#26=FACE_BOUND('',#92,.T.);
#27=LINE('',#623,#39);
#28=LINE('',#641,#40);
#29=LINE('',#669,#41);
#30=LINE('',#768,#42);
#31=LINE('',#917,#43);
#32=LINE('',#1051,#44);
#33=LINE('',#1229,#45);
#34=LINE('',#1257,#46);
#35=LINE('',#1258,#47);
#36=LINE('',#1260,#48);
#37=LINE('',#1275,#49);
#38=LINE('',#1277,#50);
#39=VECTOR('',#425,6.00000000000001);
#40=VECTOR('',#426,6.00000000000001);
#41=VECTOR('',#427,6.00000000000001);
#42=VECTOR('',#434,1.621);
#43=VECTOR('',#439,1.621);
#44=VECTOR('',#444,1.621);
#45=VECTOR('',#449,1.621);
#46=VECTOR('',#462,3.);
#47=VECTOR('',#463,3.);
#48=VECTOR('',#464,3.);
#49=VECTOR('',#485,5.75000000000001);
#50=VECTOR('',#488,5.75);
#51=CYLINDRICAL_SURFACE('',#386,6.00000000000001);
#52=CYLINDRICAL_SURFACE('',#391,1.621);
#53=CYLINDRICAL_SURFACE('',#393,1.621);
#54=CYLINDRICAL_SURFACE('',#395,1.621);
#55=CYLINDRICAL_SURFACE('',#397,1.621);
#56=CYLINDRICAL_SURFACE('',#403,3.);
#57=FACE_OUTER_BOUND('',#73,.T.);
#58=FACE_OUTER_BOUND('',#74,.T.);
#59=FACE_OUTER_BOUND('',#77,.T.);
#60=FACE_OUTER_BOUND('',#78,.T.);
#61=FACE_OUTER_BOUND('',#79,.T.);
#62=FACE_OUTER_BOUND('',#80,.T.);
#63=FACE_OUTER_BOUND('',#81,.T.);
#64=FACE_OUTER_BOUND('',#82,.T.);
#65=FACE_OUTER_BOUND('',#83,.T.);
#66=FACE_OUTER_BOUND('',#84,.T.);
#67=FACE_OUTER_BOUND('',#85,.T.);
#68=FACE_OUTER_BOUND('',#88,.T.);
#69=FACE_OUTER_BOUND('',#90,.T.);
#70=FACE_OUTER_BOUND('',#91,.T.);
#71=FACE_OUTER_BOUND('',#93,.T.);
#72=FACE_OUTER_BOUND('',#94,.T.);
#73=EDGE_LOOP('',(#233,#234,#235,#236,#237));
#74=EDGE_LOOP('',(#238,#239,#240,#241,#242,#243,#244,#245,#246,#247,#248,
#249,#250,#251,#252,#253));
#75=EDGE_LOOP('',(#254));
#76=EDGE_LOOP('',(#255));
#77=EDGE_LOOP('',(#256,#257,#258,#259,#260,#261));
#78=EDGE_LOOP('',(#262,#263,#264,#265,#266));
#79=EDGE_LOOP('',(#267,#268,#269,#270,#271,#272));
#80=EDGE_LOOP('',(#273,#274,#275,#276,#277,#278,#279));
#81=EDGE_LOOP('',(#280,#281,#282,#283,#284,#285,#286));
#82=EDGE_LOOP('',(#287,#288,#289,#290,#291,#292,#293));
#83=EDGE_LOOP('',(#294,#295,#296,#297,#298,#299,#300));
#84=EDGE_LOOP('',(#301,#302,#303,#304,#305));
#85=EDGE_LOOP('',(#306,#307,#308,#309,#310,#311,#312,#313,#314,#315,#316,
#317,#318,#319,#320,#321));
#86=EDGE_LOOP('',(#322,#323));
#87=EDGE_LOOP('',(#324,#325));
#88=EDGE_LOOP('',(#326));
#89=EDGE_LOOP('',(#327));
#90=EDGE_LOOP('',(#328,#329,#330,#331,#332));
#91=EDGE_LOOP('',(#333));
#92=EDGE_LOOP('',(#334));
#93=EDGE_LOOP('',(#335,#336,#337,#338,#339));
#94=EDGE_LOOP('',(#340,#341,#342,#343,#344));
#95=B_SPLINE_CURVE_WITH_KNOTS('',3,(#579,#580,#581,#582,#583,#584,#585,
#586,#587,#588,#589,#590,#591,#592),.UNSPECIFIED.,.F.,.F.,(4,1,1,1,1,1,
1,1,1,1,1,4),(0.,0.105241948997563,0.140322598663418,0.210483897995127,
0.280645197326836,0.385887146324399,0.420967795990254,0.491129095321963,
0.561290394653672,0.666532343651235,0.70161299331709,0.736693242576893),
 .UNSPECIFIED.);
#96=B_SPLINE_CURVE_WITH_KNOTS('',3,(#593,#594,#595,#596,#597,#598,#599),
 .UNSPECIFIED.,.F.,.F.,(4,1,1,1,4),(0.736693242576893,0.771774292648799,
0.841935591980508,0.912096891312217,0.982258190643926),.UNSPECIFIED.);
#97=B_SPLINE_CURVE_WITH_KNOTS('',3,(#600,#601,#602,#603,#604,#605,#606,
#607,#608,#609,#610,#611,#612,#613,#614,#615,#616),.UNSPECIFIED.,.T.,.F.,
(4,1,1,1,1,1,1,1,1,1,1,1,1,1,4),(-0.982258190643926,-0.912096891312217,
-0.841935591980508,-0.771774292648799,-0.70161299331709,-0.666532343651235,
-0.561290394653672,-0.491129095321963,-0.420967795990254,-0.385887146324399,
-0.280645197326836,-0.210483897995127,-0.140322598663418,-0.105241948997563,
0.),.UNSPECIFIED.);
#98=B_SPLINE_CURVE_WITH_KNOTS('',3,(#625,#626,#627,#628,#629,#630,#631),
 .UNSPECIFIED.,.F.,.F.,(4,1,1,1,4),(-0.982258190643926,-0.912096891312217,
-0.841935591980508,-0.771774292648799,-0.736693242576893),.UNSPECIFIED.);
#99=B_SPLINE_CURVE_WITH_KNOTS('',3,(#633,#634,#635,#636,#637,#638,#639),
 .UNSPECIFIED.,.F.,.F.,(4,1,1,1,4),(-0.245564081681813,-0.210483897995127,
-0.140322598663418,-0.105241948997563,0.),.UNSPECIFIED.);
#100=B_SPLINE_CURVE_WITH_KNOTS('',3,(#643,#644,#645,#646,#647,#648,#649,
#650,#651,#652,#653,#654,#655,#656,#657,#658,#659,#660,#661,#662,#663,#664,
#665,#666,#667),.UNSPECIFIED.,.F.,.F.,(4,3,3,3,3,3,3,3,4),(-0.736693242579923,
-0.701612993319779,-0.66653234365371,-0.561290394655502,-0.491129095323364,
-0.420967795991225,-0.333266171826052,-0.280645197326949,-0.245564081681665),
 .UNSPECIFIED.);
#101=B_SPLINE_CURVE_WITH_KNOTS('',3,(#674,#675,#676,#677,#678,#679,#680,
#681,#682,#683,#684,#685,#686),.UNSPECIFIED.,.F.,.F.,(4,3,3,3,4),(-0.982258190643925,
-0.912096891313046,-0.841935591982167,-0.771774292651288,-0.736693242579923),
 .UNSPECIFIED.);
#102=B_SPLINE_CURVE_WITH_KNOTS('',3,(#687,#688,#689,#690,#691,#692,#693,
#694,#695,#696,#697,#698,#699),.UNSPECIFIED.,.F.,.F.,(4,3,3,3,4),(-0.245564081681665,
-0.210483897995039,-0.14032259866336,-0.0701612993316798,0.),
 .UNSPECIFIED.);
#103=B_SPLINE_CURVE_WITH_KNOTS('',3,(#700,#701,#702,#703,#704,#705,#706,
#707,#708,#709,#710),.UNSPECIFIED.,.F.,.F.,(4,1,1,1,1,1,1,1,4),(-0.736693242576893,
-0.70161299331709,-0.666532343651235,-0.561290394653672,-0.491129095321963,
-0.420967795990254,-0.385887146324399,-0.280645197326836,-0.245564081681813),
 .UNSPECIFIED.);
#104=B_SPLINE_CURVE_WITH_KNOTS('',3,(#712,#713,#714,#715,#716,#717,#718,
#719,#720,#721,#722,#723,#724,#725,#726,#727,#728),.UNSPECIFIED.,.T.,.F.,
(4,1,1,1,1,1,1,1,1,1,1,1,1,1,4),(-0.982258190643926,-0.912096891312217,
-0.841935591980508,-0.771774292648799,-0.70161299331709,-0.666532343651235,
-0.561290394653672,-0.491129095321963,-0.420967795990254,-0.385887146324399,
-0.280645197326836,-0.210483897995127,-0.140322598663418,-0.105241948997563,
0.),.UNSPECIFIED.);
#105=B_SPLINE_CURVE_WITH_KNOTS('',3,(#732,#733,#734,#735,#736,#737,#738,
#739,#740,#741),.UNSPECIFIED.,.F.,.F.,(4,2,2,2,4),(0.,0.0626806005887782,
0.125361201177556,0.187797103201226,0.250233005224895),.UNSPECIFIED.);
#106=B_SPLINE_CURVE_WITH_KNOTS('',3,(#742,#743,#744,#745,#746,#747,#748,
#749,#750,#751,#752,#753,#754,#755,#756,#757,#758,#759,#760,#761,#762,#763,
#764,#765,#766,#767),.UNSPECIFIED.,.F.,.F.,(4,2,2,2,2,2,2,2,2,2,2,2,4),
(0.250233005224895,0.312668907248564,0.375104809272233,0.437785409861011,
0.500466010449789,0.563146611038568,0.625827211627346,0.688263113651015,
0.750699015674684,0.813134917698353,0.875570819722022,0.938251420310801,
1.00093202089958),.UNSPECIFIED.);
#107=B_SPLINE_CURVE_WITH_KNOTS('',3,(#857,#858,#859,#860,#861,#862,#863,
#864,#865,#866,#867,#868,#869,#870),.UNSPECIFIED.,.F.,.F.,(4,1,1,1,1,1,
1,1,1,1,1,4),(0.,0.105241948997563,0.140322598663418,0.210483897995127,
0.280645197326836,0.385887146324399,0.420967795990254,0.491129095321963,
0.561290394653672,0.666532343651235,0.70161299331709,0.736693242576893),
 .UNSPECIFIED.);
#108=B_SPLINE_CURVE_WITH_KNOTS('',3,(#871,#872,#873,#874,#875,#876,#877),
 .UNSPECIFIED.,.F.,.F.,(4,1,1,1,4),(0.736693242576893,0.771774292648799,
0.841935591980508,0.912096891312217,0.982258190643926),.UNSPECIFIED.);
#109=B_SPLINE_CURVE_WITH_KNOTS('',3,(#881,#882,#883,#884,#885,#886,#887,
#888,#889,#890),.UNSPECIFIED.,.F.,.F.,(4,2,2,2,4),(0.,0.0626806005887782,
0.125361201177556,0.187797103201226,0.250233005224895),.UNSPECIFIED.);
#110=B_SPLINE_CURVE_WITH_KNOTS('',3,(#891,#892,#893,#894,#895,#896,#897,
#898,#899,#900,#901,#902,#903,#904,#905,#906,#907,#908,#909,#910,#911,#912,
#913,#914,#915,#916),.UNSPECIFIED.,.F.,.F.,(4,2,2,2,2,2,2,2,2,2,2,2,4),
(0.250233005224895,0.312668907248564,0.375104809272233,0.437785409861011,
0.500466010449789,0.563146611038568,0.625827211627346,0.688263113651015,
0.750699015674684,0.813134917698353,0.875570819722022,0.938251420310801,
1.00093202089958),.UNSPECIFIED.);
#111=B_SPLINE_CURVE_WITH_KNOTS('',3,(#1006,#1007,#1008,#1009,#1010,#1011,
#1012),.UNSPECIFIED.,.F.,.F.,(4,1,1,1,4),(0.,0.105241948997563,0.140322598663418,
0.210483897995127,0.245564081681813),.UNSPECIFIED.);
#112=B_SPLINE_CURVE_WITH_KNOTS('',3,(#1013,#1014,#1015,#1016,#1017,#1018,
#1019,#1020,#1021,#1022,#1023,#1024,#1025,#1026),.UNSPECIFIED.,.F.,.F.,
(4,1,1,1,1,1,1,1,1,1,1,4),(0.245564081681813,0.280645197326836,0.385887146324399,
0.420967795990254,0.491129095321963,0.561290394653672,0.666532343651235,
0.70161299331709,0.771774292648799,0.841935591980508,0.912096891312217,
0.982258190643926),.UNSPECIFIED.);
#113=B_SPLINE_CURVE_WITH_KNOTS('',3,(#1030,#1031,#1032,#1033,#1034,#1035,
#1036,#1037,#1038,#1039),.UNSPECIFIED.,.F.,.F.,(4,2,2,2,4),(0.,0.0626806005887782,
0.125361201177556,0.187797103201226,0.250233005224895),.UNSPECIFIED.);
#114=B_SPLINE_CURVE_WITH_KNOTS('',3,(#1041,#1042,#1043,#1044,#1045,#1046,
#1047,#1048,#1049,#1050),.UNSPECIFIED.,.F.,.F.,(4,2,2,2,4),(0.750699015674684,
0.813134917698353,0.875570819722022,0.938251420310801,1.00093202089958),
 .UNSPECIFIED.);
#115=B_SPLINE_CURVE_WITH_KNOTS('',3,(#1052,#1053,#1054,#1055,#1056,#1057,
#1058,#1059,#1060,#1061,#1062,#1063,#1064,#1065,#1066,#1067,#1068,#1069),
 .UNSPECIFIED.,.F.,.F.,(4,2,2,2,2,2,2,2,4),(0.250233005224895,0.312668907248564,
0.375104809272233,0.437785409861011,0.500466010449789,0.563146611038568,
0.625827211627346,0.688263113651015,0.750699015674684),.UNSPECIFIED.);
#116=B_SPLINE_CURVE_WITH_KNOTS('',3,(#1158,#1159,#1160,#1161,#1162,#1163,
#1164,#1165,#1166,#1167,#1168,#1169,#1170),.UNSPECIFIED.,.F.,.F.,(4,3,3,
3,4),(0.,0.0701612993316582,0.140322598663316,0.210483897994975,0.245564081681677),
 .UNSPECIFIED.);
#117=B_SPLINE_CURVE_WITH_KNOTS('',3,(#1171,#1172,#1173,#1174,#1175,#1176,
#1177,#1178,#1179,#1180,#1181,#1182,#1183,#1184,#1185,#1186,#1187,#1188,
#1189,#1190,#1191,#1192,#1193,#1194,#1195,#1196,#1197,#1198,#1199,#1200,
#1201,#1202,#1203,#1204),.UNSPECIFIED.,.F.,.F.,(4,3,3,3,3,3,3,3,3,3,3,4),
(0.245564081681677,0.280645197326667,0.333266171825461,0.420967795990118,
0.491129095321844,0.56129039465357,0.666532343651159,0.701612993317022,
0.771774292648748,0.841935591980474,0.9120968913122,0.982258190643925),
 .UNSPECIFIED.);
#118=B_SPLINE_CURVE_WITH_KNOTS('',3,(#1208,#1209,#1210,#1211,#1212,#1213,
#1214,#1215,#1216,#1217),.UNSPECIFIED.,.F.,.F.,(4,2,2,2,4),(0.,0.0626806005887782,
0.125361201177556,0.187797103201226,0.250233005224895),.UNSPECIFIED.);
#119=B_SPLINE_CURVE_WITH_KNOTS('',3,(#1219,#1220,#1221,#1222,#1223,#1224,
#1225,#1226,#1227,#1228),.UNSPECIFIED.,.F.,.F.,(4,2,2,2,4),(0.750699015674684,
0.813134917698353,0.875570819722022,0.9382514203108,1.00093202089958),
 .UNSPECIFIED.);
#120=B_SPLINE_CURVE_WITH_KNOTS('',3,(#1230,#1231,#1232,#1233,#1234,#1235,
#1236,#1237,#1238,#1239,#1240,#1241,#1242,#1243,#1244,#1245,#1246,#1247),
 .UNSPECIFIED.,.F.,.F.,(4,2,2,2,2,2,2,2,4),(0.250233005224895,0.312668907248564,
0.375104809272233,0.437785409861011,0.500466010449789,0.563146611038568,
0.625827211627346,0.688263113651015,0.750699015674684),.UNSPECIFIED.);
#121=CIRCLE('',#385,0.25);
#122=CIRCLE('',#387,6.00000000000001);
#123=CIRCLE('',#388,6.00000000000001);
#124=CIRCLE('',#389,6.00000000000001);
#125=CIRCLE('',#390,6.00000000000001);
#126=CIRCLE('',#392,0.25);
#127=CIRCLE('',#394,0.25);
#128=CIRCLE('',#396,0.25);
#129=CIRCLE('',#399,3.);
#130=CIRCLE('',#400,3.);
#131=CIRCLE('',#401,0.5);
#132=CIRCLE('',#402,3.5);
#133=CIRCLE('',#404,3.);
#134=CIRCLE('',#405,3.);
#135=CIRCLE('',#407,5.50000000000001);
#136=CIRCLE('',#409,3.5);
#137=CIRCLE('',#410,0.5);
#138=CIRCLE('',#412,5.50000000000001);
#139=VERTEX_POINT('',#575);
#140=VERTEX_POINT('',#576);
#141=VERTEX_POINT('',#578);
#142=VERTEX_POINT('',#618);
#143=VERTEX_POINT('',#619);
#144=VERTEX_POINT('',#622);
#145=VERTEX_POINT('',#624);
#146=VERTEX_POINT('',#632);
#147=VERTEX_POINT('',#640);
#148=VERTEX_POINT('',#642);
#149=VERTEX_POINT('',#668);
#150=VERTEX_POINT('',#670);
#151=VERTEX_POINT('',#673);
#152=VERTEX_POINT('',#711);
#153=VERTEX_POINT('',#730);
#154=VERTEX_POINT('',#731);
#155=VERTEX_POINT('',#854);
#156=VERTEX_POINT('',#856);
#157=VERTEX_POINT('',#879);
#158=VERTEX_POINT('',#880);
#159=VERTEX_POINT('',#1003);
#160=VERTEX_POINT('',#1005);
#161=VERTEX_POINT('',#1028);
#162=VERTEX_POINT('',#1029);
#163=VERTEX_POINT('',#1040);
#164=VERTEX_POINT('',#1155);
#165=VERTEX_POINT('',#1157);
#166=VERTEX_POINT('',#1206);
#167=VERTEX_POINT('',#1207);
#168=VERTEX_POINT('',#1218);
#169=VERTEX_POINT('',#1249);
#170=VERTEX_POINT('',#1250);
#171=VERTEX_POINT('',#1253);
#172=VERTEX_POINT('',#1259);
#173=VERTEX_POINT('',#1261);
#174=VERTEX_POINT('',#1265);
#175=VERTEX_POINT('',#1268);
#176=VERTEX_POINT('',#1272);
#177=EDGE_CURVE('',#139,#140,#121,.T.);
#178=EDGE_CURVE('',#140,#141,#95,.T.);
#179=EDGE_CURVE('',#141,#140,#96,.T.);
#180=EDGE_CURVE('',#139,#139,#97,.T.);
#181=EDGE_CURVE('',#142,#143,#122,.T.);
#182=EDGE_CURVE('',#143,#142,#123,.T.);
#183=EDGE_CURVE('',#143,#144,#27,.T.);
#184=EDGE_CURVE('',#145,#144,#98,.T.);
#185=EDGE_CURVE('',#146,#145,#99,.T.);
#186=EDGE_CURVE('',#146,#147,#28,.T.);
#187=EDGE_CURVE('',#148,#147,#100,.T.);
#188=EDGE_CURVE('',#148,#149,#29,.T.);
#189=EDGE_CURVE('',#150,#149,#124,.T.);
#190=EDGE_CURVE('',#149,#150,#125,.T.);
#191=EDGE_CURVE('',#151,#148,#101,.T.);
#192=EDGE_CURVE('',#147,#151,#102,.T.);
#193=EDGE_CURVE('',#144,#146,#103,.T.);
#194=EDGE_CURVE('',#152,#152,#104,.T.);
#195=EDGE_CURVE('',#153,#154,#105,.T.);
#196=EDGE_CURVE('',#154,#153,#106,.T.);
#197=EDGE_CURVE('',#154,#141,#30,.T.);
#198=EDGE_CURVE('',#152,#155,#126,.T.);
#199=EDGE_CURVE('',#155,#156,#107,.T.);
#200=EDGE_CURVE('',#156,#155,#108,.T.);
#201=EDGE_CURVE('',#157,#158,#109,.T.);
#202=EDGE_CURVE('',#158,#157,#110,.T.);
#203=EDGE_CURVE('',#158,#156,#31,.T.);
#204=EDGE_CURVE('',#145,#159,#127,.T.);
#205=EDGE_CURVE('',#159,#160,#111,.T.);
#206=EDGE_CURVE('',#160,#159,#112,.T.);
#207=EDGE_CURVE('',#161,#162,#113,.T.);
#208=EDGE_CURVE('',#163,#161,#114,.T.);
#209=EDGE_CURVE('',#163,#160,#32,.T.);
#210=EDGE_CURVE('',#162,#163,#115,.T.);
#211=EDGE_CURVE('',#151,#164,#128,.T.);
#212=EDGE_CURVE('',#164,#165,#116,.T.);
#213=EDGE_CURVE('',#165,#164,#117,.T.);
#214=EDGE_CURVE('',#166,#167,#118,.T.);
#215=EDGE_CURVE('',#168,#166,#119,.T.);
#216=EDGE_CURVE('',#168,#165,#33,.T.);
#217=EDGE_CURVE('',#167,#168,#120,.T.);
#218=EDGE_CURVE('',#169,#170,#129,.T.);
#219=EDGE_CURVE('',#170,#169,#130,.T.);
#220=EDGE_CURVE('',#169,#171,#131,.T.);
#221=EDGE_CURVE('',#171,#171,#132,.T.);
#222=EDGE_CURVE('',#170,#162,#34,.T.);
#223=EDGE_CURVE('',#163,#168,#35,.T.);
#224=EDGE_CURVE('',#167,#172,#36,.T.);
#225=EDGE_CURVE('',#173,#172,#133,.T.);
#226=EDGE_CURVE('',#172,#173,#134,.T.);
#227=EDGE_CURVE('',#174,#174,#135,.T.);
#228=EDGE_CURVE('',#175,#175,#136,.T.);
#229=EDGE_CURVE('',#175,#173,#137,.T.);
#230=EDGE_CURVE('',#176,#176,#138,.T.);
#231=EDGE_CURVE('',#174,#142,#37,.T.);
#232=EDGE_CURVE('',#150,#176,#38,.T.);
#233=ORIENTED_EDGE('',*,*,#177,.T.);
#234=ORIENTED_EDGE('',*,*,#178,.T.);
#235=ORIENTED_EDGE('',*,*,#179,.T.);
#236=ORIENTED_EDGE('',*,*,#177,.F.);
#237=ORIENTED_EDGE('',*,*,#180,.T.);
#238=ORIENTED_EDGE('',*,*,#181,.F.);
#239=ORIENTED_EDGE('',*,*,#182,.F.);
#240=ORIENTED_EDGE('',*,*,#183,.T.);
#241=ORIENTED_EDGE('',*,*,#184,.F.);
#242=ORIENTED_EDGE('',*,*,#185,.F.);
#243=ORIENTED_EDGE('',*,*,#186,.T.);
#244=ORIENTED_EDGE('',*,*,#187,.F.);
#245=ORIENTED_EDGE('',*,*,#188,.T.);
#246=ORIENTED_EDGE('',*,*,#189,.F.);
#247=ORIENTED_EDGE('',*,*,#190,.F.);
#248=ORIENTED_EDGE('',*,*,#188,.F.);
#249=ORIENTED_EDGE('',*,*,#191,.F.);
#250=ORIENTED_EDGE('',*,*,#192,.F.);
#251=ORIENTED_EDGE('',*,*,#186,.F.);
#252=ORIENTED_EDGE('',*,*,#193,.F.);
#253=ORIENTED_EDGE('',*,*,#183,.F.);
#254=ORIENTED_EDGE('',*,*,#194,.F.);
#255=ORIENTED_EDGE('',*,*,#180,.F.);
#256=ORIENTED_EDGE('',*,*,#195,.F.);
#257=ORIENTED_EDGE('',*,*,#196,.F.);
#258=ORIENTED_EDGE('',*,*,#197,.T.);
#259=ORIENTED_EDGE('',*,*,#178,.F.);
#260=ORIENTED_EDGE('',*,*,#179,.F.);
#261=ORIENTED_EDGE('',*,*,#197,.F.);
#262=ORIENTED_EDGE('',*,*,#198,.T.);
#263=ORIENTED_EDGE('',*,*,#199,.T.);
#264=ORIENTED_EDGE('',*,*,#200,.T.);
#265=ORIENTED_EDGE('',*,*,#198,.F.);
#266=ORIENTED_EDGE('',*,*,#194,.T.);
#267=ORIENTED_EDGE('',*,*,#201,.F.);
#268=ORIENTED_EDGE('',*,*,#202,.F.);
#269=ORIENTED_EDGE('',*,*,#203,.T.);
#270=ORIENTED_EDGE('',*,*,#199,.F.);
#271=ORIENTED_EDGE('',*,*,#200,.F.);
#272=ORIENTED_EDGE('',*,*,#203,.F.);
#273=ORIENTED_EDGE('',*,*,#204,.T.);
#274=ORIENTED_EDGE('',*,*,#205,.T.);
#275=ORIENTED_EDGE('',*,*,#206,.T.);
#276=ORIENTED_EDGE('',*,*,#204,.F.);
#277=ORIENTED_EDGE('',*,*,#184,.T.);
#278=ORIENTED_EDGE('',*,*,#193,.T.);
#279=ORIENTED_EDGE('',*,*,#185,.T.);
#280=ORIENTED_EDGE('',*,*,#207,.F.);
#281=ORIENTED_EDGE('',*,*,#208,.F.);
#282=ORIENTED_EDGE('',*,*,#209,.T.);
#283=ORIENTED_EDGE('',*,*,#205,.F.);
#284=ORIENTED_EDGE('',*,*,#206,.F.);
#285=ORIENTED_EDGE('',*,*,#209,.F.);
#286=ORIENTED_EDGE('',*,*,#210,.F.);
#287=ORIENTED_EDGE('',*,*,#211,.T.);
#288=ORIENTED_EDGE('',*,*,#212,.T.);
#289=ORIENTED_EDGE('',*,*,#213,.T.);
#290=ORIENTED_EDGE('',*,*,#211,.F.);
#291=ORIENTED_EDGE('',*,*,#191,.T.);
#292=ORIENTED_EDGE('',*,*,#187,.T.);
#293=ORIENTED_EDGE('',*,*,#192,.T.);
#294=ORIENTED_EDGE('',*,*,#214,.F.);
#295=ORIENTED_EDGE('',*,*,#215,.F.);
#296=ORIENTED_EDGE('',*,*,#216,.T.);
#297=ORIENTED_EDGE('',*,*,#212,.F.);
#298=ORIENTED_EDGE('',*,*,#213,.F.);
#299=ORIENTED_EDGE('',*,*,#216,.F.);
#300=ORIENTED_EDGE('',*,*,#217,.F.);
#301=ORIENTED_EDGE('',*,*,#218,.T.);
#302=ORIENTED_EDGE('',*,*,#219,.T.);
#303=ORIENTED_EDGE('',*,*,#220,.T.);
#304=ORIENTED_EDGE('',*,*,#221,.T.);
#305=ORIENTED_EDGE('',*,*,#220,.F.);
#306=ORIENTED_EDGE('',*,*,#218,.F.);
#307=ORIENTED_EDGE('',*,*,#219,.F.);
#308=ORIENTED_EDGE('',*,*,#222,.T.);
#309=ORIENTED_EDGE('',*,*,#210,.T.);
#310=ORIENTED_EDGE('',*,*,#223,.T.);
#311=ORIENTED_EDGE('',*,*,#215,.T.);
#312=ORIENTED_EDGE('',*,*,#214,.T.);
#313=ORIENTED_EDGE('',*,*,#224,.T.);
#314=ORIENTED_EDGE('',*,*,#225,.F.);
#315=ORIENTED_EDGE('',*,*,#226,.F.);
#316=ORIENTED_EDGE('',*,*,#224,.F.);
#317=ORIENTED_EDGE('',*,*,#217,.T.);
#318=ORIENTED_EDGE('',*,*,#223,.F.);
#319=ORIENTED_EDGE('',*,*,#208,.T.);
#320=ORIENTED_EDGE('',*,*,#207,.T.);
#321=ORIENTED_EDGE('',*,*,#222,.F.);
#322=ORIENTED_EDGE('',*,*,#195,.T.);
#323=ORIENTED_EDGE('',*,*,#196,.T.);
#324=ORIENTED_EDGE('',*,*,#201,.T.);
#325=ORIENTED_EDGE('',*,*,#202,.T.);
#326=ORIENTED_EDGE('',*,*,#227,.F.);
#327=ORIENTED_EDGE('',*,*,#221,.F.);
#328=ORIENTED_EDGE('',*,*,#228,.T.);
#329=ORIENTED_EDGE('',*,*,#229,.T.);
#330=ORIENTED_EDGE('',*,*,#225,.T.);
#331=ORIENTED_EDGE('',*,*,#226,.T.);
#332=ORIENTED_EDGE('',*,*,#229,.F.);
#333=ORIENTED_EDGE('',*,*,#230,.F.);
#334=ORIENTED_EDGE('',*,*,#228,.F.);
#335=ORIENTED_EDGE('',*,*,#227,.T.);
#336=ORIENTED_EDGE('',*,*,#231,.T.);
#337=ORIENTED_EDGE('',*,*,#181,.T.);
#338=ORIENTED_EDGE('',*,*,#182,.T.);
#339=ORIENTED_EDGE('',*,*,#231,.F.);
#340=ORIENTED_EDGE('',*,*,#189,.T.);
#341=ORIENTED_EDGE('',*,*,#190,.T.);
#342=ORIENTED_EDGE('',*,*,#232,.T.);
#343=ORIENTED_EDGE('',*,*,#230,.T.);
#344=ORIENTED_EDGE('',*,*,#232,.F.);
#345=B_SPLINE_SURFACE_WITH_KNOTS('',3,3,((#490,#491,#492,#493,#494,#495,
#496,#497,#498,#499,#500,#501,#502,#503,#504,#505,#506),(#507,#508,#509,
#510,#511,#512,#513,#514,#515,#516,#517,#518,#519,#520,#521,#522,#523),
(#524,#525,#526,#527,#528,#529,#530,#531,#532,#533,#534,#535,#536,#537,
#538,#539,#540),(#541,#542,#543,#544,#545,#546,#547,#548,#549,#550,#551,
#552,#553,#554,#555,#556,#557),(#558,#559,#560,#561,#562,#563,#564,#565,
#566,#567,#568,#569,#570,#571,#572,#573,#574)),.UNSPECIFIED.,.F.,.T.,.F.,
(4,1,4),(4,1,1,1,1,1,1,1,1,1,1,1,1,1,4),(0.,0.5,1.),(0.,0.105241948997563,
0.140322598663418,0.210483897995127,0.280645197326836,0.385887146324399,
0.420967795990254,0.491129095321963,0.561290394653672,0.666532343651235,
0.70161299331709,0.771774292648799,0.841935591980508,0.912096891312217,
0.982258190643926),.UNSPECIFIED.);
#346=B_SPLINE_SURFACE_WITH_KNOTS('',3,3,((#769,#770,#771,#772,#773,#774,
#775,#776,#777,#778,#779,#780,#781,#782,#783,#784,#785),(#786,#787,#788,
#789,#790,#791,#792,#793,#794,#795,#796,#797,#798,#799,#800,#801,#802),
(#803,#804,#805,#806,#807,#808,#809,#810,#811,#812,#813,#814,#815,#816,
#817,#818,#819),(#820,#821,#822,#823,#824,#825,#826,#827,#828,#829,#830,
#831,#832,#833,#834,#835,#836),(#837,#838,#839,#840,#841,#842,#843,#844,
#845,#846,#847,#848,#849,#850,#851,#852,#853)),.UNSPECIFIED.,.F.,.T.,.F.,
(4,1,4),(4,1,1,1,1,1,1,1,1,1,1,1,1,1,4),(0.,0.5,1.),(0.,0.105241948997563,
0.140322598663418,0.210483897995127,0.280645197326836,0.385887146324399,
0.420967795990254,0.491129095321963,0.561290394653672,0.666532343651235,
0.70161299331709,0.771774292648799,0.841935591980508,0.912096891312217,
0.982258190643926),.UNSPECIFIED.);
#347=B_SPLINE_SURFACE_WITH_KNOTS('',3,3,((#918,#919,#920,#921,#922,#923,
#924,#925,#926,#927,#928,#929,#930,#931,#932,#933,#934),(#935,#936,#937,
#938,#939,#940,#941,#942,#943,#944,#945,#946,#947,#948,#949,#950,#951),
(#952,#953,#954,#955,#956,#957,#958,#959,#960,#961,#962,#963,#964,#965,
#966,#967,#968),(#969,#970,#971,#972,#973,#974,#975,#976,#977,#978,#979,
#980,#981,#982,#983,#984,#985),(#986,#987,#988,#989,#990,#991,#992,#993,
#994,#995,#996,#997,#998,#999,#1000,#1001,#1002)),.UNSPECIFIED.,.F.,.T.,
 .F.,(4,1,4),(4,1,1,1,1,1,1,1,1,1,1,1,1,1,4),(0.,0.5,1.),(0.,0.105241948997563,
0.140322598663418,0.210483897995127,0.280645197326836,0.385887146324399,
0.420967795990254,0.491129095321963,0.561290394653672,0.666532343651235,
0.70161299331709,0.771774292648799,0.841935591980508,0.912096891312217,
0.982258190643926),.UNSPECIFIED.);
#348=B_SPLINE_SURFACE_WITH_KNOTS('',3,3,((#1070,#1071,#1072,#1073,#1074,
#1075,#1076,#1077,#1078,#1079,#1080,#1081,#1082,#1083,#1084,#1085,#1086),
(#1087,#1088,#1089,#1090,#1091,#1092,#1093,#1094,#1095,#1096,#1097,#1098,
#1099,#1100,#1101,#1102,#1103),(#1104,#1105,#1106,#1107,#1108,#1109,#1110,
#1111,#1112,#1113,#1114,#1115,#1116,#1117,#1118,#1119,#1120),(#1121,#1122,
#1123,#1124,#1125,#1126,#1127,#1128,#1129,#1130,#1131,#1132,#1133,#1134,
#1135,#1136,#1137),(#1138,#1139,#1140,#1141,#1142,#1143,#1144,#1145,#1146,
#1147,#1148,#1149,#1150,#1151,#1152,#1153,#1154)),.UNSPECIFIED.,.F.,.T.,
 .F.,(4,1,4),(4,1,1,1,1,1,1,1,1,1,1,1,1,1,4),(0.,0.5,1.),(0.,0.070161299331709,
0.140322598663418,0.210483897995127,0.280645197326836,0.333266171825618,
0.420967795990254,0.491129095321963,0.561290394653672,0.666532343651235,
0.70161299331709,0.771774292648799,0.841935591980508,0.912096891312216,
0.982258190643925),.UNSPECIFIED.);
#349=ADVANCED_FACE('',(#57),#345,.F.);
#350=ADVANCED_FACE('',(#58,#21,#22),#51,.T.);
#351=ADVANCED_FACE('',(#59),#52,.F.);
#352=ADVANCED_FACE('',(#60),#346,.F.);
#353=ADVANCED_FACE('',(#61),#53,.F.);
#354=ADVANCED_FACE('',(#62),#347,.F.);
#355=ADVANCED_FACE('',(#63),#54,.F.);
#356=ADVANCED_FACE('',(#64),#348,.F.);
#357=ADVANCED_FACE('',(#65),#55,.F.);
#358=ADVANCED_FACE('',(#66),#19,.T.);
#359=ADVANCED_FACE('',(#67,#23,#24),#56,.F.);
#360=ADVANCED_FACE('',(#68,#25),#17,.T.);
#361=ADVANCED_FACE('',(#69),#20,.T.);
#362=ADVANCED_FACE('',(#70,#26),#18,.T.);
#363=ADVANCED_FACE('',(#71),#15,.T.);
#364=ADVANCED_FACE('',(#72),#16,.T.);
#365=CLOSED_SHELL('',(#349,#350,#351,#352,#353,#354,#355,#356,#357,#358,
#359,#360,#361,#362,#363,#364));
#366=DERIVED_UNIT_ELEMENT(#368,1.);
#367=DERIVED_UNIT_ELEMENT(#1283,3.);
#368=(
MASS_UNIT()
NAMED_UNIT(*)
SI_UNIT($,.GRAM.)
);
#369=DERIVED_UNIT((#366,#367));
#370=MEASURE_REPRESENTATION_ITEM('density measure',
POSITIVE_RATIO_MEASURE(7.85),#369);
#371=PROPERTY_DEFINITION_REPRESENTATION(#376,#373);
#372=PROPERTY_DEFINITION_REPRESENTATION(#377,#374);
#373=REPRESENTATION('material name',(#375),#1280);
#374=REPRESENTATION('density',(#370),#1280);
#375=DESCRIPTIVE_REPRESENTATION_ITEM('Steel, Mild','Steel, Mild');
#376=PROPERTY_DEFINITION('material property','material name',#1290);
#377=PROPERTY_DEFINITION('material property','density of part',#1290);
#378=DATE_TIME_ROLE('creation_date');
#379=APPLIED_DATE_AND_TIME_ASSIGNMENT(#380,#378,(#1290));
#380=DATE_AND_TIME(#381,#382);
#381=CALENDAR_DATE(2022,23,9);
#382=LOCAL_TIME(0,0,0.,#383);
#383=COORDINATED_UNIVERSAL_TIME_OFFSET(0,0,.BEHIND.);
#384=AXIS2_PLACEMENT_3D('placement',#489,#415,#416);
#385=AXIS2_PLACEMENT_3D('',#577,#417,#418);
#386=AXIS2_PLACEMENT_3D('',#617,#419,#420);
#387=AXIS2_PLACEMENT_3D('',#620,#421,#422);
#388=AXIS2_PLACEMENT_3D('',#621,#423,#424);
#389=AXIS2_PLACEMENT_3D('',#671,#428,#429);
#390=AXIS2_PLACEMENT_3D('',#672,#430,#431);
#391=AXIS2_PLACEMENT_3D('',#729,#432,#433);
#392=AXIS2_PLACEMENT_3D('',#855,#435,#436);
#393=AXIS2_PLACEMENT_3D('',#878,#437,#438);
#394=AXIS2_PLACEMENT_3D('',#1004,#440,#441);
#395=AXIS2_PLACEMENT_3D('',#1027,#442,#443);
#396=AXIS2_PLACEMENT_3D('',#1156,#445,#446);
#397=AXIS2_PLACEMENT_3D('',#1205,#447,#448);
#398=AXIS2_PLACEMENT_3D('',#1248,#450,#451);
#399=AXIS2_PLACEMENT_3D('',#1251,#452,#453);
#400=AXIS2_PLACEMENT_3D('',#1252,#454,#455);
#401=AXIS2_PLACEMENT_3D('',#1254,#456,#457);
#402=AXIS2_PLACEMENT_3D('',#1255,#458,#459);
#403=AXIS2_PLACEMENT_3D('',#1256,#460,#461);
#404=AXIS2_PLACEMENT_3D('',#1262,#465,#466);
#405=AXIS2_PLACEMENT_3D('',#1263,#467,#468);
#406=AXIS2_PLACEMENT_3D('',#1264,#469,#470);
#407=AXIS2_PLACEMENT_3D('',#1266,#471,#472);
#408=AXIS2_PLACEMENT_3D('',#1267,#473,#474);
#409=AXIS2_PLACEMENT_3D('',#1269,#475,#476);
#410=AXIS2_PLACEMENT_3D('',#1270,#477,#478);
#411=AXIS2_PLACEMENT_3D('',#1271,#479,#480);
#412=AXIS2_PLACEMENT_3D('',#1273,#481,#482);
#413=AXIS2_PLACEMENT_3D('',#1274,#483,#484);
#414=AXIS2_PLACEMENT_3D('',#1276,#486,#487);
#415=DIRECTION('axis',(0.,0.,1.));
#416=DIRECTION('refdir',(1.,0.,0.));
#417=DIRECTION('center_axis',(-2.34823847513063E-15,-1.,0.));
#418=DIRECTION('ref_axis',(0.945579451476618,-2.22044604925031E-15,-0.325391304347824));
#419=DIRECTION('center_axis',(0.,-1.,0.));
#420=DIRECTION('ref_axis',(1.,0.,0.));
#421=DIRECTION('center_axis',(0.,-1.,0.));
#422=DIRECTION('ref_axis',(-1.,0.,0.));
#423=DIRECTION('center_axis',(0.,-1.,0.));
#424=DIRECTION('ref_axis',(-1.,0.,0.));
#425=DIRECTION('',(0.,1.,0.));
#426=DIRECTION('',(0.,1.,0.));
#427=DIRECTION('',(0.,1.,0.));
#428=DIRECTION('center_axis',(0.,1.,0.));
#429=DIRECTION('ref_axis',(-1.,0.,0.));
#430=DIRECTION('center_axis',(0.,1.,0.));
#431=DIRECTION('ref_axis',(-1.,0.,0.));
#432=DIRECTION('center_axis',(-1.,0.,0.));
#433=DIRECTION('ref_axis',(0.,-1.,0.));
#434=DIRECTION('',(1.,0.,0.));
#435=DIRECTION('center_axis',(-7.64096380342506E-16,1.,2.22044604925031E-15));
#436=DIRECTION('ref_axis',(0.945579451476617,0.,0.325391304347826));
#437=DIRECTION('center_axis',(1.,0.,0.));
#438=DIRECTION('ref_axis',(0.,1.,0.));
#439=DIRECTION('',(1.,0.,0.));
#440=DIRECTION('center_axis',(0.,1.,0.));
#441=DIRECTION('ref_axis',(-0.945579451476618,0.,-0.325391304347825));
#442=DIRECTION('center_axis',(-1.,0.,0.));
#443=DIRECTION('ref_axis',(0.,-1.,0.));
#444=DIRECTION('',(-1.,0.,0.));
#445=DIRECTION('center_axis',(0.,-1.,0.));
#446=DIRECTION('ref_axis',(-0.945579451476618,0.,0.325391304347825));
#447=DIRECTION('center_axis',(1.,0.,0.));
#448=DIRECTION('ref_axis',(0.,1.,0.));
#449=DIRECTION('',(-1.,0.,0.));
#450=DIRECTION('center_axis',(0.,-1.,0.));
#451=DIRECTION('ref_axis',(0.,0.,-1.));
#452=DIRECTION('center_axis',(0.,1.,0.));
#453=DIRECTION('ref_axis',(-1.,0.,1.22464679914735E-16));
#454=DIRECTION('center_axis',(0.,1.,0.));
#455=DIRECTION('ref_axis',(-1.,0.,1.22464679914735E-16));
#456=DIRECTION('center_axis',(-1.,0.,-1.22464679914735E-16));
#457=DIRECTION('ref_axis',(-1.22464679914735E-16,0.,1.));
#458=DIRECTION('center_axis',(0.,-1.,0.));
#459=DIRECTION('ref_axis',(-1.,0.,1.22464679914735E-16));
#460=DIRECTION('center_axis',(0.,-1.,0.));
#461=DIRECTION('ref_axis',(1.,0.,0.));
#462=DIRECTION('',(0.,1.,0.));
#463=DIRECTION('',(0.,1.,0.));
#464=DIRECTION('',(0.,1.,0.));
#465=DIRECTION('center_axis',(0.,-1.,0.));
#466=DIRECTION('ref_axis',(-1.,0.,1.22464679914735E-16));
#467=DIRECTION('center_axis',(0.,-1.,0.));
#468=DIRECTION('ref_axis',(-1.,0.,1.22464679914735E-16));
#469=DIRECTION('center_axis',(0.,-1.,0.));
#470=DIRECTION('ref_axis',(0.,0.,-1.));
#471=DIRECTION('center_axis',(0.,1.,0.));
#472=DIRECTION('ref_axis',(-1.,0.,0.));
#473=DIRECTION('center_axis',(0.,-1.,0.));
#474=DIRECTION('ref_axis',(0.,0.,-1.));
#475=DIRECTION('center_axis',(0.,1.,0.));
#476=DIRECTION('ref_axis',(-1.,0.,1.22464679914735E-16));
#477=DIRECTION('center_axis',(-1.,0.,-1.22464679914735E-16));
#478=DIRECTION('ref_axis',(-1.22464679914735E-16,0.,1.));
#479=DIRECTION('center_axis',(0.,1.,0.));
#480=DIRECTION('ref_axis',(0.,0.,1.));
#481=DIRECTION('center_axis',(0.,-1.,0.));
#482=DIRECTION('ref_axis',(-1.,0.,0.));
#483=DIRECTION('center_axis',(0.,1.,0.));
#484=DIRECTION('ref_axis',(-1.,0.,0.));
#485=DIRECTION('',(0.707106781186548,0.707106781186547,8.65956056235494E-17));
#486=DIRECTION('center_axis',(0.,-1.,0.));
#487=DIRECTION('ref_axis',(-1.,0.,0.));
#488=DIRECTION('',(-0.707106781186548,0.707106781186548,-8.65956056235493E-17));
#489=CARTESIAN_POINT('',(0.,0.,0.));
#490=CARTESIAN_POINT('Ctrl Pts',(5.43708184599055,-5.,-1.621));
#491=CARTESIAN_POINT('Ctrl Pts',(5.43708184599055,-5.36626988149307,-1.621));
#492=CARTESIAN_POINT('Ctrl Pts',(5.51168683653003,-5.84933183027532,-1.44872232590378));
#493=CARTESIAN_POINT('Ctrl Pts',(5.6560328666754,-6.36195314170614,-0.934299808236671));
#494=CARTESIAN_POINT('Ctrl Pts',(5.75445123662323,-6.63417803671092,-0.377332873655107));
#495=CARTESIAN_POINT('Ctrl Pts',(5.75562696420044,-6.63477655440265,0.50392444718575));
#496=CARTESIAN_POINT('Ctrl Pts',(5.60451730935374,-6.22572328584913,1.14889960505591));
#497=CARTESIAN_POINT('Ctrl Pts',(5.4724104214016,-5.60961725701103,1.53612189021983));
#498=CARTESIAN_POINT('Ctrl Pts',(5.41322916808277,-5.00005732963141,1.67745115938245));
#499=CARTESIAN_POINT('Ctrl Pts',(5.49661343484076,-4.14572684683441,1.4804798379349));
#500=CARTESIAN_POINT('Ctrl Pts',(5.66630394264484,-3.60955809202024,0.943453554506405));
#501=CARTESIAN_POINT('Ctrl Pts',(5.75458125345505,-3.36567449619745,0.250992545672933));
#502=CARTESIAN_POINT('Ctrl Pts',(5.75469106780743,-3.36588421674002,-0.376824274044901));
#503=CARTESIAN_POINT('Ctrl Pts',(5.63559191744939,-3.69171047443341,-1.04664834650349));
#504=CARTESIAN_POINT('Ctrl Pts',(5.484679734412,-4.26882587101943,-1.50757675857584));
#505=CARTESIAN_POINT('Ctrl Pts',(5.43708184599055,-4.75582007900462,-1.621));
#506=CARTESIAN_POINT('Ctrl Pts',(5.43708184599055,-5.,-1.621));
#507=CARTESIAN_POINT('Ctrl Pts',(5.51634108975565,-5.,-1.621));
#508=CARTESIAN_POINT('Ctrl Pts',(5.51634108975565,-5.35982262266294,-1.621));
#509=CARTESIAN_POINT('Ctrl Pts',(5.58652840161886,-5.83733696118969,-1.455310684016));
#510=CARTESIAN_POINT('Ctrl Pts',(5.72463128191039,-6.35560139647424,-0.944227782290347));
#511=CARTESIAN_POINT('Ctrl Pts',(5.81969968099381,-6.63437923458307,-0.383051030870939));
#512=CARTESIAN_POINT('Ctrl Pts',(5.82075843967617,-6.63502473310662,0.511646300493034));
#513=CARTESIAN_POINT('Ctrl Pts',(5.67503873057618,-6.21574411481452,1.1592026065959));
#514=CARTESIAN_POINT('Ctrl Pts',(5.54956018346651,-5.59936182370235,1.53893741465641));
#515=CARTESIAN_POINT('Ctrl Pts',(5.49409590708721,-5.00011053907159,1.67453940390121));
#516=CARTESIAN_POINT('Ctrl Pts',(5.57214270865683,-4.15998546491227,1.48609798959528));
#517=CARTESIAN_POINT('Ctrl Pts',(5.73442828687078,-3.61544495949122,0.954457929414313));
#518=CARTESIAN_POINT('Ctrl Pts',(5.81982575681383,-3.36552358329447,0.2544617835273));
#519=CARTESIAN_POINT('Ctrl Pts',(5.81988093455553,-3.36567075137646,-0.38247421573991));
#520=CARTESIAN_POINT('Ctrl Pts',(5.70486696545787,-3.69972135649609,-1.05761668797279));
#521=CARTESIAN_POINT('Ctrl Pts',(5.56096482850702,-4.28072132503774,-1.51206606612011));
#522=CARTESIAN_POINT('Ctrl Pts',(5.51634108975565,-4.76011825155804,-1.621));
#523=CARTESIAN_POINT('Ctrl Pts',(5.51634108975565,-5.,-1.621));
#524=CARTESIAN_POINT('Ctrl Pts',(5.67350843402712,-5.,-1.70232519226832));
#525=CARTESIAN_POINT('Ctrl Pts',(5.67350843402712,-5.36644052538206,-1.70232519226832));
#526=CARTESIAN_POINT('Ctrl Pts',(5.73514946573162,-5.85482021072439,-1.53363821935105));
#527=CARTESIAN_POINT('Ctrl Pts',(5.86150878619545,-6.39600207835199,-0.998214638738184));
#528=CARTESIAN_POINT('Ctrl Pts',(5.95002661636638,-6.68929482699684,-0.40599375868013));
#529=CARTESIAN_POINT('Ctrl Pts',(5.95093304699204,-6.69019093918443,0.542463024556065));
#530=CARTESIAN_POINT('Ctrl Pts',(5.81543937917695,-6.24820294859133,1.2249008590848));
#531=CARTESIAN_POINT('Ctrl Pts',(5.70239058861163,-5.61037218267,1.61932892498856));
#532=CARTESIAN_POINT('Ctrl Pts',(5.653881834516,-5.00039522821499,1.75750896596936));
#533=CARTESIAN_POINT('Ctrl Pts',(5.72200370758477,-4.14422654883469,1.56568950420686));
#534=CARTESIAN_POINT('Ctrl Pts',(5.87032494081551,-3.5737152477823,1.00986938109328));
#535=CARTESIAN_POINT('Ctrl Pts',(5.95023869823758,-3.31052596813565,0.269524962045815));
#536=CARTESIAN_POINT('Ctrl Pts',(5.95016065431215,-3.31065186431405,-0.405035620768755));
#537=CARTESIAN_POINT('Ctrl Pts',(5.84301736509021,-3.66258784687909,-1.11825652616468));
#538=CARTESIAN_POINT('Ctrl Pts',(5.7124288798968,-4.26708221926281,-1.5915009472371));
#539=CARTESIAN_POINT('Ctrl Pts',(5.67350843402712,-4.75570631641196,-1.70232519226833));
#540=CARTESIAN_POINT('Ctrl Pts',(5.67350843402712,-5.,-1.70232519226833));
#541=CARTESIAN_POINT('Ctrl Pts',(5.69926697757006,-5.,-1.87740191384311));
#542=CARTESIAN_POINT('Ctrl Pts',(5.69926697757006,-5.40373800081889,-1.87740191384311));
#543=CARTESIAN_POINT('Ctrl Pts',(5.76972443815807,-5.93816485873459,-1.6811944192771));
#544=CARTESIAN_POINT('Ctrl Pts',(5.90844316081791,-6.51304908300476,-1.08659035654755));
#545=CARTESIAN_POINT('Ctrl Pts',(6.00415117598547,-6.82038643871283,-0.439533525125386));
#546=CARTESIAN_POINT('Ctrl Pts',(6.00517682302213,-6.82113141028559,0.587052199687014));
#547=CARTESIAN_POINT('Ctrl Pts',(5.85862856495716,-6.3589139378348,1.33552117218052));
#548=CARTESIAN_POINT('Ctrl Pts',(5.7327122126772,-5.67222399408944,1.78075212734985));
#549=CARTESIAN_POINT('Ctrl Pts',(5.67714084562209,-5.00015481632427,1.94160056957405));
#550=CARTESIAN_POINT('Ctrl Pts',(5.75530004523941,-4.05783142429828,1.71763595055888));
#551=CARTESIAN_POINT('Ctrl Pts',(5.91831397692364,-3.45490907098033,1.09771017374944));
#552=CARTESIAN_POINT('Ctrl Pts',(6.00423968338211,-3.17946499228295,0.292219851390188));
#553=CARTESIAN_POINT('Ctrl Pts',(6.00430091159422,-3.17964617861729,-0.438839205780239));
#554=CARTESIAN_POINT('Ctrl Pts',(5.88856668905918,-3.54779993252764,-1.21727183406393));
#555=CARTESIAN_POINT('Ctrl Pts',(5.7440299162196,-4.19341626493183,-1.74832023306018));
#556=CARTESIAN_POINT('Ctrl Pts',(5.69926697757006,-4.73084133278741,-1.87740191384311));
#557=CARTESIAN_POINT('Ctrl Pts',(5.69926697757006,-5.,-1.87740191384311));
#558=CARTESIAN_POINT('Ctrl Pts',(5.67347670885971,-5.,-1.95234782608696));
#559=CARTESIAN_POINT('Ctrl Pts',(5.67347670885971,-5.42275814205647,-1.95234782608696));
#560=CARTESIAN_POINT('Ctrl Pts',(5.75132539464003,-5.98032069984276,-1.74485495594194));
#561=CARTESIAN_POINT('Ctrl Pts',(5.90194733913955,-6.57200143623207,-1.12527958021242));
#562=CARTESIAN_POINT('Ctrl Pts',(6.00464476865033,-6.88621042978787,-0.454463303881364));
#563=CARTESIAN_POINT('Ctrl Pts',(6.00587161481785,-6.88690125434137,0.606931399737922));
#564=CARTESIAN_POINT('Ctrl Pts',(5.84819197497782,-6.41476142370372,1.38374561771936));
#565=CARTESIAN_POINT('Ctrl Pts',(5.71034130928863,-5.70363595796893,1.85011982293354));
#566=CARTESIAN_POINT('Ctrl Pts',(5.64858695799941,-5.00006617133891,2.02033813965908));
#567=CARTESIAN_POINT('Ctrl Pts',(5.73559662765992,-4.01397589785761,1.78310400564946));
#568=CARTESIAN_POINT('Ctrl Pts',(5.9126649836294,-3.39511609510788,1.13630443933041));
#569=CARTESIAN_POINT('Ctrl Pts',(6.00478043838787,-3.1136193598923,0.302297810554338));
#570=CARTESIAN_POINT('Ctrl Pts',(6.00489502727732,-3.11386142475051,-0.453850741670794));
#571=CARTESIAN_POINT('Ctrl Pts',(5.88061765299066,-3.48993849331579,-1.26059322885478));
#572=CARTESIAN_POINT('Ctrl Pts',(5.72314407069079,-4.15605996587128,-1.81573979473458));
#573=CARTESIAN_POINT('Ctrl Pts',(5.67347670885971,-4.71816123862902,-1.95234782608696));
#574=CARTESIAN_POINT('Ctrl Pts',(5.67347670885971,-5.,-1.95234782608696));
#575=CARTESIAN_POINT('',(5.67347670885971,-5.,-1.95234782608696));
#576=CARTESIAN_POINT('',(5.43708184599055,-5.,-1.621));
#577=CARTESIAN_POINT('Origin',(5.43708184599055,-5.,-1.871));
#578=CARTESIAN_POINT('',(5.74969271495526,-3.37932272197497,-8.14472554801909E-5));
#579=CARTESIAN_POINT('Ctrl Pts',(5.43708184599055,-5.,-1.621));
#580=CARTESIAN_POINT('Ctrl Pts',(5.43708184599055,-5.36626988149307,-1.621));
#581=CARTESIAN_POINT('Ctrl Pts',(5.51168683653003,-5.84933183027532,-1.44872232590378));
#582=CARTESIAN_POINT('Ctrl Pts',(5.6560328666754,-6.36195314170614,-0.934299808236671));
#583=CARTESIAN_POINT('Ctrl Pts',(5.75445123662323,-6.63417803671092,-0.377332873655107));
#584=CARTESIAN_POINT('Ctrl Pts',(5.75562696420044,-6.63477655440265,0.50392444718575));
#585=CARTESIAN_POINT('Ctrl Pts',(5.60451730935374,-6.22572328584913,1.14889960505591));
#586=CARTESIAN_POINT('Ctrl Pts',(5.4724104214016,-5.60961725701103,1.53612189021983));
#587=CARTESIAN_POINT('Ctrl Pts',(5.41322916808277,-5.00005732963141,1.67745115938245));
#588=CARTESIAN_POINT('Ctrl Pts',(5.49661343484076,-4.14572684683441,1.4804798379349));
#589=CARTESIAN_POINT('Ctrl Pts',(5.66630394264484,-3.60955809202024,0.943453554506405));
#590=CARTESIAN_POINT('Ctrl Pts',(5.73986820038902,-3.40632222611061,0.366404031088754));
#591=CARTESIAN_POINT('Ctrl Pts',(5.74970612994847,-3.37927981899086,0.122047572197564));
#592=CARTESIAN_POINT('Ctrl Pts',(5.74969271495526,-3.37932272197497,-8.14472554801649E-5));
#593=CARTESIAN_POINT('Ctrl Pts',(5.74969271495526,-3.37932272197497,-8.14472554801649E-5));
#594=CARTESIAN_POINT('Ctrl Pts',(5.74967929965581,-3.37936562593846,-0.122213254670384));
#595=CARTESIAN_POINT('Ctrl Pts',(5.73484143597817,-3.42018797319904,-0.488460345240273));
#596=CARTESIAN_POINT('Ctrl Pts',(5.63559191744939,-3.69171047443341,-1.04664834650349));
#597=CARTESIAN_POINT('Ctrl Pts',(5.484679734412,-4.26882587101943,-1.50757675857584));
#598=CARTESIAN_POINT('Ctrl Pts',(5.43708184599055,-4.75582007900462,-1.621));
#599=CARTESIAN_POINT('Ctrl Pts',(5.43708184599055,-5.,-1.621));
#600=CARTESIAN_POINT('Ctrl Pts',(5.67347670885971,-5.,-1.95234782608696));
#601=CARTESIAN_POINT('Ctrl Pts',(5.67347670885971,-4.71816123862902,-1.95234782608696));
#602=CARTESIAN_POINT('Ctrl Pts',(5.72314407069079,-4.15605996587128,-1.81573979473458));
#603=CARTESIAN_POINT('Ctrl Pts',(5.88061765299066,-3.48993849331579,-1.26059322885478));
#604=CARTESIAN_POINT('Ctrl Pts',(6.00489502727732,-3.11386142475051,-0.453850741670794));
#605=CARTESIAN_POINT('Ctrl Pts',(6.00478043838787,-3.1136193598923,0.302297810554338));
#606=CARTESIAN_POINT('Ctrl Pts',(5.9126649836294,-3.39511609510788,1.13630443933041));
#607=CARTESIAN_POINT('Ctrl Pts',(5.73559662765992,-4.01397589785761,1.78310400564946));
#608=CARTESIAN_POINT('Ctrl Pts',(5.64858695799941,-5.00006617133891,2.02033813965908));
#609=CARTESIAN_POINT('Ctrl Pts',(5.71034130928863,-5.70363595796893,1.85011982293354));
#610=CARTESIAN_POINT('Ctrl Pts',(5.84819197497782,-6.41476142370372,1.38374561771936));
#611=CARTESIAN_POINT('Ctrl Pts',(6.00587161481785,-6.88690125434137,0.606931399737922));
#612=CARTESIAN_POINT('Ctrl Pts',(6.00464476865033,-6.88621042978787,-0.454463303881364));
#613=CARTESIAN_POINT('Ctrl Pts',(5.90194733913955,-6.57200143623207,-1.12527958021242));
#614=CARTESIAN_POINT('Ctrl Pts',(5.75132539464003,-5.98032069984276,-1.74485495594194));
#615=CARTESIAN_POINT('Ctrl Pts',(5.67347670885971,-5.42275814205647,-1.95234782608696));
#616=CARTESIAN_POINT('Ctrl Pts',(5.67347670885971,-5.,-1.95234782608696));
#617=CARTESIAN_POINT('Origin',(0.,0.,0.));
#618=CARTESIAN_POINT('',(6.00000000000001,-9.5,7.34788079488412E-16));
#619=CARTESIAN_POINT('',(-6.00000000000001,-9.5,-7.34788079488412E-16));
#620=CARTESIAN_POINT('Origin',(0.,-9.5,0.));
#621=CARTESIAN_POINT('Origin',(0.,-9.5,0.));
#622=CARTESIAN_POINT('',(-5.99967935473586,-6.8706275059746,-9.80958496493375E-5));
#623=CARTESIAN_POINT('',(-6.00000000000001,0.,-7.34788079488412E-16));
#624=CARTESIAN_POINT('',(-5.67347670885971,-5.,-1.95234782608696));
#625=CARTESIAN_POINT('Ctrl Pts',(-5.67347670885971,-5.,-1.95234782608696));
#626=CARTESIAN_POINT('Ctrl Pts',(-5.67347670885971,-5.28183876137098,-1.95234782608696));
#627=CARTESIAN_POINT('Ctrl Pts',(-5.7231440706907,-5.84394003412879,-1.81573979473467));
#628=CARTESIAN_POINT('Ctrl Pts',(-5.88061765299061,-6.51006150668423,-1.26059322885483));
#629=CARTESIAN_POINT('Ctrl Pts',(-5.98418236797718,-6.82345977923792,-0.588306288192237));
#630=CARTESIAN_POINT('Ctrl Pts',(-5.99966535616253,-6.8705779851136,-0.147194806955482));
#631=CARTESIAN_POINT('Ctrl Pts',(-5.99967935473586,-6.8706275059746,-9.80958496494145E-5));
#632=CARTESIAN_POINT('',(-5.99997950872093,-3.12921525983923,0.000381465661914119));
#633=CARTESIAN_POINT('Ctrl Pts',(-5.99997950872093,-3.12921525983923,0.000381465661914108));
#634=CARTESIAN_POINT('Ctrl Pts',(-5.99990410067881,-3.12927838847599,-0.146845446569116));
#635=CARTESIAN_POINT('Ctrl Pts',(-5.98410500992031,-3.17663220365597,-0.588628341249375));
#636=CARTESIAN_POINT('Ctrl Pts',(-5.90194733913939,-3.42799856376779,-1.12527958021258));
#637=CARTESIAN_POINT('Ctrl Pts',(-5.75132539463977,-4.019679300157,-1.74485495594219));
#638=CARTESIAN_POINT('Ctrl Pts',(-5.67347670885971,-4.57724185794353,-1.95234782608696));
#639=CARTESIAN_POINT('Ctrl Pts',(-5.67347670885971,-5.,-1.95234782608696));
#640=CARTESIAN_POINT('',(-5.99971347655855,3.12939642291838,2.89580757321728E-7));
#641=CARTESIAN_POINT('',(-6.00000000000001,0.,-7.34788079488412E-16));
#642=CARTESIAN_POINT('',(-5.99970768116009,6.8706232777184,7.31978720757254E-5));
#643=CARTESIAN_POINT('Ctrl Pts',(-5.99969197982952,6.87060304282325,7.71295515625834E-5));
#644=CARTESIAN_POINT('Ctrl Pts',(-5.99970819936605,6.87064871163308,-0.147019753711588));
#645=CARTESIAN_POINT('Ctrl Pts',(-5.99457595138178,6.85503984695398,-0.294172933840182));
#646=CARTESIAN_POINT('Ctrl Pts',(-5.98432866491433,6.8237816998528,-0.437243008896649));
#647=CARTESIAN_POINT('Ctrl Pts',(-5.97408126148437,6.79252319597116,-0.580314716954792));
#648=CARTESIAN_POINT('Ctrl Pts',(-5.95871870280448,6.74561505242362,-0.719303226731164));
#649=CARTESIAN_POINT('Ctrl Pts',(-5.93982722724382,6.68463916358635,-0.850505870982007));
#650=CARTESIAN_POINT('Ctrl Pts',(-5.88315280056185,6.50171149707455,-1.24411380373454));
#651=CARTESIAN_POINT('Ctrl Pts',(-5.79471812195296,6.19217412295522,-1.56764894675731));
#652=CARTESIAN_POINT('Ctrl Pts',(-5.73688164965747,5.81486768992046,-1.75795270755063));
#653=CARTESIAN_POINT('Ctrl Pts',(-5.69832400146048,5.56333006789728,-1.88482188141284));
#654=CARTESIAN_POINT('Ctrl Pts',(-5.67336555606945,5.28167286413392,-1.95247710761751));
#655=CARTESIAN_POINT('Ctrl Pts',(-5.67336876455781,4.99999021434169,-1.95244198674631));
#656=CARTESIAN_POINT('Ctrl Pts',(-5.67337197304617,4.71830756454946,-1.95240686587512));
#657=CARTESIAN_POINT('Ctrl Pts',(-5.69833683541392,4.43659946872837,-1.88468139792806));
#658=CARTESIAN_POINT('Ctrl Pts',(-5.73695409756825,4.18500277661206,-1.75791274560043));
#659=CARTESIAN_POINT('Ctrl Pts',(-5.78522567526116,3.87050691146667,-1.59945193019089));
#660=CARTESIAN_POINT('Ctrl Pts',(-5.85482912762062,3.60306011461,-1.34873613918671));
#661=CARTESIAN_POINT('Ctrl Pts',(-5.90912875920967,3.41710311366658,-1.0411722451264));
#662=CARTESIAN_POINT('Ctrl Pts',(-5.9417085381631,3.30552891310053,-0.856633908690206));
#663=CARTESIAN_POINT('Ctrl Pts',(-5.96877894163919,3.22329103906325,-0.651630255153802));
#664=CARTESIAN_POINT('Ctrl Pts',(-5.98424448020504,3.17632749303386,-0.437206569335337));
#665=CARTESIAN_POINT('Ctrl Pts',(-5.9945549762023,3.14501804646712,-0.294255546651146));
#666=CARTESIAN_POINT('Ctrl Pts',(-5.99970761743998,3.1293864955083,-0.147117731727895));
#667=CARTESIAN_POINT('Ctrl Pts',(-5.99969436709064,3.12942286205021,3.08894130693826E-7));
#668=CARTESIAN_POINT('',(-6.00000000000001,9.5,-7.34788079488412E-16));
#669=CARTESIAN_POINT('',(-6.00000000000001,0.,-7.34788079488412E-16));
#670=CARTESIAN_POINT('',(6.00000000000001,9.5,-7.34788079488412E-16));
#671=CARTESIAN_POINT('Origin',(0.,9.5,0.));
#672=CARTESIAN_POINT('Origin',(0.,9.5,0.));
#673=CARTESIAN_POINT('',(-5.67347670885971,5.,1.95234782608696));
#674=CARTESIAN_POINT('Ctrl Pts',(-5.67347670885971,5.,1.95234782608696));
#675=CARTESIAN_POINT('Ctrl Pts',(-5.67347670885971,5.28183876137098,1.95234782608696));
#676=CARTESIAN_POINT('Ctrl Pts',(-5.69830958370175,5.5628897739196,1.88404473357636));
#677=CARTESIAN_POINT('Ctrl Pts',(-5.73697328241976,5.8144330726647,1.75736626639868));
#678=CARTESIAN_POINT('Ctrl Pts',(-5.77563698113776,6.06597637140981,1.63068779922099));
#679=CARTESIAN_POINT('Ctrl Pts',(-5.82813150373173,6.28801195635138,1.44563395737623));
#680=CARTESIAN_POINT('Ctrl Pts',(-5.87508973455688,6.46171109290925,1.21865248814967));
#681=CARTESIAN_POINT('Ctrl Pts',(-5.92204796538203,6.63541022946711,0.991671018923106));
#682=CARTESIAN_POINT('Ctrl Pts',(-5.96346990443837,6.76077291764125,0.722761922314745));
#683=CARTESIAN_POINT('Ctrl Pts',(-5.98416378103643,6.82349503717849,0.437069269388878));
#684=CARTESIAN_POINT('Ctrl Pts',(-5.99451083743405,6.85485645489813,0.294221312496744));
#685=CARTESIAN_POINT('Ctrl Pts',(-5.99967575992273,6.87055737297089,0.147177370742034));
#686=CARTESIAN_POINT('Ctrl Pts',(-5.99969197982952,6.87060304282325,7.71295515625834E-5));
#687=CARTESIAN_POINT('Ctrl Pts',(-5.99969436709064,3.12942286205021,3.08894130693826E-7));
#688=CARTESIAN_POINT('Ctrl Pts',(-5.9996811170933,3.12945922762601,0.147114441205501));
#689=CARTESIAN_POINT('Ctrl Pts',(-5.99450224997753,3.14516267825158,0.294208800266273));
#690=CARTESIAN_POINT('Ctrl Pts',(-5.98414972955639,3.17652323661494,0.43707715477986));
#691=CARTESIAN_POINT('Ctrl Pts',(-5.96344441368367,3.23924518648257,0.722817659322146));
#692=CARTESIAN_POINT('Ctrl Pts',(-5.92204393480195,3.36459723113188,0.991653696591762));
#693=CARTESIAN_POINT('Ctrl Pts',(-5.87509131762586,3.53829285692402,1.21862101889799));
#694=CARTESIAN_POINT('Ctrl Pts',(-5.82813870044977,3.71198848271616,1.44558834120422));
#695=CARTESIAN_POINT('Ctrl Pts',(-5.77563394497931,3.93402768965114,1.63068694854705));
#696=CARTESIAN_POINT('Ctrl Pts',(-5.73696844708179,4.18557087862936,1.75737681976774));
#697=CARTESIAN_POINT('Ctrl Pts',(-5.69830294918428,4.43711406760757,1.88406669098842));
#698=CARTESIAN_POINT('Ctrl Pts',(-5.67347670885971,4.71816123862902,1.95234782608696));
#699=CARTESIAN_POINT('Ctrl Pts',(-5.67347670885971,5.,1.95234782608696));
#700=CARTESIAN_POINT('Ctrl Pts',(-5.99967935473586,-6.8706275059746,-9.80958496494145E-5));
#701=CARTESIAN_POINT('Ctrl Pts',(-5.99969335298964,-6.87067702570516,0.146995257408389));
#702=CARTESIAN_POINT('Ctrl Pts',(-5.98942768736239,-6.83946398207709,0.441300501891126));
#703=CARTESIAN_POINT('Ctrl Pts',(-5.91266498362934,-6.60488390489203,1.13630443933036));
#704=CARTESIAN_POINT('Ctrl Pts',(-5.73559662765986,-5.98602410214231,1.78310400564941));
#705=CARTESIAN_POINT('Ctrl Pts',(-5.64858695799931,-4.999933828661,2.02033813965906));
#706=CARTESIAN_POINT('Ctrl Pts',(-5.71034130928852,-4.29636404203103,1.85011982293345));
#707=CARTESIAN_POINT('Ctrl Pts',(-5.8481919749777,-3.58523857629625,1.38374561771925));
#708=CARTESIAN_POINT('Ctrl Pts',(-5.97959202392298,-3.19178767218612,0.73639871632013));
#709=CARTESIAN_POINT('Ctrl Pts',(-6.00005491876638,-3.12915212952536,0.147612289199379));
#710=CARTESIAN_POINT('Ctrl Pts',(-5.99997950872093,-3.12921525983923,0.000381465661914108));
#711=CARTESIAN_POINT('',(5.67347670885971,5.,1.95234782608696));
#712=CARTESIAN_POINT('Ctrl Pts',(5.67347670885971,5.,1.95234782608696));
#713=CARTESIAN_POINT('Ctrl Pts',(5.67347670885971,4.71816123862902,1.95234782608696));
#714=CARTESIAN_POINT('Ctrl Pts',(5.72314407069079,4.15605996587128,1.81573979473458));
#715=CARTESIAN_POINT('Ctrl Pts',(5.88061765299066,3.48993849331579,1.26059322885478));
#716=CARTESIAN_POINT('Ctrl Pts',(6.00489502727732,3.11386142475051,0.453850741670792));
#717=CARTESIAN_POINT('Ctrl Pts',(6.00478043838787,3.1136193598923,-0.30229781055434));
#718=CARTESIAN_POINT('Ctrl Pts',(5.9126649836294,3.39511609510788,-1.13630443933041));
#719=CARTESIAN_POINT('Ctrl Pts',(5.73559662765992,4.0139758978576,-1.78310400564946));
#720=CARTESIAN_POINT('Ctrl Pts',(5.64858695799941,5.00006617133892,-2.02033813965908));
#721=CARTESIAN_POINT('Ctrl Pts',(5.71034130928863,5.70363595796893,-1.85011982293354));
#722=CARTESIAN_POINT('Ctrl Pts',(5.84819197497782,6.41476142370372,-1.38374561771935));
#723=CARTESIAN_POINT('Ctrl Pts',(6.00587161481785,6.88690125434137,-0.606931399737918));
#724=CARTESIAN_POINT('Ctrl Pts',(6.00464476865033,6.88621042978787,0.454463303881369));
#725=CARTESIAN_POINT('Ctrl Pts',(5.90194733913955,6.57200143623207,1.12527958021242));
#726=CARTESIAN_POINT('Ctrl Pts',(5.75132539464003,5.98032069984276,1.74485495594194));
#727=CARTESIAN_POINT('Ctrl Pts',(5.67347670885971,5.42275814205647,1.95234782608696));
#728=CARTESIAN_POINT('Ctrl Pts',(5.67347670885971,5.,1.95234782608696));
#729=CARTESIAN_POINT('Origin',(5.9,-5.,0.));
#730=CARTESIAN_POINT('',(2.52435318448113,-5.,-1.621));
#731=CARTESIAN_POINT('',(3.,-3.379,-2.03341031629501E-16));
#732=CARTESIAN_POINT('Ctrl Pts',(2.52435318448113,-5.,-1.621));
#733=CARTESIAN_POINT('Ctrl Pts',(2.52435318448113,-4.79106466470407,-1.621));
#734=CARTESIAN_POINT('Ctrl Pts',(2.55305222458698,-4.57230771390208,-1.57833768362928));
#735=CARTESIAN_POINT('Ctrl Pts',(2.64878298528701,-4.17483413344714,-1.41179783994583));
#736=CARTESIAN_POINT('Ctrl Pts',(2.71376847456038,-3.99558397905045,-1.28802416365724));
#737=CARTESIAN_POINT('Ctrl Pts',(2.83079462056628,-3.71252942473312,-1.00496960933991));
#738=CARTESIAN_POINT('Ctrl Pts',(2.89135633814668,-3.58835690892845,-0.825544988387124));
#739=CARTESIAN_POINT('Ctrl Pts',(2.97639327497823,-3.42148431228947,-0.427257660745022));
#740=CARTESIAN_POINT('Ctrl Pts',(3.,-3.379,-0.208119673412231));
#741=CARTESIAN_POINT('Ctrl Pts',(3.,-3.379,-6.93889390390723E-17));
#742=CARTESIAN_POINT('Ctrl Pts',(3.,-3.379,-2.08166817117217E-16));
#743=CARTESIAN_POINT('Ctrl Pts',(3.,-3.379,0.20811967341223));
#744=CARTESIAN_POINT('Ctrl Pts',(2.97639327497823,-3.42148431228947,0.427257660745022));
#745=CARTESIAN_POINT('Ctrl Pts',(2.89135633814668,-3.58835690892845,0.825544988387124));
#746=CARTESIAN_POINT('Ctrl Pts',(2.83079462056628,-3.71252942473312,1.00496960933991));
#747=CARTESIAN_POINT('Ctrl Pts',(2.71376847456038,-3.99558397905045,1.28802416365724));
#748=CARTESIAN_POINT('Ctrl Pts',(2.64878298528701,-4.17483413344714,1.41179783994583));
#749=CARTESIAN_POINT('Ctrl Pts',(2.55305222458698,-4.57230771390208,1.57833768362928));
#750=CARTESIAN_POINT('Ctrl Pts',(2.52435318448113,-4.79106466470407,1.621));
#751=CARTESIAN_POINT('Ctrl Pts',(2.52435318448113,-5.20893533529593,1.621));
#752=CARTESIAN_POINT('Ctrl Pts',(2.55305222458698,-5.42769228609792,1.57833768362928));
#753=CARTESIAN_POINT('Ctrl Pts',(2.64878298528701,-5.82516586655286,1.41179783994583));
#754=CARTESIAN_POINT('Ctrl Pts',(2.71376847456038,-6.00441602094955,1.28802416365724));
#755=CARTESIAN_POINT('Ctrl Pts',(2.83079462056628,-6.28747057526688,1.00496960933991));
#756=CARTESIAN_POINT('Ctrl Pts',(2.89135633814668,-6.41164309107155,0.825544988387124));
#757=CARTESIAN_POINT('Ctrl Pts',(2.97639327497823,-6.57851568771053,0.427257660745023));
#758=CARTESIAN_POINT('Ctrl Pts',(3.,-6.621,0.208119673412231));
#759=CARTESIAN_POINT('Ctrl Pts',(3.,-6.621,-0.20811967341223));
#760=CARTESIAN_POINT('Ctrl Pts',(2.97639327497823,-6.57851568771053,-0.427257660745022));
#761=CARTESIAN_POINT('Ctrl Pts',(2.89135633814668,-6.41164309107155,-0.825544988387124));
#762=CARTESIAN_POINT('Ctrl Pts',(2.83079462056628,-6.28747057526688,-1.00496960933991));
#763=CARTESIAN_POINT('Ctrl Pts',(2.71376847456038,-6.00441602094955,-1.28802416365724));
#764=CARTESIAN_POINT('Ctrl Pts',(2.64878298528701,-5.82516586655286,-1.41179783994583));
#765=CARTESIAN_POINT('Ctrl Pts',(2.55305222458698,-5.42769228609792,-1.57833768362928));
#766=CARTESIAN_POINT('Ctrl Pts',(2.52435318448113,-5.20893533529593,-1.621));
#767=CARTESIAN_POINT('Ctrl Pts',(2.52435318448113,-5.,-1.621));
#768=CARTESIAN_POINT('',(5.9,-3.379,-1.98515246141786E-16));
#769=CARTESIAN_POINT('Ctrl Pts',(5.43708184599055,5.,1.621));
#770=CARTESIAN_POINT('Ctrl Pts',(5.43708184599055,5.36626988149307,1.621));
#771=CARTESIAN_POINT('Ctrl Pts',(5.51168683653003,5.84933183027532,1.44872232590378));
#772=CARTESIAN_POINT('Ctrl Pts',(5.6560328666754,6.36195314170614,0.934299808236674));
#773=CARTESIAN_POINT('Ctrl Pts',(5.75445123662323,6.63417803671092,0.377332873655111));
#774=CARTESIAN_POINT('Ctrl Pts',(5.75562696420044,6.63477655440265,-0.503924447185747));
#775=CARTESIAN_POINT('Ctrl Pts',(5.60451730935374,6.22572328584914,-1.14889960505591));
#776=CARTESIAN_POINT('Ctrl Pts',(5.4724104214016,5.60961725701103,-1.53612189021983));
#777=CARTESIAN_POINT('Ctrl Pts',(5.41322916808277,5.00005732963142,-1.67745115938245));
#778=CARTESIAN_POINT('Ctrl Pts',(5.49661343484075,4.14572684683441,-1.4804798379349));
#779=CARTESIAN_POINT('Ctrl Pts',(5.66630394264484,3.60955809202025,-0.943453554506408));
#780=CARTESIAN_POINT('Ctrl Pts',(5.75458125345504,3.36567449619745,-0.250992545672935));
#781=CARTESIAN_POINT('Ctrl Pts',(5.75469106780743,3.36588421674002,0.376824274044899));
#782=CARTESIAN_POINT('Ctrl Pts',(5.63559191744938,3.6917104744334,1.04664834650349));
#783=CARTESIAN_POINT('Ctrl Pts',(5.484679734412,4.26882587101943,1.50757675857583));
#784=CARTESIAN_POINT('Ctrl Pts',(5.43708184599056,4.75582007900462,1.621));
#785=CARTESIAN_POINT('Ctrl Pts',(5.43708184599056,5.,1.621));
#786=CARTESIAN_POINT('Ctrl Pts',(5.51634108975565,5.,1.621));
#787=CARTESIAN_POINT('Ctrl Pts',(5.51634108975565,5.35982262266293,1.621));
#788=CARTESIAN_POINT('Ctrl Pts',(5.58652840161886,5.83733696118969,1.455310684016));
#789=CARTESIAN_POINT('Ctrl Pts',(5.72463128191039,6.35560139647424,0.944227782290349));
#790=CARTESIAN_POINT('Ctrl Pts',(5.81969968099381,6.63437923458307,0.383051030870943));
#791=CARTESIAN_POINT('Ctrl Pts',(5.82075843967617,6.63502473310663,-0.511646300493031));
#792=CARTESIAN_POINT('Ctrl Pts',(5.67503873057619,6.21574411481453,-1.1592026065959));
#793=CARTESIAN_POINT('Ctrl Pts',(5.54956018346651,5.59936182370234,-1.53893741465641));
#794=CARTESIAN_POINT('Ctrl Pts',(5.49409590708721,5.0001105390716,-1.67453940390121));
#795=CARTESIAN_POINT('Ctrl Pts',(5.57214270865682,4.15998546491227,-1.48609798959528));
#796=CARTESIAN_POINT('Ctrl Pts',(5.73442828687078,3.61544495949122,-0.954457929414315));
#797=CARTESIAN_POINT('Ctrl Pts',(5.81982575681383,3.36552358329447,-0.2544617835273));
#798=CARTESIAN_POINT('Ctrl Pts',(5.81988093455553,3.36567075137646,0.382474215739909));
#799=CARTESIAN_POINT('Ctrl Pts',(5.70486696545787,3.69972135649609,1.05761668797278));
#800=CARTESIAN_POINT('Ctrl Pts',(5.56096482850702,4.28072132503774,1.51206606612011));
#801=CARTESIAN_POINT('Ctrl Pts',(5.51634108975565,4.76011825155804,1.621));
#802=CARTESIAN_POINT('Ctrl Pts',(5.51634108975565,5.,1.621));
#803=CARTESIAN_POINT('Ctrl Pts',(5.67350843402712,5.,1.70232519226833));
#804=CARTESIAN_POINT('Ctrl Pts',(5.67350843402712,5.36644052538206,1.70232519226833));
#805=CARTESIAN_POINT('Ctrl Pts',(5.73514946573162,5.8548202107244,1.53363821935105));
#806=CARTESIAN_POINT('Ctrl Pts',(5.86150878619545,6.39600207835199,0.998214638738185));
#807=CARTESIAN_POINT('Ctrl Pts',(5.95002661636639,6.68929482699684,0.405993758680134));
#808=CARTESIAN_POINT('Ctrl Pts',(5.95093304699204,6.69019093918443,-0.54246302455606));
#809=CARTESIAN_POINT('Ctrl Pts',(5.81543937917695,6.24820294859134,-1.2249008590848));
#810=CARTESIAN_POINT('Ctrl Pts',(5.70239058861163,5.61037218267,-1.61932892498856));
#811=CARTESIAN_POINT('Ctrl Pts',(5.653881834516,5.00039522821499,-1.75750896596936));
#812=CARTESIAN_POINT('Ctrl Pts',(5.72200370758477,4.14422654883469,-1.56568950420686));
#813=CARTESIAN_POINT('Ctrl Pts',(5.8703249408155,3.5737152477823,-1.00986938109328));
#814=CARTESIAN_POINT('Ctrl Pts',(5.95023869823758,3.31052596813565,-0.26952496204582));
#815=CARTESIAN_POINT('Ctrl Pts',(5.95016065431215,3.31065186431405,0.405035620768752));
#816=CARTESIAN_POINT('Ctrl Pts',(5.84301736509021,3.66258784687909,1.11825652616468));
#817=CARTESIAN_POINT('Ctrl Pts',(5.7124288798968,4.26708221926281,1.5915009472371));
#818=CARTESIAN_POINT('Ctrl Pts',(5.67350843402712,4.75570631641196,1.70232519226832));
#819=CARTESIAN_POINT('Ctrl Pts',(5.67350843402712,5.,1.70232519226832));
#820=CARTESIAN_POINT('Ctrl Pts',(5.69926697757006,5.,1.87740191384311));
#821=CARTESIAN_POINT('Ctrl Pts',(5.69926697757006,5.40373800081888,1.87740191384311));
#822=CARTESIAN_POINT('Ctrl Pts',(5.76972443815807,5.93816485873459,1.68119441927709));
#823=CARTESIAN_POINT('Ctrl Pts',(5.90844316081791,6.51304908300476,1.08659035654755));
#824=CARTESIAN_POINT('Ctrl Pts',(6.00415117598547,6.82038643871283,0.43953352512539));
#825=CARTESIAN_POINT('Ctrl Pts',(6.00517682302213,6.82113141028559,-0.587052199687011));
#826=CARTESIAN_POINT('Ctrl Pts',(5.85862856495716,6.3589139378348,-1.33552117218052));
#827=CARTESIAN_POINT('Ctrl Pts',(5.7327122126772,5.67222399408944,-1.78075212734985));
#828=CARTESIAN_POINT('Ctrl Pts',(5.67714084562209,5.00015481632428,-1.94160056957405));
#829=CARTESIAN_POINT('Ctrl Pts',(5.75530004523941,4.05783142429828,-1.71763595055888));
#830=CARTESIAN_POINT('Ctrl Pts',(5.91831397692364,3.45490907098033,-1.09771017374944));
#831=CARTESIAN_POINT('Ctrl Pts',(6.00423968338211,3.17946499228295,-0.292219851390188));
#832=CARTESIAN_POINT('Ctrl Pts',(6.00430091159421,3.17964617861729,0.438839205780238));
#833=CARTESIAN_POINT('Ctrl Pts',(5.88856668905918,3.54779993252764,1.21727183406393));
#834=CARTESIAN_POINT('Ctrl Pts',(5.7440299162196,4.19341626493183,1.74832023306018));
#835=CARTESIAN_POINT('Ctrl Pts',(5.69926697757006,4.73084133278741,1.87740191384311));
#836=CARTESIAN_POINT('Ctrl Pts',(5.69926697757006,5.,1.87740191384311));
#837=CARTESIAN_POINT('Ctrl Pts',(5.67347670885971,5.,1.95234782608696));
#838=CARTESIAN_POINT('Ctrl Pts',(5.67347670885971,5.42275814205647,1.95234782608696));
#839=CARTESIAN_POINT('Ctrl Pts',(5.75132539464003,5.98032069984276,1.74485495594194));
#840=CARTESIAN_POINT('Ctrl Pts',(5.90194733913955,6.57200143623207,1.12527958021242));
#841=CARTESIAN_POINT('Ctrl Pts',(6.00464476865033,6.88621042978787,0.454463303881369));
#842=CARTESIAN_POINT('Ctrl Pts',(6.00587161481785,6.88690125434137,-0.606931399737918));
#843=CARTESIAN_POINT('Ctrl Pts',(5.84819197497782,6.41476142370372,-1.38374561771935));
#844=CARTESIAN_POINT('Ctrl Pts',(5.71034130928863,5.70363595796893,-1.85011982293354));
#845=CARTESIAN_POINT('Ctrl Pts',(5.64858695799941,5.00006617133892,-2.02033813965908));
#846=CARTESIAN_POINT('Ctrl Pts',(5.73559662765992,4.0139758978576,-1.78310400564946));
#847=CARTESIAN_POINT('Ctrl Pts',(5.9126649836294,3.39511609510788,-1.13630443933041));
#848=CARTESIAN_POINT('Ctrl Pts',(6.00478043838787,3.1136193598923,-0.30229781055434));
#849=CARTESIAN_POINT('Ctrl Pts',(6.00489502727732,3.11386142475051,0.453850741670792));
#850=CARTESIAN_POINT('Ctrl Pts',(5.88061765299066,3.48993849331579,1.26059322885478));
#851=CARTESIAN_POINT('Ctrl Pts',(5.72314407069079,4.15605996587128,1.81573979473458));
#852=CARTESIAN_POINT('Ctrl Pts',(5.67347670885971,4.71816123862902,1.95234782608696));
#853=CARTESIAN_POINT('Ctrl Pts',(5.67347670885971,5.,1.95234782608696));
#854=CARTESIAN_POINT('',(5.43708184599055,5.,1.621));
#855=CARTESIAN_POINT('Origin',(5.43708184599055,5.,1.871));
#856=CARTESIAN_POINT('',(5.74969271495526,3.37932272197497,8.14472554795664E-5));
#857=CARTESIAN_POINT('Ctrl Pts',(5.43708184599055,5.,1.621));
#858=CARTESIAN_POINT('Ctrl Pts',(5.43708184599055,5.36626988149307,1.621));
#859=CARTESIAN_POINT('Ctrl Pts',(5.51168683653003,5.84933183027532,1.44872232590378));
#860=CARTESIAN_POINT('Ctrl Pts',(5.6560328666754,6.36195314170614,0.934299808236674));
#861=CARTESIAN_POINT('Ctrl Pts',(5.75445123662323,6.63417803671092,0.377332873655111));
#862=CARTESIAN_POINT('Ctrl Pts',(5.75562696420044,6.63477655440265,-0.503924447185747));
#863=CARTESIAN_POINT('Ctrl Pts',(5.60451730935374,6.22572328584914,-1.14889960505591));
#864=CARTESIAN_POINT('Ctrl Pts',(5.4724104214016,5.60961725701103,-1.53612189021983));
#865=CARTESIAN_POINT('Ctrl Pts',(5.41322916808277,5.00005732963142,-1.67745115938245));
#866=CARTESIAN_POINT('Ctrl Pts',(5.49661343484075,4.14572684683441,-1.4804798379349));
#867=CARTESIAN_POINT('Ctrl Pts',(5.66630394264484,3.60955809202025,-0.943453554506408));
#868=CARTESIAN_POINT('Ctrl Pts',(5.73986820038902,3.40632222611061,-0.366404031088756));
#869=CARTESIAN_POINT('Ctrl Pts',(5.74970612994846,3.37927981899086,-0.122047572197565));
#870=CARTESIAN_POINT('Ctrl Pts',(5.74969271495525,3.37932272197497,8.14472554795838E-5));
#871=CARTESIAN_POINT('Ctrl Pts',(5.74969271495525,3.37932272197497,8.14472554795838E-5));
#872=CARTESIAN_POINT('Ctrl Pts',(5.74967929965581,3.37936562593846,0.122213254670383));
#873=CARTESIAN_POINT('Ctrl Pts',(5.73484143597817,3.42018797319904,0.488460345240272));
#874=CARTESIAN_POINT('Ctrl Pts',(5.63559191744938,3.6917104744334,1.04664834650349));
#875=CARTESIAN_POINT('Ctrl Pts',(5.484679734412,4.26882587101943,1.50757675857583));
#876=CARTESIAN_POINT('Ctrl Pts',(5.43708184599056,4.75582007900462,1.621));
#877=CARTESIAN_POINT('Ctrl Pts',(5.43708184599056,5.,1.621));
#878=CARTESIAN_POINT('Origin',(5.9,5.,0.));
#879=CARTESIAN_POINT('',(2.52435318448113,5.,1.621));
#880=CARTESIAN_POINT('',(3.,3.379,-1.68646562109965E-16));
#881=CARTESIAN_POINT('Ctrl Pts',(2.52435318448113,5.,1.621));
#882=CARTESIAN_POINT('Ctrl Pts',(2.52435318448113,4.79106466470407,1.621));
#883=CARTESIAN_POINT('Ctrl Pts',(2.55305222458698,4.57230771390208,1.57833768362928));
#884=CARTESIAN_POINT('Ctrl Pts',(2.64878298528701,4.17483413344714,1.41179783994583));
#885=CARTESIAN_POINT('Ctrl Pts',(2.71376847456038,3.99558397905045,1.28802416365724));
#886=CARTESIAN_POINT('Ctrl Pts',(2.83079462056628,3.71252942473312,1.00496960933991));
#887=CARTESIAN_POINT('Ctrl Pts',(2.89135633814668,3.58835690892845,0.825544988387123));
#888=CARTESIAN_POINT('Ctrl Pts',(2.97639327497823,3.42148431228947,0.427257660745022));
#889=CARTESIAN_POINT('Ctrl Pts',(3.,3.379,0.20811967341223));
#890=CARTESIAN_POINT('Ctrl Pts',(3.,3.379,-2.08166817117217E-16));
#891=CARTESIAN_POINT('Ctrl Pts',(3.,3.379,-1.38777878078145E-16));
#892=CARTESIAN_POINT('Ctrl Pts',(3.,3.379,-0.208119673412231));
#893=CARTESIAN_POINT('Ctrl Pts',(2.97639327497823,3.42148431228947,-0.427257660745022));
#894=CARTESIAN_POINT('Ctrl Pts',(2.89135633814668,3.58835690892845,-0.825544988387124));
#895=CARTESIAN_POINT('Ctrl Pts',(2.83079462056628,3.71252942473312,-1.00496960933991));
#896=CARTESIAN_POINT('Ctrl Pts',(2.71376847456038,3.99558397905045,-1.28802416365724));
#897=CARTESIAN_POINT('Ctrl Pts',(2.64878298528701,4.17483413344714,-1.41179783994583));
#898=CARTESIAN_POINT('Ctrl Pts',(2.55305222458698,4.57230771390208,-1.57833768362928));
#899=CARTESIAN_POINT('Ctrl Pts',(2.52435318448113,4.79106466470407,-1.621));
#900=CARTESIAN_POINT('Ctrl Pts',(2.52435318448113,5.20893533529593,-1.621));
#901=CARTESIAN_POINT('Ctrl Pts',(2.55305222458698,5.42769228609792,-1.57833768362928));
#902=CARTESIAN_POINT('Ctrl Pts',(2.64878298528701,5.82516586655286,-1.41179783994583));
#903=CARTESIAN_POINT('Ctrl Pts',(2.71376847456038,6.00441602094955,-1.28802416365724));
#904=CARTESIAN_POINT('Ctrl Pts',(2.83079462056628,6.28747057526688,-1.00496960933991));
#905=CARTESIAN_POINT('Ctrl Pts',(2.89135633814668,6.41164309107155,-0.825544988387124));
#906=CARTESIAN_POINT('Ctrl Pts',(2.97639327497823,6.57851568771053,-0.427257660745023));
#907=CARTESIAN_POINT('Ctrl Pts',(3.,6.621,-0.20811967341223));
#908=CARTESIAN_POINT('Ctrl Pts',(3.,6.621,0.20811967341223));
#909=CARTESIAN_POINT('Ctrl Pts',(2.97639327497823,6.57851568771053,0.427257660745023));
#910=CARTESIAN_POINT('Ctrl Pts',(2.89135633814668,6.41164309107155,0.825544988387124));
#911=CARTESIAN_POINT('Ctrl Pts',(2.83079462056628,6.28747057526688,1.00496960933991));
#912=CARTESIAN_POINT('Ctrl Pts',(2.71376847456038,6.00441602094955,1.28802416365724));
#913=CARTESIAN_POINT('Ctrl Pts',(2.64878298528701,5.82516586655286,1.41179783994583));
#914=CARTESIAN_POINT('Ctrl Pts',(2.55305222458698,5.42769228609792,1.57833768362928));
#915=CARTESIAN_POINT('Ctrl Pts',(2.52435318448113,5.20893533529593,1.621));
#916=CARTESIAN_POINT('Ctrl Pts',(2.52435318448113,5.,1.621));
#917=CARTESIAN_POINT('',(5.9,3.379,-1.98515246141786E-16));
#918=CARTESIAN_POINT('Ctrl Pts',(-5.43708184599055,-5.,-1.621));
#919=CARTESIAN_POINT('Ctrl Pts',(-5.43708184599055,-4.63373011850693,-1.621));
#920=CARTESIAN_POINT('Ctrl Pts',(-5.51168683652978,-4.15066816972448,-1.44872232590399));
#921=CARTESIAN_POINT('Ctrl Pts',(-5.65603286667525,-3.63804685829374,-0.93429980823681));
#922=CARTESIAN_POINT('Ctrl Pts',(-5.75445123662307,-3.36582196328897,-0.377332873655274));
#923=CARTESIAN_POINT('Ctrl Pts',(-5.7556269642003,-3.3652234455973,0.503924447185645));
#924=CARTESIAN_POINT('Ctrl Pts',(-5.60451730935363,-3.77427671415084,1.14889960505583));
#925=CARTESIAN_POINT('Ctrl Pts',(-5.4724104214015,-4.39038274298894,1.53612189021975));
#926=CARTESIAN_POINT('Ctrl Pts',(-5.41322916808268,-4.99994267036851,1.67745115938243));
#927=CARTESIAN_POINT('Ctrl Pts',(-5.4966134348407,-5.85427315316551,1.48047983793486));
#928=CARTESIAN_POINT('Ctrl Pts',(-5.66630394264478,-6.39044190797968,0.943453554506362));
#929=CARTESIAN_POINT('Ctrl Pts',(-5.75458125345498,-6.63432550380251,0.250992545672874));
#930=CARTESIAN_POINT('Ctrl Pts',(-5.7546910678074,-6.63411578326002,-0.376824274044944));
#931=CARTESIAN_POINT('Ctrl Pts',(-5.63559191744934,-6.30828952556661,-1.04664834650353));
#932=CARTESIAN_POINT('Ctrl Pts',(-5.48467973441192,-5.73117412898063,-1.50757675857591));
#933=CARTESIAN_POINT('Ctrl Pts',(-5.43708184599055,-5.24417992099538,-1.621));
#934=CARTESIAN_POINT('Ctrl Pts',(-5.43708184599055,-5.,-1.621));
#935=CARTESIAN_POINT('Ctrl Pts',(-5.51634108975565,-5.,-1.621));
#936=CARTESIAN_POINT('Ctrl Pts',(-5.51634108975565,-4.64017737733707,-1.621));
#937=CARTESIAN_POINT('Ctrl Pts',(-5.58652840161864,-4.16266303881006,-1.45531068401619));
#938=CARTESIAN_POINT('Ctrl Pts',(-5.72463128191027,-3.64439860352558,-0.944227782290443));
#939=CARTESIAN_POINT('Ctrl Pts',(-5.81969968099369,-3.36562076541674,-0.383051030871044));
#940=CARTESIAN_POINT('Ctrl Pts',(-5.82075843967607,-3.36497526689323,0.511646300493025));
#941=CARTESIAN_POINT('Ctrl Pts',(-5.67503873057609,-3.78425588518532,1.15920260659598));
#942=CARTESIAN_POINT('Ctrl Pts',(-5.5495601834664,-4.40063817629756,1.53893741465656));
#943=CARTESIAN_POINT('Ctrl Pts',(-5.49409590708709,-4.99988946092837,1.67453940390149));
#944=CARTESIAN_POINT('Ctrl Pts',(-5.57214270865676,-5.84001453508778,1.48609798959548));
#945=CARTESIAN_POINT('Ctrl Pts',(-5.73442828687074,-6.38455504050887,0.954457929414436));
#946=CARTESIAN_POINT('Ctrl Pts',(-5.81982575681381,-6.63447641670563,0.254461783527359));
#947=CARTESIAN_POINT('Ctrl Pts',(-5.81988093455555,-6.63432924862372,-0.382474215739838));
#948=CARTESIAN_POINT('Ctrl Pts',(-5.70486696545786,-6.30027864350405,-1.05761668797274));
#949=CARTESIAN_POINT('Ctrl Pts',(-5.56096482850696,-5.71927867496242,-1.51206606612015));
#950=CARTESIAN_POINT('Ctrl Pts',(-5.51634108975565,-5.23988174844196,-1.621));
#951=CARTESIAN_POINT('Ctrl Pts',(-5.51634108975565,-5.,-1.621));
#952=CARTESIAN_POINT('Ctrl Pts',(-5.67350843402728,-5.,-1.70232519226821));
#953=CARTESIAN_POINT('Ctrl Pts',(-5.67350843402728,-4.63355947461794,-1.70232519226821));
#954=CARTESIAN_POINT('Ctrl Pts',(-5.73514946573149,-4.14517978927571,-1.53363821935119));
#955=CARTESIAN_POINT('Ctrl Pts',(-5.86150878619538,-3.60399792164811,-0.998214638738295));
#956=CARTESIAN_POINT('Ctrl Pts',(-5.95002661636626,-3.31070517300327,-0.405993758680334));
#957=CARTESIAN_POINT('Ctrl Pts',(-5.95093304699195,-3.30980906081569,0.542463024555905));
#958=CARTESIAN_POINT('Ctrl Pts',(-5.81543937917694,-3.75179705140878,1.22490085908459));
#959=CARTESIAN_POINT('Ctrl Pts',(-5.70239058861168,-4.38962781733006,1.6193289249883));
#960=CARTESIAN_POINT('Ctrl Pts',(-5.65388183451611,-4.99960477178497,1.75750896596913));
#961=CARTESIAN_POINT('Ctrl Pts',(-5.72200370758485,-5.85577345116519,1.5656895042067));
#962=CARTESIAN_POINT('Ctrl Pts',(-5.87032494081552,-6.42628475221754,1.00986938109318));
#963=CARTESIAN_POINT('Ctrl Pts',(-5.95023869823758,-6.6894740318642,0.269524962045738));
#964=CARTESIAN_POINT('Ctrl Pts',(-5.95016065431215,-6.68934813568585,-0.40503562076875));
#965=CARTESIAN_POINT('Ctrl Pts',(-5.84301736509024,-6.33741215312081,-1.11825652616465));
#966=CARTESIAN_POINT('Ctrl Pts',(-5.71242887989685,-5.7329177807371,-1.59150094723706));
#967=CARTESIAN_POINT('Ctrl Pts',(-5.67350843402728,-5.24429368358804,-1.70232519226821));
#968=CARTESIAN_POINT('Ctrl Pts',(-5.67350843402728,-5.,-1.70232519226821));
#969=CARTESIAN_POINT('Ctrl Pts',(-5.69926697757006,-5.,-1.87740191384311));
#970=CARTESIAN_POINT('Ctrl Pts',(-5.69926697757006,-4.59626199918112,-1.87740191384311));
#971=CARTESIAN_POINT('Ctrl Pts',(-5.76972443815789,-4.06183514126521,-1.68119441927733));
#972=CARTESIAN_POINT('Ctrl Pts',(-5.90844316081784,-3.48695091699511,-1.0865903565477));
#973=CARTESIAN_POINT('Ctrl Pts',(-6.00415117598544,-3.17961356128705,-0.439533525125583));
#974=CARTESIAN_POINT('Ctrl Pts',(-6.00517682302209,-3.17886858971434,0.587052199686886));
#975=CARTESIAN_POINT('Ctrl Pts',(-5.85862856495708,-3.64108606216514,1.33552117218041));
#976=CARTESIAN_POINT('Ctrl Pts',(-5.73271221267707,-4.32777600591052,1.78075212734974));
#977=CARTESIAN_POINT('Ctrl Pts',(-5.67714084562191,-4.99984518367566,1.94160056957401));
#978=CARTESIAN_POINT('Ctrl Pts',(-5.75530004523933,-5.94216857570169,1.71763595055883));
#979=CARTESIAN_POINT('Ctrl Pts',(-5.91831397692364,-6.54509092901964,1.0977101737494));
#980=CARTESIAN_POINT('Ctrl Pts',(-6.00423968338216,-6.82053500771705,0.292219851390123));
#981=CARTESIAN_POINT('Ctrl Pts',(-6.00430091159432,-6.82035382138278,-0.438839205780271));
#982=CARTESIAN_POINT('Ctrl Pts',(-5.88856668905924,-6.45220006747241,-1.21727183406396));
#983=CARTESIAN_POINT('Ctrl Pts',(-5.74402991621956,-5.80658373506826,-1.74832023306025));
#984=CARTESIAN_POINT('Ctrl Pts',(-5.69926697757006,-5.26915866721259,-1.87740191384311));
#985=CARTESIAN_POINT('Ctrl Pts',(-5.69926697757006,-5.,-1.87740191384311));
#986=CARTESIAN_POINT('Ctrl Pts',(-5.67347670885971,-5.,-1.95234782608696));
#987=CARTESIAN_POINT('Ctrl Pts',(-5.67347670885971,-4.57724185794353,-1.95234782608696));
#988=CARTESIAN_POINT('Ctrl Pts',(-5.75132539463977,-4.019679300157,-1.74485495594219));
#989=CARTESIAN_POINT('Ctrl Pts',(-5.90194733913939,-3.42799856376779,-1.12527958021258));
#990=CARTESIAN_POINT('Ctrl Pts',(-6.00464476865016,-3.113789570212,-0.454463303881566));
#991=CARTESIAN_POINT('Ctrl Pts',(-6.00587161481771,-3.11309874565857,0.606931399737795));
#992=CARTESIAN_POINT('Ctrl Pts',(-5.8481919749777,-3.58523857629625,1.38374561771925));
#993=CARTESIAN_POINT('Ctrl Pts',(-5.71034130928852,-4.29636404203103,1.85011982293345));
#994=CARTESIAN_POINT('Ctrl Pts',(-5.64858695799931,-4.999933828661,2.02033813965906));
#995=CARTESIAN_POINT('Ctrl Pts',(-5.73559662765986,-5.98602410214231,1.78310400564941));
#996=CARTESIAN_POINT('Ctrl Pts',(-5.91266498362934,-6.60488390489203,1.13630443933036));
#997=CARTESIAN_POINT('Ctrl Pts',(-6.0047804383878,-6.88638064010765,0.302297810554267));
#998=CARTESIAN_POINT('Ctrl Pts',(-6.00489502727728,-6.88613857524953,-0.453850741670847));
#999=CARTESIAN_POINT('Ctrl Pts',(-5.88061765299061,-6.51006150668423,-1.26059322885483));
#1000=CARTESIAN_POINT('Ctrl Pts',(-5.7231440706907,-5.84394003412879,-1.81573979473467));
#1001=CARTESIAN_POINT('Ctrl Pts',(-5.67347670885971,-5.28183876137098,-1.95234782608696));
#1002=CARTESIAN_POINT('Ctrl Pts',(-5.67347670885971,-5.,-1.95234782608696));
#1003=CARTESIAN_POINT('',(-5.43708184599055,-5.,-1.621));
#1004=CARTESIAN_POINT('Origin',(-5.43708184599055,-5.,-1.871));
#1005=CARTESIAN_POINT('',(-5.74998036252422,-3.37918649716696,0.00031672421773446));
#1006=CARTESIAN_POINT('Ctrl Pts',(-5.43708184599055,-5.,-1.621));
#1007=CARTESIAN_POINT('Ctrl Pts',(-5.43708184599055,-4.63373011850693,-1.621));
#1008=CARTESIAN_POINT('Ctrl Pts',(-5.51168683652978,-4.15066816972448,-1.44872232590399));
#1009=CARTESIAN_POINT('Ctrl Pts',(-5.65603286667525,-3.63804685829374,-0.93429980823681));
#1010=CARTESIAN_POINT('Ctrl Pts',(-5.73476730117364,-3.42026766548708,-0.488727740219144));
#1011=CARTESIAN_POINT('Ctrl Pts',(-5.74990809648386,-3.37924119065718,-0.121923186897299));
#1012=CARTESIAN_POINT('Ctrl Pts',(-5.74998036252422,-3.37918649716697,0.000316724217734468));
#1013=CARTESIAN_POINT('Ctrl Pts',(-5.74998036252422,-3.37918649716697,0.000316724217734468));
#1014=CARTESIAN_POINT('Ctrl Pts',(-5.75005263048444,-3.37913180222373,0.122559882821585));
#1015=CARTESIAN_POINT('Ctrl Pts',(-5.73044235625953,-3.43339808477483,0.611418878954289));
#1016=CARTESIAN_POINT('Ctrl Pts',(-5.60451730935363,-3.77427671415084,1.14889960505583));
#1017=CARTESIAN_POINT('Ctrl Pts',(-5.4724104214015,-4.39038274298894,1.53612189021975));
#1018=CARTESIAN_POINT('Ctrl Pts',(-5.41322916808268,-4.99994267036851,1.67745115938243));
#1019=CARTESIAN_POINT('Ctrl Pts',(-5.4966134348407,-5.85427315316551,1.48047983793486));
#1020=CARTESIAN_POINT('Ctrl Pts',(-5.66630394264478,-6.39044190797968,0.943453554506362));
#1021=CARTESIAN_POINT('Ctrl Pts',(-5.75458125345498,-6.63432550380251,0.250992545672874));
#1022=CARTESIAN_POINT('Ctrl Pts',(-5.7546910678074,-6.63411578326002,-0.376824274044944));
#1023=CARTESIAN_POINT('Ctrl Pts',(-5.63559191744934,-6.30828952556661,-1.04664834650353));
#1024=CARTESIAN_POINT('Ctrl Pts',(-5.48467973441192,-5.73117412898063,-1.50757675857591));
#1025=CARTESIAN_POINT('Ctrl Pts',(-5.43708184599055,-5.24417992099538,-1.621));
#1026=CARTESIAN_POINT('Ctrl Pts',(-5.43708184599055,-5.,-1.621));
#1027=CARTESIAN_POINT('Origin',(-5.9,-5.,0.));
#1028=CARTESIAN_POINT('',(-2.52435318448113,-5.,-1.621));
#1029=CARTESIAN_POINT('',(-3.,-6.621,2.44697972451138E-17));
#1030=CARTESIAN_POINT('Ctrl Pts',(-2.52435318448113,-5.,-1.621));
#1031=CARTESIAN_POINT('Ctrl Pts',(-2.52435318448113,-5.20893533529593,-1.621));
#1032=CARTESIAN_POINT('Ctrl Pts',(-2.55305222458698,-5.42769228609792,-1.57833768362928));
#1033=CARTESIAN_POINT('Ctrl Pts',(-2.64878298528701,-5.82516586655286,-1.41179783994583));
#1034=CARTESIAN_POINT('Ctrl Pts',(-2.71376847456038,-6.00441602094955,-1.28802416365724));
#1035=CARTESIAN_POINT('Ctrl Pts',(-2.83079462056628,-6.28747057526688,-1.00496960933991));
#1036=CARTESIAN_POINT('Ctrl Pts',(-2.89135633814668,-6.41164309107155,-0.825544988387124));
#1037=CARTESIAN_POINT('Ctrl Pts',(-2.97639327497823,-6.57851568771053,-0.427257660745022));
#1038=CARTESIAN_POINT('Ctrl Pts',(-3.,-6.621,-0.20811967341223));
#1039=CARTESIAN_POINT('Ctrl Pts',(-3.,-6.621,4.85722573273506E-16));
#1040=CARTESIAN_POINT('',(-3.,-3.379,-1.33952092590429E-16));
#1041=CARTESIAN_POINT('Ctrl Pts',(-3.,-3.379,0.));
#1042=CARTESIAN_POINT('Ctrl Pts',(-3.,-3.379,-0.20811967341223));
#1043=CARTESIAN_POINT('Ctrl Pts',(-2.97639327497823,-3.42148431228947,-0.427257660745022));
#1044=CARTESIAN_POINT('Ctrl Pts',(-2.89135633814668,-3.58835690892845,-0.825544988387124));
#1045=CARTESIAN_POINT('Ctrl Pts',(-2.83079462056628,-3.71252942473312,-1.00496960933991));
#1046=CARTESIAN_POINT('Ctrl Pts',(-2.71376847456038,-3.99558397905045,-1.28802416365724));
#1047=CARTESIAN_POINT('Ctrl Pts',(-2.64878298528701,-4.17483413344714,-1.41179783994583));
#1048=CARTESIAN_POINT('Ctrl Pts',(-2.55305222458698,-4.57230771390208,-1.57833768362928));
#1049=CARTESIAN_POINT('Ctrl Pts',(-2.52435318448113,-4.79106466470407,-1.621));
#1050=CARTESIAN_POINT('Ctrl Pts',(-2.52435318448113,-5.,-1.621));
#1051=CARTESIAN_POINT('',(-5.9,-3.379,-1.98515246141786E-16));
#1052=CARTESIAN_POINT('Ctrl Pts',(-3.,-6.621,4.16333634234434E-16));
#1053=CARTESIAN_POINT('Ctrl Pts',(-3.,-6.621,0.208119673412231));
#1054=CARTESIAN_POINT('Ctrl Pts',(-2.97639327497823,-6.57851568771053,0.427257660745023));
#1055=CARTESIAN_POINT('Ctrl Pts',(-2.89135633814668,-6.41164309107155,0.825544988387124));
#1056=CARTESIAN_POINT('Ctrl Pts',(-2.83079462056628,-6.28747057526688,1.00496960933991));
#1057=CARTESIAN_POINT('Ctrl Pts',(-2.71376847456038,-6.00441602094955,1.28802416365724));
#1058=CARTESIAN_POINT('Ctrl Pts',(-2.64878298528701,-5.82516586655286,1.41179783994583));
#1059=CARTESIAN_POINT('Ctrl Pts',(-2.55305222458698,-5.42769228609792,1.57833768362928));
#1060=CARTESIAN_POINT('Ctrl Pts',(-2.52435318448113,-5.20893533529593,1.621));
#1061=CARTESIAN_POINT('Ctrl Pts',(-2.52435318448113,-4.79106466470407,1.621));
#1062=CARTESIAN_POINT('Ctrl Pts',(-2.55305222458698,-4.57230771390208,1.57833768362928));
#1063=CARTESIAN_POINT('Ctrl Pts',(-2.64878298528701,-4.17483413344714,1.41179783994583));
#1064=CARTESIAN_POINT('Ctrl Pts',(-2.71376847456038,-3.99558397905045,1.28802416365724));
#1065=CARTESIAN_POINT('Ctrl Pts',(-2.83079462056628,-3.71252942473312,1.00496960933991));
#1066=CARTESIAN_POINT('Ctrl Pts',(-2.89135633814668,-3.58835690892845,0.825544988387124));
#1067=CARTESIAN_POINT('Ctrl Pts',(-2.97639327497823,-3.42148431228947,0.427257660745022));
#1068=CARTESIAN_POINT('Ctrl Pts',(-3.,-3.379,0.20811967341223));
#1069=CARTESIAN_POINT('Ctrl Pts',(-3.,-3.379,-2.08166817117217E-16));
#1070=CARTESIAN_POINT('Ctrl Pts',(-5.43708184599055,5.,1.621));
#1071=CARTESIAN_POINT('Ctrl Pts',(-5.43708184599055,4.75582007900462,1.621));
#1072=CARTESIAN_POINT('Ctrl Pts',(-5.48466547327931,4.26883187566334,1.50761475325679));
#1073=CARTESIAN_POINT('Ctrl Pts',(-5.63561664525689,3.69171981616317,1.04656241643403));
#1074=CARTESIAN_POINT('Ctrl Pts',(-5.75464302204184,3.36591169583737,0.376932941719769));
#1075=CARTESIAN_POINT('Ctrl Pts',(-5.7546697790681,3.36569284655386,-0.31408922404468));
#1076=CARTESIAN_POINT('Ctrl Pts',(-5.65089989907645,3.65069037475148,-0.994932909667137));
#1077=CARTESIAN_POINT('Ctrl Pts',(-5.4908119586497,4.20679674486969,-1.49452867856124));
#1078=CARTESIAN_POINT('Ctrl Pts',(-5.41305681440015,5.00001356785712,-1.67728028242233));
#1079=CARTESIAN_POINT('Ctrl Pts',(-5.49677159998257,5.85409274773496,-1.48067498456333));
#1080=CARTESIAN_POINT('Ctrl Pts',(-5.66627140064962,6.39044772736879,-0.943423927315948));
#1081=CARTESIAN_POINT('Ctrl Pts',(-5.75460611305897,6.63428984609855,-0.251025663019788));
#1082=CARTESIAN_POINT('Ctrl Pts',(-5.75468801668243,6.63411321059688,0.376826004382931));
#1083=CARTESIAN_POINT('Ctrl Pts',(-5.63559994189546,6.30827742620839,1.0466374587422));
#1084=CARTESIAN_POINT('Ctrl Pts',(-5.4846781894378,5.73117478079369,1.50757829155208));
#1085=CARTESIAN_POINT('Ctrl Pts',(-5.43708184599056,5.24417992099538,1.621));
#1086=CARTESIAN_POINT('Ctrl Pts',(-5.43708184599056,5.,1.621));
#1087=CARTESIAN_POINT('Ctrl Pts',(-5.51634108975565,5.,1.621));
#1088=CARTESIAN_POINT('Ctrl Pts',(-5.51634108975565,4.76011825155804,1.621));
#1089=CARTESIAN_POINT('Ctrl Pts',(-5.56095427831581,4.28072252338771,1.51212457155415));
#1090=CARTESIAN_POINT('Ctrl Pts',(-5.70488921908401,3.69973534151281,1.05749914511042));
#1091=CARTESIAN_POINT('Ctrl Pts',(-5.81984765712508,3.36567956990627,0.382656446898012));
#1092=CARTESIAN_POINT('Ctrl Pts',(-5.8199051456805,3.3655693484624,-0.318604467796475));
#1093=CARTESIAN_POINT('Ctrl Pts',(-5.71965598884848,3.65749030238479,-1.00560738889386));
#1094=CARTESIAN_POINT('Ctrl Pts',(-5.5666858890369,4.22023927085513,-1.49958514483114));
#1095=CARTESIAN_POINT('Ctrl Pts',(-5.49395531462548,5.00002763674891,-1.67425825284997));
#1096=CARTESIAN_POINT('Ctrl Pts',(-5.57226117651298,5.83986054062626,-1.48642061523788));
#1097=CARTESIAN_POINT('Ctrl Pts',(-5.73440104777457,6.38457936014511,-0.95440925450284));
#1098=CARTESIAN_POINT('Ctrl Pts',(-5.81984370822071,6.63445049241348,-0.254516607652581));
#1099=CARTESIAN_POINT('Ctrl Pts',(-5.81987809459168,6.63433079290154,0.382477018611183));
#1100=CARTESIAN_POINT('Ctrl Pts',(-5.7048727057478,6.30027013542889,1.05759865935806));
#1101=CARTESIAN_POINT('Ctrl Pts',(-5.56096356959987,5.71927991659566,1.51206859097244));
#1102=CARTESIAN_POINT('Ctrl Pts',(-5.51634108975565,5.23988174844196,1.621));
#1103=CARTESIAN_POINT('Ctrl Pts',(-5.51634108975565,5.,1.621));
#1104=CARTESIAN_POINT('Ctrl Pts',(-5.67350843402728,5.,1.70232519226821));
#1105=CARTESIAN_POINT('Ctrl Pts',(-5.67350843402728,4.75570631641196,1.70232519226821));
#1106=CARTESIAN_POINT('Ctrl Pts',(-5.71242122725674,4.26708663485749,1.59156030505239));
#1107=CARTESIAN_POINT('Ctrl Pts',(-5.84302696891577,3.66260782630765,1.11812875616214));
#1108=CARTESIAN_POINT('Ctrl Pts',(-5.95013419708979,3.3106768227135,0.40521638606863));
#1109=CARTESIAN_POINT('Ctrl Pts',(-5.95028509238071,3.31058766028893,-0.337468177790151));
#1110=CARTESIAN_POINT('Ctrl Pts',(-5.85663672689154,3.61811006225172,-1.06375956334736));
#1111=CARTESIAN_POINT('Ctrl Pts',(-5.71717046638824,4.20575925415945,-1.57957011662197));
#1112=CARTESIAN_POINT('Ctrl Pts',(-5.65380584735492,4.99978685656146,-1.7571263762208));
#1113=CARTESIAN_POINT('Ctrl Pts',(-5.72205840343095,5.85555656032077,-1.56610246105465));
#1114=CARTESIAN_POINT('Ctrl Pts',(-5.87030961561492,6.42631589547955,-1.00980134523624));
#1115=CARTESIAN_POINT('Ctrl Pts',(-5.9502463453966,6.68943679557766,-0.269593805463417));
#1116=CARTESIAN_POINT('Ctrl Pts',(-5.95015881290553,6.6893497132779,0.40504031543797));
#1117=CARTESIAN_POINT('Ctrl Pts',(-5.8430197574781,6.33739988067323,1.11823398674032));
#1118=CARTESIAN_POINT('Ctrl Pts',(-5.71242820195615,5.73291942349155,1.59150438279267));
#1119=CARTESIAN_POINT('Ctrl Pts',(-5.67350843402729,5.24429368358804,1.70232519226821));
#1120=CARTESIAN_POINT('Ctrl Pts',(-5.67350843402729,5.,1.70232519226821));
#1121=CARTESIAN_POINT('Ctrl Pts',(-5.69926697757006,5.,1.87740191384311));
#1122=CARTESIAN_POINT('Ctrl Pts',(-5.69926697757006,4.73084133278741,1.87740191384311));
#1123=CARTESIAN_POINT('Ctrl Pts',(-5.74402138864997,4.19342136074556,1.74836978853052));
#1124=CARTESIAN_POINT('Ctrl Pts',(-5.88859182081007,3.54781422629848,1.21716278028748));
#1125=CARTESIAN_POINT('Ctrl Pts',(-6.00427755861218,3.17967160105386,0.43898458912903));
#1126=CARTESIAN_POINT('Ctrl Pts',(-6.00432427503304,3.17950451143581,-0.365731326785798));
#1127=CARTESIAN_POINT('Ctrl Pts',(-5.9035132969489,3.50134846547731,-1.15728844622655));
#1128=CARTESIAN_POINT('Ctrl Pts',(-5.74983982081272,4.12533768515781,-1.73366373906248));
#1129=CARTESIAN_POINT('Ctrl Pts',(-5.67700094923583,4.99997514995259,-1.94134818452881));
#1130=CARTESIAN_POINT('Ctrl Pts',(-5.75541097279626,5.94196486083152,-1.7179191032087));
#1131=CARTESIAN_POINT('Ctrl Pts',(-5.91828641051563,6.54510993861564,-1.09766604774966));
#1132=CARTESIAN_POINT('Ctrl Pts',(-6.00425601070602,6.82049764409274,-0.292267640608895));
#1133=CARTESIAN_POINT('Ctrl Pts',(-6.0042978525124,6.82035332118081,0.438841936677158));
#1134=CARTESIAN_POINT('Ctrl Pts',(-5.88857186911487,6.45218757527973,1.21725614283784));
#1135=CARTESIAN_POINT('Ctrl Pts',(-5.74402866396599,5.80658491236117,1.748322498384));
#1136=CARTESIAN_POINT('Ctrl Pts',(-5.69926697757006,5.26915866721259,1.87740191384311));
#1137=CARTESIAN_POINT('Ctrl Pts',(-5.69926697757006,5.,1.87740191384311));
#1138=CARTESIAN_POINT('Ctrl Pts',(-5.67347670885971,5.,1.95234782608696));
#1139=CARTESIAN_POINT('Ctrl Pts',(-5.67347670885971,4.71816123862902,1.95234782608696));
#1140=CARTESIAN_POINT('Ctrl Pts',(-5.72312918950885,4.15606689658613,1.81578555588989));
#1141=CARTESIAN_POINT('Ctrl Pts',(-5.88064345592023,3.48994927578118,1.26048973386138));
#1142=CARTESIAN_POINT('Ctrl Pts',(-6.00484489256539,3.11389314183327,0.45398162205253));
#1143=CARTESIAN_POINT('Ctrl Pts',(-6.00487281294063,3.11364054034687,-0.378292050438599));
#1144=CARTESIAN_POINT('Ctrl Pts',(-5.89659119903629,3.442592036496,-1.19830666458421));
#1145=CARTESIAN_POINT('Ctrl Pts',(-5.7295429133736,4.084464348952,-1.80002456299423));
#1146=CARTESIAN_POINT('Ctrl Pts',(-5.64840711067842,5.00001566037056,-2.02013233382218));
#1147=CARTESIAN_POINT('Ctrl Pts',(-5.73576166954703,5.98581587354233,-1.78333904210583));
#1148=CARTESIAN_POINT('Ctrl Pts',(-5.91263102676482,6.604890621781,-1.13626875606028));
#1149=CARTESIAN_POINT('Ctrl Pts',(-6.00480637884414,6.88633948306624,-0.302337697402048));
#1150=CARTESIAN_POINT('Ctrl Pts',(-6.00489184349471,6.8861356058154,0.453852825706384));
#1151=CARTESIAN_POINT('Ctrl Pts',(-5.8806260263257,6.51004754129296,1.26058011553147));
#1152=CARTESIAN_POINT('Ctrl Pts',(-5.72314245854379,5.84394078646823,1.81574164106576));
#1153=CARTESIAN_POINT('Ctrl Pts',(-5.67347670885971,5.28183876137098,1.95234782608696));
#1154=CARTESIAN_POINT('Ctrl Pts',(-5.67347670885971,5.,1.95234782608696));
#1155=CARTESIAN_POINT('',(-5.43708184599055,5.,1.621));
#1156=CARTESIAN_POINT('Origin',(-5.43708184599055,5.,1.871));
#1157=CARTESIAN_POINT('',(-5.74971516622565,3.37935627283804,2.49407029353856E-7));
#1158=CARTESIAN_POINT('Ctrl Pts',(-5.43708184599055,5.,1.621));
#1159=CARTESIAN_POINT('Ctrl Pts',(-5.43708184599055,4.75582007900462,1.621));
#1160=CARTESIAN_POINT('Ctrl Pts',(-5.46087365963493,4.51232597733398,1.56430737662839));
#1161=CARTESIAN_POINT('Ctrl Pts',(-5.49792809512005,4.29439358324863,1.45911900880547));
#1162=CARTESIAN_POINT('Ctrl Pts',(-5.53498253060517,4.07646118916328,1.35393064098254));
#1163=CARTESIAN_POINT('Ctrl Pts',(-5.58529958793103,3.88409050266323,1.20024652870828));
#1164=CARTESIAN_POINT('Ctrl Pts',(-5.63029584605812,3.73360380602557,1.01179956011878));
#1165=CARTESIAN_POINT('Ctrl Pts',(-5.6752921041852,3.58311710938791,0.823352591529278));
#1166=CARTESIAN_POINT('Ctrl Pts',(-5.71496756311352,3.47451440261264,0.600142766624523));
#1167=CARTESIAN_POINT('Ctrl Pts',(-5.73481015749154,3.42017325844619,0.362897460396792));
#1168=CARTESIAN_POINT('Ctrl Pts',(-5.74473132289516,3.39300304727188,0.244276382957287));
#1169=CARTESIAN_POINT('Ctrl Pts',(-5.7496944038811,3.37939786637179,0.12214652840364));
#1170=CARTESIAN_POINT('Ctrl Pts',(-5.74970710179519,3.3793663599056,2.56468430867574E-7));
#1171=CARTESIAN_POINT('Ctrl Pts',(-5.74970710179519,3.3793663599056,2.56468430867574E-7));
#1172=CARTESIAN_POINT('Ctrl Pts',(-5.74971980004662,3.3793348526024,-0.122149260467636));
#1173=CARTESIAN_POINT('Ctrl Pts',(-5.74478185219385,3.39287774095314,-0.244315195657583));
#1174=CARTESIAN_POINT('Ctrl Pts',(-5.73490096019649,3.42000366980646,-0.363004911021944));
#1175=CARTESIAN_POINT('Ctrl Pts',(-5.72007981907089,3.46069202261973,-0.541037119252165));
#1176=CARTESIAN_POINT('Ctrl Pts',(-5.69413734907297,3.53194140466914,-0.711248040657779));
#1177=CARTESIAN_POINT('Ctrl Pts',(-5.66291506090927,3.6286072406486,-0.86446696987011));
#1178=CARTESIAN_POINT('Ctrl Pts',(-5.61087791396976,3.78971696728103,-1.11983185189066));
#1179=CARTESIAN_POINT('Ctrl Pts',(-5.54417460545861,4.02142795483029,-1.32799675559654));
#1180=CARTESIAN_POINT('Ctrl Pts',(-5.4979143435029,4.2939013901059,-1.45956397858143));
#1181=CARTESIAN_POINT('Ctrl Pts',(-5.46090613393834,4.5118801383264,-1.56481775696935));
#1182=CARTESIAN_POINT('Ctrl Pts',(-5.43698147416924,4.75594685309176,-1.62104901969584));
#1183=CARTESIAN_POINT('Ctrl Pts',(-5.4369783993679,4.99999152188556,-1.62107817993637));
#1184=CARTESIAN_POINT('Ctrl Pts',(-5.43697532456656,5.24403619067936,-1.6211073401769));
#1185=CARTESIAN_POINT('Ctrl Pts',(-5.46089383473296,5.4880588135016,-1.56493439793147));
#1186=CARTESIAN_POINT('Ctrl Pts',(-5.49784491425508,5.70598638447945,-1.45959715828456));
#1187=CARTESIAN_POINT('Ctrl Pts',(-5.55327153353825,6.03287774094624,-1.3015912988142));
#1188=CARTESIAN_POINT('Ctrl Pts',(-5.63802143387178,6.30105523076315,-1.03296577019051));
#1189=CARTESIAN_POINT('Ctrl Pts',(-5.69233442610866,6.45954039774104,-0.706160038923528));
#1190=CARTESIAN_POINT('Ctrl Pts',(-5.71043875685429,6.51236878673367,-0.597224795167867));
#1191=CARTESIAN_POINT('Ctrl Pts',(-5.72516120892252,6.55300913985529,-0.481825084451841));
#1192=CARTESIAN_POINT('Ctrl Pts',(-5.73498163720957,6.58009093290293,-0.363035166147642));
#1193=CARTESIAN_POINT('Ctrl Pts',(-5.75462249378366,6.63425451899821,-0.125455329539244));
#1194=CARTESIAN_POINT('Ctrl Pts',(-5.75465525523304,6.63418386479754,0.125685337421843));
#1195=CARTESIAN_POINT('Ctrl Pts',(-5.73482362349324,6.57984257363246,0.362890913295598));
#1196=CARTESIAN_POINT('Ctrl Pts',(-5.71499199175344,6.52550128246738,0.600096489169353));
#1197=CARTESIAN_POINT('Ctrl Pts',(-5.67529596682445,6.41688935433788,0.823366973955776));
#1198=CARTESIAN_POINT('Ctrl Pts',(-5.63029432895035,6.26639961603735,1.01182568848397));
#1199=CARTESIAN_POINT('Ctrl Pts',(-5.58529269107624,6.11590987773682,1.20028440301216));
#1200=CARTESIAN_POINT('Ctrl Pts',(-5.53498544025702,5.92354232926526,1.35393134728212));
#1201=CARTESIAN_POINT('Ctrl Pts',(-5.4979327289856,5.70560984007989,1.45911024652908));
#1202=CARTESIAN_POINT('Ctrl Pts',(-5.46088001771418,5.48767735089453,1.56428914577604));
#1203=CARTESIAN_POINT('Ctrl Pts',(-5.43708184599056,5.24417992099538,1.621));
#1204=CARTESIAN_POINT('Ctrl Pts',(-5.43708184599056,5.,1.621));
#1205=CARTESIAN_POINT('Origin',(-5.9,5.,0.));
#1206=CARTESIAN_POINT('',(-2.52435318448113,5.,1.621));
#1207=CARTESIAN_POINT('',(-3.,6.621,-1.49002550352567E-16));
#1208=CARTESIAN_POINT('Ctrl Pts',(-2.52435318448113,5.,1.621));
#1209=CARTESIAN_POINT('Ctrl Pts',(-2.52435318448113,5.20893533529593,1.621));
#1210=CARTESIAN_POINT('Ctrl Pts',(-2.55305222458698,5.42769228609792,1.57833768362928));
#1211=CARTESIAN_POINT('Ctrl Pts',(-2.64878298528701,5.82516586655286,1.41179783994583));
#1212=CARTESIAN_POINT('Ctrl Pts',(-2.71376847456038,6.00441602094955,1.28802416365724));
#1213=CARTESIAN_POINT('Ctrl Pts',(-2.83079462056628,6.28747057526688,1.00496960933991));
#1214=CARTESIAN_POINT('Ctrl Pts',(-2.89135633814668,6.41164309107155,0.825544988387124));
#1215=CARTESIAN_POINT('Ctrl Pts',(-2.97639327497823,6.57851568771053,0.427257660745023));
#1216=CARTESIAN_POINT('Ctrl Pts',(-3.,6.621,0.20811967341223));
#1217=CARTESIAN_POINT('Ctrl Pts',(-3.,6.621,-6.93889390390723E-17));
#1218=CARTESIAN_POINT('',(-3.,3.379,-2.38035501149038E-16));
#1219=CARTESIAN_POINT('Ctrl Pts',(-3.,3.379,-2.77555756156289E-16));
#1220=CARTESIAN_POINT('Ctrl Pts',(-3.,3.379,0.20811967341223));
#1221=CARTESIAN_POINT('Ctrl Pts',(-2.97639327497823,3.42148431228947,0.427257660745022));
#1222=CARTESIAN_POINT('Ctrl Pts',(-2.89135633814668,3.58835690892845,0.825544988387124));
#1223=CARTESIAN_POINT('Ctrl Pts',(-2.83079462056628,3.71252942473312,1.00496960933991));
#1224=CARTESIAN_POINT('Ctrl Pts',(-2.71376847456038,3.99558397905045,1.28802416365724));
#1225=CARTESIAN_POINT('Ctrl Pts',(-2.64878298528701,4.17483413344714,1.41179783994583));
#1226=CARTESIAN_POINT('Ctrl Pts',(-2.55305222458698,4.57230771390208,1.57833768362928));
#1227=CARTESIAN_POINT('Ctrl Pts',(-2.52435318448113,4.79106466470407,1.621));
#1228=CARTESIAN_POINT('Ctrl Pts',(-2.52435318448113,5.,1.621));
#1229=CARTESIAN_POINT('',(-5.9,3.379,-1.98515246141786E-16));
#1230=CARTESIAN_POINT('Ctrl Pts',(-3.,6.621,0.));
#1231=CARTESIAN_POINT('Ctrl Pts',(-3.,6.621,-0.20811967341223));
#1232=CARTESIAN_POINT('Ctrl Pts',(-2.97639327497823,6.57851568771053,-0.427257660745023));
#1233=CARTESIAN_POINT('Ctrl Pts',(-2.89135633814668,6.41164309107155,-0.825544988387124));
#1234=CARTESIAN_POINT('Ctrl Pts',(-2.83079462056628,6.28747057526688,-1.00496960933991));
#1235=CARTESIAN_POINT('Ctrl Pts',(-2.71376847456038,6.00441602094955,-1.28802416365724));
#1236=CARTESIAN_POINT('Ctrl Pts',(-2.64878298528701,5.82516586655286,-1.41179783994583));
#1237=CARTESIAN_POINT('Ctrl Pts',(-2.55305222458698,5.42769228609792,-1.57833768362928));
#1238=CARTESIAN_POINT('Ctrl Pts',(-2.52435318448113,5.20893533529593,-1.621));
#1239=CARTESIAN_POINT('Ctrl Pts',(-2.52435318448113,4.79106466470407,-1.621));
#1240=CARTESIAN_POINT('Ctrl Pts',(-2.55305222458698,4.57230771390208,-1.57833768362928));
#1241=CARTESIAN_POINT('Ctrl Pts',(-2.64878298528701,4.17483413344714,-1.41179783994583));
#1242=CARTESIAN_POINT('Ctrl Pts',(-2.71376847456038,3.99558397905045,-1.28802416365724));
#1243=CARTESIAN_POINT('Ctrl Pts',(-2.83079462056628,3.71252942473312,-1.00496960933991));
#1244=CARTESIAN_POINT('Ctrl Pts',(-2.89135633814668,3.58835690892845,-0.825544988387124));
#1245=CARTESIAN_POINT('Ctrl Pts',(-2.97639327497823,3.42148431228947,-0.427257660745022));
#1246=CARTESIAN_POINT('Ctrl Pts',(-3.,3.379,-0.208119673412231));
#1247=CARTESIAN_POINT('Ctrl Pts',(-3.,3.379,-6.93889390390723E-17));
#1248=CARTESIAN_POINT('Origin',(0.,-9.5,0.));
#1249=CARTESIAN_POINT('',(-3.67394039744206E-16,-9.5,3.));
#1250=CARTESIAN_POINT('',(-3.,-9.5,-3.67394039744206E-16));
#1251=CARTESIAN_POINT('Origin',(0.,-9.5,0.));
#1252=CARTESIAN_POINT('Origin',(0.,-9.5,0.));
#1253=CARTESIAN_POINT('',(-4.28626379701574E-16,-10.,3.5));
#1254=CARTESIAN_POINT('Origin',(-4.28626379701574E-16,-9.5,3.5));
#1255=CARTESIAN_POINT('Origin',(0.,-10.,0.));
#1256=CARTESIAN_POINT('Origin',(0.,0.,0.));
#1257=CARTESIAN_POINT('',(-3.,0.,-3.67394039744206E-16));
#1258=CARTESIAN_POINT('',(-3.,0.,-3.67394039744206E-16));
#1259=CARTESIAN_POINT('',(-3.,9.5,-3.67394039744206E-16));
#1260=CARTESIAN_POINT('',(-3.,0.,-3.67394039744206E-16));
#1261=CARTESIAN_POINT('',(-3.67394039744206E-16,9.5,3.));
#1262=CARTESIAN_POINT('Origin',(0.,9.5,0.));
#1263=CARTESIAN_POINT('Origin',(0.,9.5,0.));
#1264=CARTESIAN_POINT('Origin',(3.,-10.,0.));
#1265=CARTESIAN_POINT('',(5.50000000000001,-10.,-6.73555739531045E-16));
#1266=CARTESIAN_POINT('Origin',(0.,-10.,0.));
#1267=CARTESIAN_POINT('Origin',(0.,9.5,0.));
#1268=CARTESIAN_POINT('',(-4.28626379701574E-16,10.,3.5));
#1269=CARTESIAN_POINT('Origin',(0.,10.,0.));
#1270=CARTESIAN_POINT('Origin',(-4.28626379701574E-16,9.5,3.5));
#1271=CARTESIAN_POINT('Origin',(6.00000000000001,10.,0.));
#1272=CARTESIAN_POINT('',(5.50000000000001,10.,6.73555739531045E-16));
#1273=CARTESIAN_POINT('Origin',(0.,10.,0.));
#1274=CARTESIAN_POINT('Origin',(0.,-9.75,0.));
#1275=CARTESIAN_POINT('',(5.75000000000001,-9.75,7.04171909509729E-16));
#1276=CARTESIAN_POINT('Origin',(0.,9.75,0.));
#1277=CARTESIAN_POINT('',(5.75000000000001,9.75,7.04171909509729E-16));
#1278=UNCERTAINTY_MEASURE_WITH_UNIT(LENGTH_MEASURE(0.01),#1282,
'DISTANCE_ACCURACY_VALUE',
'Maximum model space distance between geometric entities at asserted c
onnectivities');
#1279=UNCERTAINTY_MEASURE_WITH_UNIT(LENGTH_MEASURE(0.01),#1282,
'DISTANCE_ACCURACY_VALUE',
'Maximum model space distance between geometric entities at asserted c
onnectivities');
#1280=(
GEOMETRIC_REPRESENTATION_CONTEXT(3)
GLOBAL_UNCERTAINTY_ASSIGNED_CONTEXT((#1278))
GLOBAL_UNIT_ASSIGNED_CONTEXT((#1282,#1284,#1285))
REPRESENTATION_CONTEXT('','3D')
);
#1281=(
GEOMETRIC_REPRESENTATION_CONTEXT(3)
GLOBAL_UNCERTAINTY_ASSIGNED_CONTEXT((#1279))
GLOBAL_UNIT_ASSIGNED_CONTEXT((#1282,#1284,#1285))
REPRESENTATION_CONTEXT('','3D')
);
#1282=(
LENGTH_UNIT()
NAMED_UNIT(*)
SI_UNIT(.MILLI.,.METRE.)
);
#1283=(
LENGTH_UNIT()
NAMED_UNIT(*)
SI_UNIT(.CENTI.,.METRE.)
);
#1284=(
NAMED_UNIT(*)
PLANE_ANGLE_UNIT()
SI_UNIT($,.RADIAN.)
);
#1285=(
NAMED_UNIT(*)
SI_UNIT($,.STERADIAN.)
SOLID_ANGLE_UNIT()
);
#1286=SHAPE_DEFINITION_REPRESENTATION(#1287,#1288);
#1287=PRODUCT_DEFINITION_SHAPE('',$,#1290);
#1288=SHAPE_REPRESENTATION('',(#384),#1280);
#1289=PRODUCT_DEFINITION_CONTEXT('part definition',#1294,'design');
#1290=PRODUCT_DEFINITION('MOTOR COUPLER CONNECTOR',
'MOTOR COUPLER CONNECTOR (1)',#1291,#1289);
#1291=PRODUCT_DEFINITION_FORMATION('',$,#1296);
#1292=PRODUCT_RELATED_PRODUCT_CATEGORY('MOTOR COUPLER CONNECTOR (1)',
'MOTOR COUPLER CONNECTOR (1)',(#1296));
#1293=APPLICATION_PROTOCOL_DEFINITION('international standard',
'automotive_design',2009,#1294);
#1294=APPLICATION_CONTEXT(
'Core Data for Automotive Mechanical Design Process');
#1295=PRODUCT_CONTEXT('part definition',#1294,'mechanical');
#1296=PRODUCT('MOTOR COUPLER CONNECTOR','MOTOR COUPLER CONNECTOR (1)',$,
(#1295));
#1297=PRESENTATION_STYLE_ASSIGNMENT((#1298));
#1298=SURFACE_STYLE_USAGE(.BOTH.,#1301);
#1299=SURFACE_STYLE_RENDERING_WITH_PROPERTIES($,#1305,(#1300));
#1300=SURFACE_STYLE_TRANSPARENT(0.);
#1301=SURFACE_SIDE_STYLE('',(#1302,#1299));
#1302=SURFACE_STYLE_FILL_AREA(#1303);
#1303=FILL_AREA_STYLE('',(#1304));
#1304=FILL_AREA_STYLE_COLOUR('',#1305);
#1305=COLOUR_RGB('',0.513725490196078,0.345098039215686,0.772549019607843);
ENDSEC;
END-ISO-10303-21;
