ISO-10303-21;
HEADER;
/* Generated by software containing ST-Developer
 * from STEP Tools, Inc. (www.steptools.com) 
 */

FILE_DESCRIPTION(
/* description */ (''),
/* implementation_level */ '2;1');

FILE_NAME(
/* name */ 
'I:\\ASU_FOE\\graduation project\\quadcopter\\matlab xml\\231123\\\\Pa
rt18_ipt_c51c05df.STEP',
/* time_stamp */ '2023-11-23T19:53:48+02:00',
/* author */ ('Lenovo'),
/* organization */ (''),
/* preprocessor_version */ 'ST-DEVELOPER v18.1',
/* originating_system */ 'Autodesk Inventor 2021',
/* authorisation */ '');

FILE_SCHEMA (('AUTOMOTIVE_DESIGN { 1 0 10303 214 3 1 1 }'));
ENDSEC;

DATA;
#10=MECHANICAL_DESIGN_GEOMETRIC_PRESENTATION_REPRESENTATION('',(#13),#688);
#11=SHAPE_REPRESENTATION_RELATIONSHIP('SRR','None',#695,#12);
#12=ADVANCED_BREP_SHAPE_REPRESENTATION('',(#14),#687);
#13=STYLED_ITEM('',(#704),#14);
#14=MANIFOLD_SOLID_BREP('Solid1',#382);
#15=FACE_BOUND('',#72,.T.);
#16=FACE_BOUND('',#73,.T.);
#17=FACE_BOUND('',#74,.T.);
#18=FACE_BOUND('',#75,.T.);
#19=FACE_BOUND('',#76,.T.);
#20=FACE_BOUND('',#77,.T.);
#21=FACE_BOUND('',#78,.T.);
#22=FACE_BOUND('',#79,.T.);
#23=FACE_BOUND('',#80,.T.);
#24=FACE_BOUND('',#82,.T.);
#25=FACE_BOUND('',#83,.T.);
#26=FACE_BOUND('',#84,.T.);
#27=FACE_BOUND('',#85,.T.);
#28=FACE_BOUND('',#86,.T.);
#29=FACE_BOUND('',#87,.T.);
#30=FACE_BOUND('',#88,.T.);
#31=FACE_BOUND('',#89,.T.);
#32=FACE_BOUND('',#90,.T.);
#33=PLANE('',#453);
#34=PLANE('',#454);
#35=FACE_OUTER_BOUND('',#54,.T.);
#36=FACE_OUTER_BOUND('',#55,.T.);
#37=FACE_OUTER_BOUND('',#56,.T.);
#38=FACE_OUTER_BOUND('',#57,.T.);
#39=FACE_OUTER_BOUND('',#58,.T.);
#40=FACE_OUTER_BOUND('',#59,.T.);
#41=FACE_OUTER_BOUND('',#60,.T.);
#42=FACE_OUTER_BOUND('',#61,.T.);
#43=FACE_OUTER_BOUND('',#62,.T.);
#44=FACE_OUTER_BOUND('',#63,.T.);
#45=FACE_OUTER_BOUND('',#64,.T.);
#46=FACE_OUTER_BOUND('',#65,.T.);
#47=FACE_OUTER_BOUND('',#66,.T.);
#48=FACE_OUTER_BOUND('',#67,.T.);
#49=FACE_OUTER_BOUND('',#68,.T.);
#50=FACE_OUTER_BOUND('',#69,.T.);
#51=FACE_OUTER_BOUND('',#70,.T.);
#52=FACE_OUTER_BOUND('',#71,.T.);
#53=FACE_OUTER_BOUND('',#81,.T.);
#54=EDGE_LOOP('',(#244,#245,#246,#247));
#55=EDGE_LOOP('',(#248,#249,#250,#251));
#56=EDGE_LOOP('',(#252,#253,#254,#255));
#57=EDGE_LOOP('',(#256,#257,#258,#259));
#58=EDGE_LOOP('',(#260,#261,#262,#263));
#59=EDGE_LOOP('',(#264,#265,#266,#267));
#60=EDGE_LOOP('',(#268,#269,#270,#271));
#61=EDGE_LOOP('',(#272,#273,#274,#275));
#62=EDGE_LOOP('',(#276,#277,#278,#279));
#63=EDGE_LOOP('',(#280,#281,#282,#283));
#64=EDGE_LOOP('',(#284,#285,#286,#287));
#65=EDGE_LOOP('',(#288,#289,#290,#291));
#66=EDGE_LOOP('',(#292,#293,#294,#295));
#67=EDGE_LOOP('',(#296,#297,#298,#299));
#68=EDGE_LOOP('',(#300,#301,#302,#303));
#69=EDGE_LOOP('',(#304,#305,#306,#307));
#70=EDGE_LOOP('',(#308,#309,#310,#311));
#71=EDGE_LOOP('',(#312,#313,#314,#315,#316,#317,#318,#319));
#72=EDGE_LOOP('',(#320));
#73=EDGE_LOOP('',(#321));
#74=EDGE_LOOP('',(#322));
#75=EDGE_LOOP('',(#323));
#76=EDGE_LOOP('',(#324));
#77=EDGE_LOOP('',(#325));
#78=EDGE_LOOP('',(#326));
#79=EDGE_LOOP('',(#327));
#80=EDGE_LOOP('',(#328));
#81=EDGE_LOOP('',(#329,#330,#331,#332,#333,#334,#335,#336));
#82=EDGE_LOOP('',(#337));
#83=EDGE_LOOP('',(#338));
#84=EDGE_LOOP('',(#339));
#85=EDGE_LOOP('',(#340));
#86=EDGE_LOOP('',(#341));
#87=EDGE_LOOP('',(#342));
#88=EDGE_LOOP('',(#343));
#89=EDGE_LOOP('',(#344));
#90=EDGE_LOOP('',(#345));
#91=LINE('',#585,#108);
#92=LINE('',#591,#109);
#93=LINE('',#597,#110);
#94=LINE('',#603,#111);
#95=LINE('',#609,#112);
#96=LINE('',#615,#113);
#97=LINE('',#621,#114);
#98=LINE('',#627,#115);
#99=LINE('',#633,#116);
#100=LINE('',#640,#117);
#101=LINE('',#643,#118);
#102=LINE('',#649,#119);
#103=LINE('',#655,#120);
#104=LINE('',#661,#121);
#105=LINE('',#667,#122);
#106=LINE('',#673,#123);
#107=LINE('',#679,#124);
#108=VECTOR('',#461,1.75);
#109=VECTOR('',#468,1.75);
#110=VECTOR('',#475,1.75);
#111=VECTOR('',#482,1.75);
#112=VECTOR('',#489,4.75);
#113=VECTOR('',#496,1.5);
#114=VECTOR('',#503,1.5);
#115=VECTOR('',#510,1.5);
#116=VECTOR('',#517,1.5);
#117=VECTOR('',#524,10.);
#118=VECTOR('',#527,10.);
#119=VECTOR('',#534,10.);
#120=VECTOR('',#541,10.);
#121=VECTOR('',#548,10.);
#122=VECTOR('',#555,10.);
#123=VECTOR('',#562,10.);
#124=VECTOR('',#569,10.);
#125=CIRCLE('',#403,1.75);
#126=CIRCLE('',#404,1.75);
#127=CIRCLE('',#406,1.75);
#128=CIRCLE('',#407,1.75);
#129=CIRCLE('',#409,1.75);
#130=CIRCLE('',#410,1.75);
#131=CIRCLE('',#412,1.75);
#132=CIRCLE('',#413,1.75);
#133=CIRCLE('',#415,4.75);
#134=CIRCLE('',#416,4.75);
#135=CIRCLE('',#418,1.5);
#136=CIRCLE('',#419,1.5);
#137=CIRCLE('',#421,1.5);
#138=CIRCLE('',#422,1.5);
#139=CIRCLE('',#424,1.5);
#140=CIRCLE('',#425,1.5);
#141=CIRCLE('',#427,1.5);
#142=CIRCLE('',#428,1.5);
#143=CIRCLE('',#430,5.25307451561757);
#144=CIRCLE('',#431,5.25307451561757);
#145=CIRCLE('',#433,8.48267624399999);
#146=CIRCLE('',#434,8.48267624399999);
#147=CIRCLE('',#436,5.25307451551335);
#148=CIRCLE('',#437,5.25307451551335);
#149=CIRCLE('',#439,8.48267624399999);
#150=CIRCLE('',#440,8.48267624399999);
#151=CIRCLE('',#442,5.25559170140244);
#152=CIRCLE('',#443,5.25559170140244);
#153=CIRCLE('',#445,8.48267624399999);
#154=CIRCLE('',#446,8.48267624399999);
#155=CIRCLE('',#448,5.25307451324134);
#156=CIRCLE('',#449,5.25307451324134);
#157=CIRCLE('',#451,8.48267624399999);
#158=CIRCLE('',#452,8.48267624399999);
#159=VERTEX_POINT('',#582);
#160=VERTEX_POINT('',#584);
#161=VERTEX_POINT('',#588);
#162=VERTEX_POINT('',#590);
#163=VERTEX_POINT('',#594);
#164=VERTEX_POINT('',#596);
#165=VERTEX_POINT('',#600);
#166=VERTEX_POINT('',#602);
#167=VERTEX_POINT('',#606);
#168=VERTEX_POINT('',#608);
#169=VERTEX_POINT('',#612);
#170=VERTEX_POINT('',#614);
#171=VERTEX_POINT('',#618);
#172=VERTEX_POINT('',#620);
#173=VERTEX_POINT('',#624);
#174=VERTEX_POINT('',#626);
#175=VERTEX_POINT('',#630);
#176=VERTEX_POINT('',#632);
#177=VERTEX_POINT('',#636);
#178=VERTEX_POINT('',#637);
#179=VERTEX_POINT('',#639);
#180=VERTEX_POINT('',#641);
#181=VERTEX_POINT('',#645);
#182=VERTEX_POINT('',#647);
#183=VERTEX_POINT('',#651);
#184=VERTEX_POINT('',#653);
#185=VERTEX_POINT('',#657);
#186=VERTEX_POINT('',#659);
#187=VERTEX_POINT('',#663);
#188=VERTEX_POINT('',#665);
#189=VERTEX_POINT('',#669);
#190=VERTEX_POINT('',#671);
#191=VERTEX_POINT('',#675);
#192=VERTEX_POINT('',#677);
#193=EDGE_CURVE('',#159,#159,#125,.T.);
#194=EDGE_CURVE('',#159,#160,#91,.T.);
#195=EDGE_CURVE('',#160,#160,#126,.T.);
#196=EDGE_CURVE('',#161,#161,#127,.T.);
#197=EDGE_CURVE('',#161,#162,#92,.T.);
#198=EDGE_CURVE('',#162,#162,#128,.T.);
#199=EDGE_CURVE('',#163,#163,#129,.T.);
#200=EDGE_CURVE('',#163,#164,#93,.T.);
#201=EDGE_CURVE('',#164,#164,#130,.T.);
#202=EDGE_CURVE('',#165,#165,#131,.T.);
#203=EDGE_CURVE('',#165,#166,#94,.T.);
#204=EDGE_CURVE('',#166,#166,#132,.T.);
#205=EDGE_CURVE('',#167,#167,#133,.T.);
#206=EDGE_CURVE('',#167,#168,#95,.T.);
#207=EDGE_CURVE('',#168,#168,#134,.T.);
#208=EDGE_CURVE('',#169,#169,#135,.T.);
#209=EDGE_CURVE('',#169,#170,#96,.T.);
#210=EDGE_CURVE('',#170,#170,#136,.T.);
#211=EDGE_CURVE('',#171,#171,#137,.T.);
#212=EDGE_CURVE('',#171,#172,#97,.T.);
#213=EDGE_CURVE('',#172,#172,#138,.T.);
#214=EDGE_CURVE('',#173,#173,#139,.T.);
#215=EDGE_CURVE('',#173,#174,#98,.T.);
#216=EDGE_CURVE('',#174,#174,#140,.T.);
#217=EDGE_CURVE('',#175,#175,#141,.T.);
#218=EDGE_CURVE('',#175,#176,#99,.T.);
#219=EDGE_CURVE('',#176,#176,#142,.T.);
#220=EDGE_CURVE('',#177,#178,#143,.T.);
#221=EDGE_CURVE('',#178,#179,#100,.T.);
#222=EDGE_CURVE('',#180,#179,#144,.T.);
#223=EDGE_CURVE('',#177,#180,#101,.T.);
#224=EDGE_CURVE('',#181,#177,#145,.T.);
#225=EDGE_CURVE('',#182,#180,#146,.T.);
#226=EDGE_CURVE('',#181,#182,#102,.T.);
#227=EDGE_CURVE('',#183,#181,#147,.T.);
#228=EDGE_CURVE('',#184,#182,#148,.T.);
#229=EDGE_CURVE('',#183,#184,#103,.T.);
#230=EDGE_CURVE('',#185,#183,#149,.T.);
#231=EDGE_CURVE('',#186,#184,#150,.T.);
#232=EDGE_CURVE('',#185,#186,#104,.T.);
#233=EDGE_CURVE('',#187,#185,#151,.T.);
#234=EDGE_CURVE('',#188,#186,#152,.T.);
#235=EDGE_CURVE('',#187,#188,#105,.T.);
#236=EDGE_CURVE('',#189,#187,#153,.T.);
#237=EDGE_CURVE('',#190,#188,#154,.T.);
#238=EDGE_CURVE('',#189,#190,#106,.T.);
#239=EDGE_CURVE('',#191,#189,#155,.T.);
#240=EDGE_CURVE('',#192,#190,#156,.T.);
#241=EDGE_CURVE('',#191,#192,#107,.T.);
#242=EDGE_CURVE('',#178,#191,#157,.T.);
#243=EDGE_CURVE('',#179,#192,#158,.T.);
#244=ORIENTED_EDGE('',*,*,#193,.F.);
#245=ORIENTED_EDGE('',*,*,#194,.T.);
#246=ORIENTED_EDGE('',*,*,#195,.T.);
#247=ORIENTED_EDGE('',*,*,#194,.F.);
#248=ORIENTED_EDGE('',*,*,#196,.F.);
#249=ORIENTED_EDGE('',*,*,#197,.T.);
#250=ORIENTED_EDGE('',*,*,#198,.T.);
#251=ORIENTED_EDGE('',*,*,#197,.F.);
#252=ORIENTED_EDGE('',*,*,#199,.F.);
#253=ORIENTED_EDGE('',*,*,#200,.T.);
#254=ORIENTED_EDGE('',*,*,#201,.T.);
#255=ORIENTED_EDGE('',*,*,#200,.F.);
#256=ORIENTED_EDGE('',*,*,#202,.F.);
#257=ORIENTED_EDGE('',*,*,#203,.T.);
#258=ORIENTED_EDGE('',*,*,#204,.T.);
#259=ORIENTED_EDGE('',*,*,#203,.F.);
#260=ORIENTED_EDGE('',*,*,#205,.F.);
#261=ORIENTED_EDGE('',*,*,#206,.T.);
#262=ORIENTED_EDGE('',*,*,#207,.T.);
#263=ORIENTED_EDGE('',*,*,#206,.F.);
#264=ORIENTED_EDGE('',*,*,#208,.F.);
#265=ORIENTED_EDGE('',*,*,#209,.T.);
#266=ORIENTED_EDGE('',*,*,#210,.T.);
#267=ORIENTED_EDGE('',*,*,#209,.F.);
#268=ORIENTED_EDGE('',*,*,#211,.F.);
#269=ORIENTED_EDGE('',*,*,#212,.T.);
#270=ORIENTED_EDGE('',*,*,#213,.T.);
#271=ORIENTED_EDGE('',*,*,#212,.F.);
#272=ORIENTED_EDGE('',*,*,#214,.F.);
#273=ORIENTED_EDGE('',*,*,#215,.T.);
#274=ORIENTED_EDGE('',*,*,#216,.T.);
#275=ORIENTED_EDGE('',*,*,#215,.F.);
#276=ORIENTED_EDGE('',*,*,#217,.F.);
#277=ORIENTED_EDGE('',*,*,#218,.T.);
#278=ORIENTED_EDGE('',*,*,#219,.T.);
#279=ORIENTED_EDGE('',*,*,#218,.F.);
#280=ORIENTED_EDGE('',*,*,#220,.T.);
#281=ORIENTED_EDGE('',*,*,#221,.T.);
#282=ORIENTED_EDGE('',*,*,#222,.F.);
#283=ORIENTED_EDGE('',*,*,#223,.F.);
#284=ORIENTED_EDGE('',*,*,#224,.T.);
#285=ORIENTED_EDGE('',*,*,#223,.T.);
#286=ORIENTED_EDGE('',*,*,#225,.F.);
#287=ORIENTED_EDGE('',*,*,#226,.F.);
#288=ORIENTED_EDGE('',*,*,#227,.T.);
#289=ORIENTED_EDGE('',*,*,#226,.T.);
#290=ORIENTED_EDGE('',*,*,#228,.F.);
#291=ORIENTED_EDGE('',*,*,#229,.F.);
#292=ORIENTED_EDGE('',*,*,#230,.T.);
#293=ORIENTED_EDGE('',*,*,#229,.T.);
#294=ORIENTED_EDGE('',*,*,#231,.F.);
#295=ORIENTED_EDGE('',*,*,#232,.F.);
#296=ORIENTED_EDGE('',*,*,#233,.T.);
#297=ORIENTED_EDGE('',*,*,#232,.T.);
#298=ORIENTED_EDGE('',*,*,#234,.F.);
#299=ORIENTED_EDGE('',*,*,#235,.F.);
#300=ORIENTED_EDGE('',*,*,#236,.T.);
#301=ORIENTED_EDGE('',*,*,#235,.T.);
#302=ORIENTED_EDGE('',*,*,#237,.F.);
#303=ORIENTED_EDGE('',*,*,#238,.F.);
#304=ORIENTED_EDGE('',*,*,#239,.T.);
#305=ORIENTED_EDGE('',*,*,#238,.T.);
#306=ORIENTED_EDGE('',*,*,#240,.F.);
#307=ORIENTED_EDGE('',*,*,#241,.F.);
#308=ORIENTED_EDGE('',*,*,#242,.T.);
#309=ORIENTED_EDGE('',*,*,#241,.T.);
#310=ORIENTED_EDGE('',*,*,#243,.F.);
#311=ORIENTED_EDGE('',*,*,#221,.F.);
#312=ORIENTED_EDGE('',*,*,#243,.T.);
#313=ORIENTED_EDGE('',*,*,#240,.T.);
#314=ORIENTED_EDGE('',*,*,#237,.T.);
#315=ORIENTED_EDGE('',*,*,#234,.T.);
#316=ORIENTED_EDGE('',*,*,#231,.T.);
#317=ORIENTED_EDGE('',*,*,#228,.T.);
#318=ORIENTED_EDGE('',*,*,#225,.T.);
#319=ORIENTED_EDGE('',*,*,#222,.T.);
#320=ORIENTED_EDGE('',*,*,#217,.T.);
#321=ORIENTED_EDGE('',*,*,#214,.T.);
#322=ORIENTED_EDGE('',*,*,#211,.T.);
#323=ORIENTED_EDGE('',*,*,#208,.T.);
#324=ORIENTED_EDGE('',*,*,#205,.T.);
#325=ORIENTED_EDGE('',*,*,#202,.T.);
#326=ORIENTED_EDGE('',*,*,#199,.T.);
#327=ORIENTED_EDGE('',*,*,#196,.T.);
#328=ORIENTED_EDGE('',*,*,#193,.T.);
#329=ORIENTED_EDGE('',*,*,#242,.F.);
#330=ORIENTED_EDGE('',*,*,#220,.F.);
#331=ORIENTED_EDGE('',*,*,#224,.F.);
#332=ORIENTED_EDGE('',*,*,#227,.F.);
#333=ORIENTED_EDGE('',*,*,#230,.F.);
#334=ORIENTED_EDGE('',*,*,#233,.F.);
#335=ORIENTED_EDGE('',*,*,#236,.F.);
#336=ORIENTED_EDGE('',*,*,#239,.F.);
#337=ORIENTED_EDGE('',*,*,#219,.F.);
#338=ORIENTED_EDGE('',*,*,#216,.F.);
#339=ORIENTED_EDGE('',*,*,#213,.F.);
#340=ORIENTED_EDGE('',*,*,#210,.F.);
#341=ORIENTED_EDGE('',*,*,#207,.F.);
#342=ORIENTED_EDGE('',*,*,#204,.F.);
#343=ORIENTED_EDGE('',*,*,#201,.F.);
#344=ORIENTED_EDGE('',*,*,#198,.F.);
#345=ORIENTED_EDGE('',*,*,#195,.F.);
#346=CYLINDRICAL_SURFACE('',#402,1.75);
#347=CYLINDRICAL_SURFACE('',#405,1.75);
#348=CYLINDRICAL_SURFACE('',#408,1.75);
#349=CYLINDRICAL_SURFACE('',#411,1.75);
#350=CYLINDRICAL_SURFACE('',#414,4.75);
#351=CYLINDRICAL_SURFACE('',#417,1.5);
#352=CYLINDRICAL_SURFACE('',#420,1.5);
#353=CYLINDRICAL_SURFACE('',#423,1.5);
#354=CYLINDRICAL_SURFACE('',#426,1.5);
#355=CYLINDRICAL_SURFACE('',#429,5.25307451561757);
#356=CYLINDRICAL_SURFACE('',#432,8.48267624399999);
#357=CYLINDRICAL_SURFACE('',#435,5.25307451551335);
#358=CYLINDRICAL_SURFACE('',#438,8.48267624399999);
#359=CYLINDRICAL_SURFACE('',#441,5.25559170140244);
#360=CYLINDRICAL_SURFACE('',#444,8.48267624399999);
#361=CYLINDRICAL_SURFACE('',#447,5.25307451324134);
#362=CYLINDRICAL_SURFACE('',#450,8.48267624399999);
#363=ADVANCED_FACE('',(#35),#346,.F.);
#364=ADVANCED_FACE('',(#36),#347,.F.);
#365=ADVANCED_FACE('',(#37),#348,.F.);
#366=ADVANCED_FACE('',(#38),#349,.F.);
#367=ADVANCED_FACE('',(#39),#350,.F.);
#368=ADVANCED_FACE('',(#40),#351,.F.);
#369=ADVANCED_FACE('',(#41),#352,.F.);
#370=ADVANCED_FACE('',(#42),#353,.F.);
#371=ADVANCED_FACE('',(#43),#354,.F.);
#372=ADVANCED_FACE('',(#44),#355,.T.);
#373=ADVANCED_FACE('',(#45),#356,.F.);
#374=ADVANCED_FACE('',(#46),#357,.T.);
#375=ADVANCED_FACE('',(#47),#358,.F.);
#376=ADVANCED_FACE('',(#48),#359,.T.);
#377=ADVANCED_FACE('',(#49),#360,.F.);
#378=ADVANCED_FACE('',(#50),#361,.T.);
#379=ADVANCED_FACE('',(#51),#362,.F.);
#380=ADVANCED_FACE('',(#52,#15,#16,#17,#18,#19,#20,#21,#22,#23),#33,.T.);
#381=ADVANCED_FACE('',(#53,#24,#25,#26,#27,#28,#29,#30,#31,#32),#34,.F.);
#382=CLOSED_SHELL('',(#363,#364,#365,#366,#367,#368,#369,#370,#371,#372,
#373,#374,#375,#376,#377,#378,#379,#380,#381));
#383=DERIVED_UNIT_ELEMENT(#385,1.);
#384=DERIVED_UNIT_ELEMENT(#690,3.);
#385=(
MASS_UNIT()
NAMED_UNIT(*)
SI_UNIT($,.GRAM.)
);
#386=DERIVED_UNIT((#383,#384));
#387=MEASURE_REPRESENTATION_ITEM('density measure',
POSITIVE_RATIO_MEASURE(7.85),#386);
#388=PROPERTY_DEFINITION_REPRESENTATION(#393,#390);
#389=PROPERTY_DEFINITION_REPRESENTATION(#394,#391);
#390=REPRESENTATION('material name',(#392),#687);
#391=REPRESENTATION('density',(#387),#687);
#392=DESCRIPTIVE_REPRESENTATION_ITEM('Steel','Steel');
#393=PROPERTY_DEFINITION('material property','material name',#697);
#394=PROPERTY_DEFINITION('material property','density of part',#697);
#395=DATE_TIME_ROLE('creation_date');
#396=APPLIED_DATE_AND_TIME_ASSIGNMENT(#397,#395,(#697));
#397=DATE_AND_TIME(#398,#399);
#398=CALENDAR_DATE(2023,20,10);
#399=LOCAL_TIME(0,0,0.,#400);
#400=COORDINATED_UNIVERSAL_TIME_OFFSET(0,0,.BEHIND.);
#401=AXIS2_PLACEMENT_3D('placement',#580,#455,#456);
#402=AXIS2_PLACEMENT_3D('',#581,#457,#458);
#403=AXIS2_PLACEMENT_3D('',#583,#459,#460);
#404=AXIS2_PLACEMENT_3D('',#586,#462,#463);
#405=AXIS2_PLACEMENT_3D('',#587,#464,#465);
#406=AXIS2_PLACEMENT_3D('',#589,#466,#467);
#407=AXIS2_PLACEMENT_3D('',#592,#469,#470);
#408=AXIS2_PLACEMENT_3D('',#593,#471,#472);
#409=AXIS2_PLACEMENT_3D('',#595,#473,#474);
#410=AXIS2_PLACEMENT_3D('',#598,#476,#477);
#411=AXIS2_PLACEMENT_3D('',#599,#478,#479);
#412=AXIS2_PLACEMENT_3D('',#601,#480,#481);
#413=AXIS2_PLACEMENT_3D('',#604,#483,#484);
#414=AXIS2_PLACEMENT_3D('',#605,#485,#486);
#415=AXIS2_PLACEMENT_3D('',#607,#487,#488);
#416=AXIS2_PLACEMENT_3D('',#610,#490,#491);
#417=AXIS2_PLACEMENT_3D('',#611,#492,#493);
#418=AXIS2_PLACEMENT_3D('',#613,#494,#495);
#419=AXIS2_PLACEMENT_3D('',#616,#497,#498);
#420=AXIS2_PLACEMENT_3D('',#617,#499,#500);
#421=AXIS2_PLACEMENT_3D('',#619,#501,#502);
#422=AXIS2_PLACEMENT_3D('',#622,#504,#505);
#423=AXIS2_PLACEMENT_3D('',#623,#506,#507);
#424=AXIS2_PLACEMENT_3D('',#625,#508,#509);
#425=AXIS2_PLACEMENT_3D('',#628,#511,#512);
#426=AXIS2_PLACEMENT_3D('',#629,#513,#514);
#427=AXIS2_PLACEMENT_3D('',#631,#515,#516);
#428=AXIS2_PLACEMENT_3D('',#634,#518,#519);
#429=AXIS2_PLACEMENT_3D('',#635,#520,#521);
#430=AXIS2_PLACEMENT_3D('',#638,#522,#523);
#431=AXIS2_PLACEMENT_3D('',#642,#525,#526);
#432=AXIS2_PLACEMENT_3D('',#644,#528,#529);
#433=AXIS2_PLACEMENT_3D('',#646,#530,#531);
#434=AXIS2_PLACEMENT_3D('',#648,#532,#533);
#435=AXIS2_PLACEMENT_3D('',#650,#535,#536);
#436=AXIS2_PLACEMENT_3D('',#652,#537,#538);
#437=AXIS2_PLACEMENT_3D('',#654,#539,#540);
#438=AXIS2_PLACEMENT_3D('',#656,#542,#543);
#439=AXIS2_PLACEMENT_3D('',#658,#544,#545);
#440=AXIS2_PLACEMENT_3D('',#660,#546,#547);
#441=AXIS2_PLACEMENT_3D('',#662,#549,#550);
#442=AXIS2_PLACEMENT_3D('',#664,#551,#552);
#443=AXIS2_PLACEMENT_3D('',#666,#553,#554);
#444=AXIS2_PLACEMENT_3D('',#668,#556,#557);
#445=AXIS2_PLACEMENT_3D('',#670,#558,#559);
#446=AXIS2_PLACEMENT_3D('',#672,#560,#561);
#447=AXIS2_PLACEMENT_3D('',#674,#563,#564);
#448=AXIS2_PLACEMENT_3D('',#676,#565,#566);
#449=AXIS2_PLACEMENT_3D('',#678,#567,#568);
#450=AXIS2_PLACEMENT_3D('',#680,#570,#571);
#451=AXIS2_PLACEMENT_3D('',#681,#572,#573);
#452=AXIS2_PLACEMENT_3D('',#682,#574,#575);
#453=AXIS2_PLACEMENT_3D('',#683,#576,#577);
#454=AXIS2_PLACEMENT_3D('',#684,#578,#579);
#455=DIRECTION('axis',(0.,0.,1.));
#456=DIRECTION('refdir',(1.,0.,0.));
#457=DIRECTION('center_axis',(0.,0.,1.));
#458=DIRECTION('ref_axis',(-0.855896719171566,-0.517146793581233,0.));
#459=DIRECTION('center_axis',(0.,0.,-1.));
#460=DIRECTION('ref_axis',(-0.855896719171566,-0.517146793581233,0.));
#461=DIRECTION('',(0.,0.,-1.));
#462=DIRECTION('center_axis',(0.,0.,-1.));
#463=DIRECTION('ref_axis',(-0.855896719171566,-0.517146793581233,0.));
#464=DIRECTION('center_axis',(0.,0.,1.));
#465=DIRECTION('ref_axis',(0.855896718785164,0.517146794220742,0.));
#466=DIRECTION('center_axis',(0.,0.,-1.));
#467=DIRECTION('ref_axis',(0.855896718785164,0.517146794220742,0.));
#468=DIRECTION('',(0.,0.,-1.));
#469=DIRECTION('center_axis',(0.,0.,-1.));
#470=DIRECTION('ref_axis',(0.855896718785164,0.517146794220742,0.));
#471=DIRECTION('center_axis',(0.,0.,1.));
#472=DIRECTION('ref_axis',(-0.517146794032701,0.855896718898781,0.));
#473=DIRECTION('center_axis',(0.,0.,-1.));
#474=DIRECTION('ref_axis',(-0.517146794032701,0.855896718898781,0.));
#475=DIRECTION('',(0.,0.,-1.));
#476=DIRECTION('center_axis',(0.,0.,-1.));
#477=DIRECTION('ref_axis',(-0.517146794032701,0.855896718898781,0.));
#478=DIRECTION('center_axis',(0.,0.,1.));
#479=DIRECTION('ref_axis',(0.517146793769314,-0.855896719057924,0.));
#480=DIRECTION('center_axis',(0.,0.,-1.));
#481=DIRECTION('ref_axis',(0.517146793769314,-0.855896719057924,0.));
#482=DIRECTION('',(0.,0.,-1.));
#483=DIRECTION('center_axis',(0.,0.,-1.));
#484=DIRECTION('ref_axis',(0.517146793769314,-0.855896719057924,0.));
#485=DIRECTION('center_axis',(0.,0.,1.));
#486=DIRECTION('ref_axis',(-1.,0.,0.));
#487=DIRECTION('center_axis',(0.,0.,-1.));
#488=DIRECTION('ref_axis',(-1.,0.,0.));
#489=DIRECTION('',(0.,0.,-1.));
#490=DIRECTION('center_axis',(0.,0.,-1.));
#491=DIRECTION('ref_axis',(-1.,0.,0.));
#492=DIRECTION('center_axis',(0.,0.,1.));
#493=DIRECTION('ref_axis',(-1.,0.,0.));
#494=DIRECTION('center_axis',(0.,0.,-1.));
#495=DIRECTION('ref_axis',(-1.,0.,0.));
#496=DIRECTION('',(0.,0.,-1.));
#497=DIRECTION('center_axis',(0.,0.,-1.));
#498=DIRECTION('ref_axis',(-1.,0.,0.));
#499=DIRECTION('center_axis',(0.,0.,1.));
#500=DIRECTION('ref_axis',(-1.,0.,0.));
#501=DIRECTION('center_axis',(0.,0.,-1.));
#502=DIRECTION('ref_axis',(-1.,0.,0.));
#503=DIRECTION('',(0.,0.,-1.));
#504=DIRECTION('center_axis',(0.,0.,-1.));
#505=DIRECTION('ref_axis',(-1.,0.,0.));
#506=DIRECTION('center_axis',(0.,0.,1.));
#507=DIRECTION('ref_axis',(-1.,0.,0.));
#508=DIRECTION('center_axis',(0.,0.,-1.));
#509=DIRECTION('ref_axis',(-1.,0.,0.));
#510=DIRECTION('',(0.,0.,-1.));
#511=DIRECTION('center_axis',(0.,0.,-1.));
#512=DIRECTION('ref_axis',(-1.,0.,0.));
#513=DIRECTION('center_axis',(0.,0.,1.));
#514=DIRECTION('ref_axis',(-1.,0.,0.));
#515=DIRECTION('center_axis',(0.,0.,-1.));
#516=DIRECTION('ref_axis',(-1.,0.,0.));
#517=DIRECTION('',(0.,0.,-1.));
#518=DIRECTION('center_axis',(0.,0.,-1.));
#519=DIRECTION('ref_axis',(-1.,0.,0.));
#520=DIRECTION('center_axis',(0.,0.,1.));
#521=DIRECTION('ref_axis',(-0.989015863354398,-0.147809411179919,0.));
#522=DIRECTION('center_axis',(0.,0.,1.));
#523=DIRECTION('ref_axis',(1.,0.,0.));
#524=DIRECTION('',(0.,0.,1.));
#525=DIRECTION('center_axis',(0.,0.,1.));
#526=DIRECTION('ref_axis',(1.,0.,0.));
#527=DIRECTION('',(0.,0.,1.));
#528=DIRECTION('center_axis',(0.,0.,1.));
#529=DIRECTION('ref_axis',(-0.0496857208157369,0.998764901839778,0.));
#530=DIRECTION('center_axis',(0.,0.,-1.));
#531=DIRECTION('ref_axis',(-0.0496857208157369,0.998764901839778,0.));
#532=DIRECTION('center_axis',(0.,0.,-1.));
#533=DIRECTION('ref_axis',(-0.0496857208157369,0.998764901839778,0.));
#534=DIRECTION('',(0.,0.,1.));
#535=DIRECTION('center_axis',(0.,0.,1.));
#536=DIRECTION('ref_axis',(-0.147809410922479,0.989015863392873,0.));
#537=DIRECTION('center_axis',(0.,0.,1.));
#538=DIRECTION('ref_axis',(1.,0.,0.));
#539=DIRECTION('center_axis',(0.,0.,1.));
#540=DIRECTION('ref_axis',(1.,0.,0.));
#541=DIRECTION('',(0.,0.,1.));
#542=DIRECTION('center_axis',(0.,0.,1.));
#543=DIRECTION('ref_axis',(-0.594980679658742,-0.803740002011112,0.));
#544=DIRECTION('center_axis',(0.,0.,-1.));
#545=DIRECTION('ref_axis',(0.99876490181084,0.0496857213974191,0.));
#546=DIRECTION('center_axis',(0.,0.,-1.));
#547=DIRECTION('ref_axis',(0.99876490181084,0.0496857213974191,0.));
#548=DIRECTION('',(0.,0.,1.));
#549=DIRECTION('center_axis',(0.,0.,1.));
#550=DIRECTION('ref_axis',(1.,0.,0.));
#551=DIRECTION('center_axis',(0.,0.,1.));
#552=DIRECTION('ref_axis',(1.,0.,0.));
#553=DIRECTION('center_axis',(0.,0.,1.));
#554=DIRECTION('ref_axis',(1.,0.,0.));
#555=DIRECTION('',(0.,0.,1.));
#556=DIRECTION('center_axis',(0.,0.,1.));
#557=DIRECTION('ref_axis',(0.0496857203191505,-0.998764901864481,0.));
#558=DIRECTION('center_axis',(0.,0.,-1.));
#559=DIRECTION('ref_axis',(0.0496857203191505,-0.998764901864481,0.));
#560=DIRECTION('center_axis',(0.,0.,-1.));
#561=DIRECTION('ref_axis',(0.0496857203191505,-0.998764901864481,0.));
#562=DIRECTION('',(0.,0.,1.));
#563=DIRECTION('center_axis',(0.,0.,1.));
#564=DIRECTION('ref_axis',(0.147809410742216,-0.989015863419813,0.));
#565=DIRECTION('center_axis',(0.,0.,1.));
#566=DIRECTION('ref_axis',(1.,0.,0.));
#567=DIRECTION('center_axis',(0.,0.,1.));
#568=DIRECTION('ref_axis',(1.,0.,0.));
#569=DIRECTION('',(0.,0.,1.));
#570=DIRECTION('center_axis',(0.,0.,1.));
#571=DIRECTION('ref_axis',(-0.998764901884976,-0.0496857199071741,0.));
#572=DIRECTION('center_axis',(0.,0.,-1.));
#573=DIRECTION('ref_axis',(-0.998764901884976,-0.0496857199071741,0.));
#574=DIRECTION('center_axis',(0.,0.,-1.));
#575=DIRECTION('ref_axis',(-0.998764901884976,-0.0496857199071741,0.));
#576=DIRECTION('center_axis',(0.,0.,1.));
#577=DIRECTION('ref_axis',(1.,0.,0.));
#578=DIRECTION('center_axis',(0.,0.,1.));
#579=DIRECTION('ref_axis',(1.,0.,0.));
#580=CARTESIAN_POINT('',(0.,0.,0.));
#581=CARTESIAN_POINT('Origin',(-36.8284339799079,201.772709875722,0.));
#582=CARTESIAN_POINT('',(-35.3306147213576,202.677716764489,2.));
#583=CARTESIAN_POINT('Origin',(-36.8284339799079,201.772709875722,2.));
#584=CARTESIAN_POINT('',(-35.3306147213576,202.677716764489,0.));
#585=CARTESIAN_POINT('',(-35.3306147213576,202.677716764489,0.));
#586=CARTESIAN_POINT('Origin',(-36.8284339799079,201.772709875722,0.));
#587=CARTESIAN_POINT('Origin',(-3.99310731594404,206.679982323289,0.));
#588=CARTESIAN_POINT('',(-5.49092657381808,205.774975433403,2.));
#589=CARTESIAN_POINT('Origin',(-3.99310731594404,206.679982323289,2.));
#590=CARTESIAN_POINT('',(-5.49092657381808,205.774975433403,0.));
#591=CARTESIAN_POINT('',(-5.49092657381808,205.774975433403,0.));
#592=CARTESIAN_POINT('Origin',(-3.99310731594404,206.679982323289,0.));
#593=CARTESIAN_POINT('Origin',(-22.8644068717098,220.644009431487,0.));
#594=CARTESIAN_POINT('',(-21.9593999821526,219.146190173414,2.));
#595=CARTESIAN_POINT('Origin',(-22.8644068717098,220.644009431487,2.));
#596=CARTESIAN_POINT('',(-21.9593999821526,219.146190173414,0.));
#597=CARTESIAN_POINT('',(-21.9593999821526,219.146190173414,0.));
#598=CARTESIAN_POINT('Origin',(-22.8644068717098,220.644009431487,0.));
#599=CARTESIAN_POINT('Origin',(-17.9571344241419,187.808682767524,0.));
#600=CARTESIAN_POINT('',(-18.8621413132382,189.306502025875,2.));
#601=CARTESIAN_POINT('Origin',(-17.9571344241419,187.808682767524,2.));
#602=CARTESIAN_POINT('',(-18.8621413132382,189.306502025875,0.));
#603=CARTESIAN_POINT('',(-18.8621413132382,189.306502025875,0.));
#604=CARTESIAN_POINT('Origin',(-17.9571344241419,187.808682767524,0.));
#605=CARTESIAN_POINT('Origin',(-20.4107706479998,204.2263461,0.));
#606=CARTESIAN_POINT('',(-15.6607706479998,204.2263461,2.));
#607=CARTESIAN_POINT('Origin',(-20.4107706479998,204.2263461,2.));
#608=CARTESIAN_POINT('',(-15.6607706479998,204.2263461,0.));
#609=CARTESIAN_POINT('',(-15.6607706479998,204.2263461,0.));
#610=CARTESIAN_POINT('Origin',(-20.4107706479998,204.2263461,0.));
#611=CARTESIAN_POINT('Origin',(-19.0435335949997,195.077949364,0.));
#612=CARTESIAN_POINT('',(-17.5435335949997,195.077949364,2.));
#613=CARTESIAN_POINT('Origin',(-19.0435335949997,195.077949364,2.));
#614=CARTESIAN_POINT('',(-17.5435335949997,195.077949364,0.));
#615=CARTESIAN_POINT('',(-17.5435335949997,195.077949364,0.));
#616=CARTESIAN_POINT('Origin',(-19.0435335949997,195.077949364,0.));
#617=CARTESIAN_POINT('Origin',(-28.3228975549997,203.043870811,0.));
#618=CARTESIAN_POINT('',(-26.8228975549997,203.043870811,2.));
#619=CARTESIAN_POINT('Origin',(-28.3228975549997,203.043870811,2.));
#620=CARTESIAN_POINT('',(-26.8228975549997,203.043870811,0.));
#621=CARTESIAN_POINT('',(-26.8228975549997,203.043870811,0.));
#622=CARTESIAN_POINT('Origin',(-28.3228975549997,203.043870811,0.));
#623=CARTESIAN_POINT('Origin',(-21.7780077009999,213.374742837,0.));
#624=CARTESIAN_POINT('',(-20.2780077009999,213.374742837,2.));
#625=CARTESIAN_POINT('Origin',(-21.7780077009999,213.374742837,2.));
#626=CARTESIAN_POINT('',(-20.2780077009999,213.374742837,0.));
#627=CARTESIAN_POINT('',(-20.2780077009999,213.374742837,0.));
#628=CARTESIAN_POINT('Origin',(-21.7780077009999,213.374742837,0.));
#629=CARTESIAN_POINT('Origin',(-12.4986437409998,205.408821389,0.));
#630=CARTESIAN_POINT('',(-10.9986437409998,205.408821389,2.));
#631=CARTESIAN_POINT('Origin',(-12.4986437409998,205.408821389,2.));
#632=CARTESIAN_POINT('',(-10.9986437409998,205.408821389,0.));
#633=CARTESIAN_POINT('',(-10.9986437409998,205.408821389,0.));
#634=CARTESIAN_POINT('Origin',(-12.4986437409998,205.408821389,0.));
#635=CARTESIAN_POINT('Origin',(-36.8284339799079,201.772709875722,0.));
#636=CARTESIAN_POINT('',(-33.0380509293702,205.409712514823,0.));
#637=CARTESIAN_POINT('',(-32.1403159794285,199.402827708805,0.));
#638=CARTESIAN_POINT('Origin',(-36.8284339799079,201.772709875722,0.));
#639=CARTESIAN_POINT('',(-32.1403159794285,199.402827708805,2.));
#640=CARTESIAN_POINT('',(-32.1403159794285,199.402827708805,0.));
#641=CARTESIAN_POINT('',(-33.0380509293702,205.409712514823,2.));
#642=CARTESIAN_POINT('Origin',(-36.8284339799079,201.772709875722,2.));
#643=CARTESIAN_POINT('',(-33.0380509293702,205.409712514823,0.));
#644=CARTESIAN_POINT('Origin',(-33.4595188129999,213.881911821,0.));
#645=CARTESIAN_POINT('',(-25.23428903905,215.955891431857,0.));
#646=CARTESIAN_POINT('Origin',(-33.4595188129999,213.881911821,0.));
#647=CARTESIAN_POINT('',(-25.23428903905,215.955891431857,2.));
#648=CARTESIAN_POINT('Origin',(-33.4595188129999,213.881911821,2.));
#649=CARTESIAN_POINT('',(-25.23428903905,215.955891431857,0.));
#650=CARTESIAN_POINT('Origin',(-22.8644068717098,220.644009431487,0.));
#651=CARTESIAN_POINT('',(-19.2274042335183,216.853626379047,0.));
#652=CARTESIAN_POINT('Origin',(-22.8644068717098,220.644009431487,0.));
#653=CARTESIAN_POINT('',(-19.2274042335183,216.853626379047,2.));
#654=CARTESIAN_POINT('Origin',(-22.8644068717098,220.644009431487,2.));
#655=CARTESIAN_POINT('',(-19.2274042335183,216.853626379047,0.));
#656=CARTESIAN_POINT('Origin',(-10.7552049269999,217.275094267,0.));
#657=CARTESIAN_POINT('',(-8.68445689952895,209.049050329162,0.));
#658=CARTESIAN_POINT('Origin',(-10.7552049269999,217.275094267,0.));
#659=CARTESIAN_POINT('',(-8.68445689952895,209.049050329162,2.));
#660=CARTESIAN_POINT('Origin',(-10.7552049269999,217.275094267,2.));
#661=CARTESIAN_POINT('',(-8.68445689952895,209.049050329162,0.));
#662=CARTESIAN_POINT('Origin',(-3.99310731594404,206.679982323289,0.));
#663=CARTESIAN_POINT('',(-7.78681878819781,203.042813452156,0.));
#664=CARTESIAN_POINT('Origin',(-3.99310731594404,206.679982323289,0.));
#665=CARTESIAN_POINT('',(-7.78681878819781,203.042813452156,2.));
#666=CARTESIAN_POINT('Origin',(-3.99310731594404,206.679982323289,2.));
#667=CARTESIAN_POINT('',(-7.78681878819781,203.042813452156,0.));
#668=CARTESIAN_POINT('Origin',(-7.36202248199969,194.570780381,0.));
#669=CARTESIAN_POINT('',(-15.5872522542256,192.496800763306,0.));
#670=CARTESIAN_POINT('Origin',(-7.36202248199969,194.570780381,0.));
#671=CARTESIAN_POINT('',(-15.5872522542256,192.496800763306,2.));
#672=CARTESIAN_POINT('Origin',(-7.36202248199969,194.570780381,2.));
#673=CARTESIAN_POINT('',(-15.5872522542256,192.496800763306,0.));
#674=CARTESIAN_POINT('Origin',(-17.9571344241419,187.808682767524,0.));
#675=CARTESIAN_POINT('',(-21.5941370617037,191.599065816245,0.));
#676=CARTESIAN_POINT('Origin',(-17.9571344241419,187.808682767524,0.));
#677=CARTESIAN_POINT('',(-21.5941370617037,191.599065816245,2.));
#678=CARTESIAN_POINT('Origin',(-17.9571344241419,187.808682767524,2.));
#679=CARTESIAN_POINT('',(-21.5941370617037,191.599065816245,0.));
#680=CARTESIAN_POINT('Origin',(-30.0663363679996,191.177597935,0.));
#681=CARTESIAN_POINT('Origin',(-30.0663363679996,191.177597935,0.));
#682=CARTESIAN_POINT('Origin',(-30.0663363679996,191.177597935,2.));
#683=CARTESIAN_POINT('Origin',(-20.4095120550335,204.226346100641,2.));
#684=CARTESIAN_POINT('Origin',(-20.4095120550335,204.226346100641,0.));
#685=UNCERTAINTY_MEASURE_WITH_UNIT(LENGTH_MEASURE(0.01),#689,
'DISTANCE_ACCURACY_VALUE',
'Maximum model space distance between geometric entities at asserted c
onnectivities');
#686=UNCERTAINTY_MEASURE_WITH_UNIT(LENGTH_MEASURE(0.01),#689,
'DISTANCE_ACCURACY_VALUE',
'Maximum model space distance between geometric entities at asserted c
onnectivities');
#687=(
GEOMETRIC_REPRESENTATION_CONTEXT(3)
GLOBAL_UNCERTAINTY_ASSIGNED_CONTEXT((#685))
GLOBAL_UNIT_ASSIGNED_CONTEXT((#689,#691,#692))
REPRESENTATION_CONTEXT('','3D')
);
#688=(
GEOMETRIC_REPRESENTATION_CONTEXT(3)
GLOBAL_UNCERTAINTY_ASSIGNED_CONTEXT((#686))
GLOBAL_UNIT_ASSIGNED_CONTEXT((#689,#691,#692))
REPRESENTATION_CONTEXT('','3D')
);
#689=(
LENGTH_UNIT()
NAMED_UNIT(*)
SI_UNIT(.MILLI.,.METRE.)
);
#690=(
LENGTH_UNIT()
NAMED_UNIT(*)
SI_UNIT(.CENTI.,.METRE.)
);
#691=(
NAMED_UNIT(*)
PLANE_ANGLE_UNIT()
SI_UNIT($,.RADIAN.)
);
#692=(
NAMED_UNIT(*)
SI_UNIT($,.STERADIAN.)
SOLID_ANGLE_UNIT()
);
#693=SHAPE_DEFINITION_REPRESENTATION(#694,#695);
#694=PRODUCT_DEFINITION_SHAPE('',$,#697);
#695=SHAPE_REPRESENTATION('',(#401),#687);
#696=PRODUCT_DEFINITION_CONTEXT('part definition',#701,'design');
#697=PRODUCT_DEFINITION('Part18','Part18',#698,#696);
#698=PRODUCT_DEFINITION_FORMATION('',$,#703);
#699=PRODUCT_RELATED_PRODUCT_CATEGORY('Part18','Part18',(#703));
#700=APPLICATION_PROTOCOL_DEFINITION('international standard',
'automotive_design',2009,#701);
#701=APPLICATION_CONTEXT(
'Core Data for Automotive Mechanical Design Process');
#702=PRODUCT_CONTEXT('part definition',#701,'mechanical');
#703=PRODUCT('Part18','Part18',$,(#702));
#704=PRESENTATION_STYLE_ASSIGNMENT((#705));
#705=SURFACE_STYLE_USAGE(.BOTH.,#706);
#706=SURFACE_SIDE_STYLE('',(#707));
#707=SURFACE_STYLE_FILL_AREA(#708);
#708=FILL_AREA_STYLE('',(#709));
#709=FILL_AREA_STYLE_COLOUR('',#710);
#710=COLOUR_RGB('',0.301960784313725,0.305882352941176,0.290196078431373);
ENDSEC;
END-ISO-10303-21;
