ISO-10303-21;
HEADER;
/* Generated by software containing ST-Developer
 * from STEP Tools, Inc. (www.steptools.com) 
 */

FILE_DESCRIPTION(
/* description */ (''),
/* implementation_level */ '2;1');

FILE_NAME(
/* name */ 
'I:\\ASU_FOE\\graduation project\\quadcopter\\matlab xml\\231123\\\\St
andoff M3 M-M H 45mm_ipt_213f8d71.STEP',
/* time_stamp */ '2023-11-23T19:53:49+02:00',
/* author */ (''),
/* organization */ (''),
/* preprocessor_version */ 'ST-DEVELOPER v18.1',
/* originating_system */ 'Autodesk Inventor 2021',
/* authorisation */ '');

FILE_SCHEMA (('AUTOMOTIVE_DESIGN { 1 0 10303 214 3 1 1 }'));
ENDSEC;

DATA;
#10=MECHANICAL_DESIGN_GEOMETRIC_PRESENTATION_REPRESENTATION('',(#13),#580);
#11=SHAPE_REPRESENTATION_RELATIONSHIP('SRR','None',#587,#12);
#12=ADVANCED_BREP_SHAPE_REPRESENTATION('',(#14),#579);
#13=STYLED_ITEM('',(#597),#14);
#14=MANIFOLD_SOLID_BREP('Solid1',#299);
#15=CONICAL_SURFACE('',#335,0.27930531025714,1.04719755119659);
#16=B_SPLINE_CURVE_WITH_KNOTS('',3,(#460,#461,#462,#463,#464,#465,#466,
#467,#468,#469),.UNSPECIFIED.,.F.,.F.,(4,2,2,2,4),(0.159912855963084,0.162872858054398,
0.179509084137224,0.19614531022005,0.199105312312247),.UNSPECIFIED.);
#17=B_SPLINE_CURVE_WITH_KNOTS('',3,(#480,#481,#482,#483,#484,#485,#486,
#487,#488,#489),.UNSPECIFIED.,.F.,.F.,(4,2,2,2,4),(0.159912855963086,0.162872858054399,
0.179509084137225,0.196145310220051,0.199105312312243),.UNSPECIFIED.);
#18=B_SPLINE_CURVE_WITH_KNOTS('',3,(#500,#501,#502,#503,#504,#505,#506,
#507,#508,#509),.UNSPECIFIED.,.F.,.F.,(4,2,2,2,4),(-0.199105312311364,-0.196145310220051,
-0.179509084137225,-0.162872858054399,-0.159912855963086),.UNSPECIFIED.);
#19=B_SPLINE_CURVE_WITH_KNOTS('',3,(#520,#521,#522,#523,#524,#525,#526,
#527,#528,#529),.UNSPECIFIED.,.F.,.F.,(4,2,2,2,4),(-0.199105312312245,-0.196145310220052,
-0.179509084137228,-0.162872858054401,-0.159912855963087),.UNSPECIFIED.);
#20=B_SPLINE_CURVE_WITH_KNOTS('',3,(#536,#537,#538,#539,#540,#541,#542,
#543,#544,#545),.UNSPECIFIED.,.F.,.F.,(4,2,2,2,4),(-0.199105312312247,-0.196145310220051,
-0.179509084137225,-0.162872858054399,-0.159912855963086),.UNSPECIFIED.);
#21=B_SPLINE_CURVE_WITH_KNOTS('',3,(#551,#552,#553,#554,#555,#556,#557,
#558,#559,#560),.UNSPECIFIED.,.F.,.F.,(4,2,2,2,4),(0.159912855963086,0.162872858054398,
0.179509084137224,0.196145310220051,0.199105312311363),.UNSPECIFIED.);
#22=(
BOUNDED_CURVE()
B_SPLINE_CURVE(2,(#452,#453,#454,#455),.UNSPECIFIED.,.F.,.F.)
B_SPLINE_CURVE_WITH_KNOTS((3,1,3),(-11.5989221180558,-7.67424224723078,
-7.20682079576858),.UNSPECIFIED.)
CURVE()
GEOMETRIC_REPRESENTATION_ITEM()
RATIONAL_B_SPLINE_CURVE((17.7579053528965,19.4857511082966,17.96368829505,
17.7579053528786))
REPRESENTATION_ITEM('')
);
#23=(
BOUNDED_CURVE()
B_SPLINE_CURVE(2,(#473,#474,#475,#476),.UNSPECIFIED.,.F.,.F.)
B_SPLINE_CURVE_WITH_KNOTS((3,1,3),(-11.5989221180526,-7.67424224721997,
-7.20682079577286),.UNSPECIFIED.)
CURVE()
GEOMETRIC_REPRESENTATION_ITEM()
RATIONAL_B_SPLINE_CURVE((17.757905352865,19.4857511082618,17.9636882950113,
17.7579053528473))
REPRESENTATION_ITEM('')
);
#24=(
BOUNDED_CURVE()
B_SPLINE_CURVE(2,(#493,#494,#495,#496),.UNSPECIFIED.,.F.,.F.)
B_SPLINE_CURVE_WITH_KNOTS((3,1,3),(7.20682090331258,7.67424244174272,11.5989222888445),
 .UNSPECIFIED.)
CURVE()
GEOMETRIC_REPRESENTATION_ITEM()
RATIONAL_B_SPLINE_CURVE((17.7579056068035,17.9636885872425,19.4857513516066,
17.7579056068037))
REPRESENTATION_ITEM('')
);
#25=(
BOUNDED_CURVE()
B_SPLINE_CURVE(2,(#516,#517,#518),.UNSPECIFIED.,.F.,.F.)
B_SPLINE_CURVE_WITH_KNOTS((3,3),(8.93623958159985,11.5989221180599),
 .UNSPECIFIED.)
CURVE()
GEOMETRIC_REPRESENTATION_ITEM()
RATIONAL_B_SPLINE_CURVE((18.6810673966224,18.9301550318584,17.7579053528949))
REPRESENTATION_ITEM('')
);
#26=(
BOUNDED_CURVE()
B_SPLINE_CURVE(2,(#531,#532,#533,#534),.UNSPECIFIED.,.F.,.F.)
B_SPLINE_CURVE_WITH_KNOTS((3,1,3),(7.20682079576839,7.67424224724214,11.5989221180636),
 .UNSPECIFIED.)
CURVE()
GEOMETRIC_REPRESENTATION_ITEM()
RATIONAL_B_SPLINE_CURVE((17.7579053529151,17.9636882950921,19.4857511083345,
17.7579053529257))
REPRESENTATION_ITEM('')
);
#27=(
BOUNDED_CURVE()
B_SPLINE_CURVE(2,(#547,#548,#549,#550),.UNSPECIFIED.,.F.,.F.)
B_SPLINE_CURVE_WITH_KNOTS((3,1,3),(-11.5989222888449,-7.67424244174301,
-7.20682090331274),.UNSPECIFIED.)
CURVE()
GEOMETRIC_REPRESENTATION_ITEM()
RATIONAL_B_SPLINE_CURVE((17.7579056068042,19.4857513516075,17.9636885872436,
17.7579056068045))
REPRESENTATION_ITEM('')
);
#28=(
BOUNDED_CURVE()
B_SPLINE_CURVE(2,(#561,#562,#563,#564),.UNSPECIFIED.,.F.,.F.)
B_SPLINE_CURVE_WITH_KNOTS((3,1,3),(7.20682079577206,7.67424224723143,8.93623958159985),
 .UNSPECIFIED.)
CURVE()
GEOMETRIC_REPRESENTATION_ITEM()
RATIONAL_B_SPLINE_CURVE((17.7579053528835,17.9636882950534,18.5630105395291,
18.6810673966224))
REPRESENTATION_ITEM('')
);
#29=FACE_BOUND('',#57,.T.);
#30=FACE_BOUND('',#66,.T.);
#31=PLANE('',#322);
#32=PLANE('',#329);
#33=PLANE('',#331);
#34=PLANE('',#333);
#35=PLANE('',#337);
#36=PLANE('',#339);
#37=PLANE('',#340);
#38=PLANE('',#341);
#39=FACE_OUTER_BOUND('',#55,.T.);
#40=FACE_OUTER_BOUND('',#56,.T.);
#41=FACE_OUTER_BOUND('',#58,.T.);
#42=FACE_OUTER_BOUND('',#59,.T.);
#43=FACE_OUTER_BOUND('',#60,.T.);
#44=FACE_OUTER_BOUND('',#61,.T.);
#45=FACE_OUTER_BOUND('',#62,.T.);
#46=FACE_OUTER_BOUND('',#63,.T.);
#47=FACE_OUTER_BOUND('',#64,.T.);
#48=FACE_OUTER_BOUND('',#65,.T.);
#49=FACE_OUTER_BOUND('',#67,.T.);
#50=FACE_OUTER_BOUND('',#68,.T.);
#51=FACE_OUTER_BOUND('',#69,.T.);
#52=FACE_OUTER_BOUND('',#70,.T.);
#53=FACE_OUTER_BOUND('',#71,.T.);
#54=FACE_OUTER_BOUND('',#72,.T.);
#55=EDGE_LOOP('',(#192,#193,#194,#195));
#56=EDGE_LOOP('',(#196,#197,#198,#199,#200,#201,#202,#203,#204,#205,#206,
#207));
#57=EDGE_LOOP('',(#208));
#58=EDGE_LOOP('',(#209,#210,#211,#212));
#59=EDGE_LOOP('',(#213,#214,#215,#216));
#60=EDGE_LOOP('',(#217,#218,#219,#220));
#61=EDGE_LOOP('',(#221,#222,#223,#224));
#62=EDGE_LOOP('',(#225,#226,#227,#228));
#63=EDGE_LOOP('',(#229,#230,#231,#232));
#64=EDGE_LOOP('',(#233,#234,#235,#236,#237,#238,#239,#240,#241,#242,#243,
#244,#245,#246,#247,#248));
#65=EDGE_LOOP('',(#249));
#66=EDGE_LOOP('',(#250));
#67=EDGE_LOOP('',(#251,#252,#253,#254));
#68=EDGE_LOOP('',(#255,#256,#257,#258));
#69=EDGE_LOOP('',(#259,#260,#261,#262));
#70=EDGE_LOOP('',(#263,#264,#265,#266,#267));
#71=EDGE_LOOP('',(#268,#269,#270,#271));
#72=EDGE_LOOP('',(#272,#273,#274,#275));
#73=LINE('',#421,#93);
#74=LINE('',#426,#94);
#75=LINE('',#430,#95);
#76=LINE('',#434,#96);
#77=LINE('',#438,#97);
#78=LINE('',#442,#98);
#79=LINE('',#446,#99);
#80=LINE('',#450,#100);
#81=LINE('',#456,#101);
#82=LINE('',#459,#102);
#83=LINE('',#472,#103);
#84=LINE('',#479,#104);
#85=LINE('',#492,#105);
#86=LINE('',#499,#106);
#87=LINE('',#514,#107);
#88=LINE('',#567,#108);
#89=LINE('',#569,#109);
#90=LINE('',#571,#110);
#91=LINE('',#572,#111);
#92=LINE('',#574,#112);
#93=VECTOR('',#350,1.5);
#94=VECTOR('',#355,10.);
#95=VECTOR('',#358,10.);
#96=VECTOR('',#361,10.);
#97=VECTOR('',#364,10.);
#98=VECTOR('',#367,10.);
#99=VECTOR('',#370,10.);
#100=VECTOR('',#375,10.);
#101=VECTOR('',#376,10.);
#102=VECTOR('',#379,10.);
#103=VECTOR('',#382,10.);
#104=VECTOR('',#385,10.);
#105=VECTOR('',#388,10.);
#106=VECTOR('',#391,10.);
#107=VECTOR('',#396,0.27930531025714);
#108=VECTOR('',#401,10.);
#109=VECTOR('',#404,10.);
#110=VECTOR('',#407,10.);
#111=VECTOR('',#408,10.);
#112=VECTOR('',#411,10.);
#113=CIRCLE('',#320,1.5);
#114=CIRCLE('',#321,1.5);
#115=CIRCLE('',#323,0.3825);
#116=CIRCLE('',#324,0.3825);
#117=CIRCLE('',#325,0.3825);
#118=CIRCLE('',#326,0.3825);
#119=CIRCLE('',#327,0.3825);
#120=CIRCLE('',#328,0.3825);
#121=CIRCLE('',#336,2.205);
#122=VERTEX_POINT('',#418);
#123=VERTEX_POINT('',#420);
#124=VERTEX_POINT('',#424);
#125=VERTEX_POINT('',#425);
#126=VERTEX_POINT('',#427);
#127=VERTEX_POINT('',#429);
#128=VERTEX_POINT('',#431);
#129=VERTEX_POINT('',#433);
#130=VERTEX_POINT('',#435);
#131=VERTEX_POINT('',#437);
#132=VERTEX_POINT('',#439);
#133=VERTEX_POINT('',#441);
#134=VERTEX_POINT('',#443);
#135=VERTEX_POINT('',#445);
#136=VERTEX_POINT('',#449);
#137=VERTEX_POINT('',#451);
#138=VERTEX_POINT('',#458);
#139=VERTEX_POINT('',#471);
#140=VERTEX_POINT('',#478);
#141=VERTEX_POINT('',#491);
#142=VERTEX_POINT('',#498);
#143=VERTEX_POINT('',#511);
#144=VERTEX_POINT('',#513);
#145=VERTEX_POINT('',#515);
#146=VERTEX_POINT('',#519);
#147=VERTEX_POINT('',#530);
#148=VERTEX_POINT('',#535);
#149=VERTEX_POINT('',#546);
#150=EDGE_CURVE('',#122,#122,#113,.T.);
#151=EDGE_CURVE('',#122,#123,#73,.T.);
#152=EDGE_CURVE('',#123,#123,#114,.T.);
#153=EDGE_CURVE('',#124,#125,#74,.T.);
#154=EDGE_CURVE('',#126,#124,#115,.T.);
#155=EDGE_CURVE('',#127,#126,#75,.T.);
#156=EDGE_CURVE('',#128,#127,#116,.T.);
#157=EDGE_CURVE('',#129,#128,#76,.T.);
#158=EDGE_CURVE('',#130,#129,#117,.T.);
#159=EDGE_CURVE('',#131,#130,#77,.T.);
#160=EDGE_CURVE('',#132,#131,#118,.T.);
#161=EDGE_CURVE('',#133,#132,#78,.T.);
#162=EDGE_CURVE('',#134,#133,#119,.T.);
#163=EDGE_CURVE('',#135,#134,#79,.T.);
#164=EDGE_CURVE('',#125,#135,#120,.T.);
#165=EDGE_CURVE('',#130,#136,#80,.T.);
#166=EDGE_CURVE('',#136,#137,#22,.T.);
#167=EDGE_CURVE('',#137,#131,#81,.T.);
#168=EDGE_CURVE('',#138,#129,#82,.T.);
#169=EDGE_CURVE('',#138,#136,#16,.T.);
#170=EDGE_CURVE('',#128,#139,#83,.T.);
#171=EDGE_CURVE('',#139,#138,#23,.T.);
#172=EDGE_CURVE('',#140,#127,#84,.T.);
#173=EDGE_CURVE('',#140,#139,#17,.T.);
#174=EDGE_CURVE('',#126,#141,#85,.T.);
#175=EDGE_CURVE('',#141,#140,#24,.F.);
#176=EDGE_CURVE('',#142,#124,#86,.T.);
#177=EDGE_CURVE('',#141,#142,#18,.T.);
#178=EDGE_CURVE('',#143,#143,#121,.T.);
#179=EDGE_CURVE('',#143,#144,#87,.T.);
#180=EDGE_CURVE('',#144,#145,#25,.T.);
#181=EDGE_CURVE('',#145,#146,#19,.T.);
#182=EDGE_CURVE('',#146,#147,#26,.T.);
#183=EDGE_CURVE('',#147,#148,#20,.T.);
#184=EDGE_CURVE('',#149,#148,#27,.T.);
#185=EDGE_CURVE('',#137,#149,#21,.T.);
#186=EDGE_CURVE('',#142,#144,#28,.T.);
#187=EDGE_CURVE('',#132,#149,#88,.T.);
#188=EDGE_CURVE('',#148,#133,#89,.T.);
#189=EDGE_CURVE('',#134,#147,#90,.T.);
#190=EDGE_CURVE('',#146,#135,#91,.T.);
#191=EDGE_CURVE('',#125,#145,#92,.T.);
#192=ORIENTED_EDGE('',*,*,#150,.F.);
#193=ORIENTED_EDGE('',*,*,#151,.T.);
#194=ORIENTED_EDGE('',*,*,#152,.F.);
#195=ORIENTED_EDGE('',*,*,#151,.F.);
#196=ORIENTED_EDGE('',*,*,#153,.F.);
#197=ORIENTED_EDGE('',*,*,#154,.F.);
#198=ORIENTED_EDGE('',*,*,#155,.F.);
#199=ORIENTED_EDGE('',*,*,#156,.F.);
#200=ORIENTED_EDGE('',*,*,#157,.F.);
#201=ORIENTED_EDGE('',*,*,#158,.F.);
#202=ORIENTED_EDGE('',*,*,#159,.F.);
#203=ORIENTED_EDGE('',*,*,#160,.F.);
#204=ORIENTED_EDGE('',*,*,#161,.F.);
#205=ORIENTED_EDGE('',*,*,#162,.F.);
#206=ORIENTED_EDGE('',*,*,#163,.F.);
#207=ORIENTED_EDGE('',*,*,#164,.F.);
#208=ORIENTED_EDGE('',*,*,#152,.T.);
#209=ORIENTED_EDGE('',*,*,#159,.T.);
#210=ORIENTED_EDGE('',*,*,#165,.T.);
#211=ORIENTED_EDGE('',*,*,#166,.T.);
#212=ORIENTED_EDGE('',*,*,#167,.T.);
#213=ORIENTED_EDGE('',*,*,#158,.T.);
#214=ORIENTED_EDGE('',*,*,#168,.F.);
#215=ORIENTED_EDGE('',*,*,#169,.T.);
#216=ORIENTED_EDGE('',*,*,#165,.F.);
#217=ORIENTED_EDGE('',*,*,#157,.T.);
#218=ORIENTED_EDGE('',*,*,#170,.T.);
#219=ORIENTED_EDGE('',*,*,#171,.T.);
#220=ORIENTED_EDGE('',*,*,#168,.T.);
#221=ORIENTED_EDGE('',*,*,#156,.T.);
#222=ORIENTED_EDGE('',*,*,#172,.F.);
#223=ORIENTED_EDGE('',*,*,#173,.T.);
#224=ORIENTED_EDGE('',*,*,#170,.F.);
#225=ORIENTED_EDGE('',*,*,#155,.T.);
#226=ORIENTED_EDGE('',*,*,#174,.T.);
#227=ORIENTED_EDGE('',*,*,#175,.T.);
#228=ORIENTED_EDGE('',*,*,#172,.T.);
#229=ORIENTED_EDGE('',*,*,#154,.T.);
#230=ORIENTED_EDGE('',*,*,#176,.F.);
#231=ORIENTED_EDGE('',*,*,#177,.F.);
#232=ORIENTED_EDGE('',*,*,#174,.F.);
#233=ORIENTED_EDGE('',*,*,#178,.T.);
#234=ORIENTED_EDGE('',*,*,#179,.T.);
#235=ORIENTED_EDGE('',*,*,#180,.T.);
#236=ORIENTED_EDGE('',*,*,#181,.T.);
#237=ORIENTED_EDGE('',*,*,#182,.T.);
#238=ORIENTED_EDGE('',*,*,#183,.T.);
#239=ORIENTED_EDGE('',*,*,#184,.F.);
#240=ORIENTED_EDGE('',*,*,#185,.F.);
#241=ORIENTED_EDGE('',*,*,#166,.F.);
#242=ORIENTED_EDGE('',*,*,#169,.F.);
#243=ORIENTED_EDGE('',*,*,#171,.F.);
#244=ORIENTED_EDGE('',*,*,#173,.F.);
#245=ORIENTED_EDGE('',*,*,#175,.F.);
#246=ORIENTED_EDGE('',*,*,#177,.T.);
#247=ORIENTED_EDGE('',*,*,#186,.T.);
#248=ORIENTED_EDGE('',*,*,#179,.F.);
#249=ORIENTED_EDGE('',*,*,#178,.F.);
#250=ORIENTED_EDGE('',*,*,#150,.T.);
#251=ORIENTED_EDGE('',*,*,#160,.T.);
#252=ORIENTED_EDGE('',*,*,#167,.F.);
#253=ORIENTED_EDGE('',*,*,#185,.T.);
#254=ORIENTED_EDGE('',*,*,#187,.F.);
#255=ORIENTED_EDGE('',*,*,#161,.T.);
#256=ORIENTED_EDGE('',*,*,#187,.T.);
#257=ORIENTED_EDGE('',*,*,#184,.T.);
#258=ORIENTED_EDGE('',*,*,#188,.T.);
#259=ORIENTED_EDGE('',*,*,#163,.T.);
#260=ORIENTED_EDGE('',*,*,#189,.T.);
#261=ORIENTED_EDGE('',*,*,#182,.F.);
#262=ORIENTED_EDGE('',*,*,#190,.T.);
#263=ORIENTED_EDGE('',*,*,#153,.T.);
#264=ORIENTED_EDGE('',*,*,#191,.T.);
#265=ORIENTED_EDGE('',*,*,#180,.F.);
#266=ORIENTED_EDGE('',*,*,#186,.F.);
#267=ORIENTED_EDGE('',*,*,#176,.T.);
#268=ORIENTED_EDGE('',*,*,#164,.T.);
#269=ORIENTED_EDGE('',*,*,#190,.F.);
#270=ORIENTED_EDGE('',*,*,#181,.F.);
#271=ORIENTED_EDGE('',*,*,#191,.F.);
#272=ORIENTED_EDGE('',*,*,#162,.T.);
#273=ORIENTED_EDGE('',*,*,#188,.F.);
#274=ORIENTED_EDGE('',*,*,#183,.F.);
#275=ORIENTED_EDGE('',*,*,#189,.F.);
#276=CYLINDRICAL_SURFACE('',#319,1.5);
#277=CYLINDRICAL_SURFACE('',#330,0.3825);
#278=CYLINDRICAL_SURFACE('',#332,0.3825);
#279=CYLINDRICAL_SURFACE('',#334,0.3825);
#280=CYLINDRICAL_SURFACE('',#338,0.3825);
#281=CYLINDRICAL_SURFACE('',#342,0.3825);
#282=CYLINDRICAL_SURFACE('',#343,0.3825);
#283=ADVANCED_FACE('',(#39),#276,.F.);
#284=ADVANCED_FACE('',(#40,#29),#31,.F.);
#285=ADVANCED_FACE('',(#41),#32,.T.);
#286=ADVANCED_FACE('',(#42),#277,.T.);
#287=ADVANCED_FACE('',(#43),#33,.T.);
#288=ADVANCED_FACE('',(#44),#278,.T.);
#289=ADVANCED_FACE('',(#45),#34,.T.);
#290=ADVANCED_FACE('',(#46),#279,.T.);
#291=ADVANCED_FACE('',(#47),#15,.T.);
#292=ADVANCED_FACE('',(#48,#30),#35,.T.);
#293=ADVANCED_FACE('',(#49),#280,.T.);
#294=ADVANCED_FACE('',(#50),#36,.T.);
#295=ADVANCED_FACE('',(#51),#37,.T.);
#296=ADVANCED_FACE('',(#52),#38,.T.);
#297=ADVANCED_FACE('',(#53),#281,.T.);
#298=ADVANCED_FACE('',(#54),#282,.T.);
#299=CLOSED_SHELL('',(#283,#284,#285,#286,#287,#288,#289,#290,#291,#292,
#293,#294,#295,#296,#297,#298));
#300=DERIVED_UNIT_ELEMENT(#302,1.);
#301=DERIVED_UNIT_ELEMENT(#582,3.);
#302=(
MASS_UNIT()
NAMED_UNIT(*)
SI_UNIT($,.GRAM.)
);
#303=DERIVED_UNIT((#300,#301));
#304=MEASURE_REPRESENTATION_ITEM('density measure',
POSITIVE_RATIO_MEASURE(8.94),#303);
#305=PROPERTY_DEFINITION_REPRESENTATION(#310,#307);
#306=PROPERTY_DEFINITION_REPRESENTATION(#311,#308);
#307=REPRESENTATION('material name',(#309),#579);
#308=REPRESENTATION('density',(#304),#579);
#309=DESCRIPTIVE_REPRESENTATION_ITEM('Copper','Copper');
#310=PROPERTY_DEFINITION('material property','material name',#589);
#311=PROPERTY_DEFINITION('material property','density of part',#589);
#312=DATE_TIME_ROLE('creation_date');
#313=APPLIED_DATE_AND_TIME_ASSIGNMENT(#314,#312,(#589));
#314=DATE_AND_TIME(#315,#316);
#315=CALENDAR_DATE(2023,23,7);
#316=LOCAL_TIME(11,5,38.,#317);
#317=COORDINATED_UNIVERSAL_TIME_OFFSET(0,0,.BEHIND.);
#318=AXIS2_PLACEMENT_3D('placement',#416,#344,#345);
#319=AXIS2_PLACEMENT_3D('',#417,#346,#347);
#320=AXIS2_PLACEMENT_3D('',#419,#348,#349);
#321=AXIS2_PLACEMENT_3D('',#422,#351,#352);
#322=AXIS2_PLACEMENT_3D('',#423,#353,#354);
#323=AXIS2_PLACEMENT_3D('',#428,#356,#357);
#324=AXIS2_PLACEMENT_3D('',#432,#359,#360);
#325=AXIS2_PLACEMENT_3D('',#436,#362,#363);
#326=AXIS2_PLACEMENT_3D('',#440,#365,#366);
#327=AXIS2_PLACEMENT_3D('',#444,#368,#369);
#328=AXIS2_PLACEMENT_3D('',#447,#371,#372);
#329=AXIS2_PLACEMENT_3D('',#448,#373,#374);
#330=AXIS2_PLACEMENT_3D('',#457,#377,#378);
#331=AXIS2_PLACEMENT_3D('',#470,#380,#381);
#332=AXIS2_PLACEMENT_3D('',#477,#383,#384);
#333=AXIS2_PLACEMENT_3D('',#490,#386,#387);
#334=AXIS2_PLACEMENT_3D('',#497,#389,#390);
#335=AXIS2_PLACEMENT_3D('',#510,#392,#393);
#336=AXIS2_PLACEMENT_3D('',#512,#394,#395);
#337=AXIS2_PLACEMENT_3D('',#565,#397,#398);
#338=AXIS2_PLACEMENT_3D('',#566,#399,#400);
#339=AXIS2_PLACEMENT_3D('',#568,#402,#403);
#340=AXIS2_PLACEMENT_3D('',#570,#405,#406);
#341=AXIS2_PLACEMENT_3D('',#573,#409,#410);
#342=AXIS2_PLACEMENT_3D('',#575,#412,#413);
#343=AXIS2_PLACEMENT_3D('',#576,#414,#415);
#344=DIRECTION('axis',(0.,0.,1.));
#345=DIRECTION('refdir',(1.,0.,0.));
#346=DIRECTION('center_axis',(0.,0.,-1.));
#347=DIRECTION('ref_axis',(1.,0.,0.));
#348=DIRECTION('center_axis',(0.,0.,-1.));
#349=DIRECTION('ref_axis',(1.,0.,0.));
#350=DIRECTION('',(0.,0.,-1.));
#351=DIRECTION('center_axis',(0.,0.,1.));
#352=DIRECTION('ref_axis',(1.,0.,0.));
#353=DIRECTION('center_axis',(0.,0.,1.));
#354=DIRECTION('ref_axis',(1.,0.,0.));
#355=DIRECTION('',(0.866025403784438,-0.5,0.));
#356=DIRECTION('center_axis',(0.,0.,1.));
#357=DIRECTION('ref_axis',(-1.,0.,0.));
#358=DIRECTION('',(0.,-1.,0.));
#359=DIRECTION('center_axis',(0.,0.,1.));
#360=DIRECTION('ref_axis',(-1.,0.,0.));
#361=DIRECTION('',(-0.866025403784439,-0.5,0.));
#362=DIRECTION('center_axis',(0.,0.,1.));
#363=DIRECTION('ref_axis',(-1.,0.,0.));
#364=DIRECTION('',(-0.866025403784439,0.5,0.));
#365=DIRECTION('center_axis',(0.,0.,1.));
#366=DIRECTION('ref_axis',(-1.,0.,0.));
#367=DIRECTION('',(0.,1.,0.));
#368=DIRECTION('center_axis',(0.,0.,1.));
#369=DIRECTION('ref_axis',(-1.,0.,0.));
#370=DIRECTION('',(0.866025403784439,0.5,0.));
#371=DIRECTION('center_axis',(0.,0.,1.));
#372=DIRECTION('ref_axis',(-1.,0.,0.));
#373=DIRECTION('center_axis',(0.5,0.866025403784439,0.));
#374=DIRECTION('ref_axis',(0.,0.,-1.));
#375=DIRECTION('',(1.74642400530487E-13,-1.0008505917108E-13,1.));
#376=DIRECTION('',(-1.74642400530487E-13,1.00078845023608E-13,-1.));
#377=DIRECTION('center_axis',(0.,0.,1.));
#378=DIRECTION('ref_axis',(-1.,0.,0.));
#379=DIRECTION('',(-1.73275288086824E-13,-1.00085059171079E-13,-1.));
#380=DIRECTION('center_axis',(-0.5,0.866025403784439,0.));
#381=DIRECTION('ref_axis',(0.,0.,-1.));
#382=DIRECTION('',(1.73300144676708E-13,1.00078845023608E-13,1.));
#383=DIRECTION('center_axis',(0.,0.,1.));
#384=DIRECTION('ref_axis',(-1.,0.,0.));
#385=DIRECTION('',(0.,0.,-1.));
#386=DIRECTION('center_axis',(-1.,0.,0.));
#387=DIRECTION('ref_axis',(0.,1.,0.));
#388=DIRECTION('',(0.,0.,1.));
#389=DIRECTION('center_axis',(0.,0.,1.));
#390=DIRECTION('ref_axis',(-1.,0.,0.));
#391=DIRECTION('',(1.73300144676708E-13,-1.00085059171079E-13,-1.));
#392=DIRECTION('center_axis',(9.60508257824134E-15,5.17063731181439E-16,
-1.));
#393=DIRECTION('ref_axis',(0.581108581114919,0.813826036051075,6.00239583526662E-15));
#394=DIRECTION('center_axis',(0.,0.,-1.));
#395=DIRECTION('ref_axis',(-1.,-2.12986667660766E-15,0.));
#396=DIRECTION('',(-0.503254793602643,-0.704794021481419,-0.50000000000001));
#397=DIRECTION('center_axis',(0.,0.,1.));
#398=DIRECTION('ref_axis',(-1.,0.,0.));
#399=DIRECTION('center_axis',(0.,0.,1.));
#400=DIRECTION('ref_axis',(-1.,0.,0.));
#401=DIRECTION('',(0.,0.,1.));
#402=DIRECTION('center_axis',(1.,0.,0.));
#403=DIRECTION('ref_axis',(0.,-1.,0.));
#404=DIRECTION('',(0.,0.,-1.));
#405=DIRECTION('center_axis',(0.5,-0.866025403784439,0.));
#406=DIRECTION('ref_axis',(0.,0.,1.));
#407=DIRECTION('',(-1.74642400530487E-13,-1.0008505917108E-13,1.));
#408=DIRECTION('',(1.72405307440856E-13,1.00072630876137E-13,-1.));
#409=DIRECTION('center_axis',(-0.5,-0.866025403784438,0.));
#410=DIRECTION('ref_axis',(0.,0.,1.));
#411=DIRECTION('',(-1.73275288086824E-13,1.00072630876137E-13,1.));
#412=DIRECTION('center_axis',(0.,0.,1.));
#413=DIRECTION('ref_axis',(-1.,0.,0.));
#414=DIRECTION('center_axis',(0.,0.,1.));
#415=DIRECTION('ref_axis',(-1.,0.,0.));
#416=CARTESIAN_POINT('',(0.,0.,0.));
#417=CARTESIAN_POINT('Origin',(10.,6.88382331736933E-17,45.));
#418=CARTESIAN_POINT('',(8.5,2.52535253045796E-16,45.));
#419=CARTESIAN_POINT('Origin',(10.,6.88382331736933E-17,45.));
#420=CARTESIAN_POINT('',(8.5,-1.1485878669841E-16,14.833));
#421=CARTESIAN_POINT('',(8.5,2.52535253045796E-16,45.));
#422=CARTESIAN_POINT('Origin',(10.,6.88382331736933E-17,14.833));
#423=CARTESIAN_POINT('Origin',(9.99999999999998,-1.13797860024079E-14,14.833));
#424=CARTESIAN_POINT('',(7.94125000000521,-1.40945634466218,14.833));
#425=CARTESIAN_POINT('',(9.80874999999745,-2.48765797236933,14.833));
#426=CARTESIAN_POINT('',(8.3146790192375,-1.62505568943917,14.833));
#427=CARTESIAN_POINT('',(7.75,-1.07820162771163,14.833));
#428=CARTESIAN_POINT('Origin',(8.1325,-1.07820162771163,14.833));
#429=CARTESIAN_POINT('',(7.75,1.07820162771162,14.833));
#430=CARTESIAN_POINT('',(7.75,0.646980976627199,14.833));
#431=CARTESIAN_POINT('',(7.94125000000255,1.40945634466064,14.833));
#432=CARTESIAN_POINT('Origin',(8.1325,1.07820162771162,14.833));
#433=CARTESIAN_POINT('',(9.80874999999479,2.48765797236779,14.833));
#434=CARTESIAN_POINT('',(9.4353209807621,2.27205862759058,14.833));
#435=CARTESIAN_POINT('',(10.1912500000026,2.48765797236932,14.833));
#436=CARTESIAN_POINT('Origin',(10.,2.15640325542325,14.833));
#437=CARTESIAN_POINT('',(12.0587499999948,1.40945634466217,14.833));
#438=CARTESIAN_POINT('',(11.6853209807621,1.62505568943939,14.833));
#439=CARTESIAN_POINT('',(12.25,1.07820162771162,14.833));
#440=CARTESIAN_POINT('Origin',(11.8675,1.07820162771162,14.833));
#441=CARTESIAN_POINT('',(12.25,-1.07820162771163,14.833));
#442=CARTESIAN_POINT('',(12.25,-0.646980976629506,14.833));
#443=CARTESIAN_POINT('',(12.0587499999974,-1.40945634466065,14.833));
#444=CARTESIAN_POINT('Origin',(11.8675,-1.07820162771163,14.833));
#445=CARTESIAN_POINT('',(10.1912500000052,-2.4876579723678,14.833));
#446=CARTESIAN_POINT('',(10.5646790192379,-2.2720586275906,14.833));
#447=CARTESIAN_POINT('Origin',(10.,-2.15640325542326,14.833));
#448=CARTESIAN_POINT('Origin',(12.2456419615242,1.30155422036379,-5.06907123838741));
#449=CARTESIAN_POINT('',(10.1912500000078,2.48765797236632,44.8325691450715));
#450=CARTESIAN_POINT('',(10.19125,2.48765797237079,0.167430854930702));
#451=CARTESIAN_POINT('',(12.05875,1.40945634465917,44.8325691450693));
#452=CARTESIAN_POINT('Ctrl Pts',(10.1912500000077,2.48765797236633,44.8325691450718));
#453=CARTESIAN_POINT('Ctrl Pts',(11.0344389414981,2.00084261001914,45.0754891572466));
#454=CARTESIAN_POINT('Ctrl Pts',(11.9498191370144,1.47234760772694,44.8639517750595));
#455=CARTESIAN_POINT('Ctrl Pts',(12.0587499999999,1.4094563446592,44.832569145069));
#456=CARTESIAN_POINT('',(12.05875,1.40945634465917,44.8325691450693));
#457=CARTESIAN_POINT('Origin',(10.,2.15640325542325,25.5));
#458=CARTESIAN_POINT('',(9.80874999999999,2.48765797237079,44.8325691450693));
#459=CARTESIAN_POINT('',(9.80874999999999,2.48765797237079,44.8325691450693));
#460=CARTESIAN_POINT('Ctrl Pts',(9.80874999999998,2.48765797237079,44.8325691450693));
#461=CARTESIAN_POINT('Ctrl Pts',(9.81743380966381,2.49267157221779,44.830067367537));
#462=CARTESIAN_POINT('Ctrl Pts',(9.82635318883646,2.49736512939686,44.8277317980714));
#463=CARTESIAN_POINT('Ctrl Pts',(9.88670305570301,2.52612061064484,44.8134521980365));
#464=CARTESIAN_POINT('Ctrl Pts',(9.94454591305725,2.53890325542325,44.8072208655981));
#465=CARTESIAN_POINT('Ctrl Pts',(10.0554540869428,2.53890325542325,44.8072208655981));
#466=CARTESIAN_POINT('Ctrl Pts',(10.113296944297,2.52612061064485,44.8134521980365));
#467=CARTESIAN_POINT('Ctrl Pts',(10.1736468111663,2.49736512939556,44.8277317980721));
#468=CARTESIAN_POINT('Ctrl Pts',(10.1825661903415,2.49267157221499,44.8300673675384));
#469=CARTESIAN_POINT('Ctrl Pts',(10.1912500000078,2.4876579723663,44.8325691450715));
#470=CARTESIAN_POINT('Origin',(9.99564196152422,2.59556009666618,-5.06907123838741));
#471=CARTESIAN_POINT('',(7.94125000000775,1.40945634466364,44.8325691450715));
#472=CARTESIAN_POINT('',(7.94125000000001,1.40945634465917,0.167430854930701));
#473=CARTESIAN_POINT('Ctrl Pts',(7.94125000000767,1.40945634466352,44.832569145072));
#474=CARTESIAN_POINT('Ctrl Pts',(8.7844389415009,1.89627170701235,45.0754891572473));
#475=CARTESIAN_POINT('Ctrl Pts',(9.69981913701785,2.42476670930491,44.8639517750588));
#476=CARTESIAN_POINT('Ctrl Pts',(9.80875000000003,2.48765797237073,44.8325691450693));
#477=CARTESIAN_POINT('Origin',(8.1325,1.07820162771162,25.5000000000011));
#478=CARTESIAN_POINT('',(7.75,1.07820162771162,44.8325691450693));
#479=CARTESIAN_POINT('',(7.75,1.07820162771162,44.8325691450693));
#480=CARTESIAN_POINT('Ctrl Pts',(7.75,1.07820162771161,44.8325691450693));
#481=CARTESIAN_POINT('Ctrl Pts',(7.75,1.08822882740562,44.830067367537));
#482=CARTESIAN_POINT('Ctrl Pts',(7.75039494983514,1.09830001494464,44.8277317980714));
#483=CARTESIAN_POINT('Ctrl Pts',(7.75566690600961,1.16494227339007,44.8134521980365));
#484=CARTESIAN_POINT('Ctrl Pts',(7.77351823958108,1.22142697967553,44.807220865598));
#485=CARTESIAN_POINT('Ctrl Pts',(7.82897232652383,1.31747627574772,44.807220865598));
#486=CARTESIAN_POINT('Ctrl Pts',(7.8689638503066,1.36117833725476,44.8134521980365));
#487=CARTESIAN_POINT('Ctrl Pts',(7.92404176100115,1.39906511445391,44.8277317980721));
#488=CARTESIAN_POINT('Ctrl Pts',(7.93256619034125,1.40444274481537,44.8300673675384));
#489=CARTESIAN_POINT('Ctrl Pts',(7.94125000000775,1.40945634466364,44.8325691450715));
#490=CARTESIAN_POINT('Origin',(7.75,1.29396195325441,-5.0689430854642));
#491=CARTESIAN_POINT('',(7.75,-1.07820162771163,44.8325691450693));
#492=CARTESIAN_POINT('',(7.75,-1.07820162771163,0.167430854930704));
#493=CARTESIAN_POINT('Ctrl Pts',(7.74999999999983,1.07820162771158,44.8325691450692));
#494=CARTESIAN_POINT('Ctrl Pts',(7.74999999999983,0.952419080231278,44.8639517803852));
#495=CARTESIAN_POINT('Ctrl Pts',(7.74999999999983,-0.104570921152286,45.0754891527212));
#496=CARTESIAN_POINT('Ctrl Pts',(7.74999999999983,-1.0782016277116,44.8325691450692));
#497=CARTESIAN_POINT('Origin',(8.1325,-1.07820162771163,25.4999999999989));
#498=CARTESIAN_POINT('',(7.94125000000001,-1.40945634465918,44.8325691450693));
#499=CARTESIAN_POINT('',(7.94125000000001,-1.40945634465918,44.8325691450693));
#500=CARTESIAN_POINT('Ctrl Pts',(7.75,-1.07820162771162,44.8325691450693));
#501=CARTESIAN_POINT('Ctrl Pts',(7.75,-1.08822882740563,44.830067367537));
#502=CARTESIAN_POINT('Ctrl Pts',(7.75039494983514,-1.09830001494465,44.8277317980714));
#503=CARTESIAN_POINT('Ctrl Pts',(7.75566690600961,-1.16494227339009,44.8134521980364));
#504=CARTESIAN_POINT('Ctrl Pts',(7.77351823958108,-1.22142697967554,44.807220865598));
#505=CARTESIAN_POINT('Ctrl Pts',(7.82897232652383,-1.31747627574773,44.807220865598));
#506=CARTESIAN_POINT('Ctrl Pts',(7.86896385030661,-1.36117833725477,44.8134521980365));
#507=CARTESIAN_POINT('Ctrl Pts',(7.92404176099868,-1.39906511445222,44.8277317980714));
#508=CARTESIAN_POINT('Ctrl Pts',(7.93256619033619,-1.40444274481218,44.830067367537));
#509=CARTESIAN_POINT('Ctrl Pts',(7.94125000000002,-1.40945634465919,44.8325691450693));
#510=CARTESIAN_POINT('Origin',(10.,-6.93889390390723E-15,46.1118003475001));
#511=CARTESIAN_POINT('',(8.71865557864162,-1.79448640949261,45.));
#512=CARTESIAN_POINT('Origin',(10.,6.88382331736933E-17,45.));
#513=CARTESIAN_POINT('',(8.68639521291783,-1.83966613392239,44.9679482777573));
#514=CARTESIAN_POINT('',(9.83769328745861,-0.227305933494591,46.1118003475001));
#515=CARTESIAN_POINT('',(9.80874999999225,-2.48765797236633,44.8325691450715));
#516=CARTESIAN_POINT('Ctrl Pts',(8.68639521291783,-1.83966613392239,44.9679482777573));
#517=CARTESIAN_POINT('Ctrl Pts',(9.21990223039232,-2.14768655407584,45.0022142866547));
#518=CARTESIAN_POINT('Ctrl Pts',(9.80874999999233,-2.48765797236611,44.8325691450714));
#519=CARTESIAN_POINT('',(10.19125,-2.4876579723708,44.8325691450693));
#520=CARTESIAN_POINT('Ctrl Pts',(9.80874999999225,-2.48765797236633,44.8325691450715));
#521=CARTESIAN_POINT('Ctrl Pts',(9.81743380965852,-2.49267157221502,44.8300673675384));
#522=CARTESIAN_POINT('Ctrl Pts',(9.82635318883376,-2.49736512939558,44.8277317980721));
#523=CARTESIAN_POINT('Ctrl Pts',(9.88670305570302,-2.52612061064485,44.8134521980365));
#524=CARTESIAN_POINT('Ctrl Pts',(9.94454591305724,-2.53890325542326,44.8072208655981));
#525=CARTESIAN_POINT('Ctrl Pts',(10.0554540869427,-2.53890325542326,44.8072208655981));
#526=CARTESIAN_POINT('Ctrl Pts',(10.113296944297,-2.52612061064486,44.8134521980365));
#527=CARTESIAN_POINT('Ctrl Pts',(10.1736468111635,-2.49736512939687,44.8277317980714));
#528=CARTESIAN_POINT('Ctrl Pts',(10.1825661903362,-2.49267157221781,44.830067367537));
#529=CARTESIAN_POINT('Ctrl Pts',(10.19125,-2.4876579723708,44.8325691450693));
#530=CARTESIAN_POINT('',(12.0587499999922,-1.40945634466365,44.8325691450715));
#531=CARTESIAN_POINT('Ctrl Pts',(10.19125,-2.48765797237076,44.8325691450693));
#532=CARTESIAN_POINT('Ctrl Pts',(10.3001808629879,-2.42476670930162,44.8639517750605));
#533=CARTESIAN_POINT('Ctrl Pts',(11.2155610585035,-1.89627170700987,45.0754891572462));
#534=CARTESIAN_POINT('Ctrl Pts',(12.0587499999921,-1.4094563446637,44.832569145071));
#535=CARTESIAN_POINT('',(12.25,-1.07820162771163,44.8325691450693));
#536=CARTESIAN_POINT('Ctrl Pts',(12.0587499999922,-1.40945634466367,44.8325691450715));
#537=CARTESIAN_POINT('Ctrl Pts',(12.0674338096587,-1.40444274481539,44.8300673675384));
#538=CARTESIAN_POINT('Ctrl Pts',(12.0759582389988,-1.39906511445393,44.8277317980721));
#539=CARTESIAN_POINT('Ctrl Pts',(12.1310361496934,-1.36117833725477,44.8134521980365));
#540=CARTESIAN_POINT('Ctrl Pts',(12.1710276734762,-1.31747627574773,44.8072208655981));
#541=CARTESIAN_POINT('Ctrl Pts',(12.2264817604189,-1.22142697967554,44.8072208655981));
#542=CARTESIAN_POINT('Ctrl Pts',(12.2443330939904,-1.16494227339009,44.8134521980365));
#543=CARTESIAN_POINT('Ctrl Pts',(12.2496050501649,-1.09830001494465,44.8277317980714));
#544=CARTESIAN_POINT('Ctrl Pts',(12.25,-1.08822882740563,44.830067367537));
#545=CARTESIAN_POINT('Ctrl Pts',(12.25,-1.07820162771162,44.8325691450693));
#546=CARTESIAN_POINT('',(12.25,1.07820162771162,44.8325691450693));
#547=CARTESIAN_POINT('Ctrl Pts',(12.2500000000001,1.07820162771159,44.8325691450692));
#548=CARTESIAN_POINT('Ctrl Pts',(12.2500000000001,0.104570921152265,45.0754891527212));
#549=CARTESIAN_POINT('Ctrl Pts',(12.2500000000001,-0.95241908023128,44.8639517803852));
#550=CARTESIAN_POINT('Ctrl Pts',(12.2500000000001,-1.07820162771161,44.8325691450693));
#551=CARTESIAN_POINT('Ctrl Pts',(12.05875,1.40945634465917,44.8325691450693));
#552=CARTESIAN_POINT('Ctrl Pts',(12.0674338096638,1.40444274481217,44.830067367537));
#553=CARTESIAN_POINT('Ctrl Pts',(12.0759582390013,1.39906511445221,44.8277317980714));
#554=CARTESIAN_POINT('Ctrl Pts',(12.1310361496934,1.36117833725476,44.8134521980365));
#555=CARTESIAN_POINT('Ctrl Pts',(12.1710276734762,1.31747627574772,44.8072208655981));
#556=CARTESIAN_POINT('Ctrl Pts',(12.2264817604189,1.22142697967553,44.8072208655981));
#557=CARTESIAN_POINT('Ctrl Pts',(12.2443330939904,1.16494227339008,44.8134521980365));
#558=CARTESIAN_POINT('Ctrl Pts',(12.2496050501649,1.09830001494464,44.8277317980714));
#559=CARTESIAN_POINT('Ctrl Pts',(12.25,1.08822882740562,44.830067367537));
#560=CARTESIAN_POINT('Ctrl Pts',(12.25,1.07820162771161,44.8325691450693));
#561=CARTESIAN_POINT('Ctrl Pts',(7.94125000000006,-1.40945634465895,44.8325691450696));
#562=CARTESIAN_POINT('Ctrl Pts',(8.05018086298485,-1.47234760772628,44.8639517750599));
#563=CARTESIAN_POINT('Ctrl Pts',(8.42853463990856,-1.69079026268209,44.951386447454));
#564=CARTESIAN_POINT('Ctrl Pts',(8.68639521291783,-1.83966613392239,44.9679482777573));
#565=CARTESIAN_POINT('Origin',(12.64612,-2.64612,45.));
#566=CARTESIAN_POINT('Origin',(11.8675,1.07820162771162,25.4999999999989));
#567=CARTESIAN_POINT('',(12.25,1.07820162771162,0.167430854930704));
#568=CARTESIAN_POINT('Origin',(12.25,-1.293961953259,56.0689430854641));
#569=CARTESIAN_POINT('',(12.25,-1.07820162771163,44.8325691450693));
#570=CARTESIAN_POINT('Origin',(10.0043580384758,-2.59556009666619,-5.06907123838741));
#571=CARTESIAN_POINT('',(12.05875,-1.40945634465918,0.167430854930701));
#572=CARTESIAN_POINT('',(10.19125,-2.4876579723708,44.8325691450693));
#573=CARTESIAN_POINT('Origin',(7.75435803847501,-1.30155422036335,-5.06907123838746));
#574=CARTESIAN_POINT('',(9.80874999999999,-2.4876579723708,0.167430854930701));
#575=CARTESIAN_POINT('Origin',(10.,-2.15640325542326,25.4999999999989));
#576=CARTESIAN_POINT('Origin',(11.8675,-1.07820162771163,25.5000000000011));
#577=UNCERTAINTY_MEASURE_WITH_UNIT(LENGTH_MEASURE(0.01),#581,
'DISTANCE_ACCURACY_VALUE',
'Maximum model space distance between geometric entities at asserted c
onnectivities');
#578=UNCERTAINTY_MEASURE_WITH_UNIT(LENGTH_MEASURE(0.01),#581,
'DISTANCE_ACCURACY_VALUE',
'Maximum model space distance between geometric entities at asserted c
onnectivities');
#579=(
GEOMETRIC_REPRESENTATION_CONTEXT(3)
GLOBAL_UNCERTAINTY_ASSIGNED_CONTEXT((#577))
GLOBAL_UNIT_ASSIGNED_CONTEXT((#581,#583,#584))
REPRESENTATION_CONTEXT('','3D')
);
#580=(
GEOMETRIC_REPRESENTATION_CONTEXT(3)
GLOBAL_UNCERTAINTY_ASSIGNED_CONTEXT((#578))
GLOBAL_UNIT_ASSIGNED_CONTEXT((#581,#583,#584))
REPRESENTATION_CONTEXT('','3D')
);
#581=(
LENGTH_UNIT()
NAMED_UNIT(*)
SI_UNIT(.MILLI.,.METRE.)
);
#582=(
LENGTH_UNIT()
NAMED_UNIT(*)
SI_UNIT(.CENTI.,.METRE.)
);
#583=(
NAMED_UNIT(*)
PLANE_ANGLE_UNIT()
SI_UNIT($,.RADIAN.)
);
#584=(
NAMED_UNIT(*)
SI_UNIT($,.STERADIAN.)
SOLID_ANGLE_UNIT()
);
#585=SHAPE_DEFINITION_REPRESENTATION(#586,#587);
#586=PRODUCT_DEFINITION_SHAPE('',$,#589);
#587=SHAPE_REPRESENTATION('',(#318),#579);
#588=PRODUCT_DEFINITION_CONTEXT('part definition',#593,'design');
#589=PRODUCT_DEFINITION('Standoff M3 M-M H 45mm',
'Standoff M3 M-M H 45mm',#590,#588);
#590=PRODUCT_DEFINITION_FORMATION('AFirst version',$,#595);
#591=PRODUCT_RELATED_PRODUCT_CATEGORY('Standoff M3 M-M H 45mm',
'Standoff M3 M-M H 45mm',(#595));
#592=APPLICATION_PROTOCOL_DEFINITION('international standard',
'automotive_design',2009,#593);
#593=APPLICATION_CONTEXT(
'Core Data for Automotive Mechanical Design Process');
#594=PRODUCT_CONTEXT('part definition',#593,'mechanical');
#595=PRODUCT('Standoff M3 M-M H 45mm','Standoff M3 M-M H 45mm',$,(#594));
#596=PRESENTATION_STYLE_ASSIGNMENT((#598));
#597=PRESENTATION_STYLE_ASSIGNMENT((#599));
#598=SURFACE_STYLE_USAGE(.BOTH.,#604);
#599=SURFACE_STYLE_USAGE(.BOTH.,#605);
#600=SURFACE_STYLE_RENDERING_WITH_PROPERTIES($,#612,(#602));
#601=SURFACE_STYLE_RENDERING_WITH_PROPERTIES($,#613,(#603));
#602=SURFACE_STYLE_TRANSPARENT(0.);
#603=SURFACE_STYLE_TRANSPARENT(0.);
#604=SURFACE_SIDE_STYLE('',(#606,#600));
#605=SURFACE_SIDE_STYLE('',(#607,#601));
#606=SURFACE_STYLE_FILL_AREA(#608);
#607=SURFACE_STYLE_FILL_AREA(#609);
#608=FILL_AREA_STYLE('',(#610));
#609=FILL_AREA_STYLE('',(#611));
#610=FILL_AREA_STYLE_COLOUR('',#612);
#611=FILL_AREA_STYLE_COLOUR('',#613);
#612=COLOUR_RGB('',0.188235294117647,0.529411764705882,0.890196078431372);
#613=COLOUR_RGB('',0.901960784313726,0.901960784313726,0.901960784313726);
ENDSEC;
END-ISO-10303-21;
